<?xml version="1.0" encoding="UTF-8" standalone="no"?>
<!-- Creator: CorelDRAW -->

<svg
   xmlns:dc="http://purl.org/dc/elements/1.1/"
   xmlns:cc="http://creativecommons.org/ns#"
   xmlns:rdf="http://www.w3.org/1999/02/22-rdf-syntax-ns#"
   xmlns:svg="http://www.w3.org/2000/svg"
   xmlns="http://www.w3.org/2000/svg"
   xmlns:xlink="http://www.w3.org/1999/xlink"
   xmlns:sodipodi="http://sodipodi.sourceforge.net/DTD/sodipodi-0.dtd"
   xmlns:inkscape="http://www.inkscape.org/namespaces/inkscape"
   xml:space="preserve"
   width="3.36221in"
   height="3.4207699in"
   style="fill-rule:evenodd"
   viewBox=""
   id="svg9908"
   version="1.1"
   inkscape:version="0.48.3.1 r9886"
   sodipodi:docname="player16.svg"><metadata
   id="metadata10000"><rdf:RDF><cc:Work
       rdf:about=""><dc:format>image/svg+xml</dc:format><dc:type
         rdf:resource="http://purl.org/dc/dcmitype/StillImage" /></cc:Work></rdf:RDF></metadata><sodipodi:namedview
   pagecolor="#ffffff"
   bordercolor="#666666"
   borderopacity="1"
   objecttolerance="10"
   gridtolerance="10"
   guidetolerance="10"
   inkscape:pageopacity="0"
   inkscape:pageshadow="2"
   inkscape:window-width="640"
   inkscape:window-height="480"
   id="namedview9998"
   showgrid="false"
   inkscape:zoom="0.9731707"
   inkscape:cx="151.29945"
   inkscape:cy="96.898268"
   inkscape:window-x="0"
   inkscape:window-y="0"
   inkscape:window-maximized="0"
   inkscape:current-layer="svg9908" />
 <defs
   id="defs9910">
  <style
   type="text/css"
   id="style9912">
   
    .fil18 {fill:#008676}
    .fil11 {fill:#008F80}
    .fil15 {fill:#009785}
    .fil1 {fill:#00A595}
    .fil14 {fill:#048173}
    .fil7 {fill:#057F73}
    .fil16 {fill:#069285}
    .fil21 {fill:#077C71}
    .fil19 {fill:#078074}
    .fil13 {fill:#07D4C0}
    .fil10 {fill:#08A393}
    .fil9 {fill:#0AD5C2}
    .fil8 {fill:#0FF3DC}
    .fil20 {fill:#17635B}
    .fil17 {fill:#22504A}
    .fil12 {fill:#57FFEF}
    .fil5 {fill:#0FF3DC;fill-opacity:0.501961}
    .fil4 {fill:url(#id0)}
    .fil6 {fill:url(#id1)}
    .fil0 {fill:url(#id2)}
    .fil2 {fill:url(#id3)}
    .fil3 {fill:url(#id4)}
   
  </style>
  <linearGradient
   id="id0"
   gradientUnits="userSpaceOnUse"
   x1="0.057912599"
   y1="0.19108599"
   x2="0.249503"
   y2="0.0031268499">
   <stop
   offset="0"
   style="stop-color:#343434"
   id="stop9915" />
   <stop
   offset="1"
   style="stop-color:#00BDA9"
   id="stop9917" />
  </linearGradient>
  <linearGradient
   id="id1"
   gradientUnits="userSpaceOnUse"
   x1="0.123273"
   y1="0.29195601"
   x2="0.249917"
   y2="0.0740209">
   <stop
   offset="0"
   style="stop-color:#343434"
   id="stop9920" />
   <stop
   offset="1"
   style="stop-color:#008D7F"
   id="stop9922" />
  </linearGradient>
  <linearGradient
   id="id2"
   gradientUnits="userSpaceOnUse"
   x1="0.063741401"
   y1="0.33766001"
   x2="0.310314"
   y2="0.047461301">
   <stop
   offset="0"
   style="stop-color:#343434"
   id="stop9925" />
   <stop
   offset="0.2"
   style="stop-color:#2A433E"
   id="stop9927" />
   <stop
   offset="0.678431"
   style="stop-color:#00A191"
   id="stop9929" />
   <stop
   offset="1"
   style="stop-color:#00C8B5"
   id="stop9931" />
  </linearGradient>
  <linearGradient
   id="id3"
   gradientUnits="userSpaceOnUse"
   xlink:href="#id0"
   x1="0.14881"
   y1="0.350622"
   x2="0.27311999"
   y2="0.17147499">
  </linearGradient>
  <linearGradient
   id="id4"
   gradientUnits="userSpaceOnUse"
   xlink:href="#id1"
   x1="0.189454"
   y1="0.37623799"
   x2="0.27643099"
   y2="0.27883601">
  </linearGradient>
 <linearGradient
   inkscape:collect="always"
   xlink:href="#id0"
   id="linearGradient10002"
   gradientUnits="userSpaceOnUse"
   x1="0.057912599"
   y1="0.19108599"
   x2="0.249503"
   y2="0.0031268499" /><linearGradient
   inkscape:collect="always"
   xlink:href="#id1"
   id="linearGradient10004"
   gradientUnits="userSpaceOnUse"
   x1="0.123273"
   y1="0.29195601"
   x2="0.249917"
   y2="0.0740209" /></defs>
 <g
   id="Layer_x0020_1"
   transform="scale(811.18288,808.11147)">
  <metadata
   id="CorelCorpID_0Corel-Layer" />
  <g
   id="_354745144">
   <g
   id="g9938">
    <ellipse
   id="_354757360"
   class="fil0"
   cx="0.18702801"
   cy="0.192561"
   rx="0.18702801"
   ry="0.188109"
   sodipodi:cx="0.18702801"
   sodipodi:cy="0.192561"
   sodipodi:rx="0.18702801"
   sodipodi:ry="0.188109"
   style="fill:url(#id2)"
   d="m 0.37405601,0.192561 c 0,0.10388973 -0.0837353,0.188109 -0.187028,0.188109 C 0.08373529,0.38067 0,0.29645073 0,0.192561 0,0.08867127 0.08373529,0.00445201 0.18702801,0.00445201 c 0.10329271,0 0.187028,0.08421926 0.187028,0.18810899 z" />
    <path
   id="_354760360"
   class="fil1"
   d="M 0.0483143,0.316004 C 0.0956775,0.2849857 0.0620695,0.2774001 0.1065218,0.2806518 0.1509741,0.2839038 0.1542263,0.2871618 0.1769966,0.2567998 0.1997669,0.2264373 0.2116929,0.2318656 0.2420488,0.2188513 0.2724051,0.205837 0.2705103,0.196081 0.293143,0.196081 c 0.0226327,0 0.0323883,0 0.0497369,0 0.0173482,0 0.0312737,-0.0139979 0.0312737,-0.0139979 0,0 -0.001023,0.0341982 -0.003344,0.0445181 -0.002321,0.0103194 -0.0324019,-1.6386e-4 -0.0550342,-1.6386e-4 -0.0226327,0 -0.0151847,0.00217 -0.0607188,0.0227703 -0.0455345,0.0205999 -0.0531266,0.0151843 -0.0715565,0.0314442 -0.0184303,0.0162599 0.003245,0.0205937 -0.0314446,0.0281859 -0.0346897,0.007593 -0.0314446,0.002177 -0.047704,0.009763 -0.0162599,0.007586 -0.0361916,0.0165355 -0.0361916,0.0165355 L 0.048314,0.31600454 z"
   inkscape:connector-curvature="0"
   style="fill:#00a595" />
    <path
   id="_354760480"
   class="fil2"
   d="M 0.0480453,0.318443 C 0.0954085,0.2874247 0.0618005,0.2798391 0.1062528,0.2830908 0.1507051,0.2863428 0.1539573,0.2896008 0.1767276,0.2592388 0.1994979,0.2288759 0.2114239,0.2343046 0.2417802,0.2212903 0.2721361,0.208276 0.2702412,0.19852 0.292874,0.19852 c 0.0226327,0 0.0323888,0 0.0497369,0 0.0173482,0 0.0312742,-0.0139979 0.0312742,-0.0139979 0,0 -0.001023,0.0341982 -0.003344,0.0445181 -0.002321,0.0103194 -0.0324015,-1.6429e-4 -0.0550342,-1.6429e-4 -0.0226327,0 -0.0151847,0.00217 -0.0607188,0.0227707 -0.045534,0.0205999 -0.0531262,0.0151843 -0.0715565,0.0314442 -0.0184299,0.0162599 0.003246,0.0205937 -0.0314442,0.0281859 -0.0346902,0.007593 -0.0314446,0.002177 -0.0477045,0.009763 -0.0162599,0.007586 -0.0361912,0.0165355 -0.0361912,0.0165355 L 0.0480454,0.31844351 z"
   inkscape:connector-curvature="0"
   style="fill:url(#id3)" />
    <path
   id="_354763600"
   class="fil3"
   d="M 0.11256,0.365171 C 0.1398605,0.3611517 0.1333632,0.3524778 0.1734751,0.3438035 0.2135874,0.33512964 0.2385212,0.33730621 0.2493655,0.3210398 0.2602098,0.3047734 0.24489407,0.3036916 0.2688841,0.3036916 c 0.0239896,0 0.045534,-0.0119326 0.0596301,-0.0162664 0.0140964,-0.004334 0.0248163,-0.008707 0.0248163,-0.008707 0,0 -0.0511205,0.0629019 -0.0604568,0.0689532 -0.009336,0.006052 -0.0348339,4.6572e-4 -0.0532642,0.001554 C 0.2211796,0.3503134 0.1864833,0.361158 0.1799794,0.3622401 0.1734754,0.3633221 0.1469742,0.3763493 0.1469742,0.3763493 L 0.11256,0.36517098 z"
   inkscape:connector-curvature="0"
   style="fill:url(#id4)" />
    <path
   id="_354763840"
   class="fil4"
   d="M 0.0433706,0.102024 C 0.0650526,0.0738377 0.0737265,0.070586 0.1008307,0.05866 0.1279349,0.046734 0.145283,0.0348075 0.1713055,0.0358897 0.197328,0.0369714 0.2326539,0.0482416 0.2512213,0.0482416 c 0.006819,0 0.0126147,-0.0039076 0.0194332,-0.01485 0.0048,-0.0076907 0.0367682,0.015211 0.0367682,0.015211 0,0 -0.0291169,-0.0293596 -0.0736411,-0.0381583 C 0.189257,0.00164558 0.1776258,0.00340287 0.1624152,0.00606443 0.1472042,0.00872644 0.1124159,0.01837073 0.0980771,0.02704503 0.0837384,0.03571933 0.0153289,0.08563933 0.0076644,0.13910003 -4e-8,0.19256093 0.0433706,0.10202383 0.0433706,0.10202383 z"
   inkscape:connector-curvature="0"
   style="fill:url(#linearGradient10002)" />
    <path
   id="_354764200"
   class="fil5"
   d="M 0.0842037,0.0366757 C 0.08769857,0.03424327 0.1250043,0.0153871 0.1560161,0.012496 0.1870278,0.00960442 0.1999046,0.008949 0.2102963,0.01104714 c 0.0103922,0.0020977 0.0220102,-0.00569773 0.0324348,0.0070414 0.0104246,0.0127392 0.007717,0.0100312 0.003921,0.0181613 -0.003796,0.0081297 -0.0105626,0.0066809 0.001626,0.0111063 0.0121884,0.0044259 0.0281859,0 0.0281859,0 0,0 -5.3757e-4,-0.0135519 0.009218,0 0.009756,0.0135523 -0.00813,0.0103002 0.014096,0.0178923 0.0222262,0.0075926 0.0140964,-0.0032583 0.0140964,0.0184303 0,0.0216886 0.0269206,0.0186069 0.0253863,0.0274647 -0.001534,0.008857 -0.0237605,-0.009028 -0.0102082,0.01862 0.0135519,0.0276483 0.00217,0.0130143 0.0135519,0.0276483 0.0113819,0.014634 0.0173416,0.0028 0.0243962,0.018974 0.006393,0.0146603 0.006694,0.0258192 0.006688,0.0277863 2.3571e-4,-0.003842 3.6714e-4,-0.00771 3.6714e-4,-0.0116114 0,-0.103893 -0.0837384,-0.188109 -0.187028,-0.188109 -0.0200167,0 -0.0392992,0.00317329 -0.0573751,0.0090283 -0.016496,0.0059269 -0.0318967,0.013788 -0.0454491,0.0231962 z"
   inkscape:connector-curvature="0"
   style="fill:#0ff3dc;fill-opacity:0.5019609" />
    <path
   id="_354764296"
   class="fil1"
   d="M 0.0130143,0.219927 C 0.0368668,0.174393 0.00542215,0.1462071 0.0791487,0.1472888 c 0.0737269,0.001082 0.0639709,-0.0184364 0.117098,-0.0227703 0.0531262,-0.004334 0.0737331,-0.002163 0.110593,-0.007586 0.0368602,-0.005422 0.0411612,-0.023859 0.0481636,-0.006124 0.00394,0.009965 0.007848,0.0200492 0.009172,0.0245863 0.001029,0.003527 0.001652,0.002216 -0.007802,0.004701 -0.0216097,0.005691 -0.0182332,0.008274 -0.0419476,0.008274 -0.0237145,0 0.00217,-0.001082 -0.0444523,-0.001082 -0.0466228,0 -0.0536642,-0.002721 -0.0693865,0.019512 -0.0157223,0.0222327 -6.57e-6,0.0303625 -0.0693926,0.0303625 -0.0693865,0 -0.0563718,-0.0205999 -0.0780604,0.008674 C 0.0314453,0.2351118 0.014084,0.2658418 0.014084,0.2658418 c 0,0 -0.0110476,-0.0325855 -0.001069,-0.0459148 z"
   inkscape:connector-curvature="0"
   style="fill:#00a595" />
    <path
   id="_354765040"
   class="fil6"
   d="M 0.0151782,0.223454 C 0.0390302,0.17792 0.00758605,0.1497341 0.0813126,0.1508158 c 0.0737265,0.001082 0.0639705,-0.0184364 0.117097,-0.0227703 0.0531266,-0.004334 0.0737331,-0.002163 0.110593,-0.007586 0.0368602,-0.005422 0.0411612,-0.0238586 0.0481632,-0.006124 0.00394,0.009965 0.007848,0.0200492 0.009172,0.0245863 0.001029,0.003527 0.001652,0.002216 -0.007802,0.004701 -0.0216102,0.005691 -0.0182336,0.008274 -0.0419481,0.008274 -0.0237145,0 0.00217,-0.001082 -0.0444523,-0.001082 -0.0466223,0 -0.0536638,-0.002721 -0.0693861,0.019512 -0.0157223,0.0222327 -6.57e-6,0.0303625 -0.0693931,0.0303625 -0.0693861,0 -0.0563718,-0.0205999 -0.0780604,0.008674 -0.0216886,0.0292742 -0.0390499,0.0600042 -0.0390499,0.0600042 0,0 -0.0110476,-0.0325855 -0.0010686,-0.0459148 z"
   inkscape:connector-curvature="0"
   style="fill:url(#linearGradient10004)" />
   </g>
   <g
   id="g9948">
    <g
   id="g9950">
     <path
   id="_354770464"
   class="fil7"
   d="M 0.181621,0.00752249 C 0.178548,0.00914134 0.177847,0.00978318 0.176043,0.01017135 c -0.001804,3.8861e-4 -0.001161,7.8817e-4 0.004598,0.0043036 0.005759,0.0035155 0.007076,0.0072127 0.017739,0.0095865 0.0106634,0.0023733 0.0262774,0.0045516 0.0311572,0.0057293 0.00488,0.0011781 0.004864,3.3472e-4 0.009543,8.8763e-4 0.004678,5.5246e-4 0.009491,0.0011225 0.009006,-0.0022261 -4.85e-4,-0.0033481 -0.002263,-0.0046861 -0.002263,-0.0046861 0,0 -0.0456944,-0.0034681 -0.056076,-0.0117639 C 0.1793656,0.00370651 0.1816212,0.00752252 0.1816212,0.00752252 z"
   inkscape:connector-curvature="0"
   style="fill:#057f73" />
     <g
   id="g9953">
      <path
   id="_354770776"
   class="fil8"
   d="M 0.192302,0 C 0.184754,0.00217876 0.186973,0.00582872 0.19019,0.00838558 c 0.003217,0.00255686 0.0124947,0.00823355 0.0226157,0.00992469 0.010121,0.0016907 0.0122454,6.1819e-4 0.0198665,3.8467e-4 0.007621,-2.3308e-4 0.0195585,0.0071063 0.0144408,1.4589e-4 C 0.241995,0.01188043 0.248646,0.01351853 0.2349307,0.00846793 0.22121523,0.00341731 0.22049763,0.00278422 0.21702023,0.00253669 0.21354289,0.00228915 0.20692203,0.00142957 0.20169833,8.63521e-4 0.19647465,2.97472e-4 0.19230201,0 0.19230201,0 z"
   inkscape:connector-curvature="0"
   style="fill:#0ff3dc" />
      <path
   id="_354770992"
   class="fil9"
   d="m 0.189202,0.00577483 c 5.0427e-4,6.046e-4 0.001131,0.00118511 0.001802,0.00171786 0.003217,0.0025573 0.0121372,0.00920574 0.0222586,0.0108969 0.010121,0.0016907 0.0146704,0.0027908 0.0222914,0.0025573 0.005829,-1.7831e-4 0.0129722,0.0022335 0.0137201,2.6331e-4 l -1.9452e-4,-2.6988e-4 c -0.001984,-0.0026992 -0.002199,-0.0041052 -0.002518,-0.0051098 -1.9365e-4,-3.5619e-4 -3.505e-4,-6.8084e-4 -4.7799e-4,-9.7701e-4 -7.7985e-4,-0.0010103 -0.002719,-0.0019045 -0.009186,-0.0042861 C 0.22318189,0.00551679 0.22246469,0.0048837 0.21898729,0.00463617 0.21551029,0.00438864 0.20888869,0.00352905 0.20366499,0.002963 c -0.005224,-5.6604e-4 -0.009396,-8.6353e-4 -0.009396,-8.6353e-4 -0.003459,9.9847e-4 -0.004866,0.00230582 -0.005066,0.00367537 z"
   inkscape:connector-curvature="0"
   style="fill:#0ad5c2" />
      <path
   id="_354771016"
   class="fil10"
   d="m 0.205444,0.0161249 c 0.007232,9.4064e-4 0.00826,0.0013262 0.012259,0.001611 0.003073,2.1862e-4 0.0209946,0.0034392 0.0279883,0.0024977 0.001104,-1.4852e-4 6.2213e-4,-0.0029468 -0.001522,-0.0055943 -0.001941,-0.0023978 -0.005541,-0.00468085 -0.005145,-0.0046243 0.001781,2.5542e-4 0.003848,0.0016088 0.005301,0.0028911 0.002491,0.0021993 0.003551,0.005324 0.003898,0.0054603 C 0.2526313,0.0247345 0.2430163,0.0207187 0.2355534,0.0209469 0.2279324,0.02118042 0.2233829,0.0200803 0.213262,0.0183896 0.21054,0.0179344 0.207905,0.0171208 0.205444,0.016125 z"
   inkscape:connector-curvature="0"
   style="fill:#08a393" />
      <path
   id="_354771040"
   class="fil11"
   d="m 0.186647,0.00250122 c -0.005826,0.00220592 -0.003436,0.00630583 -3.2859e-4,0.0087755 0.003107,0.0024692 0.011551,0.0094861 0.0216719,0.0111768 0.0101214,0.0016907 0.0158717,0.0013989 0.0222542,0.0022484 0.006382,8.4951e-4 0.0196544,0.0030296 0.0192658,-0.002634 -0.005512,0.0015711 -0.0104544,-8.8456e-4 -0.0154879,-0.0010913 -0.005034,-2.0723e-4 -0.0128465,8.8894e-4 -0.0229675,-8.0176e-4 -0.0101214,-0.0016911 -0.0195519,-0.0087457 -0.0222586,-0.0108969 -0.002707,-0.00215116 -0.003674,-0.0048285 -0.002149,-0.00677681 z"
   inkscape:connector-curvature="0"
   style="fill:#008f80" />
     </g>
    </g>
    <path
   id="_354767824"
   class="fil12"
   d="m 0.187209,0.00396847 c 0,0 7.2027e-4,-0.00154174 0.002906,-0.00275532 C 0.19230169,0 0.19510521,-2.138e-4 0.1973361,5.218e-4 c 0.002231,7.3604e-4 0.006032,9.1172e-4 0.007695,0.00116189 0.001664,2.506e-4 0.0120224,7.4173e-4 0.0132912,9.8533e-4 0.001269,2.4359e-4 0.003669,9.8226e-4 0.003669,9.8226e-4 0,0 -0.0262836,-0.002803521 -0.029463,-0.00142038 -0.003179,0.0013827 -0.00532,0.00173758 -0.00532,0.00173758 z"
   inkscape:connector-curvature="0"
   style="fill:#57ffef" />
   </g>
   <g
   id="g9960">
    <path
   id="_354771088"
   class="fil7"
   d="M 0.334575,0.0979242 C 0.3242183,0.08897871 0.3096947,0.0823907 0.297512,0.0844245 0.2853297,0.08645824 0.2645458,0.08638289 0.2832079,0.0980307 0.3018704,0.1096781 0.2986038,0.1102586 0.3122578,0.1112018 0.3259113,0.11214507 0.3345751,0.0979242 0.3345751,0.0979242 z"
   inkscape:connector-curvature="0"
   style="fill:#057f73" />
    <path
   id="_354771160"
   class="fil12"
   d="M 0.315898,0.0935811 C 0.309264,0.0878518 0.2999623,0.0836323 0.2921599,0.0849348 0.2843579,0.0862378 0.2710457,0.0861891 0.2829989,0.0936494 0.2949516,0.1011092 0.2928599,0.1014808 0.3016045,0.1020849 0.3103495,0.10268906 0.3158985,0.093581 0.3158985,0.093581 z"
   inkscape:connector-curvature="0"
   style="fill:#57ffef" />
    <path
   id="_354771184"
   class="fil9"
   d="M 0.328825,0.0944096 C 0.32067294,0.08736817 0.3092411,0.082183 0.2996525,0.0837839 0.29006341,0.08538478 0.2737041,0.0853252 0.2883933,0.0944933 0.303083,0.10366136 0.3005116,0.10411788 0.3112587,0.1048605 0.3220053,0.10560267 0.328825,0.0944096 0.328825,0.0944096 z"
   inkscape:connector-curvature="0"
   style="fill:#0ad5c2" />
   </g>
   <g
   id="g9965">
    <path
   id="_354771280"
   class="fil7"
   d="m 0.0475967,0.0673515 c -9.682e-5,9.5247e-4 -5.652e-5,0.0012114 -2.4272e-4,0.0016846 -1.862e-4,4.7361e-4 3.51e-6,3.8686e-4 0.0016894,-3.9869e-4 0.0016859,-7.8598e-4 0.0027356,-5.2399e-4 0.0049078,-0.0026094 0.0021718,-0.0020859 0.0050541,-0.005338 0.0060693,-0.0062782 0.0010151,-9.4064e-4 8.1928e-4,-0.0010659 0.0016596,-0.0020552 8.4075e-4,-9.8971e-4 0.001706,-0.0020075 8.6353e-4,-0.002407 -8.4294e-4,-3.9956e-4 -0.0014212,-1.9584e-4 -0.0014212,-1.9584e-4 0,0 -0.0077683,0.0099606 -0.011257,0.0110783 -0.0034883,0.0011172 -0.0022686,0.0011816 -0.0022686,0.0011816 z"
   inkscape:connector-curvature="0"
   style="fill:#057f73" />
    <g
   id="g9968">
     <path
   id="_354771376"
   class="fil8"
   d="M 0.0474999,0.0637519 C 0.04684842,0.0658167 0.04802476,0.0658645 0.0491025,0.0655162 0.0501807,0.0651679 0.0528992,0.0639044 0.0548318,0.0618386 0.0567643,0.0597733 0.0568423,0.0591218 0.0579516,0.0573369 0.0590609,0.055552 0.0625672,0.0539314 0.0601882,0.054044 0.0578097,0.05415703 0.05920068,0.0528799 0.0559485,0.055258 0.0526959,0.0576357 0.0524414,0.057704 0.0518538,0.0584641 0.05126628,0.05922467 0.0500588,0.0606135 0.0491318,0.0617263 0.04820474,0.0628391 0.0474998,0.0637517 0.0474998,0.0637517 z"
   inkscape:connector-curvature="0"
   style="fill:#0ff3dc" />
     <path
   id="_354771448"
   class="fil9"
   d="m 0.0483525,0.0653444 c 2.1599e-4,-2.322e-5 4.4469e-4,-7.886e-5 6.6944e-4,-1.5115e-4 0.0010778,-3.4831e-4 0.0039654,-0.0013818 0.0058975,-0.0034471 0.0019325,-0.0020653 0.0028793,-0.002942 0.0039886,-0.0047269 8.4864e-4,-0.0013656 0.002492,-0.0026375 0.0021538,-0.0031098 l -9.156e-5,3.5e-6 c -9.2224e-4,4.382e-5 -0.0012776,-1.2136e-4 -0.0015571,-2.0153e-4 -1.1128e-4,-1.008e-5 -2.0986e-4,-2.366e-5 -2.9748e-4,-3.943e-5 -3.505e-4,2.497e-5 -8.5171e-4,3.3341e-4 -0.0023851,0.0014545 -0.0032526,0.0023781 -0.0035071,0.002446 -0.0040946,0.0032066 -5.8752e-4,7.6057e-4 -0.001795,0.0021494 -0.002722,0.0032622 -9.2706e-4,0.0011128 -0.001632,0.0020254 -0.001632,0.0020254 -2.9836e-4,9.4633e-4 -2.1293e-4,0.0014686 7.053e-5,0.0017236 z"
   inkscape:connector-curvature="0"
   style="fill:#0ad5c2" />
     <path
   id="_354771520"
   class="fil10"
   d="m 0.0532068,0.063195 c 0.0013196,-0.0015163 0.001565,-0.0016938 0.0022405,-0.0025683 5.1917e-4,-6.7207e-4 0.003993,-0.0042944 0.0048438,-0.0060438 1.345e-4,-2.7601e-4 -5.8138e-4,-5.9234e-4 -0.0015163,-5.0427e-4 -8.4644e-4,7.973e-5 -0.0019198,5.5772e-4 -0.0018467,4.7535e-4 3.3034e-4,-3.6977e-4 9.5641e-4,-6.3746e-4 0.0014725,-7.7547e-4 8.85e-4,-2.3658e-4 0.0017639,-2.62e-6 0.0018484,-6.177e-5 0.0021345,-4.031e-5 -2.5499e-4,0.0015544 -0.0013411,0.0033025 -0.0011093,0.0017849 -0.0020561,0.0026616 -0.0039886,0.0047269 -5.1961e-4,5.5553e-4 -0.0011084,0.0010362 -0.0017126,0.0014489 z"
   inkscape:connector-curvature="0"
   style="fill:#08a393" />
     <path
   id="_354771544"
   class="fil11"
   d="M 0.0472112,0.0654312 C 0.04682872,0.0671053 0.04813475,0.0671824 0.0491757,0.0668459 0.0502167,0.06650942 0.0531157,0.0656415 0.0550482,0.0635762 0.0569807,0.0615109 0.0577913,0.0601462 0.0589602,0.0588108 0.0601291,0.057475 0.0626549,0.0547608 0.0612954,0.0539862 0.06081478,0.0554911 0.0594969,0.0562508 0.0586816,0.057375 0.05786582,0.0584988 0.0569252,0.0604593 0.0549926,0.0625251 0.0530605,0.0645904 0.050002,0.0656791 0.0490951,0.0659722 0.0481882,0.0662653 0.0474259,0.06607866 0.0472112,0.06543112 z"
   inkscape:connector-curvature="0"
   style="fill:#008f80" />
    </g>
   </g>
   <g
   id="g9974">
    <path
   id="_354771664"
   class="fil7"
   d="M 0.277405,0.0270687 C 0.273739,0.0239826 0.268283,0.0211173 0.2633072,0.0205688 0.2583312,0.02002028 0.2500296,0.0182144 0.2568722,0.0226779 0.2637152,0.027141 0.2623792,0.0270026 0.2677853,0.028408 0.2731913,0.0298135 0.2774043,0.0270687 0.2774043,0.0270687 z"
   inkscape:connector-curvature="0"
   style="fill:#057f73" />
    <path
   id="_354771688"
   class="fil12"
   d="M 0.270171,0.0243966 C 0.267823,0.0224202 0.264328,0.020585 0.261142,0.0202336 0.257955,0.01988223 0.252638,0.018726 0.257021,0.0215843 0.261403,0.024443 0.260548,0.0243541 0.264011,0.0252544 0.267473,0.02615473 0.270172,0.02439656 0.270172,0.02439656 z"
   inkscape:connector-curvature="0"
   style="fill:#57ffef" />
    <path
   id="_354771808"
   class="fil9"
   d="M 0.275293,0.0257118 C 0.272407,0.0232829 0.268113,0.021027 0.2641963,0.0205955 c -0.003916,-4.3155e-4 -0.0104509,-0.0018528 -0.005065,0.00166 0.005386,0.0035128 0.004334,0.0034037 0.00859,0.0045104 0.004255,0.0011063 0.007572,-0.0010541 0.007572,-0.0010541 z"
   inkscape:connector-curvature="0"
   style="fill:#0ad5c2" />
   </g>
   <g
   id="g9979">
    <path
   id="_354771904"
   class="fil13"
   d="M 0.101082,0.0660178 C 0.0965409,0.0743223 0.100014,0.0788135 0.103687,0.0809059 0.10736,0.0829983 0.1171066,0.0862908 0.1254952,0.082608 0.1338832,0.0789252 0.1349322,0.0758452 0.1404981,0.0706377 0.1460631,0.0654302 0.1586217,0.06972335 0.1513371,0.0617202 0.1440521,0.0537171 0.1498271,0.0521482 0.1370842,0.0526805 0.1243411,0.05321281 0.1234907,0.05264501 0.1207748,0.0544487 0.1180588,0.0562529 0.1126938,0.0590608 0.1085171,0.0614568 0.1043401,0.0638529 0.1010821,0.0660176 0.1010821,0.0660176 z"
   inkscape:connector-curvature="0"
   style="fill:#07d4c0" />
    <path
   id="_354772144"
   class="fil14"
   d="M 0.0991996,0.0720638 C 0.0960653,0.0790759 0.09976214,0.0840135 0.10319,0.0859662 0.106617,0.0879193 0.1160799,0.0937025 0.1241851,0.0901437 0.1322901,0.0865853 0.1362925,0.0826076 0.1412993,0.0800249 0.1463063,0.0774426 0.1569169,0.072718 0.1539092,0.0641138 0.1506952,0.0699425 0.1459512,0.0691351 0.1422263,0.0718948 0.1385003,0.0746545 0.1334003,0.0811505 0.1252948,0.0847093 0.1171898,0.0882677 0.1069981,0.0830296 0.1040123,0.0813288 0.1010263,0.0796276 0.0990401,0.0760394 0.0991996,0.0720639 z"
   inkscape:connector-curvature="0"
   style="fill:#048173" />
    <path
   id="_354772240"
   class="fil15"
   d="M 0.10165,0.0773138 C 0.10232733,0.07797098 0.103084,0.0785116 0.103849,0.078948 0.107522,0.0810404 0.1174867,0.0861296 0.1258749,0.0824468 0.1342639,0.0787635 0.1382035,0.0776573 0.143769,0.0724503 0.148026,0.0684669 0.1545537,0.0678365 0.1541292,0.0641791 l -2.7873e-4,-3.129e-4 c -0.002825,-0.0031041 -0.003686,-0.005239 -0.004425,-0.0066603 -3.2158e-4,-4.5301e-4 -6.0066e-4,-8.7842e-4 -8.4338e-4,-0.0012762 -0.001085,-0.0011378 -0.002976,-0.0013542 -0.008984,-0.0011032 -0.0127431,5.3232e-4 -0.0135935,-3.548e-5 -0.0163094,0.0017682 -0.002716,0.0018042 -0.008081,0.0046121 -0.0122577,0.0070081 -0.004177,0.0023961 -0.007435,0.0045608 -0.007435,0.0045608 -0.002082,0.0038059 -0.002478,0.0068097 -0.001945,0.0091501 z"
   inkscape:connector-curvature="0"
   style="fill:#009785" />
    <path
   id="_354772288"
   class="fil16"
   d="M 0.118918,0.0837432 C 0.124779,0.0806786 0.125737,0.0806501 0.12886,0.0785756 0.13126,0.0769817 0.146227,0.0708262 0.1509718,0.0648717 0.15172098,0.0639315 0.1499668,0.0597155 0.1470488,0.0567959 0.1444068,0.0541523 0.1405848,0.0527446 0.1409078,0.0525852 c 0.001455,-7.1588e-4 0.003671,1.6079e-4 0.005393,0.0013122 0.002954,0.001975 0.005301,0.0063523 0.005628,0.0063523 0.00646,0.0074958 -0.00271,0.007101 -0.00816,0.0122007 -0.005565,0.005207 -0.009505,0.0063133 -0.0178941,0.0099965 -0.002256,9.9059e-4 -0.004626,0.0013459 -0.006957,0.0012964 z"
   inkscape:connector-curvature="0"
   style="fill:#069285" />
   </g>
   <g
   id="g9985">
    <path
   id="_354772768"
   class="fil17"
   d="M 0.168753,0.370964 C 0.171826,0.369345 0.172527,0.368703 0.174331,0.368315 0.176135,0.36792639 0.175492,0.36752726 0.169733,0.364012 0.163973,0.360497 0.162657,0.356799 0.1519936,0.354425 0.1413302,0.352052 0.1257166,0.349873 0.1208368,0.348696 c -0.00488,-0.001178 -0.004865,-3.3472e-4 -0.009543,-8.8763e-4 -0.004678,-5.5246e-4 -0.009491,-0.001122 -0.009006,0.002226 4.8456e-4,0.003349 0.002263,0.004686 0.002263,0.004686 0,0 0.0456948,0.003468 0.056076,0.0117639 0.0103816,0.008296 0.008126,0.00448 0.008126,0.00448 z"
   inkscape:connector-curvature="0"
   style="fill:#22504a" />
    <g
   id="g9988">
     <path
   id="_354773368"
   class="fil18"
   d="M 0.158072,0.378486 C 0.165619,0.376307 0.163401,0.372658 0.160184,0.3701 0.156967,0.367543 0.1476897,0.361866 0.1375688,0.360175 0.1274474,0.358484 0.125323,0.35955725 0.1177023,0.35979033 c -0.007621,2.3308e-4 -0.0195585,-0.007106 -0.0144408,-1.4589e-4 0.005118,0.00696 -0.001533,0.005322 0.0121819,0.0103729 0.0137157,0.005051 0.0144329,0.005684 0.0179103,0.005931 0.003477,2.4754e-4 0.0100986,0.001107 0.0153223,0.001673 0.005224,5.6649e-4 0.009396,8.6353e-4 0.009396,8.6353e-4 z"
   inkscape:connector-curvature="0"
   style="fill:#008676" />
     <path
   id="_354773680"
   class="fil19"
   d="M 0.14493,0.362361 C 0.137698,0.3614208 0.136669,0.361035 0.132671,0.36075 0.129598,0.36053138 0.1116764,0.357311 0.1046827,0.358252 c -0.001105,1.4896e-4 -6.2257e-4,0.002947 0.001522,0.005595 0.001941,0.002397 0.00554,0.004681 0.005145,0.004624 C 0.1095687,0.36821558 0.1075017,0.366863 0.1060487,0.36558 0.1035577,0.363381 0.1024977,0.360256 0.1021507,0.36012 0.0977428,0.353752 0.1073587,0.357768 0.1148211,0.357539 c 0.007621,-2.3308e-4 0.0121705,8.666e-4 0.0222914,0.002558 0.002722,4.5477e-4 0.005357,0.001268 0.007818,0.002264 z"
   inkscape:connector-curvature="0"
   style="fill:#078074" />
     <path
   id="_354773776"
   class="fil20"
   d="M 0.163726,0.375985 C 0.169552,0.373779 0.167161,0.369679 0.16405459,0.36721 0.16094759,0.364741 0.15250359,0.357724 0.14238219,0.3560332 c -0.010121,-0.001691 -0.0158717,-0.001399 -0.0222542,-0.002248 -0.006382,-8.4951e-4 -0.019654,-0.00303 -0.0192654,0.002634 0.005512,-0.001571 0.0104544,8.85e-4 0.0154879,0.001092 0.005033,2.0679e-4 0.0128465,-8.8938e-4 0.0229675,8.0176e-4 0.010121,0.001691 0.0195519,0.008745 0.0222586,0.0108964 0.002707,0.002151 0.003674,0.004829 0.002149,0.006777 z"
   inkscape:connector-curvature="0"
   style="fill:#17635b" />
    </g>
   </g>
   <g
   id="g9993">
    <path
   id="_354773872"
   class="fil14"
   d="M 0.330465,0.294023 C 0.334072,0.285954 0.3298179,0.2802722 0.325874,0.2780251 0.32193,0.2757781 0.3110415,0.2691231 0.3017149,0.2732181 0.2923879,0.2773131 0.2877827,0.2818901 0.2820215,0.284862 0.2762595,0.287834 0.2640499,0.29327 0.267511,0.3031714 0.27121,0.2964634 0.276668,0.2973934 0.2809547,0.2942174 c 0.004287,-0.003175 0.010156,-0.0106506 0.0194831,-0.0147457 0.009327,-0.004095 0.0210542,0.001933 0.0244899,0.00389 0.003436,0.001958 0.005721,0.006086 0.005538,0.0106612 z"
   inkscape:connector-curvature="0"
   style="fill:#048173" />
    <path
   id="_354773944"
   class="fil21"
   d="M 0.327646,0.287982 C 0.32686659,0.28722537 0.325996,0.286604 0.325115,0.286102 0.320888,0.283694 0.3094216,0.277838 0.299769,0.282076 0.290116,0.286314 0.2855823,0.287587 0.2791783,0.2935792 0.2742793,0.2981632 0.2667682,0.2988882 0.2672567,0.3030972 l 3.2158e-4,3.597e-4 c 0.003251,0.003572 0.004241,0.006029 0.005091,0.007664 3.7021e-4,5.2136e-4 6.9135e-4,0.00101 9.7087e-4,0.001468 0.001248,0.00131 0.003424,0.001558 0.0103387,0.00127 0.0146634,-6.1249e-4 0.0156417,4.118e-5 0.0187672,-0.002035 0.003125,-0.002076 0.009299,-0.005307 0.0141043,-0.008064 0.004806,-0.002757 0.008556,-0.005248 0.008556,-0.005248 0.002395,-0.004379 0.002852,-0.007836 0.002238,-0.0105289 z"
   inkscape:connector-curvature="0"
   style="fill:#077c71" />
    <path
   id="_354773968"
   class="fil16"
   d="M 0.307775,0.280584 C 0.301031,0.28411 0.299927,0.284143 0.296334,0.28653 0.293572,0.288365 0.2763497,0.295448 0.2708899,0.3022996 c -8.6178e-4,0.001082 0.001157,0.005933 0.004515,0.009292 0.003041,0.003042 0.007438,0.004662 0.007066,0.004846 -0.001674,8.241e-4 -0.004223,-1.8489e-4 -0.006206,-0.00151 -0.003399,-0.002273 -0.0061,-0.00731 -0.006476,-0.00731 -0.007434,-0.008625 0.003119,-0.008171 0.00939,-0.0140395 0.006404,-0.005992 0.0109381,-0.007265 0.0205907,-0.0115032 0.002596,-0.00114 0.005323,-0.001549 0.008006,-0.001491 z"
   inkscape:connector-curvature="0"
   style="fill:#069285" />
   </g>
  </g>
 </g>
</svg>
