<?xml version="1.0" encoding="UTF-8"?>
<!DOCTYPE svg PUBLIC "-//W3C//DTD SVG 1.1//EN" "http://www.w3.org/Graphics/SVG/1.1/DTD/svg11.dtd">
<!-- Creator: CorelDRAW -->
<svg xmlns="http://www.w3.org/2000/svg" xml:space="preserve" width="3.36221in" height="3.42077in" style="shape-rendering:geometricPrecision; text-rendering:geometricPrecision; image-rendering:optimizeQuality; fill-rule:evenodd; clip-rule:evenodd"
viewBox="0 0 0.374154 0.38067"
 xmlns:xlink="http://www.w3.org/1999/xlink">
 <defs>
  <style type="text/css">
   <![CDATA[
    .fil18 {fill:#008676}
    .fil11 {fill:#008F80}
    .fil15 {fill:#009785}
    .fil1 {fill:#00A595}
    .fil14 {fill:#048173}
    .fil7 {fill:#057F73}
    .fil16 {fill:#069285}
    .fil21 {fill:#077C71}
    .fil19 {fill:#078074}
    .fil13 {fill:#07D4C0}
    .fil10 {fill:#08A393}
    .fil9 {fill:#0AD5C2}
    .fil8 {fill:#0FF3DC}
    .fil20 {fill:#17635B}
    .fil17 {fill:#22504A}
    .fil12 {fill:#57FFEF}
    .fil5 {fill:#0FF3DC;fill-opacity:0.501961}
    .fil4 {fill:url(#id0)}
    .fil6 {fill:url(#id1)}
    .fil0 {fill:url(#id2)}
    .fil2 {fill:url(#id3)}
    .fil3 {fill:url(#id4)}
   ]]>
  </style>
  <linearGradient id="id0" gradientUnits="userSpaceOnUse" x1="0.0579126" y1="0.191086" x2="0.249503" y2="0.00312685">
   <stop offset="0" style="stop-color:#343434"/>
   <stop offset="1" style="stop-color:#00BDA9"/>
  </linearGradient>
  <linearGradient id="id1" gradientUnits="userSpaceOnUse" x1="0.123273" y1="0.291956" x2="0.249917" y2="0.0740209">
   <stop offset="0" style="stop-color:#343434"/>
   <stop offset="1" style="stop-color:#008D7F"/>
  </linearGradient>
  <linearGradient id="id2" gradientUnits="userSpaceOnUse" x1="0.0637414" y1="0.33766" x2="0.310314" y2="0.0474613">
   <stop offset="0" style="stop-color:#343434"/>
   <stop offset="0.2" style="stop-color:#2A433E"/>
   <stop offset="0.678431" style="stop-color:#00A191"/>
   <stop offset="1" style="stop-color:#00C8B5"/>
  </linearGradient>
  <linearGradient id="id3" gradientUnits="userSpaceOnUse" xlink:href="#id0" x1="0.14881" y1="0.350622" x2="0.27312" y2="0.171475">
  </linearGradient>
  <linearGradient id="id4" gradientUnits="userSpaceOnUse" xlink:href="#id1" x1="0.189454" y1="0.376238" x2="0.276431" y2="0.278836">
  </linearGradient>
 </defs>
 <g id="Layer_x0020_1">
  <metadata id="CorelCorpID_0Corel-Layer"/>
  <g id="_354745144">
   <g>
    <ellipse id="_354757360" class="fil0" cx="0.187028" cy="0.192561" rx="0.187028" ry="0.188109"/>
    <path id="_354760360" class="fil1" d="M0.0483143 0.316004c0.0473632,-0.0310183 0.0137552,-0.0386039 0.0582075,-0.0353522 0.0444523,0.00325215 0.0477045,0.00651043 0.0704748,-0.023852 0.0227703,-0.0303625 0.0346963,-0.0249342 0.0650522,-0.0379485 0.0303563,-0.0130143 0.0284615,-0.0227703 0.0510942,-0.0227703 0.0226327,0 0.0323883,0 0.0497369,0 0.0173482,0 0.0312737,-0.0139979 0.0312737,-0.0139979 0,0 -0.00102257,0.0341982 -0.00334372,0.0445181 -0.00232115,0.0103194 -0.0324019,-0.000163856 -0.0550342,-0.000163856 -0.0226327,0 -0.0151847,0.00217 -0.0607188,0.0227703 -0.0455345,0.0205999 -0.0531266,0.0151843 -0.0715565,0.0314442 -0.0184303,0.0162599 0.00324514,0.0205937 -0.0314446,0.0281859 -0.0346897,0.00759259 -0.0314446,0.00217701 -0.047704,0.00976258 -0.0162599,0.00758601 -0.0361916,0.0165355 -0.0361916,0.0165355l-0.0198459 -0.0191317z"/>
    <path id="_354760480" class="fil2" d="M0.0480453 0.318443c0.0473632,-0.0310183 0.0137552,-0.0386039 0.0582075,-0.0353522 0.0444523,0.00325215 0.0477045,0.00651043 0.0704748,-0.023852 0.0227703,-0.0303629 0.0346963,-0.0249342 0.0650526,-0.0379485 0.0303559,-0.0130143 0.028461,-0.0227703 0.0510938,-0.0227703 0.0226327,0 0.0323888,0 0.0497369,0 0.0173482,0 0.0312742,-0.0139979 0.0312742,-0.0139979 0,0 -0.00102301,0.0341982 -0.00334416,0.0445181 -0.00232071,0.0103194 -0.0324015,-0.000164294 -0.0550342,-0.000164294 -0.0226327,0 -0.0151847,0.00217044 -0.0607188,0.0227707 -0.045534,0.0205999 -0.0531262,0.0151843 -0.0715565,0.0314442 -0.0184299,0.0162599 0.00324558,0.0205937 -0.0314442,0.0281859 -0.0346902,0.00759259 -0.0314446,0.00217701 -0.0477045,0.00976258 -0.0162599,0.00758558 -0.0361912,0.0165355 -0.0361912,0.0165355l-0.0198463 -0.0191317z"/>
    <path id="_354763600" class="fil3" d="M0.11256 0.365171c0.0273005,-0.0040193 0.0208032,-0.0126932 0.0609151,-0.0213675 0.0401123,-0.00867386 0.0650461,-0.00649729 0.0758904,-0.0227637 0.0108443,-0.0162664 -0.00447143,-0.0173482 0.0195186,-0.0173482 0.0239896,0 0.045534,-0.0119326 0.0596301,-0.0162664 0.0140964,-0.00433386 0.0248163,-0.00870672 0.0248163,-0.00870672 0,0 -0.0511205,0.0629019 -0.0604568,0.0689532 -0.0093363,0.00605172 -0.0348339,0.000465719 -0.0532642,0.001554 -0.0184299,0.00108829 -0.0531262,0.0119326 -0.0596301,0.0130147 -0.0065043,0.00108171 -0.0330052,0.0141092 -0.0330052,0.0141092l-0.0344142 -0.0111786z"/>
    <path id="_354763840" class="fil4" d="M0.0433706 0.102024c0.021682,-0.0281863 0.0303559,-0.031438 0.0574601,-0.043364 0.0271042,-0.011926 0.0444523,-0.0238525 0.0704748,-0.0227703 0.0260225,0.00108171 0.0613484,0.0123519 0.0799158,0.0123519 0.00681887,0 0.0126147,-0.00390757 0.0194332,-0.01485 0.00479958,-0.00769072 0.0367682,0.015211 0.0367682,0.015211 0,0 -0.0291169,-0.0293596 -0.0736411,-0.0381583 -0.0445246,-0.00879872 -0.0561558,-0.00704143 -0.0713664,-0.00437987 -0.015211,0.00266201 -0.0499993,0.0123063 -0.0643381,0.0209806 -0.0143387,0.0086743 -0.0827482,0.0585943 -0.0904127,0.112055 -0.00766444,0.0534609 0.0357062,-0.0370762 0.0357062,-0.0370762z"/>
    <path id="_354764200" class="fil5" d="M0.0842037 0.0366757c0.00349487,-0.00243243 0.0408006,-0.0212886 0.0718124,-0.0241797 0.0310117,-0.00289158 0.0438885,-0.003547 0.0542802,-0.00144886 0.0103922,0.00209771 0.0220102,-0.00569773 0.0324348,0.00704143 0.0104246,0.0127392 0.00771657,0.0100312 0.00392072,0.0181613 -0.00379629,0.00812972 -0.0105626,0.00668086 0.00162586,0.0111063 0.0121884,0.00442587 0.0281859,0 0.0281859,0 0,0 -0.000537571,-0.0135519 0.00921844,0 0.00975601,0.0135523 -0.00813016,0.0103002 0.014096,0.0178923 0.0222262,0.00759259 0.0140964,-0.00325828 0.0140964,0.0184303 0,0.0216886 0.0269206,0.0186069 0.0253863,0.0274647 -0.00153429,0.00885743 -0.0237605,-0.0090283 -0.0102082,0.01862 0.0135519,0.0276483 0.00217,0.0130143 0.0135519,0.0276483 0.0113819,0.014634 0.0173416,0.00279957 0.0243962,0.018974 0.00639258,0.0146603 0.00669444,0.0258192 0.00668787,0.0277863 0.000235708,-0.0038423 0.000367143,-0.00771044 0.000367143,-0.0116114 0,-0.103893 -0.0837384,-0.188109 -0.187028,-0.188109 -0.0200167,0 -0.0392992,0.00317329 -0.0573751,0.0090283 -0.016496,0.00592686 -0.0318967,0.013788 -0.0454491,0.0231962z"/>
    <path id="_354764296" class="fil1" d="M0.0130143 0.219927c0.0238525,-0.045534 -0.00759215,-0.0737199 0.0661344,-0.0726382 0.0737269,0.00108171 0.0639709,-0.0184364 0.117098,-0.0227703 0.0531262,-0.00433386 0.0737331,-0.00216343 0.110593,-0.00758558 0.0368602,-0.00542215 0.0411612,-0.023859 0.0481636,-0.00612358 0.00394043,0.00996543 0.00784801,0.0200492 0.00917244,0.0245863 0.00102914,0.00352729 0.00165214,0.002216 -0.00780244,0.00470101 -0.0216097,0.00569072 -0.0182332,0.00827386 -0.0419476,0.00827386 -0.0237145,0 0.00217,-0.00108171 -0.0444523,-0.00108171 -0.0466228,0 -0.0536642,-0.00272071 -0.0693865,0.019512 -0.0157223,0.0222327 -6.57177e-006,0.0303625 -0.0693926,0.0303625 -0.0693865,0 -0.0563718,-0.0205999 -0.0780604,0.0086743 -0.0216886,0.0292742 -0.0390499,0.0600042 -0.0390499,0.0600042 0,0 -0.0110476,-0.0325855 -0.00106901,-0.0459148z"/>
    <path id="_354765040" class="fil6" d="M0.0151782 0.223454c0.023852,-0.045534 -0.00759215,-0.0737199 0.0661344,-0.0726382 0.0737265,0.00108215 0.0639705,-0.0184364 0.117097,-0.0227703 0.0531266,-0.00433386 0.0737331,-0.00216343 0.110593,-0.00758558 0.0368602,-0.00542215 0.0411612,-0.0238586 0.0481632,-0.00612358 0.00394043,0.00996543 0.00784801,0.0200492 0.00917244,0.0245863 0.00102914,0.00352729 0.00165214,0.002216 -0.00780201,0.00470101 -0.0216102,0.00569072 -0.0182336,0.0082743 -0.0419481,0.0082743 -0.0237145,0 0.00217044,-0.00108215 -0.0444523,-0.00108215 -0.0466223,0 -0.0536638,-0.00272071 -0.0693861,0.019512 -0.0157223,0.0222327 -6.57177e-006,0.0303625 -0.0693931,0.0303625 -0.0693861,0 -0.0563718,-0.0205999 -0.0780604,0.0086743 -0.0216886,0.0292742 -0.0390499,0.0600042 -0.0390499,0.0600042 0,0 -0.0110476,-0.0325855 -0.00106857,-0.0459148z"/>
   </g>
   <g>
    <g>
     <path id="_354770464" class="fil7" d="M0.181621 0.00752249c-0.00307252,0.00161885 -0.00377351,0.00226069 -0.00557768,0.00264886 -0.00180417,0.000388611 -0.00116101,0.000788174 0.00459849,0.00430363 0.0057595,0.00351546 0.00707561,0.00721274 0.017739,0.00958646 0.0106634,0.00237329 0.0262774,0.00455161 0.0311572,0.00572927 0.00487976,0.0011781 0.00486442,0.000334722 0.00954265,0.000887627 0.00467779,0.000552467 0.00949051,0.00112246 0.00900595,-0.00222608 -0.000484997,-0.0033481 -0.00226332,-0.00468611 -0.00226332,-0.00468611 0,0 -0.0456944,-0.00346814 -0.056076,-0.0117639 -0.0103816,-0.00829577 -0.00812621,-0.00447976 -0.00812621,-0.00447976z"/>
     <g>
      <path id="_354770776" class="fil8" d="M0.192302 0c-0.0075479,0.00217876 -0.00532927,0.00582872 -0.00211217,0.00838558 0.0032171,0.00255686 0.0124947,0.00823355 0.0226157,0.00992469 0.010121,0.0016907 0.0122454,0.000618185 0.0198665,0.000384668 0.00762063,-0.000233079 0.0195585,0.00710627 0.0144408,0.000145893 -0.00511766,-0.00696038 0.00153341,-0.00532226 -0.0121823,-0.0103729 -0.0137153,-0.00505062 -0.0144329,-0.00568371 -0.0179103,-0.00593124 -0.00347734,-0.000247537 -0.0100982,-0.00110712 -0.0153219,-0.00167317 -0.00522368,-0.000566049 -0.00939632,-0.000863531 -0.00939632,-0.000863531z"/>
      <path id="_354770992" class="fil9" d="M0.189202 0.00577483c0.000504274,0.000604603 0.00113122,0.00118511 0.00180154,0.00171786 0.0032171,0.0025573 0.0121372,0.00920574 0.0222586,0.0108969 0.010121,0.0016907 0.0146704,0.00279081 0.0222914,0.0025573 0.00582916,-0.000178314 0.0129722,0.00223353 0.0137201,0.000263309l-0.000194524 -0.000269881c-0.00198424,-0.00269925 -0.00219891,-0.00410517 -0.0025183,-0.00510977 -0.000193648,-0.00035619 -0.000350494,-0.000680835 -0.000477987,-0.000977003 -0.00077985,-0.0010103 -0.00271852,-0.0019045 -0.00918558,-0.00428611 -0.0137157,-0.00505062 -0.0144329,-0.00568371 -0.0179103,-0.00593124 -0.00347734,-0.000247537 -0.0100986,-0.00110712 -0.0153223,-0.00167317 -0.00522368,-0.000566049 -0.00939632,-0.000863531 -0.00939632,-0.000863531 -0.00345894,0.000998471 -0.00486574,0.00230582 -0.0050664,0.00367537z"/>
      <path id="_354771016" class="fil10" d="M0.205444 0.0161249c0.00723201,0.000940639 0.00826028,0.00132618 0.012259,0.00161096 0.00307296,0.000218621 0.0209946,0.00343923 0.0279883,0.00249771 0.00110406,-0.000148522 0.000622128,-0.00294678 -0.00152158,-0.00559433 -0.0019413,-0.00239782 -0.00554088,-0.00468085 -0.00514526,-0.00462434 0.00178095,0.000255423 0.00384755,0.00160877 0.00530079,0.00289114 0.00249114,0.00219935 0.00355051,0.00532401 0.00389794,0.00546027 0.00440834,0.00636805 -0.00520747,0.00235226 -0.0126699,0.00258052 -0.00762106,0.000233517 -0.0121705,-0.000866598 -0.0222914,-0.0025573 -0.00272247,-0.000455205 -0.00535687,-0.00126879 -0.00781778,-0.00226463z"/>
      <path id="_354771040" class="fil11" d="M0.186647 0.00250122c-0.00582609,0.00220592 -0.00343572,0.00630583 -0.000328589,0.0087755 0.0031067,0.00246923 0.011551,0.00948613 0.0216719,0.0111768 0.0101214,0.0016907 0.0158717,0.00139891 0.0222542,0.00224842 0.0063825,0.000849511 0.0196544,0.00302959 0.0192658,-0.00263397 -0.0055124,0.00157109 -0.0104544,-0.00088456 -0.0154879,-0.00109135 -0.00503354,-0.00020723 -0.0128465,0.000888942 -0.0229675,-0.000801756 -0.0101214,-0.00169114 -0.0195519,-0.00874571 -0.0222586,-0.0108969 -0.00270669,-0.00215116 -0.00367406,-0.0048285 -0.00214941,-0.00677681z"/>
     </g>
    </g>
    <path id="_354767824" class="fil12" d="M0.187209 0.00396847c0,0 0.000720266,-0.00154174 0.00290648,-0.00275532 0.00218621,-0.00121315 0.00498973,-0.00142695 0.00722062,-0.00069135 0.0022309,0.000736038 0.00603157,0.000911724 0.00769511,0.00116189 0.00166353,0.000250604 0.0120224,0.000741734 0.0132912,0.000985328 0.00126923,0.000243594 0.00366924,0.000982261 0.00366924,0.000982261 0,0 -0.0262836,-0.00280352 -0.029463,-0.00142038 -0.00317942,0.0013827 -0.00531963,0.00173758 -0.00531963,0.00173758z"/>
   </g>
   <g>
    <path id="_354771088" class="fil7" d="M0.334575 0.0979242c-0.0103567,-0.00894549 -0.0248803,-0.0155335 -0.037063,-0.0134997 -0.0121823,0.00203374 -0.0329662,0.00195839 -0.0143041,0.0136062 0.0186625,0.0116474 0.0153959,0.0122279 0.0290499,0.0131711 0.0136535,0.000943268 0.0223173,-0.0132776 0.0223173,-0.0132776z"/>
    <path id="_354771160" class="fil12" d="M0.315898 0.0935811c-0.00663355,-0.00572927 -0.0159357,-0.00994878 -0.0237381,-0.00864626 -0.00780244,0.00130296 -0.0211142,0.00125433 -0.00916149,0.00871461 0.0119527,0.00745984 0.00986072,0.00783136 0.0186056,0.00843553 0.00874484,0.000604165 0.014294,-0.00850387 0.014294,-0.00850387z"/>
    <path id="_354771184" class="fil9" d="M0.328825 0.0944096c-0.00815206,-0.00704143 -0.0195839,-0.0122266 -0.0291725,-0.0106257 -0.00958909,0.00160088 -0.0259484,0.0015413 -0.0112592,0.0107094 0.0146897,0.00916806 0.0121183,0.00962458 0.0228654,0.0103672 0.0107466,0.000742172 0.0175663,-0.0104509 0.0175663,-0.0104509z"/>
   </g>
   <g>
    <path id="_354771280" class="fil7" d="M0.0475967 0.0673515c-9.68241e-005,0.000952469 -5.65172e-005,0.0012114 -0.000242717,0.00168456 -0.0001862,0.000473606 3.50494e-006,0.000386858 0.00168938,-0.000398687 0.00168588,-0.000785984 0.00273561,-0.000523989 0.0049078,-0.00260943 0.00217175,-0.00208588 0.00505413,-0.00533803 0.00606925,-0.00627823 0.00101512,-0.000940639 0.000819281,-0.00106594 0.00165959,-0.00205521 0.000840749,-0.000989709 0.00170603,-0.00200746 0.000863531,-0.00240702 -0.000842939,-0.000399564 -0.00142125,-0.000195839 -0.00142125,-0.000195839 0,0 -0.00776827,0.00996061 -0.011257,0.0110783 -0.0034883,0.0011172 -0.00226858,0.0011816 -0.00226858,0.0011816z"/>
    <g>
     <path id="_354771376" class="fil8" d="M0.0474999 0.0637519c-0.000651482,0.00206485 0.000524865,0.00211261 0.00160264,0.0017643 0.00107821,-0.000348304 0.00379673,-0.00161184 0.00572927,-0.00367756 0.00193254,-0.00206529 0.00201052,-0.00271677 0.00311984,-0.00450166 0.00110931,-0.00178489 0.00461557,-0.00340549 0.00223659,-0.0032929 -0.00237854,0.000113034 -0.000987518,-0.00116408 -0.00423967,0.00121403 -0.00325259,0.00237767 -0.00350714,0.00244601 -0.00409465,0.00320615 -0.000587516,0.000760573 -0.00179497,0.00214941 -0.00272203,0.00326223 -0.000927058,0.00111282 -0.00163199,0.00202542 -0.00163199,0.00202542z"/>
     <path id="_354771448" class="fil9" d="M0.0483525 0.0653444c0.000215992,-2.32203e-005 0.00044469,-7.88613e-005 0.000669444,-0.000151151 0.00107777,-0.000348304 0.00396541,-0.00138182 0.00589751,-0.00344711 0.00193254,-0.00206529 0.00287931,-0.00294196 0.00398863,-0.00472686 0.000848635,-0.00136561 0.00249202,-0.00263747 0.00215379,-0.00310976l-9.15667e-005 3.50494e-006c-0.000922239,4.38118e-005 -0.00127755,-0.000121359 -0.00155707,-0.000201534 -0.000111282,-1.00767e-005 -0.000209859,-2.36584e-005 -0.000297482,-3.94306e-005 -0.000350494,2.49727e-005 -0.000851702,0.000333408 -0.00238511,0.00145455 -0.00325259,0.0023781 -0.00350714,0.00244601 -0.00409465,0.00320659 -0.000587516,0.000760573 -0.00179497,0.00214941 -0.00272203,0.00326223 -0.000927058,0.00111282 -0.00163199,0.00202542 -0.00163199,0.00202542 -0.000298358,0.000946335 -0.000212925,0.00146857 7.0537e-005,0.00172356z"/>
     <path id="_354771520" class="fil10" d="M0.0532068 0.063195c0.00131961,-0.00151633 0.00156496,-0.00169376 0.00224054,-0.00256825 0.00051917,-0.000672073 0.00399301,-0.00429443 0.00484383,-0.00604384 0.000134502,-0.000276014 -0.000581383,-0.000592336 -0.00151633,-0.000504274 -0.000846444,7.97375e-005 -0.00191983,0.000557724 -0.00184667,0.000475358 0.000330341,-0.000369772 0.000956412,-0.000637462 0.00147251,-0.000775469 0.000884998,-0.000236584 0.00176386,-2.62871e-006 0.00184842,-6.17746e-005 0.00213451,-4.03069e-005 -0.000254985,0.00155444 -0.00134108,0.00330253 -0.00110931,0.00178489 -0.00205609,0.00266157 -0.00398863,0.00472686 -0.000519608,0.000555534 -0.00110844,0.00103615 -0.0017126,0.00144886z"/>
     <path id="_354771544" class="fil11" d="M0.0472112 0.0654312c-0.000382477,0.00167405 0.000923553,0.00175116 0.00196452,0.00141468 0.00104097,-0.000336475 0.00394,-0.00120439 0.00587253,-0.00326968 0.00193254,-0.00206529 0.00274306,-0.00343003 0.00391196,-0.00476541 0.0011689,-0.00133582 0.00369465,-0.00404996 0.00233517,-0.00482456 -0.000480616,0.00150494 -0.00179847,0.00226463 -0.00261381,0.00338884 -0.000815776,0.00112377 -0.00175642,0.00308435 -0.00368895,0.00515008 -0.0019321,0.00206529 -0.0049906,0.00315401 -0.00589751,0.00344711 -0.000906904,0.000293101 -0.00166923,0.000106463 -0.00188391,-0.000541076z"/>
    </g>
   </g>
   <g>
    <path id="_354771664" class="fil7" d="M0.277405 0.0270687c-0.00366617,-0.0030861 -0.00912206,-0.0059514 -0.0140978,-0.00649992 -0.00497571,-0.000548524 -0.0132776,-0.00235445 -0.00643464,0.0021091 0.00684253,0.00446311 0.00550671,0.00432466 0.0109131,0.00573015 0.00540638,0.00140548 0.00961932,-0.00133933 0.00961932,-0.00133933z"/>
    <path id="_354771688" class="fil12" d="M0.270171 0.0243966c-0.00234831,-0.00197635 -0.00584274,-0.00381163 -0.00902918,-0.004163 -0.00318687,-0.000351371 -0.00850387,-0.00150756 -0.00412138,0.00135072 0.00438249,0.00285872 0.00352685,0.00276978 0.00698974,0.00367011 0.00346245,0.000900333 0.00616082,-0.000857835 0.00616082,-0.000857835z"/>
    <path id="_354771808" class="fil9" d="M0.275293 0.0257118c-0.00288588,-0.00242893 -0.00718032,-0.0046848 -0.0110967,-0.00511634 -0.00391634,-0.000431546 -0.0104509,-0.0018528 -0.00506464,0.00166003 0.00538579,0.00351283 0.0043343,0.00340374 0.00858974,0.00451043 0.00425544,0.00110625 0.00757156,-0.00105411 0.00757156,-0.00105411z"/>
   </g>
   <g>
    <path id="_354771904" class="fil13" d="M0.101082 0.0660178c-0.00454109,0.00830453 -0.00106769,0.0127957 0.00260505,0.0148881 0.00367318,0.00209245 0.0134196,0.00538491 0.0218082,0.00170209 0.00838821,-0.00368282 0.0094375,-0.00676279 0.0150029,-0.0119703 0.00556541,-0.00520747 0.0181236,-0.000914352 0.010839,-0.00891745 -0.00728503,-0.0080031 -0.00151019,-0.009572 -0.0142529,-0.00903969 -0.0127431,0.000532313 -0.0135935,-3.54876e-005 -0.0163094,0.00176824 -0.00271589,0.00180417 -0.00808109,0.00461207 -0.0122577,0.00700814 -0.00417658,0.00239607 -0.0074353,0.00456081 -0.0074353,0.00456081z"/>
    <path id="_354772144" class="fil14" d="M0.0991996 0.0720638c-0.0031343,0.00701208 0.000562544,0.0119497 0.00399038,0.0139024 0.0034274,0.00195313 0.0128899,0.00773629 0.0209951,0.00417746 0.00810518,-0.00355839 0.0121074,-0.00753607 0.0171142,-0.0101188 0.00500681,-0.00258227 0.0156176,-0.00730693 0.0126099,-0.0159111 -0.00321447,0.00582872 -0.00795754,0.00502127 -0.0116829,0.00778098 -0.00372576,0.00275971 -0.00882589,0.00925568 -0.0169315,0.0128145 -0.00810518,0.00355839 -0.0182967,-0.00167974 -0.0212825,-0.00338052 -0.00298621,-0.00170121 -0.0049722,-0.0052894 -0.00481273,-0.00926488z"/>
    <path id="_354772240" class="fil15" d="M0.10165 0.0773138c0.000677331,0.000657177 0.00143396,0.00119781 0.00219935,0.00163418 0.00367274,0.00209245 0.0136377,0.00718163 0.0220259,0.00349881 0.00838865,-0.00368326 0.0123286,-0.00478951 0.0178941,-0.00999654 0.00425719,-0.00398337 0.0107847,-0.00461382 0.0103602,-0.00827123l-0.000279081 -0.000312816c-0.00282542,-0.00310407 -0.00368589,-0.00523902 -0.00442499,-0.00666027 -0.000321579,-0.000453014 -0.00060066,-0.000878427 -0.000843377,-0.00127624 -0.00108478,-0.00113779 -0.00297614,-0.00135422 -0.00898449,-0.00110318 -0.0127431,0.000532313 -0.0135935,-3.54876e-005 -0.0163094,0.00176824 -0.00271589,0.00180417 -0.00808109,0.00461207 -0.0122577,0.00700814 -0.00417658,0.00239607 -0.0074353,0.00456081 -0.0074353,0.00456081 -0.0020815,0.00380593 -0.00247843,0.00680967 -0.00194524,0.0091501z"/>
    <path id="_354772288" class="fil16" d="M0.118918 0.0837432c0.00586071,-0.00306464 0.00681931,-0.00309311 0.00994221,-0.0051676 0.00240045,-0.00159387 0.017367,-0.00774943 0.0221118,-0.0137039 0.000749182,-0.000940201 -0.00100504,-0.00515621 -0.00392335,-0.00807583 -0.00264229,-0.0026436 -0.00646399,-0.00405128 -0.0061411,-0.00421075 0.00145543,-0.000715885 0.00367055,0.000160789 0.00539323,0.00131216 0.00295379,0.00197504 0.00530079,0.00635227 0.00562806,0.00635227 0.00646049,0.00749576 -0.0027102,0.00710102 -0.00815995,0.0122007 -0.00556541,0.00520703 -0.00950541,0.00631328 -0.0178941,0.00999654 -0.00225631,0.000990585 -0.00462609,0.0013459 -0.00695688,0.00129639z"/>
   </g>
   <g>
    <path id="_354772768" class="fil17" d="M0.168753 0.370964c0.00307252,-0.00161928 0.00377395,-0.00226069 0.00557812,-0.0026493 0.00180373,-0.000388611 0.00116101,-0.000787736 -0.00459849,-0.0043032 -0.00575994,-0.00351546 -0.00707604,-0.00721318 -0.0177394,-0.0095869 -0.0106634,-0.00237329 -0.026277,-0.00455161 -0.0311568,-0.00572927 -0.00487976,-0.0011781 -0.00486486,-0.000334722 -0.00954265,-0.000887627 -0.00467822,-0.000552467 -0.00949051,-0.00112246 -0.00900595,0.00222608 0.000484559,0.00334854 0.00226288,0.00468611 0.00226288,0.00468611 0,0 0.0456948,0.00346814 0.056076,0.0117639 0.0103816,0.00829577 0.00812621,0.0044802 0.00812621,0.0044802z"/>
    <g>
     <path id="_354773368" class="fil18" d="M0.158072 0.378486c0.00754746,-0.00217876 0.00532883,-0.00582828 0.00211173,-0.00838558 -0.0032171,-0.00255686 -0.0124943,-0.00823355 -0.0226152,-0.00992469 -0.0101214,-0.0016907 -0.0122458,-0.000617746 -0.0198665,-0.000384668 -0.00762106,0.000233079 -0.0195585,-0.00710627 -0.0144408,-0.000145893 0.00511766,0.00696038 -0.00153341,0.00532226 0.0121819,0.0103729 0.0137157,0.00505062 0.0144329,0.00568371 0.0179103,0.00593124 0.00347734,0.000247537 0.0100986,0.00110712 0.0153223,0.00167317 0.00522368,0.000566487 0.00939632,0.000863531 0.00939632,0.000863531z"/>
     <path id="_354773680" class="fil19" d="M0.14493 0.362361c-0.00723245,-0.000940201 -0.00826072,-0.00132618 -0.012259,-0.00161096 -0.0030734,-0.000218621 -0.0209946,-0.00343923 -0.0279883,-0.00249771 -0.0011045,0.00014896 -0.000622566,0.00294678 0.00152158,0.00559477 0.00194086,0.00239738 0.00554044,0.00468085 0.00514526,0.0046239 -0.00178139,-0.000255423 -0.00384755,-0.00160833 -0.00530079,-0.00289114 -0.00249114,-0.00219935 -0.00355051,-0.00532401 -0.00389837,-0.00546027 -0.00440791,-0.00636805 0.00520791,-0.00235182 0.0126704,-0.00258052 0.00762063,-0.000233079 0.0121705,0.000866598 0.0222914,0.00255773 0.00272247,0.000454767 0.00535687,0.00126835 0.00781778,0.00226419z"/>
     <path id="_354773776" class="fil20" d="M0.163726 0.375985c0.00582609,-0.00220592 0.00343528,-0.00630583 0.000328589,-0.0087755 -0.00310713,-0.00246923 -0.011551,-0.00948569 -0.0216724,-0.0111768 -0.010121,-0.0016907 -0.0158717,-0.00139891 -0.0222542,-0.00224842 -0.00638207,-0.000849511 -0.019654,-0.00302959 -0.0192654,0.00263397 0.0055124,-0.00157109 0.0104544,0.000884998 0.0154879,0.00109179 0.0050331,0.000206792 0.0128465,-0.00088938 0.0229675,0.000801756 0.010121,0.0016907 0.0195519,0.00874527 0.0222586,0.0108964 0.00270669,0.00215116 0.00367362,0.0048285 0.00214941,0.00677681z"/>
    </g>
   </g>
   <g>
    <path id="_354773872" class="fil14" d="M0.330465 0.294023c0.00360703,-0.00806926 -0.0006471,-0.0137508 -0.00459148,-0.0159979 -0.00394394,-0.00224711 -0.0148325,-0.00890212 -0.0241591,-0.00480703 -0.0093271,0.00409509 -0.0139322,0.00867211 -0.0196934,0.0116439 -0.00576169,0.00297175 -0.0179716,0.00840836 -0.0145105,0.0183094 0.00369903,-0.00670759 0.00915667,-0.0057779 0.0134437,-0.00895382 0.00428699,-0.00317548 0.010156,-0.0106506 0.0194831,-0.0147457 0.00932666,-0.00409509 0.0210542,0.00193298 0.0244899,0.00389005 0.00343616,0.00195751 0.00572138,0.00608634 0.00553781,0.0106612z"/>
    <path id="_354773944" class="fil21" d="M0.327646 0.287982c-0.000779412,-0.00075663 -0.00164995,-0.00137832 -0.00253057,-0.0018804 -0.00422696,-0.0024079 -0.0156934,-0.00826422 -0.025346,-0.0040263 -0.00965262,0.00423835 -0.0141867,0.00551109 -0.0205907,0.0115032 -0.0048986,0.00458359 -0.0124101,0.00530911 -0.0119216,0.00951768l0.000321579 0.000359695c0.00325084,0.00357198 0.00424142,0.00602894 0.00509137,0.00766444 0.00037021,0.00052136 0.00069135,0.0010103 0.00097087,0.00146813 0.0012482,0.00130953 0.00342433,0.00155839 0.0103387,0.00126967 0.0146634,-0.000612489 0.0156417,4.11831e-005 0.0187672,-0.00203462 0.0031251,-0.0020758 0.00929862,-0.00530692 0.0141043,-0.00806444 0.00480616,-0.00275708 0.00855645,-0.00524822 0.00855645,-0.00524822 0.00239475,-0.00437943 0.00285171,-0.00783574 0.00223835,-0.0105289z"/>
    <path id="_354773968" class="fil16" d="M0.307775 0.280584c-0.00674395,0.00352597 -0.00784757,0.00355883 -0.011441,0.0059457 -0.0027619,0.00183484 -0.0199843,0.00891789 -0.0254441,0.0157696 -0.000861778,0.00108171 0.00115663,0.00593299 0.00451481,0.00929248 0.00304054,0.00304229 0.00743837,0.00466245 0.00706641,0.00484559 -0.00167449,0.0008241 -0.00422346,-0.000184886 -0.00620594,-0.00150975 -0.00339892,-0.00227252 -0.00609992,-0.00730956 -0.00647626,-0.00730956 -0.00743443,-0.00862523 0.00311852,-0.00817134 0.00938975,-0.0140395 0.00640397,-0.00599214 0.0109381,-0.00726487 0.0205907,-0.0115032 0.00259629,-0.00113955 0.00532313,-0.00154875 0.00800573,-0.00149135z"/>
   </g>
  </g>
 </g>
</svg>
