<?xml version="1.0" encoding="UTF-8"?>
<!DOCTYPE svg PUBLIC "-//W3C//DTD SVG 1.1//EN" "http://www.w3.org/Graphics/SVG/1.1/DTD/svg11.dtd">
<!-- Creator: CorelDRAW -->
<svg xmlns="http://www.w3.org/2000/svg" xml:space="preserve" width="5.48367in" height="3.42077in" style="shape-rendering:geometricPrecision; text-rendering:geometricPrecision; image-rendering:optimizeQuality; fill-rule:evenodd; clip-rule:evenodd"
viewBox="0 0 2.02997 1.26632"
 xmlns:xlink="http://www.w3.org/1999/xlink">
 <defs>
  <style type="text/css">
   <![CDATA[
    .fil20 {fill:#451A40}
    .fil23 {fill:#570F4D}
    .fil24 {fill:#710263}
    .fil10 {fill:#740066}
    .fil17 {fill:#750068}
    .fil22 {fill:#750266}
    .fil21 {fill:#7B0071}
    .fil14 {fill:#840076}
    .fil19 {fill:#870176}
    .fil18 {fill:#8C007F}
    .fil13 {fill:#990487}
    .fil4 {fill:#9B0089}
    .fil16 {fill:#CB05B1}
    .fil12 {fill:#CC09B1}
    .fil11 {fill:#EE0CD0}
    .fil15 {fill:#FF37D4}
    .fil2 {fill:#E8AAD8;fill-rule:nonzero}
    .fil8 {fill:#EE0CD0;fill-opacity:0.501961}
    .fil7 {fill:url(#id0)}
    .fil9 {fill:url(#id1)}
    .fil3 {fill:url(#id2)}
    .fil5 {fill:url(#id3)}
    .fil26 {fill:url(#id4)}
    .fil25 {fill:url(#id5)}
    .fil6 {fill:url(#id6)}
    .fil1 {fill:url(#id7)}
    .fil0 {fill:url(#id8)}
   ]]>
  </style>
  <linearGradient id="id0" gradientUnits="userSpaceOnUse" x1="0.587211" y1="0.635655" x2="1.22455" y2="0.0104016">
   <stop offset="0" style="stop-color:#292929"/>
   <stop offset="1" style="stop-color:#B2009D"/>
  </linearGradient>
  <linearGradient id="id1" gradientUnits="userSpaceOnUse" x1="0.804636" y1="0.971203" x2="1.22592" y2="0.246234">
   <stop offset="0" style="stop-color:#292929"/>
   <stop offset="1" style="stop-color:#830076"/>
  </linearGradient>
  <linearGradient id="id2" gradientUnits="userSpaceOnUse" x1="0.606601" y1="1.12324" x2="1.42684" y2="0.157882">
   <stop offset="0" style="stop-color:#292929"/>
   <stop offset="0.2" style="stop-color:#372237"/>
   <stop offset="0.678431" style="stop-color:#950083"/>
   <stop offset="1" style="stop-color:#BE00A5"/>
  </linearGradient>
  <linearGradient id="id3" gradientUnits="userSpaceOnUse" xlink:href="#id0" x1="0.889586" y1="1.16636" x2="1.30311" y2="0.57042">
  </linearGradient>
  <linearGradient id="id4" gradientUnits="userSpaceOnUse" x1="0.358006" y1="1.1541" x2="2.08567" y2="0.644259">
   <stop offset="0" style="stop-color:#832177"/>
   <stop offset="0.458824" style="stop-color:#F27CE0"/>
   <stop offset="1" style="stop-color:#FFA2EA"/>
  </linearGradient>
  <linearGradient id="id5" gradientUnits="userSpaceOnUse" x1="0.521925" y1="1.11991" x2="1.77264" y2="0.311119">
   <stop offset="0" style="stop-color:#55094B"/>
   <stop offset="0.529412" style="stop-color:#FFB8EA"/>
   <stop offset="1" style="stop-color:#C757B7"/>
  </linearGradient>
  <linearGradient id="id6" gradientUnits="userSpaceOnUse" xlink:href="#id1" x1="1.02479" y1="1.25157" x2="1.31412" y2="0.927561">
  </linearGradient>
  <linearGradient id="id7" gradientUnits="userSpaceOnUse" x1="0.608828" y1="0.738589" x2="1.94116" y2="0.33087">
   <stop offset="0" style="stop-color:#1D051C"/>
   <stop offset="0.678431" style="stop-color:#73006B"/>
   <stop offset="1" style="stop-color:#ED8CE0"/>
  </linearGradient>
  <linearGradient id="id8" gradientUnits="userSpaceOnUse" x1="0.618061" y1="0.545889" x2="1.78718" y2="0.07665">
   <stop offset="0" style="stop-color:#450042"/>
   <stop offset="1" style="stop-color:#ED8CE0"/>
  </linearGradient>
 </defs>
 <g id="Layer_x0020_1">
  <metadata id="CorelCorpID_0Corel-Layer"/>
  <g id="_354773800">
   <path id="_354773488" class="fil0" d="M2.02614 0.334093c-0.404849,-0.298901 -1.91579,0.217081 -2.01851,0.657048 -0.144053,-0.466149 1.7979,-1.12043 2.01851,-0.657048z"/>
   <g>
    <path id="_354773272" class="fil1" d="M1.95134 0.347208c-0.378615,-0.279534 -1.79166,0.203014 -1.88772,0.614475 -0.134719,-0.435946 1.68141,-1.04783 1.88772,-0.614475z"/>
    <path id="_3547732721" class="fil2" d="M0.0625874 0.962256l0.00205205 -0.00114553 -0.00207099 0.000378929 0.0128792 -0.0390195 0.0201809 -0.039222 0.0270322 -0.0392774 0.0334478 -0.0391973 0.0394305 -0.0389714 0.0449832 -0.0386085 0.050106 -0.0380955 0.0548019 -0.0374353 0.0590677 -0.0366235 0.0629066 -0.035663 0.066314 -0.0345481 0.0692915 -0.0332874 0.0718376 -0.0318694 0.0739582 -0.0303012 0.0756444 -0.02858 0.0769036 -0.0267072 0.07773 -0.0246814 0.0781264 -0.0225055 0.0780958 -0.0201736 0.0776309 -0.0176916 0.0767404 -0.0150566 0.075417 -0.01227 0.0736638 -0.00932748 0.0714805 -0.00623484 0.0688674 -0.00298771 0.0658272 0.000410992 0.0623557 0.00396418 0.0584571 0.00767185 0.0541256 0.011534 0.0493715 0.0155536 0.0441831 0.0197305 0.0385648 0.0240693 -0.00130876 0.00223859 -0.0383432 -0.0239294 -0.0439849 -0.0196431 -0.0491995 -0.0154982 -0.0539799 -0.0115019 -0.0583288 -0.00765436 -0.0622478 -0.00395835 -0.065731 -0.000410992 -0.0687829 0.00298479 -0.0714048 0.00622901 -0.0735938 0.00931873 -0.0753529 0.0122583 -0.0766792 0.0150449 -0.0775755 0.0176799 -0.0780404 0.020159 -0.0780739 0.0224909 -0.0776775 0.0246639 -0.0768482 0.0266897 -0.0755919 0.0285596 -0.0738999 0.0302779 -0.0717793 0.0318431 -0.0692274 0.0332554 -0.066244 0.0345131 -0.0628308 0.0356193 -0.0589832 0.036571 -0.0547057 0.0373682 -0.0499953 0.0380109 -0.0448521 0.0384948 -0.0392789 0.0388227 -0.0332699 0.0389874 -0.0268369 0.0389889 -0.0199768 0.0388198 -0.0127072 0.0384948 -0.00207099 0.000378929zm1.88809 -0.613929l0.00130876 -0.00223859 -0.00161773 0.00185675 -0.0238113 -0.0373842 -0.0325791 -0.0315546 -0.0407232 -0.0259362 -0.0482187 -0.020519 -0.0550627 -0.0153131 -0.0612524 -0.0103214 -0.0667862 -0.00554548 -0.0716642 -0.000991045 -0.0758907 0.00334186 -0.0794585 0.00745178 -0.0823791 0.0113387 -0.084641 0.0150027 -0.0862515 0.0184436 -0.0872119 0.0216602 -0.087518 0.0246537 -0.0871697 0.0274228 -0.0861713 0.0299689 -0.0845201 0.0322906 -0.0822144 0.0343878 -0.0792559 0.036262 -0.0756473 0.0379118 -0.0713829 0.0393343 -0.066467 0.0405352 -0.0608968 0.0415073 -0.0546692 0.042252 -0.0477902 0.042765 -0.0402539 0.0430449 -0.0320661 0.0430827 -0.0232385 0.0428729 -0.0137813 0.042424 -0.0037237 0.0417784 0.00696355 0.0409972 -0.00205205 0.00114553 -0.00708305 -0.0416997 0.00378783 -0.0425333 0.0139825 -0.0430536 0.0234776 -0.0433247 0.0322935 -0.0433888 0.0404463 -0.0432518 0.0479505 -0.0429108 0.0548033 -0.042354 0.0610075 -0.041586 0.0665632 -0.0405935 0.0714674 -0.0393809 0.0757231 -0.0379497 0.0793258 -0.0362941 0.0822786 -0.034414 0.0845813 -0.0323139 0.0862296 -0.0299893 0.0872309 -0.0274432 0.0875763 -0.0246683 0.0872731 -0.0216776 0.0863185 -0.0184553 0.084711 -0.0150172 0.0824549 -0.0113475 0.0795459 -0.00746053 0.0759869 -0.00334478 0.0717779 0.000991045 0.0669203 0.00555714 0.0614127 0.0103477 0.0552551 0.0153685 0.0484519 0.020621 0.0409943 0.0261111 0.0328794 0.031849 0.0240882 0.0378215 -0.00161773 0.00185675z"/>
   </g>
   <g id="_354772792">
    <g>
     <ellipse id="_354773632" class="fil3" cx="1.01672" cy="0.640561" rx="0.622156" ry="0.625754"/>
     <path id="_354772696" class="fil4" d="M0.555282 1.0512c0.157556,-0.103184 0.0457571,-0.128418 0.19363,-0.117601 0.147873,0.0108184 0.158691,0.0216572 0.234437,-0.0793448 0.0757464,-0.101002 0.115419,-0.0829446 0.216399,-0.126237 0.100982,-0.0432926 0.0946783,-0.0757464 0.169967,-0.0757464 0.0752888,0 0.107741,0 0.165452,0 0.0577094,0 0.104033,-0.0465645 0.104033,-0.0465645 0,0 -0.00340161,0.113762 -0.011123,0.148091 -0.0077214,0.034328 -0.107786,-0.000545075 -0.183074,-0.000545075 -0.0752888,0 -0.0505127,0.00721859 -0.201984,0.0757464 -0.151472,0.0685264 -0.176728,0.0505112 -0.238036,0.1046 -0.0613092,0.0540892 0.0107951,0.068506 -0.104602,0.0937616 -0.115397,0.0252571 -0.104602,0.00724191 -0.15869,0.0324757 -0.0540892,0.0252352 -0.120393,0.0550059 -0.120393,0.0550059l-0.0660181 -0.0636426z"/>
     <path id="_354772672" class="fil5" d="M0.554387 1.05932c0.157556,-0.103184 0.0457571,-0.128418 0.19363,-0.117601 0.147873,0.0108184 0.158691,0.0216572 0.234437,-0.0793448 0.0757464,-0.101003 0.115419,-0.0829446 0.2164,-0.126237 0.10098,-0.0432926 0.0946768,-0.0757464 0.169966,-0.0757464 0.0752888,0 0.107743,0 0.165452,0 0.0577094,0 0.104035,-0.0465645 0.104035,-0.0465645 0,0 -0.00340307,0.113762 -0.0111245,0.148091 -0.00771995,0.034328 -0.107785,-0.000546532 -0.183074,-0.000546532 -0.0752888,0 -0.0505127,0.00722005 -0.201984,0.0757479 -0.151471,0.0685264 -0.176727,0.0505112 -0.238036,0.1046 -0.0613078,0.0540892 0.0107966,0.068506 -0.1046,0.0937616 -0.115398,0.0252571 -0.104602,0.00724191 -0.158691,0.0324757 -0.0540892,0.0252337 -0.120392,0.0550059 -0.120392,0.0550059l-0.0660196 -0.0636426z"/>
     <path id="_354773392" class="fil6" d="M0.769 1.21476c0.0908161,-0.0133704 0.0692026,-0.0422243 0.202637,-0.0710798 0.133435,-0.028854 0.216379,-0.0216135 0.252453,-0.0757246 0.036074,-0.054111 -0.0148744,-0.0577094 0.0649295,-0.0577094 0.0798024,0 0.151471,-0.0396943 0.198362,-0.054111 0.0468924,-0.0144168 0.0825526,-0.0289633 0.0825526,-0.0289633 0,0 -0.170055,0.209246 -0.201112,0.229376 -0.0310576,0.0201313 -0.115876,0.00154924 -0.177186,0.00516946 -0.0613078,0.00362023 -0.176727,0.0396943 -0.198362,0.0432941 -0.0216368,0.00359837 -0.109793,0.0469347 -0.109793,0.0469347l-0.11448 -0.037186z"/>
     <path id="_354773296" class="fil7" d="M0.538837 0.339386c0.0721262,-0.093763 0.10098,-0.10458 0.191143,-0.144252 0.0901632,-0.0396724 0.147873,-0.0793462 0.234437,-0.0757464 0.0865648,0.00359837 0.204078,0.041089 0.265843,0.041089 0.0226833,0 0.0419635,-0.0129987 0.0646453,-0.0493992 0.015966,-0.0255835 0.122311,0.0506001 0.122311,0.0506001 0,0 -0.0968586,-0.097666 -0.24497,-0.126935 -0.148113,-0.0292693 -0.186805,-0.0234236 -0.237403,-0.0145698 -0.0506001,0.00885527 -0.166325,0.0409374 -0.214023,0.0697929 -0.0476984,0.0288554 -0.275266,0.194917 -0.300762,0.372757 -0.0254961,0.17784 0.118778,-0.123335 0.118778,-0.123335z"/>
     <path id="_354773224" class="fil8" d="M0.67467 0.122003c0.0116258,-0.00809159 0.135725,-0.0708174 0.238887,-0.0804349 0.103162,-0.00961896 0.145997,-0.0117993 0.180565,-0.00481968 0.03457,0.00697812 0.0732178,-0.0189537 0.107896,0.0234236 0.0346778,0.0423774 0.0256695,0.0333691 0.0130424,0.0604144 -0.0126285,0.0270439 -0.0351369,0.0222242 0.00540848,0.0369456 0.0405454,0.0147228 0.0937616,0 0.0937616,0 0,0 -0.00178825,-0.0450809 0.0306655,0 0.0324538,0.0450823 -0.0270453,0.0342639 0.046891,0.0595195 0.0739363,0.0252571 0.0468924,-0.0108388 0.0468924,0.0613092 0,0.072148 0.0895525,0.0618966 0.0844487,0.0913627 -0.00510388,0.0294646 -0.0790402,-0.030033 -0.0339579,0.0619403 0.0450809,0.0919733 0.00721859,0.0432926 0.0450809,0.0919733 0.0378623,0.0486807 0.0576875,0.0093129 0.0811549,0.0631179 0.0212652,0.0487681 0.0222694,0.0858886 0.0222475,0.0924324 0.000784091,-0.0127816 0.00122132,-0.0256491 0.00122132,-0.038626 0,-0.345603 -0.278559,-0.625754 -0.622156,-0.625754 -0.0665865,0 -0.13073,0.0105561 -0.190861,0.030033 -0.0548747,0.019716 -0.106106,0.0458664 -0.151188,0.077163z"/>
     <path id="_354772888" class="fil4" d="M0.437855 0.731596c0.0793462,-0.151471 -0.0252556,-0.245233 0.219999,-0.241634 0.245256,0.00359837 0.212802,-0.0613296 0.38953,-0.0757464 0.176727,-0.0144168 0.245276,-0.00719673 0.367892,-0.0252337 0.122617,-0.018037 0.136924,-0.0793681 0.160218,-0.0203703 0.013108,0.0331504 0.0261067,0.0666944 0.0305125,0.0817874 0.00342348,0.0117337 0.00549593,0.00737162 -0.0259552,0.0156381 -0.0718857,0.0189304 -0.0606534,0.0275233 -0.139541,0.0275233 -0.0788871,0 0.00721859,-0.00359837 -0.147873,-0.00359837 -0.155093,0 -0.178516,-0.00905057 -0.230817,0.0649076 -0.0523009,0.0739582 -2.18613e-005,0.101002 -0.230838,0.101002 -0.230817,0 -0.187523,-0.0685264 -0.259671,0.0288554 -0.072148,0.0973818 -0.129901,0.199607 -0.129901,0.199607 0,0 -0.0367503,-0.108397 -0.0035561,-0.152737z"/>
     <path id="_354772168" class="fil9" d="M0.445053 0.74333c0.0793448,-0.151471 -0.0252556,-0.245233 0.219999,-0.241634 0.245254,0.00359982 0.212801,-0.0613296 0.389529,-0.0757464 0.176728,-0.0144168 0.245276,-0.00719673 0.367893,-0.0252337 0.122617,-0.018037 0.136924,-0.0793666 0.160217,-0.0203703 0.013108,0.0331504 0.0261067,0.0666944 0.0305125,0.0817874 0.00342348,0.0117337 0.00549593,0.00737162 -0.0259537,0.0156381 -0.0718872,0.0189304 -0.0606548,0.0275248 -0.139542,0.0275248 -0.0788871,0 0.00722005,-0.00359982 -0.147873,-0.00359982 -0.155091,0 -0.178515,-0.00905057 -0.230816,0.0649076 -0.0523009,0.0739582 -2.18613e-005,0.101002 -0.230839,0.101002 -0.230816,0 -0.187523,-0.0685264 -0.259671,0.0288554 -0.072148,0.0973818 -0.129901,0.199607 -0.129901,0.199607 0,0 -0.0367503,-0.108397 -0.00355464,-0.152737z"/>
    </g>
    <g>
     <g>
      <path id="_354771256" class="fil10" d="M0.998731 0.0250239c-0.0102209,0.00538516 -0.0125527,0.00752028 -0.0185544,0.00881155 -0.00600165,0.00129273 -0.00386216,0.0026219 0.0152971,0.0143162 0.0191592,0.0116943 0.0235373,0.0239935 0.0590094,0.0318898 0.0354721,0.00789484 0.087413,0.0151411 0.103646,0.0190587 0.0162327,0.003919 0.0161817,0.00111347 0.031744,0.00295273 0.0155609,0.0018378 0.0315706,0.00373391 0.0299587,-0.00740514 -0.00161336,-0.0111376 -0.00752902,-0.0155885 -0.00752902,-0.0155885 0,0 -0.152004,-0.0115369 -0.186539,-0.0391331 -0.034535,-0.0275962 -0.0270322,-0.0149021 -0.0270322,-0.0149021z"/>
      <g>
       <path id="_354771424" class="fil11" d="M1.03426 0c-0.0251084,0.00724774 -0.017728,0.0193895 -0.00702621,0.027895 0.0107018,0.00850549 0.0415641,0.0273893 0.0752319,0.0330149 0.0336678,0.00562418 0.0407348,0.00205642 0.0660866,0.00127961 0.0253503,-0.000775347 0.0650621,0.0236393 0.048038,0.00048532 -0.0170241,-0.023154 0.00510096,-0.0177047 -0.040525,-0.0345058 -0.0456245,-0.0168011 -0.0480117,-0.0189071 -0.0595793,-0.0197305 -0.0115675,-0.000823441 -0.033592,-0.0036829 -0.0509688,-0.00556588 -0.0173768,-0.00188298 -0.0312573,-0.00287257 -0.0312573,-0.00287257z"/>
       <path id="_354757024" class="fil12" d="M1.02395 0.0192102c0.00167749,0.00201124 0.00376305,0.00394232 0.0059929,0.00571454 0.0107018,0.00850695 0.0403749,0.0306233 0.0740441,0.0362489 0.0336678,0.00562418 0.0488017,0.00928376 0.0741535,0.00850695 0.019391,-0.000593169 0.0431527,0.00742992 0.0456405,0.000875909l-0.000647094 -0.00089777c-0.00660065,-0.00897916 -0.00731478,-0.013656 -0.00837724,-0.0169979 -0.000644179,-0.00118488 -0.00116593,-0.00226483 -0.00159004,-0.00325004 -0.0025942,-0.00336081 -0.00904328,-0.0063354 -0.0305562,-0.0142579 -0.0456259,-0.0168011 -0.0480117,-0.0189071 -0.0595793,-0.0197305 -0.0115675,-0.000823441 -0.0335935,-0.0036829 -0.0509703,-0.00556588 -0.0173768,-0.00188298 -0.0312573,-0.00287257 -0.0312573,-0.00287257 -0.0115063,0.00332146 -0.0161861,0.00767039 -0.0168536,0.0122263z"/>
       <path id="_350270144" class="fil13" d="M1.07798 0.0536403c0.0240576,0.00312908 0.0274782,0.00441161 0.04078,0.00535893 0.0102223,0.000727252 0.0698395,0.0114407 0.0931043,0.00830874 0.00367269,-0.000494065 0.00206953,-0.0098026 -0.00506161,-0.0186098 -0.00645782,-0.00797645 -0.018432,-0.0155711 -0.0171159,-0.0153831 0.00592441,0.000849675 0.012799,0.00535164 0.0176333,0.0096175 0.00828688,0.00731624 0.0118109,0.0177105 0.0129667,0.0181638 0.0146645,0.0211836 -0.0173229,0.00782488 -0.0421471,0.00858419 -0.0253518,0.000776804 -0.0404856,-0.00288277 -0.0741535,-0.00850695 -0.0090564,-0.00151426 -0.0178199,-0.00422068 -0.0260062,-0.0075334z"/>
       <path id="_346202168" class="fil14" d="M1.01545 0.0083204c-0.0193808,0.0073381 -0.0114291,0.0209766 -0.00109306,0.0291921 0.0103346,0.00821401 0.0384248,0.031556 0.0720927,0.0371802 0.0336693,0.00562418 0.0527979,0.00465354 0.0740296,0.00747947 0.0212317,0.00282593 0.0653813,0.010078 0.0640885,-0.008762 -0.0183372,0.0052263 -0.0347769,-0.00294253 -0.0515212,-0.00363043 -0.0167443,-0.000689359 -0.0427344,0.0029571 -0.0764022,-0.00266708 -0.0336693,-0.00562564 -0.0650402,-0.029093 -0.0740441,-0.0362489 -0.00900393,-0.00715592 -0.0122219,-0.0160622 -0.0071501,-0.0225433z"/>
      </g>
     </g>
     <path id="_354760336" class="fil15" d="M1.01732 0.0132013c0,0 0.002396,-0.00512866 0.00966851,-0.0091657 0.00727252,-0.00403559 0.0165985,-0.00474681 0.0240197,-0.00229981 0.00742117,0.00244846 0.0200643,0.00303289 0.0255981,0.00386507 0.00553382,0.000833643 0.039993,0.00246741 0.0442137,0.00327773 0.00422214,0.000810325 0.0122059,0.00326753 0.0122059,0.00326753 0,0 -0.0874335,-0.00932602 -0.0980099,-0.00472495 -0.0105765,0.00459961 -0.017696,0.00578012 -0.017696,0.00578012z"/>
    </g>
    <g>
     <path id="_354770872" class="fil10" d="M1.50754 0.325749c-0.0344519,-0.0297576 -0.0827653,-0.0516728 -0.123292,-0.0449074 -0.040525,0.00676534 -0.109663,0.00651466 -0.0475833,0.0452616 0.0620817,0.0387455 0.0512151,0.0406766 0.0966356,0.0438144 0.045419,0.00313782 0.0742394,-0.0441685 0.0742394,-0.0441685z"/>
     <path id="_359655320" class="fil15" d="M1.44541 0.311302c-0.0220668,-0.0190587 -0.0530107,-0.0330951 -0.0789658,-0.0287622 -0.0259552,0.00433436 -0.0702374,0.00417259 -0.0304761,0.0289895 0.0397613,0.0248155 0.0328021,0.0260514 0.0618922,0.0280611 0.0290901,0.00200978 0.0475497,-0.0282885 0.0475497,-0.0282885z"/>
     <path id="_357150912" class="fil12" d="M1.48841 0.314058c-0.0271182,-0.0234236 -0.0651466,-0.0406722 -0.0970437,-0.0353468 -0.0318985,0.00532541 -0.0863185,0.0051272 -0.0374542,0.0356251 0.0488658,0.0304979 0.0403122,0.0320166 0.0760627,0.0344869 0.035749,0.00246887 0.0584352,-0.0347653 0.0584352,-0.0347653z"/>
    </g>
    <g>
     <path id="_359670104" class="fil10" d="M0.552895 0.224047c-0.000322089,0.00316843 -0.000188007,0.00402976 -0.00080741,0.00560377 -0.000619403,0.00157547 1.16593e-005,0.0012869 0.00561981,-0.00132625 0.00560815,-0.00261461 0.00910012,-0.00174307 0.016326,-0.00868038 0.00722442,-0.00693877 0.0168128,-0.0177572 0.0201896,-0.0208848 0.00337684,-0.00312908 0.00272537,-0.0035459 0.0055207,-0.00683675 0.00279679,-0.00329231 0.00567519,-0.00667789 0.00287257,-0.00800706 -0.00280407,-0.00132917 -0.00472787,-0.000651466 -0.00472787,-0.000651466 0,0 -0.0258415,0.0331344 -0.0374469,0.0368523 -0.011604,0.00371642 -0.00754651,0.00393066 -0.00754651,0.00393066z"/>
     <g>
      <path id="_360316088" class="fil11" d="M0.552573 0.212073c-0.00216718,0.00686881 0.00174599,0.00702767 0.00533124,0.00586902 0.00358671,-0.00115865 0.01263,-0.00536184 0.0190587,-0.0122336 0.00642867,-0.00687027 0.00668809,-0.00903745 0.0103783,-0.014975 0.00369018,-0.00593752 0.0153539,-0.0113285 0.00744012,-0.010954 -0.00791233,0.000376014 -0.00328502,-0.00387236 -0.0141034,0.00403851 -0.0108199,0.00790941 -0.0116666,0.00813677 -0.013621,0.0106654 -0.0019544,0.00253008 -0.00597104,0.0071501 -0.00905494,0.0108519 -0.0030839,0.00370184 -0.00542888,0.00673765 -0.00542888,0.00673765z"/>
      <path id="_347418504" class="fil12" d="M0.555409 0.217371c0.000718507,-7.72432e-005 0.00147928,-0.000262335 0.00222694,-0.000502809 0.00358525,-0.00115865 0.0131911,-0.0045967 0.0196183,-0.011467 0.00642867,-0.00687027 0.00957815,-0.00978657 0.0132683,-0.0157241 0.00282302,-0.00454277 0.0082898,-0.00877366 0.00716467,-0.0103448l-0.0003046 1.16593e-005c-0.00306787,0.000145742 -0.00424983,-0.000403705 -0.00517967,-0.000670413 -0.000370184,-3.35206e-005 -0.000698103,-7.87006e-005 -0.000989587,-0.000131168 -0.00116593,8.30729e-005 -0.00283322,0.0011091 -0.00793419,0.00483863 -0.0108199,0.00791087 -0.0116666,0.00813677 -0.013621,0.0106668 -0.0019544,0.00253008 -0.00597104,0.0071501 -0.00905494,0.0108519 -0.0030839,0.00370184 -0.00542888,0.00673765 -0.00542888,0.00673765 -0.000992502,0.00314802 -0.000708305,0.00488527 0.000234644,0.00573348z"/>
      <path id="_357148776" class="fil13" d="M0.571557 0.210221c0.00438974,-0.00504413 0.0052059,-0.00563438 0.00745324,-0.00854339 0.00172704,-0.00223568 0.0132829,-0.0142856 0.0161132,-0.0201051 0.000447427,-0.000918174 -0.00193399,-0.00197043 -0.00504413,-0.00167749 -0.00281573,0.00026525 -0.00638641,0.00185529 -0.00614302,0.0015813 0.00109889,-0.00123006 0.00318154,-0.00212054 0.00489838,-0.00257963 0.00294399,-0.000787006 0.00586757,-8.74451e-006 0.00614885,-0.000205496 0.00710054,-0.000134083 -0.000848218,0.00517092 -0.00446116,0.010986 -0.00369018,0.00593752 -0.00683967,0.00885382 -0.0132683,0.0157241 -0.0017285,0.00184801 -0.00368727,0.00344679 -0.00569705,0.00481968z"/>
      <path id="_353066288" class="fil14" d="M0.551612 0.21766c-0.00127233,0.0055688 0.00307224,0.0058253 0.00653506,0.004706 0.00346283,-0.0011193 0.0131066,-0.00400644 0.0195352,-0.0108767 0.00642867,-0.00687027 0.0091249,-0.0114101 0.0130133,-0.0158523 0.00388839,-0.00444367 0.0122904,-0.0134724 0.00776804,-0.0160491 -0.00159879,0.00500623 -0.0059827,0.0075334 -0.00869496,0.0112731 -0.00271371,0.00373828 -0.00584279,0.0102602 -0.0122715,0.017132 -0.00642722,0.00687027 -0.0166015,0.010492 -0.0196183,0.011467 -0.00301686,0.000975013 -0.00555276,0.000354153 -0.0062669,-0.00179991z"/>
     </g>
    </g>
    <g>
     <path id="_353049224" class="fil10" d="M1.31736 0.0900451c-0.0121957,-0.0102661 -0.0303449,-0.0197976 -0.0468968,-0.0216223 -0.0165519,-0.00182469 -0.0441685,-0.00783217 -0.0214051,0.00701601 0.022762,0.0148467 0.0183183,0.0143862 0.0363028,0.0190616 0.0179845,0.0046754 0.0319991,-0.00445533 0.0319991,-0.00445533z"/>
     <path id="_353048456" class="fil15" d="M1.2933 0.0811563c-0.00781176,-0.00657441 -0.0194361,-0.0126795 -0.0300359,-0.0138484 -0.0106013,-0.00116885 -0.0282885,-0.00501498 -0.0137099,0.00449322 0.0145786,0.00950966 0.0117322,0.0092138 0.0232517,0.0122088 0.011518,0.002995 0.0204942,-0.00285363 0.0204942,-0.00285363z"/>
     <path id="_356688912" class="fil12" d="M1.31034 0.0855315c-0.00960002,-0.00807993 -0.0238856,-0.0155842 -0.0369135,-0.0170197 -0.0130279,-0.00143556 -0.0347653,-0.00616342 -0.0168478,0.00552216 0.017916,0.0116856 0.0144182,0.0113227 0.0285741,0.0150041 0.0141559,0.00367998 0.0251871,-0.00350655 0.0251871,-0.00350655z"/>
    </g>
    <g>
     <path id="_353048840" class="fil16" d="M0.730817 0.219611c-0.0151061,0.0276254 -0.00355173,0.0425654 0.00866581,0.049526 0.012219,0.00696063 0.0446407,0.0179131 0.0725459,0.00566207 0.0279037,-0.0122511 0.0313943,-0.0224967 0.0499078,-0.0398196 0.0185136,-0.0173229 0.060289,-0.00304163 0.0360565,-0.0296643 -0.024234,-0.0266227 -0.00502372,-0.0318417 -0.0474127,-0.0300709 -0.0423905,0.00177076 -0.0452193,-0.000118051 -0.0542539,0.00588214 -0.00903454,0.00600165 -0.0268821,0.0153422 -0.0407757,0.0233129 -0.0138936,0.00797062 -0.0247338,0.0151717 -0.0247338,0.0151717z"/>
     <path id="_353048648" class="fil17" d="M0.724554 0.239723c-0.0104264,0.023326 0.00187133,0.0397511 0.0132742,0.0462468 0.0114014,0.00649717 0.0428787,0.0257351 0.069841,0.0138965 0.0269622,-0.0118372 0.0402758,-0.0250691 0.0569311,-0.0336605 0.0166554,-0.00859002 0.0519526,-0.0243068 0.0419474,-0.0529291 -0.0106931,0.0193895 -0.0264711,0.0167035 -0.0388635,0.0258838 -0.0123939,0.00918028 -0.0293597,0.0307894 -0.0563234,0.042628 -0.0269622,0.0118372 -0.0608647,-0.00558774 -0.070797,-0.0112454 -0.00993376,-0.00565916 -0.0165402,-0.0175954 -0.0160097,-0.03082z"/>
     <path id="_346808112" class="fil18" d="M0.732704 0.257188c0.00225317,0.00218613 0.00477013,0.00398458 0.00731624,0.00543617 0.0122175,0.00696063 0.0453665,0.02389 0.0732703,0.0116389 0.0279052,-0.0122525 0.0410118,-0.0159325 0.0595253,-0.0332539 0.0141617,-0.0132508 0.0358758,-0.0153481 0.0344636,-0.0275146l-0.000928376 -0.0010406c-0.00939889,-0.0103258 -0.0122613,-0.0174278 -0.0147199,-0.0221557 -0.00106975,-0.00150697 -0.00199812,-0.00292212 -0.00280553,-0.00424546 -0.00360857,-0.00378492 -0.00990024,-0.00450488 -0.0298873,-0.00366978 -0.0423905,0.00177076 -0.0452193,-0.000118051 -0.0542539,0.00588214 -0.00903454,0.00600165 -0.0268821,0.0153422 -0.0407757,0.0233129 -0.0138936,0.00797062 -0.0247338,0.0151717 -0.0247338,0.0151717 -0.0069242,0.0126606 -0.00824462,0.0226527 -0.00647094,0.0304382z"/>
     <path id="_356455808" class="fil19" d="M0.790148 0.278575c0.0194959,-0.0101946 0.0226847,-0.0102894 0.0330732,-0.0171903 0.0079852,-0.00530209 0.0577721,-0.0257788 0.0735559,-0.0455866 0.00249219,-0.00312762 -0.00334332,-0.0171524 -0.0130512,-0.0268646 -0.00878969,-0.00879406 -0.0215028,-0.0134767 -0.0204286,-0.0140072 0.00484154,-0.00238142 0.0122103,0.000534873 0.0179408,0.00436497 0.00982592,0.00657004 0.0176333,0.0211311 0.018722,0.0211311 0.0214911,0.024935 -0.00901559,0.0236218 -0.0271444,0.0405862 -0.0185136,0.0173214 -0.0316202,0.0210014 -0.0595253,0.0332539 -0.00750571,0.00329522 -0.0153889,0.00447719 -0.0231423,0.0043125z"/>
    </g>
    <g>
     <path id="_356677632" class="fil20" d="M0.955927 1.23403c0.0102209,-0.00538662 0.0125542,-0.00752028 0.0185559,-0.00881301 0.00600019,-0.00129273 0.00386216,-0.00262044 -0.0152971,-0.0143148 -0.0191607,-0.0116943 -0.0235388,-0.0239949 -0.0590109,-0.0318912 -0.0354721,-0.00789484 -0.0874116,-0.0151411 -0.103644,-0.0190587 -0.0162327,-0.003919 -0.0161832,-0.00111347 -0.031744,-0.00295273 -0.0155623,-0.0018378 -0.0315706,-0.00373391 -0.0299587,0.00740514 0.0016119,0.011139 0.00752757,0.0155885 0.00752757,0.0155885 0,0 0.152006,0.0115369 0.186539,0.0391331 0.034535,0.0275962 0.0270322,0.0149036 0.0270322,0.0149036z"/>
     <g>
      <path id="_353047256" class="fil21" d="M0.920396 1.25905c0.0251069,-0.00724774 0.0177266,-0.019388 0.00702476,-0.027895 -0.0107018,-0.00850549 -0.0415627,-0.0273893 -0.0752305,-0.0330149 -0.0336693,-0.00562418 -0.0407363,-0.00205496 -0.0660866,-0.00127961 -0.0253518,0.000775347 -0.0650621,-0.0236393 -0.048038,-0.00048532 0.0170241,0.023154 -0.00510096,0.0177047 0.0405235,0.0345058 0.0456259,0.0168011 0.0480117,0.0189071 0.0595793,0.0197305 0.0115675,0.000823441 0.0335935,0.0036829 0.0509703,0.00556588 0.0173768,0.00188444 0.0312573,0.00287257 0.0312573,0.00287257z"/>
      <path id="_357909488" class="fil22" d="M0.876678 1.20541c-0.0240591,-0.00312762 -0.0274796,-0.00441161 -0.04078,-0.00535893 -0.0102238,-0.000727252 -0.0698395,-0.0114407 -0.0931043,-0.00830874 -0.00367415,0.000495522 -0.00207099,0.0098026 0.00506161,0.0186112 0.00645636,0.00797499 0.0184305,0.0155711 0.0171159,0.0153816 -0.00592586,-0.000849675 -0.012799,-0.00535018 -0.0176333,-0.0096175 -0.00828688,-0.00731624 -0.0118109,-0.0177105 -0.0129681,-0.0181638 -0.0146631,-0.0211836 0.0173243,-0.00782342 0.0421485,-0.00858419 0.0253503,-0.000775347 0.0404856,0.00288277 0.0741535,0.00850841 0.0090564,0.0015128 0.0178199,0.00421923 0.0260062,0.00753194z"/>
      <path id="_345994016" class="fil23" d="M0.939206 1.25073c0.0193808,-0.0073381 0.0114276,-0.0209766 0.00109306,-0.0291921 -0.010336,-0.00821401 -0.0384248,-0.0315546 -0.0720941,-0.0371802 -0.0336678,-0.00562418 -0.0527979,-0.00465354 -0.0740296,-0.00747947 -0.0212302,-0.00282593 -0.0653798,-0.010078 -0.0640871,0.008762 0.0183372,-0.0052263 0.0347769,0.00294399 0.0515212,0.00363189 0.0167428,0.000687902 0.0427344,-0.00295856 0.0764022,0.00266708 0.0336678,0.00562418 0.0650402,0.0290915 0.0740441,0.0362475 0.00900393,0.00715592 0.0122205,0.0160622 0.0071501,0.0225433z"/>
     </g>
    </g>
    <g>
     <path id="_345992528" class="fil17" d="M1.49387 0.978081c0.0119989,-0.0268427 -0.00215261,-0.0457425 -0.0152737,-0.0532176 -0.0131197,-0.0074751 -0.0493409,-0.0296133 -0.0803664,-0.0159908 -0.031027,0.0136225 -0.0463459,0.0288481 -0.065511,0.0387338 -0.0191665,0.00988567 -0.0597833,0.0279708 -0.0482697,0.060907 0.012305,-0.0223131 0.03046,-0.0192204 0.0447209,-0.0297853 0.0142608,-0.0105634 0.0337844,-0.0354298 0.0648114,-0.0490523 0.0310255,-0.0136225 0.0700377,0.00643013 0.0814668,0.0129404 0.0114305,0.00651175 0.0190324,0.0202465 0.0184218,0.0354648z"/>
     <path id="_345995240" class="fil24" d="M1.48449 0.957984c-0.00259275,-0.00251696 -0.00548864,-0.00458504 -0.00841805,-0.00625524 -0.0140612,-0.00800997 -0.0522047,-0.0274913 -0.0843146,-0.0133937 -0.0321098,0.0140991 -0.0471927,0.0183329 -0.0684958,0.038266 -0.0162954,0.0152475 -0.0412828,0.017661 -0.0396578,0.031661l0.00106975 0.00119654c0.010814,0.0118823 0.0141093,0.0200555 0.0169367,0.0254961 0.00123152,0.00173433 0.00229981,0.00336081 0.00322964,0.00488381 0.00415219,0.00435622 0.0113912,0.00518404 0.0343922,0.0042236 0.0487783,-0.00203747 0.0520328,0.000136997 0.06243,-0.00676825 0.0103958,-0.00690525 0.0309323,-0.0176537 0.0469187,-0.0268267 0.0159879,-0.00917153 0.0284634,-0.0174584 0.0284634,-0.0174584 0.00796625,-0.0145684 0.00948634,-0.0260659 0.00744595,-0.0350247z"/>
     <path id="_345994520" class="fil19" d="M1.41839 0.933375c-0.022434,0.0117293 -0.0261053,0.0118386 -0.038059,0.0197786 -0.00918757,0.00610367 -0.0664787,0.0296658 -0.084641,0.0524583 -0.00286674,0.00359837 0.00384758,0.0197364 0.0150187,0.0309118 0.0101145,0.0101203 0.0247441,0.0155098 0.0235067,0.016119 -0.00557025,0.0027414 -0.0140495,-0.000615031 -0.0206443,-0.00502226 -0.0113067,-0.00755963 -0.0202916,-0.0243156 -0.0215436,-0.0243156 -0.0247309,-0.0286922 0.0103739,-0.0271823 0.0312354,-0.046703 0.0213031,-0.0199331 0.0363859,-0.0241669 0.0684958,-0.038266 0.00863666,-0.00379075 0.0177076,-0.00515197 0.0266314,-0.00496105z"/>
    </g>
   </g>
   <path class="fil25" d="M1.95134 0.347208c-0.141657,0.449274 -1.56936,0.891397 -1.88953,0.615064 0.147857,0.432129 1.97793,-0.142845 1.88953,-0.615064z"/>
   <g>
    <path class="fil26" d="M2.02614 0.334093c-0.151327,0.479942 -1.67648,0.952244 -2.01851,0.657048 0.157949,0.461626 2.11295,-0.152595 2.01851,-0.657048z"/>
    <path id="1" class="fil2" d="M0.00683384 0.991527l0.00126212 -0.00126795 0.0353293 0.0253605 0.0418148 0.0210393 0.047831 0.0168419 0.053375 0.0127757 0.0584469 0.00884507 0.0630465 0.00504704 0.0671782 0.00138746 0.0708378 -0.0021322 0.0740281 -0.00551633 0.076752 -0.008762 0.0790037 -0.0118634 0.0807862 -0.0148321 0.0821022 -0.0176595 0.0829504 -0.0203456 0.0833294 -0.022896 0.0832375 -0.0253052 0.0826794 -0.0275744 0.0816519 -0.0297066 0.0801566 -0.0316989 0.078192 -0.0335512 0.0757595 -0.0352637 0.0728593 -0.0368377 0.0694883 -0.0382718 0.0656509 -0.039566 0.0613427 -0.0407188 0.0565668 -0.0417346 0.0513201 -0.0426047 0.0456055 -0.0433363 0.0394217 -0.0439208 0.0327686 -0.0443609 0.0256506 -0.0446495 0.0180705 -0.0447923 0.00161482 0.000874451 -0.0181959 0.0451071 -0.0257817 0.0448797 -0.0328881 0.0445241 -0.0395266 0.0440374 -0.0456959 0.0434209 -0.0513988 0.0426718 -0.0566338 0.0417842 -0.061404 0.0407596 -0.0657033 0.0395981 -0.0695378 0.038298 -0.072903 0.036861 -0.0758003 0.0352841 -0.0782328 0.0335658 -0.0801945 0.0317134 -0.0816868 0.0297211 -0.0827172 0.027586 -0.0832725 0.0253168 -0.0833643 0.0229048 -0.0829883 0.0203572 -0.082143 0.0176654 -0.0808299 0.0148409 -0.0790504 0.0118721 -0.0768016 0.00876491 -0.0740864 0.00552216 -0.070902 0.00213512 -0.067254 -0.00139038 -0.0631368 -0.00505578 -0.0585547 -0.00885965 -0.0535091 -0.0128078 -0.0479942 -0.0169031 -0.0420217 -0.0211442 -0.035577 -0.0255383 0.00126212 -0.00126795 -0.00158567 0.000772432zm2.0185 -0.657871l0.0016498 0.000237559 0.00298771 0.0479024 -0.00838307 0.0482814 -0.0190135 0.0484111 -0.0289094 0.0483367 -0.0380925 0.0480657 -0.0465674 0.0475964 -0.0543413 0.0469187 -0.0614127 0.0460326 -0.0677787 0.0449308 -0.0734466 0.0436147 -0.0784077 0.0420844 -0.0826648 0.0403355 -0.0862209 0.0383738 -0.0890701 0.0361921 -0.0912184 0.0337946 -0.0926627 0.0311815 -0.0934016 0.0283497 -0.093438 0.0253022 -0.0927691 0.0220391 -0.0913962 0.0185544 -0.0893208 0.0148569 -0.0865415 0.0109379 -0.0830612 0.00680614 -0.0788726 0.00245575 -0.0739888 -0.00211617 -0.0683967 -0.00690379 -0.0621079 -0.0119129 -0.0551225 -0.0171465 -0.0474346 -0.0226104 -0.0390501 -0.0283147 -0.029947 -0.0342683 -0.0200949 -0.0404477 0.00158567 -0.000772432 0.0198151 0.0398764 0.0296147 0.0338806 0.0387528 0.0280961 0.0472014 0.0224967 0.0549388 0.0170882 0.061968 0.0118838 0.0682859 0.00689213 0.0738955 0.00211326 0.0787997 -0.00245284 0.0829942 -0.00680031 0.0864861 -0.0109321 0.0892713 -0.0148482 0.0913495 -0.0185457 0.0927253 -0.0220274 0.0933972 -0.0252906 0.0933608 -0.028338 0.0926219 -0.0311669 0.0911776 -0.03378 0.0890293 -0.0361746 0.0861742 -0.0383534 0.0826181 -0.0403122 0.0783523 -0.0420553 0.0733854 -0.0435797 0.0677117 -0.0448841 0.0613311 -0.0459714 0.0542451 -0.0468371 0.0464538 -0.0474769 0.0379555 -0.0478937 0.0287549 -0.0480744 0.0188619 -0.0480147 0.00829271 -0.0477275 -0.0029469 -0.0472524 0.0016498 0.000237559 -0.00161482 -0.000874451z"/>
   </g>
  </g>
 </g>
</svg>
