<?xml version="1.0" encoding="UTF-8"?>
<!DOCTYPE svg PUBLIC "-//W3C//DTD SVG 1.1//EN" "http://www.w3.org/Graphics/SVG/1.1/DTD/svg11.dtd">
<!-- Creator: CorelDRAW -->
<svg xmlns="http://www.w3.org/2000/svg" xml:space="preserve" width="5.48336in" height="3.42077in" style="shape-rendering:geometricPrecision; text-rendering:geometricPrecision; image-rendering:optimizeQuality; fill-rule:evenodd; clip-rule:evenodd"
viewBox="0 0 8.68427 5.41764"
 xmlns:xlink="http://www.w3.org/1999/xlink">
 <defs>
  <style type="text/css">
   <![CDATA[
    .fil20 {fill:#462F1A}
    .fil23 {fill:#58340F}
    .fil24 {fill:#723902}
    .fil10 {fill:#753900}
    .fil17 {fill:#763800}
    .fil22 {fill:#763B02}
    .fil21 {fill:#7C3800}
    .fil14 {fill:#853F00}
    .fil19 {fill:#884401}
    .fil18 {fill:#8D4100}
    .fil13 {fill:#9A4D04}
    .fil4 {fill:#9C4C00}
    .fil16 {fill:#CC6805}
    .fil12 {fill:#CD6C09}
    .fil11 {fill:#EF7D0C}
    .fil15 {fill:#FFAB38}
    .fil2 {fill:#E8D1AB;fill-rule:nonzero}
    .fil8 {fill:#EF7D0C;fill-opacity:0.501961}
    .fil7 {fill:url(#id0)}
    .fil9 {fill:url(#id1)}
    .fil3 {fill:url(#id2)}
    .fil5 {fill:url(#id3)}
    .fil26 {fill:url(#id4)}
    .fil25 {fill:url(#id5)}
    .fil6 {fill:url(#id6)}
    .fil1 {fill:url(#id7)}
    .fil0 {fill:url(#id8)}
   ]]>
  </style>
  <linearGradient id="id0" gradientUnits="userSpaceOnUse" x1="2.51225" y1="2.7195" x2="5.23894" y2="0.0445008">
   <stop offset="0" style="stop-color:#2A2A2A"/>
   <stop offset="1" style="stop-color:#B35700"/>
  </linearGradient>
  <linearGradient id="id1" gradientUnits="userSpaceOnUse" x1="3.44245" y1="4.15507" x2="5.24482" y2="1.05345">
   <stop offset="0" style="stop-color:#2A2A2A"/>
   <stop offset="1" style="stop-color:#843E00"/>
  </linearGradient>
  <linearGradient id="id2" gradientUnits="userSpaceOnUse" x1="2.5952" y1="4.80553" x2="6.10439" y2="0.675463">
   <stop offset="0" style="stop-color:#2A2A2A"/>
   <stop offset="0.2" style="stop-color:#382A22"/>
   <stop offset="0.678431" style="stop-color:#964900"/>
   <stop offset="1" style="stop-color:#BF5F00"/>
  </linearGradient>
  <linearGradient id="id3" gradientUnits="userSpaceOnUse" xlink:href="#id0" x1="3.80589" y1="4.99001" x2="5.57505" y2="2.44041">
  </linearGradient>
  <linearGradient id="id4" gradientUnits="userSpaceOnUse" x1="1.53165" y1="4.93755" x2="8.92306" y2="2.75632">
   <stop offset="0" style="stop-color:#845221"/>
   <stop offset="0.458824" style="stop-color:#F2B97D"/>
   <stop offset="1" style="stop-color:#FFD9A3"/>
  </linearGradient>
  <linearGradient id="id5" gradientUnits="userSpaceOnUse" x1="2.23294" y1="4.79127" x2="7.58384" y2="1.33105">
   <stop offset="0" style="stop-color:#562F09"/>
   <stop offset="0.529412" style="stop-color:#FFE7B9"/>
   <stop offset="1" style="stop-color:#C89158"/>
  </linearGradient>
  <linearGradient id="id6" gradientUnits="userSpaceOnUse" xlink:href="#id1" x1="4.38432" y1="5.35457" x2="5.62216" y2="3.96836">
  </linearGradient>
  <linearGradient id="id7" gradientUnits="userSpaceOnUse" x1="2.60473" y1="3.15988" x2="8.30482" y2="1.41555">
   <stop offset="0" style="stop-color:#230E00"/>
   <stop offset="0.678431" style="stop-color:#743300"/>
   <stop offset="1" style="stop-color:#EDBD8D"/>
  </linearGradient>
  <linearGradient id="id8" gradientUnits="userSpaceOnUse" x1="2.64423" y1="2.33546" x2="7.64605" y2="0.32793">
   <stop offset="0" style="stop-color:#461D00"/>
   <stop offset="1" style="stop-color:#EDBD8D"/>
  </linearGradient>
 </defs>
 <g id="Layer_x0020_1">
  <metadata id="CorelCorpID_0Corel-Layer"/>
  <g id="_354773824">
   <path id="_346274064" class="fil0" d="M8.66836 1.42934c-1.73205,-1.27878 -8.19626,0.928731 -8.63573,2.81103 -0.616297,-1.99431 7.69192,-4.79351 8.63573,-2.81103z"/>
   <g>
    <path id="_348826568" class="fil1" d="M8.34835 1.48545c-1.61982,-1.19592 -7.66519,0.868549 -8.07619,2.62889 -0.576366,-1.86509 7.19354,-4.48292 8.07619,-2.62889z"/>
    <path id="_3488265681" class="fil2" d="M0.268714 4.11593l0.0068837 -0.00317997 -0.00695852 0.000673405 0.0549885 -0.166605 0.0862021 -0.167534 0.115526 -0.167852 0.14298 -0.167553 0.168594 -0.166637 0.192369 -0.165103 0.214299 -0.162933 0.234401 -0.160115 0.252658 -0.156654 0.269088 -0.152551 0.283666 -0.147787 0.296417 -0.142394 0.30731 -0.136333 0.316376 -0.129624 0.323602 -0.12226 0.328983 -0.114254 0.332525 -0.105581 0.334221 -0.0962782 0.33409 -0.0863018 0.332101 -0.0756832 0.328285 -0.0644162 0.322623 -0.0524819 0.315122 -0.0399055 0.305782 -0.0266743 0.294602 -0.0127822 0.281583 0.00176457 0.266737 0.0169598 0.250045 0.0328098 0.23152 0.0493394 0.211169 0.0665237 0.188971 0.0843876 0.164934 0.102937 -0.00412772 0.00719546 -0.164099 -0.102414 -0.188235 -0.0840634 -0.210545 -0.0663242 -0.230984 -0.0492147 -0.249596 -0.0327599 -0.26635 -0.0169349 -0.281259 -0.0017521 -0.294303 0.0127698 -0.30552 0.0266494 -0.314885 0.0398681 -0.322411 0.052457 -0.328085 0.0643663 -0.331914 0.0756458 -0.333903 0.086252 -0.334046 0.0962283 -0.33235 0.105531 -0.328809 0.114192 -0.323428 0.122198 -0.316201 0.129549 -0.307123 0.136246 -0.296205 0.142294 -0.283454 0.147675 -0.268851 0.152414 -0.252396 0.156492 -0.234102 0.159915 -0.213962 0.162671 -0.19197 0.164766 -0.168145 0.166188 -0.142456 0.166942 -0.11494 0.166992 -0.0856035 0.16635 -0.0544772 0.165022 -0.00695852 0.000673405zm8.07757 -2.62688l0.00412772 -0.00719546 -0.00527501 0.00577382 -0.101959 -0.160065 -0.139463 -0.13508 -0.174287 -0.111006 -0.206361 -0.087817 -0.235636 -0.0655323 -0.26211 -0.0441641 -0.285779 -0.0237313 -0.306642 -0.00423372 -0.324718 0.0142912 -0.339988 0.031887 -0.352471 0.0485101 -0.362148 0.0641979 -0.369038 0.0789069 -0.373147 0.0926805 -0.374451 0.105481 -0.372973 0.117335 -0.368689 0.128228 -0.361631 0.13816 -0.351773 0.147133 -0.339116 0.155157 -0.323683 0.162216 -0.305445 0.168308 -0.28442 0.173458 -0.260595 0.177629 -0.233977 0.180828 -0.204559 0.183054 -0.172348 0.184288 -0.137337 0.184525 -0.0995766 0.183721 -0.0590913 0.181894 -0.0159684 0.179163 0.0298481 0.175703 -0.0068837 0.00317997 -0.0302471 -0.178097 0.016168 -0.181545 0.0596899 -0.183802 0.100287 -0.185055 0.138011 -0.185423 0.172909 -0.184912 0.205046 -0.18349 0.234376 -0.18114 0.260944 -0.177866 0.284719 -0.173632 0.305707 -0.168457 0.32392 -0.16234 0.33934 -0.155257 0.351973 -0.14722 0.36183 -0.138235 0.368889 -0.12829 0.37316 -0.117397 0.37465 -0.105531 0.373347 -0.0927304 0.369263 -0.0789567 0.362385 -0.0642354 0.352733 -0.0485475 0.340275 -0.0319119 0.325055 -0.0143161 0.307041 0.00424619 0.286253 0.0237687 0.262684 0.0442639 0.236334 0.0657318 0.207222 0.0881911 0.175322 0.111667 0.140586 0.136177 0.102969 0.161686 -0.00527501 0.00577382z"/>
   </g>
   <g id="_346476480">
    <g>
     <ellipse id="_353047472" class="fil3" cx="4.3498" cy="2.7405" rx="2.66175" ry="2.67715"/>
     <path id="_346202984" class="fil4" d="M2.37565 4.49733c0.674066,-0.441448 0.195761,-0.549405 0.8284,-0.503127 0.632639,0.0462841 0.678923,0.0926555 1.00299,-0.339458 0.324064,-0.432114 0.493793,-0.354859 0.925813,-0.540077 0.432027,-0.185218 0.405059,-0.324064 0.727165,-0.324064 0.322106,0 0.460946,0 0.707848,0 0.246896,0 0.445083,-0.199216 0.445083,-0.199216 0,0 -0.014553,0.486703 -0.0475873,0.633574 -0.0330343,0.146865 -0.461139,-0.00233198 -0.783239,-0.00233198 -0.322106,0 -0.216107,0.0308831 -0.864141,0.324064 -0.64804,0.293174 -0.75609,0.216101 -1.01838,0.447509 -0.262297,0.231408 0.0461844,0.293087 -0.447515,0.401137 -0.493699,0.108057 -0.447515,0.0309829 -0.678917,0.13894 -0.231408,0.107963 -0.515074,0.23533 -0.515074,0.23533l-0.282444 -0.27228z"/>
     <path id="_346462824" class="fil5" d="M2.37182 4.53204c0.674066,-0.441448 0.195761,-0.549405 0.8284,-0.503127 0.632639,0.0462841 0.678923,0.0926555 1.00299,-0.339458 0.324064,-0.43212 0.493793,-0.354859 0.92582,-0.540077 0.43202,-0.185218 0.405053,-0.324064 0.727159,-0.324064 0.322106,0 0.460952,0 0.707848,0 0.246896,0 0.44509,-0.199216 0.44509,-0.199216 0,0 -0.0145593,0.486703 -0.0475935,0.633574 -0.033028,0.146865 -0.461133,-0.00233821 -0.783239,-0.00233821 -0.322106,0 -0.216107,0.0308893 -0.864141,0.32407 -0.648034,0.293174 -0.756084,0.216101 -1.01838,0.447509 -0.262291,0.231408 0.0461906,0.293087 -0.447509,0.401137 -0.493706,0.108057 -0.447515,0.0309829 -0.678923,0.13894 -0.231408,0.107957 -0.515068,0.23533 -0.515068,0.23533l-0.28245 -0.27228z"/>
     <path id="_346465560" class="fil6" d="M3.28999 5.19706c0.388536,-0.057202 0.296067,-0.180647 0.866934,-0.304098 0.570873,-0.123445 0.925726,-0.0924685 1.08006,-0.32397 0.154334,-0.231502 -0.0636368,-0.246896 0.277786,-0.246896 0.341416,0 0.648034,-0.169823 0.848646,-0.231502 0.200619,-0.0616789 0.353182,-0.123913 0.353182,-0.123913 0,0 -0.727539,0.895211 -0.860412,0.981332 -0.132873,0.0861273 -0.495751,0.00662805 -0.758048,0.0221164 -0.262291,0.0154883 -0.756084,0.169823 -0.848646,0.185224 -0.0925682,0.0153948 -0.469725,0.200799 -0.469725,0.200799l-0.489777 -0.159092z"/>
     <path id="_346202336" class="fil7" d="M2.30529 1.45199c0.308575,-0.401144 0.43202,-0.447421 0.817763,-0.617151 0.385743,-0.169729 0.632639,-0.339465 1.00299,-0.324064 0.370348,0.0153948 0.873101,0.17579 1.13735,0.17579 0.0970451,0 0.179531,-0.055612 0.27657,-0.211343 0.068307,-0.109453 0.523279,0.216481 0.523279,0.216481 0,0 -0.414387,-0.417842 -1.04805,-0.543064 -0.633668,-0.125222 -0.799201,-0.100213 -1.01568,-0.0623336 -0.216481,0.0378853 -0.711583,0.175141 -0.91565,0.298593 -0.204067,0.123451 -1.17766,0.833906 -1.28674,1.59475 -0.109079,0.760848 0.508165,-0.527663 0.508165,-0.527663z"/>
     <path id="_346467840" class="fil8" d="M2.88642 0.521964c0.0497384,-0.034618 0.580668,-0.302976 1.02202,-0.344122 0.441355,-0.0411525 0.624614,-0.0504804 0.772508,-0.0206199 0.1479,0.0298543 0.313246,-0.0810892 0.461607,0.100213 0.148361,0.181302 0.109821,0.142762 0.0557991,0.258469 -0.0540283,0.115701 -0.150325,0.095081 0.0231389,0.158063 0.173464,0.0629883 0.401137,0 0.401137,0 0,0 -0.00765063,-0.192868 0.131196,0 0.138846,0.192874 -0.115707,0.14659 0.200612,0.254641 0.31632,0.108057 0.200619,-0.0463714 0.200619,0.262297 0,0.308669 0.38313,0.26481 0.361294,0.390874 -0.0218358,0.126058 -0.338155,-0.128489 -0.145281,0.264997 0.192868,0.393487 0.0308831,0.185218 0.192868,0.393487 0.161985,0.208269 0.246803,0.0398431 0.347203,0.270035 0.0909783,0.208643 0.0952743,0.367455 0.0951808,0.395451 0.00335455,-0.054683 0.00522512,-0.109734 0.00522512,-0.165252 0,-1.47859 -1.19175,-2.67715 -2.66175,-2.67715 -0.284875,0 -0.5593,0.0451618 -0.816553,0.128489 -0.234769,0.0843502 -0.45395,0.196229 -0.646824,0.330124z"/>
     <path id="_357148128" class="fil4" d="M1.87326 3.12997c0.339465,-0.648034 -0.10805,-1.04917 0.941214,-1.03378 1.04927,0.0153948 0.910425,-0.262385 1.66652,-0.324064 0.756084,-0.0616789 1.04936,-0.0307896 1.57394,-0.107957 0.524589,-0.0771672 0.5858,-0.339558 0.685458,-0.0871498 0.0560797,0.141827 0.111692,0.285337 0.130541,0.349909 0.0146466,0.0501998 0.0235131,0.0315378 -0.111043,0.066904 -0.307547,0.0809894 -0.259492,0.117752 -0.596992,0.117752 -0.337501,0 0.0308831,-0.0153948 -0.632639,-0.0153948 -0.663528,0 -0.763741,-0.0387208 -0.987499,0.277692 -0.223758,0.316413 -9.35285e-005,0.432114 -0.987586,0.432114 -0.987499,0 -0.802275,-0.293174 -1.11094,0.123451 -0.308669,0.416626 -0.555752,0.853971 -0.555752,0.853971 0,0 -0.157228,-0.463752 -0.015214,-0.653452z"/>
     <path id="_357148320" class="fil9" d="M1.90406 3.18017c0.339458,-0.648034 -0.10805,-1.04917 0.941214,-1.03378 1.04926,0.015401 0.910419,-0.262385 1.66651,-0.324064 0.75609,-0.0616789 1.04936,-0.0307896 1.57395,-0.107957 0.524589,-0.0771672 0.5858,-0.339552 0.685451,-0.0871498 0.0560797,0.141827 0.111692,0.285337 0.130541,0.349909 0.0146466,0.0501998 0.0235131,0.0315378 -0.111037,0.066904 -0.307553,0.0809894 -0.259498,0.117759 -0.596998,0.117759 -0.337501,0 0.0308893,-0.015401 -0.632639,-0.015401 -0.663522,0 -0.763735,-0.0387208 -0.987492,0.277692 -0.223758,0.316413 -9.35285e-005,0.432114 -0.987592,0.432114 -0.987492,0 -0.802275,-0.293174 -1.11094,0.123451 -0.308669,0.416626 -0.555752,0.853971 -0.555752,0.853971 0,0 -0.157228,-0.463752 -0.0152077,-0.653452z"/>
    </g>
    <g>
     <g>
      <path id="_353055464" class="fil10" d="M4.27284 0.107059c-0.0437277,0.0230392 -0.053704,0.0321738 -0.0793807,0.0376982 -0.0256767,0.00553065 -0.0165234,0.0112172 0.065445,0.0612487 0.0819684,0.0500315 0.100699,0.102651 0.252458,0.136433 0.151759,0.0337762 0.373977,0.0647778 0.443425,0.0815381 0.069448,0.0167665 0.0692298,0.00476372 0.13581,0.0126326 0.0665736,0.00786263 0.135068,0.0159747 0.128171,-0.0316812 -0.0069024,-0.0476496 -0.0322112,-0.066692 -0.0322112,-0.066692 0,0 -0.650316,-0.0493581 -0.798066,-0.167422 -0.14775,-0.118064 -0.115651,-0.0637552 -0.115651,-0.0637552z"/>
      <g>
       <path id="_347413872" class="fil11" d="M4.42486 0c-0.107421,0.0310078 -0.0758454,0.0829535 -0.0300601,0.119342 0.0457853,0.0363888 0.177823,0.117179 0.321863,0.141247 0.14404,0.0240618 0.174275,0.00879791 0.282737,0.00547453 0.108456,-0.00331714 0.278353,0.101135 0.205519,0.00207633 -0.0728337,-0.0990591 0.0218233,-0.0757456 -0.173377,-0.147625 -0.195194,-0.0718797 -0.205407,-0.0808897 -0.254896,-0.0844126 -0.049489,-0.00352291 -0.143716,-0.0157564 -0.218059,-0.0238123 -0.0743427,-0.00805592 -0.133727,-0.0122896 -0.133727,-0.0122896z"/>
       <path id="_347220288" class="fil12" d="M4.38074 0.0821866c0.00717675,0.00860462 0.0160994,0.0168663 0.0256393,0.0244483 0.0457853,0.036395 0.172735,0.131015 0.316781,0.155083 0.14404,0.0240618 0.208787,0.0397184 0.317249,0.036395 0.0829598,-0.00253774 0.184619,0.0317872 0.195263,0.00374737l-0.00276844 -0.0038409c-0.0282394,-0.0384153 -0.0312946,-0.0584241 -0.0358401,-0.0727215 -0.00275597,-0.00506924 -0.00498819,-0.00968955 -0.00680264,-0.0139046 -0.0110987,-0.0143784 -0.0386896,-0.0271046 -0.130728,-0.0609993 -0.1952,-0.0718797 -0.205407,-0.0808897 -0.254896,-0.0844126 -0.049489,-0.00352291 -0.143722,-0.0157564 -0.218065,-0.0238123 -0.0743427,-0.00805592 -0.133727,-0.0122896 -0.133727,-0.0122896 -0.0492272,0.0142101 -0.0692485,0.032816 -0.0721042,0.0523074z"/>
       <path id="_350417336" class="fil13" d="M4.6119 0.229488c0.102925,0.013387 0.117559,0.018874 0.174468,0.0229269 0.0437339,0.00311138 0.298792,0.0489466 0.398325,0.0355471 0.0157128,-0.00211374 0.00885403,-0.0419382 -0.021655,-0.0796177 -0.0276283,-0.0341254 -0.078857,-0.0666172 -0.0732266,-0.0658129 0.0253462,0.00363514 0.0547578,0.0228958 0.0754401,0.0411463 0.0354535,0.0313009 0.0505303,0.0757705 0.0554749,0.0777097 0.0627389,0.0906291 -0.074112,0.033477 -0.180317,0.0367255 -0.108462,0.00332338 -0.173208,-0.0123333 -0.317249,-0.036395 -0.0387457,-0.00647841 -0.0762382,-0.0180572 -0.111261,-0.0322299z"/>
       <path id="_350487632" class="fil14" d="M4.34438 0.0355969c-0.0829161,0.0313944 -0.0488967,0.0897437 -0.00467642,0.124892 0.044214,0.0351418 0.164392,0.135005 0.308432,0.159067 0.144046,0.0240618 0.225884,0.0199091 0.316719,0.0319992 0.0908349,0.0120901 0.279719,0.0431166 0.274188,-0.0374862 -0.0784517,0.0223595 -0.148785,-0.0125889 -0.220422,-0.015532 -0.0716366,-0.00294926 -0.182829,0.0126513 -0.32687,-0.0114105 -0.144046,-0.024068 -0.27826,-0.124468 -0.316781,-0.155083 -0.0385213,-0.030615 -0.0522887,-0.0687185 -0.03059,-0.0964466z"/>
      </g>
     </g>
     <path id="_353056256" class="fil15" d="M4.35238 0.0564787c0,0 0.0102507,-0.0219418 0.0413645,-0.0392134 0.0311138,-0.0172654 0.071013,-0.0203081 0.102763,-0.0098392 0.0317498,0.0104752 0.0858404,0.0129755 0.109516,0.0165358 0.0236752,0.00356655 0.171101,0.0105562 0.189158,0.014023 0.0180635,0.00346679 0.0522201,0.0139794 0.0522201,0.0139794 0,0 -0.374064,-0.0398992 -0.419313,-0.0202146 -0.0452491,0.0196784 -0.0757082,0.0247289 -0.0757082,0.0247289z"/>
    </g>
    <g>
     <path id="_354743104" class="fil10" d="M6.44967 1.39364c-0.147395,-0.127311 -0.354093,-0.22107 -0.527476,-0.192126 -0.173377,0.0289439 -0.46917,0.0278715 -0.203574,0.193641 0.265602,0.165764 0.219112,0.174025 0.413433,0.18745 0.194315,0.0134245 0.317616,-0.188965 0.317616,-0.188965z"/>
     <path id="_346462248" class="fil15" d="M6.18385 1.33183c-0.0944076,-0.0815381 -0.226794,-0.14159 -0.337837,-0.123052 -0.111043,0.0185436 -0.300495,0.0178515 -0.130385,0.124025 0.17011,0.106167 0.140336,0.111455 0.264792,0.120053 0.124455,0.00859838 0.203431,-0.121026 0.203431,-0.121026z"/>
     <path id="_346278840" class="fil12" d="M6.36784 1.34362c-0.116019,-0.100213 -0.278715,-0.174007 -0.415179,-0.151223 -0.136471,0.0227835 -0.369294,0.0219355 -0.160239,0.152414 0.209061,0.130478 0.172466,0.136976 0.325417,0.147544 0.152944,0.0105625 0.250002,-0.148735 0.250002,-0.148735z"/>
    </g>
    <g>
     <path id="_346279440" class="fil10" d="M2.36543 0.958536c-0.00137799,0.0135554 -0.000804345,0.0172404 -0.00345432,0.0239745 -0.00264997,0.00674029 4.98819e-005,0.00550571 0.0240431,-0.00567406 0.0239932,-0.011186 0.0389328,-0.00745734 0.0698471,-0.037137 0.030908,-0.0296859 0.0719296,-0.0759701 0.0863767,-0.0893509 0.014447,-0.013387 0.0116599,-0.0151703 0.0236191,-0.0292495 0.0119654,-0.0140854 0.02428,-0.0285698 0.0122896,-0.0342564 -0.0119966,-0.00568653 -0.0202271,-0.00278715 -0.0202271,-0.00278715 0,0 -0.110557,0.141758 -0.160208,0.157664 -0.0496449,0.0158998 -0.032286,0.0168164 -0.032286,0.0168164z"/>
     <g>
      <path id="_346277472" class="fil11" d="M2.36406 0.907307c-0.00927179,0.0293866 0.00746981,0.0300663 0.0228085,0.0251093 0.0153449,-0.00495701 0.0540345,-0.0229394 0.0815381,-0.0523385 0.0275036,-0.0293929 0.0286135,-0.0386647 0.0444011,-0.064067 0.0157876,-0.0254023 0.0656882,-0.0484665 0.0318309,-0.046864 -0.0338511,0.00160869 -0.0140542,-0.016567 -0.0603383,0.0172778 -0.0462904,0.0338386 -0.049913,0.0348113 -0.0582745,0.0456294 -0.00836145,0.0108244 -0.0255457,0.03059 -0.0387395,0.0464275 -0.0131937,0.0158375 -0.0232262,0.0288255 -0.0232262,0.0288255z"/>
      <path id="_346278456" class="fil12" d="M2.37619 0.929972c0.00307397,-0.000330467 0.00632876,-0.00112234 0.00952743,-0.00215115 0.0153387,-0.00495701 0.0564351,-0.0196659 0.0839324,-0.0490588 0.0275036,-0.0293929 0.0409779,-0.0418696 0.0567655,-0.0672719 0.0120776,-0.0194352 0.035466,-0.0375361 0.0306524,-0.0442577l-0.00130316 4.98819e-005c-0.0131252,0.000623523 -0.0181819,-0.00172716 -0.02216,-0.00286821 -0.00158375,-0.00014341 -0.00298668,-0.000336702 -0.00423372,-0.000561171 -0.00498819,0.000355408 -0.0121213,0.00474501 -0.0339446,0.020701 -0.0462904,0.0338448 -0.049913,0.0348113 -0.0582745,0.0456357 -0.00836145,0.0108244 -0.0255457,0.03059 -0.0387395,0.0464275 -0.0131937,0.0158375 -0.0232262,0.0288255 -0.0232262,0.0288255 -0.00424619,0.0134681 -0.00303032,0.0209005 0.00100387,0.0245294z"/>
      <path id="_346278048" class="fil13" d="M2.44528 0.899382c0.0187805,-0.0215801 0.0222722,-0.0241054 0.031887,-0.0365509 0.00738875,-0.00956484 0.0568279,-0.0611177 0.0689367,-0.086015 0.00191422,-0.0039282 -0.00827415,-0.00843003 -0.0215801,-0.00717675 -0.0120465,0.00113481 -0.0273228,0.00793745 -0.0262815,0.00676523 0.00470136,-0.00526254 0.0136115,-0.00907226 0.0209566,-0.0110364 0.0125952,-0.00336702 0.025103,-3.74114e-005 0.0263064,-0.000879168 0.030378,-0.000573641 -0.0036289,0.0221226 -0.019086,0.0470012 -0.0157876,0.0254023 -0.0292619,0.037879 -0.0567655,0.0672719 -0.00739498,0.00790627 -0.0157751,0.0147463 -0.0243735,0.0206199z"/>
      <path id="_346277448" class="fil14" d="M2.35995 0.931207c-0.00544336,0.0238248 0.0131439,0.0249222 0.0279588,0.0201336 0.0148149,-0.00478866 0.0560734,-0.0171407 0.083577,-0.0465335 0.0275036,-0.0293929 0.0390388,-0.0488156 0.0556744,-0.0678206 0.0166356,-0.0190112 0.0525817,-0.0576385 0.0332338,-0.0686624 -0.00684005,0.021418 -0.0255956,0.0322299 -0.0371994,0.0482295 -0.01161,0.0159934 -0.024997,0.043896 -0.0525006,0.0732951 -0.0274974,0.0293929 -0.0710255,0.0448874 -0.0839324,0.0490588 -0.0129069,0.00417137 -0.0237562,0.00151516 -0.0268115,-0.00770051z"/>
     </g>
    </g>
    <g>
     <path id="_346277736" class="fil10" d="M5.63604 0.385238c-0.0521764,-0.043921 -0.129824,-0.0846994 -0.200637,-0.0925059 -0.0708135,-0.00780651 -0.188965,-0.0335081 -0.0915768,0.0300164 0.0973818,0.0635183 0.0783706,0.061548 0.155313,0.0815506 0.0769428,0.0200026 0.136901,-0.0190611 0.136901,-0.0190611z"/>
     <path id="_346277592" class="fil15" d="M5.53308 0.347209c-0.0334208,-0.0281271 -0.083153,-0.0542465 -0.128502,-0.0592472 -0.0453551,-0.00500066 -0.121026,-0.0214554 -0.0586548,0.0192232 0.062371,0.0406849 0.0501936,0.0394191 0.0994769,0.0522325 0.049277,0.0128134 0.0876798,-0.0122086 0.0876798,-0.0122086z"/>
     <path id="_346278072" class="fil12" d="M5.60598 0.365927c-0.0410715,-0.0345681 -0.102189,-0.0666733 -0.157926,-0.072815 -0.0557367,-0.0061417 -0.148735,-0.0263688 -0.0720793,0.0236253 0.0766497,0.0499941 0.0616851,0.0484415 0.122248,0.0641917 0.0605628,0.015744 0.107757,-0.015002 0.107757,-0.015002z"/>
    </g>
    <g>
     <path id="_346462800" class="fil16" d="M3.12663 0.939556c-0.0646282,0.118189 -0.0151953,0.182106 0.0370747,0.211886 0.0522762,0.0297795 0.190985,0.0766372 0.310371,0.0242239 0.11938,-0.0524134 0.134313,-0.096247 0.213519,-0.170359 0.0792061,-0.074112 0.257933,-0.0130129 0.15426,-0.126912 -0.103679,-0.113899 -0.0214928,-0.136227 -0.202845,-0.128652 -0.181358,0.00757581 -0.193461,-0.000505054 -0.232113,0.0251654 -0.0386522,0.0256767 -0.115009,0.0656383 -0.174449,0.0997388 -0.0594405,0.0341005 -0.105818,0.0649088 -0.105818,0.0649088z"/>
     <path id="_346275744" class="fil17" d="M3.09984 1.0256c-0.0446068,0.0997949 0.00800604,0.170066 0.0567905,0.197856 0.0487782,0.0277967 0.183447,0.110102 0.298799,0.0594529 0.115352,-0.0506425 0.172311,-0.107252 0.243567,-0.144009 0.0712562,-0.0367505 0.222267,-0.103991 0.179462,-0.226445 -0.0457479,0.0829535 -0.113251,0.071462 -0.166269,0.110738 -0.0530244,0.0392757 -0.125609,0.131725 -0.240967,0.182374 -0.115352,0.0506425 -0.260396,-0.0239059 -0.302889,-0.048111 -0.0424993,-0.0242114 -0.0707636,-0.0752779 -0.068494,-0.131856z"/>
     <path id="_346277304" class="fil18" d="M3.13471 1.10032c0.00963967,0.00935285 0.0204079,0.0170471 0.0313009,0.0232574 0.0522699,0.0297795 0.19409,0.102208 0.31347,0.0497946 0.119386,-0.0524196 0.175459,-0.0681635 0.254666,-0.142269 0.0605877,-0.0566907 0.153486,-0.0656632 0.147445,-0.117715l-0.00397184 -0.00445196c-0.040211,-0.0441766 -0.052457,-0.0745609 -0.0629758,-0.094788 -0.00457666,-0.00644723 -0.0085485,-0.0125016 -0.0120028,-0.0181632 -0.0154384,-0.0161929 -0.0423559,-0.0192731 -0.127866,-0.0157003 -0.181358,0.00757581 -0.193461,-0.000505054 -0.232113,0.0251654 -0.0386522,0.0256767 -0.115009,0.0656383 -0.174449,0.0997388 -0.0594405,0.0341005 -0.105818,0.0649088 -0.105818,0.0649088 -0.0296236,0.0541655 -0.0352727,0.0969142 -0.0276844,0.130223z"/>
     <path id="_346277904" class="fil19" d="M3.38047 1.19182c0.0834087,-0.0436154 0.0970514,-0.0440207 0.141496,-0.0735446 0.0341628,-0.0226838 0.247165,-0.110289 0.314692,-0.195032 0.0106622,-0.0133808 -0.0143036,-0.0733824 -0.0558365,-0.114934 -0.0376047,-0.0376234 -0.0919946,-0.0576572 -0.0873992,-0.0599268 0.0207134,-0.0101884 0.0522388,0.00228833 0.0767557,0.0186745 0.0420379,0.0281084 0.0754401,0.0904046 0.0800978,0.0904046 0.0919447,0.106679 -0.0385711,0.101061 -0.116131,0.173639 -0.0792061,0.0741057 -0.13528,0.0898497 -0.254666,0.142269 -0.0321114,0.0140979 -0.0658378,0.0191546 -0.0990092,0.01845z"/>
    </g>
    <g>
     <path id="_346276800" class="fil20" d="M4.08971 5.27951c0.0437277,-0.0230454 0.0537103,-0.0321738 0.079387,-0.0377044 0.0256704,-0.00553065 0.0165234,-0.0112109 -0.065445,-0.0612424 -0.0819746,-0.0500315 -0.100705,-0.102657 -0.252465,-0.136439 -0.151759,-0.0337762 -0.37397,-0.0647778 -0.443418,-0.0815381 -0.069448,-0.0167665 -0.069236,-0.00476372 -0.13581,-0.0126326 -0.0665798,-0.00786263 -0.135068,-0.0159747 -0.128171,0.0316812 0.00689617,0.0476559 0.032205,0.066692 0.032205,0.066692 0,0 0.650322,0.0493581 0.798066,0.167422 0.14775,0.118064 0.115651,0.0637615 0.115651,0.0637615z"/>
     <g>
      <path id="_346276296" class="fil21" d="M3.9377 5.38656c0.107414,-0.0310078 0.0758391,-0.0829473 0.0300538,-0.119342 -0.0457853,-0.0363888 -0.177816,-0.117179 -0.321856,-0.141247 -0.144046,-0.0240618 -0.174281,-0.00879168 -0.282737,-0.00547453 -0.108462,0.00331714 -0.278353,-0.101135 -0.205519,-0.00207633 0.0728337,0.0990591 -0.0218233,0.0757456 0.173371,0.147625 0.1952,0.0718797 0.205407,0.0808897 0.254896,0.0844126 0.049489,0.00352291 0.143722,0.0157564 0.218065,0.0238123 0.0743427,0.00806215 0.133727,0.0122896 0.133727,0.0122896z"/>
      <path id="_346275960" class="fil22" d="M3.75067 5.15707c-0.102931,-0.0133808 -0.117565,-0.018874 -0.174468,-0.0229269 -0.0437401,-0.00311138 -0.298792,-0.0489466 -0.398325,-0.0355471 -0.015719,0.00211998 -0.00886026,0.0419382 0.021655,0.0796239 0.0276221,0.0341192 0.0788507,0.0666172 0.0732266,0.0658066 -0.0253525,-0.00363514 -0.0547578,-0.0228895 -0.0754401,-0.0411463 -0.0354535,-0.0313009 -0.0505303,-0.0757705 -0.0554811,-0.0777097 -0.0627327,-0.0906291 0.0741182,-0.0334707 0.180323,-0.0367255 0.108456,-0.00331714 0.173208,0.0123333 0.317249,0.0364013 0.0387457,0.00647217 0.0762382,0.018051 0.111261,0.0322237z"/>
      <path id="_346275720" class="fil23" d="M4.01818 5.35096c0.0829161,-0.0313944 0.0488904,-0.0897437 0.00467642,-0.124892 -0.0442203,-0.0351418 -0.164392,-0.134999 -0.308438,-0.159067 -0.14404,-0.0240618 -0.225884,-0.0199091 -0.316719,-0.0319992 -0.0908286,-0.0120901 -0.279712,-0.0431166 -0.274182,0.0374862 0.0784517,-0.0223595 0.148785,0.0125952 0.220422,0.0155382 0.0716303,0.00294303 0.182829,-0.0126575 0.32687,0.0114105 0.14404,0.0240618 0.27826,0.124461 0.316781,0.155076 0.0385213,0.030615 0.0522824,0.0687185 0.03059,0.0964466z"/>
     </g>
    </g>
    <g>
     <path id="_346276464" class="fil17" d="M6.39117 4.18449c0.0513347,-0.11484 -0.00920944,-0.195699 -0.0653452,-0.227679 -0.0561296,-0.0319805 -0.211094,-0.126694 -0.343829,-0.068413 -0.132742,0.0582807 -0.19828,0.12342 -0.280274,0.165714 -0.0819995,0.0422936 -0.255769,0.119667 -0.206511,0.260577 0.0526441,-0.0954614 0.130316,-0.0822302 0.191328,-0.127429 0.0610117,-0.045193 0.144539,-0.151578 0.277281,-0.209859 0.132736,-0.0582807 0.29964,0.0275098 0.348537,0.0553626 0.0489029,0.027859 0.0814259,0.0866198 0.0788133,0.151728z"/>
     <path id="_346276128" class="fil24" d="M6.35106 4.09852c-0.0110925,-0.0107682 -0.0234819,-0.019616 -0.0360147,-0.0267616 -0.0601575,-0.0342688 -0.223346,-0.117615 -0.360721,-0.0573018 -0.137375,0.0603196 -0.201903,0.078433 -0.293043,0.163712 -0.0697161,0.065233 -0.176619,0.0755585 -0.169667,0.135454l0.00457666 0.00511912c0.0462654,0.0508358 0.0603633,0.085803 0.0724596,0.109079 0.00526877,0.00741993 0.0098392,0.0143784 0.0138173,0.0208943 0.0177642,0.0186371 0.0487346,0.0221787 0.147139,0.0180697 0.208687,-0.00871685 0.22261,0.000586112 0.267092,-0.0289564 0.0444759,-0.0295425 0.132337,-0.0755274 0.200731,-0.114772 0.0684005,-0.0392383 0.121774,-0.0746918 0.121774,-0.0746918 0.0340818,-0.0623274 0.0405851,-0.111517 0.0318558,-0.149845z"/>
     <path id="_346462944" class="fil19" d="M6.06826 3.99323c-0.0959789,0.0501811 -0.111685,0.0506488 -0.162827,0.0846183 -0.0393069,0.0261131 -0.284414,0.126918 -0.362117,0.224431 -0.0122647,0.0153948 0.016461,0.0844375 0.0642541,0.132249 0.0432725,0.0432974 0.105862,0.0663553 0.100568,0.0689617 -0.0238311,0.0117285 -0.0601076,-0.00263127 -0.0883221,-0.0214866 -0.0483729,-0.0323421 -0.0868131,-0.104029 -0.0921692,-0.104029 -0.105806,-0.122753 0.0443824,-0.116293 0.133633,-0.199808 0.0911404,-0.0852793 0.155669,-0.103393 0.293043,-0.163712 0.03695,-0.0162178 0.0757581,-0.0220415 0.113936,-0.0212247z"/>
    </g>
   </g>
   <path class="fil25" d="M8.34835 1.48545c-0.606046,1.92212 -6.71413,3.81364 -8.08392,2.63141 0.63257,1.84876 8.46213,-0.611127 8.08392,-2.63141z"/>
   <g>
    <path class="fil26" d="M8.66836 1.42934c-0.647417,2.05332 -7.17244,4.07396 -8.63573,2.81103 0.675749,1.97496 9.03976,-0.652841 8.63573,-2.81103z"/>
    <path id="1" class="fil2" d="M0.0296423 4.24158l0.00483854 -0.00412772 0.151211 0.108537 0.178939 0.0900305 0.204653 0.072073 0.228372 0.054658 0.250064 0.0378416 0.269742 0.0215988 0.287413 0.00593594 0.30307 -0.00912214 0.316725 -0.0236066 0.328366 -0.03748 0.338012 -0.050761 0.345631 -0.0634559 0.351262 -0.0755523 0.354891 -0.0870501 0.356506 -0.0979555 0.356119 -0.108262 0.353737 -0.117971 0.349329 -0.127099 0.342938 -0.135616 0.334539 -0.143541 0.324126 -0.150874 0.311718 -0.157608 0.297302 -0.163743 0.280885 -0.16928 0.262453 -0.174219 0.242027 -0.178558 0.21958 -0.182299 0.195144 -0.18543 0.168694 -0.187942 0.140237 -0.18985 0.109802 -0.191129 0.0773668 -0.191783 0.00606064 0.00280585 -0.0777907 0.192831 -0.110239 0.191902 -0.140661 0.190424 -0.169068 0.188366 -0.195468 0.185741 -0.219879 0.182536 -0.242276 0.178758 -0.26269 0.174368 -0.281084 0.169405 -0.297489 0.163843 -0.311893 0.157695 -0.324288 0.150949 -0.334689 0.143604 -0.343087 0.135679 -0.349478 0.127149 -0.353874 0.11802 -0.356256 0.108312 -0.356655 0.0979929 -0.35504 0.0870875 -0.351424 0.0755772 -0.345806 0.0634934 -0.338186 0.050786 -0.328578 0.0375049 -0.316949 0.0236191 -0.303332 0.00913461 -0.287725 -0.00594841 -0.270104 -0.0216238 -0.2505 -0.037904 -0.228908 -0.0547952 -0.205314 -0.0722975 -0.179737 -0.090442 -0.152146 -0.109223 0.00483854 -0.00412772 -0.00597335 0.00241927zm8.63569 -2.81364l0.00617288 0.000785639 0.0127635 0.204578 -0.0358214 0.206255 -0.08127 0.206916 -0.123613 0.206685 -0.16292 0.205576 -0.199191 0.203593 -0.232462 0.200706 -0.262715 0.196927 -0.289963 0.192213 -0.314212 0.186589 -0.335431 0.180042 -0.353656 0.17256 -0.368864 0.164167 -0.381066 0.154839 -0.390251 0.144583 -0.396424 0.133397 -0.399591 0.121288 -0.399747 0.108244 -0.396885 0.0942892 -0.391011 0.0793807 -0.382132 0.0635557 -0.370248 0.0468016 -0.35534 0.0291123 -0.337438 0.0105064 -0.316525 -0.00905356 -0.292607 -0.0295363 -0.265702 -0.0509605 -0.235798 -0.073345 -0.202901 -0.0967147 -0.166986 -0.121082 -0.128009 -0.146472 -0.0858467 -0.172784 0.00597335 -0.00241927 0.0848989 0.170864 0.126812 0.145088 0.165876 0.120259 0.201978 0.0962657 0.235074 0.0731206 0.265128 0.0508483 0.292158 0.0294864 0.316164 0.00904109 0.337126 -0.0104939 0.35509 -0.0290998 0.370011 -0.0467642 0.381933 -0.0635308 0.390824 -0.0793433 0.39671 -0.0942393 0.399585 -0.108206 0.399429 -0.121238 0.396274 -0.133347 0.390089 -0.14452 0.380892 -0.154765 0.368689 -0.164093 0.353469 -0.172473 0.335231 -0.17993 0.313975 -0.186452 0.289701 -0.192039 0.262416 -0.19669 0.2321 -0.200407 0.198779 -0.203156 0.162434 -0.204965 0.12309 -0.205788 0.0807712 -0.205619 0.0355221 -0.204497 -0.0126263 -0.20252 0.00617288 0.000785639 -0.00606064 -0.00280585z"/>
   </g>
  </g>
 </g>
</svg>
