<?xml version="1.0" encoding="UTF-8" standalone="no"?>
<!-- Created with Inkscape (http://www.inkscape.org/) -->

<svg
   xmlns:dc="http://purl.org/dc/elements/1.1/"
   xmlns:cc="http://creativecommons.org/ns#"
   xmlns:rdf="http://www.w3.org/1999/02/22-rdf-syntax-ns#"
   xmlns:svg="http://www.w3.org/2000/svg"
   xmlns="http://www.w3.org/2000/svg"
   xmlns:xlink="http://www.w3.org/1999/xlink"
   xmlns:sodipodi="http://sodipodi.sourceforge.net/DTD/sodipodi-0.dtd"
   xmlns:inkscape="http://www.inkscape.org/namespaces/inkscape"
   version="1.1"
   width="3.0808301in"
   height="3.31074in"
   viewBox=""
   id="svg3809"
   xml:space="preserve"
   style="fill-rule:evenodd"
   inkscape:version="0.48.3.1 r9886"
   sodipodi:docname="player3.svg"><sodipodi:namedview
   pagecolor="#ffffff"
   bordercolor="#666666"
   borderopacity="1"
   objecttolerance="10"
   gridtolerance="10"
   guidetolerance="10"
   inkscape:pageopacity="0"
   inkscape:pageshadow="2"
   inkscape:window-width="725"
   inkscape:window-height="480"
   id="namedview3574"
   showgrid="false"
   inkscape:zoom="1.0055132"
   inkscape:cx="138.63736"
   inkscape:cy="143.84333"
   inkscape:window-x="0"
   inkscape:window-y="0"
   inkscape:window-maximized="0"
   inkscape:current-layer="svg3809" />
  <metadata
     id="metadata3960">
    <rdf:RDF>
      <cc:Work
         rdf:about="">
        <dc:format>image/svg+xml</dc:format>
        <dc:type
           rdf:resource="http://purl.org/dc/dcmitype/StillImage" />
        <dc:title></dc:title>
        <cc:license
           rdf:resource="http://www.gnu.org/licenses/gpl-3.0.html" />
        <dc:creator>
          <cc:Agent>
            <dc:title>Abhash Bikram Thapa</dc:title>
          </cc:Agent>
        </dc:creator>
        <dc:description>http://pixelpinch.com</dc:description>
      </cc:Work>
    </rdf:RDF>
  </metadata>
 <defs
   id="defs3811">
  <style
   type="text/css"
   id="style3813" />
  <linearGradient
   x1="0.084650002"
   y1="0.10559"
   x2="0.083152197"
   y2="0.090529002"
   id="id0"
   gradientUnits="userSpaceOnUse">
   <stop
   id="stop3816"
   style="stop-color:#000000;stop-opacity:1"
   offset="0" />
   <stop
   id="stop3818"
   style="stop-color:#171717;stop-opacity:1"
   offset="1" />
  </linearGradient>
  <linearGradient
   x1="0.079484001"
   y1="0.105153"
   x2="0.087160602"
   y2="0.084642299"
   id="id1"
   gradientUnits="userSpaceOnUse">
   <stop
   id="stop3821"
   style="stop-color:#edda41;stop-opacity:1"
   offset="0" />
   <stop
   id="stop3823"
   style="stop-color:#ccb713;stop-opacity:1"
   offset="1" />
  </linearGradient>
  <linearGradient
   x1="0.120193"
   y1="0.103045"
   x2="0.10868"
   y2="0.0856013"
   id="id2"
   xlink:href="#id1"
   gradientUnits="userSpaceOnUse">
  </linearGradient>
  <linearGradient
   x1="0.115168"
   y1="0.101282"
   x2="0.113629"
   y2="0.087955803"
   id="id3"
   xlink:href="#id0"
   gradientUnits="userSpaceOnUse">
  </linearGradient>
  <linearGradient
   x1="0.083425999"
   y1="0.187243"
   x2="0.113256"
   y2="0.17690399"
   id="id4"
   gradientUnits="userSpaceOnUse">
   <stop
   id="stop3828"
   style="stop-color:#edda41;stop-opacity:1"
   offset="0" />
   <stop
   id="stop3830"
   style="stop-color:#f0e35d;stop-opacity:1"
   offset="1" />
  </linearGradient>
  <linearGradient
   x1="0.102303"
   y1="0.127664"
   x2="0.101898"
   y2="0.12387"
   id="id5"
   xlink:href="#id1"
   gradientUnits="userSpaceOnUse">
  </linearGradient>
  <linearGradient
   x1="0.099913403"
   y1="0.111884"
   x2="0.100541"
   y2="0.117774"
   id="id6"
   xlink:href="#id1"
   gradientUnits="userSpaceOnUse">
  </linearGradient>
  <linearGradient
   x1="0.089589097"
   y1="0.162517"
   x2="0.091708504"
   y2="0.176039"
   id="id7"
   gradientUnits="userSpaceOnUse">
   <stop
   id="stop3835"
   style="stop-color:#847f0d;stop-opacity:1"
   offset="0" />
   <stop
   id="stop3837"
   style="stop-color:#edda41;stop-opacity:1"
   offset="1" />
  </linearGradient>
  <linearGradient
   x1="0.117124"
   y1="0.079076499"
   x2="0.095261797"
   y2="0.081730798"
   id="id8"
   gradientUnits="userSpaceOnUse">
   <stop
   id="stop3840"
   style="stop-color:#f2e676;stop-opacity:1"
   offset="0" />
   <stop
   id="stop3842"
   style="stop-color:#edda41;stop-opacity:1"
   offset="1" />
  </linearGradient>
  <linearGradient
   x1="0.083696097"
   y1="0.084391698"
   x2="0.101385"
   y2="0.082107"
   id="id9"
   xlink:href="#id4"
   gradientUnits="userSpaceOnUse">
  </linearGradient>
  <radialGradient
   cx="0.102989"
   cy="0.118361"
   r="0.143003"
   fx="0.102989"
   fy="0.118361"
   id="id10"
   gradientUnits="userSpaceOnUse">
   <stop
   id="stop3846"
   style="stop-color:#000000;stop-opacity:1"
   offset="0" />
   <stop
   id="stop3848"
   style="stop-color:#808080;stop-opacity:1"
   offset="0.70196098" />
   <stop
   id="stop3850"
   style="stop-color:#ffffff;stop-opacity:1"
   offset="1" />
  </radialGradient>
  <radialGradient
   cx="0.102989"
   cy="0.118361"
   r="0.143003"
   fx="0.102989"
   fy="0.118361"
   id="id11"
   gradientUnits="userSpaceOnUse">
   <stop
   id="stop3853"
   style="stop-color:#cc3399;stop-opacity:1"
   offset="0" />
   <stop
   id="stop3855"
   style="stop-color:#000066;stop-opacity:1"
   offset="1" />
  </radialGradient>
 <linearGradient
   inkscape:collect="always"
   xlink:href="#id4"
   id="linearGradient3576"
   gradientUnits="userSpaceOnUse"
   x1="0.083425999"
   y1="0.187243"
   x2="0.113256"
   y2="0.17690399" /><linearGradient
   inkscape:collect="always"
   xlink:href="#id1"
   id="linearGradient3578"
   gradientUnits="userSpaceOnUse"
   x1="0.079484001"
   y1="0.105153"
   x2="0.087160602"
   y2="0.084642299" /><linearGradient
   inkscape:collect="always"
   xlink:href="#id0"
   id="linearGradient3580"
   gradientUnits="userSpaceOnUse"
   x1="0.084650002"
   y1="0.10559"
   x2="0.083152197"
   y2="0.090529002" /></defs>
 <g
   id="Layer_x0020_1"
   transform="matrix(1348.7567,0,0,1344.3648,-0.07034195,0.07042394)">
  <metadata
   id="CorelCorpID_0Corel-Layer" />
  <g
   id="_358879016">
   <circle
   cx="0.10299"
   cy="0.118361"
   r="0.102889"
   id="_357141208"
   style="fill:url(#id10);stroke:#808080;stroke-width:0.00020057"
   sodipodi:cx="0.10299"
   sodipodi:cy="0.118361"
   sodipodi:rx="0.102889"
   sodipodi:ry="0.102889"
   d="m 0.205879,0.118361 c 0,0.056824 -0.046065,0.10288901 -0.102889,0.10288901 -0.05682402,0 -0.10288899993,-0.046065 -0.10288899993,-0.10288901 0,-0.05682402 0.0460649799,-0.102889 0.10288899993,-0.102889 0.056824,0 0.102889,0.04606498 0.102889,0.102889 z" />
   <circle
   cx="0.10299"
   cy="0.118361"
   r="0.097927302"
   id="_357140648"
   style="fill:url(#id11)"
   sodipodi:cx="0.10299"
   sodipodi:cy="0.118361"
   sodipodi:rx="0.097927302"
   sodipodi:ry="0.097927302"
   d="m 0.2009173,0.118361 c 0,0.0540838 -0.0438435,0.0979273 -0.0979273,0.0979273 -0.05408375,0 -0.0979273,-0.0438436 -0.0979273,-0.0979273 0,-0.05408375 0.04384355,-0.0979273 0.0979273,-0.0979273 0.0540838,0 0.0979273,0.04384355 0.0979273,0.0979273 z" />
   <g
   id="g3862">
    <path
   d="M 0.0579904,0.205353 C 0.0659755,0.1942782 0.0785733,0.178487 0.0868316,0.1763949 0.0883907,0.17599902 0.0896425,0.17594953 0.0915451,0.1749499 0.0932666,0.1722319 0.0947991,0.1725509 0.0935324,0.1602053 0.0922663,0.1478592 0.1056403,0.1543023 0.1056403,0.1543023 c 0,0 2.2558e-4,0.0139244 0.004525,0.0193555 0.001901,4.7222e-4 0.005588,0.00128 0.007072,0.001937 0.0114957,0.005091 0.0184424,0.0237926 0.0214549,0.0339759 -0.003206,0.001256 -0.006492,0.002351 -0.009852,0.003268 -0.002143,-0.006772 -0.007321,-0.0211928 -0.0118323,-0.0216397 -1.5188e-4,0.01198 0.001146,0.0160118 0.001656,0.0238366 -0.005104,8.2125e-4 -0.0103388,0.001252 -0.0156743,0.001252 -0.0067624,0 -0.0133643,-6.8727e-4 -0.0197403,-0.001993 -1.2029e-4,-0.003551 -3.2403e-4,-0.0109766 -8.686e-5,-0.0150065 2.5216e-4,-0.004286 -0.0096552,0.002648 -0.0150047,0.010621 -0.0034893,-0.001329 -0.0068819,-0.002853 -0.0101672,-0.004556 z"
   id="_357141744"
   style="fill:url(#linearGradient3576)"
   inkscape:connector-curvature="0" />
    <path
   d="M 0.128805,0.212849 C 0.126734,0.20636 0.12188,0.1928102 0.1170082,0.1911995 c -1.5188e-4,0.01198 0.001146,0.0160118 0.001656,0.0238366 -0.001319,2.1216e-4 -0.002647,3.9773e-4 -0.003983,5.5698e-4 -5.3987e-4,-0.008303 -5.3671e-4,-0.0214923 1.1055e-4,-0.026205 6.3094e-4,-0.004597 0.009048,-0.001976 0.0166804,0.0226881 -8.8416e-4,2.6848e-4 -0.001772,5.2881e-4 -0.002667,7.7282e-4 z"
   id="_357141528"
   style="fill:#ebd62e"
   inkscape:connector-curvature="0" />
    <path
   d="m 0.0832491,0.214295 c -1.2029e-4,-0.003551 -3.2403e-4,-0.0109766 -8.686e-5,-0.0150065 2.5216e-4,-0.004286 -0.0096552,0.002648 -0.0150047,0.010621 -9.2417e-4,-3.5193e-4 -0.001841,-7.1912e-4 -0.0027515,-0.001098 0.0068135,-0.009378 0.0160707,-0.0184095 0.0181923,-0.0140294 0.0025617,0.005288 0.0013324,0.0102175 0.0016472,0.0198996 -6.678e-4,-1.224e-4 -0.0013335,-2.5085e-4 -0.0019965,-3.8667e-4 z"
   id="_357142016"
   style="fill:#ebd62e"
   inkscape:connector-curvature="0" />
    <path
   d="M 0.0694587,0.190696 C 0.0755328,0.183675 0.0819422,0.1776339 0.0868316,0.1763949 0.0883907,0.17599901 0.0896425,0.17594953 0.0915451,0.1749499 0.0932666,0.1722319 0.0947991,0.1725509 0.0935324,0.1602053 0.0922663,0.1478592 0.1056403,0.1543023 0.1056403,0.1543023 c 0,0 -7.8256e-4,0.0123722 0.003516,0.0178038 2.4585e-4,5.1802e-4 0.001184,0.00192 0.002682,0.002023 -0.002065,0.001992 -0.002338,0.001803 -0.008559,0.003266 -0.0062212,0.001464 -0.0229603,0.004279 -0.0288428,0.009316 -0.0014053,0.001204 -0.0031455,0.002582 -0.0049786,0.003984 z"
   id="_357142208"
   style="fill:url(#id7)"
   inkscape:connector-curvature="0" />
    <path
   d="M 0.0579904,0.205353 C 0.0659755,0.1942782 0.0785733,0.178487 0.0868316,0.1763949 0.0883907,0.17599902 0.0896425,0.17594953 0.0915451,0.1749499 0.0932666,0.1722319 0.0947991,0.1725509 0.0935324,0.1602053 0.09287329,0.1537753 0.0961846,0.1524433 0.0995091,0.1526403 0.0966276,0.1528285 0.0932202,0.15259266 0.0941438,0.1616003 0.09506744,0.1706083 0.09383794,0.172271 0.092117,0.1749893 0.0902139,0.17598875 0.0895598,0.1759983 0.088001,0.1763943 0.0796327,0.1785143 0.0668088,0.1947014 0.0588437,0.205793 0.05855784,0.20564823 0.05827461,0.20549977 0.05799034,0.20535237 z m 0.0252853,0.008946 c -8.844e-5,-0.003967 -2.5875e-4,-0.0126854 -1.1345e-4,-0.0150118 2.632e-5,-4.1852e-4 3.1534e-4,0.001243 4.4063e-4,0.004485 3.501e-5,9.089e-4 -3.3824e-4,0.004927 3.2008e-4,0.0106544 -2.1584e-4,-4.264e-5 -4.3195e-4,-8.37e-5 -6.4726e-4,-1.2766e-4 z"
   id="_357141424"
   style="fill:#fff6bd"
   inkscape:connector-curvature="0" />
    <path
   d="m 0.0824894,4.50372e-4 2.6e-7,0 c 0.0204397,-0.002480862 0.0391934,0.012213498 0.0416746,0.032653998 0.003692,0.0304203 0.002937,0.057739 0.0110761,0.0912634 0.002486,0.0204836 -0.0122345,0.0391961 -0.0327048,0.0416809 -0.0204407,0.002481 -0.0391426,-0.0122198 -0.0416232,-0.0326598 -9.6181e-4,-0.0339061 -0.0060915,-0.0624928 -0.0110769,-0.0912642 -0.0024806,-0.0204402 0.0122132,-0.0391932 0.032654,-0.041674298 z"
   id="_357141992"
   style="fill:url(#id9)"
   inkscape:connector-curvature="0" />
    <path
   d="m 0.0824868,4.50899e-4 0,0 C 0.079614,7.99404e-4 0.07685491,0.00146983 0.07424138,0.00242059 c 0.0287454,-0.0102522 0.0380542,0.0142974 0.0401868,0.0318653 8.7916e-4,0.0125551 0.001726,0.0250853 0.002979,0.0379321 0.001057,0.0108424 -9.8076e-4,0.009357 0.00567,0.0189335 0.002236,0.0032174 0.003681,0.0185756 0.004001,0.0209259 0.001667,0.0122356 -6.4095e-4,0.0152468 -4.2194e-4,0.018356 1.1529e-4,0.001635 6.7358e-4,0.003274 8.2546e-4,0.003907 0.002133,0.0175714 -0.0124446,0.0293374 -0.0333352,0.031759 0.0237402,0.00254 0.043998,-0.0177867 0.0410918,-0.0417317 C 0.1280603,0.09121599 0.1262033,0.06223209 0.1241614,0.03310449 0.1216814,0.01266379 0.102927,-0.00203011 0.0824866,4.50789e-4 z"
   id="_356688984"
   style="fill:url(#id8)"
   inkscape:connector-curvature="0" />
    <path
   d="m 0.0824894,4.50372e-4 2.6e-7,0 C 0.08536193,1.01867e-4 0.08820078,9.2127e-5 0.09096671,3.903575e-4 0.07498181,0.00620598 0.06442661,0.02252726 0.06655841,0.04009526 c 0.0021495,0.012402 0.0043253,0.0247697 0.006182,0.0375441 0.0015678,0.0107805 -0.0037985,0.0096987 -0.0079664,0.0205884 -0.0013998,0.003659 8.6995e-4,0.0189167 0.0011213,0.0212759 0.0013079,0.0122788 0.0070191,0.0147986 0.0075508,0.0178701 2.7902e-4,0.001615 1.2925e-4,0.00334 1.3319e-4,0.003991 0.0021321,0.0175711 0.0163508,0.0253601 0.0372143,0.0227142 C 0.0883503,0.17222396 0.0638185,0.15733396 0.0609123,0.13338886 0.05995049,0.09948276 0.0548208,0.07089606 0.0498354,0.04212466 0.0473548,0.02168446 0.0620486,0.00293146 0.0824894,4.503575e-4 z"
   id="_358099680"
   style="fill:#ebd62e"
   inkscape:connector-curvature="0" />
    <g
   id="g3872">
     <path
   d="M 0.127977,0.0761295 C 0.121777,0.0737023 0.0982516,0.0741164 0.1005246,0.0979851 0.1021406,0.1149442 0.1306211,0.1031845 0.127977,0.0761295 z"
   id="_358101072"
   style="fill:url(#id2)"
   inkscape:connector-curvature="0" />
     <path
   d="M 0.127977,0.0775775 C 0.12217033,0.0763293 0.103047,0.08332179 0.1019312,0.0981459 0.1008204,0.1129087 0.1278899,0.1006294 0.127977,0.0775775 z"
   id="_358100352"
   style="fill:url(#id3)"
   inkscape:connector-curvature="0" />
     <path
   d="M 0.114702,0.0823955 C 0.112954,0.08328493 0.107398,0.087507 0.107334,0.0894369 0.10727083,0.0913584 0.115092,0.0851032 0.114702,0.0823955 z"
   id="_358100832"
   style="fill:#beffcd"
   inkscape:connector-curvature="0" />
     <g
   id="g3877">
      <path
   d="M 0.0667001,0.0845957 C 0.07221091,0.08054998 0.0951399,0.074547 0.0979482,0.0983406 0.09994447,0.1152479 0.0698185,0.1115843 0.0667001,0.0845957 z"
   id="_358100664"
   style="fill:url(#linearGradient3578)"
   inkscape:connector-curvature="0" />
      <path
   d="M 0.0670046,0.0860014 C 0.07238064,0.0832073 0.0924184,0.08478979 0.096616,0.0988795 0.1007978,0.1129118 0.071934,0.10836048 0.0670046,0.0860014 z"
   id="_358099824"
   style="fill:url(#linearGradient3580)"
   inkscape:connector-curvature="0" />
      <path
   d="M 0.080907,0.0870656 C 0.0827903,0.08745201 0.0890724,0.0900392 0.0895404,0.0918954 0.09000551,0.0937445 0.0810963,0.0898007 0.080907,0.0870656 z"
   id="_358100952"
   style="fill:#beffcd"
   inkscape:connector-curvature="0" />
     </g>
    </g>
    <path
   d="M 0.0889223,2.29529e-4 C 0.08025915,0.00186835 0.0708685,0.00441844 0.0614836,0.01727393 c -0.0101648,0.0139244 -0.0077158,0.0313049 -0.0048248,0.0536267 0.002891,0.0223209 0.0014356,0.0166017 8.8811e-4,0.0200167 -0.0021202,-0.0168383 -0.0049378,-0.0327871 -0.0077113,-0.0487926 -0.0024806,-0.0204402 0.0122132,-0.0391932 0.032654,-0.041674301 l 2.6e-7,0 c 0.002169,-2.62958e-4 0.0043195,-3.31396e-4 0.0064326,-2.20843e-4 z"
   id="_358101096"
   style="fill:#847f0d"
   inkscape:connector-curvature="0" />
    <g
   id="g3883">
     <path
   d="M 0.120174,0.116556 C 0.126106,0.11573685 0.125856,0.111437 0.125856,0.111437 0.12553697,0.11154703 0.127607,0.107114 0.1002277,0.11076499 c -0.0273798,0.00365 -0.0240524,0.007536 -0.0240524,0.007536 0,0 6.5963e-4,0.004244 0.0065932,0.003424 0.0176306,-0.002436 0.0197743,-0.002732 0.0374051,-0.005168 z"
   id="_358105464"
   style="fill:url(#id6)"
   inkscape:connector-curvature="0" />
     <path
   d="m 0.0761284,0.117866 c 0,0 6.6042e-4,0.004244 0.0065932,0.003424 0.005933,-8.1967e-4 0.0247055,-0.003413 0.0247055,-0.003413 M 0.1258092,0.111002 c 0,0 2.5138e-4,0.0043 -0.005681,0.005119 -0.005933,8.1915e-4 -0.024706,0.003413 -0.024706,0.003413"
   id="_358093224"
   style="fill:none"
   inkscape:connector-curvature="0" />
     <path
   d="M 0.0826755,0.120856 0.095461,0.119452 0.107466,0.117794 0.1200809,0.115688 c 0.004081,-6.5016e-4 0.005016,-0.00181 0.006108,-0.004704 2.6e-7,1.342e-5 2.7085e-4,0.004704 -0.006015,0.005572 -0.004193,9.655e-4 -0.008386,0.00193 -0.0125791,0.002895 C 0.1038008,0.120706 0.0998034,0.121273 0.0955906,0.12111 l -0.0128218,6.1489e-4 c -0.0062865,8.6889e-4 -0.0069243,-0.003408 -0.0069261,-0.003421 0.0012603,0.002333 0.0023013,0.003138 0.0068332,0.002553 z"
   id="_358102800"
   style="fill:#3f5c0a;fill-rule:nonzero"
   inkscape:connector-curvature="0" />
     <path
   d="M 0.110145,0.121334 C 0.112784,0.1209697 0.113331,0.125229 0.113331,0.125229 0.11317938,0.12518294 0.106772,0.129107 0.1024555,0.129836 0.0981387,0.13056433 0.0912354,0.128281 0.0912354,0.128281 c 0,0 -3.6456e-4,-0.004284 0.0022742,-0.004648 C 0.1013507,0.12255 0.1023038,0.122418 0.1101455,0.121335 z"
   id="_358097328"
   style="fill:url(#id5)"
   inkscape:connector-curvature="0" />
    </g>
    <g
   id="g3889">
     <g
   id="g3891">
      <path
   d="M 0.104578,0.107152 C 0.10386599,0.1069988 0.101523,0.10785612 0.101386,0.109673 0.10124939,0.111482 0.104567,0.10997755 0.104578,0.107152 z"
   id="_358104264"
   style="fill:#ccb713"
   inkscape:connector-curvature="0" />
      <path
   d="m 0.103221,0.108148 c -8.42e-6,-0.001023 -0.001778,5.2144e-4 -0.001746,0.001585 4.659e-5,0.001558 0.001756,-5.5961e-4 0.001746,-0.001585 z"
   id="_358094112"
   style="fill:#ae9c10"
   inkscape:connector-curvature="0" />
     </g>
     <g
   id="g3895">
      <path
   d="M 0.0958856,0.108353 C 0.09654444,0.10801055 0.0990006,0.10820428 0.0995149,0.109931 0.10002739,0.111651 0.09649,0.111093 0.0958856,0.108353 z"
   id="_358096296"
   style="fill:#ccb713"
   inkscape:connector-curvature="0" />
      <path
   d="m 0.0974125,0.108951 c -2.0689e-4,-9.9682e-4 0.001837,2.106e-5 0.0020292,0.001063 2.8191e-4,0.001525 -0.0018223,-6.581e-5 -0.0020292,-0.001063 z"
   id="_358093320"
   style="fill:#ae9c10"
   inkscape:connector-curvature="0" />
     </g>
    </g>
    <path
   d="m 0.134983,0.123295 c 8.528e-5,3.5693e-4 1.6978e-4,7.1412e-4 2.5717e-4,0.001073 0.002486,0.0204836 -0.0122345,0.0391961 -0.0327048,0.0416809 -0.0204407,0.002481 -0.0391426,-0.0122198 -0.0416232,-0.0326598 -1.211e-5,-4.1642e-4 -2.474e-5,-8.3152e-4 -3.817e-5,-0.001246 0.0037996,0.0189254 0.0220251,0.0348956 0.0414948,0.0325326 0.019451,-0.00236 0.033376,-0.022118 0.0326142,-0.0413805 z"
   id="_358097064"
   style="fill:#ccb713"
   inkscape:connector-curvature="0" />
    <path
   d="M 0.0836984,3.25868e-4 C 0.0623964,0.00300152 0.0482606,0.02198507 0.0506925,0.04202047 c 0.0049852,0.0287712 0.0105934,0.0572999 0.0115554,0.0912066 0.0024319,0.020037 0.0191481,0.035999 0.0414927,0.0326526 C 0.0829085,0.16909176 0.0634511,0.15430717 0.0609123,0.13338887 0.05995049,0.09948277 0.05482083,0.07089607 0.0498354,0.04212467 0.047294,0.02118437 0.0627309,0.00218707 0.0836983,3.25868e-4 z"
   id="_358093344"
   style="fill:#fff6bd"
   inkscape:connector-curvature="0" />
   </g>
  </g>
 </g>
</svg>
