<?xml version="1.0" encoding="UTF-8" standalone="no"?>
<!-- Creator: CorelDRAW -->

<svg
   xmlns:dc="http://purl.org/dc/elements/1.1/"
   xmlns:cc="http://creativecommons.org/ns#"
   xmlns:rdf="http://www.w3.org/1999/02/22-rdf-syntax-ns#"
   xmlns:svg="http://www.w3.org/2000/svg"
   xmlns="http://www.w3.org/2000/svg"
   xmlns:xlink="http://www.w3.org/1999/xlink"
   xmlns:sodipodi="http://sodipodi.sourceforge.net/DTD/sodipodi-0.dtd"
   xmlns:inkscape="http://www.inkscape.org/namespaces/inkscape"
   xml:space="preserve"
   width="3.4269099in"
   height="3.0808301in"
   style="fill-rule:evenodd"
   viewBox=""
   id="svg8457"
   version="1.1"
   inkscape:version="0.48.3.1 r9886"
   sodipodi:docname="player12.svg">
  <metadata
     id="metadata3960">
    <rdf:RDF>
      <cc:Work
         rdf:about="">
        <dc:format>image/svg+xml</dc:format>
        <dc:type
           rdf:resource="http://purl.org/dc/dcmitype/StillImage" />
        <dc:title></dc:title>
        <cc:license
           rdf:resource="http://www.gnu.org/licenses/gpl-3.0.html" />
        <dc:creator>
          <cc:Agent>
            <dc:title>Abhash Bikram Thapa</dc:title>
          </cc:Agent>
        </dc:creator>
        <dc:description>http://pixelpinch.com</dc:description>
      </cc:Work>
    </rdf:RDF>
  </metadata>
   pagecolor="#ffffff"
   bordercolor="#666666"
   borderopacity="1"
   objecttolerance="10"
   gridtolerance="10"
   guidetolerance="10"
   inkscape:pageopacity="0"
   inkscape:pageshadow="2"
   inkscape:window-width="640"
   inkscape:window-height="480"
   id="namedview8799"
   showgrid="false"
   inkscape:zoom="1.0805506"
   inkscape:cx="165.53313"
   inkscape:cy="138.35539"
   inkscape:window-x="0"
   inkscape:window-y="0"
   inkscape:window-maximized="0"
   inkscape:current-layer="svg8457" />
 <defs
   id="defs8459">
  <style
   type="text/css"
   id="style8461">
   
    .str0 {stroke:gray;stroke-width:0.00400108}
    .str1 {stroke:#99CCCC;stroke-width:0.00400108}
    .str2 {stroke:white;stroke-width:0.00400108}
    .str5 {stroke:#912783;stroke-width:0.00926235}
    .str3 {stroke:#D273D9;stroke-width:0.00926235}
    .str4 {stroke:#FF99FF;stroke-width:0.00926235}
    .fil37 {fill:none}
    .fil57 {fill:#FEFEFE}
    .fil56 {fill:black}
    .fil5 {fill:#003333}
    .fil47 {fill:#2B1F46}
    .fil7 {fill:#336666}
    .fil35 {fill:#3C682D}
    .fil41 {fill:#528C36}
    .fil40 {fill:#61A53E}
    .fil6 {fill:#669999}
    .fil27 {fill:#74E9F0}
    .fil25 {fill:#7DC05C}
    .fil23 {fill:#999966}
    .fil48 {fill:#99CCCC}
    .fil32 {fill:#C1FFFF}
    .fil4 {fill:#CC3300}
    .fil55 {fill:#CC33FF}
    .fil46 {fill:#CC99CC}
    .fil45 {fill:#CC99FF}
    .fil44 {fill:#D0E8E8}
    .fil43 {fill:#E6E6E6}
    .fil3 {fill:#FFCC00}
    .fil2 {fill:#FFFF66}
    .fil11 {fill:white}
    .fil38 {fill:#224827;fill-rule:nonzero}
    .fil42 {fill:url(#id0)}
    .fil19 {fill:url(#id1)}
    .fil14 {fill:url(#id2)}
    .fil13 {fill:url(#id3)}
    .fil52 {fill:url(#id4)}
    .fil8 {fill:url(#id5)}
    .fil21 {fill:url(#id6)}
    .fil20 {fill:url(#id7)}
    .fil34 {fill:url(#id8)}
    .fil17 {fill:url(#id9)}
    .fil50 {fill:url(#id10)}
    .fil33 {fill:url(#id11)}
    .fil30 {fill:url(#id12)}
    .fil49 {fill:url(#id13)}
    .fil31 {fill:url(#id14)}
    .fil51 {fill:url(#id15)}
    .fil39 {fill:url(#id16)}
    .fil24 {fill:url(#id17)}
    .fil36 {fill:url(#id18)}
    .fil26 {fill:url(#id19)}
    .fil29 {fill:url(#id20)}
    .fil28 {fill:url(#id21)}
    .fil0 {fill:url(#id22)}
    .fil18 {fill:url(#id23)}
    .fil1 {fill:url(#id24)}
    .fil22 {fill:url(#id25)}
    .fil16 {fill:url(#id26)}
    .fil10 {fill:url(#id27)}
    .fil54 {fill:url(#id28)}
    .fil53 {fill:url(#id29)}
    .fil9 {fill:url(#id30)}
    .fil15 {fill:url(#id31)}
    .fil12 {fill:url(#id32)}
   
  </style>
  <linearGradient
   id="id0"
   gradientUnits="userSpaceOnUse"
   x1="0.88123602"
   y1="1.87503"
   x2="2.63006"
   y2="1.87503">
   <stop
   offset="0"
   style="stop-color:#336666"
   id="stop8464" />
   <stop
   offset="0.380392"
   style="stop-color:#99CCCC"
   id="stop8466" />
   <stop
   offset="0.509804"
   style="stop-color:#BDDFDF"
   id="stop8468" />
   <stop
   offset="0.639216"
   style="stop-color:#99CCCC"
   id="stop8470" />
   <stop
   offset="1"
   style="stop-color:#336666"
   id="stop8472" />
  </linearGradient>
  <linearGradient
   id="id1"
   gradientUnits="userSpaceOnUse"
   x1="1.75585"
   y1="1.5807101"
   x2="1.75585"
   y2="1.9364001">
   <stop
   offset="0"
   style="stop-color:#669999"
   id="stop8475" />
   <stop
   offset="1"
   style="stop-color:#003333"
   id="stop8477" />
  </linearGradient>
  <linearGradient
   id="id2"
   gradientUnits="userSpaceOnUse"
   x1="0"
   y1="2.08636"
   x2="3.53496"
   y2="2.08636">
   <stop
   offset="0"
   style="stop-color:#99CCCC"
   id="stop8480" />
   <stop
   offset="0.0784314"
   style="stop-color:#669999"
   id="stop8482" />
   <stop
   offset="0.509804"
   style="stop-color:#99CCCC"
   id="stop8484" />
   <stop
   offset="0.929412"
   style="stop-color:#669999"
   id="stop8486" />
   <stop
   offset="1"
   style="stop-color:#99CCCC"
   id="stop8488" />
  </linearGradient>
  <linearGradient
   id="id3"
   gradientUnits="userSpaceOnUse"
   x1="0.94039702"
   y1="2.32565"
   x2="2.58269"
   y2="2.32565">
   <stop
   offset="0"
   style="stop-color:black"
   id="stop8491" />
   <stop
   offset="0.509804"
   style="stop-color:#336666"
   id="stop8493" />
   <stop
   offset="1"
   style="stop-color:black"
   id="stop8495" />
  </linearGradient>
  <linearGradient
   id="id4"
   gradientUnits="userSpaceOnUse"
   x1="3.0157599"
   y1="2.7047701"
   x2="2.78633"
   y2="2.3141">
   <stop
   offset="0"
   style="stop-color:#003333"
   id="stop8498" />
   <stop
   offset="1"
   style="stop-color:#336666"
   id="stop8500" />
  </linearGradient>
  <linearGradient
   id="id5"
   gradientUnits="userSpaceOnUse"
   xlink:href="#id4"
   x1="3.2662599"
   y1="1.31181"
   x2="2.95645"
   y2="1.63354">
  </linearGradient>
  <linearGradient
   id="id6"
   gradientUnits="userSpaceOnUse"
   x1="1.73169"
   y1="1.48317"
   x2="1.7388099"
   y2="1.88634">
   <stop
   offset="0"
   style="stop-color:#666633"
   id="stop8504" />
   <stop
   offset="1"
   style="stop-color:#1A1A00"
   id="stop8506" />
  </linearGradient>
  <linearGradient
   id="id7"
   gradientUnits="userSpaceOnUse"
   x1="1.75585"
   y1="1.68103"
   x2="1.75585"
   y2="1.86599">
   <stop
   offset="0"
   style="stop-color:#003333"
   id="stop8509" />
   <stop
   offset="1"
   style="stop-color:black"
   id="stop8511" />
  </linearGradient>
  <linearGradient
   id="id8"
   gradientUnits="userSpaceOnUse"
   x1="1.70612"
   y1="1.3098201"
   x2="1.70016"
   y2="1.24991">
   <stop
   offset="0"
   style="stop-color:black"
   id="stop8514" />
   <stop
   offset="1"
   style="stop-color:#1A1A1A"
   id="stop8516" />
  </linearGradient>
  <linearGradient
   id="id9"
   gradientUnits="userSpaceOnUse"
   x1="2.1914899"
   y1="1.57468"
   x2="1.31762"
   y2="1.18492">
   <stop
   offset="0"
   style="stop-color:#CC33FF"
   id="stop8519" />
   <stop
   offset="1"
   style="stop-color:#9966CC"
   id="stop8521" />
  </linearGradient>
  <linearGradient
   id="id10"
   gradientUnits="userSpaceOnUse"
   x1="4.3943501"
   y1="2.30093"
   x2="4.5058899"
   y2="2.2983601">
   <stop
   offset="0"
   style="stop-color:#B648B8"
   id="stop8524" />
   <stop
   offset="1"
   style="stop-color:#D273D9"
   id="stop8526" />
  </linearGradient>
  <linearGradient
   id="id11"
   gradientUnits="userSpaceOnUse"
   x1="1.69596"
   y1="1.3087"
   x2="1.72677"
   y2="1.2264">
   <stop
   offset="0"
   style="stop-color:#88CA68"
   id="stop8529" />
   <stop
   offset="1"
   style="stop-color:#61A53E"
   id="stop8531" />
  </linearGradient>
  <linearGradient
   id="id12"
   gradientUnits="userSpaceOnUse"
   xlink:href="#id11"
   x1="1.86684"
   y1="1.28537"
   x2="1.81929"
   y2="1.21333">
  </linearGradient>
  <linearGradient
   id="id13"
   gradientUnits="userSpaceOnUse"
   x1="3.9675"
   y1="1.9347"
   x2="3.9275899"
   y2="1.71954">
   <stop
   offset="0"
   style="stop-color:#D273D9"
   id="stop8535" />
   <stop
   offset="1"
   style="stop-color:#912783"
   id="stop8537" />
  </linearGradient>
  <linearGradient
   id="id14"
   gradientUnits="userSpaceOnUse"
   xlink:href="#id8"
   x1="1.84568"
   y1="1.2887599"
   x2="1.84013"
   y2="1.24078">
  </linearGradient>
  <linearGradient
   id="id15"
   gradientUnits="userSpaceOnUse"
   x1="3.97649"
   y1="2.23471"
   x2="3.6943099"
   y2="2.6222">
   <stop
   offset="0"
   style="stop-color:#9C2E8D"
   id="stop8541" />
   <stop
   offset="1"
   style="stop-color:#72155B"
   id="stop8543" />
  </linearGradient>
  <linearGradient
   id="id16"
   gradientUnits="userSpaceOnUse"
   xlink:href="#id11"
   x1="1.79501"
   y1="1.4247299"
   x2="1.79282"
   y2="1.4042799">
  </linearGradient>
  <linearGradient
   id="id17"
   gradientUnits="userSpaceOnUse"
   x1="1.70184"
   y1="1.6946501"
   x2="1.82804"
   y2="1.65091">
   <stop
   offset="0"
   style="stop-color:#88CA68"
   id="stop8547" />
   <stop
   offset="1"
   style="stop-color:#98D27E"
   id="stop8549" />
  </linearGradient>
  <linearGradient
   id="id18"
   gradientUnits="userSpaceOnUse"
   xlink:href="#id11"
   x1="1.78924"
   y1="1.36959"
   x2="1.79182"
   y2="1.39393">
  </linearGradient>
  <linearGradient
   id="id19"
   gradientUnits="userSpaceOnUse"
   x1="1.7388099"
   y1="1.58593"
   x2="1.74823"
   y2="1.64598">
   <stop
   offset="0"
   style="stop-color:#3C682D"
   id="stop8553" />
   <stop
   offset="1"
   style="stop-color:#88CA68"
   id="stop8555" />
  </linearGradient>
  <linearGradient
   id="id20"
   gradientUnits="userSpaceOnUse"
   x1="1.90576"
   y1="1.12696"
   x2="1.7866499"
   y2="1.14142">
   <stop
   offset="0"
   style="stop-color:#AADA94"
   id="stop8558" />
   <stop
   offset="1"
   style="stop-color:#88CA68"
   id="stop8560" />
  </linearGradient>
  <linearGradient
   id="id21"
   gradientUnits="userSpaceOnUse"
   xlink:href="#id17"
   x1="1.78195"
   y1="1.23375"
   x2="1.88258"
   y2="1.22075">
  </linearGradient>
  <radialGradient
   id="id22"
   gradientUnits="userSpaceOnUse"
   cx="2.2811301"
   cy="2.05444"
   r="2.8526299"
   fx="2.2811301"
   fy="2.05444">
   <stop
   offset="0"
   style="stop-color:black"
   id="stop8564" />
   <stop
   offset="0.701961"
   style="stop-color:gray"
   id="stop8566" />
   <stop
   offset="1"
   style="stop-color:white"
   id="stop8568" />
  </radialGradient>
  <radialGradient
   id="id23"
   gradientUnits="userSpaceOnUse"
   cx="1.80797"
   cy="1.9716901"
   r="1.22321"
   fx="1.80797"
   fy="1.9716901">
   <stop
   offset="0"
   style="stop-color:#003333"
   id="stop8571" />
   <stop
   offset="1"
   style="stop-color:#669999"
   id="stop8573" />
  </radialGradient>
  <radialGradient
   id="id24"
   gradientUnits="userSpaceOnUse"
   cx="2.2811301"
   cy="2.05445"
   r="2.8526299"
   fx="2.2811301"
   fy="2.05445">
   <stop
   offset="0"
   style="stop-color:#CC3399"
   id="stop8576" />
   <stop
   offset="1"
   style="stop-color:#000066"
   id="stop8578" />
  </radialGradient>
  <radialGradient
   id="id25"
   gradientUnits="userSpaceOnUse"
   cx="1.7903"
   cy="1.75368"
   r="1.22223"
   fx="1.7903"
   fy="1.75368">
   <stop
   offset="0"
   style="stop-color:#333300"
   id="stop8581" />
   <stop
   offset="0.431373"
   style="stop-color:#666633"
   id="stop8583" />
   <stop
   offset="1"
   style="stop-color:#999966"
   id="stop8585" />
  </radialGradient>
  <radialGradient
   id="id26"
   gradientUnits="userSpaceOnUse"
   cx="1.75455"
   cy="1.69204"
   r="1.15906"
   fx="1.75455"
   fy="1.69204">
   <stop
   offset="0"
   style="stop-color:#FEFEFE"
   id="stop8588" />
   <stop
   offset="1"
   style="stop-color:#99CCCC"
   id="stop8590" />
  </radialGradient>
  <radialGradient
   id="id27"
   gradientUnits="userSpaceOnUse"
   cx="3.7748001"
   cy="1.52334"
   r="0.052092899"
   fx="3.7748001"
   fy="1.52334">
   <stop
   offset="0"
   style="stop-color:#99FFFF"
   id="stop8593" />
   <stop
   offset="0.878431"
   style="stop-color:#0F4242"
   id="stop8595" />
   <stop
   offset="1"
   style="stop-color:#99CCCC"
   id="stop8597" />
  </radialGradient>
  <radialGradient
   id="id28"
   gradientUnits="userSpaceOnUse"
   xlink:href="#id27"
   cx="3.4383299"
   cy="2.94364"
   r="0.052092899"
   fx="3.4383299"
   fy="2.94364">
  </radialGradient>
  <radialGradient
   id="id29"
   gradientUnits="userSpaceOnUse"
   xlink:href="#id27"
   cx="3.04776"
   cy="2.7107301"
   r="0.0826471"
   fx="3.04776"
   fy="2.7107301">
  </radialGradient>
  <radialGradient
   id="id30"
   gradientUnits="userSpaceOnUse"
   xlink:href="#id27"
   cx="3.36727"
   cy="1.25565"
   r="0.069325902"
   fx="3.36727"
   fy="1.25565">
  </radialGradient>
  <radialGradient
   id="id31"
   gradientUnits="userSpaceOnUse"
   xlink:href="#id26"
   cx="1.75455"
   cy="1.53262"
   r="0.73982799"
   fx="1.75455"
   fy="1.53262">
  </radialGradient>
  <radialGradient
   id="id32"
   gradientUnits="userSpaceOnUse"
   cx="1.7695301"
   cy="2.71873"
   r="0.379904"
   fx="1.7695301"
   fy="2.71873">
   <stop
   offset="0"
   style="stop-color:#99CCCC"
   id="stop8604" />
   <stop
   offset="1"
   style="stop-color:#336666"
   id="stop8606" />
  </radialGradient>
 <radialGradient
   inkscape:collect="always"
   xlink:href="#id27"
   id="radialGradient8803"
   gradientUnits="userSpaceOnUse"
   cx="3.7748001"
   cy="1.52334"
   fx="3.7748001"
   fy="1.52334"
   r="0.052092899" /><radialGradient
   inkscape:collect="always"
   xlink:href="#id26"
   id="radialGradient8805"
   gradientUnits="userSpaceOnUse"
   cx="1.75455"
   cy="1.69204"
   fx="1.75455"
   fy="1.69204"
   r="1.15906" /><linearGradient
   inkscape:collect="always"
   xlink:href="#id17"
   id="linearGradient8807"
   gradientUnits="userSpaceOnUse"
   x1="1.70184"
   y1="1.6946501"
   x2="1.82804"
   y2="1.65091" /><linearGradient
   inkscape:collect="always"
   xlink:href="#id11"
   id="linearGradient8809"
   gradientUnits="userSpaceOnUse"
   x1="1.69596"
   y1="1.3087"
   x2="1.72677"
   y2="1.2264" /><linearGradient
   inkscape:collect="always"
   xlink:href="#id8"
   id="linearGradient8811"
   gradientUnits="userSpaceOnUse"
   x1="1.70612"
   y1="1.3098201"
   x2="1.70016"
   y2="1.24991" /><linearGradient
   inkscape:collect="always"
   xlink:href="#id4"
   id="linearGradient8813"
   gradientUnits="userSpaceOnUse"
   x1="3.0157599"
   y1="2.7047701"
   x2="2.78633"
   y2="2.3141" /></defs>
 <g
   id="Layer_x0020_1"
   transform="matrix(67.534483,0,0,67.508391,6.6534483e-4,-0.133023)">
  <metadata
   id="CorelCorpID_0Corel-Layer" />
  <circle
   class="fil0 str0"
   cx="2.2811401"
   cy="2.05444"
   r="2.0524399"
   id="circle8610"
   sodipodi:cx="2.2811401"
   sodipodi:cy="2.05444"
   sodipodi:rx="2.0524399"
   sodipodi:ry="2.0524399"
   style="fill:url(#id22);stroke:#808080;stroke-width:0.00400108"
   d="m 4.33358,2.05444 c 0,1.1335313 -0.9189086,2.0524399 -2.0524399,2.0524399 -1.1335313,0 -2.05243994,-0.9189086 -2.05243994,-2.0524399 0,-1.13353125 0.91890864,-2.05243991 2.05243994,-2.05243991 1.1335313,0 2.0524399,0.91890866 2.0524399,2.05243991 z" />
  <circle
   class="fil1"
   cx="2.2811401"
   cy="2.05444"
   r="1.95346"
   id="circle8612"
   sodipodi:cx="2.2811401"
   sodipodi:cy="2.05444"
   sodipodi:rx="1.95346"
   sodipodi:ry="1.95346"
   style="fill:url(#id24)"
   d="m 4.2346001,2.05444 c 0,1.0788662 -0.8745939,1.95346 -1.95346,1.95346 -1.0788662,0 -1.95345999,-0.8745938 -1.95345999,-1.95346 0,-1.07886613 0.87459379,-1.95345996 1.95345999,-1.95345996 1.0788661,0 1.95346,0.87459383 1.95346,1.95345996 z" />
  <g
   id="_356688792">
   <g
   id="g8615">
    <path
   id="_356458344"
   class="fil2"
   d="M 1.74015,2.54512 C 2.062337,2.5155529 1.984878,2.5971551 2.011321,2.650461 2.0709697,2.770683 1.9457862,3.035516 1.796118,3.324329 1.7847343,3.21777 1.208216,2.593931 1.7401501,2.54512 z"
   inkscape:connector-curvature="0"
   style="fill:#ffff66" />
    <path
   id="_356457600"
   class="fil3"
   d="M 1.63852,2.76907 1.625398,2.720322 c 0,0 -0.076624,-0.157103 0.128066,-0.168802 C 1.958149,2.539826 1.954568,2.63778 1.936112,2.684879 1.917656,2.731978 1.932102,2.789369 1.947154,2.813413 1.962208,2.837451 1.925337,2.782391 1.897009,2.76467 1.868676,2.746949 1.892359,2.883679 1.912425,2.912595 1.932499,2.941506 1.867253,2.831056 1.845493,2.847128 1.823734,2.863201 1.874409,2.990169 1.866391,3.021643 1.858371,3.053116 1.845824,2.942756 1.82868,2.989078 1.811531,3.0354 1.763812,3.198857 1.763812,3.198857 c 0,0 0.0513,-0.261409 0.016923,-0.234699 -0.034372,0.026716 -0.106974,0.138988 -0.106974,0.138988 0,0 0.11077,-0.244917 0.069877,-0.204906 -0.040893,0.040016 -0.117927,0.085803 -0.117927,0.085803 0,0 0.149405,-0.168917 0.109794,-0.148518 -0.039607,0.020405 -0.111211,0.055107 -0.111211,0.055107 0,0 0.092897,-0.072497 0.072828,-0.101408 -0.020068,-0.028916 0.00875,0.029362 -0.062416,0.066947 -0.071169,0.037585 0.016939,-0.038346 0.00381,-0.0871 z"
   inkscape:connector-curvature="0"
   style="fill:#ffcc00" />
    <path
   id="_354745696"
   class="fil4"
   d="M 1.87302,2.71086 C 1.86958,2.7095 1.815393,2.71592 1.861447,2.667693 2.00442,2.517999 1.670676,2.551714 1.640437,2.610439 1.623167,2.643986 1.659035,2.708838 1.701356,2.72897 1.668927,2.693443 1.617254,2.624086 1.681708,2.594676 1.809207,2.536497 1.929198,2.589686 1.863547,2.640321 1.840444,2.658137 1.813623,2.715775 1.873017,2.71086 z"
   inkscape:connector-curvature="0"
   style="fill:#cc3300" />
   </g>
   <g
   id="g8620">
    <path
   id="_359678224"
   class="fil5"
   d="M 3.74085,1.542 C 3.754245,1.54452 3.887625,1.53759 4.011265,1.530454 l 0,-0.019659 L 3.763466,1.5032388 3.7408509,1.542 z"
   inkscape:connector-curvature="0"
   style="fill:#003333" />
    <polygon
   id="_359678680"
   class="fil6"
   points="3.7915,1.46472 4.01126,1.49129 4.01126,1.51079 3.76346,1.50324 "
   style="fill:#669999" />
   </g>
   <g
   id="g8624">
    <path
   id="_359678464"
   class="fil5"
   d="M 3.75782,1.84198 C 3.771293,1.83975 3.989626,1.73583 3.989626,1.73583 l -0.22908,0.080557 -0.00273,0.025592 z"
   inkscape:connector-curvature="0"
   style="fill:#003333" />
    <polygon
   id="_359678752"
   class="fil7"
   points="3.76596,1.78991 3.98962,1.73584 3.76054,1.81639 "
   style="fill:#336666" />
   </g>
   <g
   id="g8628">
    <g
   id="g8630">
     <path
   id="_359678368"
   class="fil6"
   d="M 2.80151,1.63094 C 2.8193941,1.6063664 3.08534,1.395055 3.289931,1.234071 L 3.311953,1.255851 2.889355,1.663867 2.80151,1.630939 z"
   inkscape:connector-curvature="0"
   style="fill:#669999" />
     <polygon
   id="_359678104"
   class="fil8"
   points="2.98453,1.6895 3.33336,1.27702 3.31195,1.25585 2.88936,1.66387 "
   style="fill:url(#id5)" />
    </g>
    <g
   id="g8634">
     <path
   id="_359677552"
   class="fil5"
   d="M 3.33222,1.32364 C 3.352005,1.338831 3.762961,1.500491 3.762961,1.500491 L 3.369757,1.295354 3.3322193,1.3236399 z"
   inkscape:connector-curvature="0"
   style="fill:#003333" />
     <polygon
   id="_360358672"
   class="fil6"
   points="3.41185,1.26955 3.76296,1.5005 3.36975,1.29536 "
   style="fill:#669999" />
    </g>
    <g
   id="g8638">
     <path
   id="_359659904"
   class="fil7"
   d="M 3.71774,1.51168 C 3.71517,1.529317 3.757819,1.841985 3.757819,1.841985 L 3.748478,1.525211 3.71774,1.5116798 z"
   inkscape:connector-curvature="0"
   style="fill:#336666" />
     <polygon
   id="_359660096"
   class="fil5"
   points="3.77926,1.54245 3.75782,1.84198 3.74848,1.52521 "
   style="fill:#003333" />
    </g>
    <path
   id="_359659880"
   class="fil9"
   d="M 3.3477,1.20164 C 3.392499,1.21116 3.421248,1.255933 3.411912,1.30163 3.402582,1.347327 3.358696,1.376663 3.313901,1.367144 3.269107,1.357614 3.240354,1.312851 3.249689,1.267148 3.259019,1.221451 3.302905,1.192125 3.3477,1.201639 z"
   inkscape:connector-curvature="0"
   style="fill:url(#id30)" />
    <path
   id="_359660384"
   class="fil10"
   d="M 3.80432,1.49144 C 3.81352,1.525281 3.79353,1.560172 3.759689,1.569372 3.725837,1.578562 3.690941,1.558587 3.681747,1.524735 3.672547,1.490889 3.692537,1.455992 3.726384,1.446793 3.760236,1.437603 3.795127,1.457594 3.804321,1.49144 z"
   inkscape:connector-curvature="0"
   style="fill:url(#radialGradient8803)" />
   </g>
   <g
   id="g8644">
    <path
   id="_359660552"
   class="fil5"
   d="M 2.60746,2.07035 C 2.5264302,2.361936 2.308361,2.592313 2.022036,2.679371 1.9490398,2.6481342 1.870373,2.6304338 1.777009,2.6304338 c -0.093364,0 -0.180332,0.018141 -0.253323,0.049378 C 1.237356,2.5927543 1.027588,2.361936 0.946558,2.07035 l 1.6609,0 z"
   inkscape:connector-curvature="0"
   style="fill:#003333" />
    <path
   id="_359660744"
   class="fil11"
   d="M 2.59999,2.07035 C 2.51896,2.361936 2.309192,2.589016 2.022862,2.676073 1.949871,2.644836 1.862903,2.630433 1.769539,2.630433 1.676175,2.630433 1.589207,2.648574 1.516216,2.679811 1.229886,2.592753 1.020118,2.361935 0.939088,2.070349 l 1.6609,0 z"
   inkscape:connector-curvature="0"
   style="fill:#ffffff" />
    <path
   id="_359660936"
   class="fil12"
   d="M 2.61494,2.06661 C 2.5339102,2.358196 2.309188,2.589014 2.022858,2.676072 1.9498671,2.6448352 1.862899,2.6266938 1.769535,2.6266938 c -0.093364,0 -0.180332,0.018141 -0.253323,0.049378 C 1.229882,2.5890143 1.00516,2.358196 0.92413,2.06661 l 1.69081,0 z"
   inkscape:connector-curvature="0"
   style="fill:url(#id32)" />
    <path
   id="_359661128"
   class="fil11"
   d="m 1.75456,2.14057 c 0.492485,0 0.947842,-0.022988 0.947842,0.075511 0,0.098499 0.013967,0.321599 -0.938134,0.321599 -0.952095,0 -0.957546,-0.219141 -0.957546,-0.31764 0,-0.098499 0.455352,-0.07947 0.947837,-0.07947 z"
   inkscape:connector-curvature="0"
   style="fill:#ffffff" />
    <path
   id="_359661320"
   class="fil13"
   d="m 1.75456,2.13661 c 0.492485,0 0.947842,-0.019024 0.947842,0.079476 0,0.098499 0.013967,0.31764 -0.938134,0.31764 -0.952095,0 -0.957546,-0.219141 -0.957546,-0.31764 0,-0.098499 0.455352,-0.079476 0.947837,-0.079476 z"
   inkscape:connector-curvature="0"
   style="fill:url(#id3)" />
    <path
   id="_359661512"
   class="fil14"
   d="m 1.75455,1.73641 c 0.911643,0 1.75456,-0.035217 1.75456,0.147116 0,0.182333 0.025855,0.587986 -1.73659,0.587986 C 0.01008,2.471512 -1e-5,2.065859 -1e-5,1.883526 -1e-5,1.701193 0.842901,1.73641 1.75454,1.73641 z"
   inkscape:connector-curvature="0"
   style="fill:url(#id2)" />
    <ellipse
   id="_359661704"
   class="fil15"
   cx="1.75456"
   cy="1.88353"
   rx="1.75456"
   ry="0.35090801"
   sodipodi:cx="1.75456"
   sodipodi:cy="1.88353"
   sodipodi:rx="1.75456"
   sodipodi:ry="0.35090801"
   style="fill:url(#id31)"
   d="m 3.50912,1.88353 c 0,0.1938012 -0.7855433,0.350908 -1.75456,0.350908 C 0.78554327,2.234438 0,2.0773312 0,1.88353 0,1.6897289 0.78554327,1.532622 1.75456,1.532622 c 0.9690167,0 1.75456,0.1571069 1.75456,0.350908 z" />
    <ellipse
   id="_359661856"
   class="fil16 str1"
   cx="1.75456"
   cy="1.88353"
   rx="1.3678"
   ry="0.27355799"
   sodipodi:cx="1.75456"
   sodipodi:cy="1.88353"
   sodipodi:rx="1.3678"
   sodipodi:ry="0.27355799"
   style="fill:url(#radialGradient8805);stroke:#99cccc;stroke-width:0.00400108"
   d="m 3.12236,1.88353 c 0,0.1510819 -0.6123849,0.273558 -1.3678,0.273558 -0.75541509,0 -1.3678,-0.1224761 -1.3678,-0.273558 0,-0.1510819 0.61238491,-0.273558 1.3678,-0.273558 0.7554151,0 1.3678,0.1224761 1.3678,0.273558 z" />
    <ellipse
   id="_359661976"
   class="fil6 str1"
   cx="1.75456"
   cy="1.81602"
   rx="0.90818399"
   ry="0.18163501"
   sodipodi:cx="1.75456"
   sodipodi:cy="1.81602"
   sodipodi:rx="0.90818399"
   sodipodi:ry="0.18163501"
   style="fill:#669999;stroke:#99cccc;stroke-width:0.00400108"
   d="m 2.662744,1.81602 c 0,0.1003143 -0.4066078,0.181635 -0.908184,0.181635 -0.5015762,0 -0.908184,-0.081321 -0.908184,-0.181635 0,-0.1003142 0.4066078,-0.181635 0.908184,-0.181635 0.5015762,0 0.908184,0.081321 0.908184,0.181635 z" />
    <path
   id="_359662096"
   class="fil17"
   d="m 1.75455,0.784559 c 0.00737,0 0.014718,1.3127e-4 0.022043,3.623e-4 0.00228,7.876e-5 0.00454,2.2579e-4 0.00682,3.2555e-4 0.00498,2.1003e-4 0.00996,4.2006e-4 0.014917,7.4036e-4 0.00298,1.8903e-4 0.00593,4.6207e-4 0.0089,6.931e-4 0.00426,3.308e-4 0.00853,6.5109e-4 0.012775,0.001061 0.00316,3.0979e-4 0.0063,6.826e-4 0.00944,0.001034 0.00406,4.5157e-4 0.00812,8.9788e-4 0.012171,0.001418 0.00312,4.0431e-4 0.00623,8.7163e-4 0.00935,0.001313 0.00403,5.8283e-4 0.00807,0.001166 0.012087,0.001817 0.00322,5.1983e-4 0.00644,0.001092 0.00966,0.001664 0.00384,6.7735e-4 0.00768,0.001365 0.01151,0.002111 0.00323,6.3009e-4 0.00646,0.001297 0.00968,0.001969 0.00388,8.1387e-4 0.00774,0.001649 0.011594,0.002526 0.00313,7.141e-4 0.00627,0.00146 0.00939,0.002211 0.00385,9.3989e-4 0.0077,0.001901 0.011531,0.002898 0.00315,8.2437e-4 0.0063,0.001664 0.00944,0.002531 0.00378,0.00104 0.00755,0.002121 0.011305,0.003229 0.00314,9.2413e-4 0.00628,0.001848 0.00941,0.00282 0.00374,0.001155 0.00747,0.002363 0.011189,0.003586 0.0031,0.001019 0.00621,0.002027 0.00929,0.003087 0.00379,0.001302 0.00757,0.002667 0.011342,0.004033 0.00297,0.001076 0.00595,0.002132 0.00891,0.00325 0.0038,0.001433 0.00758,0.00294 0.011352,0.004437 0.00294,0.001166 0.00589,0.002305 0.00882,0.003508 0.00405,0.00167 0.00808,0.003418 0.012103,0.005161 0.00253,0.001097 0.00508,0.002153 0.0076,0.003282 0.00454,0.002027 0.00904,0.004143 0.013547,0.006264 0.00208,9.8189e-4 0.00418,0.001917 0.00626,0.002914 0.00642,0.003093 0.012801,0.006275 0.019149,0.009562 0.00226,0.001171 0.0045,0.002415 0.00675,0.003613 0.0042,0.002221 0.0084,0.004437 0.012565,0.006742 0.00261,0.001444 0.00519,0.002961 0.00778,0.004437 0.00372,0.002116 0.00745,0.004222 0.011142,0.006401 0.00288,0.001706 0.00574,0.003481 0.00861,0.005225 0.00337,0.002053 0.00675,0.004085 0.010097,0.006191 0.00298,0.001869 0.00592,0.003796 0.00888,0.005713 0.00319,0.002064 0.00639,0.004122 0.00956,0.006238 0.003,0.002001 0.00598,0.004054 0.00897,0.006107 0.0031,0.002127 0.0062,0.004253 0.00927,0.006427 0.003,0.002116 0.00597,0.004274 0.00895,0.006432 0.00304,0.002211 0.00608,0.004426 0.0091,0.006684 0.00289,0.002158 0.00577,0.004348 0.00864,0.006548 0.00304,0.002337 0.00608,0.004689 0.00909,0.007062 0.00291,0.0023 0.00582,0.00461 0.00871,0.006952 0.00288,0.002326 0.00574,0.004689 0.0086,0.007052 0.00294,0.002442 0.00588,0.004894 0.0088,0.007383 0.00283,0.002415 0.00564,0.004862 0.00846,0.00732 0.00285,0.002489 0.0057,0.004983 0.00853,0.007519 0.00282,0.002531 0.00563,0.005104 0.00843,0.007677 0.0028,0.002573 0.00561,0.00514 0.00839,0.007755 0.00274,0.002573 0.00544,0.005198 0.00815,0.007808 0.00278,0.00269 0.00558,0.00536 0.00834,0.00809 0.00267,0.00264 0.00531,0.00533 0.00796,0.00802 0.00277,0.0028 0.00554,0.00558 0.00829,0.00842 0.00248,0.00258 0.00494,0.00522 0.0074,0.00783 0.00284,0.00301 0.00569,0.00599 0.0085,0.00904 0.00235,0.00256 0.00467,0.00519 0.007,0.00779 0.011006,0.012224 0.021785,0.024799 0.032319,0.037711 0.00195,0.00238 0.00392,0.00474 0.00585,0.00715 0.00271,0.00338 0.00537,0.00682 0.00804,0.010244 0.00218,0.00279 0.00438,0.00557 0.00655,0.0084 0.00262,0.00342 0.00519,0.00689 0.00778,0.010365 0.00218,0.00292 0.00437,0.00583 0.00653,0.00879 0.00254,0.00347 0.00503,0.00699 0.00754,0.010507 0.00211,0.00296 0.00422,0.00591 0.00631,0.00889 0.00257,0.00368 0.00511,0.00741 0.00764,0.011132 0.00196,0.00289 0.00393,0.00578 0.00587,0.0087 0.00253,0.00378 0.00501,0.0076 0.0075,0.011431 0.00192,0.00296 0.00383,0.00592 0.00573,0.0089 0.00246,0.00386 0.00488,0.00775 0.0073,0.011657 0.00184,0.00297 0.00367,0.00595 0.00549,0.00895 0.00244,0.00402 0.00486,0.00807 0.00726,0.012129 0.00176,0.00298 0.0035,0.00597 0.00524,0.00897 0.00233,0.00403 0.00465,0.00806 0.00694,0.012129 0.00175,0.00311 0.00348,0.00625 0.00521,0.00938 0.00231,0.00418 0.0046,0.00837 0.00686,0.012591 0.00159,0.00296 0.00315,0.00595 0.00472,0.00894 0.00227,0.00433 0.00455,0.00866 0.00678,0.013027 0.00155,0.00305 0.00307,0.00612 0.0046,0.00918 0.00222,0.00444 0.00444,0.00888 0.00662,0.013369 0.00133,0.00275 0.00263,0.00552 0.00394,0.00829 0.00232,0.00487 0.00464,0.00974 0.00691,0.01466 0.00103,0.00225 0.00203,0.00453 0.00305,0.00679 0.00245,0.0054 0.00489,0.010801 0.00728,0.016262 l 9.923e-4,0.00234 c 0.00864,0.019895 0.016808,0.040189 0.024547,0.060799 8.717e-4,0.00232 0.00176,0.00462 0.00263,0.00695 0.002,0.00542 0.00393,0.010874 0.00587,0.016335 9.452e-4,0.00267 0.00192,0.00533 0.00285,0.00801 0.00186,0.00534 0.00365,0.010717 0.00545,0.016099 9.556e-4,0.00288 0.00193,0.00574 0.00287,0.00863 0.00168,0.00513 0.00329,0.010297 0.00491,0.015464 0.00103,0.00328 0.00206,0.00657 0.00307,0.00987 0.00152,0.00497 0.00298,0.00997 0.00444,0.014975 0.00101,0.00344 0.00201,0.00687 0.00299,0.010328 0.00144,0.00509 0.00285,0.010192 0.00424,0.015311 9.241e-4,0.0034 0.00183,0.00679 0.00274,0.010207 0.00134,0.00509 0.00266,0.010213 0.00394,0.015338 8.979e-4,0.00357 0.00178,0.00715 0.00265,0.010733 0.00124,0.00511 0.00246,0.010239 0.00365,0.015385 8.138e-4,0.00351 0.0016,0.00704 0.00239,0.01057 0.00118,0.00527 0.00234,0.010554 0.00346,0.015857 7.246e-4,0.00341 0.00142,0.00683 0.00211,0.010249 0.00111,0.00543 0.00221,0.010869 0.00326,0.01633 6.511e-4,0.00338 0.00127,0.00678 0.00189,0.010171 0.00102,0.00555 0.00204,0.0111 0.00301,0.016682 5.619e-4,0.00324 0.00108,0.00651 0.00162,0.00977 9.556e-4,0.00576 0.00191,0.011525 0.0028,0.017322 4.568e-4,0.00298 8.664e-4,0.00598 0.00131,0.00896 8.978e-4,0.0061 0.0018,0.012198 0.00262,0.018325 3.098e-4,0.00227 5.671e-4,0.00457 8.611e-4,0.00685 0.00319,0.024579 0.00581,0.04941 0.00779,0.074493 -0.045766,0.088391 -0.41929,0.157308 -0.873323,0.157308 -0.454029,0 -0.82755204,-0.068916 -0.87331804,-0.157308 0.001974,-0.025083 0.00461,-0.049908 0.007792,-0.074493 2.9404e-4,-0.00228 5.5133e-4,-0.00457 8.5588e-4,-0.00685 8.2437e-4,-0.00613 0.001727,-0.012229 0.002625,-0.018325 4.3581e-4,-0.00299 8.5062e-4,-0.00599 0.001307,-0.00896 8.8738e-4,-0.0058 0.001843,-0.011562 0.002793,-0.017322 5.4083e-4,-0.00326 0.001061,-0.00652 0.001622,-0.00977 9.6089e-4,-0.00558 0.00198,-0.011132 0.003003,-0.016682 6.2484e-4,-0.00339 0.001244,-0.00679 0.001896,-0.010171 0.001045,-0.00546 0.002142,-0.010895 0.00325,-0.01633 6.9835e-4,-0.00342 0.001391,-0.00685 0.002111,-0.010249 0.001124,-0.0053 0.002289,-0.010586 0.003466,-0.015857 7.8761e-4,-0.00353 0.00158,-0.00705 0.002394,-0.01057 0.001187,-0.00515 0.002405,-0.010271 0.003649,-0.015385 8.7162e-4,-0.00359 0.001754,-0.00716 0.002652,-0.010733 0.001292,-0.00513 0.002604,-0.010239 0.003943,-0.015338 8.9788e-4,-0.00341 0.001822,-0.00681 0.002741,-0.010207 0.001386,-0.00512 0.002793,-0.010228 0.004237,-0.015311 9.7664e-4,-0.00345 0.001985,-0.00689 0.002988,-0.010328 0.001465,-0.005 0.002935,-0.010003 0.004442,-0.014975 0.001008,-0.0033 0.002043,-0.00658 0.003072,-0.00987 0.001612,-0.00517 0.00324,-0.010333 0.004904,-0.015464 9.3988e-4,-0.00289 0.001917,-0.00575 0.002872,-0.00863 0.001796,-0.00538 0.003586,-0.010759 0.00544,-0.016099 9.2938e-4,-0.00268 0.001906,-0.00534 0.002851,-0.00801 0.001932,-0.00546 0.003865,-0.010916 0.00586,-0.016335 8.6112e-4,-0.00233 0.001759,-0.00463 0.002631,-0.00695 0.00774,-0.020614 0.0159098,-0.040898 0.0245421,-0.060799 l 9.9764e-4,-0.00234 c 0.002379,-0.00546 0.004825,-0.010864 0.007272,-0.016262 0.001024,-0.00226 0.002027,-0.00454 0.003056,-0.00679 0.00226,-0.00492 0.00459,-0.00979 0.00691,-0.01466 0.00131,-0.00277 0.0026,-0.00554 0.00394,-0.00829 0.00217,-0.00449 0.0044,-0.00892 0.00662,-0.013369 0.00153,-0.00306 0.00305,-0.00614 0.0046,-0.00918 0.00223,-0.00437 0.0045,-0.0087 0.00677,-0.013027 0.00157,-0.00298 0.00313,-0.00597 0.00472,-0.00894 0.00226,-0.00422 0.00456,-0.00841 0.00687,-0.012591 0.00173,-0.00313 0.00346,-0.00627 0.00521,-0.00938 0.00229,-0.00407 0.00461,-0.0081 0.00694,-0.012129 0.00174,-0.003 0.00348,-0.006 0.00524,-0.00897 0.0024,-0.00406 0.00483,-0.00811 0.00726,-0.012129 0.00182,-0.003 0.00365,-0.00598 0.00549,-0.00895 0.00242,-0.00391 0.00485,-0.00779 0.00731,-0.011657 0.0019,-0.00298 0.00381,-0.00594 0.00573,-0.0089 0.00248,-0.00383 0.00498,-0.00765 0.0075,-0.011431 0.00195,-0.00292 0.00391,-0.00581 0.00588,-0.0087 0.00254,-0.00373 0.00507,-0.00745 0.00764,-0.011132 0.00208,-0.00299 0.0042,-0.00593 0.00631,-0.00889 0.0025,-0.00352 0.005,-0.00704 0.00754,-0.010507 0.00216,-0.00296 0.00435,-0.00587 0.00653,-0.00879 0.00258,-0.00347 0.00516,-0.00695 0.00778,-0.010365 0.00216,-0.00283 0.00436,-0.00561 0.00654,-0.0084 0.00268,-0.00342 0.00533,-0.00687 0.00804,-0.010244 0.00193,-0.0024 0.00391,-0.00477 0.00585,-0.00715 0.010533,-0.012917 0.021308,-0.025487 0.032324,-0.037711 0.00234,-0.0026 0.00465,-0.00522 0.007,-0.00779 0.00281,-0.00305 0.00566,-0.00603 0.0085,-0.00904 0.00247,-0.00261 0.00491,-0.00525 0.0074,-0.00783 0.00274,-0.00284 0.00552,-0.00562 0.00829,-0.00842 0.00265,-0.00268 0.00529,-0.00538 0.00796,-0.00802 0.00276,-0.00273 0.00556,-0.0054 0.00834,-0.00809 0.00271,-0.00261 0.00541,-0.00524 0.00814,-0.007808 0.00278,-0.002615 0.00559,-0.005183 0.00839,-0.007755 0.0028,-0.002573 0.0056,-0.005146 0.00843,-0.007677 0.00282,-0.002536 0.00568,-0.00503 0.00853,-0.007519 0.00281,-0.002457 0.00562,-0.004904 0.00846,-0.00732 0.00292,-0.002489 0.00585,-0.004941 0.0088,-0.007383 0.00286,-0.002368 0.00572,-0.00472 0.0086,-0.007052 0.00289,-0.002337 0.0058,-0.004652 0.00871,-0.006952 0.00302,-0.002373 0.00605,-0.004726 0.00909,-0.007062 0.00287,-0.0022 0.00575,-0.00439 0.00864,-0.006548 0.00301,-0.002258 0.00605,-0.004474 0.00909,-0.006684 0.00298,-0.002158 0.00595,-0.004316 0.00895,-0.006432 0.00308,-0.002179 0.00618,-0.0043 0.00928,-0.006427 0.00298,-0.002053 0.00596,-0.004106 0.00897,-0.006107 0.00317,-0.002116 0.00637,-0.004174 0.00956,-0.006238 0.00296,-0.001917 0.00591,-0.003844 0.00888,-0.005713 0.00334,-0.002106 0.00673,-0.004138 0.010092,-0.006191 0.00287,-0.001743 0.00573,-0.003518 0.00862,-0.005225 0.0037,-0.002184 0.00742,-0.004285 0.011137,-0.006401 0.0026,-0.001481 0.00518,-0.002993 0.00778,-0.004437 0.00417,-0.002305 0.00837,-0.004521 0.01257,-0.006742 0.00225,-0.001197 0.00449,-0.002442 0.00675,-0.003613 0.00635,-0.003287 0.012733,-0.006469 0.019149,-0.009562 0.00207,-0.001003 0.00417,-0.001932 0.00625,-0.002914 0.00451,-0.002121 0.00902,-0.004243 0.013547,-0.006264 0.00252,-0.001129 0.00507,-0.002184 0.0076,-0.003282 0.00403,-0.001743 0.00805,-0.003492 0.012103,-0.005161 0.00293,-0.001202 0.00588,-0.002342 0.00882,-0.003508 0.00378,-0.001502 0.00755,-0.003003 0.011347,-0.004437 0.00296,-0.001118 0.00594,-0.002174 0.00891,-0.00325 0.00378,-0.00137 0.00755,-0.00273 0.011347,-0.004033 0.00309,-0.001061 0.00619,-0.002069 0.00929,-0.003087 0.00373,-0.001223 0.00746,-0.002426 0.011195,-0.003586 0.00313,-9.7139e-4 0.00626,-0.001896 0.0094,-0.00282 0.00376,-0.001108 0.00753,-0.00219 0.01131,-0.003229 0.00314,-8.6638e-4 0.00629,-0.001706 0.00944,-0.002531 0.00383,-9.9765e-4 0.00768,-0.001959 0.011525,-0.002898 0.00313,-7.5611e-4 0.00626,-0.001491 0.0094,-0.002211 0.00385,-8.7688e-4 0.00771,-0.001707 0.011588,-0.002526 0.00322,-6.7735e-4 0.00645,-0.001339 0.00968,-0.001969 0.00382,-7.4561e-4 0.00767,-0.001428 0.01151,-0.002111 0.00321,-5.7233e-4 0.00643,-0.001145 0.00966,-0.001664 0.00402,-6.5635e-4 0.00805,-0.001234 0.012087,-0.001817 0.00311,-4.4632e-4 0.00622,-9.0313e-4 0.00935,-0.001313 0.00404,-5.2508e-4 0.00811,-9.6614e-4 0.012171,-0.001418 0.00315,-3.518e-4 0.00629,-7.2461e-4 0.00944,-0.001034 0.00425,-4.1481e-4 0.00851,-7.2986e-4 0.012775,-0.001061 0.00297,-2.3103e-4 0.00592,-4.9882e-4 0.0089,-6.931e-4 0.00495,-3.308e-4 0.00993,-5.2508e-4 0.014912,-7.4036e-4 0.00227,-9.976e-5 0.00454,-2.4153e-4 0.00682,-3.2555e-4 0.00732,-2.5729e-4 0.014676,-3.623e-4 0.022043,-3.623e-4 z"
   inkscape:connector-curvature="0"
   style="fill:url(#id9)" />
    <path
   id="_359662288"
   class="fil11"
   d="m 1.75455,1.43055 c 0.408473,0 0.736173,0.071447 0.834279,0.147 0.00896,0.067808 0.034015,0.174483 0.036519,0.20268 0,0.096987 -0.377115,0.157308 -0.86205,0.157308 -0.484935,0 -0.878637,-0.063844 -0.878637,-0.160831 0,-0.012287 0.0302392,-0.168208 0.0346551,-0.195297 0.0827573,-0.07978 0.411734,-0.15086 0.835234,-0.15086 z"
   inkscape:connector-curvature="0"
   style="fill:#ffffff" />
    <path
   id="_359662480"
   class="fil18"
   d="m 1.75455,1.43429 c 0.408473,0 0.736173,0.067703 0.834279,0.143257 0.018105,0.068418 0.037921,0.178479 0.036519,0.206418 0,0.096987 -0.377115,0.157308 -0.86205,0.157308 -0.484935,0 -0.878637,-0.063844 -0.878637,-0.160831 0,-0.012287 0.0302392,-0.171947 0.0346551,-0.199036 0.0827573,-0.07978 0.411734,-0.147116 0.835234,-0.147116 z"
   inkscape:connector-curvature="0"
   style="fill:url(#id23)" />
    <path
   id="_359662672"
   class="fil19"
   d="m 1.75455,1.58071 c 0.408473,0 0.76656,0.080137 0.86467,0.155691 0.00896,0.067808 0.00443,0.034497 0.00694,0.062689 0,0.096992 -0.36182,0.137318 -0.846755,0.137318 -0.484935,0 -0.89588604,-0.049546 -0.89588604,-0.146538 0,-0.012287 0.003234,-0.035548 0.00765,-0.062636 C 0.97392106,1.647454 1.3310519,1.580711 1.7545529,1.580711 z"
   inkscape:connector-curvature="0"
   style="fill:url(#id1)" />
    <path
   id="_359662864"
   class="fil20"
   d="m 1.75455,1.59566 c 0.408473,0 0.76656,0.080137 0.86467,0.155691 0.00896,0.067808 0.00443,0.034497 0.00694,0.062694 0,0.096987 -0.36182,0.137318 -0.846755,0.137318 -0.484935,0 -0.89588604,-0.049551 -0.89588604,-0.146538 0,-0.012287 0.003234,-0.035553 0.00765,-0.062636 C 0.97392106,1.662404 1.3310519,1.595661 1.7545529,1.595661 z"
   inkscape:connector-curvature="0"
   style="fill:url(#id7)" />
    <path
   id="_359663056"
   class="fil21"
   d="m 1.73512,1.43126 c 0.118305,0 0.216332,0.073852 0.244749,0.1494 0.00259,0.067808 0.00673,0.172083 0.00746,0.20028 0,0.096987 -0.109221,0.157302 -0.249674,0.157302 -0.140448,0 -0.254473,-0.063839 -0.254473,-0.160826 0,-0.012287 0.00592,-0.169668 0.00719,-0.196757 0.02397,-0.07978 0.122091,-0.1494 0.244749,-0.1494 z"
   inkscape:connector-curvature="0"
   style="fill:url(#id6)" />
    <path
   id="_359663248"
   class="fil22"
   d="m 1.75487,1.43429 c 0.118305,0 0.216332,0.073847 0.244749,0.1494 0.00259,0.067808 0.00673,0.172078 0.00746,0.200275 0,0.096987 -0.109221,0.157308 -0.249674,0.157308 -0.140448,0 -0.254473,-0.063844 -0.254473,-0.160831 0,-0.012287 0.00592,-0.169668 0.00719,-0.196752 0.02397,-0.079785 0.122091,-0.1494 0.244749,-0.1494 z"
   inkscape:connector-curvature="0"
   style="fill:url(#id25)" />
    <path
   id="_359663440"
   class="fil23"
   d="m 1.75487,1.43429 c 0.011294,0 0.022405,6.773e-4 0.03329,0.00196 -0.0077,-6.353e-4 -0.015505,-9.714e-4 -0.023397,-9.714e-4 -0.122658,0 -0.226387,0.069615 -0.250351,0.1494 -0.00128,0.027084 -0.0072,0.184465 -0.0072,0.196752 0,0.085509 0.094251,0.145241 0.21148,0.158185 -0.122107,-0.010596 -0.215765,-0.071269 -0.215765,-0.159172 0,-0.012287 0.00592,-0.169668 0.0072,-0.196752 0.023965,-0.079785 0.122086,-0.1494 0.244744,-0.1494 z"
   inkscape:connector-curvature="0"
   style="fill:#999966" />
    <g
   id="g8663">
     <path
   id="_359663704"
   class="fil24"
   d="m 1.56516,1.82472 c 0,0 0.10417,-0.162658 0.161403,-0.177156 0.00692,-0.00176 0.012486,-0.00198 0.020935,-0.00642 C 1.755148,1.629078 1.761943,1.63049 1.756318,1.575662 1.750698,1.520839 1.810091,1.54945 1.810091,1.54945 c 0,0 0.001,0.061838 0.020095,0.08596 0.00844,0.0021 0.02482,0.00568 0.031405,0.0086 0.071216,0.031541 0.103125,0.18071 0.103125,0.18071 l -0.04712,0 c 4.726e-4,0 -0.030811,-0.108817 -0.057023,-0.111411 -7.089e-4,0.055963 0.00571,0.072865 0.00768,0.111411 l -0.157271,0 c 0,0 -0.00213,-0.05141 -7.088e-4,-0.075495 0.00141,-0.024085 -0.069431,0.03162 -0.080059,0.075495 -0.036131,0 -0.065052,0 -0.065052,0 z"
   inkscape:connector-curvature="0"
   style="fill:url(#linearGradient8807)" />
     <path
   id="_356220568"
   class="fil25"
   d="m 1.9303,1.82472 -0.012696,0 c 0,0 -0.028449,-0.101965 -0.057023,-0.111411 -7.089e-4,0.055963 0.00571,0.072865 0.00768,0.111411 l -0.0178,0 c -0.00261,-0.036603 -0.00268,-0.097932 2.783e-4,-0.11946 0.00296,-0.021523 0.044343,-0.00743 0.079565,0.11946 z"
   inkscape:connector-curvature="0"
   style="fill:#7dc05c" />
     <path
   id="_356220760"
   class="fil25"
   d="m 1.71982,1.82472 -0.00883,0 c 0,0 -0.00213,-0.05141 -7.088e-4,-0.075495 0.00141,-0.024085 -0.069431,0.03162 -0.080058,0.075495 l -0.020252,0 c 0.026963,-0.04858 0.090255,-0.120253 0.102243,-0.095506 0.011988,0.024747 0.00528,0.047729 0.00761,0.095506 z"
   inkscape:connector-curvature="0"
   style="fill:#7dc05c" />
     <path
   id="_356220952"
   class="fil26"
   d="M 1.64941,1.71107 C 1.676383,1.679891 1.704853,1.653059 1.726565,1.647562 1.733485,1.645802 1.739051,1.645582 1.7475,1.641142 1.75515,1.629076 1.761945,1.630488 1.75632,1.57566 1.7507,1.520837 1.810093,1.549448 1.810093,1.549448 c 0,0 -0.00348,0.054944 0.015616,0.079066 0.00109,0.00231 0.00526,0.00853 0.011909,0.00899 -0.00916,0.00884 -0.010381,0.008 -0.03801,0.014503 C 1.771984,1.658507 1.697643,1.67101 1.671521,1.693378 1.665281,1.698728 1.657554,1.704846 1.64941,1.711073 z"
   inkscape:connector-curvature="0"
   style="fill:url(#id19)" />
     <path
   id="_356221144"
   class="fil27"
   d="m 1.56516,1.82472 c 0,0 0.10417,-0.162658 0.161403,-0.177156 0.00692,-0.00176 0.012486,-0.00198 0.020935,-0.00642 C 1.755148,1.629078 1.761943,1.63049 1.756318,1.575662 1.753398,1.547114 1.768095,1.541191 1.782861,1.542073 1.770065,1.5429079 1.754932,1.5418577 1.759033,1.581863 c 0.00411,0.040006 -0.00135,0.047388 -0.009,0.05946 -0.00845,0.00444 -0.011357,0.00448 -0.018278,0.00624 C 1.6745279,1.6620614 1.570353,1.82472 1.570353,1.82472 l -0.00519,0 z m 0.149563,0 -0.00374,0 c 0,0 -0.00155,-0.061991 -7.089e-4,-0.075495 1.156e-4,-0.00186 0.0014,0.00553 0.00195,0.019921 1.733e-4,0.00446 -0.00187,0.025781 0.0025,0.055574 z"
   inkscape:connector-curvature="0"
   style="fill:#74e9f0" />
     <path
   id="_356221336"
   class="fil28"
   d="m 1.70729,0.866203 0,0 C 1.798065,0.8551869 1.881348,0.9204382 1.892364,1.011213 1.908757,1.146315 1.905402,1.267629 1.941553,1.416509 1.95259,1.507473 1.887218,1.590582 1.796312,1.601614 1.705537,1.61263 1.62248,1.547347 1.611469,1.456572 1.607199,1.305996 1.584417,1.179043 1.562275,1.051276 1.551254,0.9605007 1.616515,0.877224 1.707291,0.866202 z"
   inkscape:connector-curvature="0"
   style="fill:url(#id21)" />
     <path
   id="_356221528"
   class="fil29"
   d="m 1.70727,0.866203 0,0 C 1.694516,0.867757 1.682261,0.870734 1.670651,0.874956 1.798308,0.8294213 1.839652,0.9384483 1.849119,1.016464 c 0.0039,0.055753 0.00766,0.1114 0.013232,0.16845 0.00469,0.048155 -0.00436,0.04156 0.025177,0.084086 0.00993,0.014293 0.016351,0.0825 0.017769,0.092933 0.00741,0.054335 -0.00284,0.067703 -0.00187,0.081513 5.094e-4,0.00726 0.00299,0.01455 0.00367,0.017354 C 1.916567,1.538832 1.851833,1.591077 1.759057,1.601841 1.864487,1.61312 1.954449,1.522848 1.941542,1.41651 1.90967,1.269289 1.90141,1.140572 1.892353,1.011214 1.881332,0.92043867 1.798049,0.855187 1.707274,0.866204 z"
   inkscape:connector-curvature="0"
   style="fill:url(#id20)" />
     <path
   id="_356221720"
   class="fil25"
   d="m 1.70728,0.866203 0,0 C 1.720039,0.864654 1.732652,0.864612 1.744928,0.86593521 1.673938,0.89176371 1.627069,0.96424531 1.636536,1.0422612 c 0.00955,0.055075 0.019207,0.110004 0.027451,0.166728 0.00696,0.047877 -0.016871,0.043077 -0.03538,0.091437 -0.00622,0.016251 0.00386,0.084007 0.00498,0.094482 0.00581,0.054529 0.031174,0.065719 0.033537,0.07936 0.00124,0.00717 5.724e-4,0.014833 5.881e-4,0.017727 0.00947,0.078032 0.072613,0.112624 0.165268,0.100872 -0.09967,0.036172 -0.208613,-0.029956 -0.221519,-0.136294 -0.00427,-0.150576 -0.027047,-0.277529 -0.049189,-0.405296 -0.011016,-0.0907753 0.054235,-0.17405799 0.14501,-0.18507399 z"
   inkscape:connector-curvature="0"
   style="fill:#7dc05c" />
     <g
   id="g8673">
      <path
   id="_356221984"
   class="fil30"
   d="M 1.90929,1.20229 C 1.881755,1.19151 1.777286,1.19335 1.787378,1.29935 1.794548,1.374662 1.921031,1.322438 1.90929,1.20229 z"
   inkscape:connector-curvature="0"
   style="fill:url(#id12)" />
      <path
   id="_356222176"
   class="fil31"
   d="M 1.90929,1.20872 C 1.8835035,1.2031752 1.798578,1.2342282 1.793626,1.3000624 1.7886955,1.3656182 1.908901,1.311089 1.90929,1.20872 z"
   inkscape:connector-curvature="0"
   style="fill:url(#id14)" />
      <path
   id="_356222368"
   class="fil32"
   d="M 1.85034,1.23012 C 1.84258,1.23406 1.817906,1.252819 1.817622,1.261388 1.8173385,1.269918 1.852077,1.242144 1.85034,1.23012 z"
   inkscape:connector-curvature="0"
   style="fill:#c1ffff" />
      <g
   id="g8678">
       <path
   id="_356222632"
   class="fil33"
   d="M 1.63717,1.23988 C 1.661639,1.221917 1.763467,1.195254 1.775937,1.300925 1.784807,1.376006 1.651011,1.359739 1.63717,1.23988 z"
   inkscape:connector-curvature="0"
   style="fill:url(#linearGradient8809)" />
       <path
   id="_356222824"
   class="fil34"
   d="M 1.63852,1.24613 C 1.662395,1.233717 1.751375,1.24074 1.770025,1.303316 1.7885917,1.3656322 1.66041,1.3454273 1.63852,1.24613 z"
   inkscape:connector-curvature="0"
   style="fill:url(#linearGradient8811)" />
       <path
   id="_356223016"
   class="fil32"
   d="M 1.70026,1.25085 C 1.70862,1.25257 1.736522,1.264056 1.738601,1.272299 1.740661,1.280509 1.7011,1.262999 1.70026,1.25085 z"
   inkscape:connector-curvature="0"
   style="fill:#c1ffff" />
      </g>
     </g>
     <path
   id="_356221960"
   class="fil35"
   d="M 1.73586,0.865221 C 1.697382,0.872499 1.655681,0.8838245 1.614005,0.9409161 1.568859,1.0027544 1.579739,1.0799351 1.592577,1.1790651 c 0.012838,0.099129 0.00637,0.073731 0.00394,0.088896 C 1.587107,1.1931851 1.57459,1.1223571 1.562271,1.0512781 1.551255,0.9605028 1.616506,0.8772201 1.707281,0.8662041 l 0,0 c 0.00964,-0.001171 0.019186,-0.00147 0.028575,-9.8189e-4 z"
   inkscape:connector-curvature="0"
   style="fill:#3c682d" />
     <g
   id="g8684">
      <path
   id="_356223424"
   class="fil36"
   d="M 1.87464,1.38182 C 1.900983,1.37817 1.89987,1.359079 1.89987,1.359079 1.89845,1.3595726 1.90765,1.339887 1.78606,1.356099 1.664463,1.372313 1.679244,1.389567 1.679244,1.389567 c 0,0 0.00293,0.018845 0.029278,0.015201 C 1.786821,1.393951 1.796346,1.392639 1.874641,1.381822 z"
   inkscape:connector-curvature="0"
   style="fill:url(#id18)" />
      <path
   id="_356223616"
   class="fil37"
   d="m 1.67904,1.38764 c 0,0 0.00293,0.018845 0.029273,0.015206 C 1.734667,1.399206 1.818038,1.387687 1.818038,1.387687 M 1.899672,1.357159 c 0,0 0.00111,0.019102 -0.025235,0.022736 -0.026354,0.00364 -0.10972,0.015159 -0.10972,0.015159"
   inkscape:connector-curvature="0"
   style="fill:none" />
      <path
   id="_356223808"
   class="fil38"
   d="M 1.70811,1.40092 1.764887,1.39469 1.818203,1.38732 1.874223,1.37797 C 1.892349,1.37509 1.896502,1.36993 1.901348,1.357082 c 5.3e-6,5.77e-5 0.0012,0.020888 -0.026711,0.024747 -0.018625,0.00428 -0.037244,0.00857 -0.055863,0.012854 -0.01685,0.00557 -0.034603,0.00809 -0.053316,0.00736 L 1.708519,1.404773 C 1.680601,1.408633 1.67777,1.38964 1.67776,1.389582 1.68336,1.399947 1.687983,1.403523 1.708109,1.400918 z"
   inkscape:connector-curvature="0"
   style="fill:#224827;fill-rule:nonzero" />
      <path
   id="_356223928"
   class="fil39"
   d="M 1.8301,1.40304 C 1.84182,1.40142 1.844246,1.420331 1.844246,1.420331 1.8435739,1.4201315 1.815125,1.437564 1.795955,1.440788 1.776774,1.444028 1.74612,1.433898 1.74612,1.433898 c 0,0 -0.00162,-0.019034 0.010103,-0.020656 0.034818,-0.0048 0.039055,-0.0054 0.073878,-0.010202 z"
   inkscape:connector-curvature="0"
   style="fill:url(#id16)" />
     </g>
     <g
   id="g8690">
      <g
   id="g8692">
       <path
   id="_356224240"
   class="fil40"
   d="M 1.80538,1.34006 C 1.80222,1.3393774 1.791812,1.34318 1.791203,1.351255 1.7905992,1.359285 1.805333,1.352605 1.80538,1.34006 z"
   inkscape:connector-curvature="0"
   style="fill:#61a53e" />
       <path
   id="_356224432"
   class="fil41"
   d="M 1.79935,1.34448 C 1.799308,1.33993 1.79145,1.3468 1.79159,1.35152 1.7918,1.35844 1.79939,1.34904 1.79935,1.34448 z"
   inkscape:connector-curvature="0"
   style="fill:#528c36" />
      </g>
      <g
   id="g8696">
       <path
   id="_357052352"
   class="fil40"
   d="M 1.76678,1.34539 C 1.7697,1.34387 1.780611,1.3447284 1.782895,1.3524 1.785165,1.36003 1.769463,1.35756 1.76678,1.34539 z"
   inkscape:connector-curvature="0"
   style="fill:#61a53e" />
       <path
   id="_357052544"
   class="fil41"
   d="M 1.77356,1.34805 C 1.7726411,1.34362 1.78172,1.3481445 1.78257,1.35277 1.78382,1.35954 1.77448,1.352476 1.77356,1.34805 z"
   inkscape:connector-curvature="0"
   style="fill:#528c36" />
      </g>
     </g>
     <path
   id="_356224144"
   class="fil40"
   d="M 1.94041,1.41175 C 1.9407881,1.41334 1.9411661,1.41492 1.94155,1.41651 1.952587,1.507479 1.887215,1.5905779 1.796309,1.60161 1.705534,1.612631 1.622477,1.547349 1.611461,1.456573 c -5.25e-5,-0.00185 -1.103e-4,-0.00369 -1.681e-4,-0.00553 0.016876,0.084049 0.097811,0.154971 0.184276,0.14448 0.08638,-0.010486 0.148219,-0.098231 0.144837,-0.183772 z"
   inkscape:connector-curvature="0"
   style="fill:#61a53e" />
     <path
   id="_357052328"
   class="fil27"
   d="M 1.71265,0.865652 C 1.618047,0.8775345 1.555274,0.9618356 1.56607,1.050815 1.588212,1.178582 1.613117,1.305278 1.617391,1.455854 1.628187,1.544833 1.702427,1.615724 1.801656,1.600864 1.7091427,1.6151251 1.622731,1.5494695 1.611457,1.456573 1.6071881,1.305997 1.5844103,1.179044 1.5622678,1.051277 1.5509786,0.9582807 1.6195327,0.873917 1.7126498,0.865652 z"
   inkscape:connector-curvature="0"
   style="fill:#74e9f0" />
    </g>
    <path
   id="_359663680"
   class="fil11"
   d="m 1.80539,1.80619 c 0.421122,-0.00514 0.45113,0.153674 0.815591,-0.059654 0.00907,0.067808 0.00436,0.03927 0.00689,0.067467 0,0.096987 -0.381799,0.157308 -0.872762,0.157308 -0.490963,0 -0.87388004,-0.060321 -0.87388004,-0.157308 0,-0.012287 0.001124,-0.02963 0.005592,-0.056719 C 1.2555249,1.996057 1.3842629,1.81133 1.8053849,1.80619 z"
   inkscape:connector-curvature="0"
   style="fill:#ffffff" />
    <path
   id="_357053240"
   class="fil42"
   d="m 1.80539,1.80992 c 0.421122,-0.00514 0.45113,0.153674 0.815591,-0.059654 0.00907,0.067808 0.00436,0.03927 0.00689,0.067467 0,0.096992 -0.381799,0.157308 -0.872762,0.157308 -0.490963,0 -0.87388004,-0.060316 -0.87388004,-0.157308 0,-0.012287 0.001124,-0.02963 0.005592,-0.056714 0.36870394,0.238768 0.49744194,0.054041 0.91856394,0.0489 z"
   inkscape:connector-curvature="0"
   style="fill:url(#id0)" />
    <path
   id="_357053432"
   class="fil6"
   d="M 0.885237,1.77122 0.002058,1.883282 0.881808,1.808516 0.885237,1.77122 z M 2.623697,1.76831 3.509118,1.883533 2.627126,1.805612 2.623696,1.768311 z M 1.743065,1.975043 1.81479,1.974665 1.78684,2.234378 1.743064,1.975043 z"
   inkscape:connector-curvature="0"
   style="fill:#669999" />
    <path
   id="_357053624"
   class="fil43"
   d="M 0.884665,1.78044 0,1.883528 0.881236,1.817736 0.884665,1.78044 z m 1.73978,0 L 3.50911,1.883528 2.627874,1.817736 2.624444,1.78044 z M 1.750964,1.975039 1.8226947,1.9746609 1.786832,2.2343739 1.750964,1.9750389 z"
   inkscape:connector-curvature="0"
   style="fill:#e6e6e6" />
    <g
   id="g8706">
     <path
   id="_357053888"
   class="fil44 str2"
   d="m 2.92089,2.01994 c 0.036535,0 0.064301,0.016844 0.064301,0.00762 0,-0.00923 -0.02962,-0.046994 -0.06616,-0.046994 -0.036535,0 -0.066154,0.037769 -0.066154,0.046994 0,0.00922 0.031473,-0.00762 0.068013,-0.00762 z"
   inkscape:connector-curvature="0"
   style="fill:#d0e8e8;stroke:#ffffff;stroke-width:0.00400108" />
     <path
   id="_357054080"
   class="fil7"
   d="m 2.91903,2.02823 c 0.03654,0 0.06616,-0.00788 0.06616,0 0,0.00788 -0.02962,0.014277 -0.06616,0.014277 -0.036535,0 -0.066154,-0.0064 -0.066154,-0.014277 0,-0.00788 0.02962,0 0.066154,0 z"
   inkscape:connector-curvature="0"
   style="fill:#336666" />
     <ellipse
   id="_357054272"
   class="fil6"
   cx="2.91904"
   cy="2.02756"
   rx="0.066159002"
   ry="0.0136027"
   sodipodi:cx="2.91904"
   sodipodi:cy="2.02756"
   sodipodi:rx="0.066159002"
   sodipodi:ry="0.0136027"
   style="fill:#669999"
   d="m 2.985199,2.02756 c 0,0.00751 -0.02962,0.013603 -0.066159,0.013603 -0.036539,0 -0.066159,-0.00609 -0.066159,-0.013603 0,-0.00751 0.02962,-0.013603 0.066159,-0.013603 0.036539,0 0.066159,0.00609 0.066159,0.013603 z" />
    </g>
    <g
   id="g8711">
     <path
   id="_357054440"
   class="fil44 str2"
   d="m 2.35988,2.12604 c 0.036535,0 0.064301,0.016844 0.064301,0.00762 0,-0.00922 -0.02962,-0.046994 -0.06616,-0.046994 -0.036535,0 -0.066154,0.037774 -0.066154,0.046994 0,0.00922 0.031473,-0.00762 0.068013,-0.00762 z"
   inkscape:connector-curvature="0"
   style="fill:#d0e8e8;stroke:#ffffff;stroke-width:0.00400108" />
     <path
   id="_357054632"
   class="fil7"
   d="m 2.35802,2.13433 c 0.03654,0 0.06616,-0.00788 0.06616,0 0,0.00789 -0.02962,0.014277 -0.06616,0.014277 -0.036535,0 -0.066154,-0.00639 -0.066154,-0.014277 0,-0.00788 0.02962,0 0.066154,0 z"
   inkscape:connector-curvature="0"
   style="fill:#336666" />
     <ellipse
   id="_357054824"
   class="fil6"
   cx="2.3580201"
   cy="2.1336601"
   rx="0.066159002"
   ry="0.0136027"
   sodipodi:cx="2.3580201"
   sodipodi:cy="2.1336601"
   sodipodi:rx="0.066159002"
   sodipodi:ry="0.0136027"
   style="fill:#669999"
   d="m 2.4241791,2.1336601 c 0,0.00751 -0.02962,0.013603 -0.066159,0.013603 -0.036539,0 -0.066159,-0.00609 -0.066159,-0.013603 0,-0.00751 0.02962,-0.013603 0.066159,-0.013603 0.036539,0 0.066159,0.00609 0.066159,0.013603 z" />
    </g>
    <g
   id="g8716">
     <path
   id="_357054992"
   class="fil44 str2"
   d="m 0.598293,2.01994 c -0.0365348,0 -0.0643009,0.016844 -0.0643009,0.00762 0,-0.00923 0.0296196,-0.046994 0.0661597,-0.046994 0.0365348,0 0.0661544,0.037769 0.0661544,0.046994 0,0.00922 -0.0314731,-0.00762 -0.0680132,-0.00762 z"
   inkscape:connector-curvature="0"
   style="fill:#d0e8e8;stroke:#ffffff;stroke-width:0.00400108" />
     <path
   id="_357055184"
   class="fil7"
   d="m 0.600152,2.02823 c -0.0365401,0 -0.0661597,-0.00788 -0.0661597,0 0,0.00788 0.0296196,0.014277 0.0661597,0.014277 0.0365348,0 0.0661544,-0.0064 0.0661544,-0.014277 0,-0.00788 -0.0296196,0 -0.0661544,0 z"
   inkscape:connector-curvature="0"
   style="fill:#336666" />
     <ellipse
   id="_357055376"
   class="fil6"
   cx="0.60014999"
   cy="2.02756"
   rx="0.066159002"
   ry="0.0136027"
   sodipodi:cx="0.60014999"
   sodipodi:cy="2.02756"
   sodipodi:rx="0.066159002"
   sodipodi:ry="0.0136027"
   style="fill:#669999"
   d="m 0.66630899,2.02756 c 0,0.00751 -0.0296204,0.013603 -0.066159,0.013603 -0.0365386,0 -0.066159,-0.00609 -0.066159,-0.013603 0,-0.00751 0.0296204,-0.013603 0.066159,-0.013603 0.0365386,0 0.066159,0.00609 0.066159,0.013603 z" />
    </g>
    <g
   id="g8721">
     <path
   id="_357055544"
   class="fil44 str2"
   d="m 1.15931,2.12604 c -0.036535,0 -0.064301,0.016844 -0.064301,0.00762 0,-0.00922 0.02962,-0.046994 0.06616,-0.046994 0.036535,0 0.066154,0.037774 0.066154,0.046994 0,0.00922 -0.031473,-0.00762 -0.068013,-0.00762 z"
   inkscape:connector-curvature="0"
   style="fill:#d0e8e8;stroke:#ffffff;stroke-width:0.00400108" />
     <path
   id="_357055736"
   class="fil7"
   d="m 1.16117,2.13433 c -0.03654,0 -0.06616,-0.00788 -0.06616,0 0,0.00789 0.02962,0.014277 0.06616,0.014277 0.036535,0 0.066154,-0.00639 0.066154,-0.014277 0,-0.00788 -0.02962,0 -0.066154,0 z"
   inkscape:connector-curvature="0"
   style="fill:#336666" />
     <ellipse
   id="_357055928"
   class="fil6"
   cx="1.16116"
   cy="2.1336601"
   rx="0.066159002"
   ry="0.0136027"
   sodipodi:cx="1.16116"
   sodipodi:cy="2.1336601"
   sodipodi:rx="0.066159002"
   sodipodi:ry="0.0136027"
   style="fill:#669999"
   d="m 1.227319,2.1336601 c 0,0.00751 -0.02962,0.013603 -0.066159,0.013603 -0.036539,0 -0.066159,-0.00609 -0.066159,-0.013603 0,-0.00751 0.02962,-0.013603 0.066159,-0.013603 0.036539,0 0.066159,0.00609 0.066159,0.013603 z" />
    </g>
    <g
   id="g8726">
     <path
   id="_357056096"
   class="fil44 str2"
   d="m 2.84973,1.72088 c 0.034298,0 0.060363,0.01581 0.060363,0.00716 0,-0.00865 -0.027808,-0.044112 -0.062106,-0.044112 -0.034298,0 -0.062106,0.035458 -0.062106,0.044112 0,0.00865 0.029546,-0.00716 0.063849,-0.00716 z"
   inkscape:connector-curvature="0"
   style="fill:#d0e8e8;stroke:#ffffff;stroke-width:0.00400108" />
     <path
   id="_358863424"
   class="fil7"
   d="m 2.84799,1.72866 c 0.034298,0 0.062106,-0.0074 0.062106,0 0,0.0074 -0.027808,0.0134 -0.062106,0.0134 -0.034298,0 -0.062106,-0.006 -0.062106,-0.0134 0,-0.0074 0.027808,0 0.062106,0 z"
   inkscape:connector-curvature="0"
   style="fill:#336666" />
     <ellipse
   id="_358863616"
   class="fil6"
   cx="2.84799"
   cy="1.72803"
   rx="0.062105101"
   ry="0.0127692"
   sodipodi:cx="2.84799"
   sodipodi:cy="1.72803"
   sodipodi:rx="0.062105101"
   sodipodi:ry="0.0127692"
   style="fill:#669999"
   d="m 2.9100951,1.72803 c 0,0.00705 -0.027805,0.012769 -0.062105,0.012769 -0.0343,0 -0.062105,-0.00572 -0.062105,-0.012769 0,-0.00705 0.027805,-0.012769 0.062105,-0.012769 0.0343,0 0.062105,0.00572 0.062105,0.012769 z" />
    </g>
    <g
   id="g8731">
     <path
   id="_358863784"
   class="fil44 str2"
   d="m 0.669452,1.72088 c -0.034298,0 -0.0603628,0.01581 -0.0603628,0.00716 0,-0.00865 0.0278081,-0.044112 0.0621061,-0.044112 0.034298,0 0.0621061,0.035458 0.0621061,0.044112 0,0.00865 -0.0295461,-0.00716 -0.0638493,-0.00716 z"
   inkscape:connector-curvature="0"
   style="fill:#d0e8e8;stroke:#ffffff;stroke-width:0.00400108" />
     <path
   id="_358863976"
   class="fil7"
   d="m 0.671195,1.72866 c -0.034298,0 -0.0621061,-0.0074 -0.0621061,0 0,0.0074 0.0278081,0.0134 0.0621061,0.0134 0.034298,0 0.0621061,-0.006 0.0621061,-0.0134 0,-0.0074 -0.0278081,0 -0.0621061,0 z"
   inkscape:connector-curvature="0"
   style="fill:#336666" />
     <ellipse
   id="_358864168"
   class="fil6"
   cx="0.67119497"
   cy="1.72803"
   rx="0.062105101"
   ry="0.0127692"
   sodipodi:cx="0.67119497"
   sodipodi:cy="1.72803"
   sodipodi:rx="0.062105101"
   sodipodi:ry="0.0127692"
   style="fill:#669999"
   d="m 0.73330007,1.72803 c 0,0.00705 -0.0278054,0.012769 -0.0621051,0.012769 -0.0342997,0 -0.0621051,-0.00572 -0.0621051,-0.012769 0,-0.00705 0.0278054,-0.012769 0.0621051,-0.012769 0.0342997,0 0.0621051,0.00572 0.0621051,0.012769 z" />
    </g>
    <path
   id="_358863760"
   class="fil45"
   d="m 1.43798,0.948289 c 0,0 -0.322817,0.165084 -0.342996,0.508831 0.030076,-0.00818 0.077612,-0.019207 0.077612,-0.019207 0,0 -0.02606,-0.294563 0.265384,-0.489624 z"
   inkscape:connector-curvature="0"
   style="fill:#cc99ff" />
    <path
   id="_358864456"
   class="fil46"
   d="m 2.05111,0.948289 c 0,0 0.322822,0.165084 0.342996,0.508831 C 2.36403,1.44894 2.316494,1.437913 2.316494,1.437913 c 0,0 0.02606,-0.294563 -0.265384,-0.489624 z"
   inkscape:connector-curvature="0"
   style="fill:#cc99cc" />
    <path
   id="_358864648"
   class="fil47"
   d="M 0.884812,1.82358 C 0.883484,1.82164 0.88225,1.8197 0.881236,1.81774 0.88321,1.792657 0.885846,1.767832 0.889028,1.743247 c 2.9404e-4,-0.00228 5.5133e-4,-0.00457 8.5587e-4,-0.00685 8.2438e-4,-0.00613 0.001727,-0.012229 0.002625,-0.018325 4.3582e-4,-0.00299 8.5063e-4,-0.00599 0.001307,-0.00896 8.8738e-4,-0.0058 0.001843,-0.011562 0.002793,-0.017322 5.4082e-4,-0.00326 0.001061,-0.00652 0.001622,-0.00977 9.6089e-4,-0.00558 0.00198,-0.011132 0.003003,-0.016682 6.2485e-4,-0.00339 0.001244,-0.00679 0.001896,-0.010171 0.001045,-0.00546 0.002142,-0.010895 0.00325,-0.01633 6.9835e-4,-0.00342 0.001391,-0.00685 0.002111,-0.01025 0.001124,-0.0053 0.002289,-0.010586 0.003466,-0.015857 7.8762e-4,-0.00353 0.00158,-0.00705 0.002394,-0.01057 0.001187,-0.00515 0.002405,-0.010271 0.003649,-0.015385 8.7163e-4,-0.00359 0.001754,-0.00716 0.002652,-0.010733 0.001292,-0.00513 0.002604,-0.010239 0.003943,-0.015338 8.9789e-4,-0.00341 0.001822,-0.00681 0.002741,-0.010207 0.001386,-0.00512 0.002793,-0.010228 0.004237,-0.015311 9.7665e-4,-0.00345 0.001985,-0.00689 0.002988,-0.010328 0.001465,-0.005 0.002935,-0.010003 0.004442,-0.014975 0.001008,-0.0033 0.002043,-0.00658 0.003072,-0.00987 0.001612,-0.00517 0.00324,-0.010333 0.004904,-0.015464 9.3988e-4,-0.00289 0.001917,-0.00575 0.002872,-0.00863 0.001796,-0.00538 0.003586,-0.010759 0.00544,-0.016099 9.2939e-4,-0.00268 0.001906,-0.00534 0.002851,-0.00801 0.001932,-0.00546 0.003865,-0.010916 0.00586,-0.016335 8.6112e-4,-0.00233 0.001759,-0.00463 0.002631,-0.00695 0.00774,-0.020614 0.0159098,-0.040898 0.0245421,-0.060799 l 9.9764e-4,-0.00234 c 0.002379,-0.00546 0.004825,-0.010864 0.007272,-0.016262 0.001024,-0.00226 0.002027,-0.00454 0.003056,-0.00679 0.00226,-0.00492 0.00459,-0.00979 0.00691,-0.01466 0.00131,-0.00277 0.0026,-0.00554 0.00394,-0.00829 0.00217,-0.00449 0.0044,-0.00892 0.00662,-0.013369 0.00153,-0.00306 0.00305,-0.00614 0.0046,-0.00918 0.00223,-0.00437 0.0045,-0.0087 0.00677,-0.013027 0.00157,-0.00298 0.00313,-0.00597 0.00472,-0.00894 0.00226,-0.00422 0.00456,-0.00841 0.00687,-0.012591 0.00173,-0.00313 0.00346,-0.00627 0.00521,-0.00938 0.00229,-0.00407 0.00461,-0.0081 0.00694,-0.012129 0.00174,-0.003 0.00348,-0.006 0.00524,-0.00897 0.0024,-0.00406 0.00483,-0.00811 0.00726,-0.012129 0.00182,-0.003 0.00365,-0.00598 0.00549,-0.00895 0.00242,-0.00391 0.00485,-0.00779 0.00731,-0.011657 0.0019,-0.00298 0.00381,-0.00594 0.00573,-0.0089 0.00248,-0.00383 0.00498,-0.00765 0.0075,-0.011431 0.00195,-0.00292 0.00391,-0.00581 0.00588,-0.0087 0.00254,-0.00373 0.00507,-0.00745 0.00764,-0.011132 0.00208,-0.00299 0.0042,-0.00593 0.00631,-0.00889 0.0025,-0.00352 0.005,-0.00704 0.00754,-0.010507 0.00216,-0.00296 0.00435,-0.00587 0.00653,-0.00879 0.00258,-0.00347 0.00516,-0.00695 0.00778,-0.010365 0.00216,-0.00283 0.00436,-0.00561 0.00654,-0.0084 0.00268,-0.00342 0.00533,-0.00687 0.00804,-0.010244 0.00193,-0.0024 0.00391,-0.00477 0.00585,-0.00715 0.010533,-0.012917 0.021308,-0.025487 0.032324,-0.037711 0.00234,-0.0026 0.00465,-0.00522 0.007,-0.00779 0.00281,-0.00305 0.00565,-0.00603 0.0085,-0.00904 0.00247,-0.00261 0.00491,-0.00525 0.0074,-0.00783 0.00274,-0.00284 0.00552,-0.00562 0.00829,-0.00842 0.00265,-0.00268 0.00529,-0.00538 0.00796,-0.00802 0.00276,-0.00273 0.00556,-0.0054 0.00834,-0.00809 0.00271,-0.00261 0.00541,-0.00524 0.00814,-0.007808 0.00278,-0.002615 0.00559,-0.005183 0.00839,-0.007755 0.0028,-0.002573 0.0056,-0.005146 0.00843,-0.007677 0.00282,-0.002536 0.00568,-0.00503 0.00853,-0.007519 0.00281,-0.002457 0.00562,-0.004904 0.00846,-0.00732 0.00292,-0.002489 0.00585,-0.004941 0.0088,-0.007383 0.00286,-0.002368 0.00572,-0.00472 0.0086,-0.007052 0.00289,-0.002337 0.0058,-0.004652 0.00871,-0.006952 0.00302,-0.002373 0.00605,-0.004726 0.00909,-0.007062 0.00287,-0.0022 0.00575,-0.00439 0.00864,-0.006548 0.00301,-0.002258 0.00605,-0.004474 0.00909,-0.006684 l 0.00349,-0.002526 -0.00211,0.001601 c -0.00295,0.002258 -0.00589,0.004547 -0.00882,0.006847 -0.00311,0.002436 -0.00621,0.004899 -0.00929,0.007383 -0.00298,0.002405 -0.00594,0.004825 -0.00889,0.007267 -0.00294,0.002436 -0.00585,0.004894 -0.00877,0.007377 -0.003,0.002547 -0.006,0.005114 -0.00898,0.007713 -0.00289,0.002531 -0.00577,0.005083 -0.00864,0.007656 -0.00291,0.002599 -0.00583,0.005214 -0.00871,0.00786 -0.00289,0.002652 -0.00574,0.00534 -0.00861,0.008028 -0.00286,0.002688 -0.00572,0.005377 -0.00856,0.008107 -0.00279,0.002694 -0.00556,0.005429 -0.00832,0.008165 -0.00285,0.00281 -0.0057,0.00561 -0.00852,0.00846 -0.00273,0.00276 -0.00542,0.00558 -0.00812,0.00838 -0.00282,0.00293 -0.00566,0.00583 -0.00846,0.00881 -0.00254,0.0027 -0.00504,0.00546 -0.00756,0.00819 -0.0029,0.00314 -0.00581,0.00626 -0.00867,0.00945 -0.0024,0.00268 -0.00477,0.00543 -0.00715,0.00814 -0.011242,0.012786 -0.022242,0.025928 -0.032996,0.039433 -0.00198,0.00249 -0.004,0.00496 -0.00597,0.00748 -0.00276,0.00353 -0.00548,0.00713 -0.00821,0.010706 -0.00223,0.00292 -0.00448,0.00583 -0.00668,0.00878 -0.00267,0.00358 -0.0053,0.00721 -0.00794,0.010838 -0.00223,0.00307 -0.00446,0.0061 -0.00667,0.00919 -0.00259,0.00363 -0.00514,0.00731 -0.00769,0.010979 -0.00216,0.0031 -0.00432,0.00618 -0.00644,0.0093 -0.00263,0.00385 -0.00521,0.00774 -0.0078,0.011641 -0.00201,0.00302 -0.00401,0.00605 -0.006,0.00909 -0.00257,0.00396 -0.00512,0.00795 -0.00766,0.011956 -0.00196,0.00309 -0.00391,0.00619 -0.00584,0.0093 -0.00251,0.00404 -0.00499,0.0081 -0.00746,0.012187 -0.00187,0.00311 -0.00375,0.00622 -0.0056,0.00936 -0.00249,0.00421 -0.00496,0.00843 -0.00741,0.012681 -0.0018,0.00311 -0.00358,0.00624 -0.00534,0.00938 -0.00238,0.00421 -0.00475,0.00843 -0.00708,0.012686 -0.00179,0.00325 -0.00356,0.00653 -0.00532,0.00981 -0.00235,0.00437 -0.0047,0.00875 -0.00702,0.013164 -0.00162,0.0031 -0.00321,0.00622 -0.00481,0.00934 -0.00232,0.00453 -0.00465,0.00905 -0.00692,0.013621 -0.00159,0.00318 -0.00313,0.0064 -0.0047,0.0096 -0.00226,0.00465 -0.00454,0.00928 -0.00676,0.013977 -0.00136,0.00287 -0.00268,0.00578 -0.00402,0.00866 -0.00237,0.0051 -0.00475,0.010186 -0.00706,0.015332 -0.00105,0.00235 -0.00207,0.00474 -0.00311,0.0071 -0.0025,0.00564 -0.004999,0.011294 -0.00743,0.017002 l -0.001013,0.00244 c -0.008816,0.020809 -0.0171595,0.042011 -0.0250567,0.063571 -8.9263e-4,0.00243 -0.001806,0.00483 -0.002683,0.00726 -0.002043,0.00567 -0.004017,0.011373 -0.005991,0.017081 -9.6089e-4,0.00279 -0.001953,0.00557 -0.002909,0.00838 -0.00189,0.00559 -0.003718,0.01121 -0.00555,0.016839 -9.7664e-4,0.003 -0.001974,0.006 -0.00293,0.00902 -0.001707,0.00537 -0.00336,0.010764 -0.005014,0.016167 -0.001045,0.00344 -0.0021,0.00687 -0.003129,0.010318 -0.001544,0.0052 -0.00304,0.010423 -0.004537,0.015653 -0.001019,0.0036 -0.002053,0.00719 -0.003051,0.010801 -0.001475,0.00532 -0.002909,0.010654 -0.004327,0.01601 -9.3989e-4,0.00355 -0.001875,0.0071 -0.002793,0.010675 -0.00137,0.00533 -0.002709,0.010675 -0.004027,0.016031 -9.1363e-4,0.00374 -0.001817,0.00748 -0.002704,0.011226 -0.001276,0.00535 -0.00252,0.010706 -0.003733,0.016083 -8.2437e-4,0.00368 -0.001638,0.00736 -0.002442,0.011053 -0.001202,0.00551 -0.002389,0.011037 -0.003534,0.016582 -7.4036e-4,0.00356 -0.001444,0.00714 -0.002158,0.010717 -0.001134,0.00568 -0.002253,0.011363 -0.003324,0.01707 -6.5634e-4,0.00353 -0.001292,0.00709 -0.001927,0.010633 -0.00105,0.00581 -0.00209,0.011609 -0.003072,0.017448 -5.7233e-4,0.00339 -0.001103,0.0068 -0.001654,0.010202 -9.7139e-4,0.00603 -0.001948,0.012056 -0.002856,0.018115 -4.6207e-4,0.00312 -8.8738e-4,0.00625 -0.001334,0.00937 -9.1363e-4,0.00638 -0.001838,0.012749 -0.002678,0.01916 -3.0979e-4,0.00238 -5.7758e-4,0.00477 -8.7688e-4,0.00716 -0.002137,0.016923 -0.004033,0.033957 -0.005655,0.0511 z"
   inkscape:connector-curvature="0"
   style="fill:#2b1f46" />
    <rect
   id="_358864840"
   class="fil7"
   x="1.7735"
   y="2.23441"
   width="0.020774201"
   height="0.237094"
   style="fill:#336666" />
    <rect
   id="_358864984"
   class="fil6"
   x="1.77696"
   y="2.23441"
   width="0.020774201"
   height="0.237094"
   style="fill:#669999" />
    <polygon
   id="_358865128"
   class="fil7"
   points="0.531341,2.35116 0.510564,2.34596 0.510564,2.13105 0.531341,2.13577 "
   style="fill:#336666" />
    <polygon
   id="_358865320"
   class="fil6"
   points="0.534801,2.35192 0.514029,2.34698 0.514029,2.13164 0.534801,2.13577 "
   style="fill:#669999" />
    <polygon
   id="_358865512"
   class="fil7"
   points="3.05385,2.33789 3.07492,2.33261 3.07492,2.11467 3.05385,2.11946 "
   style="fill:#336666" />
    <polygon
   id="_358865704"
   class="fil6"
   points="3.05034,2.33866 3.07141,2.33365 3.07141,2.11527 3.05034,2.11946 "
   style="fill:#669999" />
    <g
   id="g8745">
     <path
   id="_358865968"
   class="fil44 str2"
   d="m 1.79516,2.15697 c 0.03654,0 0.064306,0.016845 0.064306,0.00762 0,-0.00922 -0.02962,-0.046989 -0.06616,-0.046989 -0.036535,0 -0.06616,0.037769 -0.06616,0.046989 0,0.00923 0.031478,-0.00762 0.068013,-0.00762 z"
   inkscape:connector-curvature="0"
   style="fill:#d0e8e8;stroke:#ffffff;stroke-width:0.00400108" />
     <path
   id="_358866160"
   class="fil7"
   d="m 1.79331,2.16526 c 0.03654,0 0.06616,-0.00788 0.06616,0 0,0.00788 -0.02962,0.014277 -0.06616,0.014277 -0.036535,0 -0.06616,-0.0064 -0.06616,-0.014277 0,-0.00788 0.029625,0 0.06616,0 z"
   inkscape:connector-curvature="0"
   style="fill:#336666" />
     <ellipse
   id="_358866352"
   class="fil6"
   cx="1.79331"
   cy="2.1645899"
   rx="0.066159002"
   ry="0.0136027"
   sodipodi:cx="1.79331"
   sodipodi:cy="2.1645899"
   sodipodi:rx="0.066159002"
   sodipodi:ry="0.0136027"
   style="fill:#669999"
   d="m 1.859469,2.1645899 c 0,0.00751 -0.02962,0.013603 -0.066159,0.013603 -0.036539,0 -0.066159,-0.00609 -0.066159,-0.013603 0,-0.00751 0.02962,-0.013603 0.066159,-0.013603 0.036539,0 0.066159,0.00609 0.066159,0.013603 z" />
    </g>
    <rect
   id="_358865944"
   class="fil7"
   transform="matrix(0.712099,0.0651732,0,0.751342,1.06127,2.20641)"
   width="0.0291733"
   height="0.315561"
   x="0"
   y="0"
   style="fill:#336666" />
    <rect
   id="_358866592"
   class="fil6"
   transform="matrix(0.712099,0.0651732,0,0.751342,1.06474,2.20672)"
   width="0.0291733"
   height="0.315561"
   x="0"
   y="0"
   style="fill:#669999" />
    <rect
   id="_358866736"
   class="fil7"
   transform="matrix(-0.712099,0.0658208,0,0.758808,2.48741,2.20242)"
   width="0.0291733"
   height="0.315561"
   x="0"
   y="0"
   style="fill:#336666" />
    <rect
   id="_358866880"
   class="fil6"
   transform="matrix(-0.712099,0.0658208,0,0.758808,2.48395,2.20274)"
   width="0.0291733"
   height="0.315561"
   x="0"
   y="0"
   style="fill:#669999" />
    <path
   id="_358867024"
   class="fil48"
   d="M 0.752256,2.07004 1.066793,1.934654 1.167471,1.957841 1.065354,2.11988 c 0,0 -0.208844,-0.020615 -0.313098,-0.04984 z"
   inkscape:connector-curvature="0"
   style="fill:#99cccc" />
    <path
   id="_358867216"
   class="fil48"
   d="M 2.74414,2.07004 2.429603,1.934654 2.32893,1.9578414 2.431042,2.1198804 c 0,0 0.208844,-0.020615 0.313098,-0.04984 z"
   inkscape:connector-curvature="0"
   style="fill:#99cccc" />
   </g>
   <polygon
   id="_359660528"
   class="fil49 str3"
   points="4.33798,2.02221 3.33282,1.92242 3.63711,1.63202 4.56227,1.6648 "
   style="fill:url(#id13);stroke:#d273d9;stroke-width:0.00926235" />
   <polygon
   id="_361051816"
   class="fil50 str4"
   points="4.33798,2.93449 4.33798,2.02221 4.56227,1.6648 4.55249,2.40266 "
   style="fill:url(#id10);stroke:#ff99ff;stroke-width:0.00926235" />
   <polygon
   id="_361052008"
   class="fil51 str5"
   points="4.33798,2.93449 3.33282,2.76256 3.33282,1.92242 4.33798,2.02221 "
   style="fill:url(#id15);stroke:#912783;stroke-width:0.00926235" />
   <g
   id="g8759">
    <g
   id="g8761">
     <path
   id="_361052416"
   class="fil6"
   d="M 2.62935,2.28558 C 2.641001,2.313651 2.850308,2.581177 3.011685,2.785458 L 3.03818,2.769417 2.722451,2.274054 2.62935,2.285579 z"
   inkscape:connector-curvature="0"
   style="fill:#669999" />
     <polygon
   id="_361052608"
   class="fil52"
   points="2.82097,2.27134 3.06393,2.75382 3.03818,2.76942 2.72244,2.27405 "
   style="fill:url(#linearGradient8813)" />
    </g>
    <g
   id="g8765">
     <path
   id="_361052920"
   class="fil5"
   d="m 3.03857,2.69662 c 0.020195,0.00655 0.218133,0.137344 0.36946,0.238374 l 0,0.024532 L 3.035735,2.762139 3.038575,2.69662 z"
   inkscape:connector-curvature="0"
   style="fill:#003333" />
     <polygon
   id="_361053112"
   class="fil6"
   points="3.03934,2.83094 3.40803,2.98101 3.40803,2.95953 3.03574,2.76214 "
   style="fill:#669999" />
    </g>
    <g
   id="g8769">
     <path
   id="_361053352"
   class="fil5"
   d="M 3.44003,2.91174 C 3.451508,2.90395 3.636251,2.90711 3.636251,2.90711 L 3.441873,2.9581568 3.44003,2.91174 z"
   inkscape:connector-curvature="0"
   style="fill:#003333" />
     <polygon
   id="_361053544"
   class="fil6"
   points="3.44601,3.00389 3.63625,2.90711 3.44187,2.95816 "
   style="fill:#669999" />
    </g>
    <g
   id="g8773">
     <path
   id="_361053784"
   class="fil7"
   d="M 3.38126,2.95529 C 3.37869,2.937653 3.421339,2.624985 3.421339,2.624985 L 3.411998,2.941753 3.38126,2.9552895 z"
   inkscape:connector-curvature="0"
   style="fill:#336666" />
     <polygon
   id="_361053976"
   class="fil5"
   points="3.44279,2.92452 3.42134,2.62498 3.412,2.94175 "
   style="fill:#003333" />
    </g>
    <g
   id="g8777">
     <path
   id="_361054216"
   class="fil5"
   d="M 3.42134,2.62498 C 3.434814,2.62721 3.653151,2.73113 3.653151,2.73113 L 3.424065,2.650573 3.421335,2.624981 z"
   inkscape:connector-curvature="0"
   style="fill:#003333" />
     <polygon
   id="_361054408"
   class="fil7"
   points="3.42949,2.67706 3.65315,2.73113 3.42407,2.65058 "
   style="fill:#336666" />
    </g>
    <g
   id="g8781">
     <path
   id="_361054648"
   class="fil7"
   d="M 3.5923,2.94355 C 3.6028908,2.9404573 3.767975,2.835972 3.767975,2.835972 L 3.592006,2.9227567 3.5923,2.9435497 z"
   inkscape:connector-curvature="0"
   style="fill:#336666" />
     <polygon
   id="_361054840"
   class="fil5"
   points="3.59379,2.90099 3.76798,2.83597 3.59201,2.92276 "
   style="fill:#003333" />
    </g>
    <path
   id="_361054624"
   class="fil53"
   d="M 3.02397,2.64635 C 3.078447,2.657702 3.113417,2.711071 3.102065,2.765553 3.090713,2.820035 3.037349,2.855 2.982867,2.843648 2.9283847,2.8323008 2.8934199,2.7789267 2.904772,2.7244447 2.9161189,2.669968 2.9694877,2.6349979 3.02397,2.64635 z"
   inkscape:connector-curvature="0"
   style="fill:url(#id29)" />
    <path
   id="_361055128"
   class="fil54"
   d="M 3.46785,2.97554 C 3.47705,2.941688 3.45706,2.906792 3.423219,2.897592 3.389367,2.888402 3.354476,2.908388 3.345282,2.942234 3.336082,2.97608 3.356067,3.010977 3.389919,3.020171 3.423765,3.029361 3.458662,3.009381 3.467851,2.97554 z"
   inkscape:connector-curvature="0"
   style="fill:url(#id28)" />
   </g>
   <path
   id="_361052248"
   class="fil55"
   d="m 3.9884,2.45566 c 0,0 0.03455,0.043387 0.012051,0.062673 -0.0225,0.019286 -0.204895,0.107672 -0.204895,0.107672 0,0 -0.078746,-0.020084 -0.020893,-0.054639 C 3.832516,2.536816 3.859836,2.51753 3.859836,2.51753 L 3.695918,2.507086 c 0,0 -0.05946,-0.03455 0.00562,-0.056246 C 3.766626,2.429144 3.975539,2.442 3.988398,2.45566 z M 3.875703,2.266932 3.8596304,2.417991 3.9930154,2.4067439 c 0,0 0.044191,-0.04178 -0.011252,-0.053033 -0.055438,-0.011247 -0.069662,0.00198 -0.069662,0.00198 0,0 0.048774,-0.125719 0.016634,-0.11768 -0.03214,0.00803 -0.053033,0.028921 -0.053033,0.028921 z M 3.698369,2.296226 c 0,0 0.104454,0.025713 0.134987,0.044999 C 3.863894,2.360511 3.799609,2.413539 3.799609,2.413539 L 3.66783,2.357293 c 0,0 -0.0016,-0.065887 0.030539,-0.061066 z"
   inkscape:connector-curvature="0"
   style="fill:#cc33ff" />
   <path
   id="_361055416"
   class="fil56"
   d="m 3.98168,2.44894 c 0,0 0.03455,0.043387 0.01205,0.062673 C 3.971231,2.530899 3.788835,2.61928 3.788835,2.61928 c 0,0 -0.078746,-0.020084 -0.020893,-0.054634 C 3.825795,2.530091 3.853115,2.51081 3.853115,2.51081 L 3.689197,2.500361 c 0,0 -0.05946,-0.03455 0.00562,-0.056241 0.065088,-0.021696 0.274001,-0.00884 0.28686,0.00482 z M 3.868983,2.260212 3.8529104,2.411271 3.9862954,2.4000239 c 0,0 0.044191,-0.04178 -0.011252,-0.053033 -0.055443,-0.011247 -0.069662,0.00197 -0.069662,0.00197 0,0 0.048769,-0.125714 0.016629,-0.11768 -0.03214,0.00803 -0.053028,0.028926 -0.053028,0.028926 z M 3.691644,2.289506 c 0,0 0.104459,0.025713 0.134992,0.044999 C 3.857169,2.353786 3.792889,2.406819 3.792889,2.406819 L 3.66111,2.350573 c 0,0 -0.00161,-0.065887 0.030533,-0.061066 z"
   inkscape:connector-curvature="0"
   style="fill:#000000" />
   <path
   id="_361055608"
   class="fil11"
   d="M 4.02248,1.74288 3.927924,1.785301 C 3.880578,1.778771 3.73741,1.738144 3.835563,1.790661 l 0.115596,0.01685 0.084795,0.00856 c 0,0 0.037454,-0.021875 0.012292,-0.027761 -0.025167,-0.00589 -0.037144,0.00103 -0.037144,0.00103 0,0 0.068633,-0.065808 0.049053,-0.061602 C 4.04058,1.731938 4.022481,1.742876 4.022481,1.742876 z M 3.873222,1.844251 c 0,0 -0.032964,0.02271 -0.027803,0.032807 0.00517,0.010097 0.070345,0.056362 0.070345,0.056362 0,0 0.048107,-0.010512 0.029667,-0.028601 C 3.926996,1.88673 3.919303,1.876638 3.919303,1.876638 l 0.089389,-0.00547 c 0,0 0.042972,-0.018089 0.01634,-0.029446 -0.026632,-0.011357 -0.1404,-0.00463 -0.15181,0.00253 z"
   inkscape:connector-curvature="0"
   style="fill:#ffffff" />
   <path
   id="_358914648"
   class="fil56"
   d="M 4.01575,1.73952 3.921199,1.781941 C 3.873853,1.775411 3.73068,1.734784 3.828838,1.787301 l 0.11559,0.01685 0.084795,0.00856 c 0,0 0.037459,-0.021875 0.012297,-0.027761 -0.025167,-0.00589 -0.037144,0.00103 -0.037144,0.00103 0,0 0.068633,-0.065813 0.049053,-0.061607 C 4.033849,1.728583 4.01575,1.739516 4.01575,1.739516 z M 3.866492,1.840891 c 0,0 -0.032959,0.02271 -0.027798,0.032807 0.00517,0.010097 0.070345,0.056362 0.070345,0.056362 0,0 0.048107,-0.010512 0.029667,-0.028601 C 3.920271,1.88337 3.912578,1.873278 3.912578,1.873278 l 0.089389,-0.00547 c 0,0 0.042972,-0.018084 0.01634,-0.029441 -0.026632,-0.011357 -0.1404,-0.00463 -0.151815,0.00253 z"
   inkscape:connector-curvature="0"
   style="fill:#000000" />
   <g
   id="g8791">
    <path
   id="_358914912"
   class="fil57"
   d="m 4.50284,2.17289 c 0,0 0.011893,0.011168 0.00415,0.027535 -0.00774,0.016367 -0.070507,0.115239 -0.070507,0.115239 0,0 -0.027099,0.013726 -0.00719,-0.020877 0.019906,-0.034603 0.02931,-0.052418 0.02931,-0.052418 L 4.402194,2.286533 c 0,0 -0.020462,7.194e-4 0.00193,-0.029667 0.0224,-0.030386 0.094293,-0.0869 0.098714,-0.083976 z M 4.464058,2.112973 4.458528,2.192932 4.50443,2.147172 c 0,0 0.015206,-0.034083 -0.00387,-0.022983 -0.019076,0.0111 -0.02397,0.021959 -0.02397,0.021959 0,0 0.016782,-0.077202 0.00572,-0.063529 C 4.471247,2.096292 4.464058,2.112974 4.464058,2.112974 z M 4.403034,2.180934 c 0,0 0.035947,-0.018666 0.046454,-0.018267 C 4.459995,2.1630608 4.437873,2.20879 4.437873,2.20879 L 4.392527,2.220499 c 0,0 -5.513e-4,-0.032282 0.010507,-0.039565 z"
   inkscape:connector-curvature="0"
   style="fill:#fefefe" />
    <path
   id="_358915104"
   class="fil56"
   d="m 4.50053,2.17157 c 0,0 0.011888,0.011174 0.00415,0.02754 -0.00774,0.016367 -0.070513,0.115239 -0.070513,0.115239 0,0 -0.027099,0.013726 -0.00719,-0.020877 0.019911,-0.034603 0.02931,-0.052418 0.02931,-0.052418 L 4.399878,2.285213 c 0,0 -0.020462,7.246e-4 0.00194,-0.029662 C 4.424213,2.225165 4.496106,2.168651 4.500532,2.17157 z M 4.461748,2.111659 4.456218,2.191618 4.50212,2.145858 c 0,0 0.015206,-0.034083 -0.00387,-0.022983 -0.019081,0.0111 -0.023975,0.021959 -0.023975,0.021959 0,0 0.016787,-0.077202 0.00572,-0.063529 C 4.468937,2.094978 4.461749,2.11166 4.461749,2.11166 z M 4.400724,2.17962 c 0,0 0.035947,-0.018667 0.046453,-0.018267 0.010507,3.938e-4 -0.011615,0.046123 -0.011615,0.046123 L 4.390216,2.219185 c 0,0 -5.566e-4,-0.032282 0.010507,-0.039565 z"
   inkscape:connector-curvature="0"
   style="fill:#000000" />
   </g>
   <g
   id="g8795">
    <path
   id="_358915344"
   class="fil7"
   d="M 4.00901,1.48706 C 4.01779,1.497215 4.117449,1.713037 4.117449,1.713037 L 3.99498,1.50811 4.00901,1.48706 z"
   inkscape:connector-curvature="0"
   style="fill:#336666" />
    <polygon
   id="_358915536"
   class="fil5"
   points="3.98242,1.53153 4.11745,1.71304 3.99498,1.50811 "
   style="fill:#003333" />
   </g>
  </g>
 </g>
</svg>
