<?xml version="1.0" encoding="UTF-8" standalone="no"?>
<!-- Creator: CorelDRAW -->

<svg
   xmlns:dc="http://purl.org/dc/elements/1.1/"
   xmlns:cc="http://creativecommons.org/ns#"
   xmlns:rdf="http://www.w3.org/1999/02/22-rdf-syntax-ns#"
   xmlns:svg="http://www.w3.org/2000/svg"
   xmlns="http://www.w3.org/2000/svg"
   xmlns:xlink="http://www.w3.org/1999/xlink"
   xmlns:sodipodi="http://sodipodi.sourceforge.net/DTD/sodipodi-0.dtd"
   xmlns:inkscape="http://www.inkscape.org/namespaces/inkscape"
   xml:space="preserve"
   width="3.36221in"
   height="3.4207699in"
   style="fill-rule:evenodd"
   viewBox=""
   id="svg9506"
   version="1.1"
   inkscape:version="0.48.3.1 r9886"
   sodipodi:docname="player14.svg">
  <metadata
     id="metadata3960">
    <rdf:RDF>
      <cc:Work
         rdf:about="">
        <dc:format>image/svg+xml</dc:format>
        <dc:type
           rdf:resource="http://purl.org/dc/dcmitype/StillImage" />
        <dc:title></dc:title>
        <cc:license
           rdf:resource="http://www.gnu.org/licenses/gpl-3.0.html" />
        <dc:creator>
          <cc:Agent>
            <dc:title>Abhash Bikram Thapa</dc:title>
          </cc:Agent>
        </dc:creator>
        <dc:description>http://pixelpinch.com</dc:description>
      </cc:Work>
    </rdf:RDF>
  </metadata>
   pagecolor="#ffffff"
   bordercolor="#666666"
   borderopacity="1"
   objecttolerance="10"
   gridtolerance="10"
   guidetolerance="10"
   inkscape:pageopacity="0"
   inkscape:pageshadow="2"
   inkscape:window-width="640"
   inkscape:window-height="480"
   id="namedview9596"
   showgrid="false"
   inkscape:zoom="0.9731707"
   inkscape:cx="151.29945"
   inkscape:cy="153.93465"
   inkscape:window-x="0"
   inkscape:window-y="0"
   inkscape:window-maximized="0"
   inkscape:current-layer="svg9506" />
 <defs
   id="defs9508">
  <style
   type="text/css"
   id="style9510">
   
    .fil17 {fill:#50224C}
    .fil20 {fill:#63175B}
    .fil21 {fill:#7C076E}
    .fil7 {fill:#7F0571}
    .fil19 {fill:#800772}
    .fil14 {fill:#810474}
    .fil18 {fill:#860079}
    .fil11 {fill:#8F007F}
    .fil16 {fill:#920681}
    .fil15 {fill:#970089}
    .fil10 {fill:#A30891}
    .fil1 {fill:#A50092}
    .fil13 {fill:#D407BB}
    .fil9 {fill:#D50ABC}
    .fil8 {fill:#F30FD8}
    .fil12 {fill:#FF57EA}
    .fil5 {fill:#F30FD8;fill-opacity:0.501961}
    .fil4 {fill:url(#id0)}
    .fil6 {fill:url(#id1)}
    .fil0 {fill:url(#id2)}
    .fil2 {fill:url(#id3)}
    .fil3 {fill:url(#id4)}
  </style>
  <linearGradient
   id="id0"
   gradientUnits="userSpaceOnUse"
   x1="0.131036"
   y1="0.43235901"
   x2="0.564538"
   y2="0.0070749498">
   <stop
   offset="0"
   style="stop-color:#343434"
   id="stop9513" />
   <stop
   offset="1"
   style="stop-color:#BD00A8"
   id="stop9515" />
  </linearGradient>
  <linearGradient
   id="id1"
   gradientUnits="userSpaceOnUse"
   x1="0.27892399"
   y1="0.66059202"
   x2="0.56547201"
   y2="0.167483">
   <stop
   offset="0"
   style="stop-color:#343434"
   id="stop9518" />
   <stop
   offset="1"
   style="stop-color:#8D007D"
   id="stop9520" />
  </linearGradient>
  <linearGradient
   id="id2"
   gradientUnits="userSpaceOnUse"
   x1="0.144224"
   y1="0.76400501"
   x2="0.70213097"
   y2="0.107388">
   <stop
   offset="0"
   style="stop-color:#343434"
   id="stop9523" />
   <stop
   offset="0.2"
   style="stop-color:#432A43"
   id="stop9525" />
   <stop
   offset="0.678431"
   style="stop-color:#A1008E"
   id="stop9527" />
   <stop
   offset="1"
   style="stop-color:#C800B0"
   id="stop9529" />
  </linearGradient>
  <linearGradient
   id="id3"
   gradientUnits="userSpaceOnUse"
   xlink:href="#id0"
   x1="0.336705"
   y1="0.79333401"
   x2="0.61797303"
   y2="0.387988">
  </linearGradient>
  <linearGradient
   id="id4"
   gradientUnits="userSpaceOnUse"
   xlink:href="#id1"
   x1="0.428666"
   y1="0.85129303"
   x2="0.62546402"
   y2="0.630907">
  </linearGradient>
 <linearGradient
   inkscape:collect="always"
   xlink:href="#id0"
   id="linearGradient9600"
   gradientUnits="userSpaceOnUse"
   x1="0.131036"
   y1="0.43235901"
   x2="0.564538"
   y2="0.0070749498" /><linearGradient
   inkscape:collect="always"
   xlink:href="#id1"
   id="linearGradient9602"
   gradientUnits="userSpaceOnUse"
   x1="0.27892399"
   y1="0.66059202"
   x2="0.56547201"
   y2="0.167483" /></defs>
 <g
   id="Layer_x0020_1"
   transform="scale(356.6415,358.90453)">
  <metadata
   id="CorelCorpID_0Corel-Layer" />
  <g
   id="_357148584">
   <g
   id="g9536">
    <ellipse
   id="_357148944"
   class="fil0"
   cx="0.423177"
   cy="0.43569601"
   rx="0.423177"
   ry="0.425625"
   sodipodi:cx="0.423177"
   sodipodi:cy="0.43569601"
   sodipodi:rx="0.423177"
   sodipodi:ry="0.425625"
   style="fill:url(#id2)"
   d="M 0.84635401,0.43569601 C 0.84635401,0.6707622 0.65689121,0.861321 0.423177,0.861321 0.1894628,0.861321 0,0.6707622 0,0.43569601 c 0,-0.2350662 0.1894628,-0.425625 0.423177,-0.425625 0.23371421,0 0.42317701,0.1905588 0.42317701,0.425625 z" />
    <path
   id="_357148920"
   class="fil1"
   d="M 0.109318,0.715006 C 0.216484,0.6448226 0.140441,0.6276591 0.241021,0.6350166 0.341601,0.64237506 0.348959,0.6497474 0.40048,0.5810479 0.4520011,0.5123485 0.4789854,0.5246307 0.54767,0.495184 0.6163556,0.4657373 0.6120682,0.4436629 0.663278,0.4436629 c 0.0512098,0 0.0732832,0 0.112537,0 0.0392527,0 0.0707614,-0.0316722 0.0707614,-0.0316722 0,0 -0.002314,0.0773783 -0.007566,0.100729 -0.005252,0.0233492 -0.073314,-3.7075e-4 -0.124523,-3.7075e-4 -0.0512098,0 -0.0343577,0.00491 -0.137385,0.0515211 -0.103028,0.0466102 -0.120207,0.0343567 -0.161907,0.071147 -0.0417012,0.0367903 0.007343,0.0465963 -0.071148,0.0637746 -0.0784906,0.0171793 -0.071148,0.004926 -0.107937,0.0220893 -0.0367903,0.0171645 -0.0818888,0.0374138 -0.0818888,0.0374138 L 0.1093174,0.71500645 z"
   inkscape:connector-curvature="0"
   style="fill:#a50092" />
    <path
   id="_357149496"
   class="fil2"
   d="M 0.10871,0.720524 C 0.215876,0.6503406 0.139833,0.6331771 0.240413,0.6405346 0.340993,0.64789306 0.348351,0.6552654 0.399872,0.5865659 0.4513931,0.5178655 0.4783774,0.5301487 0.547063,0.500702 0.6157476,0.4712553 0.6114602,0.4491809 0.66267,0.4491809 c 0.0512098,0 0.0732842,0 0.112537,0 0.0392527,0 0.0707624,-0.0316722 0.0707624,-0.0316722 0,0 -0.002315,0.0773783 -0.007567,0.100729 -0.005251,0.0233492 -0.073313,-3.7174e-4 -0.124523,-3.7174e-4 -0.0512098,0 -0.0343577,0.004911 -0.137385,0.0515221 -0.103027,0.0466102 -0.120206,0.0343567 -0.161907,0.071147 -0.0417003,0.0367903 0.007344,0.0465963 -0.071147,0.0637746 -0.0784916,0.0171793 -0.071148,0.004926 -0.107938,0.0220893 -0.0367903,0.0171635 -0.0818878,0.0374138 -0.0818878,0.0374138 L 0.1087095,0.72052446 z"
   inkscape:connector-curvature="0"
   style="fill:url(#id3)" />
    <path
   id="_357149688"
   class="fil3"
   d="M 0.254684,0.826252 C 0.3164552,0.81715776 0.3017542,0.7975319 0.392513,0.777905 0.483273,0.7582791 0.539689,0.7632039 0.564226,0.7263988 0.5887628,0.6895936 0.5541087,0.6871461 0.6083896,0.6871461 c 0.0542799,0 0.103027,-0.0269992 0.134922,-0.0368052 0.0318953,-0.009806 0.0561505,-0.0197002 0.0561505,-0.0197002 0,0 -0.115667,0.142325 -0.136792,0.156017 -0.0211247,0.0136929 -0.0788167,0.001054 -0.120518,0.003516 -0.0417003,0.002462 -0.120206,0.0269992 -0.134922,0.0294477 -0.0147169,0.002448 -0.074679,0.031924 -0.074679,0.031924 L 0.2546841,0.8262522 z"
   inkscape:connector-curvature="0"
   style="fill:url(#id4)" />
    <path
   id="_357149880"
   class="fil4"
   d="M 0.0981323,0.230843 C 0.147191,0.1670674 0.1668169,0.1597099 0.2281443,0.1327256 0.2894714,0.1057413 0.3287243,0.078756 0.3876033,0.0812045 c 0.0588796,0.0024475 0.13881,0.0279479 0.180821,0.0279479 0.0154287,0 0.0285427,-0.008841 0.0439703,-0.0336003 0.0108598,-0.0174014 0.0831933,0.0344171 0.0831933,0.0344171 0,0 -0.0658812,-0.0664304 -0.166624,-0.0863387 C 0.4282209,0.0037221 0.4019029,0.0076982 0.3674869,0.0137204 0.3330698,0.0197436 0.2543559,0.0415652 0.2219129,0.061192 0.1894695,0.0808189 0.0346829,0.19377 0.0173409,0.314733 -10e-7,0.435696 0.0981313,0.2308428 0.0981313,0.2308428 z"
   inkscape:connector-curvature="0"
   style="fill:url(#linearGradient9600)" />
    <path
   id="_357149472"
   class="fil5"
   d="M 0.190523,0.0829842 C 0.198431,0.0774805 0.2828403,0.0348157 0.353009,0.0282741 0.4231776,0.0217315 0.452313,0.0202485 0.475826,0.0249958 0.4993398,0.0297422 0.5256272,0.0121039 0.5492143,0.0409281 c 0.0235871,0.0288242 0.0174599,0.0226969 0.008871,0.0410926 -0.00859,0.0183947 -0.0238994,0.0151164 0.003679,0.0251296 0.0275781,0.0100142 0.0637746,0 0.0637746,0 0,0 -0.001216,-0.0306631 0.0208581,0 0.0220744,0.0306641 -0.0183957,0.0233056 0.0318943,0.0404839 0.0502899,0.0171793 0.0318953,-0.007372 0.0318953,0.0417012 0,0.0490736 0.0609118,0.0421007 0.0574402,0.062143 -0.003472,0.0200412 -0.0537615,-0.0204278 -0.0230974,0.0421305 0.0306631,0.0625583 0.00491,0.0294467 0.0306631,0.0625583 0.0257531,0.0331116 0.0392379,0.006334 0.0551999,0.0429315 0.0144641,0.0331711 0.0151471,0.0584196 0.0151323,0.0628706 5.3332e-4,-0.008694 8.3071e-4,-0.017446 8.3071e-4,-0.0262726 0,-0.235072 -0.18947,-0.425625 -0.423177,-0.425625 -0.0452908,0 -0.0889201,0.00718 -0.129819,0.0204278 -0.0373246,0.0134104 -0.072171,0.0311974 -0.102835,0.0524847 z"
   inkscape:connector-curvature="0"
   style="fill:#f30fd8;fill-opacity:0.5019609" />
    <path
   id="_357150120"
   class="fil1"
   d="M 0.0294467,0.497616 C 0.0834163,0.394589 0.0122684,0.330814 0.1790857,0.333262 0.3459037,0.33571 0.3238287,0.2915469 0.4440357,0.2817409 0.5642417,0.2719349 0.6108677,0.2768459 0.6942677,0.2645774 0.7776692,0.252309 0.7874008,0.2105929 0.8032447,0.2507219 0.8121607,0.2732701 0.821002,0.296086 0.8239987,0.306352 0.8263277,0.314333 0.8277367,0.311366 0.8063445,0.3169887 0.7574494,0.3298648 0.7650893,0.3357095 0.711432,0.3357095 c -0.0536574,0 0.00491,-0.002448 -0.10058,-0.002448 -0.105491,0 -0.121423,-0.006156 -0.156997,0.0441488 -0.035574,0.0503048 -1.487e-5,0.0686994 -0.157011,0.0686994 -0.156997,0 -0.127549,-0.0466102 -0.176623,0.0196269 -0.0490736,0.066237 -0.088356,0.135768 -0.088356,0.135768 0,0 -0.0249968,-0.0737293 -0.0024188,-0.103889 z"
   inkscape:connector-curvature="0"
   style="fill:#a50092" />
    <path
   id="_357150264"
   class="fil6"
   d="M 0.0343428,0.505597 C 0.0883115,0.40257 0.0171645,0.338795 0.1839818,0.341243 0.3507988,0.343692 0.3287238,0.2995279 0.4489308,0.2897219 0.5691378,0.2799159 0.6157628,0.2848269 0.6991638,0.2725584 0.7825653,0.26029 0.7922969,0.2185749 0.8081398,0.2587029 0.8170558,0.2812511 0.8258971,0.304067 0.8288938,0.314333 0.8312228,0.322314 0.8326318,0.319347 0.8112406,0.3249697 0.7623445,0.3378458 0.7699845,0.3436915 0.7163271,0.3436915 c -0.0536574,0 0.004911,-0.002449 -0.10058,-0.002449 -0.10549,0 -0.121422,-0.006156 -0.156996,0.0441488 -0.035574,0.0503048 -1.487e-5,0.0686994 -0.157012,0.0686994 -0.156996,0 -0.127549,-0.0466102 -0.176623,0.0196269 -0.0490736,0.066237 -0.088356,0.135768 -0.088356,0.135768 0,0 -0.0249968,-0.0737293 -0.0024178,-0.103889 z"
   inkscape:connector-curvature="0"
   style="fill:url(#linearGradient9602)" />
   </g>
   <g
   id="g9546">
    <g
   id="g9548">
     <path
   id="_346470312"
   class="fil7"
   d="M 0.410943,0.0170207 C 0.403991,0.0206836 0.402405,0.0221358 0.3983227,0.0230141 0.3942407,0.02389339 0.3956957,0.0247975 0.4087274,0.0327517 0.4217591,0.0407059 0.424737,0.0490716 0.4488644,0.0544425 0.4729918,0.0598124 0.5083209,0.0647412 0.5193621,0.0674058 0.5304033,0.0700714 0.5303686,0.06816316 0.5409537,0.0694142 0.5515379,0.0706642 0.5624274,0.0719539 0.561331,0.0643774 0.560234,0.0568018 0.55621,0.0537744 0.55621,0.0537744 c 0,0 -0.10339,-0.0078472 -0.12688,-0.0266175 C 0.40584,0.0083865 0.4109433,0.0170208 0.4109433,0.0170208 z"
   inkscape:connector-curvature="0"
   style="fill:#7f0571" />
     <g
   id="g9551">
      <path
   id="_346465872"
   class="fil8"
   d="M 0.435111,0 C 0.4180328,0.00492976 0.4230528,0.0131883 0.430332,0.0189736 c 0.007279,0.0057853 0.028271,0.0186296 0.0511712,0.022456 0.0229001,0.0038255 0.027707,0.0013987 0.0449507,8.7037e-4 0.0172428,-5.2738e-4 0.0442539,0.016079 0.0326744,3.301e-4 C 0.5475489,0.02688117 0.5625983,0.03058767 0.5315641,0.01915997 0.50053122,0.00773217 0.49890742,0.00629977 0.49103942,0.00573967 0.48317143,0.00517958 0.46819082,0.00323464 0.45637152,0.00195387 0.44455222,6.73101e-4 0.43511102,1.1e-8 0.43511102,1.1e-8 z"
   inkscape:connector-curvature="0"
   style="fill:#f30fd8" />
      <path
   id="_346465704"
   class="fil9"
   d="m 0.428096,0.0130664 c 0.001141,0.001368 0.00256,0.0026815 0.004076,0.0038869 0.007279,0.0057862 0.0274621,0.0208293 0.0503633,0.0246557 0.0229001,0.0038255 0.0331939,0.0063146 0.0504376,0.0057862 0.0131893,-4.0346e-4 0.0293516,0.0050537 0.0310437,5.9577e-4 l -4.4014e-4,-6.1064e-4 c -0.00449,-0.0061074 -0.004975,-0.0092885 -0.005698,-0.0115616 -4.3816e-4,-8.0593e-4 -7.9304e-4,-0.0015405 -0.001082,-0.0022106 -0.001765,-0.002286 -0.006151,-0.0043092 -0.0207837,-0.0096979 C 0.50497896,0.01248243 0.50335616,0.01105003 0.49548816,0.01048993 0.48762016,0.00992984 0.47263856,0.0079849 0.46081926,0.00670413 0.44899996,0.00542336 0.43955876,0.00475027 0.43955876,0.00475027 0.43173276,0.00700946 0.42854936,0.00996751 0.42809526,0.01306633 z"
   inkscape:connector-curvature="0"
   style="fill:#d50abc" />
      <path
   id="_346469640"
   class="fil10"
   d="M 0.464847,0.036485 C 0.4812105,0.0386133 0.4835371,0.0394857 0.4925847,0.04013 0.4995377,0.04062466 0.5400881,0.0479118 0.5559123,0.0457814 0.5584103,0.04544535 0.5573203,0.0391139 0.5524693,0.0331234 0.5480773,0.027698 0.5399323,0.0225323 0.5408274,0.0226602 c 0.00403,5.7793e-4 0.008706,0.0036401 0.0119938,0.0065416 0.005637,0.0049763 0.008034,0.0120463 0.00882,0.0123546 C 0.5716162,0.055965 0.5498585,0.0468787 0.5329736,0.0473952 0.5157298,0.04792357 0.5054361,0.0454344 0.482536,0.0416089 0.476376,0.0405789 0.4704153,0.0387381 0.4648471,0.0364848 z"
   inkscape:connector-curvature="0"
   style="fill:#a30891" />
      <path
   id="_346465608"
   class="fil11"
   d="m 0.422317,0.00565936 c -0.0131824,0.00499122 -0.007774,0.0142679 -7.4348e-4,0.0198558 0.007029,0.005587 0.0261358,0.0214637 0.0490359,0.0252892 0.0229011,0.0038255 0.035912,0.0031652 0.0503534,0.0050874 0.0144413,0.0019221 0.044471,0.0068549 0.0435917,-0.0059597 -0.0124726,0.0035548 -0.0236545,-0.0020015 -0.0350436,-0.0024693 -0.0113891,-4.6889e-4 -0.0290671,0.0020114 -0.0519672,-0.0018141 -0.0229011,-0.0038264 -0.044239,-0.0197884 -0.0503633,-0.0246557 -0.006124,-0.0048673 -0.008313,-0.0109252 -0.004863,-0.0153335 z"
   inkscape:connector-curvature="0"
   style="fill:#8f007f" />
     </g>
    </g>
    <path
   id="_346470144"
   class="fil12"
   d="m 0.423588,0.00897924 c 0,0 0.00163,-0.0034884 0.006576,-0.00623432 C 0.43511093,0 0.44145432,-4.8376e-4 0.44650202,0.00118064 c 0.005048,0.00166539 0.0136473,0.00206291 0.0174113,0.00262894 0.003764,5.6703e-4 0.0272024,0.00167828 0.0300732,0.00222945 0.002872,5.5117e-4 0.008302,0.00222251 0.008302,0.00222251 0,0 -0.0594704,-0.00634336 -0.0666643,-0.00321381 C 0.4284305,0.00817629 0.423588,0.00897925 0.423588,0.00897925 z"
   inkscape:connector-curvature="0"
   style="fill:#ff57ea" />
   </g>
   <g
   id="g9558">
    <path
   id="_346465416"
   class="fil7"
   d="M 0.757025,0.221568 C 0.7335915,0.2013275 0.7007298,0.1864213 0.6731645,0.1910229 0.6456003,0.19562454 0.5985737,0.19545404 0.6407994,0.2218089 0.683026,0.2481628 0.6756349,0.2494762 0.7065289,0.2516105 0.7374219,0.25374478 0.757025,0.221568 0.757025,0.221568 z"
   inkscape:connector-curvature="0"
   style="fill:#7f0571" />
    <path
   id="_346465320"
   class="fil12"
   d="M 0.714764,0.211741 C 0.6997546,0.1987777 0.6787072,0.1892304 0.6610531,0.1921776 0.6433989,0.19512574 0.6132791,0.19501571 0.6403239,0.2118957 0.6673687,0.2287747 0.6626352,0.2296153 0.6824217,0.2309823 0.7022082,0.23234931 0.714764,0.2117411 0.714764,0.2117411 z"
   inkscape:connector-curvature="0"
   style="fill:#ff57ea" />
    <path
   id="_346465152"
   class="fil9"
   d="M 0.744014,0.213615 C 0.7255688,0.1976827 0.6997026,0.1859506 0.6780069,0.1895729 0.6563102,0.1931949 0.6192949,0.1930599 0.6525313,0.2138044 0.6857688,0.2345485 0.6799508,0.2355814 0.7042675,0.2372617 0.7285832,0.2389407 0.7440139,0.2136151 0.7440139,0.2136151 z"
   inkscape:connector-curvature="0"
   style="fill:#d50abc" />
   </g>
   <g
   id="g9563">
    <path
   id="_346464816"
   class="fil7"
   d="m 0.107694,0.152392 c -2.1908e-4,0.002155 -1.2788e-4,0.002741 -5.4918e-4,0.003812 -4.2131e-4,0.001072 7.93e-6,8.7532e-4 0.003822,-9.0209e-4 0.003815,-0.001778 0.00619,-0.001186 0.0111046,-0.005904 0.004914,-0.00472 0.0114357,-0.0120781 0.0137326,-0.0142054 0.002297,-0.002128 0.001854,-0.002412 0.003755,-0.00465 0.001902,-0.002239 0.00386,-0.004542 0.001954,-0.005446 -0.001907,-9.0407e-4 -0.003216,-4.4311e-4 -0.003216,-4.4311e-4 0,0 -0.0175768,0.0225373 -0.0254706,0.0250661 -0.007893,0.002528 -0.005133,0.002674 -0.005133,0.002674 z"
   inkscape:connector-curvature="0"
   style="fill:#7f0571" />
    <g
   id="g9566">
     <path
   id="_346464336"
   class="fil8"
   d="M 0.107475,0.144248 C 0.106001,0.14892 0.108663,0.149028 0.111101,0.14824 0.113541,0.14745191 0.119692,0.144593 0.1240643,0.139919 c 0.004373,-0.004673 0.004549,-0.006147 0.007059,-0.0101857 0.00251,-0.004039 0.0104434,-0.007705 0.005061,-0.007451 -0.005382,2.5576e-4 -0.002234,-0.002634 -0.009593,0.002747 -0.007359,0.00538 -0.007935,0.005534 -0.009265,0.007254 -0.001329,0.001721 -0.004061,0.004863 -0.006159,0.007381 -0.002098,0.002518 -0.003693,0.004583 -0.003693,0.004583 z"
   inkscape:connector-curvature="0"
   style="fill:#f30fd8" />
     <path
   id="_346464192"
   class="fil9"
   d="m 0.109404,0.147851 c 4.8871e-4,-5.254e-5 0.001006,-1.7843e-4 0.001515,-3.42e-4 0.002439,-7.8809e-4 0.008972,-0.003127 0.013344,-0.0078 0.004373,-0.004673 0.006515,-0.006657 0.009025,-0.0106952 0.00192,-0.00309 0.005639,-0.005968 0.004873,-0.007036 l -2.0718e-4,7.93e-6 c -0.002087,9.913e-5 -0.002891,-2.7459e-4 -0.003523,-4.56e-4 -2.518e-4,-2.28e-5 -4.7484e-4,-5.353e-5 -6.731e-4,-8.922e-5 -7.9304e-4,5.651e-5 -0.001927,7.5439e-4 -0.005397,0.003291 -0.007359,0.005381 -0.007935,0.005534 -0.009265,0.007255 -0.001329,0.001721 -0.004061,0.004863 -0.006159,0.007381 -0.002098,0.002518 -0.003693,0.004583 -0.003693,0.004583 -6.7508e-4,0.002141 -4.8177e-4,0.003323 1.596e-4,0.0039 z"
   inkscape:connector-curvature="0"
   style="fill:#d50abc" />
     <path
   id="_346464216"
   class="fil10"
   d="M 0.120388,0.142988 C 0.123374,0.139557 0.123929,0.139156 0.125458,0.137177 0.126633,0.135656 0.134493,0.12746 0.1364179,0.1235019 c 3.0433e-4,-6.2452e-4 -0.001315,-0.00134 -0.003431,-0.001141 -0.001915,1.8042e-4 -0.004344,0.001262 -0.004178,0.001076 7.4744e-4,-8.3666e-4 0.002164,-0.001442 0.003332,-0.001755 0.002002,-5.353e-4 0.003991,-5.95e-6 0.004182,-1.3977e-4 0.00483,-9.12e-5 -5.7694e-4,0.003517 -0.003034,0.007472 -0.00251,0.004039 -0.004652,0.006022 -0.009025,0.0106952 -0.001176,0.001257 -0.002508,0.002344 -0.003875,0.003278 z"
   inkscape:connector-curvature="0"
   style="fill:#a30891" />
     <path
   id="_346464072"
   class="fil11"
   d="M 0.106822,0.148048 C 0.10595659,0.151836 0.108912,0.15201 0.111267,0.151249 0.113622,0.15048768 0.120182,0.148524 0.1245545,0.143851 0.1289275,0.139178 0.1307615,0.13609 0.1334055,0.1330686 c 0.002645,-0.003022 0.00836,-0.009164 0.005284,-0.0109163 -0.001087,0.003405 -0.004069,0.005124 -0.005914,0.007668 -0.001846,0.002543 -0.003974,0.006979 -0.008347,0.0116528 -0.004372,0.004673 -0.011292,0.007136 -0.013344,0.0078 -0.002052,6.6318e-4 -0.003777,2.4089e-4 -0.004263,-0.001224 z"
   inkscape:connector-curvature="0"
   style="fill:#8f007f" />
    </g>
   </g>
   <g
   id="g9572">
    <path
   id="_346464984"
   class="fil7"
   d="M 0.62767,0.0612468 C 0.61937476,0.05426404 0.60703,0.0477809 0.5957718,0.0465398 0.5845135,0.04529869 0.5657293,0.04121252 0.5812125,0.05131194 0.5966947,0.06141034 0.5936722,0.06109712 0.6059049,0.06427724 0.6181376,0.06745735 0.62767,0.06124682 0.62767,0.06124682 z"
   inkscape:connector-curvature="0"
   style="fill:#7f0571" />
    <path
   id="_346463952"
   class="fil12"
   d="M 0.6113,0.0552008 C 0.605987,0.050729 0.59808,0.0465764 0.5908702,0.0457814 0.5836592,0.04498637 0.571629,0.0423703 0.5815452,0.0488376 c 0.009916,0.0064683 0.00798,0.006267 0.0158153,0.0083042 0.007834,0.0020371 0.0139397,-0.001941 0.0139397,-0.001941 z"
   inkscape:connector-curvature="0"
   style="fill:#ff57ea" />
    <path
   id="_346463856"
   class="fil9"
   d="M 0.622891,0.0581767 C 0.616361,0.0526809 0.6066445,0.0475767 0.5977832,0.0466002 0.5889222,0.04562376 0.5741366,0.042408 0.5863237,0.0503563 0.5985098,0.0583046 0.5961307,0.0580577 0.6057592,0.0605618 0.6153882,0.0630648 0.6228909,0.0581767 0.6228909,0.0581767 z"
   inkscape:connector-curvature="0"
   style="fill:#d50abc" />
   </g>
   <g
   id="g9577">
    <path
   id="_346463664"
   class="fil13"
   d="M 0.228713,0.149375 C 0.2184381,0.1681652 0.226297,0.1783271 0.234607,0.1830615 0.242918,0.1877955 0.2649707,0.1952456 0.2839512,0.1869125 0.3029307,0.1785795 0.3053049,0.1716107 0.3178975,0.1598281 0.3304901,0.1480454 0.3589048,0.1577591 0.3424224,0.1396511 0.325939,0.1215429 0.3390054,0.1179931 0.3101733,0.1191975 0.2813402,0.1204015 0.2794161,0.1191172 0.273271,0.1231985 0.267126,0.1272805 0.2549864,0.133634 0.2455363,0.1390554 0.2360863,0.1444764 0.2287129,0.1493749 0.2287129,0.1493749 z"
   inkscape:connector-curvature="0"
   style="fill:#d407bb" />
    <path
   id="_346463568"
   class="fil14"
   d="M 0.224453,0.163055 C 0.217361,0.1789208 0.225726,0.1900929 0.233482,0.1945111 0.241237,0.1989301 0.2626472,0.2120156 0.2809863,0.2039631 0.2993255,0.1959121 0.308381,0.1869117 0.3197097,0.1810679 0.3310383,0.1752249 0.3550468,0.1645349 0.3482415,0.1450667 0.3409685,0.158255 0.3302364,0.1564281 0.3218073,0.1626723 0.3133773,0.1689163 0.3018375,0.1836146 0.2834973,0.191667 0.2651581,0.199718 0.2420984,0.187866 0.2353427,0.184018 0.2285857,0.180169 0.2240924,0.17205 0.2244532,0.1630549 z"
   inkscape:connector-curvature="0"
   style="fill:#810474" />
    <path
   id="_346463400"
   class="fil15"
   d="M 0.229997,0.174934 C 0.23153,0.176421 0.233242,0.177644 0.234973,0.178632 0.243283,0.183366 0.2658304,0.1948815 0.2848099,0.186549 0.3037904,0.178215 0.3127052,0.175712 0.3252978,0.1639304 0.3349308,0.1549174 0.3496998,0.153491 0.3487392,0.1452155 l -6.3146e-4,-7.0779e-4 c -0.006393,-0.007023 -0.00834,-0.011854 -0.0100122,-0.0150698 -7.2762e-4,-0.001025 -0.001359,-0.001988 -0.001908,-0.002888 -0.002454,-0.002574 -0.006734,-0.003064 -0.0203287,-0.002496 -0.0288331,0.001204 -0.0307572,-8.03e-5 -0.0369023,0.004001 -0.006145,0.004082 -0.0182846,0.0104355 -0.0277347,0.0158569 -0.00945,0.005421 -0.0168234,0.0103195 -0.0168234,0.0103195 -0.00471,0.008611 -0.005608,0.0154079 -0.004401,0.0207034 z"
   inkscape:connector-curvature="0"
   style="fill:#970089" />
    <path
   id="_346463232"
   class="fil16"
   d="M 0.269069,0.189481 C 0.2823297,0.182547 0.2844987,0.182482 0.2915647,0.1777886 0.2969957,0.1741826 0.33086,0.1602544 0.3415959,0.1467816 0.3432909,0.1446546 0.3393219,0.1351149 0.3327189,0.1285089 0.3267399,0.1225269 0.3180932,0.1193419 0.3188238,0.1189819 c 0.003293,-0.00162 0.008305,3.6381e-4 0.012203,0.002969 0.006683,0.004469 0.0119938,0.0143729 0.0127343,0.0143729 C 0.3583789,0.153284 0.3376291,0.1523909 0.325298,0.1639297 0.3127054,0.1757114 0.3037906,0.1782144 0.2848101,0.1865483 0.2797051,0.1887893 0.2743429,0.1895933 0.2690692,0.1894813 z"
   inkscape:connector-curvature="0"
   style="fill:#920681" />
   </g>
   <g
   id="g9583">
    <path
   id="_346462992"
   class="fil17"
   d="M 0.381828,0.83936 C 0.38878,0.835696 0.390367,0.834245 0.3944493,0.833366 0.3985303,0.83248671 0.3970763,0.831584 0.3840446,0.823629 0.3710119,0.81567475 0.368034,0.80730808 0.3439066,0.80193728 0.3197792,0.79656738 0.2844511,0.79163858 0.2734099,0.78897398 0.2623687,0.78630836 0.2624024,0.78821662 0.2518183,0.7869656 0.2412331,0.7857156 0.2303446,0.7844256 0.231441,0.7920026 c 0.001096,0.007577 0.00512,0.010603 0.00512,0.010603 0,0 0.103391,0.007847 0.12688,0.0266175 0.02349,0.0187704 0.0183867,0.0101371 0.0183867,0.0101371 z"
   inkscape:connector-curvature="0"
   style="fill:#50224c" />
    <g
   id="g9586">
     <path
   id="_346462488"
   class="fil18"
   d="M 0.357661,0.85638 C 0.3747382,0.85145 0.3697182,0.8431927 0.362439,0.8374064 0.35516,0.8316214 0.334169,0.8187768 0.3112688,0.8149504 0.2883677,0.8111254 0.2835608,0.8135524 0.2663181,0.81408003 c -0.0172438,5.2738e-4 -0.0442539,-0.016079 -0.0326744,-3.301e-4 0.0115794,0.0157489 -0.00347,0.0120424 0.0275632,0.0234701 0.0310338,0.0114278 0.0326566,0.0128602 0.0405246,0.0134203 0.007868,5.6009e-4 0.0228496,0.002505 0.0346689,0.003786 0.0118193,0.001282 0.0212605,0.001954 0.0212605,0.001954 z"
   inkscape:connector-curvature="0"
   style="fill:#860079" />
     <path
   id="_346279776"
   class="fil19"
   d="M 0.327925,0.819895 C 0.3115605,0.817768 0.3092339,0.816894 0.3001873,0.81625 0.2932333,0.81575534 0.2526839,0.808468 0.2368597,0.810599 0.2343607,0.81093604 0.2354507,0.817267 0.2403027,0.823258 0.2446937,0.828682 0.2528387,0.8338491 0.2519446,0.8337202 0.2479136,0.83314227 0.2432386,0.8300812 0.2399508,0.8271782 0.2343138,0.8222022 0.2319168,0.8151319 0.2311298,0.8148236 0.2211558,0.800415 0.2429134,0.8095026 0.2597984,0.8089846 c 0.0172428,-5.2737e-4 0.0275375,0.001961 0.0504376,0.005787 0.00616,0.001029 0.0121207,0.00287 0.0176889,0.005123 z"
   inkscape:connector-curvature="0"
   style="fill:#800772" />
     <path
   id="_347413848"
   class="fil20"
   d="M 0.370455,0.85072 C 0.3836374,0.845729 0.378228,0.8364521 0.37119848,0.8308642 0.36416848,0.8252772 0.34506268,0.8094014 0.32216158,0.805575 0.29926148,0.80175 0.28624958,0.80241 0.27180818,0.800488 c -0.0144403,-0.001922 -0.04447,-0.006855 -0.0435907,0.00596 0.0124726,-0.003555 0.0236545,0.002002 0.0350436,0.00247 0.0113881,4.679e-4 0.0290671,-0.002012 0.0519672,0.001814 0.0229001,0.003825 0.044239,0.0197874 0.0503633,0.0246548 0.006124,0.004867 0.008312,0.0109252 0.004863,0.0153335 z"
   inkscape:connector-curvature="0"
   style="fill:#63175b" />
    </g>
   </g>
   <g
   id="g9591">
    <path
   id="_346470480"
   class="fil14"
   d="M 0.747725,0.66527 C 0.75588642,0.6470121 0.74626084,0.6341569 0.7373361,0.6290725 0.72841237,0.62398809 0.7037755,0.6089302 0.6826725,0.6181959 0.6615686,0.62746163 0.651149,0.6378178 0.6381133,0.6445418 0.6250766,0.65126582 0.59745,0.6635669 0.6052813,0.6859694 0.6136513,0.6707925 0.6259996,0.6728961 0.6356995,0.6657101 c 0.0097,-0.007185 0.0229795,-0.0240986 0.0440834,-0.0333644 0.0211029,-0.009266 0.0476382,0.004374 0.055412,0.008802 0.007775,0.004429 0.0129455,0.0137712 0.0125301,0.0241224 z"
   inkscape:connector-curvature="0"
   style="fill:#810474" />
    <path
   id="_349367208"
   class="fil21"
   d="M 0.741347,0.651601 C 0.739583,0.649889 0.737614,0.648482 0.735621,0.647346 0.726057,0.641898 0.7001124,0.628647 0.678272,0.638236 0.6564316,0.647826 0.6461725,0.6507056 0.6316826,0.6642637 0.6205988,0.6746347 0.6036029,0.6762763 0.6047082,0.6857988 l 7.2762e-4,8.1386e-4 c 0.007355,0.008082 0.009597,0.0136414 0.01152,0.0173419 8.3765e-4,0.00118 0.001564,0.002286 0.002197,0.003322 0.002824,0.002963 0.007748,0.003526 0.0233928,0.002873 0.033178,-0.001386 0.0353916,9.318e-5 0.0424636,-0.004604 0.007071,-0.004697 0.0210395,-0.0120077 0.0319131,-0.018247 0.0108746,-0.006238 0.0193602,-0.0118748 0.0193602,-0.0118748 0.005418,-0.009909 0.006452,-0.0177295 0.005065,-0.0238231 z"
   inkscape:connector-curvature="0"
   style="fill:#7c076e" />
    <path
   id="_346279176"
   class="fil16"
   d="M 0.696386,0.634862 C 0.6811268,0.64284 0.6786297,0.642914 0.6704991,0.648315 0.6642501,0.652467 0.6252817,0.668493 0.612928,0.683996 0.610978,0.686444 0.615545,0.6974203 0.6231434,0.7050216 0.6300234,0.7119056 0.6399738,0.7155711 0.6391322,0.7159854 0.6353432,0.7178504 0.6295762,0.71556707 0.6250904,0.7125694 0.6173994,0.7074274 0.6112885,0.6960305 0.6104369,0.6960305 0.5936154,0.6765147 0.6174929,0.6775417 0.6316826,0.6642641 0.6461725,0.650706 0.6564315,0.6478263 0.678272,0.6382364 0.684146,0.6356584 0.6903164,0.6347324 0.6963861,0.6348624 z"
   inkscape:connector-curvature="0"
   style="fill:#920681" />
   </g>
  </g>
 </g>
</svg>
