<?xml version="1.0" encoding="UTF-8" standalone="no"?>
<!-- Creator: CorelDRAW -->

<svg
   xmlns:dc="http://purl.org/dc/elements/1.1/"
   xmlns:cc="http://creativecommons.org/ns#"
   xmlns:rdf="http://www.w3.org/1999/02/22-rdf-syntax-ns#"
   xmlns:svg="http://www.w3.org/2000/svg"
   xmlns="http://www.w3.org/2000/svg"
   xmlns:xlink="http://www.w3.org/1999/xlink"
   xmlns:sodipodi="http://sodipodi.sourceforge.net/DTD/sodipodi-0.dtd"
   xmlns:inkscape="http://www.inkscape.org/namespaces/inkscape"
   xml:space="preserve"
   width="3.20015in"
   height="3.0808301in"
   style="fill-rule:evenodd"
   viewBox=""
   id="svg7782"
   version="1.1"
   inkscape:version="0.48.3.1 r9886"
   sodipodi:docname="player11.svg"><metadata
   id="metadata8063"><rdf:RDF><cc:Work
       rdf:about=""><dc:format>image/svg+xml</dc:format><dc:type
         rdf:resource="http://purl.org/dc/dcmitype/StillImage" /></cc:Work></rdf:RDF></metadata><sodipodi:namedview
   pagecolor="#ffffff"
   bordercolor="#666666"
   borderopacity="1"
   objecttolerance="10"
   gridtolerance="10"
   guidetolerance="10"
   inkscape:pageopacity="0"
   inkscape:pageshadow="2"
   inkscape:window-width="640"
   inkscape:window-height="480"
   id="namedview8061"
   showgrid="false"
   inkscape:zoom="1.0805506"
   inkscape:cx="144.00674"
   inkscape:cy="138.63736"
   inkscape:window-x="0"
   inkscape:window-y="0"
   inkscape:window-maximized="0"
   inkscape:current-layer="svg7782" />
 <defs
   id="defs7784">
  <style
   type="text/css"
   id="style7786">
    .str0 {stroke:gray;stroke-width:0.000932445}
    .str1 {stroke:#99CCCC;stroke-width:0.000932445}
    .str2 {stroke:white;stroke-width:0.000932445}
    .str5 {stroke:#912783;stroke-width:0.00215857}
    .str4 {stroke:#F4D5FF;stroke-width:0.00215857}
    .str3 {stroke:#FF99FF;stroke-width:0.00215857}
    .fil30 {fill:none}
    .fil48 {fill:#FEFEFE}
    .fil47 {fill:black}
    .fil2 {fill:#003333}
    .fil40 {fill:#2B1F46}
    .fil38 {fill:#336666}
    .fil28 {fill:#3C682D}
    .fil34 {fill:#528C36}
    .fil33 {fill:#61A53E}
    .fil9 {fill:#669999}
    .fil20 {fill:#74E9F0}
    .fil18 {fill:#7DC05C}
    .fil39 {fill:#996699}
    .fil16 {fill:#999966}
    .fil41 {fill:#99CCCC}
    .fil25 {fill:#C1FFFF}
    .fil46 {fill:#CC33FF}
    .fil37 {fill:#D0E8E8}
    .fil36 {fill:#E6E6E6}
    .fil3 {fill:white}
    .fil31 {fill:#224827;fill-rule:nonzero}
    .fil35 {fill:url(#id0)}
    .fil6 {fill:url(#id1)}
    .fil5 {fill:url(#id2)}
    .fil42 {fill:url(#id3)}
    .fil14 {fill:url(#id4)}
    .fil23 {fill:url(#id5)}
    .fil12 {fill:url(#id6)}
    .fil44 {fill:url(#id7)}
    .fil26 {fill:url(#id8)}
    .fil43 {fill:url(#id9)}
    .fil27 {fill:url(#id10)}
    .fil45 {fill:url(#id11)}
    .fil24 {fill:url(#id12)}
    .fil17 {fill:url(#id13)}
    .fil19 {fill:url(#id14)}
    .fil32 {fill:url(#id15)}
    .fil22 {fill:url(#id16)}
    .fil29 {fill:url(#id17)}
    .fil21 {fill:url(#id18)}
    .fil13 {fill:url(#id19)}
    .fil0 {fill:url(#id20)}
    .fil11 {fill:url(#id21)}
    .fil1 {fill:url(#id22)}
    .fil15 {fill:url(#id23)}
    .fil10 {fill:url(#id24)}
    .fil8 {fill:url(#id25)}
    .fil7 {fill:url(#id26)}
    .fil4 {fill:url(#id27)}   
  </style>
  <linearGradient
   id="id0"
   gradientUnits="userSpaceOnUse"
   x1="0.40008599"
   y1="0.17140201"
   x2="0.80075097"
   y2="0.37002301">
   <stop
   offset="0"
   style="stop-color:#336666"
   id="stop7789" />
   <stop
   offset="0.380392"
   style="stop-color:#99CCCC"
   id="stop7791" />
   <stop
   offset="0.509804"
   style="stop-color:#BDDFDF"
   id="stop7793" />
   <stop
   offset="0.639216"
   style="stop-color:#99CCCC"
   id="stop7795" />
   <stop
   offset="1"
   style="stop-color:#336666"
   id="stop7797" />
  </linearGradient>
  <linearGradient
   id="id1"
   gradientUnits="userSpaceOnUse"
   x1="0.123921"
   y1="0.183011"
   x2="0.94849098"
   y2="0.59744698">
   <stop
   offset="0"
   style="stop-color:#99CCCC"
   id="stop7800" />
   <stop
   offset="0.0784314"
   style="stop-color:#669999"
   id="stop7802" />
   <stop
   offset="0.509804"
   style="stop-color:#99CCCC"
   id="stop7804" />
   <stop
   offset="0.929412"
   style="stop-color:#669999"
   id="stop7806" />
   <stop
   offset="1"
   style="stop-color:#99CCCC"
   id="stop7808" />
  </linearGradient>
  <linearGradient
   id="id2"
   gradientUnits="userSpaceOnUse"
   x1="0.344464"
   y1="0.31567499"
   x2="0.72234303"
   y2="0.50611198">
   <stop
   offset="0"
   style="stop-color:black"
   id="stop7811" />
   <stop
   offset="0.509804"
   style="stop-color:#336666"
   id="stop7813" />
   <stop
   offset="1"
   style="stop-color:black"
   id="stop7815" />
  </linearGradient>
  <linearGradient
   id="id3"
   gradientUnits="userSpaceOnUse"
   x1="0.18234301"
   y1="0.894692"
   x2="0.452196"
   y2="0.47850299">
   <stop
   offset="0"
   style="stop-color:#336666"
   id="stop7818" />
   <stop
   offset="0.760784"
   style="stop-color:#98B2B2"
   id="stop7820" />
   <stop
   offset="1"
   style="stop-color:#FEFEFE"
   id="stop7822" />
  </linearGradient>
  <linearGradient
   id="id4"
   gradientUnits="userSpaceOnUse"
   x1="0.623882"
   y1="0.201343"
   x2="0.57999402"
   y2="0.30534601">
   <stop
   offset="0"
   style="stop-color:#666633"
   id="stop7825" />
   <stop
   offset="1"
   style="stop-color:#1A1A00"
   id="stop7827" />
  </linearGradient>
  <linearGradient
   id="id5"
   gradientUnits="userSpaceOnUse"
   x1="0.68609601"
   y1="0.162003"
   x2="0.68342799"
   y2="0.140466">
   <stop
   offset="0"
   style="stop-color:#88CA68"
   id="stop7830" />
   <stop
   offset="1"
   style="stop-color:#61A53E"
   id="stop7832" />
  </linearGradient>
  <linearGradient
   id="id6"
   gradientUnits="userSpaceOnUse"
   x1="0.70341903"
   y1="0.092376903"
   x2="0.59296298"
   y2="0.31519699">
   <stop
   offset="0"
   style="stop-color:#669999"
   id="stop7835" />
   <stop
   offset="1"
   style="stop-color:#003333"
   id="stop7837" />
  </linearGradient>
  <linearGradient
   id="id7"
   gradientUnits="userSpaceOnUse"
   x1="0.440373"
   y1="0.71794301"
   x2="0.466373"
   y2="0.71737301">
   <stop
   offset="0"
   style="stop-color:#B648B8"
   id="stop7840" />
   <stop
   offset="1"
   style="stop-color:#D273D9"
   id="stop7842" />
  </linearGradient>
  <linearGradient
   id="id8"
   gradientUnits="userSpaceOnUse"
   xlink:href="#id5"
   x1="0.644508"
   y1="0.148183"
   x2="0.660905"
   y2="0.132833">
  </linearGradient>
  <linearGradient
   id="id9"
   gradientUnits="userSpaceOnUse"
   x1="0.34069499"
   y1="0.63471001"
   x2="0.33104399"
   y2="0.58530802">
   <stop
   offset="0"
   style="stop-color:#D273D9"
   id="stop7846" />
   <stop
   offset="1"
   style="stop-color:#912783"
   id="stop7848" />
  </linearGradient>
  <linearGradient
   id="id10"
   gradientUnits="userSpaceOnUse"
   x1="0.64676797"
   y1="0.149468"
   x2="0.65211803"
   y2="0.1353">
   <stop
   offset="0"
   style="stop-color:black"
   id="stop7851" />
   <stop
   offset="1"
   style="stop-color:#1A1A1A"
   id="stop7853" />
  </linearGradient>
  <linearGradient
   id="id11"
   gradientUnits="userSpaceOnUse"
   x1="0.34325701"
   y1="0.70318699"
   x2="0.27604401"
   y2="0.79082102">
   <stop
   offset="0"
   style="stop-color:#9C2E8D"
   id="stop7856" />
   <stop
   offset="1"
   style="stop-color:#72155B"
   id="stop7858" />
  </linearGradient>
  <linearGradient
   id="id12"
   gradientUnits="userSpaceOnUse"
   xlink:href="#id10"
   x1="0.680893"
   y1="0.160551"
   x2="0.68507802"
   y2="0.148908">
  </linearGradient>
  <linearGradient
   id="id13"
   gradientUnits="userSpaceOnUse"
   x1="0.61156601"
   y1="0.25106499"
   x2="0.65772802"
   y2="0.25693899">
   <stop
   offset="0"
   style="stop-color:#88CA68"
   id="stop7862" />
   <stop
   offset="1"
   style="stop-color:#98D27E"
   id="stop7864" />
  </linearGradient>
  <linearGradient
   id="id14"
   gradientUnits="userSpaceOnUse"
   x1="0.63106102"
   y1="0.221331"
   x2="0.62637901"
   y2="0.236213">
   <stop
   offset="0"
   style="stop-color:#3C682D"
   id="stop7867" />
   <stop
   offset="1"
   style="stop-color:#88CA68"
   id="stop7869" />
  </linearGradient>
  <linearGradient
   id="id15"
   gradientUnits="userSpaceOnUse"
   xlink:href="#id5"
   x1="0.65398699"
   y1="0.18582401"
   x2="0.65584999"
   y2="0.180783">
  </linearGradient>
  <linearGradient
   id="id16"
   gradientUnits="userSpaceOnUse"
   x1="0.71400797"
   y1="0.13083801"
   x2="0.68296099"
   y2="0.119874">
   <stop
   offset="0"
   style="stop-color:#AADA94"
   id="stop7873" />
   <stop
   offset="1"
   style="stop-color:#88CA68"
   id="stop7875" />
  </linearGradient>
  <linearGradient
   id="id17"
   gradientUnits="userSpaceOnUse"
   xlink:href="#id5"
   x1="0.65886998"
   y1="0.17268901"
   x2="0.65681702"
   y2="0.178238">
  </linearGradient>
  <linearGradient
   id="id18"
   gradientUnits="userSpaceOnUse"
   xlink:href="#id13"
   x1="0.67271698"
   y1="0.140819"
   x2="0.69687998"
   y2="0.149142">
  </linearGradient>
  <linearGradient
   id="id19"
   gradientUnits="userSpaceOnUse"
   x1="0.71278697"
   y1="0.29085299"
   x2="0.68287998"
   y2="0.35117999">
   <stop
   offset="0"
   style="stop-color:#003333"
   id="stop7880" />
   <stop
   offset="1"
   style="stop-color:black"
   id="stop7882" />
  </linearGradient>
  <radialGradient
   id="id20"
   gradientUnits="userSpaceOnUse"
   cx="0.47878301"
   cy="0.47878301"
   r="0.66479897"
   fx="0.47878301"
   fy="0.47878301">
   <stop
   offset="0"
   style="stop-color:black"
   id="stop7885" />
   <stop
   offset="0.701961"
   style="stop-color:gray"
   id="stop7887" />
   <stop
   offset="1"
   style="stop-color:white"
   id="stop7889" />
  </radialGradient>
  <radialGradient
   id="id21"
   gradientUnits="userSpaceOnUse"
   cx="0.595056"
   cy="0.31173599"
   r="0.206045"
   fx="0.595056"
   fy="0.31173599">
   <stop
   offset="0"
   style="stop-color:#003333"
   id="stop7892" />
   <stop
   offset="1"
   style="stop-color:#669999"
   id="stop7894" />
  </radialGradient>
  <radialGradient
   id="id22"
   gradientUnits="userSpaceOnUse"
   cx="0.47878301"
   cy="0.47878501"
   r="0.66479897"
   fx="0.47878301"
   fy="0.47878501">
   <stop
   offset="0"
   style="stop-color:#CC3399"
   id="stop7897" />
   <stop
   offset="1"
   style="stop-color:#000066"
   id="stop7899" />
  </radialGradient>
  <radialGradient
   id="id23"
   gradientUnits="userSpaceOnUse"
   cx="0.61629599"
   cy="0.25999701"
   r="0.069349602"
   fx="0.61629599"
   fy="0.25999701">
   <stop
   offset="0"
   style="stop-color:#333300"
   id="stop7902" />
   <stop
   offset="0.431373"
   style="stop-color:#666633"
   id="stop7904" />
   <stop
   offset="1"
   style="stop-color:#999966"
   id="stop7906" />
  </radialGradient>
  <radialGradient
   id="id24"
   gradientUnits="userSpaceOnUse"
   cx="0.664397"
   cy="0.15971699"
   r="0.21203101"
   fx="0.664397"
   fy="0.15971699">
   <stop
   offset="0"
   style="stop-color:#660066"
   id="stop7909" />
   <stop
   offset="0.74902"
   style="stop-color:#330066"
   id="stop7911" />
   <stop
   offset="1"
   style="stop-color:#000066"
   id="stop7913" />
  </radialGradient>
  <radialGradient
   id="id25"
   gradientUnits="userSpaceOnUse"
   cx="0.61177498"
   cy="0.242387"
   r="0.29434201"
   fx="0.61177498"
   fy="0.242387">
   <stop
   offset="0"
   style="stop-color:#FEFEFE"
   id="stop7916" />
   <stop
   offset="1"
   style="stop-color:#99CCCC"
   id="stop7918" />
  </radialGradient>
  <radialGradient
   id="id26"
   gradientUnits="userSpaceOnUse"
   xlink:href="#id25"
   cx="0.63315398"
   cy="0.204494"
   r="0.241"
   fx="0.63315398"
   fy="0.204494">
  </radialGradient>
  <radialGradient
   id="id27"
   gradientUnits="userSpaceOnUse"
   cx="0.50366199"
   cy="0.478255"
   r="0.062269401"
   fx="0.50366199"
   fy="0.478255">
   <stop
   offset="0"
   style="stop-color:#99CCCC"
   id="stop7922" />
   <stop
   offset="1"
   style="stop-color:#336666"
   id="stop7924" />
  </radialGradient>
 <radialGradient
   inkscape:collect="always"
   xlink:href="#id25"
   id="radialGradient8065"
   gradientUnits="userSpaceOnUse"
   cx="0.61177498"
   cy="0.242387"
   fx="0.61177498"
   fy="0.242387"
   r="0.29434201" /><linearGradient
   inkscape:collect="always"
   xlink:href="#id13"
   id="linearGradient8067"
   gradientUnits="userSpaceOnUse"
   x1="0.61156601"
   y1="0.25106499"
   x2="0.65772802"
   y2="0.25693899" /><linearGradient
   inkscape:collect="always"
   xlink:href="#id5"
   id="linearGradient8069"
   gradientUnits="userSpaceOnUse"
   x1="0.68609601"
   y1="0.162003"
   x2="0.68342799"
   y2="0.140466" /><linearGradient
   inkscape:collect="always"
   xlink:href="#id10"
   id="linearGradient8071"
   gradientUnits="userSpaceOnUse"
   x1="0.64676797"
   y1="0.149468"
   x2="0.65211803"
   y2="0.1353" /></defs>
 <g
   id="Layer_x0020_1"
   transform="matrix(289.56844,0,0,290.25398,-0.13446975,-0.1347892)">
  <metadata
   id="CorelCorpID_0Corel-Layer" />
  <g
   id="_353055728">
   <circle
   id="_357862424"
   class="fil0 str0"
   cx="0.47878399"
   cy="0.47878399"
   r="0.47831801"
   sodipodi:cx="0.47878399"
   sodipodi:cy="0.47878399"
   sodipodi:rx="0.47831801"
   sodipodi:ry="0.47831801"
   style="fill:url(#id20);stroke:#808080;stroke-width:0.00093244"
   d="m 0.957102,0.47878399 c 0,0.26416775 -0.21415026,0.47831801 -0.47831801,0.47831801 -0.26416774,0 -0.47831800089,-0.21415026 -0.47831800089,-0.47831801 0,-0.26416774 0.21415026089,-0.47831800089 0.47831800089,-0.47831800089 0.26416775,0 0.47831801,0.21415026089 0.47831801,0.47831800089 z" />
   <circle
   id="_357862616"
   class="fil1"
   cx="0.47878399"
   cy="0.47878399"
   r="0.45524999"
   sodipodi:cx="0.47878399"
   sodipodi:cy="0.47878399"
   sodipodi:rx="0.45524999"
   sodipodi:ry="0.45524999"
   style="fill:url(#id22)"
   d="m 0.93403399,0.47878399 c 0,0.25142763 -0.20382237,0.45525 -0.45525,0.45525 -0.25142762,0 -0.45524999,-0.20382237 -0.45524999,-0.45525 0,-0.25142762 0.20382237,-0.45524999 0.45524999,-0.45524999 0.25142763,0 0.45525,0.20382237 0.45525,0.45524999 z" />
   <g
   id="g7931">
    <path
   id="_360315800"
   class="fil2"
   d="M 0.766178,0.424568 C 0.7147932,0.4818387 0.639104,0.5096933 0.564049,0.4971922 0.5509495,0.4818338 0.5350294,0.4689178 0.5137606,0.4583746 0.492493,0.4478326 0.4706344,0.4421437 0.4504792,0.4410179 0.3950869,0.3888536 0.3733678,0.3125869 0.3878365,0.2370159 l 0.378341,0.187552 z"
   inkscape:connector-curvature="0"
   style="fill:#003333" />
    <path
   id="_359485824"
   class="fil3"
   d="M 0.764475,0.423724 C 0.7130902,0.4809947 0.639664,0.5090353 0.56461,0.4965342 0.5515105,0.4811758 0.5333254,0.4680738 0.5120578,0.4575306 0.4907902,0.4469874 0.4689316,0.4412997 0.4487764,0.4401739 0.3933841,0.3880096 0.371665,0.3117429 0.3861325,0.2361719 l 0.378342,0.187552 z"
   inkscape:connector-curvature="0"
   style="fill:#ffffff" />
    <path
   id="_359485512"
   class="fil4"
   d="M 0.768304,0.424562 C 0.7169192,0.4818315 0.639665,0.5090339 0.56461,0.496534 0.5515105,0.4811756 0.5337488,0.4672207 0.5124812,0.45668 0.4912124,0.4461355 0.469355,0.4404479 0.4491998,0.4393209 0.3938062,0.3871578 0.3686792,0.3092019 0.383148,0.2336309 l 0.385156,0.190931 z"
   inkscape:connector-curvature="0"
   style="fill:url(#id27)" />
    <path
   id="_360265096"
   class="fil3"
   d="M 0.563964,0.344253 C 0.676149,0.3998656 0.782471,0.44605 0.771348,0.468487 0.7602247,0.4909244 0.7382132,0.5433224 0.521332,0.4358086 0.304451,0.3282956 0.327955,0.2777606 0.339077,0.2553246 0.3502003,0.2328872 0.451779,0.2886405 0.563964,0.3442531 z"
   inkscape:connector-curvature="0"
   style="fill:#ffffff" />
    <path
   id="_360265072"
   class="fil5"
   d="M 0.56441,0.343351 C 0.676595,0.3989636 0.782471,0.44605 0.771347,0.468486 0.7602262,0.4909234 0.73866,0.5424208 0.52178,0.4349082 0.304897,0.3273932 0.328402,0.2768592 0.339525,0.2544212 0.3506483,0.231985 0.452227,0.2877383 0.564411,0.343351 z"
   inkscape:connector-curvature="0"
   style="fill:url(#id2)" />
    <path
   id="_360338576"
   class="fil6"
   d="M 0.609601,0.25219 C 0.817267,0.355135 1.013253,0.442295 0.992663,0.48383 0.9720746,0.5253629 0.9321557,0.620688 0.530686,0.4216695 0.129214,0.2226515 0.172722,0.1291055 0.193312,0.0875705 0.2139016,0.0460388 0.401934,0.1492428 0.609601,0.2521895 z"
   inkscape:connector-curvature="0"
   style="fill:url(#id1)" />
    <path
   id="_360359008"
   class="fil7"
   d="M 0.632613,0.205766 C 0.853348,0.31519 1.014548,0.439682 0.992663,0.48383 0.9707799,0.5279779 0.774097,0.47505866 0.553362,0.365635 0.332627,0.256212 0.171427,0.131719 0.193312,0.087571 0.2151963,0.0434255 0.411877,0.09634357 0.632613,0.205766 z"
   inkscape:connector-curvature="0"
   style="fill:url(#id26)" />
    <path
   id="_360358936"
   class="fil8 str1"
   d="M 0.623879,0.223387 C 0.795958,0.3086885 0.921625,0.405741 0.904564,0.440156 0.8875022,0.4745732 0.734175,0.43331807 0.562096,0.3480153 0.390018,0.2627113 0.264351,0.1656623 0.281411,0.1312463 0.2984728,0.0968303 0.451801,0.1380843 0.623879,0.223387 z"
   inkscape:connector-curvature="0"
   style="fill:url(#radialGradient8065);stroke:#99cccc;stroke-width:0.00093244" />
    <ellipse
   id="_360359080"
   class="fil9 str1"
   transform="matrix(0.719929,0.356886,-0.356886,0.719929,0.600611,0.270322)"
   rx="0.287359"
   ry="0.057471398"
   cx="0"
   cy="0"
   sodipodi:cx="0"
   sodipodi:cy="0"
   sodipodi:rx="0.287359"
   sodipodi:ry="0.057471398"
   style="fill:#669999;stroke:#99cccc;stroke-width:0.00093244"
   d="M 0.287359,0 C 0.287359,0.03174058 0.15870399,0.0574714 0,0.0574714 -0.15870399,0.0574714 -0.287359,0.03174058 -0.287359,0 c 0,-0.03174058 0.12865501,-0.0574714 0.287359,-0.0574714 0.15870399,0 0.287359,0.02573082 0.287359,0.0574714 z" />
    <path
   id="_360213472"
   class="fil10"
   d="m 0.717087,0.0353631 c 0.001679,8.2965e-4 0.003337,0.0016911 0.004979,0.0025722 5.0905e-4,2.741e-4 0.00101,5.6412e-4 0.001517,8.4312e-4 0.00111,6.1061e-4 0.002221,0.0012188 0.003312,0.0018514 6.5712e-4,3.7934e-4 0.0013,7.7581e-4 0.001949,0.0011649 9.3245e-4,5.5677e-4 0.00187,0.0011111 0.00279,0.0016838 6.8404e-4,4.2584e-4 0.001358,8.6636e-4 0.002035,0.0013008 8.7371e-4,5.6167e-4 0.00175,0.0011233 0.002611,0.0016985 6.6446e-4,4.4542e-4 0.001323,9.0185e-4 0.001982,0.0013546 8.5168e-4,5.8736e-4 0.001706,0.0011747 0.002548,0.0017768 6.7425e-4,4.8457e-4 0.001342,9.7649e-4 0.002012,0.0014696 7.9784e-4,5.8981e-4 0.001594,0.0011796 0.002383,0.0017805 6.6568e-4,5.0905e-4 0.001324,0.0010279 0.001982,0.0015431 7.905e-4,6.2285e-4 0.001577,0.0012494 0.002357,0.0018832 6.3264e-4,5.1761e-4 0.001263,0.0010413 0.001891,0.0015663 7.7092e-4,6.4732e-4 0.001537,0.0013008 0.002299,0.0019616 6.2285e-4,5.4209e-4 0.001246,0.0010891 0.001864,0.0016434 7.4277e-4,6.6323e-4 0.001479,0.001335 0.002211,0.0020105 6.1062e-4,5.6411e-4 0.001221,0.0011307 0.001825,0.0017046 7.2075e-4,6.8648e-4 0.001433,0.0013815 0.002144,0.0020803 5.9104e-4,5.8369e-4 0.001185,0.0011625 0.001768,0.0017535 7.1708e-4,7.2442e-4 0.001423,0.0014623 0.002128,0.0022002 5.5678e-4,5.8002e-4 0.001115,0.0011576 0.001663,0.0017462 7.0239e-4,7.5501e-4 0.001394,0.0015247 0.002086,0.002292 5.3597e-4,5.9715e-4 0.001081,0.0011919 0.00161,0.0017964 7.3543e-4,8.3699e-4 0.001454,0.0016899 0.002174,0.0025416 4.5276e-4,5.3474e-4 9.1287e-4,0.0010621 0.001362,0.0016043 8.0273e-4,9.7527e-4 0.001588,0.0019652 0.002376,0.0029564 3.6466e-4,4.601e-4 7.3543e-4,9.0919e-4 0.001096,0.0013705 0.001112,0.0014305 0.002208,0.0028757 0.003284,0.0043416 3.8057e-4,5.2128e-4 7.5012e-4,0.0010585 0.001131,0.0015847 7.0362e-4,9.8139e-4 0.001411,0.0019591 0.0021,0.0029564 4.2951e-4,6.2163e-4 8.4679e-4,0.0012592 0.00127,0.0018894 6.0817e-4,9.0063e-4 0.001221,0.0017988 0.001815,0.0027154 4.6622e-4,7.134e-4 9.1776e-4,0.0014415 0.001373,0.0021622 5.372e-4,8.4801e-4 0.001076,0.001694 0.001599,0.002549 4.6867e-4,7.6357e-4 9.2266e-4,0.001534 0.00138,0.002305 4.9314e-4,8.2965e-4 9.8873e-4,0.001659 0.001472,0.0025 4.5766e-4,7.9539e-4 9.0308e-4,0.001599 0.001353,0.002405 4.6622e-4,8.3332e-4 9.3122e-4,0.001668 0.001386,0.002512 4.442e-4,8.1864e-4 8.7983e-4,0.001646 0.001312,0.002474 4.442e-4,8.4678e-4 8.8717e-4,0.001696 0.001318,0.00255 4.1605e-4,8.1864e-4 8.2354e-4,0.001641 0.00123,0.002467 4.2951e-4,8.7615e-4 8.5535e-4,0.001755 0.001273,0.002636 4.0626e-4,8.529e-4 8.0518e-4,0.001709 0.001199,0.002567 3.928e-4,8.5657e-4 7.7948e-4,0.001717 0.001165,0.002577 3.928e-4,8.8961e-4 7.8438e-4,0.001779 0.001167,0.002674 3.7322e-4,8.7126e-4 7.391e-4,0.001746 0.001101,0.002624 3.6955e-4,8.8839e-4 7.3543e-4,0.00178 0.001093,0.002676 3.5976e-4,8.9573e-4 7.0729e-4,0.001799 0.001055,0.002701 3.4753e-4,9.0307e-4 6.9627e-4,0.001805 0.001034,0.002714 3.3284e-4,8.9451e-4 6.5222e-4,0.001798 9.7405e-4,0.002699 3.3284e-4,9.2632e-4 6.6691e-4,0.00185 9.8751e-4,0.002784 3.0959e-4,9.0307e-4 6.0817e-4,0.001815 9.0797e-4,0.002725 3.1449e-4,9.5202e-4 6.3264e-4,0.001897 9.3734e-4,0.002855 2.741e-4,8.6758e-4 5.3353e-4,0.001746 8.0029e-4,0.00262 3.0714e-4,0.001005 6.1918e-4,0.002007 9.1531e-4,0.003019 2.4718e-4,8.4923e-4 4.7724e-4,0.001709 7.1585e-4,0.002565 0.001126,0.004028 0.002162,0.008108 0.003104,0.0122405 1.7499e-4,7.6235e-4 3.5609e-4,0.00152 5.2374e-4,0.00229 2.3617e-4,0.001074 4.5154e-4,0.002159 6.7547e-4,0.00324 1.8111e-4,8.8349e-4 3.6955e-4,0.001765 5.4209e-4,0.002653 2.1047e-4,0.001076 4.0504e-4,0.00216 6.0327e-4,0.003239 1.6643e-4,9.1408e-4 3.3774e-4,0.001825 4.9437e-4,0.00274 1.86e-4,0.001078 3.5732e-4,0.002161 5.2986e-4,0.003245 1.4806e-4,9.1164e-4 2.9735e-4,0.001822 4.3318e-4,0.002739 1.7009e-4,0.001128 3.2672e-4,0.002265 4.8335e-4,0.003398 1.2115e-4,8.8105e-4 2.4351e-4,0.001762 3.5609e-4,0.002646 1.4685e-4,0.001147 2.8267e-4,0.002298 4.1605e-4,0.003452 1.0402e-4,8.8961e-4 2.0436e-4,0.00178 3.0225e-4,0.002674 1.2237e-4,0.001158 2.3617e-4,0.002316 3.4753e-4,0.00348 8.198e-5,8.8472e-4 1.6275e-4,0.001769 2.3739e-4,0.002659 1.0279e-4,0.001193 1.9702e-4,0.002386 2.8512e-4,0.003583 6.486e-5,8.7615e-4 1.2359e-4,0.001756 1.7988e-4,0.002636 7.587e-5,0.00118 1.4929e-4,0.00236 2.117e-4,0.003545 4.772e-5,9.0674e-4 8.566e-5,0.001816 1.2604e-4,0.002725 5.139e-5,0.001214 1.0279e-4,0.002428 1.4317e-4,0.003644 2.57e-5,8.5657e-4 4.283e-5,0.001713 6.241e-5,0.00257 2.936e-5,0.001241 5.996e-5,0.002485 7.342e-5,0.003732 9.79e-6,8.6758e-4 7.34e-6,0.00174 1.101e-5,0.00261 3.67e-6,0.001263 1.101e-5,0.002526 -1.22e-6,0.003793 -7.35e-6,7.7581e-4 -2.57e-5,0.001554 -3.794e-5,0.002334 -2.325e-5,0.001371 -4.405e-5,0.002742 -8.321e-5,0.00412 -1.835e-5,6.2897e-4 -4.772e-5,0.001262 -7.097e-5,0.001892 -5.14e-5,0.001506 -1.0401e-4,0.003014 -1.7744e-4,0.004525 l -3.915e-5,6.4365e-4 c -2.8023e-4,0.005509 -7.0974e-4,0.0110535 -0.001275,0.0166237 -6.241e-5,6.253e-4 -1.1748e-4,0.001252 -1.86e-4,0.001878 -1.5663e-4,0.001459 -3.3284e-4,0.00292 -5.0783e-4,0.004382 -8.566e-5,7.1585e-4 -1.6397e-4,0.00143 -2.5575e-4,0.002148 -1.7988e-4,0.001426 -3.7934e-4,0.002854 -5.788e-4,0.004282 -1.0524e-4,7.6358e-4 -2.0803e-4,0.001525 -3.206e-4,0.002288 -1.9702e-4,0.001358 -4.1361e-4,0.002719 -6.2775e-4,0.004077 -1.3828e-4,8.6392e-4 -2.7166e-4,0.00173 -4.1605e-4,0.002594 -2.1537e-4,0.001303 -4.4665e-4,0.002608 -6.7915e-4,0.003913 -1.5785e-4,8.9696e-4 -3.1693e-4,0.001793 -4.8335e-4,0.00269 -2.4596e-4,0.001322 -5.0171e-4,0.002643 -7.6358e-4,0.003966 -1.7376e-4,8.786e-4 -3.4997e-4,0.001756 -5.3107e-4,0.002635 -2.6921e-4,0.001312 -5.4699e-4,0.002626 -8.3211e-4,0.003939 -1.9946e-4,9.1531e-4 -4.0259e-4,0.001829 -6.0817e-4,0.002743 -2.9246e-4,0.001307 -5.9593e-4,0.002611 -9.0552e-4,0.003917 -2.117e-4,8.9329e-4 -4.2951e-4,0.001784 -6.4733e-4,0.002679 -3.2672e-4,0.001334 -6.5956e-4,0.002668 -0.001003,0.004003 -2.2026e-4,8.5903e-4 -4.4909e-4,0.001716 -6.7424e-4,0.002575 -3.6344e-4,0.001362 -7.2565e-4,0.002723 -0.001104,0.004087 -2.3373e-4,8.4312e-4 -4.7724e-4,0.001686 -7.183e-4,0.002529 -3.9281e-4,0.00138 -7.8805e-4,0.002759 -0.001199,0.004141 -2.3862e-4,8.0151e-4 -4.8948e-4,0.001604 -7.3299e-4,0.002406 -4.3441e-4,0.001422 -8.6881e-4,0.002843 -0.001319,0.004262 -2.3372e-4,7.2932e-4 -4.7846e-4,0.001462 -7.1463e-4,0.00219 -4.8213e-4,0.001489 -9.6793e-4,0.00298 -0.001472,0.00447 -1.8722e-4,5.5188e-4 -3.8668e-4,0.001104 -5.7758e-4,0.001658 -0.002048,0.005957 -0.004255,0.0119089 -0.006637,0.0178486 -0.0204049,0.0149668 -0.113274,-0.0115148 -0.2167,-0.0627846 -0.103425,-0.0512698 -0.180729,-0.109149 -0.181174,-0.134452 0.003284,-0.005491 0.006687,-0.0108492 0.0101896,-0.0160902 3.2306e-4,-4.8458e-4 6.4244e-4,-9.7772e-4 9.6794e-4,-0.001461 8.7982e-4,-0.001303 0.001774,-0.002591 0.002665,-0.003878 4.3807e-4,-6.3142e-4 8.7126e-4,-0.001267 0.001312,-0.001894 8.578e-4,-0.00122 0.001725,-0.002427 0.002593,-0.003631 4.8947e-4,-6.8036e-4 9.7772e-4,-0.001367 0.001471,-0.00204 8.5045e-4,-0.001164 0.001711,-0.002314 0.00257,-0.003462 5.2495e-4,-7.0239e-4 0.001051,-0.001407 0.001579,-0.002105 8.5535e-4,-0.001126 0.001719,-0.002239 0.002584,-0.003352 5.4698e-4,-6.9994e-4 0.001092,-0.001402 0.00164,-0.002096 8.5535e-4,-0.001081 0.001716,-0.002154 0.00258,-0.003222 5.7757e-4,-7.1585e-4 0.001156,-0.001427 0.001739,-0.002137 8.5168e-4,-0.001039 0.001708,-0.002067 0.002569,-0.003092 6.0327e-4,-7.183e-4 0.001209,-0.001433 0.001816,-0.002146 8.737e-4,-0.001022 0.00175,-0.002039 0.00263,-0.003048 5.9226e-4,-6.7547e-4 0.001185,-0.001345 0.001778,-0.002017 8.9328e-4,-0.00101 0.001791,-0.002014 0.002692,-0.003008 6.1551e-4,-6.7547e-4 0.001232,-0.001345 0.001848,-0.002015 8.994e-4,-9.7405e-4 0.001799,-0.001946 0.002704,-0.002909 6.0082e-4,-6.3754e-4 0.001209,-0.001269 0.001815,-0.001902 9.508e-4,-9.9485e-4 0.001903,-0.001987 0.002862,-0.002969 5.3964e-4,-5.5188e-4 0.001085,-0.001094 0.001629,-0.00164 0.001016,-0.001023 0.002031,-0.0020472 0.003057,-0.0030543 5.1516e-4,-5.0538e-4 0.001035,-9.9975e-4 0.001554,-0.0015027 0.001057,-0.0010254 0.002113,-0.0020509 0.003179,-0.0030592 4.5888e-4,-4.3318e-4 9.2265e-4,-8.5535e-4 0.001384,-0.0012849 0.004091,-0.0038228 0.008241,-0.0075207 0.0124571,-0.0110792 l 4.8947e-4,-4.1972e-4 c 0.00116,-9.7527e-4 0.002326,-0.0019297 0.003494,-0.002883 4.8947e-4,-3.9892e-4 9.7282e-4,-8.0518e-4 0.001462,-0.0012004 0.001071,-8.6637e-4 0.002151,-0.0017119 0.003231,-0.0025599 6.1061e-4,-4.8213e-4 0.00122,-9.7038e-4 0.001832,-0.0014452 0.001003,-7.7581e-4 0.002012,-0.0015345 0.003019,-0.0022981 6.9505e-4,-5.2251e-4 0.001388,-0.0010536 0.002084,-0.00157 0.001001,-7.4522e-4 0.002008,-0.0014745 0.003015,-0.0022026 6.9382e-4,-5.0293e-4 0.001386,-0.0010071 0.002083,-0.0015027 9.924e-4,-7.0729e-4 0.00199,-0.0014023 0.002987,-0.0020937 7.4767e-4,-5.1884e-4 0.001495,-0.0010389 0.002245,-0.0015504 9.8261e-4,-6.6935e-4 0.001965,-0.0013265 0.002952,-0.0019799 7.3298e-4,-4.8703e-4 0.001468,-9.716e-4 0.002205,-0.0014513 0.001005,-6.5589e-4 0.002013,-0.0013008 0.003021,-0.0019444 7.5378e-4,-4.7724e-4 0.001508,-9.4958e-4 0.002263,-0.0014207 9.924e-4,-6.1551e-4 0.001985,-0.0012261 0.002981,-0.0018282 7.6847e-4,-4.6622e-4 0.001538,-9.2266e-4 0.002309,-0.0013803 9.9852e-4,-5.9226e-4 0.002001,-0.0011784 0.003,-0.0017584 7.7214e-4,-4.442e-4 0.001548,-8.7983e-4 0.00232,-0.0013167 9.973e-4,-5.6412e-4 0.001996,-0.0011258 0.002998,-0.001674 8.1007e-4,-4.4542e-4 0.001626,-8.7738e-4 0.00244,-0.0013142 9.6793e-4,-5.1762e-4 0.001935,-0.0010377 0.002905,-0.0015431 8.2476e-4,-4.2829e-4 0.001652,-8.4312e-4 0.00248,-0.0012653 9.7894e-4,-4.9681e-4 0.001959,-9.973e-4 0.002943,-0.0014806 8.1007e-4,-4.0014e-4 0.001626,-7.8438e-4 0.002441,-0.0011735 9.9485e-4,-4.7846e-4 0.001988,-9.6304e-4 0.002985,-0.0014268 7.1463e-4,-3.3162e-4 0.001429,-6.461e-4 0.00214,-9.6916e-4 0.003858,-0.0017523 0.007734,-0.0033982 0.0116225,-0.0049412 8.2476e-4,-3.2672e-4 0.00165,-6.6323e-4 0.002474,-9.8261e-4 9.8506e-4,-3.7689e-4 0.001969,-7.3421e-4 0.002956,-0.0010989 8.578e-4,-3.1693e-4 0.001713,-6.4243e-4 0.002571,-9.4713e-4 9.459e-4,-3.3896e-4 0.001891,-6.5712e-4 0.002838,-9.8384e-4 9.0674e-4,-3.1204e-4 0.001811,-6.2775e-4 0.00272,-9.2632e-4 9.3611e-4,-3.1082e-4 0.001875,-6.045e-4 0.002812,-9.0063e-4 9.1409e-4,-2.9124e-4 0.001826,-5.8248e-4 0.002737,-8.5903e-4 9.2877e-4,-2.8389e-4 0.001859,-5.5065e-4 0.002789,-8.2109e-4 9.2755e-4,-2.7043e-4 0.001856,-5.3964e-4 0.002785,-7.9661e-4 9.2999e-4,-2.582e-4 0.001861,-5.0416e-4 0.002794,-7.5012e-4 9.1653e-4,-2.4229e-4 0.001836,-4.8091e-4 0.002752,-7.0973e-4 9.4713e-4,-2.3862e-4 0.001892,-4.6623e-4 0.002839,-6.9016e-4 9.1776e-4,-2.1782e-4 0.001836,-4.2951e-4 0.002753,-6.3509e-4 9.2265e-4,-2.0436e-4 0.001847,-4.0504e-4 0.002768,-5.996e-4 9.5692e-4,-1.9946e-4 0.001915,-3.9403e-4 0.002871,-5.8248e-4 9.0307e-4,-1.7621e-4 0.001806,-3.5119e-4 0.002709,-5.1639e-4 9.4101e-4,-1.7131e-4 0.001883,-3.3406e-4 0.002825,-4.9559e-4 9.2265e-4,-1.5418e-4 0.001844,-3.0959e-4 0.002764,-4.5398e-4 9.4713e-4,-1.4929e-4 0.001893,-2.8145e-4 0.00284,-4.1606e-4 9.1042e-4,-1.2971e-4 0.001822,-2.6309e-4 0.002731,-3.7934e-4 9.6181e-4,-1.2359e-4 0.001924,-2.3127e-4 0.002883,-3.4018e-4 8.8961e-4,-1.0156e-4 0.001778,-2.0925e-4 0.002666,-2.998e-4 0.001001,-1.0157e-4 0.002001,-1.8111e-4 0.002999,-2.6799e-4 8.5168e-4,-7.464e-5 0.001702,-1.5663e-4 0.002554,-2.1781e-4 0.001088,-8.199e-5 0.002173,-1.395e-4 0.00326,-2.0069e-4 7.5746e-4,-4.405e-5 0.001516,-9.789e-5 0.002272,-1.3215e-4 0.001209,-5.507e-5 0.002418,-8.566e-5 0.003625,-1.1748e-4 6.4977e-4,-1.835e-5 0.001298,-4.894e-5 0.001947,-5.996e-5 0.001816,-3.181e-5 0.003631,-3.671e-5 0.005442,-1.59e-5 5.8614e-4,6.11e-6 0.001169,3.181e-5 0.001754,4.282e-5 0.001265,2.693e-5 0.002533,5.14e-5 0.003793,1.0279e-4 7.0117e-4,2.937e-5 0.001401,7.342e-5 0.002102,1.1013e-4 0.001114,5.752e-5 0.002227,1.1503e-4 0.003338,1.9212e-4 8.0273e-4,5.629e-5 0.001603,1.2971e-4 0.002405,1.9579e-4 0.00103,8.566e-5 0.002059,1.6887e-4 0.003087,2.7166e-4 8.0028e-4,7.954e-5 0.001598,1.7498e-4 0.002397,2.6554e-4 0.001013,1.138e-4 0.002026,2.3127e-4 0.003038,3.6098e-4 8.2353e-4,1.0891e-4 0.001646,2.2883e-4 0.002466,3.4753e-4 9.8506e-4,1.4195e-4 0.001973,2.8879e-4 0.002953,4.4664e-4 8.2353e-4,1.3338e-4 0.001643,2.7533e-4 0.002463,4.185e-4 9.8139e-4,1.7376e-4 0.00196,3.5242e-4 0.002941,5.4331e-4 8.1375e-4,1.5664e-4 0.001625,3.2061e-4 0.002435,4.8825e-4 9.8506e-4,2.0558e-4 0.00197,4.2095e-4 0.002954,6.4366e-4 7.9784e-4,1.7988e-4 0.001593,3.6466e-4 0.002391,5.5677e-4 9.7649e-4,2.3495e-4 0.001949,4.8213e-4 0.002925,7.3299e-4 8.113e-4,2.0925e-4 0.001619,4.2339e-4 0.002428,6.4366e-4 9.5692e-4,2.6309e-4 0.001908,5.4209e-4 0.002861,8.1864e-4 7.9661e-4,2.3494e-4 0.001593,4.6744e-4 0.002386,7.1218e-4 9.8751e-4,3.0347e-4 0.001974,6.2897e-4 0.002959,9.5202e-4 7.599e-4,2.4841e-4 0.001519,4.9559e-4 0.002277,7.5746e-4 9.8017e-4,3.3529e-4 0.001957,6.9383e-4 0.002932,0.0010499 7.5623e-4,2.741e-4 0.001514,5.4576e-4 0.002267,8.2966e-4 0.001014,3.8545e-4 0.002023,7.9661e-4 0.003031,0.0012017 7.0239e-4,2.8144e-4 0.001406,5.5555e-4 0.002106,8.4678e-4 0.001165,4.8458e-4 0.002321,0.001001 0.00348,0.0015149 5.2863e-4,2.3617e-4 0.001061,4.5888e-4 0.001588,6.9628e-4 0.001697,7.6847e-4 0.003386,0.0015737 0.005064,0.002407 z"
   inkscape:connector-curvature="0"
   style="fill:url(#id24)" />
    <path
   id="_360286808"
   class="fil3"
   d="M 0.644139,0.182514 C 0.7371864,0.2286394 0.803766,0.2819197 0.817583,0.310208 0.811966,0.3266665 0.8056264,0.3537955 0.8030139,0.3605013 0.7920607,0.3825936 0.6993459,0.3537503 0.5888809,0.2989893 0.4784169,0.2442296 0.3959419,0.1852283 0.4068939,0.1631363 0.4082819,0.1603373 0.4327772,0.1282345 0.4368423,0.1225627 c 0.0278608,-0.008829 0.110826,0.0121291 0.207296,0.0599518 z"
   inkscape:connector-curvature="0"
   style="fill:#ffffff" />
    <path
   id="_360287024"
   class="fil11"
   d="M 0.643717,0.183365 C 0.7367632,0.2294916 0.803766,0.281919 0.817582,0.310209 0.81398071,0.3278373 0.8060672,0.3551474 0.8025919,0.3613515 0.79164,0.3834463 0.6989239,0.35460045 0.5884589,0.2998408 0.4779949,0.2450823 0.3955209,0.1860828 0.4064719,0.1639868 0.4078599,0.1611898 0.4327786,0.1282345 0.4368424,0.122564 c 0.0278608,-0.00883 0.110404,0.0129796 0.206874,0.060801 z"
   inkscape:connector-curvature="0"
   style="fill:url(#id21)" />
    <path
   id="_360298656"
   class="fil12"
   d="M 0.627184,0.216719 C 0.7202302,0.2628456 0.792752,0.321537 0.806568,0.349826 0.800953,0.3662833 0.803681,0.358184 0.801068,0.3648907 0.7901173,0.386983 0.7031417,0.3553127 0.592676,0.3005533 0.482213,0.2457924 0.394196,0.1881003 0.405148,0.1660073 c 0.001388,-0.002799 0.00475,-0.007734 0.008815,-0.0134054 0.0278608,-0.00883 0.116749,0.0162958 0.21322,0.0641172 z"
   inkscape:connector-curvature="0"
   style="fill:url(#id6)" />
    <path
   id="_350532416"
   class="fil13"
   d="M 0.625494,0.220127 C 0.7185414,0.2662524 0.791062,0.324945 0.804879,0.353232 0.799264,0.3696917 0.801992,0.361591 0.79938,0.3682967 0.7884268,0.3903903 0.7014525,0.3587197 0.590987,0.3039605 0.480524,0.2492008 0.392507,0.1915065 0.40346,0.1694145 0.404846,0.1666145 0.408209,0.1616795 0.412274,0.1560091 0.4401348,0.1471801 0.529022,0.1723036 0.625493,0.2201275 z"
   inkscape:connector-curvature="0"
   style="fill:url(#id19)" />
    <path
   id="_359209640"
   class="fil14"
   d="M 0.63963,0.180483 C 0.6665803,0.1938419 0.6805695,0.2217333 0.6785124,0.2421528 0.6714464,0.257893 0.6606124,0.2821133 0.6575948,0.2886172 0.6466429,0.3107095 0.6149508,0.3121155 0.5829576,0.2962562 0.5509645,0.2803973 0.5321993,0.2529795 0.5431525,0.2308847 0.5445385,0.2280877 0.5636589,0.1929017 0.5670069,0.1868775 0.5814781,0.1714102 0.6116908,0.1666329 0.6396299,0.1804825 z"
   inkscape:connector-curvature="0"
   style="fill:url(#id4)" />
    <path
   id="_359604184"
   class="fil15"
   d="M 0.643789,0.183402 C 0.6707369,0.1967609 0.6847297,0.2246547 0.6826702,0.2450718 0.67560467,0.2608108 0.6647714,0.2850323 0.6617526,0.2915374 0.6507994,0.3136285 0.619111,0.3150357 0.5871167,0.29917561 0.5551224,0.28331671 0.5363584,0.25589771 0.5473092,0.23380541 c 0.001389,-0.002799 0.0205077,-0.0379818 0.0238581,-0.0440072 0.01447,-0.0154673 0.0446815,-0.0202458 0.0726218,-0.006396 z"
   inkscape:connector-curvature="0"
   style="fill:url(#id23)" />
    <path
   id="_359603584"
   class="fil16"
   d="M 0.643789,0.183403 C 0.646362,0.184678 0.648817,0.186088 0.651151,0.187609 0.649468,0.186595 0.64773,0.185636 0.645932,0.184744 0.6179917,0.1708932 0.5865015,0.175039 0.5720327,0.190506 0.5686827,0.196531 0.5495623,0.2317134 0.5481746,0.234512 0.5385186,0.2539905 0.5532426,0.2782402 0.5784864,0.2944271 0.5518677,0.2782243 0.5373842,0.2538278 0.5473107,0.2338035 0.5486967,0.2310045 0.5678184,0.1958229 0.5711676,0.1897975 0.5856364,0.1743302 0.6158491,0.1695517 0.6437894,0.1834025 z"
   inkscape:connector-curvature="0"
   style="fill:#999966" />
    <g
   id="g7950">
     <path
   id="_357947136"
   class="fil17"
   d="m 0.556486,0.250918 c 0,0 0.0420983,-0.0252898 0.0567714,-0.022129 0.001776,3.8056e-4 0.003069,9.5936e-4 0.005494,9.0185e-4 0.003106,-0.001887 0.004495,-7.9661e-4 0.009404,-0.0139194 0.004911,-0.0131252 0.0152079,1.0034e-4 0.0152079,1.0034e-4 0,0 -0.006752,0.0141996 -0.005128,0.0218488 0.001686,0.00143 0.005012,0.004097 0.006183,0.005505 0.0126614,0.0152287 0.003085,0.0528116 0.003085,0.0528116 l -0.0107341,-0.005321 c 1.0646e-4,5.384e-5 0.00527,-0.028267 -4.0871e-4,-0.0318194 -0.006481,0.0126688 -0.006928,0.0172429 -0.010832,0.0262467 l -0.0358269,-0.0177593 c 0,0 0.005322,-0.0119529 0.008364,-0.0172784 0.003045,-0.005328 -0.0193855,-6.3754e-4 -0.0267594,0.008157 -0.008232,-0.00408 -0.01482,-0.007346 -0.01482,-0.007346 z"
   inkscape:connector-curvature="0"
   style="fill:url(#linearGradient8067)" />
     <path
   id="_350399632"
   class="fil18"
   d="M 0.639661,0.29215 0.636769,0.290716 c 0,0 0.005034,-0.0264401 -4.0871e-4,-0.0318181 -0.006481,0.0126688 -0.006927,0.0172441 -0.010832,0.0262467 l -0.004055,-0.002011 c 0.003539,-0.008633 0.010449,-0.0226112 0.0135535,-0.0271804 0.003104,-0.004569 0.0109409,0.003314 0.004634,0.0361965 z"
   inkscape:connector-curvature="0"
   style="fill:#7dc05c" />
     <path
   id="_360177504"
   class="fil18"
   d="M 0.591714,0.268381 0.589702,0.2673837 c 0,0 0.005321,-0.0119505 0.008364,-0.0172771 0.003042,-0.005327 -0.0193868,-6.3754e-4 -0.0267619,0.008157 L 0.5666911,0.2559766 C 0.5783185,0.2479546 0.6008306,0.2387753 0.6007669,0.2457662 0.60070327,0.2527582 0.5965799,0.2572345 0.5917139,0.268381 z"
   inkscape:connector-curvature="0"
   style="fill:#7dc05c" />
     <path
   id="_360177576"
   class="fil19"
   d="M 0.588511,0.234544 C 0.598177,0.230486 0.6076897,0.227591 0.6132575,0.228789 c 0.001776,3.8056e-4 0.003069,9.5936e-4 0.005494,9.0185e-4 0.003106,-0.001887 0.004495,-7.9661e-4 0.009404,-0.0139194 0.004911,-0.0131252 0.0152079,1.0035e-4 0.0152079,1.0035e-4 0,0 -0.006995,0.0121218 -0.005371,0.0197722 -1.224e-5,6.4977e-4 2.3617e-4,0.002535 0.0017,0.003393 -0.003087,9.8016e-4 -0.003271,6.4977e-4 -0.0102973,-9.8752e-4 -0.007026,-0.001638 -0.0253718,-0.007187 -0.0338494,-0.00504 -0.002025,5.1273e-4 -0.004476,0.001035 -0.007035,0.001534 z"
   inkscape:connector-curvature="0"
   style="fill:url(#id14)" />
     <path
   id="_359509352"
   class="fil20"
   d="m 0.556486,0.250918 c 0,0 0.0420983,-0.0252898 0.0567714,-0.022129 0.001777,3.8056e-4 0.003068,9.5814e-4 0.005494,9.0185e-4 0.003104,-0.001887 0.004495,-7.9661e-4 0.009404,-0.0139206 0.002557,-0.006834 0.006575,-0.006522 0.00984,-0.004655 -0.003009,-0.001254 -0.006337,-0.003202 -0.00992,0.006374 -0.003583,0.009575 -0.005661,0.0106411 -0.008765,0.012528 -0.002427,5.629e-5 -0.003092,-2.6187e-4 -0.004869,-6.4243e-4 C 0.5997682,0.22621482 0.55767,0.25150512 0.55767,0.25150512 l -0.001184,-5.871e-4 z m 0.0340709,0.0168892 -8.5413e-4,-4.2339e-4 c 0,0 0.006646,-0.0142963 0.008364,-0.0172771 2.3617e-4,-4.1116e-4 -3.0592e-4,0.001417 -0.001804,0.004759 -4.65e-4,0.001035 -0.003338,0.005662 -0.005706,0.0129416 z"
   inkscape:connector-curvature="0"
   style="fill:#74e9f0" />
     <path
   id="_359508992"
   class="fil21"
   d="m 0.697099,0.0486229 0,0 C 0.7190212,0.05636268 0.730623,0.0806319 0.7228819,0.1025554 0.7113609,0.1351812 0.696897,0.1624374 0.6883215,0.2004327 0.68056337,0.2224014 0.656288,0.2339481 0.6343327,0.2261961 0.6124117,0.2184551 0.6008638,0.1942054 0.6086048,0.1722844 0.624635,0.1375013 0.6337832,0.1060111 0.6431664,0.0744071 0.6509074,0.0524836 0.6751767,0.0408819 0.6970989,0.0486229 z"
   inkscape:connector-curvature="0"
   style="fill:url(#id18)" />
     <path
   id="_359476464"
   class="fil22"
   d="m 0.697097,0.0486217 0,0 C 0.694016,0.0475326 0.690888,0.0468278 0.687766,0.046479 0.7219874,0.0505233 0.7190947,0.0800262 0.7124403,0.0988672 0.7070353,0.1120108 0.7016058,0.125109 0.6964297,0.1387335 c -0.004367,0.0114977 -0.005682,0.008976 -0.003757,0.0219969 6.4733e-4,0.004376 -0.005591,0.0206386 -0.006445,0.0231777 -0.004451,0.0132121 -0.008295,0.0151002 -0.009634,0.0183552 -7.0239e-4,0.001712 -9.5937e-4,0.003651 -0.001123,0.004366 C 0.6688167,0.2254752 0.6481704,0.2300689 0.6258223,0.2220416 0.6485632,0.2365153 0.6792494,0.2261116 0.6883181,0.2004326 0.6976821,0.1632963 0.7103382,0.1330433 0.722881,0.1025541 0.730621,0.0806306 0.719018,0.0563626 0.6970968,0.0486216 z"
   inkscape:connector-curvature="0"
   style="fill:url(#id16)" />
     <path
   id="_359572440"
   class="fil18"
   d="m 0.697098,0.0486229 0,0 C 0.700179,0.0497108 0.703056,0.0511253 0.705704,0.0528128 0.686617,0.0506799 0.6677552,0.0618986 0.6611021,0.0807396 c -0.004045,0.0136232 -0.008047,0.0272257 -0.0125733,0.041079 -0.003822,0.0116923 -0.008708,0.007907 -0.0183846,0.0168329 -0.003251,0.002999 -0.008607,0.0195728 -0.009535,0.022085 -0.004835,0.0130775 -3.206e-4,0.018491 -0.001324,0.0218647 -5.2618e-4,0.001774 -0.001544,0.003443 -0.001866,0.004104 -0.006654,0.0188447 0.003823,0.0338543 0.0262553,0.0416406 C 0.6168869,0.2253308 0.5995363,0.1979643 0.608605,0.1722841 0.6246352,0.1375022 0.6337822,0.1060108 0.6431666,0.0744056 0.6509076,0.0524846 0.6751769,0.0408816 0.6970979,0.0486227 z"
   inkscape:connector-curvature="0"
   style="fill:#7dc05c" />
     <g
   id="g7960">
      <path
   id="_360248496"
   class="fil23"
   d="M 0.705163,0.147991 C 0.700108,0.142427 0.6761018,0.1310491 0.6664323,0.156334 0.6595613,0.1743013 0.694271,0.1766875 0.705163,0.147991 z"
   inkscape:connector-curvature="0"
   style="fill:url(#linearGradient8069)" />
      <path
   id="_360199432"
   class="fil24"
   d="M 0.704437,0.149458 C 0.699187,0.14528 0.6763364,0.142764 0.6677731,0.157203 0.6592461,0.17158 0.6927876,0.1727327 0.704437,0.149458 z"
   inkscape:connector-curvature="0"
   style="fill:url(#id12)" />
      <path
   id="_353883384"
   class="fil25"
   d="M 0.688592,0.147675 C 0.686377,0.14769703 0.67864,0.149181 0.677607,0.151103 0.676579,0.153014 0.6876289,0.15060986 0.688592,0.147675 z"
   inkscape:connector-curvature="0"
   style="fill:#c1ffff" />
      <g
   id="g7965">
       <path
   id="_360235792"
   class="fil26"
   d="M 0.638928,0.125829 C 0.646532,0.124499 0.6727395,0.129923 0.6636463,0.1554029 0.65718771,0.173506 0.6285475,0.15469317 0.638928,0.125829 z"
   inkscape:connector-curvature="0"
   style="fill:url(#id8)" />
       <path
   id="_359394648"
   class="fil27"
   d="M 0.638531,0.127402 C 0.64537015,0.12727107 0.6648475,0.1389205 0.6620293,0.1552799 0.65922218,0.1715708 0.6323049,0.15249113 0.638531,0.127402 z"
   inkscape:connector-curvature="0"
   style="fill:url(#linearGradient8071)" />
       <path
   id="_357490608"
   class="fil25"
   d="M 0.652061,0.135449 C 0.653773,0.136785 0.65883,0.142552 0.658373,0.144666 0.65791657,0.14677 0.650882,0.138311 0.652061,0.135449 z"
   inkscape:connector-curvature="0"
   style="fill:#c1ffff" />
      </g>
     </g>
     <path
   id="_360248808"
   class="fil28"
   d="M 0.703718,0.0516259 C 0.694132,0.0489387 0.6833523,0.0468095 0.6674126,0.0551073 0.6501465,0.0640965 0.6439081,0.0829069 0.6356385,0.1069375 0.6273685,0.1309681 0.6287655,0.124452 0.6264985,0.1276324 0.6327985,0.1095354 0.637946,0.0919878 0.6431663,0.074406 0.6509073,0.052485 0.6751766,0.040882 0.6970976,0.0486231 l 0,0 c 0.002327,8.2109e-4 0.004536,0.0018306 0.00662,0.0030029 z"
   inkscape:connector-curvature="0"
   style="fill:#3c682d" />
     <g
   id="g7971">
      <path
   id="_360093672"
   class="fil29"
   d="M 0.676995,0.184975 C 0.68341,0.187121 0.685311,0.182644 0.685311,0.182644 0.68493288,0.18259628 0.68925,0.179152 0.6597214,0.1691138 0.630194,0.1590759 0.631611,0.1646738 0.631611,0.1646738 c 0,0 -0.00146,0.004623 0.004953,0.006771 0.0190564,0.006377 0.0213728,0.007152 0.0404304,0.0135302 z"
   inkscape:connector-curvature="0"
   style="fill:url(#id17)" />
      <path
   id="_360093864"
   class="fil30"
   d="m 0.631781,0.164213 c 0,0 -0.00146,0.004623 0.004953,0.006768 0.006413,0.002146 0.0267044,0.008937 0.0267044,0.008937 m 0.0220422,0.002264 c 0,0 -0.0019,0.004476 -0.008315,0.002331 C 0.6707526,0.182367 0.6504624,0.175575 0.6504624,0.175575"
   inkscape:connector-curvature="0"
   style="fill:none" />
      <path
   id="_360094056"
   class="fil31"
   d="M 0.636906,0.17052 0.6505439,0.175511 0.6635198,0.179854 0.6773376,0.18405 c 0.004454,0.001389 0.005981,6.8404e-4 0.008538,-0.001695 -6.12e-6,1.346e-5 -0.002085,0.004893 -0.00888,0.00262 C 0.6722706,0.183848 0.6675456,0.182721 0.6628193,0.181595 0.6583513,0.18096113 0.6540243,0.179531 0.6498434,0.177252 L 0.636564,0.171444 C 0.62977,0.16917 0.631269,0.164524 0.631273,0.164509 c 1.0646e-4,0.002993 7.5501e-4,0.004329 0.005634,0.006009 z"
   inkscape:connector-curvature="0"
   style="fill:#224827;fill-rule:nonzero" />
      <path
   id="_360094176"
   class="fil32"
   d="m 0.664454,0.184778 c 0.002854,9.5569e-4 0.00127,0.005537 0.00127,0.005537 -1.3093e-4,-1.1992e-4 -0.008579,6.3631e-4 -0.0133112,-7.9172e-4 -0.004733,-0.001428 -0.0105726,-0.007199 -0.0105726,-0.007199 0,0 0.00178,-0.004518 0.004633,-0.003563 0.008476,0.002836 0.009507,0.003182 0.0179808,0.006017 z"
   inkscape:connector-curvature="0"
   style="fill:url(#id15)" />
     </g>
     <g
   id="g7977">
      <g
   id="g7979">
       <path
   id="_360094488"
   class="fil33"
   d="M 0.665935,0.167641 C 0.66529134,0.1671295 0.66249,0.16682113 0.661442,0.16859058 0.660397,0.17035258 0.664507,0.17049358 0.665935,0.167641 z"
   inkscape:connector-curvature="0"
   style="fill:#61a53e" />
       <path
   id="_360094680"
   class="fil34"
   d="M 0.664063,0.167969 C 0.66456716,0.166928 0.662002,0.16760312 0.661501,0.16869464 0.66076801,0.17029364 0.663558,0.16900913 0.664063,0.167969 z"
   inkscape:connector-curvature="0"
   style="fill:#528c36" />
      </g>
      <g
   id="g7983">
       <path
   id="_360094920"
   class="fil33"
   d="M 0.656539,0.164497 C 0.65737722,0.16448109 0.659765,0.165908 0.65942,0.167914 0.65907492,0.16991 0.655777,0.16757259 0.656539,0.164497 z"
   inkscape:connector-curvature="0"
   style="fill:#61a53e" />
       <path
   id="_360095112"
   class="fil34"
   d="M 0.657785,0.165867 C 0.65807501,0.164755 0.659633,0.16680923 0.659305,0.167959 0.65882532,0.169643 0.657494,0.16697761 0.657785,0.165867 z"
   inkscape:connector-curvature="0"
   style="fill:#528c36" />
      </g>
     </g>
     <path
   id="_360094392"
   class="fil33"
   d="m 0.688598,0.199219 c -9.3e-5,4.0382e-4 -1.86e-4,8.0763e-4 -2.7778e-4,0.001214 -0.007757,0.0219687 -0.0320323,0.0335166 -0.0539876,0.0257634 -0.021921,-0.00774 -0.0334689,-0.0319895 -0.0257279,-0.0539117 1.9702e-4,-4.2706e-4 3.9158e-4,-8.529e-4 5.8615e-4,-0.001279 -0.005647,0.0210498 0.004781,0.0463457 0.0256618,0.0537196 0.0208613,0.007365 0.0448552,-0.005639 0.0537453,-0.0255064 z"
   inkscape:connector-curvature="0"
   style="fill:#61a53e" />
     <path
   id="_360094896"
   class="fil20"
   d="M 0.698384,0.0491026 C 0.6754926,0.04112665 0.6516724,0.05324231 0.6440856,0.0747301 0.63470119,0.1063353 0.6260669,0.1380078 0.6100367,0.1727897 0.60244866,0.1942788 0.6113546,0.2188099 0.6356373,0.2266304 0.6129527,0.21943271 0.6006829,0.1947193 0.608605,0.1722843 0.6246352,0.1375024 0.6337822,0.106011 0.6431666,0.0744058 0.65109727,0.0519476 0.676239,0.0404707 0.698384,0.0491025 z"
   inkscape:connector-curvature="0"
   style="fill:#74e9f0" />
    </g>
    <path
   id="_359603416"
   class="fil3"
   d="M 0.613301,0.273823 C 0.7098102,0.3202054 0.6987127,0.3597706 0.805824,0.3523331 0.800233,0.3688038 0.802382,0.3617711 0.799775,0.3684796 0.7888231,0.3905732 0.69504,0.3611996 0.583202,0.3057586 0.471365,0.2503185 0.39095,0.1933376 0.401902,0.1712456 c 0.001388,-0.0028 0.003603,-0.006624 0.00768,-0.0122882 0.0570247,0.0960234 0.10721,0.0684821 0.20372,0.114866 z"
   inkscape:connector-curvature="0"
   style="fill:#ffffff" />
    <path
   id="_359638968"
   class="fil35"
   d="M 0.612879,0.274675 C 0.7093882,0.3210586 0.6982907,0.3606239 0.805402,0.3531851 0.799811,0.3696558 0.80196,0.3626221 0.799353,0.3693328 0.7884023,0.3914251 0.694617,0.3620518 0.582781,0.3066106 0.470943,0.2511705 0.390527,0.1941896 0.401479,0.1720966 c 0.001388,-0.002799 0.003603,-0.006621 0.00768,-0.0122894 0.0570235,0.0960271 0.10721,0.0684845 0.20372,0.114868 z"
   inkscape:connector-curvature="0"
   style="fill:url(#id0)" />
    <path
   id="_359639160"
   class="fil9"
   d="M 0.407645,0.161952 0.193809,0.0877492 0.402652,0.1700613 0.407645,0.1619523 z M 0.803983,0.3576 0.992665,0.483829 0.800552,0.366483 0.8039832,0.3576003 z M 0.580035,0.3052485 0.5964176,0.3132615 0.5607228,0.3692669 0.5800349,0.3052488 z"
   inkscape:connector-curvature="0"
   style="fill:#669999" />
    <path
   id="_359639352"
   class="fil36"
   d="M 0.406472,0.163988 0.193312,0.0875716 0.40148,0.1720961 0.406473,0.1639881 z M 0.802784,0.360449 0.992664,0.483829 0.799353,0.369332 0.802784,0.360449 z M 0.581836,0.3061421 0.5982186,0.31415476 0.5607214,0.36926686 0.581836,0.30614206 z"
   inkscape:connector-curvature="0"
   style="fill:#e6e6e6" />
    <g
   id="g7993">
     <path
   id="_359639616"
   class="fil37 str2"
   d="m 0.843268,0.448479 c 0.008322,0.004126 0.0127459,0.0110988 0.0137872,0.008998 0.001041,-0.0021 -0.001441,-0.0140491 -0.009765,-0.0181753 -0.008322,-0.004126 -0.0193354,0.001133 -0.0203767,0.003234 -0.001041,0.0021 0.008031,0.001817 0.0163545,0.005943 z"
   inkscape:connector-curvature="0"
   style="fill:#d0e8e8;stroke:#ffffff;stroke-width:0.00093244" />
     <path
   id="_359639808"
   class="fil38"
   d="M 0.841908,0.450158 C 0.850231,0.454284 0.8578685,0.455833 0.8569788,0.45763 0.85608918,0.459425 0.8486188,0.457537 0.8402964,0.453411 0.8319734,0.449285 0.8259475,0.444483 0.8268371,0.4426879 c 8.9084e-4,-0.001795 0.006747,0.003346 0.0150708,0.007471 z"
   inkscape:connector-curvature="0"
   style="fill:#336666" />
     <ellipse
   id="_359640000"
   class="fil9"
   transform="matrix(0.696043,0.345045,-0.345045,0.696043,0.841984,0.450006)"
   rx="0.021651801"
   ry="0.0044517498"
   cx="0"
   cy="0"
   sodipodi:cx="0"
   sodipodi:cy="0"
   sodipodi:rx="0.021651801"
   sodipodi:ry="0.0044517498"
   style="fill:#669999"
   d="M 0.0216518,0 C 0.0216518,0.00245863 0.01195796,0.00445175 0,0.00445175 -0.01195796,0.00445175 -0.0216518,0.00245863 -0.0216518,0 c 0,-0.00245863 0.0096938,-0.00445175 0.0216518,-0.00445175 0.01195796,0 0.0216518,0.00199312 0.0216518,0.00445175 z" />
    </g>
    <g
   id="g7998">
     <path
   id="_359640168"
   class="fil37 str2"
   d="m 0.703491,0.409297 c 0.008323,0.004126 0.0127459,0.0110988 0.0137872,0.008998 0.001041,-0.0021 -0.001441,-0.0140491 -0.009764,-0.0181753 -0.008323,-0.004126 -0.0193366,0.001133 -0.020378,0.003234 -0.001041,0.0021 0.008031,0.001817 0.0163545,0.005943 z"
   inkscape:connector-curvature="0"
   style="fill:#d0e8e8;stroke:#ffffff;stroke-width:0.00093244" />
     <path
   id="_359640360"
   class="fil38"
   d="M 0.702132,0.410977 C 0.710455,0.415102 0.7180925,0.416651 0.7172028,0.418448 0.71631318,0.420243 0.7088438,0.418355 0.7005204,0.414229 0.6921974,0.410103 0.6861715,0.405302 0.6870611,0.4035059 c 8.9084e-4,-0.001795 0.006749,0.003346 0.0150708,0.007472 z"
   inkscape:connector-curvature="0"
   style="fill:#336666" />
     <ellipse
   id="_359640552"
   class="fil9"
   transform="matrix(0.696043,0.345045,-0.345045,0.696043,0.702208,0.410824)"
   rx="0.021651801"
   ry="0.0044517498"
   cx="0"
   cy="0"
   sodipodi:cx="0"
   sodipodi:cy="0"
   sodipodi:rx="0.021651801"
   sodipodi:ry="0.0044517498"
   style="fill:#669999"
   d="M 0.0216518,0 C 0.0216518,0.00245863 0.01195796,0.00445175 0,0.00445175 -0.01195796,0.00445175 -0.0216518,0.00245863 -0.0216518,0 c 0,-0.00245863 0.0096938,-0.00445175 0.0216518,-0.00445175 0.01195796,0 0.0216518,0.00199312 0.0216518,0.00445175 z" />
    </g>
    <g
   id="g8003">
     <path
   id="_359640720"
   class="fil37 str2"
   d="M 0.314196,0.186205 C 0.305873,0.18208 0.2976457,0.182781 0.2986871,0.180681 0.2997281,0.17858 0.3107404,0.173321 0.3190638,0.177447 c 0.008323,0.004126 0.0108051,0.0160755 0.009764,0.0181753 -0.00104,0.002101 -0.006308,-0.005291 -0.0146315,-0.009417 z"
   inkscape:connector-curvature="0"
   style="fill:#d0e8e8;stroke:#ffffff;stroke-width:0.00093244" />
     <path
   id="_360158368"
   class="fil38"
   d="M 0.313682,0.188304 C 0.305359,0.184179 0.2995008,0.179038 0.2986112,0.180833 c -8.8962e-4,0.001795 0.005136,0.006597 0.013458,0.0107231 0.008323,0.004126 0.0157928,0.006014 0.0166837,0.004219 8.8962e-4,-0.001796 -0.006747,-0.003346 -0.0150708,-0.007472 z"
   inkscape:connector-curvature="0"
   style="fill:#336666" />
     <ellipse
   id="_360158560"
   class="fil9"
   transform="matrix(-0.696043,-0.345045,-0.345045,0.696043,0.313757,0.188152)"
   rx="0.021651801"
   ry="0.0044517498"
   cx="0"
   cy="0"
   sodipodi:cx="0"
   sodipodi:cy="0"
   sodipodi:rx="0.021651801"
   sodipodi:ry="0.0044517498"
   style="fill:#669999"
   d="M 0.0216518,0 C 0.0216518,0.00245863 0.01195796,0.00445175 0,0.00445175 -0.01195796,0.00445175 -0.0216518,0.00245863 -0.0216518,0 c 0,-0.00245863 0.0096938,-0.00445175 0.0216518,-0.00445175 0.01195796,0 0.0216518,0.00199312 0.0216518,0.00445175 z" />
    </g>
    <g
   id="g8008">
     <path
   id="_360158728"
   class="fil37 str2"
   d="M 0.43001,0.273725 C 0.421687,0.269599 0.4134597,0.270301 0.4145011,0.2682 0.4155421,0.2661 0.4265544,0.260841 0.4348778,0.264967 c 0.008323,0.004125 0.0108051,0.0160743 0.009764,0.0181753 -0.001041,0.0021 -0.006308,-0.005291 -0.0146315,-0.009417 z"
   inkscape:connector-curvature="0"
   style="fill:#d0e8e8;stroke:#ffffff;stroke-width:0.00093244" />
     <path
   id="_360158920"
   class="fil38"
   d="M 0.429496,0.275824 C 0.421173,0.271698 0.4153148,0.266558 0.4144252,0.268353 c -8.8962e-4,0.001795 0.005136,0.006597 0.013458,0.0107231 0.008323,0.004125 0.0157928,0.006014 0.0166837,0.004218 8.8962e-4,-0.001795 -0.006747,-0.003344 -0.0150708,-0.007471 z"
   inkscape:connector-curvature="0"
   style="fill:#336666" />
     <ellipse
   id="_360159112"
   class="fil9"
   transform="matrix(-0.696043,-0.345045,-0.345045,0.696043,0.429571,0.275671)"
   rx="0.021651801"
   ry="0.0044517498"
   cx="0"
   cy="0"
   sodipodi:cx="0"
   sodipodi:cy="0"
   sodipodi:rx="0.021651801"
   sodipodi:ry="0.0044517498"
   style="fill:#669999"
   d="M 0.0216518,0 C 0.0216518,0.00245863 0.01195796,0.00445175 0,0.00445175 -0.01195796,0.00445175 -0.0216518,0.00245863 -0.0216518,0 c 0,-0.00245863 0.0096938,-0.00445175 0.0216518,-0.00445175 0.01195796,0 0.0216518,0.00199312 0.0216518,0.00445175 z" />
    </g>
    <g
   id="g8013">
     <path
   id="_360159280"
   class="fil37 str2"
   d="M 0.860829,0.372319 C 0.868642,0.376192 0.8727941,0.3827374 0.8737706,0.380766 0.87474832,0.378793 0.8724186,0.3675772 0.8646056,0.3637042 0.8567926,0.3598302 0.8464547,0.3647672 0.845477,0.3667392 c -9.7772e-4,0.001973 0.007539,0.001707 0.0153523,0.00558 z"
   inkscape:connector-curvature="0"
   style="fill:#d0e8e8;stroke:#ffffff;stroke-width:0.00093244" />
     <path
   id="_360159472"
   class="fil38"
   d="M 0.859552,0.373896 C 0.867365,0.37777 0.8745347,0.379224 0.873699,0.38091 0.87286445,0.382595 0.865853,0.3808219 0.8580396,0.376949 0.8502266,0.373076 0.8445693,0.368569 0.8454051,0.366883 c 8.3577e-4,-0.001685 0.006334,0.00314 0.014147,0.007013 z"
   inkscape:connector-curvature="0"
   style="fill:#336666" />
     <ellipse
   id="_360159664"
   class="fil9"
   transform="matrix(0.653392,0.323902,-0.323902,0.653392,0.859624,0.373753)"
   rx="0.021651801"
   ry="0.0044517498"
   cx="0"
   cy="0"
   sodipodi:cx="0"
   sodipodi:cy="0"
   sodipodi:rx="0.021651801"
   sodipodi:ry="0.0044517498"
   style="fill:#669999"
   d="M 0.0216518,0 C 0.0216518,0.00245863 0.01195796,0.00445175 0,0.00445175 -0.01195796,0.00445175 -0.0216518,0.00245863 -0.0216518,0 c 0,-0.00245863 0.0096938,-0.00445175 0.0216518,-0.00445175 0.01195796,0 0.0216518,0.00199312 0.0216518,0.00445175 z" />
    </g>
    <g
   id="g8018">
     <path
   id="_360159832"
   class="fil37 str2"
   d="M 0.364176,0.126117 C 0.356363,0.122244 0.3486402,0.122902 0.3496179,0.120931 0.3505944,0.118958 0.3609333,0.114022 0.3687452,0.117895 c 0.007813,0.003873 0.0101443,0.0150904 0.009167,0.0170618 -9.7772e-4,0.001971 -0.005923,-0.004967 -0.0137358,-0.00884 z"
   inkscape:connector-curvature="0"
   style="fill:#d0e8e8;stroke:#ffffff;stroke-width:0.00093244" />
     <path
   id="_360160024"
   class="fil38"
   d="M 0.363694,0.128088 C 0.355881,0.124214 0.3503816,0.119389 0.349547,0.121074 0.34871123,0.12276 0.354367,0.127267 0.3621803,0.13114 0.3699933,0.135013 0.3770052,0.136786 0.377841,0.135101 0.37867677,0.133415 0.371507,0.131961 0.363694,0.128088 z"
   inkscape:connector-curvature="0"
   style="fill:#336666" />
     <ellipse
   id="_360160216"
   class="fil9"
   transform="matrix(-0.653392,-0.323902,-0.323902,0.653392,0.363764,0.127944)"
   rx="0.021651801"
   ry="0.0044517498"
   cx="0"
   cy="0"
   sodipodi:cx="0"
   sodipodi:cy="0"
   sodipodi:rx="0.021651801"
   sodipodi:ry="0.0044517498"
   style="fill:#669999"
   d="M 0.0216518,0 C 0.0216518,0.00245863 0.01195796,0.00445175 0,0.00445175 -0.01195796,0.00445175 -0.0216518,0.00245863 -0.0216518,0 c 0,-0.00245863 0.0096938,-0.00445175 0.0216518,-0.00445175 0.01195796,0 0.0216518,0.00199312 0.0216518,0.00445175 z" />
    </g>
    <path
   id="_360159808"
   class="fil9"
   d="m 0.626483,0.0369099 c 0,0 -0.0921774,0.0011515 -0.135591,0.0771763 0.007775,0.001535 0.0198493,0.004389 0.0198493,0.004389 0,0 0.027326,-0.0700422 0.115742,-0.0815656 z"
   inkscape:connector-curvature="0"
   style="fill:#669999" />
    <path
   id="_359679384"
   class="fil39"
   d="m 0.766151,0.106147 c 0,0 0.0548943,0.0740584 0.0206741,0.15464 C 0.7808961,0.255529 0.7713137,0.2476483 0.7713137,0.2476483 c 0,0 0.0391994,-0.0641576 -0.005163,-0.141502 z"
   inkscape:connector-curvature="0"
   style="fill:#996699" />
    <path
   id="_359679576"
   class="fil40"
   d="m 0.401636,0.17383 c -8.443e-5,-5.9226e-4 -1.4684e-4,-0.001172 -1.5663e-4,-0.001734 0.003283,-0.005491 0.006686,-0.0108492 0.0101871,-0.016089 3.2427e-4,-4.858e-4 6.4243e-4,-9.8017e-4 9.6915e-4,-0.001464 8.7983e-4,-0.001303 0.001774,-0.002589 0.002666,-0.003877 4.3686e-4,-6.3142e-4 8.7004e-4,-0.001268 0.001311,-0.001895 8.5658e-4,-0.001219 0.001725,-0.002425 0.002593,-0.003629 4.907e-4,-6.8037e-4 9.7773e-4,-0.001367 0.001471,-0.002041 8.4924e-4,-0.001164 0.001709,-0.002312 0.00257,-0.003462 5.2496e-4,-7.0117e-4 0.00105,-0.001406 0.001579,-0.002102 8.5536e-4,-0.001127 0.001719,-0.002241 0.002586,-0.003353 5.4577e-4,-6.9995e-4 0.001089,-0.001402 0.001639,-0.002096 8.5413e-4,-0.001082 0.001716,-0.002154 0.00258,-0.003222 5.7881e-4,-7.1463e-4 0.001156,-0.001427 0.001739,-0.002138 8.5169e-4,-0.001038 0.001708,-0.002067 0.002569,-0.003091 6.045e-4,-7.183e-4 0.001209,-0.001434 0.001817,-0.002146 8.7249e-4,-0.001022 0.001749,-0.002037 0.00263,-0.003047 5.8982e-4,-6.767e-4 0.001183,-0.001347 0.001777,-0.002017 8.9329e-4,-0.00101 0.00179,-0.002014 0.002693,-0.003009 6.1307e-4,-6.767e-4 0.001231,-0.001345 0.001848,-0.002015 8.9819e-4,-9.7527e-4 0.001798,-0.001948 0.002703,-0.002909 6.0206e-4,-6.3876e-4 0.001208,-0.001269 0.001813,-0.001903 9.5203e-4,-9.9363e-4 0.001904,-0.001987 0.002863,-0.002967 5.3965e-4,-5.5188e-4 0.001085,-0.001094 0.001629,-0.001641 0.001016,-0.001023 0.002031,-0.002046 0.003057,-0.0030531 5.1517e-4,-5.066e-4 0.001036,-0.001001 0.001554,-0.0015039 0.001056,-0.0010242 0.002113,-0.0020497 0.003179,-0.003058 4.5888e-4,-4.3318e-4 9.2388e-4,-8.5535e-4 0.001384,-0.0012849 0.004091,-0.0038228 0.008243,-0.0075207 0.0124558,-0.0110792 l 4.907e-4,-4.1972e-4 c 0.001159,-9.7528e-4 0.002326,-0.0019297 0.003494,-0.002883 4.8825e-4,-3.9892e-4 9.7405e-4,-8.0518e-4 0.001462,-0.0012004 0.001072,-8.6637e-4 0.002152,-0.0017119 0.003231,-0.0025612 6.1062e-4,-4.8091e-4 0.00122,-9.6793e-4 0.001833,-0.0014427 0.001001,-7.7704e-4 0.002009,-0.0015357 0.003018,-0.0022981 6.9383e-4,-5.2496e-4 0.001388,-0.0010536 0.002084,-0.0015724 0.001002,-7.44e-4 0.002008,-0.0014733 0.003015,-0.0022014 6.9383e-4,-5.0294e-4 0.001386,-0.0010083 0.002083,-0.0015039 9.9241e-4,-7.0729e-4 0.00199,-0.0014011 0.002986,-0.0020937 7.4767e-4,-5.1884e-4 0.001498,-0.0010377 0.002248,-0.0015492 9.8017e-4,-6.6813e-4 0.001964,-0.0013252 0.002949,-0.0019799 7.3421e-4,-4.8703e-4 0.001468,-9.716e-4 0.002205,-0.0014513 0.001006,-6.5467e-4 0.002014,-0.001302 0.003024,-0.0019432 7.5256e-4,-4.7846e-4 0.001508,-9.508e-4 0.002261,-0.0014207 9.9241e-4,-6.1551e-4 0.001985,-0.0012274 0.002981,-0.0018294 7.6847e-4,-4.6622e-4 0.001539,-9.2388e-4 0.00231,-0.0013803 9.973e-4,-5.9226e-4 0.001997,-0.0011796 0.002999,-0.0017572 7.7214e-4,-4.4542e-4 0.001547,-8.8105e-4 0.00232,-0.0013179 9.9852e-4,-5.629e-4 0.001997,-0.0011258 0.002998,-0.001674 8.113e-4,-4.4542e-4 0.001626,-8.7738e-4 0.002441,-0.0013142 9.6671e-4,-5.1762e-4 0.001932,-0.0010377 0.002903,-0.0015418 8.2598e-4,-4.2951e-4 0.001653,-8.4434e-4 0.002482,-0.0012653 9.7894e-4,-4.9804e-4 0.00196,-9.9853e-4 0.002943,-0.0014819 8.113e-4,-4.0015e-4 0.001626,-7.8438e-4 0.00244,-0.0011747 9.9485e-4,-4.7724e-4 0.00199,-9.6182e-4 0.002987,-0.0014256 7.1218e-4,-3.304e-4 0.001428,-6.4488e-4 0.00214,-9.6916e-4 0.003857,-0.0017523 0.007732,-0.0033982 0.0116213,-0.00494 8.2476e-4,-3.2794e-4 0.00165,-6.6446e-4 0.002474,-9.8261e-4 9.8506e-4,-3.7812e-4 0.00197,-7.3543e-4 0.002956,-0.0011001 8.578e-4,-3.1694e-4 0.001713,-6.4121e-4 0.002571,-9.4835e-4 9.4591e-4,-3.3774e-4 0.001892,-6.5712e-4 0.002839,-9.8262e-4 9.0552e-4,-3.1204e-4 0.001811,-6.2652e-4 0.002718,-9.2755e-4 9.3734e-4,-3.0959e-4 0.001876,-6.0327e-4 0.002814,-9.0063e-4 9.1287e-4,-2.8879e-4 0.001825,-5.8125e-4 0.002737,-8.5902e-4 9.2877e-4,-2.8145e-4 0.001858,-5.4944e-4 0.002786,-8.1987e-4 9.2877e-4,-2.6921e-4 0.001856,-5.3842e-4 0.002786,-7.9539e-4 9.3e-4,-2.582e-4 0.001862,-5.0538e-4 0.002794,-7.5012e-4 9.1776e-4,-2.4229e-4 0.001836,-4.8213e-4 0.002753,-7.1218e-4 9.4468e-4,-2.3739e-4 0.001892,-4.65e-4 0.002836,-6.8771e-4 9.1898e-4,-2.1781e-4 0.001836,-4.3073e-4 0.002754,-6.3631e-4 9.2266e-4,-2.0558e-4 0.001847,-4.0504e-4 0.002769,-5.996e-4 9.5692e-4,-2.0069e-4 0.001913,-3.9403e-4 0.00287,-5.8125e-4 9.0308e-4,-1.7744e-4 0.001806,-3.512e-4 0.002708,-5.1639e-4 9.4223e-4,-1.7377e-4 0.001884,-3.3529e-4 0.002827,-4.956e-4 l 0.001081,-1.811e-4 -6.5956e-4,1.2726e-4 c -9.2755e-4,1.8111e-4 -0.001855,3.7078e-4 -0.002783,5.6412e-4 -9.8384e-4,2.0435e-4 -0.001966,4.1483e-4 -0.002949,6.3264e-4 -9.4958e-4,2.117e-4 -0.001899,4.2829e-4 -0.002846,6.51e-4 -9.4468e-4,2.2393e-4 -0.001888,4.5399e-4 -0.002833,6.9016e-4 -9.7161e-4,2.3984e-4 -0.001944,4.8702e-4 -0.002916,7.4277e-4 -9.4468e-4,2.4963e-4 -0.001887,5.066e-4 -0.002832,7.6847e-4 -9.5815e-4,2.6309e-4 -0.001916,5.2863e-4 -0.002872,8.0763e-4 -9.5692e-4,2.7655e-4 -0.001911,5.6656e-4 -0.002867,8.5535e-4 -9.5447e-4,2.9124e-4 -0.001911,5.788e-4 -0.002866,8.8105e-4 -9.3979e-4,2.9858e-4 -0.001877,6.094e-4 -0.002816,9.2021e-4 -9.6671e-4,3.1938e-4 -0.001932,6.3387e-4 -0.002896,9.6549e-4 -9.3367e-4,3.2182e-4 -0.001865,6.5834e-4 -0.002797,9.9118e-4 -9.7405e-4,3.4875e-4 -0.001948,6.8893e-4 -0.002921,0.0010499 -8.8228e-4,3.2917e-4 -0.001763,6.7424e-4 -0.002647,0.0010132 -0.001014,3.879e-4 -0.00203,7.7092e-4 -0.003043,0.0011735 -8.5046e-4,3.3896e-4 -0.001698,6.9749e-4 -0.002548,0.0010462 -0.004005,0.0016434 -0.007996,0.0033945 -0.01197,0.0052557 -7.3299e-4,3.4507e-4 -0.001471,6.7914e-4 -0.002204,0.0010303 -0.001028,4.9192e-4 -0.002053,0.0010046 -0.003079,0.0015125 -8.3823e-4,4.136e-4 -0.001679,8.2109e-4 -0.002515,0.0012457 -0.001012,5.1394e-4 -0.002023,0.0010438 -0.003032,0.0015712 -8.5536e-4,4.4664e-4 -0.001708,8.8594e-4 -0.002557,0.0013411 -0.001001,5.3474e-4 -0.001996,0.0010854 -0.002993,0.0016324 -8.4067e-4,4.6255e-4 -0.001681,9.202e-4 -0.002517,0.0013925 -0.001033,5.8002e-4 -0.002063,0.001176 -0.003092,0.0017707 -7.9784e-4,4.6377e-4 -0.001597,9.251e-4 -0.002392,0.001395 -0.001034,6.1061e-4 -0.002066,0.0012335 -0.003095,0.0018576 -7.954e-4,4.8457e-4 -0.00159,9.6793e-4 -0.002383,0.0014598 -0.001028,6.3631e-4 -0.002052,0.0012824 -0.003076,0.0019334 -7.7827e-4,4.9559e-4 -0.001555,9.9485e-4 -0.002334,0.0015002 -0.001041,6.7669e-4 -0.002083,0.0013607 -0.00312,0.0020521 -7.5991e-4,5.0538e-4 -0.001519,0.0010181 -0.002276,0.0015333 -0.001018,6.9015e-4 -0.002033,0.001384 -0.003046,0.0020888 -7.7337e-4,5.3842e-4 -0.001548,0.0010866 -0.00232,0.0016348 -0.001029,7.2931e-4 -0.002058,0.0014611 -0.003084,0.0022075 -7.1953e-4,5.2251e-4 -0.001434,0.0010548 -0.00215,0.0015847 -0.00104,7.6847e-4 -0.00208,0.0015357 -0.003114,0.0023213 -7.2075e-4,5.4576e-4 -0.001437,0.0011038 -0.002154,0.0016569 -0.001041,8.0273e-4 -0.002084,0.0016018 -0.003119,0.0024204 -6.3265e-4,5.0048e-4 -0.001263,0.0010132 -0.001894,0.0015198 -0.001115,8.9451e-4 -0.002231,0.0017853 -0.003338,0.0026958 -5.0416e-4,4.1727e-4 -0.001007,8.4556e-4 -0.001511,0.0012641 -0.001207,0.0010046 -0.002414,0.0020093 -0.003611,0.0030347 l -5.0783e-4,4.4175e-4 c -0.004358,0.0037457 -0.008653,0.0076333 -0.0128866,0.0116519 -4.7601e-4,4.5153e-4 -9.5692e-4,8.9573e-4 -0.001432,0.0013509 -0.001104,0.0010609 -0.002198,0.0021378 -0.003292,0.0032158 -5.3597e-4,5.2618e-4 -0.001076,0.001047 -0.001609,0.001579 -0.001062,0.00106 -0.002113,0.002134 -0.003166,0.003208 -5.6167e-4,5.739e-4 -0.001127,0.001143 -0.001686,0.001723 -9.9363e-4,0.001029 -0.001981,0.002072 -0.002967,0.003117 -6.2653e-4,6.6568e-4 -0.001254,0.001326 -0.001878,0.001997 -9.3856e-4,0.00101 -0.00187,0.002031 -0.002801,0.003053 -6.3876e-4,7.0484e-4 -0.001279,0.001406 -0.001915,0.002116 -9.3489e-4,0.001045 -0.001865,0.002099 -0.002792,0.003158 -6.1551e-4,7.0361e-4 -0.00123,0.001407 -0.001842,0.002116 -9.1531e-4,0.00106 -0.001823,0.002126 -0.002728,0.003197 -6.3142e-4,7.4766e-4 -0.001258,0.001498 -0.001884,0.002252 -8.9329e-4,0.001076 -0.001782,0.002155 -0.002666,0.003242 -6.0328e-4,7.4644e-4 -0.001204,0.001493 -0.001804,0.002243 -8.9696e-4,0.00112 -0.001791,0.002244 -0.002677,0.003379 -5.7146e-4,7.2686e-4 -0.001136,0.001464 -0.001702,0.002197 -9.0063e-4,0.001166 -0.001796,0.002335 -0.002685,0.003514 -5.4943e-4,7.3053e-4 -0.001095,0.001467 -0.00164,0.002204 -8.9451e-4,0.001204 -0.001788,0.002408 -0.00267,0.003628 -5.1272e-4,7.0606e-4 -0.001019,0.001426 -0.001528,0.002138 -9.0185e-4,0.001263 -0.001805,0.002526 -0.002696,0.003803 -4.5766e-4,6.5711e-4 -9.092e-4,0.001324 -0.001363,0.001984 -9.2755e-4,0.001351 -0.001858,0.002698 -0.002773,0.004063 -3.3896e-4,5.066e-4 -6.7058e-4,0.001023 -0.001008,0.001531 -0.002397,0.003614 -0.004753,0.007281 -0.007058,0.0110021 z"
   inkscape:connector-curvature="0"
   style="fill:#2b1f46" />
    <rect
   id="_359679768"
   class="fil38"
   transform="matrix(0.696043,0.345045,-0.36406,0.734401,0.55768,0.367768)"
   width="0.0067987698"
   height="0.073540702"
   x="0"
   y="0"
   style="fill:#336666" />
    <rect
   id="_359679912"
   class="fil9"
   transform="matrix(0.696043,0.345045,-0.36406,0.734401,0.558469,0.368159)"
   width="0.0067987698"
   height="0.073540702"
   x="0"
   y="0"
   style="fill:#669999" />
    <polygon
   id="_359680056"
   class="fil38"
   points="0.261541,0.254095 0.257396,0.250564 0.281664,0.20161 0.285864,0.20503 "
   style="fill:#336666" />
    <polygon
   id="_359680248"
   class="fil9"
   points="0.262245,0.254659 0.258071,0.251187 0.282386,0.202135 0.286652,0.205422 "
   style="fill:#669999" />
    <polygon
   id="_359680440"
   class="fil38"
   points="0.837652,0.535921 0.843046,0.537098 0.867657,0.487453 0.862318,0.486163 "
   style="fill:#336666" />
    <polygon
   id="_359680632"
   class="fil9"
   points="0.836765,0.535699 0.84213,0.536938 0.866789,0.487192 0.861518,0.485767 "
   style="fill:#669999" />
    <g
   id="g8032">
     <path
   id="_359680896"
   class="fil37 str2"
   d="m 0.571361,0.352573 c 0.008323,0.004126 0.0127459,0.0110988 0.0137872,0.008999 0.001041,-0.002101 -0.00144,-0.0140503 -0.009764,-0.0181753 -0.008323,-0.004126 -0.0193354,0.001133 -0.0203767,0.003233 -0.001041,0.002101 0.008031,0.001818 0.0163533,0.005943 z"
   inkscape:connector-curvature="0"
   style="fill:#d0e8e8;stroke:#ffffff;stroke-width:0.00093244" />
     <path
   id="_359681088"
   class="fil38"
   d="M 0.570003,0.354253 C 0.578325,0.358379 0.5859635,0.359928 0.5850738,0.361724 0.58418296,0.36352 0.5767138,0.361631 0.5683901,0.357506 0.5600681,0.35338 0.5540424,0.348578 0.5549321,0.3467829 c 8.8962e-4,-0.001795 0.006747,0.003344 0.0150708,0.007471 z"
   inkscape:connector-curvature="0"
   style="fill:#336666" />
     <ellipse
   id="_359669024"
   class="fil9"
   transform="matrix(0.696043,0.345045,-0.345045,0.696043,0.570078,0.354101)"
   rx="0.021651801"
   ry="0.0044517498"
   cx="0"
   cy="0"
   sodipodi:cx="0"
   sodipodi:cy="0"
   sodipodi:rx="0.021651801"
   sodipodi:ry="0.0044517498"
   style="fill:#669999"
   d="M 0.0216518,0 C 0.0216518,0.00245863 0.01195796,0.00445175 0,0.00445175 -0.01195796,0.00445175 -0.0216518,0.00245863 -0.0216518,0 c 0,-0.00245863 0.0096938,-0.00445175 0.0216518,-0.00445175 0.01195796,0 0.0216518,0.00199312 0.0216518,0.00445175 z" />
    </g>
    <rect
   id="_359680872"
   class="fil38"
   transform="matrix(0.664463,0.408748,-0.36406,0.734401,0.398603,0.280963)"
   width="0.0067987698"
   height="0.073540702"
   x="0"
   y="0"
   style="fill:#336666" />
    <rect
   id="_359669264"
   class="fil9"
   transform="matrix(0.664463,0.408748,-0.36406,0.734401,0.399355,0.281426)"
   width="0.0067987698"
   height="0.073540702"
   x="0"
   y="0"
   style="fill:#669999" />
    <rect
   id="_359669408"
   class="fil38"
   transform="matrix(-0.727936,-0.280708,-0.367678,0.741699,0.723917,0.441098)"
   width="0.0067987698"
   height="0.073540702"
   x="0"
   y="0"
   style="fill:#336666" />
    <rect
   id="_359669552"
   class="fil9"
   transform="matrix(-0.727936,-0.280708,-0.367678,0.741699,0.723093,0.44078)"
   width="0.0067987698"
   height="0.073540702"
   x="0"
   y="0"
   style="fill:#669999" />
    <path
   id="_359669696"
   class="fil41"
   d="M 0.343609,0.215004 0.4305466,0.219681 0.4508621,0.2363316 0.4093035,0.261712 c 0,0 -0.0452456,-0.028278 -0.0656945,-0.0467079 z"
   inkscape:connector-curvature="0"
   style="fill:#99cccc" />
    <path
   id="_359669888"
   class="fil41"
   d="M 0.797348,0.439933 0.7409877,0.373574 0.7154348,0.367487 0.7203978,0.4159288 c 0,0 0.0499005,0.0188887 0.0769499,0.0240037 z"
   inkscape:connector-curvature="0"
   style="fill:#99cccc" />
   </g>
   <path
   id="_354772912"
   class="fil42"
   d="M 0.449289,0.439634 0.065006,0.668811 C 0.1342969,0.819442 0.283393,0.925757 0.458135,0.93356 L 0.569533,0.497586 c 0,0 -0.0467666,-0.055199 -0.120244,-0.0579523 z"
   inkscape:connector-curvature="0"
   style="fill:url(#id3)" />
   <g
   id="g8044">
    <g
   id="g8046">
     <path
   id="_359670944"
   class="fil2"
   d="M 0.291511,0.613396 C 0.294661,0.61288817 0.3457078,0.5892149 0.3457078,0.5892149 l -0.0535605,0.0183515 -6.3631e-4,0.00583 z"
   inkscape:connector-curvature="0"
   style="fill:#003333" />
     <polygon
   id="_359653760"
   class="fil38"
   points="0.293415,0.601532 0.345708,0.589214 0.292148,0.607566 "
   style="fill:#336666" />
    </g>
    <polygon
   id="_359670920"
   class="fil43 str3"
   points="0.427154,0.654454 0.192147,0.63172 0.263291,0.565564 0.479592,0.573031 "
   style="fill:url(#id9);stroke:#ff99ff;stroke-width:0.00215857" />
    <polygon
   id="_359654120"
   class="fil44 str4"
   points="0.427154,0.862286 0.427154,0.654454 0.479592,0.573031 0.477308,0.741127 "
   style="fill:url(#id7);stroke:#f4d5ff;stroke-width:0.00215857" />
    <polygon
   id="_359654312"
   class="fil45 str5"
   points="0.427154,0.862286 0.192147,0.823117 0.192147,0.63172 0.427154,0.654454 "
   style="fill:url(#id11);stroke:#912783;stroke-width:0.00215857" />
    <path
   id="_359654504"
   class="fil46"
   d="m 0.345422,0.7532 c 0,0 0.008078,0.009885 0.002818,0.0142779 -0.005261,0.004394 -0.0479059,0.0245299 -0.0479059,0.0245299 0,0 -0.0184115,-0.004575 -0.004885,-0.0124473 0.0135266,-0.007872 0.0199142,-0.0122649 0.0199142,-0.0122649 l -0.0383244,-0.00238 c 0,0 -0.0139022,-0.007871 0.001314,-0.0128132 0.0152177,-0.004942 0.0640621,-0.002014 0.0670687,0.001098 z M 0.3190725,0.710206 0.3153145,0.7446196 0.3465012,0.7420576 c 0,0 0.0103315,-0.009518 -0.002631,-0.0120814 -0.0129624,-0.002564 -0.0162872,4.5031e-4 -0.0162872,4.5031e-4 0,0 0.0114023,-0.0286402 0.003889,-0.0268096 -0.007515,0.001829 -0.0123996,0.00659 -0.0123996,0.00659 z M 0.2776118,0.716879 c 0,0 0.0244222,0.005858 0.0315612,0.010252 0.007139,0.004393 -0.00789,0.0164744 -0.00789,0.0164744 L 0.2704732,0.7307922 c 0,0 -3.7567e-4,-0.0150109 0.007139,-0.0139132 z"
   inkscape:connector-curvature="0"
   style="fill:#cc33ff" />
    <path
   id="_359654696"
   class="fil47"
   d="m 0.343849,0.751669 c 0,0 0.008079,0.009885 0.002818,0.0142779 -0.005261,0.004393 -0.0479059,0.0245287 -0.0479059,0.0245287 0,0 -0.0184103,-0.004575 -0.004884,-0.0124473 0.0135266,-0.007871 0.0199142,-0.0122637 0.0199142,-0.0122637 l -0.0383257,-0.00238 c 0,0 -0.0139022,-0.007872 0.001315,-0.0128144 0.0152177,-0.004942 0.0640621,-0.002013 0.0670675,0.001099 z M 0.3175007,0.7086738 0.3137427,0.7430886 0.3449282,0.7405246 c 0,0 0.0103328,-0.009518 -0.00263,-0.0120814 -0.0129624,-0.002562 -0.0162884,4.5031e-4 -0.0162884,4.5031e-4 0,0 0.0114035,-0.028639 0.003889,-0.0268096 -0.007515,0.001831 -0.0123983,0.00659 -0.0123983,0.00659 z m -0.041462,0.006674 c 0,0 0.0244222,0.005858 0.0315612,0.0102508 0.007139,0.004394 -0.00789,0.0164756 -0.00789,0.0164756 L 0.2689001,0.7292598 c 0,0 -3.7567e-4,-0.0150097 0.007139,-0.013912 z"
   inkscape:connector-curvature="0"
   style="fill:#000000" />
    <path
   id="_359654888"
   class="fil3"
   d="M 0.353388,0.590819 0.3312822,0.6004824 C 0.3202116,0.5989944 0.286739,0.5897397 0.3096879,0.60170241 l 0.027025,0.003839 0.0198261,0.001951 c 0,0 0.008758,-0.004983 0.002873,-0.006324 -0.005883,-0.001342 -0.008683,2.3495e-4 -0.008683,2.3495e-4 0,0 0.0160461,-0.0149913 0.0114683,-0.0140332 -0.004578,9.5814e-4 -0.008809,0.00345 -0.008809,0.00345 z M 0.3184911,0.6139123 c 0,0 -0.007707,0.005174 -0.006499,0.007474 0.001208,0.002299 0.0164463,0.0128401 0.0164463,0.0128401 0,0 0.0112468,-0.002396 0.006937,-0.006516 -0.004311,-0.00412 -0.006109,-0.006421 -0.006109,-0.006421 l 0.0208992,-0.001246 c 0,0 0.0100464,-0.00412 0.00382,-0.006707 -0.006227,-0.002587 -0.0328265,-0.001054 -0.0354953,5.7513e-4 z"
   inkscape:connector-curvature="0"
   style="fill:#ffffff" />
    <path
   id="_359655080"
   class="fil47"
   d="M 0.351817,0.590053 0.32971,0.599718 C 0.3186406,0.59823 0.2851668,0.5889741 0.3081169,0.600937 l 0.027025,0.003839 0.0198248,0.001951 c 0,0 0.008758,-0.004982 0.002874,-0.006324 -0.005883,-0.001341 -0.008684,2.3617e-4 -0.008684,2.3617e-4 0,0 0.0160473,-0.0149925 0.0114696,-0.0140344 -0.004578,9.5814e-4 -0.008809,0.00345 -0.008809,0.00345 z M 0.3169201,0.6131463 c 0,0 -0.007707,0.005174 -0.006499,0.007474 0.001208,0.002299 0.016445,0.0128401 0.016445,0.0128401 0,0 0.0112481,-0.002395 0.006937,-0.006516 -0.004311,-0.00412 -0.006109,-0.006419 -0.006109,-0.006419 l 0.0208992,-0.001246 c 0,0 0.0100476,-0.00412 0.00382,-0.006708 -0.006226,-0.002587 -0.0328252,-0.001054 -0.0354941,5.7513e-4 z"
   inkscape:connector-curvature="0"
   style="fill:#000000" />
    <g
   id="g8057">
     <path
   id="_359655344"
   class="fil48"
   d="m 0.4657,0.68878 c 0,0 0.00278,0.002545 9.6916e-4,0.006274 -0.00181,0.003729 -0.0164842,0.0262541 -0.0164842,0.0262541 0,0 -0.006336,0.003125 -0.001681,-0.004758 0.004655,-0.007883 0.006853,-0.0119419 0.006853,-0.0119419 l -0.0131876,0.0100611 c 0,0 -0.004785,1.652e-4 4.5153e-4,-0.006757 0.005237,-0.006924 0.0220458,-0.0197979 0.0230798,-0.0191322 z M 0.456633,0.6751311 0.455341,0.6933468 0.4660715,0.6829223 c 0,0 0.003556,-0.007764 -9.043e-4,-0.005236 -0.00446,0.002528 -0.005606,0.005002 -0.005606,0.005002 0,0 0.003924,-0.017588 0.001339,-0.0144725 -0.002586,0.003114 -0.004267,0.006915 -0.004267,0.006915 z M 0.4423661,0.6906143 c 0,0 0.008404,-0.004254 0.0108602,-0.004163 0.002457,9.055e-5 -0.002715,0.0105077 -0.002715,0.0105077 l -0.010602,0.002668 c 0,0 -1.2971e-4,-0.007354 0.002457,-0.009012 z"
   inkscape:connector-curvature="0"
   style="fill:#fefefe" />
     <path
   id="_359655536"
   class="fil47"
   d="m 0.465159,0.688481 c 0,0 0.00278,0.002545 9.6916e-4,0.006273 -0.00181,0.003729 -0.0164842,0.0262541 -0.0164842,0.0262541 0,0 -0.006336,0.003127 -0.001681,-0.004756 0.004655,-0.007883 0.006853,-0.0119419 0.006853,-0.0119419 l -0.0131876,0.0100611 c 0,0 -0.004785,1.6397e-4 4.5154e-4,-0.006758 0.005237,-0.006922 0.0220458,-0.0197967 0.0230798,-0.019131 z M 0.456092,0.6748308 0.4548,0.6930465 0.4655317,0.682622 c 0,0 0.003555,-0.007764 -9.0552e-4,-0.005235 -0.00446,0.002528 -0.005606,0.005002 -0.005606,0.005002 0,0 0.003924,-0.017588 0.001339,-0.0144737 -0.002586,0.003115 -0.004267,0.006915 -0.004267,0.006915 z M 0.44182463,0.690314 c 0,0 0.008404,-0.004252 0.0108602,-0.004162 0.002457,8.933e-5 -0.002715,0.0105077 -0.002715,0.0105077 l -0.010602,0.002668 c 0,0 -1.2971e-4,-0.007354 0.002457,-0.009014 z"
   inkscape:connector-curvature="0"
   style="fill:#000000" />
    </g>
   </g>
  </g>
 </g>
</svg>
