<?xml version="1.0" encoding="UTF-8"?>
<!DOCTYPE svg PUBLIC "-//W3C//DTD SVG 1.1//EN" "http://www.w3.org/Graphics/SVG/1.1/DTD/svg11.dtd">
<!-- Creator: CorelDRAW -->
<svg xmlns="http://www.w3.org/2000/svg" xml:space="preserve" width="3.20015in" height="3.08083in" style="shape-rendering:geometricPrecision; text-rendering:geometricPrecision; image-rendering:optimizeQuality; fill-rule:evenodd; clip-rule:evenodd"
viewBox="0 0 0.994654 0.957568"
 xmlns:xlink="http://www.w3.org/1999/xlink">
 <defs>
  <style type="text/css">
   <![CDATA[
    .str0 {stroke:gray;stroke-width:0.000932445}
    .str1 {stroke:#99CCCC;stroke-width:0.000932445}
    .str2 {stroke:white;stroke-width:0.000932445}
    .str5 {stroke:#912783;stroke-width:0.00215857}
    .str4 {stroke:#F4D5FF;stroke-width:0.00215857}
    .str3 {stroke:#FF99FF;stroke-width:0.00215857}
    .fil30 {fill:none}
    .fil48 {fill:#FEFEFE}
    .fil47 {fill:black}
    .fil2 {fill:#003333}
    .fil40 {fill:#2B1F46}
    .fil38 {fill:#336666}
    .fil28 {fill:#3C682D}
    .fil34 {fill:#528C36}
    .fil33 {fill:#61A53E}
    .fil9 {fill:#669999}
    .fil20 {fill:#74E9F0}
    .fil18 {fill:#7DC05C}
    .fil39 {fill:#996699}
    .fil16 {fill:#999966}
    .fil41 {fill:#99CCCC}
    .fil25 {fill:#C1FFFF}
    .fil46 {fill:#CC33FF}
    .fil37 {fill:#D0E8E8}
    .fil36 {fill:#E6E6E6}
    .fil3 {fill:white}
    .fil31 {fill:#224827;fill-rule:nonzero}
    .fil35 {fill:url(#id0)}
    .fil6 {fill:url(#id1)}
    .fil5 {fill:url(#id2)}
    .fil42 {fill:url(#id3)}
    .fil14 {fill:url(#id4)}
    .fil23 {fill:url(#id5)}
    .fil12 {fill:url(#id6)}
    .fil44 {fill:url(#id7)}
    .fil26 {fill:url(#id8)}
    .fil43 {fill:url(#id9)}
    .fil27 {fill:url(#id10)}
    .fil45 {fill:url(#id11)}
    .fil24 {fill:url(#id12)}
    .fil17 {fill:url(#id13)}
    .fil19 {fill:url(#id14)}
    .fil32 {fill:url(#id15)}
    .fil22 {fill:url(#id16)}
    .fil29 {fill:url(#id17)}
    .fil21 {fill:url(#id18)}
    .fil13 {fill:url(#id19)}
    .fil0 {fill:url(#id20)}
    .fil11 {fill:url(#id21)}
    .fil1 {fill:url(#id22)}
    .fil15 {fill:url(#id23)}
    .fil10 {fill:url(#id24)}
    .fil8 {fill:url(#id25)}
    .fil7 {fill:url(#id26)}
    .fil4 {fill:url(#id27)}
   ]]>
  </style>
  <linearGradient id="id0" gradientUnits="userSpaceOnUse" x1="0.400086" y1="0.171402" x2="0.800751" y2="0.370023">
   <stop offset="0" style="stop-color:#336666"/>
   <stop offset="0.380392" style="stop-color:#99CCCC"/>
   <stop offset="0.509804" style="stop-color:#BDDFDF"/>
   <stop offset="0.639216" style="stop-color:#99CCCC"/>
   <stop offset="1" style="stop-color:#336666"/>
  </linearGradient>
  <linearGradient id="id1" gradientUnits="userSpaceOnUse" x1="0.123921" y1="0.183011" x2="0.948491" y2="0.597447">
   <stop offset="0" style="stop-color:#99CCCC"/>
   <stop offset="0.0784314" style="stop-color:#669999"/>
   <stop offset="0.509804" style="stop-color:#99CCCC"/>
   <stop offset="0.929412" style="stop-color:#669999"/>
   <stop offset="1" style="stop-color:#99CCCC"/>
  </linearGradient>
  <linearGradient id="id2" gradientUnits="userSpaceOnUse" x1="0.344464" y1="0.315675" x2="0.722343" y2="0.506112">
   <stop offset="0" style="stop-color:black"/>
   <stop offset="0.509804" style="stop-color:#336666"/>
   <stop offset="1" style="stop-color:black"/>
  </linearGradient>
  <linearGradient id="id3" gradientUnits="userSpaceOnUse" x1="0.182343" y1="0.894692" x2="0.452196" y2="0.478503">
   <stop offset="0" style="stop-color:#336666"/>
   <stop offset="0.760784" style="stop-color:#98B2B2"/>
   <stop offset="1" style="stop-color:#FEFEFE"/>
  </linearGradient>
  <linearGradient id="id4" gradientUnits="userSpaceOnUse" x1="0.623882" y1="0.201343" x2="0.579994" y2="0.305346">
   <stop offset="0" style="stop-color:#666633"/>
   <stop offset="1" style="stop-color:#1A1A00"/>
  </linearGradient>
  <linearGradient id="id5" gradientUnits="userSpaceOnUse" x1="0.686096" y1="0.162003" x2="0.683428" y2="0.140466">
   <stop offset="0" style="stop-color:#88CA68"/>
   <stop offset="1" style="stop-color:#61A53E"/>
  </linearGradient>
  <linearGradient id="id6" gradientUnits="userSpaceOnUse" x1="0.703419" y1="0.0923769" x2="0.592963" y2="0.315197">
   <stop offset="0" style="stop-color:#669999"/>
   <stop offset="1" style="stop-color:#003333"/>
  </linearGradient>
  <linearGradient id="id7" gradientUnits="userSpaceOnUse" x1="0.440373" y1="0.717943" x2="0.466373" y2="0.717373">
   <stop offset="0" style="stop-color:#B648B8"/>
   <stop offset="1" style="stop-color:#D273D9"/>
  </linearGradient>
  <linearGradient id="id8" gradientUnits="userSpaceOnUse" xlink:href="#id5" x1="0.644508" y1="0.148183" x2="0.660905" y2="0.132833">
  </linearGradient>
  <linearGradient id="id9" gradientUnits="userSpaceOnUse" x1="0.340695" y1="0.63471" x2="0.331044" y2="0.585308">
   <stop offset="0" style="stop-color:#D273D9"/>
   <stop offset="1" style="stop-color:#912783"/>
  </linearGradient>
  <linearGradient id="id10" gradientUnits="userSpaceOnUse" x1="0.646768" y1="0.149468" x2="0.652118" y2="0.1353">
   <stop offset="0" style="stop-color:black"/>
   <stop offset="1" style="stop-color:#1A1A1A"/>
  </linearGradient>
  <linearGradient id="id11" gradientUnits="userSpaceOnUse" x1="0.343257" y1="0.703187" x2="0.276044" y2="0.790821">
   <stop offset="0" style="stop-color:#9C2E8D"/>
   <stop offset="1" style="stop-color:#72155B"/>
  </linearGradient>
  <linearGradient id="id12" gradientUnits="userSpaceOnUse" xlink:href="#id10" x1="0.680893" y1="0.160551" x2="0.685078" y2="0.148908">
  </linearGradient>
  <linearGradient id="id13" gradientUnits="userSpaceOnUse" x1="0.611566" y1="0.251065" x2="0.657728" y2="0.256939">
   <stop offset="0" style="stop-color:#88CA68"/>
   <stop offset="1" style="stop-color:#98D27E"/>
  </linearGradient>
  <linearGradient id="id14" gradientUnits="userSpaceOnUse" x1="0.631061" y1="0.221331" x2="0.626379" y2="0.236213">
   <stop offset="0" style="stop-color:#3C682D"/>
   <stop offset="1" style="stop-color:#88CA68"/>
  </linearGradient>
  <linearGradient id="id15" gradientUnits="userSpaceOnUse" xlink:href="#id5" x1="0.653987" y1="0.185824" x2="0.65585" y2="0.180783">
  </linearGradient>
  <linearGradient id="id16" gradientUnits="userSpaceOnUse" x1="0.714008" y1="0.130838" x2="0.682961" y2="0.119874">
   <stop offset="0" style="stop-color:#AADA94"/>
   <stop offset="1" style="stop-color:#88CA68"/>
  </linearGradient>
  <linearGradient id="id17" gradientUnits="userSpaceOnUse" xlink:href="#id5" x1="0.65887" y1="0.172689" x2="0.656817" y2="0.178238">
  </linearGradient>
  <linearGradient id="id18" gradientUnits="userSpaceOnUse" xlink:href="#id13" x1="0.672717" y1="0.140819" x2="0.69688" y2="0.149142">
  </linearGradient>
  <linearGradient id="id19" gradientUnits="userSpaceOnUse" x1="0.712787" y1="0.290853" x2="0.68288" y2="0.35118">
   <stop offset="0" style="stop-color:#003333"/>
   <stop offset="1" style="stop-color:black"/>
  </linearGradient>
  <radialGradient id="id20" gradientUnits="userSpaceOnUse" cx="0.478783" cy="0.478783" r="0.664799" fx="0.478783" fy="0.478783">
   <stop offset="0" style="stop-color:black"/>
   <stop offset="0.701961" style="stop-color:gray"/>
   <stop offset="1" style="stop-color:white"/>
  </radialGradient>
  <radialGradient id="id21" gradientUnits="userSpaceOnUse" cx="0.595056" cy="0.311736" r="0.206045" fx="0.595056" fy="0.311736">
   <stop offset="0" style="stop-color:#003333"/>
   <stop offset="1" style="stop-color:#669999"/>
  </radialGradient>
  <radialGradient id="id22" gradientUnits="userSpaceOnUse" cx="0.478783" cy="0.478785" r="0.664799" fx="0.478783" fy="0.478785">
   <stop offset="0" style="stop-color:#CC3399"/>
   <stop offset="1" style="stop-color:#000066"/>
  </radialGradient>
  <radialGradient id="id23" gradientUnits="userSpaceOnUse" cx="0.616296" cy="0.259997" r="0.0693496" fx="0.616296" fy="0.259997">
   <stop offset="0" style="stop-color:#333300"/>
   <stop offset="0.431373" style="stop-color:#666633"/>
   <stop offset="1" style="stop-color:#999966"/>
  </radialGradient>
  <radialGradient id="id24" gradientUnits="userSpaceOnUse" cx="0.664397" cy="0.159717" r="0.212031" fx="0.664397" fy="0.159717">
   <stop offset="0" style="stop-color:#660066"/>
   <stop offset="0.74902" style="stop-color:#330066"/>
   <stop offset="1" style="stop-color:#000066"/>
  </radialGradient>
  <radialGradient id="id25" gradientUnits="userSpaceOnUse" cx="0.611775" cy="0.242387" r="0.294342" fx="0.611775" fy="0.242387">
   <stop offset="0" style="stop-color:#FEFEFE"/>
   <stop offset="1" style="stop-color:#99CCCC"/>
  </radialGradient>
  <radialGradient id="id26" gradientUnits="userSpaceOnUse" xlink:href="#id25" cx="0.633154" cy="0.204494" r="0.241" fx="0.633154" fy="0.204494">
  </radialGradient>
  <radialGradient id="id27" gradientUnits="userSpaceOnUse" cx="0.503662" cy="0.478255" r="0.0622694" fx="0.503662" fy="0.478255">
   <stop offset="0" style="stop-color:#99CCCC"/>
   <stop offset="1" style="stop-color:#336666"/>
  </radialGradient>
 </defs>
 <g id="Layer_x0020_1">
  <metadata id="CorelCorpID_0Corel-Layer"/>
  <g id="_353055728">
   <circle id="_357862424" class="fil0 str0" cx="0.478784" cy="0.478784" r="0.478318"/>
   <circle id="_357862616" class="fil1" cx="0.478784" cy="0.478784" r="0.45525"/>
   <g>
    <path id="_360315800" class="fil2" d="M0.766178 0.424568c-0.0513848,0.0572707 -0.127074,0.0851253 -0.202129,0.0726242 -0.0130995,-0.0153584 -0.0290196,-0.0282744 -0.0502884,-0.0388176 -0.0212676,-0.010542 -0.0431262,-0.0162309 -0.0632814,-0.0173567 -0.0553923,-0.0521643 -0.0771114,-0.128431 -0.0626427,-0.204002l0.378341 0.187552z"/>
    <path id="_359485824" class="fil3" d="M0.764475 0.423724c-0.0513848,0.0572707 -0.124811,0.0853113 -0.199865,0.0728102 -0.0130995,-0.0153584 -0.0312846,-0.0284604 -0.0525522,-0.0390036 -0.0212676,-0.0105432 -0.0431262,-0.0162309 -0.0632814,-0.0173567 -0.0553923,-0.0521643 -0.0771114,-0.128431 -0.0626439,-0.204002l0.378342 0.187552z"/>
    <path id="_359485512" class="fil4" d="M0.768304 0.424562c-0.0513848,0.0572695 -0.128639,0.0844719 -0.203694,0.071972 -0.0130995,-0.0153584 -0.0308612,-0.0293133 -0.0521288,-0.039854 -0.0212688,-0.0105445 -0.0431262,-0.0162321 -0.0632814,-0.0173591 -0.0553936,-0.0521631 -0.0805206,-0.130119 -0.0660518,-0.20569l0.385156 0.190931z"/>
    <path id="_360265096" class="fil3" d="M0.563964 0.344253c0.112185,0.0556126 0.218507,0.101797 0.207384,0.124234 -0.0111233,0.0224374 -0.0331348,0.0748354 -0.250016,-0.0326784 -0.216881,-0.107513 -0.193377,-0.158048 -0.182255,-0.180484 0.0111233,-0.0224374 0.112702,0.0333159 0.224887,0.0889285z"/>
    <path id="_360265072" class="fil5" d="M0.56441 0.343351c0.112185,0.0556126 0.218061,0.102699 0.206937,0.125135 -0.0111208,0.0224374 -0.032687,0.0739348 -0.249567,-0.0335778 -0.216883,-0.107515 -0.193378,-0.158049 -0.182255,-0.180487 0.0111233,-0.0224362 0.112702,0.0333171 0.224886,0.0889298z"/>
    <path id="_360338576" class="fil6" d="M0.609601 0.25219c0.207666,0.102945 0.403652,0.190105 0.383062,0.23164 -0.0205884,0.0415329 -0.0605073,0.136858 -0.461977,-0.0621605 -0.401472,-0.199018 -0.357964,-0.292564 -0.337374,-0.334099 0.0205896,-0.0415317 0.208622,0.0616723 0.416289,0.164619z"/>
    <path id="_360359008" class="fil7" d="M0.632613 0.205766c0.220735,0.109424 0.381935,0.233916 0.36005,0.278064 -0.0218831,0.0441479 -0.218566,-0.00877134 -0.439301,-0.118195 -0.220735,-0.109423 -0.381935,-0.233916 -0.36005,-0.278064 0.0218843,-0.0441455 0.218565,0.00877257 0.439301,0.118195z"/>
    <path id="_360358936" class="fil8 str1" d="M0.623879 0.223387c0.172079,0.0853015 0.297746,0.182354 0.280685,0.216769 -0.0170618,0.0344172 -0.170389,-0.00683793 -0.342468,-0.0921407 -0.172078,-0.085304 -0.297745,-0.182353 -0.280685,-0.216769 0.0170618,-0.034416 0.17039,0.00683793 0.342468,0.0921407z"/>
    <ellipse id="_360359080" class="fil9 str1" transform="matrix(0.719929 0.356886 -0.356886 0.719929 0.600611 0.270322)" rx="0.287359" ry="0.0574714"/>
    <path id="_360213472" class="fil10" d="M0.717087 0.0353631c0.00167889,0.000829655 0.00333698,0.00169113 0.00497916,0.00257218 0.000509051,0.000274104 0.00100954,0.000564117 0.00151736,0.000843116 0.00110988,0.000610617 0.00222098,0.00121879 0.0033125,0.00185143 0.000657116,0.000379341 0.00129955,0.000775813 0.00194932,0.00116494 0.000932445,0.000556775 0.00186978,0.0011111 0.00278999,0.00168378 0.000684037,0.000425841 0.00135829,0.000866366 0.00203498,0.00130077 0.000873708,0.000561669 0.00174986,0.00112334 0.00261133,0.00169847 0.000664458,0.00044542 0.0013228,0.000901853 0.00198236,0.00135461 0.000851682,0.000587367 0.00170581,0.00117473 0.0025477,0.00177678 0.000674248,0.000484577 0.00134238,0.000976497 0.00201173,0.00146964 0.00079784,0.000589814 0.00159446,0.00117963 0.00238251,0.00178046 0.000665682,0.000509051 0.00132402,0.00102789 0.00198236,0.00154306 0.000790498,0.000622853 0.00157732,0.00124938 0.00235681,0.00188324 0.000632643,0.000517617 0.00126284,0.00104135 0.00189059,0.00156631 0.000770919,0.000647327 0.00153694,0.00130077 0.0022993,0.00196156 0.000622853,0.00054209 0.00124571,0.00108908 0.00186367,0.0016434 0.000742774,0.000663235 0.00147943,0.00133504 0.00221119,0.00201051 0.000610617,0.000564117 0.00122123,0.00113068 0.00182451,0.00170459 0.000720748,0.000686485 0.00143293,0.00138154 0.00214389,0.00208026 0.000591038,0.000583696 0.00118452,0.0011625 0.00176822,0.00175353 0.000717077,0.000724419 0.00142314,0.0014623 0.00212798,0.00220018 0.000556775,0.000580025 0.00111477,0.0011576 0.00166298,0.00174619 0.000702393,0.000755011 0.00139377,0.00152471 0.00208638,0.00229195 0.000535972,0.000597156 0.00108051,0.00119186 0.00161036,0.00179636 0.000735432,0.000836997 0.00145373,0.0016899 0.00217448,0.00254158 0.000452762,0.000534748 0.000912866,0.00106215 0.00136196,0.00160425 0.000802734,0.000975273 0.00158834,0.00196523 0.00237639,0.00295641 0.000364657,0.000460104 0.000735432,0.000909195 0.00109642,0.00137052 0.00111233,0.00143048 0.00220752,0.00287565 0.00328436,0.00434162 0.000380565,0.000521288 0.000750116,0.00105848 0.00113068,0.00158467 0.000703616,0.000981392 0.0014109,0.00195911 0.00209984,0.00295641 0.000429512,0.00062163 0.000846787,0.00125917 0.00127018,0.00188936 0.000608169,0.000900629 0.00122123,0.00179881 0.00181472,0.00271535 0.000466222,0.000713406 0.00091776,0.0014415 0.00137297,0.00216224 0.000537196,0.000848011 0.00107562,0.00169357 0.00159935,0.00254893 0.00046867,0.000763577 0.000922655,0.0015345 0.00138031,0.00230541 0.000493143,0.000829655 0.000988734,0.00165931 0.00147209,0.00249998 0.000457656,0.000795392 0.000903076,0.00159935 0.00135339,0.00240453 0.000466222,0.000833326 0.000931221,0.00166788 0.00138643,0.00251222 0.000444196,0.000818642 0.000879826,0.00164585 0.00131179,0.00247428 0.000444196,0.000846787 0.000887168,0.00169602 0.0013179,0.00255015 0.000416051,0.000818642 0.000823537,0.00164096 0.0012298,0.00246694 0.000429512,0.000876155 0.000855353,0.00175476 0.00127263,0.00263581 0.000406262,0.000852905 0.000805182,0.00170948 0.00119921,0.00256728 0.000392801,0.000856576 0.000779484,0.00171682 0.00116494,0.00257707 0.000392801,0.000889616 0.000784379,0.00177923 0.00116739,0.00267374 0.000373223,0.000871261 0.000739103,0.00174619 0.00110131,0.00262357 0.000369552,0.000888392 0.000735432,0.00178046 0.00109275,0.00267619 0.000359762,0.000895734 0.000707287,0.00179881 0.00105481,0.00270066 0.000347525,0.000903076 0.000696274,0.00180493 0.00103401,0.00271412 0.000332841,0.00089451 0.000652222,0.00179759 0.00097405,0.00269944 0.000332841,0.000926326 0.000666906,0.0018502 0.00098751,0.00278387 0.000309591,0.000903076 0.000608169,0.00181472 0.000907971,0.00272514 0.000314486,0.000952023 0.000632643,0.0018967 0.000937339,0.00285485 0.000274104,0.000867589 0.000533525,0.00174619 0.000800287,0.0026199 0.000307144,0.00100464 0.000619182,0.00200684 0.000915313,0.00301882 0.000247183,0.000849234 0.000477235,0.00170948 0.000715853,0.00256483 0.00112579,0.00402836 0.00216224,0.00810811 0.00310448,0.0122405 0.000174986,0.000762353 0.000356091,0.00151981 0.000523735,0.00228951 0.00023617,0.00107439 0.000451538,0.00215857 0.000675472,0.00324031 0.000181105,0.000883497 0.000369552,0.00176455 0.00054209,0.00265294 0.000210473,0.00107562 0.000405038,0.0021598 0.000603274,0.00323908 0.000166421,0.000914089 0.000337736,0.00182451 0.000494367,0.00273982 0.000185999,0.00107806 0.000357315,0.00216102 0.000529854,0.0032452 0.000148065,0.000911642 0.000297354,0.00182206 0.000433183,0.0027386 0.000170092,0.00112823 0.000326723,0.00226503 0.000483354,0.00339816 0.000121144,0.00088105 0.000243512,0.0017621 0.000356091,0.0026456 0.000146842,0.00114659 0.00028267,0.00229807 0.000416051,0.003452 0.000104013,0.000889616 0.000204355,0.00178046 0.000302249,0.00267374 0.000122368,0.0011576 0.00023617,0.00231643 0.000347525,0.00348015 8.19866e-005,0.000884721 0.00016275,0.00176944 0.000237394,0.00265906 0.000102789,0.00119309 0.000197013,0.00238618 0.000285118,0.00358294 6.48551e-005,0.000876155 0.000123592,0.00175598 0.000179881,0.00263581 7.58682e-005,0.00117963 0.000149289,0.00236048 0.000211697,0.003545 4.77235e-005,0.000906747 8.56576e-005,0.00181594 0.000126039,0.00272514 5.13946e-005,0.00121389 0.000102789,0.00242778 0.000143171,0.00364412 2.56973e-005,0.000856576 4.28288e-005,0.00171315 6.24077e-005,0.00256973 2.93683e-005,0.00124081 5.99603e-005,0.0024853 7.34208e-005,0.00373223 9.78944e-006,0.000867589 7.34208e-006,0.00174007 1.10131e-005,0.00261011 3.67104e-006,0.00126284 1.10131e-005,0.00252568 -1.22368e-006,0.00379341 -7.34208e-006,0.000775813 -2.56973e-005,0.00155407 -3.79341e-005,0.00233356 -2.32499e-005,0.00137052 -4.40525e-005,0.00274227 -8.32103e-005,0.00412013 -1.83552e-005,0.000628972 -4.77235e-005,0.00126161 -7.09735e-005,0.00189181 -5.13946e-005,0.00150635 -0.000104013,0.00301393 -0.000177434,0.00452517l-3.91578e-005 0.000643656c-0.000280223,0.00550901 -0.000709735,0.0110535 -0.00127508,0.0166237 -6.24077e-005,0.000625301 -0.000117473,0.00125183 -0.000185999,0.00187835 -0.000156631,0.00145863 -0.000332841,0.0029197 -0.000507827,0.004382 -8.56576e-005,0.000715853 -0.000163973,0.00143048 -0.000255749,0.00214756 -0.000179881,0.00142559 -0.000379341,0.00285362 -0.000578801,0.00428166 -0.000105237,0.000763577 -0.000208026,0.00152471 -0.000320604,0.00228828 -0.000197013,0.00135829 -0.000413604,0.00271902 -0.000627748,0.0040773 -0.000138276,0.000863918 -0.000271657,0.00173028 -0.000416051,0.0025942 -0.000215368,0.00130322 -0.000446643,0.00260766 -0.000679143,0.00391333 -0.000157855,0.000896958 -0.000316933,0.00179269 -0.000483354,0.00268965 -0.00024596,0.00132157 -0.000501709,0.00264315 -0.000763577,0.00396595 -0.000173763,0.000878603 -0.000349973,0.00175598 -0.000531077,0.00263458 -0.00026921,0.00131179 -0.000546985,0.00262602 -0.000832103,0.00393903 -0.00019946,0.000915313 -0.000402591,0.0018294 -0.000608169,0.00274349 -0.00029246,0.00130689 -0.000595932,0.00261133 -0.000905524,0.003917 -0.000211697,0.000893287 -0.000429512,0.00178413 -0.000647327,0.00267864 -0.000326723,0.00133381 -0.000659564,0.00266762 -0.00100342,0.00400266 -0.000220262,0.000859024 -0.000449091,0.0017156 -0.000674248,0.00257462 -0.000363433,0.00136196 -0.000725643,0.00272269 -0.00110376,0.00408709 -0.000233723,0.000843116 -0.000477235,0.00168623 -0.0007183,0.00252935 -0.000392801,0.00138031 -0.00078805,0.0027594 -0.00119921,0.00414093 -0.000238618,0.000801511 -0.000489472,0.00160425 -0.000732985,0.00240576 -0.000434407,0.00142192 -0.000868813,0.00284261 -0.00131913,0.00426208 -0.000233723,0.000729314 -0.000478459,0.0014623 -0.000714629,0.00219039 -0.00048213,0.00148922 -0.000967931,0.00297966 -0.00147209,0.0044701 -0.000187223,0.00055188 -0.000386683,0.00110376 -0.000577577,0.00165809 -0.00204844,0.00595688 -0.00425474,0.0119089 -0.00663724,0.0178486 -0.0204049,0.0149668 -0.113274,-0.0115148 -0.2167,-0.0627846 -0.103425,-0.0512698 -0.180729,-0.109149 -0.181174,-0.134452 0.00328436,-0.00549065 0.00668741,-0.0108492 0.0101896,-0.0160902 0.000323052,-0.000484577 0.000642432,-0.000977721 0.000967931,-0.00146107 0.000879826,-0.00130322 0.00177434,-0.00259053 0.00266518,-0.00387784 0.000438078,-0.000631419 0.000871261,-0.00126651 0.00131179,-0.00189426 0.0008578,-0.00122001 0.00172539,-0.00242656 0.00259298,-0.00363066 0.000489472,-0.000680366 0.000977721,-0.00136685 0.00147086,-0.00203988 0.000850458,-0.00116372 0.00171071,-0.00231398 0.00256973,-0.00346179 0.000524959,-0.000702393 0.00105114,-0.00140723 0.00157855,-0.00210473 0.000855353,-0.00112579 0.00171927,-0.00223934 0.00258441,-0.00335166 0.000546985,-0.000699945 0.00109152,-0.00140234 0.00163973,-0.00209616 0.000855353,-0.00108051 0.0017156,-0.00215368 0.00257952,-0.00322195 0.000577577,-0.000715853 0.00115638,-0.00142681 0.00173885,-0.00213655 0.000851682,-0.0010389 0.00170826,-0.0020668 0.00256851,-0.00309224 0.000603274,-0.0007183 0.001209,-0.00143293 0.00181594,-0.00214634 0.000873708,-0.00102177 0.00174986,-0.00203865 0.00262969,-0.00304819 0.000592261,-0.000675472 0.00118452,-0.00134482 0.00177801,-0.00201663 0.000893287,-0.00100954 0.00179147,-0.00201418 0.0026921,-0.00300781 0.000615511,-0.000675472 0.00123225,-0.00134482 0.00184776,-0.0020154 0.000899405,-0.00097405 0.00179881,-0.00194565 0.00270433,-0.00290869 0.000600827,-0.000637538 0.001209,-0.00126896 0.00181472,-0.0019016 0.0009508,-0.000994852 0.00190282,-0.00198726 0.00286219,-0.00296865 0.000539643,-0.00055188 0.0010854,-0.00109397 0.00162872,-0.00163973 0.00101565,-0.001023 0.00203131,-0.00204722 0.00305675,-0.00305431 0.000515169,-0.00050538 0.00103523,-0.000999747 0.00155407,-0.00150268 0.00105726,-0.00102544 0.0021133,-0.00205089 0.00317912,-0.0030592 0.00045888,-0.000433183 0.000922655,-0.000855353 0.00138398,-0.00128486 0.00409076,-0.00382278 0.00824149,-0.00752074 0.0124571,-0.0110792l0.000489472 -0.000419722c0.00116005,-0.000975273 0.00232622,-0.00192974 0.00349361,-0.00288299 0.000489472,-0.00039892 0.000972826,-0.000805182 0.0014623,-0.00120043 0.00107072,-0.000866366 0.00215123,-0.00171193 0.00323052,-0.00255994 0.000610617,-0.00048213 0.00122001,-0.000970379 0.00183185,-0.00144517 0.00100342,-0.000775813 0.00201173,-0.0015345 0.00301882,-0.00229807 0.000695051,-0.000522512 0.00138765,-0.00105359 0.00208393,-0.00156998 0.00100097,-0.000745221 0.00200806,-0.00147453 0.00301515,-0.00220262 0.000693827,-0.000502933 0.00138643,-0.00100709 0.0020827,-0.00150268 0.000992405,-0.000707287 0.0019897,-0.00140234 0.002987,-0.00209372 0.000747669,-0.000518841 0.00149534,-0.0010389 0.00224545,-0.0015504 0.000982615,-0.000669353 0.00196523,-0.00132647 0.00295152,-0.00197992 0.000732985,-0.000487025 0.00146842,-0.000971602 0.00220507,-0.00145129 0.00100464,-0.000655893 0.00201295,-0.00130077 0.00302127,-0.00194443 0.000753787,-0.000477235 0.00150757,-0.000949576 0.00226259,-0.00142069 0.000992405,-0.000615511 0.00198481,-0.00122613 0.00298089,-0.00182818 0.000768471,-0.000466222 0.00153817,-0.000922655 0.00230909,-0.00138031 0.000998523,-0.000592261 0.00200072,-0.0011784 0.00300046,-0.00175843 0.000772142,-0.000444196 0.00154796,-0.000879826 0.0023201,-0.00131668 0.0009973,-0.000564117 0.00199582,-0.00112579 0.00299802,-0.00167399 0.000810076,-0.00044542 0.00162627,-0.000877379 0.00244002,-0.00131423 0.000967931,-0.000517617 0.00193464,-0.00103768 0.00290502,-0.00154306 0.000824761,-0.000428288 0.00165197,-0.000843116 0.0024804,-0.00126529 0.000978944,-0.000496814 0.00195911,-0.0009973 0.00294295,-0.00148065 0.000810076,-0.000400144 0.00162627,-0.000784379 0.00244124,-0.00117351 0.000994852,-0.000478459 0.00198848,-0.000963037 0.00298456,-0.00142681 0.000714629,-0.000331617 0.00142926,-0.000646103 0.00214022,-0.000969155 0.00385826,-0.00175231 0.00773366,-0.00339816 0.0116225,-0.00494122 0.000824761,-0.000326723 0.00164952,-0.000663235 0.00247428,-0.000982615 0.000985063,-0.000376894 0.0019689,-0.000734208 0.00295641,-0.00109887 0.0008578,-0.000316933 0.00171315,-0.000642432 0.00257095,-0.000947129 0.000945905,-0.000338959 0.00189059,-0.000657116 0.00283772,-0.000983839 0.000906747,-0.000312039 0.00181105,-0.000627748 0.00272024,-0.000926326 0.000936116,-0.000310815 0.00187468,-0.000604498 0.00281202,-0.000900629 0.000914089,-0.000291236 0.00182573,-0.000582472 0.00273737,-0.000859024 0.000928773,-0.000283894 0.00185877,-0.000550656 0.00278877,-0.00082109 0.00092755,-0.000270433 0.00185632,-0.000539643 0.0027851,-0.000796616 0.000929997,-0.000258197 0.00186122,-0.000504156 0.00279366,-0.000750116 0.000916537,-0.000242289 0.00183552,-0.000480906 0.00275206,-0.000709735 0.000947129,-0.000238618 0.00189181,-0.000466222 0.00283894,-0.000690156 0.00091776,-0.000217815 0.00183552,-0.000429512 0.00275328,-0.00063509 0.000922655,-0.000204355 0.00184653,-0.000405038 0.00276797,-0.000599603 0.000956918,-0.00019946 0.00191506,-0.000394025 0.00287075,-0.000582472 0.000903076,-0.00017621 0.00180615,-0.000351196 0.00270923,-0.000516393 0.00094101,-0.000171315 0.00188324,-0.000334065 0.00282548,-0.000495591 0.000922655,-0.000154184 0.00184409,-0.000309591 0.00276429,-0.000453985 0.000947129,-0.000149289 0.00189303,-0.000281447 0.00284016,-0.000416051 0.000910418,-0.00012971 0.00182206,-0.000263091 0.00273125,-0.000379341 0.000961813,-0.000123592 0.00192363,-0.000231276 0.00288299,-0.000340183 0.000889616,-0.000101565 0.00177801,-0.000209249 0.0026664,-0.000299802 0.00100097,-0.000101565 0.00200072,-0.000181105 0.00299924,-0.000267986 0.000851682,-7.46445e-005 0.00170214,-0.000156631 0.00255382,-0.000217815 0.00108785,-8.19866e-005 0.00217326,-0.0001395 0.00325988,-0.000200684 0.000757458,-4.40525e-005 0.00151614,-9.78944e-005 0.00227237,-0.000132157 0.001209,-5.50656e-005 0.00241799,-8.56576e-005 0.00362454,-0.000117473 0.000649774,-1.83552e-005 0.00129832,-4.89472e-005 0.00194688,-5.99603e-005 0.00181594,-3.18157e-005 0.00363066,-3.67104e-005 0.00544171,-1.59078e-005 0.000586143,6.1184e-006 0.00116861,3.18157e-005 0.00175353,4.28288e-005 0.00126529,2.6921e-005 0.00253302,5.13946e-005 0.00379341,0.000102789 0.000701169,2.93683e-005 0.00140111,7.34208e-005 0.00210228,0.000110131 0.00111355,5.7513e-005 0.0022271,0.000115026 0.0033382,0.000192118 0.000802734,5.62893e-005 0.00160302,0.00012971 0.00240453,0.000195789 0.00103034,8.56576e-005 0.00205945,0.000168868 0.00308735,0.000271657 0.000800287,7.95392e-005 0.00159813,0.000174986 0.00239719,0.000265539 0.00101321,0.000113802 0.00202641,0.000231276 0.0030384,0.000360986 0.000823537,0.000108908 0.00164585,0.000228828 0.00246572,0.000347525 0.000985063,0.000141947 0.00197257,0.000288789 0.00295274,0.000446643 0.000823537,0.000133381 0.0016434,0.000275328 0.00246327,0.000418499 0.000981392,0.000173763 0.00196034,0.00035242 0.0029405,0.000543314 0.000813748,0.000156631 0.00162505,0.000320604 0.00243512,0.000488249 0.000985063,0.000205578 0.00197013,0.000420946 0.00295396,0.000643656 0.00079784,0.000179881 0.00159323,0.000364657 0.00239107,0.000556775 0.000976497,0.000234947 0.00194932,0.00048213 0.0029246,0.000732985 0.0008113,0.000209249 0.00161893,0.000423393 0.00242778,0.000643656 0.000956918,0.000263091 0.00190772,0.00054209 0.00286096,0.000818642 0.000796616,0.000234947 0.00159323,0.000467446 0.00238618,0.000712182 0.00098751,0.000303473 0.0019738,0.000628972 0.00295886,0.000952023 0.000759906,0.000248407 0.00151859,0.000495591 0.00227727,0.000757458 0.000980168,0.000335288 0.00195667,0.000693827 0.00293194,0.00104992 0.000756235,0.000274104 0.00151369,0.000545761 0.00226748,0.000829655 0.00101443,0.000385459 0.00202274,0.000796616 0.00303106,0.00120165 0.000702393,0.000281447 0.00140601,0.000555551 0.00210595,0.000846787 0.00116494,0.000484577 0.00232132,0.00100097 0.00348015,0.00151492 0.00052863,0.00023617 0.00106093,0.00045888 0.00158834,0.000696274 0.00169724,0.000768471 0.00338592,0.00157365 0.00506359,0.00240698z"/>
    <path id="_360286808" class="fil3" d="M0.644139 0.182514c0.0930474,0.0461254 0.159627,0.0994057 0.173444,0.127694 -0.00561669,0.0164585 -0.0119566,0.0435875 -0.0145691,0.0502933 -0.0109532,0.0220923 -0.103668,-0.00675105 -0.214133,-0.061512 -0.110464,-0.0547597 -0.192939,-0.113761 -0.181987,-0.135853 0.00138765,-0.00279856 0.0258833,-0.0349018 0.0299484,-0.0405736 0.0278608,-0.00882885 0.110826,0.0121291 0.207296,0.0599518z"/>
    <path id="_360287024" class="fil11" d="M0.643717 0.183365c0.0930462,0.0461266 0.160049,0.098554 0.173865,0.126844 -0.00360129,0.0176283 -0.0115148,0.0449384 -0.0149901,0.0511425 -0.0109519,0.0220948 -0.103668,-0.00675105 -0.214133,-0.0615107 -0.110464,-0.0547585 -0.192938,-0.113758 -0.181987,-0.135854 0.00138765,-0.00279733 0.0263067,-0.0357523 0.0303705,-0.0414228 0.0278608,-0.00883008 0.110404,0.0129796 0.206874,0.060801z"/>
    <path id="_360298656" class="fil12" d="M0.627184 0.216719c0.0930462,0.0461266 0.165568,0.104818 0.179384,0.133107 -0.00561547,0.0164573 -0.00288666,0.00835774 -0.00550044,0.0150647 -0.0109507,0.0220923 -0.0979263,-0.00957775 -0.208392,-0.0643374 -0.110463,-0.0547609 -0.19848,-0.112453 -0.187528,-0.134546 0.00138765,-0.00279856 0.00475033,-0.00773366 0.00881539,-0.0134054 0.0278608,-0.00883008 0.116749,0.0162958 0.21322,0.0641172z"/>
    <path id="_350532416" class="fil13" d="M0.625494 0.220127c0.0930474,0.0461254 0.165568,0.104818 0.179385,0.133105 -0.00561547,0.0164597 -0.00288666,0.00835896 -0.00549922,0.0150647 -0.0109532,0.0220936 -0.0979275,-0.00957652 -0.208393,-0.0643362 -0.110463,-0.0547597 -0.19848,-0.112454 -0.187527,-0.134546 0.00138643,-0.00279978 0.0047491,-0.00773488 0.00881417,-0.0134054 0.0278608,-0.00882885 0.116748,0.0162945 0.213219,0.0641184z"/>
    <path id="_359209640" class="fil14" d="M0.63963 0.180483c0.0269503,0.0133589 0.0409395,0.0412503 0.0388824,0.0616698 -0.00706553,0.0157402 -0.0179,0.0399605 -0.0209176,0.0464644 -0.0109519,0.0220923 -0.042644,0.0234983 -0.0746372,0.00763944 -0.0319931,-0.0158589 -0.0507583,-0.0432767 -0.0398051,-0.0653715 0.00138643,-0.00279733 0.0205064,-0.037983 0.0238544,-0.0440072 0.0144712,-0.0154673 0.0446839,-0.0202446 0.072623,-0.00639495z"/>
    <path id="_359604184" class="fil15" d="M0.643789 0.183402c0.0269479,0.0133589 0.0409407,0.0412527 0.0388812,0.0616698 -0.00706553,0.015739 -0.0178988,0.0399605 -0.0209176,0.0464656 -0.0109532,0.0220911 -0.0426416,0.0234983 -0.0746359,0.00763821 -0.0319943,-0.0158589 -0.0507583,-0.0432779 -0.0398075,-0.0653702 0.00138888,-0.00279856 0.0205077,-0.0379818 0.0238581,-0.0440072 0.01447,-0.0154673 0.0446815,-0.0202458 0.0726218,-0.00639618z"/>
    <path id="_359603584" class="fil16" d="M0.643789 0.183403c0.0025734,0.00127508 0.0050281,0.00268475 0.00736166,0.00420579 -0.00168256,-0.00101443 -0.00342141,-0.00197257 -0.005219,-0.00286464 -0.0279403,-0.0138508 -0.0594305,-0.00970501 -0.0738993,0.00576231 -0.00335044,0.0060254 -0.0224704,0.0412074 -0.0238581,0.044006 -0.00965606,0.0194785 0.00506848,0.0437282 0.0303118,0.0599151 -0.0266187,-0.0162028 -0.0411022,-0.0405993 -0.0311757,-0.0606236 0.00138643,-0.00279856 0.0205077,-0.0379806 0.0238569,-0.044006 0.0144688,-0.0154673 0.0446815,-0.0202458 0.0726218,-0.00639495z"/>
    <g>
     <path id="_357947136" class="fil17" d="M0.556486 0.250918c0,0 0.0420983,-0.0252898 0.0567714,-0.022129 0.00177556,0.000380565 0.00306899,0.000959365 0.00549433,0.000901853 0.0031057,-0.00188692 0.00449458,-0.000796616 0.00940398,-0.0139194 0.00491063,-0.0131252 0.0152079,0.000100342 0.0152079,0.000100342 0,0 -0.00675227,0.0141996 -0.00512844,0.0218488 0.00168623,0.00143048 0.0050122,0.00409688 0.00618326,0.00550534 0.0126614,0.0152287 0.0030849,0.0528116 0.0030849,0.0528116l-0.0107341 -0.00532056c0.00010646,5.38419e-005 0.00527039,-0.028267 -0.000408709,-0.0318194 -0.00648061,0.0126688 -0.00692848,0.0172429 -0.010832,0.0262467l-0.0358269 -0.0177593c0,0 0.00532179,-0.0119529 0.00836386,-0.0172784 0.00304452,-0.0053279 -0.0193855,-0.000637538 -0.0267594,0.00815705 -0.0082317,-0.00407975 -0.01482,-0.00734575 -0.01482,-0.00734575z"/>
     <path id="_350399632" class="fil18" d="M0.639661 0.29215l-0.00289156 -0.00143415c0,0 0.00503422,-0.0264401 -0.000408709,-0.0318181 -0.00648061,0.0126688 -0.00692726,0.0172441 -0.010832,0.0262467l-0.00405528 -0.00201051c0.00353888,-0.00863307 0.010449,-0.0226112 0.0135535,-0.0271804 0.00310448,-0.00456922 0.0109409,0.00331373 0.00463408,0.0361965z"/>
     <path id="_360177504" class="fil18" d="M0.591714 0.268381l-0.00201173 -0.0009973c0,0 0.00532056,-0.0119505 0.00836386,-0.0172771 0.00304207,-0.00532668 -0.0193868,-0.000637538 -0.0267619,0.00815705l-0.00461328 -0.00228706c0.0116274,-0.00802245 0.0341395,-0.0172013 0.0340758,-0.0102104 -6.36314e-005,0.00699211 -0.00418743,0.0114683 -0.00905279,0.0226148z"/>
     <path id="_360177576" class="fil19" d="M0.588511 0.234544c0.00966585,-0.00405772 0.0191787,-0.00695295 0.0247465,-0.00575497 0.00177556,0.000380565 0.00306899,0.000959365 0.00549433,0.000901853 0.0031057,-0.00188692 0.00449458,-0.000796616 0.00940398,-0.0139194 0.00491063,-0.0131252 0.0152079,0.000100342 0.0152079,0.000100342 0,0 -0.00699456,0.0121218 -0.00537073,0.0197722 -1.22368e-005,0.000649774 0.00023617,0.00253547 0.00169969,0.00339327 -0.00308735,0.000980168 -0.0032709,0.000649774 -0.0102973,-0.00098751 -0.00702637,-0.00163851 -0.0253718,-0.00718668 -0.0338494,-0.00504034 -0.00202519,0.000512722 -0.00447622,0.00103523 -0.00703494,0.0015345z"/>
     <path id="_359509352" class="fil20" d="M0.556486 0.250918c0,0 0.0420983,-0.0252898 0.0567714,-0.022129 0.00177678,0.000380565 0.00306777,0.000958142 0.00549433,0.000901853 0.00310448,-0.00188692 0.00449458,-0.000796616 0.00940398,-0.0139206 0.00255749,-0.00683426 0.00657484,-0.00652222 0.00983961,-0.00465488 -0.00300903,-0.00125427 -0.00633744,-0.00320237 -0.00992038,0.00637415 -0.00358294,0.0095753 -0.00566075,0.0106411 -0.00876522,0.012528 -0.00242656,5.62893e-005 -0.00309224,-0.000261868 -0.00486902,-0.000642432 -0.0146732,-0.00315954 -0.0567714,0.0221303 -0.0567714,0.0221303l-0.0011833 -0.000587367zm0.0340709 0.0168892l-0.000854129 -0.000423393c0,0 0.00664581,-0.0142963 0.00836386,-0.0172771 0.00023617,-0.000411157 -0.00030592,0.00141702 -0.00180371,0.00475889 -0.000464999,0.00103523 -0.0033382,0.00566197 -0.00570602,0.0129416z"/>
     <path id="_359508992" class="fil21" d="M0.697099 0.0486229l0 0c0.0219222,0.00773978 0.033524,0.032009 0.0257829,0.0539325 -0.011521,0.0326258 -0.0259849,0.059882 -0.0345604,0.0978773 -0.00775813,0.0219687 -0.0320335,0.0335154 -0.0539888,0.0257634 -0.021921,-0.007741 -0.0334689,-0.0319907 -0.0257279,-0.0539117 0.0160302,-0.0347831 0.0251784,-0.0662733 0.0345616,-0.0978773 0.007741,-0.0219235 0.0320103,-0.0335252 0.0539325,-0.0257842z"/>
     <path id="_359476464" class="fil22" d="M0.697097 0.0486217l0 0c-0.00308123,-0.00108908 -0.00620895,-0.00179392 -0.00933056,-0.00214266 0.0342214,0.00404426 0.0313287,0.0335472 0.0246743,0.0523882 -0.005405,0.0131436 -0.0108345,0.0262418 -0.0160106,0.0398663 -0.00436732,0.0114977 -0.00568155,0.0089757 -0.0037567,0.0219969 0.000647327,0.00437588 -0.005591,0.0206386 -0.00644513,0.0231777 -0.00445053,0.0132121 -0.00829533,0.0151002 -0.00963404,0.0183552 -0.000702393,0.00171193 -0.000959365,0.00365146 -0.00112334,0.00436609 -0.00665437,0.0188459 -0.0273003,0.0234396 -0.0496484,0.0154123 0.0227409,0.0144737 0.0534271,0.00406996 0.0624958,-0.021609 0.0093636,-0.0371363 0.0220201,-0.0673893 0.0345629,-0.0978785 0.00773978,-0.0219235 -0.00386316,-0.0461915 -0.0257842,-0.0539325z"/>
     <path id="_359572440" class="fil18" d="M0.697098 0.0486229l0 0c0.00308123,0.00108785 0.0059581,0.00250243 0.00860614,0.00418988 -0.019087,-0.00213288 -0.0379488,0.00908583 -0.0446019,0.0279268 -0.00404549,0.0136232 -0.00804692,0.0272257 -0.0125733,0.041079 -0.00382155,0.0116923 -0.00870771,0.00790742 -0.0183846,0.0168329 -0.00325132,0.00299924 -0.00860737,0.0195728 -0.00953492,0.022085 -0.00483476,0.0130775 -0.000320604,0.018491 -0.00132402,0.0218647 -0.000526183,0.00177434 -0.00154428,0.00344344 -0.00186611,0.00410422 -0.00665437,0.0188447 0.00382278,0.0338543 0.0262553,0.0416406 -0.0267876,-0.00301515 -0.0441382,-0.0303815 -0.0350695,-0.0560617 0.0160302,-0.0347819 0.0251772,-0.0662733 0.0345616,-0.0978785 0.007741,-0.021921 0.0320103,-0.033524 0.0539313,-0.0257829z"/>
     <g>
      <path id="_360248496" class="fil23" d="M0.705163 0.147991c-0.00505502,-0.00556408 -0.0290612,-0.0169419 -0.0387307,0.00834305 -0.00687097,0.0179673 0.0278387,0.0203535 0.0387307,-0.00834305z"/>
      <path id="_360199432" class="fil24" d="M0.704437 0.149458c-0.00524959,-0.00417765 -0.0281006,-0.00669353 -0.0366639,0.00774467 -0.00852661,0.014377 0.0250145,0.0155297 0.0366639,-0.00774467z"/>
      <path id="_353883384" class="fil25" d="M0.688592 0.147675c-0.00221486,2.20262e-005 -0.00995219,0.00150635 -0.010985,0.00342753 -0.00102789,0.00191139 0.0100219,-0.000493143 0.010985,-0.00342753z"/>
      <g>
       <path id="_360235792" class="fil26" d="M0.638928 0.125829c0.00760395,-0.00133014 0.0338115,0.00409443 0.0247183,0.0295739 -0.00645859,0.0181031 -0.0350988,-0.000709735 -0.0247183,-0.0295739z"/>
       <path id="_359394648" class="fil27" d="M0.638531 0.127402c0.00683915,-0.000130934 0.0263165,0.0115185 0.0234983,0.0278779 -0.00280712,0.0162909 -0.0297244,-0.00278877 -0.0234983,-0.0278779z"/>
       <path id="_357490608" class="fil25" d="M0.652061 0.135449c0.00171193,0.00133626 0.0067694,0.00710347 0.00631174,0.00921676 -0.000456433,0.00210351 -0.00749137,-0.00635457 -0.00631174,-0.00921676z"/>
      </g>
     </g>
     <path id="_360248808" class="fil28" d="M0.703718 0.0516259c-0.00958631,-0.0026872 -0.0203657,-0.00481641 -0.0363054,0.00348137 -0.0172661,0.00898916 -0.0235045,0.0277996 -0.0317741,0.0518302 -0.00826963,0.0240306 -0.00687341,0.0175145 -0.00913967,0.0206949 0.00629951,-0.018097 0.0114475,-0.0356446 0.0166678,-0.0532264 0.007741,-0.021921 0.0320103,-0.033524 0.0539313,-0.0257829l0 0c0.00232744,0.00082109 0.00453618,0.00183063 0.00662011,0.00300291z"/>
     <g>
      <path id="_360093672" class="fil29" d="M0.676995 0.184975c0.00641453,0.00214634 0.00831613,-0.00233111 0.00831613,-0.00233111 -0.000378117,-4.77235e-005 0.00393903,-0.00349238 -0.0255896,-0.0135302 -0.0295274,-0.0100379 -0.0281104,-0.00443951 -0.0281104,-0.00443951 0,0 -0.00145985,0.00462306 0.00495346,0.00677062 0.0190564,0.0063766 0.0213728,0.00715241 0.0404304,0.0135302z"/>
      <path id="_360093864" class="fil30" d="M0.631781 0.164213c0,0 -0.00145985,0.00462306 0.00495346,0.00676818 0.00641331,0.00214634 0.0267044,0.00893654 0.0267044,0.00893654m0.0220422 0.00226381c0,0 -0.00190038,0.00447622 -0.00831491,0.00233111 -0.00641331,-0.00214634 -0.0267032,-0.00893776 -0.0267032,-0.00893776"/>
      <path id="_360094056" class="fil31" d="M0.636906 0.17052l0.0136379 0.00499139 0.0129759 0.00434284 0.0138178 0.004196c0.0044542,0.00138888 0.00598135,0.000684037 0.00853762,-0.0016948 -6.1184e-006,1.34605e-005 -0.00208515,0.0048935 -0.00888025,0.0026199 -0.00472463,-0.00112701 -0.00945048,-0.00225402 -0.0141763,-0.00337981 -0.00446766,-0.000633866 -0.00879459,-0.00206435 -0.0129759,-0.00434284l-0.0132794 -0.00580759c-0.00679387,-0.0022736 -0.00529487,-0.00691991 -0.00529119,-0.0069346 0.00010646,0.00299312 0.000755011,0.00432938 0.00563382,0.00600949z"/>
      <path id="_360094176" class="fil32" d="M0.664454 0.184778c0.00285362,0.000955694 0.00127018,0.00553715 0.00127018,0.00553715 -0.000130934,-0.000119921 -0.00857922,0.000636314 -0.0133112,-0.000791721 -0.0047332,-0.00142804 -0.0105726,-0.00719891 -0.0105726,-0.00719891 0,0 0.00178046,-0.00451783 0.00463285,-0.00356336 0.00847643,0.00283649 0.00950677,0.00318157 0.0179808,0.00601684z"/>
     </g>
     <g>
      <g>
       <path id="_360094488" class="fil33" d="M0.665935 0.167641c-0.000643656,-0.000511498 -0.00344466,-0.000819866 -0.00449335,0.000949576 -0.00104502,0.0017621 0.00306532,0.00190282 0.00449335,-0.000949576z"/>
       <path id="_360094680" class="fil34" d="M0.664063 0.167969c0.000504156,-0.00104135 -0.00206068,-0.00036588 -0.00256239,0.000725643 -0.000732985,0.00159935 0.00205701,0.000314486 0.00256239,-0.000725643z"/>
      </g>
      <g>
       <path id="_360094920" class="fil33" d="M0.656539 0.164497c0.000838221,-1.59078e-005 0.00322562,0.0014109 0.00288054,0.00341652 -0.000345078,0.00199582 -0.0036429,-0.000341407 -0.00288054,-0.00341652z"/>
       <path id="_360095112" class="fil34" d="M0.657785 0.165867c0.000290012,-0.00111233 0.00184776,0.000942234 0.00151981,0.00209249 -0.000479683,0.00168378 -0.00181105,-0.000981392 -0.00151981,-0.00209249z"/>
      </g>
     </g>
     <path id="_360094392" class="fil33" d="M0.688598 0.199219c-9.29997e-005,0.000403815 -0.000185999,0.000807629 -0.000277775,0.00121389 -0.00775691,0.0219687 -0.0320323,0.0335166 -0.0539876,0.0257634 -0.021921,-0.00773978 -0.0334689,-0.0319895 -0.0257279,-0.0539117 0.000197013,-0.000427064 0.000391578,-0.000852905 0.000586143,-0.00127875 -0.00564729,0.0210498 0.00478092,0.0463457 0.0256618,0.0537196 0.0208613,0.00736533 0.0448552,-0.00563872 0.0537453,-0.0255064z"/>
     <path id="_360094896" class="fil20" d="M0.698384 0.0491026c-0.0228914,-0.00797595 -0.0467116,0.00413971 -0.0542984,0.0256275 -0.00938441,0.0316052 -0.0180187,0.0632777 -0.0340489,0.0980596 -0.00758804,0.0214891 0.0013179,0.0460202 0.0256006,0.0538407 -0.0226846,-0.00719769 -0.0349544,-0.0319111 -0.0270323,-0.0543461 0.0160302,-0.0347819 0.0251772,-0.0662733 0.0345616,-0.0978785 0.00793067,-0.0224582 0.0330724,-0.0339351 0.0552174,-0.0253033z"/>
    </g>
    <path id="_359603416" class="fil3" d="M0.613301 0.273823c0.0965092,0.0463824 0.0854117,0.0859476 0.192523,0.0785101 -0.005591,0.0164707 -0.00344221,0.00943825 -0.00604865,0.0161465 -0.0109519,0.0220936 -0.104735,-0.00727968 -0.216573,-0.062721 -0.111837,-0.0554401 -0.192252,-0.112421 -0.1813,-0.134513 0.00138765,-0.00279978 0.00360252,-0.00662378 0.00767982,-0.0122882 0.0570247,0.0960234 0.10721,0.0684821 0.20372,0.114866z"/>
    <path id="_359638968" class="fil35" d="M0.612879 0.274675c0.0965092,0.0463836 0.0854117,0.0859489 0.192523,0.0785101 -0.005591,0.0164707 -0.00344221,0.00943702 -0.00604865,0.0161477 -0.0109507,0.0220923 -0.104736,-0.0072809 -0.216572,-0.0627222 -0.111838,-0.0554401 -0.192254,-0.112421 -0.181302,-0.134514 0.00138765,-0.00279856 0.00360252,-0.00662134 0.00767982,-0.0122894 0.0570235,0.0960271 0.10721,0.0684845 0.20372,0.114868z"/>
    <path id="_359639160" class="fil9" d="M0.407645 0.161952l-0.213836 -0.0742028 0.208843 0.0823121 0.00499262 -0.00810933zm0.396338 0.195648l0.188682 0.126229 -0.192113 -0.117346 0.0034312 -0.0088827zm-0.223948 -0.0523515l0.0163826 0.00801266 -0.0356948 0.0560054 0.0193121 -0.0640181z"/>
    <path id="_359639352" class="fil36" d="M0.406472 0.163988l-0.21316 -0.0764164 0.208168 0.0845245 0.00499262 -0.00810811zm0.396312 0.196461l0.18988 0.12338 -0.193311 -0.114497 0.0034312 -0.0088827zm-0.220948 -0.0543069l0.0163826 0.00801266 -0.0374972 0.0551121 0.0211146 -0.0631248z"/>
    <g>
     <path id="_359639616" class="fil37 str2" d="M0.843268 0.448479c0.00832225,0.00412625 0.0127459,0.0110988 0.0137872,0.00899772 0.00104135,-0.00209984 -0.0014415,-0.0140491 -0.00976497,-0.0181753 -0.00832225,-0.00412625 -0.0193354,0.00113313 -0.0203767,0.00323419 -0.00104135,0.00209984 0.00803101,0.00181717 0.0163545,0.00594342z"/>
     <path id="_359639808" class="fil38" d="M0.841908 0.450158c0.00832347,0.00412625 0.0159605,0.00567543 0.0150708,0.00747179 -0.000889616,0.00179514 -0.00836019,-9.29997e-005 -0.0166824,-0.00421925 -0.00832347,-0.00412625 -0.0143489,-0.00892797 -0.0134593,-0.0107231 0.000890839,-0.00179514 0.00674737,0.00334554 0.0150708,0.00747057z"/>
     <ellipse id="_359640000" class="fil9" transform="matrix(0.696043 0.345045 -0.345045 0.696043 0.841984 0.450006)" rx="0.0216518" ry="0.00445175"/>
    </g>
    <g>
     <path id="_359640168" class="fil37 str2" d="M0.703491 0.409297c0.00832347,0.00412625 0.0127459,0.0110988 0.0137872,0.00899772 0.00104135,-0.00209984 -0.0014415,-0.0140491 -0.00976375,-0.0181753 -0.00832347,-0.00412625 -0.0193366,0.00113313 -0.020378,0.00323419 -0.00104135,0.00209984 0.00803101,0.00181717 0.0163545,0.00594342z"/>
     <path id="_359640360" class="fil38" d="M0.702132 0.410977c0.00832347,0.00412503 0.0159605,0.00567421 0.0150708,0.00747057 -0.000889616,0.00179514 -0.00835896,-9.29997e-005 -0.0166824,-0.00421925 -0.00832347,-0.00412625 -0.0143489,-0.00892675 -0.0134593,-0.0107231 0.000890839,-0.00179514 0.0067486,0.00334554 0.0150708,0.00747179z"/>
     <ellipse id="_359640552" class="fil9" transform="matrix(0.696043 0.345045 -0.345045 0.696043 0.702208 0.410824)" rx="0.0216518" ry="0.00445175"/>
    </g>
    <g>
     <path id="_359640720" class="fil37 str2" d="M0.314196 0.186205c-0.00832347,-0.00412503 -0.0165503,-0.00342386 -0.0155089,-0.00552369 0.00104135,-0.00210106 0.0120533,-0.00736044 0.0203767,-0.00323419 0.00832347,0.00412625 0.0108051,0.0160755 0.00976375,0.0181753 -0.00104013,0.00210106 -0.00630807,-0.00529119 -0.0146315,-0.00941744z"/>
     <path id="_360158368" class="fil38" d="M0.313682 0.188304c-0.00832347,-0.00412503 -0.0141812,-0.00926571 -0.0150708,-0.00747057 -0.000889616,0.00179514 0.00513579,0.00659686 0.013458,0.0107231 0.00832347,0.00412625 0.0157928,0.00601439 0.0166837,0.00421925 0.000889616,-0.00179636 -0.00674737,-0.00334554 -0.0150708,-0.00747179z"/>
     <ellipse id="_360158560" class="fil9" transform="matrix(-0.696043 -0.345045 -0.345045 0.696043 0.313757 0.188152)" rx="0.0216518" ry="0.00445175"/>
    </g>
    <g>
     <path id="_360158728" class="fil37 str2" d="M0.43001 0.273725c-0.00832347,-0.00412625 -0.0165503,-0.00342386 -0.0155089,-0.00552492 0.00104135,-0.00209984 0.0120533,-0.00735921 0.0203767,-0.00323296 0.00832347,0.00412503 0.0108051,0.0160743 0.00976375,0.0181753 -0.00104135,0.00209984 -0.00630807,-0.00529119 -0.0146315,-0.00941744z"/>
     <path id="_360158920" class="fil38" d="M0.429496 0.275824c-0.00832347,-0.00412625 -0.0141812,-0.00926571 -0.0150708,-0.00747057 -0.000889616,0.00179514 0.00513579,0.00659686 0.013458,0.0107231 0.00832347,0.00412503 0.0157928,0.00601439 0.0166837,0.00421803 0.000889616,-0.00179514 -0.00674737,-0.00334432 -0.0150708,-0.00747057z"/>
     <ellipse id="_360159112" class="fil9" transform="matrix(-0.696043 -0.345045 -0.345045 0.696043 0.429571 0.275671)" rx="0.0216518" ry="0.00445175"/>
    </g>
    <g>
     <path id="_360159280" class="fil37 str2" d="M0.860829 0.372319c0.0078132,0.00387295 0.0119651,0.0104184 0.0129416,0.00844707 0.000977721,-0.00197257 -0.00135217,-0.0131888 -0.00916537,-0.0170618 -0.0078132,-0.00387417 -0.0181509,0.00106338 -0.0191286,0.00303473 -0.000977721,0.00197257 0.0075391,0.00170703 0.0153523,0.00557998z"/>
     <path id="_360159472" class="fil38" d="M0.859552 0.373896c0.0078132,0.00387417 0.0149827,0.0053279 0.014147,0.00701414 -0.00083455,0.00168501 -0.00784624,-8.8105e-005 -0.0156594,-0.00396105 -0.0078132,-0.00387295 -0.0134703,-0.00837976 -0.0126345,-0.010066 0.000835774,-0.00168501 0.00633377,0.00313996 0.014147,0.00701291z"/>
     <ellipse id="_360159664" class="fil9" transform="matrix(0.653392 0.323902 -0.323902 0.653392 0.859624 0.373753)" rx="0.0216518" ry="0.00445175"/>
    </g>
    <g>
     <path id="_360159832" class="fil37 str2" d="M0.364176 0.126117c-0.0078132,-0.00387295 -0.0155358,-0.00321461 -0.0145581,-0.00518596 0.000976497,-0.00197257 0.0113154,-0.0069089 0.0191273,-0.00303595 0.0078132,0.00387295 0.0101443,0.0150904 0.00916659,0.0170618 -0.000977721,0.00197135 -0.00592261,-0.00496692 -0.0137358,-0.00883987z"/>
     <path id="_360160024" class="fil38" d="M0.363694 0.128088c-0.0078132,-0.00387417 -0.0133124,-0.00869914 -0.014147,-0.00701414 -0.000835774,0.00168623 0.00482008,0.00619305 0.0126333,0.010066 0.0078132,0.00387295 0.0148249,0.00564606 0.0156607,0.00396105 0.000835774,-0.00168623 -0.00633377,-0.00313996 -0.014147,-0.00701291z"/>
     <ellipse id="_360160216" class="fil9" transform="matrix(-0.653392 -0.323902 -0.323902 0.653392 0.363764 0.127944)" rx="0.0216518" ry="0.00445175"/>
    </g>
    <path id="_360159808" class="fil9" d="M0.626483 0.0369099c0,0 -0.0921774,0.00115148 -0.135591,0.0771763 0.00777527,0.0015345 0.0198493,0.00438934 0.0198493,0.00438934 0,0 0.027326,-0.0700422 0.115742,-0.0815656z"/>
    <path id="_359679384" class="fil39" d="M0.766151 0.106147c0,0 0.0548943,0.0740584 0.0206741,0.15464 -0.00592873,-0.00525816 -0.0155114,-0.0131387 -0.0155114,-0.0131387 0,0 0.0391994,-0.0641576 -0.00516271,-0.141502z"/>
    <path id="_359679576" class="fil40" d="M0.401636 0.17383c-8.4434e-005,-0.000592261 -0.000146842,-0.00117229 -0.000156631,-0.00173396 0.00328313,-0.00549065 0.00668619,-0.0108492 0.0101871,-0.016089 0.000324275,-0.000485801 0.000642432,-0.000980168 0.000969155,-0.00146352 0.000879826,-0.00130322 0.00177434,-0.00258931 0.0026664,-0.00387662 0.000436854,-0.000631419 0.000870037,-0.00126773 0.00131056,-0.00189548 0.000856576,-0.00121879 0.00172539,-0.00242533 0.00259298,-0.00362944 0.000490696,-0.000680366 0.000977721,-0.00136685 0.00147086,-0.0020411 0.000849234,-0.00116372 0.00170948,-0.00231153 0.00256973,-0.00346179 0.000524959,-0.000701169 0.00104992,-0.00140601 0.00157855,-0.00210228 0.000855353,-0.00112701 0.00171927,-0.00224056 0.00258564,-0.00335288 0.000545761,-0.000699945 0.00108908,-0.00140234 0.00163851,-0.00209616 0.000854129,-0.00108173 0.0017156,-0.00215368 0.00257952,-0.00322195 0.000578801,-0.000714629 0.00115638,-0.00142681 0.00173885,-0.00213777 0.000851682,-0.00103768 0.00170826,-0.0020668 0.00256851,-0.00309102 0.000604498,-0.0007183 0.001209,-0.00143415 0.00181717,-0.00214634 0.000872484,-0.00102177 0.00174864,-0.00203743 0.00262969,-0.00304696 0.000589814,-0.000676695 0.0011833,-0.00134727 0.00177678,-0.00201663 0.000893287,-0.00100954 0.00179024,-0.00201418 0.00269332,-0.00300903 0.000613064,-0.000676695 0.00123102,-0.00134482 0.00184776,-0.0020154 0.000898181,-0.000975273 0.00179759,-0.0019481 0.00270311,-0.00290869 0.000602051,-0.000638761 0.00120777,-0.00126896 0.00181349,-0.00190282 0.000952023,-0.000993629 0.00190405,-0.00198726 0.00286341,-0.00296743 0.000539643,-0.00055188 0.0010854,-0.00109397 0.00162872,-0.00164096 0.00101565,-0.001023 0.00203131,-0.00204599 0.00305675,-0.00305308 0.000515169,-0.000506604 0.00103646,-0.00100097 0.00155407,-0.0015039 0.00105604,-0.00102422 0.0021133,-0.00204966 0.00317912,-0.00305798 0.00045888,-0.000433183 0.000923879,-0.000855353 0.00138398,-0.00128486 0.00409076,-0.00382278 0.00824271,-0.00752074 0.0124558,-0.0110792l0.000490696 -0.000419722c0.00115883,-0.000975273 0.00232622,-0.00192974 0.00349361,-0.00288299 0.000488249,-0.00039892 0.00097405,-0.000805182 0.0014623,-0.00120043 0.00107194,-0.000866366 0.00215245,-0.00171193 0.00323052,-0.00256116 0.000610617,-0.000480906 0.00122001,-0.000967931 0.00183307,-0.00144272 0.00100097,-0.000777037 0.00200928,-0.00153572 0.0030176,-0.00229807 0.000693827,-0.000524959 0.00138765,-0.00105359 0.00208393,-0.00157243 0.00100219,-0.000743998 0.00200806,-0.00147331 0.00301515,-0.0022014 0.000693827,-0.000502933 0.00138643,-0.00100831 0.0020827,-0.0015039 0.000992405,-0.000707287 0.0019897,-0.00140111 0.00298578,-0.00209372 0.000747669,-0.000518841 0.00149778,-0.00103768 0.0022479,-0.00154918 0.000980168,-0.00066813 0.00196401,-0.00132525 0.00294907,-0.00197992 0.000734208,-0.000487025 0.00146842,-0.000971602 0.00220507,-0.00145129 0.00100587,-0.000654669 0.00201418,-0.001302 0.00302371,-0.0019432 0.000752563,-0.000478459 0.00150757,-0.0009508 0.00226136,-0.00142069 0.000992405,-0.000615511 0.00198481,-0.00122735 0.00298089,-0.0018294 0.000768471,-0.000466222 0.00153939,-0.000923879 0.00231031,-0.00138031 0.0009973,-0.000592261 0.00199705,-0.00117963 0.00299924,-0.00175721 0.000772142,-0.00044542 0.00154673,-0.00088105 0.0023201,-0.0013179 0.000998523,-0.000562893 0.00199705,-0.00112579 0.00299802,-0.00167399 0.0008113,-0.00044542 0.00162627,-0.000877379 0.00244124,-0.00131423 0.000966708,-0.000517617 0.00193219,-0.00103768 0.00290257,-0.00154184 0.000825984,-0.000429512 0.00165319,-0.00084434 0.00248162,-0.00126529 0.000978944,-0.000498038 0.00196034,-0.000998523 0.00294295,-0.00148188 0.0008113,-0.000400144 0.00162627,-0.000784379 0.00244002,-0.00117473 0.000994852,-0.000477235 0.0019897,-0.000961813 0.002987,-0.00142559 0.000712182,-0.000330394 0.00142804,-0.00064488 0.00214022,-0.000969155 0.00385704,-0.00175231 0.00773244,-0.00339816 0.0116213,-0.00494 0.000824761,-0.000327946 0.00164952,-0.000664458 0.00247428,-0.000982615 0.000985063,-0.000378117 0.00197013,-0.000735432 0.00295641,-0.00110009 0.0008578,-0.000316933 0.00171315,-0.000641209 0.00257095,-0.000948352 0.000945905,-0.000337736 0.00189181,-0.000657116 0.00283894,-0.000982615 0.000905524,-0.000312039 0.00181105,-0.000626524 0.00271779,-0.00092755 0.000937339,-0.000309591 0.0018759,-0.000603274 0.00281447,-0.000900629 0.000912866,-0.000288789 0.00182451,-0.000581248 0.00273737,-0.000859024 0.000928773,-0.000281447 0.00185755,-0.000549433 0.00278632,-0.000819866 0.000928773,-0.00026921 0.00185632,-0.000538419 0.00278632,-0.000795392 0.000929997,-0.000258197 0.00186244,-0.00050538 0.00279366,-0.000750116 0.00091776,-0.000242289 0.00183552,-0.00048213 0.00275328,-0.000712182 0.000944681,-0.000237394 0.00189181,-0.000464999 0.00283649,-0.000687708 0.000918984,-0.000217815 0.00183552,-0.000430736 0.0027545,-0.000636314 0.000922655,-0.000205578 0.00184653,-0.000405038 0.00276919,-0.000599603 0.000956918,-0.000200684 0.00191261,-0.000394025 0.00286953,-0.000581248 0.000903076,-0.000177434 0.00180615,-0.000351196 0.002708,-0.000516393 0.000942234,-0.000173763 0.00188447,-0.000335288 0.0028267,-0.000495591l0.00108051 -0.000181105 -0.000659564 0.000127263c-0.00092755,0.000181105 -0.0018551,0.000370775 -0.00278265,0.000564117 -0.000983839,0.000204355 -0.00196645,0.000414828 -0.00294907,0.000632643 -0.000949576,0.000211697 -0.00189915,0.000428288 -0.00284628,0.000650998 -0.000944681,0.000223934 -0.00188814,0.000453985 -0.00283282,0.000690156 -0.000971602,0.000239841 -0.00194443,0.000487025 -0.00291603,0.000742774 -0.000944681,0.000249631 -0.00188692,0.000506604 -0.0028316,0.000768471 -0.000958142,0.000263091 -0.00191628,0.00052863 -0.00287198,0.000807629 -0.000956918,0.000276552 -0.00191139,0.000566564 -0.00286708,0.000855353 -0.000954471,0.000291236 -0.00191139,0.000578801 -0.00286586,0.00088105 -0.000939787,0.000298578 -0.00187713,0.000609393 -0.00281569,0.000920208 -0.000966708,0.000319381 -0.00193219,0.000633866 -0.00289645,0.000965484 -0.000933668,0.000321828 -0.00186489,0.00065834 -0.00279733,0.000991181 -0.00097405,0.000348749 -0.0019481,0.000688932 -0.00292093,0.00104992 -0.000882274,0.00032917 -0.00176332,0.000674248 -0.00264682,0.00101321 -0.00101443,0.000387907 -0.00203009,0.000770919 -0.00304329,0.00117351 -0.000850458,0.000338959 -0.00169847,0.000697498 -0.0025477,0.00104625 -0.00400511,0.0016434 -0.00799553,0.00339449 -0.01197,0.00525571 -0.000732985,0.000345078 -0.00147086,0.000679143 -0.00220385,0.00103034 -0.00102789,0.00049192 -0.00205334,0.00100464 -0.00307878,0.00151247 -0.000838221,0.000413604 -0.00167889,0.00082109 -0.00251466,0.00124571 -0.00101198,0.000513946 -0.00202274,0.0010438 -0.00303228,0.00157121 -0.000855353,0.000446643 -0.00170826,0.000885945 -0.00255749,0.00134115 -0.00100097,0.000534748 -0.00199582,0.0010854 -0.00299312,0.00163239 -0.000840668,0.000462551 -0.00168134,0.000920208 -0.00251711,0.00139255 -0.00103279,0.000580025 -0.00206313,0.00117596 -0.00309224,0.00177067 -0.00079784,0.000463775 -0.0015969,0.000925102 -0.0023923,0.001395 -0.00103401,0.000610617 -0.00206557,0.00123347 -0.00309469,0.00185755 -0.000795392,0.000484577 -0.00158956,0.000967931 -0.00238251,0.00145985 -0.00102789,0.000636314 -0.00205211,0.00128242 -0.00307633,0.00193342 -0.000778261,0.000495591 -0.0015553,0.000994852 -0.00233356,0.00150023 -0.00104135,0.000676695 -0.0020827,0.00136073 -0.00312039,0.00205211 -0.000759906,0.00050538 -0.00151859,0.0010181 -0.00227605,0.00153327 -0.0010181,0.000690156 -0.00203253,0.00138398 -0.00304574,0.00208882 -0.000773366,0.000538419 -0.00154796,0.00108663 -0.0023201,0.00163484 -0.00102912,0.000729314 -0.00205823,0.00146107 -0.00308367,0.00220752 -0.000719524,0.000522512 -0.00143415,0.00105481 -0.00215001,0.00158467 -0.00104013,0.000768471 -0.00208026,0.00153572 -0.00311427,0.00232132 -0.000720748,0.000545761 -0.0014366,0.00110376 -0.00215368,0.00165686 -0.00104135,0.000802734 -0.00208393,0.0016018 -0.00311916,0.00242044 -0.000632643,0.000500485 -0.00126284,0.00101321 -0.00189426,0.00151981 -0.00111477,0.00089451 -0.00223077,0.00178535 -0.0033382,0.00269577 -0.000504156,0.000417275 -0.00100709,0.000845563 -0.00151125,0.00126406 -0.00120655,0.00100464 -0.00241432,0.00200928 -0.00361108,0.00303473l-0.000507827 0.000441749c-0.00435753,0.00374569 -0.00865264,0.00763332 -0.0128866,0.0116519 -0.000476012,0.000451538 -0.000956918,0.000895734 -0.00143171,0.00135094 -0.00110376,0.00106093 -0.00219773,0.00213777 -0.0032917,0.00321583 -0.000535972,0.000526183 -0.00107562,0.00104747 -0.00160914,0.00157855 -0.00106215,0.00105971 -0.0021133,0.0021341 -0.00316566,0.00320849 -0.000561669,0.000573906 -0.00112701,0.00114292 -0.00168623,0.00172294 -0.000993629,0.00102912 -0.00198114,0.00207169 -0.00296743,0.00311671 -0.000626524,0.000665682 -0.00125427,0.00132647 -0.00187835,0.00199705 -0.000938563,0.00100954 -0.00186978,0.00203131 -0.002801,0.00305308 -0.000638761,0.00070484 -0.00127875,0.00140601 -0.00191506,0.00211574 -0.000934892,0.00104502 -0.00186489,0.00209861 -0.00279244,0.00315832 -0.000615511,0.000703616 -0.0012298,0.00140723 -0.00184164,0.00211574 -0.000915313,0.00105971 -0.00182328,0.00212553 -0.00272758,0.00319748 -0.000631419,0.000747669 -0.00125794,0.00149778 -0.00188447,0.00225157 -0.000893287,0.00107562 -0.00178168,0.0021549 -0.0026664,0.00324153 -0.000603274,0.000746445 -0.0012041,0.00149289 -0.00180371,0.00224301 -0.000896958,0.00111967 -0.00179147,0.00224423 -0.00267741,0.00337858 -0.000571459,0.000726866 -0.00113558,0.00146352 -0.00170214,0.00219651 -0.000900629,0.00116617 -0.00179636,0.00233478 -0.00268475,0.00351441 -0.000549433,0.000730537 -0.00109519,0.00146719 -0.00163973,0.00220385 -0.00089451,0.0012041 -0.0017878,0.0024082 -0.00267007,0.00362821 -0.000512722,0.000706064 -0.00101933,0.00142559 -0.00152838,0.00213777 -0.000901853,0.00126284 -0.00180493,0.00252568 -0.00269577,0.0038032 -0.000457656,0.000657116 -0.000909195,0.00132402 -0.00136318,0.00198359 -0.00092755,0.00135094 -0.00185755,0.00269822 -0.00277286,0.00406262 -0.000338959,0.000506604 -0.000670577,0.001023 -0.00100831,0.00153082 -0.00239719,0.00361353 -0.00475277,0.0072809 -0.00705819,0.0110021z"/>
    <rect id="_359679768" class="fil38" transform="matrix(0.696043 0.345045 -0.36406 0.734401 0.55768 0.367768)" width="0.00679877" height="0.0735407"/>
    <rect id="_359679912" class="fil9" transform="matrix(0.696043 0.345045 -0.36406 0.734401 0.558469 0.368159)" width="0.00679877" height="0.0735407"/>
    <polygon id="_359680056" class="fil38" points="0.281664,0.20161 0.285864,0.20503 0.261541,0.254095 0.257396,0.250564 "/>
    <polygon id="_359680248" class="fil9" points="0.282386,0.202135 0.286652,0.205422 0.262245,0.254659 0.258071,0.251187 "/>
    <polygon id="_359680440" class="fil38" points="0.867657,0.487453 0.862318,0.486163 0.837652,0.535921 0.843046,0.537098 "/>
    <polygon id="_359680632" class="fil9" points="0.866789,0.487192 0.861518,0.485767 0.836765,0.535699 0.84213,0.536938 "/>
    <g>
     <path id="_359680896" class="fil37 str2" d="M0.571361 0.352573c0.00832347,0.00412625 0.0127459,0.0110988 0.0137872,0.00899895 0.00104135,-0.00210106 -0.00144027,-0.0140503 -0.00976375,-0.0181753 -0.00832347,-0.00412625 -0.0193354,0.00113313 -0.0203767,0.00323296 -0.00104135,0.00210106 0.00803101,0.00181839 0.0163533,0.00594342z"/>
     <path id="_359681088" class="fil38" d="M0.570003 0.354253c0.00832225,0.00412625 0.0159605,0.00567543 0.0150708,0.00747057 -0.000890839,0.00179636 -0.00836019,-9.29997e-005 -0.0166837,-0.00421803 -0.00832225,-0.00412625 -0.0143477,-0.00892797 -0.013458,-0.0107231 0.000889616,-0.00179514 0.00674737,0.00334432 0.0150708,0.00747057z"/>
     <ellipse id="_359669024" class="fil9" transform="matrix(0.696043 0.345045 -0.345045 0.696043 0.570078 0.354101)" rx="0.0216518" ry="0.00445175"/>
    </g>
    <rect id="_359680872" class="fil38" transform="matrix(0.664463 0.408748 -0.36406 0.734401 0.398603 0.280963)" width="0.00679877" height="0.0735407"/>
    <rect id="_359669264" class="fil9" transform="matrix(0.664463 0.408748 -0.36406 0.734401 0.399355 0.281426)" width="0.00679877" height="0.0735407"/>
    <rect id="_359669408" class="fil38" transform="matrix(-0.727936 -0.280708 -0.367678 0.741699 0.723917 0.441098)" width="0.00679877" height="0.0735407"/>
    <rect id="_359669552" class="fil9" transform="matrix(-0.727936 -0.280708 -0.367678 0.741699 0.723093 0.44078)" width="0.00679877" height="0.0735407"/>
    <path id="_359669696" class="fil41" d="M0.343609 0.215004l0.0869376 0.00467691 0.0203155 0.0166506 -0.0415586 0.0253804c0,0 -0.0452456,-0.028278 -0.0656945,-0.0467079z"/>
    <path id="_359669888" class="fil41" d="M0.797348 0.439933l-0.0563603 -0.066359 -0.0255529 -0.00608659 0.00496325 0.0484418c0,0 0.0499005,0.0188887 0.0769499,0.0240037z"/>
   </g>
   <path id="_354772912" class="fil42" d="M0.449289 0.439634l-0.384283 0.229177c0.0692909,0.150631 0.218387,0.256946 0.393129,0.264749l0.111398 -0.435974c0,0 -0.0467666,-0.055199 -0.120244,-0.0579523z"/>
   <g>
    <g>
     <path id="_359670944" class="fil2" d="M0.291511 0.613396c0.00314975,-0.000507827 0.0541968,-0.0241811 0.0541968,-0.0241811l-0.0535605 0.0183515 -0.000636314 0.00582961z"/>
     <polygon id="_359653760" class="fil38" points="0.345708,0.589214 0.292148,0.607566 0.293415,0.601532 "/>
    </g>
    <polygon id="_359670920" class="fil43 str3" points="0.263291,0.565564 0.479592,0.573031 0.427154,0.654454 0.192147,0.63172 "/>
    <polygon id="_359654120" class="fil44 str4" points="0.479592,0.573031 0.477308,0.741127 0.427154,0.862286 0.427154,0.654454 "/>
    <polygon id="_359654312" class="fil45 str5" points="0.192147,0.63172 0.427154,0.654454 0.427154,0.862286 0.192147,0.823117 "/>
    <path id="_359654504" class="fil46" d="M0.345422 0.7532c0,0 0.00807751,0.00988489 0.00281814,0.0142779 -0.0052606,0.00439424 -0.0479059,0.0245299 -0.0479059,0.0245299 0,0 -0.0184115,-0.00457534 -0.00488493,-0.0124473 0.0135266,-0.00787194 0.0199142,-0.0122649 0.0199142,-0.0122649l-0.0383244 -0.00238006c0,0 -0.0139022,-0.00787071 0.00131423,-0.0128132 0.0152177,-0.00494245 0.0640621,-0.00201418 0.0670687,0.00109764zm-0.0263495 -0.042994l-0.00375792 0.0344136 0.0311867 -0.00256239c0,0 0.0103315,-0.00951779 -0.00263091,-0.0120814 -0.0129624,-0.00256361 -0.0162872,0.000450314 -0.0162872,0.000450314 0,0 0.0114023,-0.0286402 0.00388886,-0.0268096 -0.00751462,0.0018294 -0.0123996,0.00658952 -0.0123996,0.00658952zm-0.0414607 0.00667273c0,0 0.0244222,0.00585776 0.0315612,0.010252 0.00713895,0.00439301 -0.00789029,0.0164744 -0.00789029,0.0164744l-0.0308098 -0.0128132c0,0 -0.00037567,-0.0150109 0.00713895,-0.0139132z"/>
    <path id="_359654696" class="fil47" d="M0.343849 0.751669c0,0 0.00807874,0.00988489 0.00281814,0.0142779 -0.0052606,0.00439301 -0.0479059,0.0245287 -0.0479059,0.0245287 0,0 -0.0184103,-0.00457534 -0.00488371,-0.0124473 0.0135266,-0.00787071 0.0199142,-0.0122637 0.0199142,-0.0122637l-0.0383257 -0.00238006c0,0 -0.0139022,-0.00787194 0.00131546,-0.0128144 0.0152177,-0.00494245 0.0640621,-0.00201295 0.0670675,0.00109887zm-0.0263483 -0.0429952l-0.00375792 0.0344148 0.0311855 -0.00256361c0,0 0.0103328,-0.00951779 -0.00262969,-0.0120814 -0.0129624,-0.00256239 -0.0162884,0.000450314 -0.0162884,0.000450314 0,0 0.0114035,-0.028639 0.00388886,-0.0268096 -0.00751462,0.00183063 -0.0123983,0.00658952 -0.0123983,0.00658952zm-0.041462 0.00667395c0,0 0.0244222,0.00585776 0.0315612,0.0102508 0.00713895,0.00439424 -0.00789029,0.0164756 -0.00789029,0.0164756l-0.0308098 -0.0128144c0,0 -0.00037567,-0.0150097 0.00713895,-0.013912z"/>
    <path id="_359654888" class="fil3" d="M0.353388 0.590819l-0.0221058 0.0096634c-0.0110706,-0.001488 -0.0445432,-0.0107427 -0.0215943,0.00122001l0.027025 0.00383869 0.0198261 0.00195055c0,0 0.00875788,-0.00498283 0.0028732,-0.00632398 -0.00588346,-0.00134238 -0.00868324,0.000234947 -0.00868324,0.000234947 0,0 0.0160461,-0.0149913 0.0114683,-0.0140332 -0.00457779,0.000958142 -0.00880928,0.00344956 -0.00880928,0.00344956zm-0.0348969 0.0230933c0,0 -0.00770674,0.00517372 -0.00649897,0.00747424 0.00120777,0.0022993 0.0164463,0.0128401 0.0164463,0.0128401 0,0 0.0112468,-0.00239597 0.00693704,-0.0065161 -0.00431103,-0.00412013 -0.00610861,-0.00642065 -0.00610861,-0.00642065l0.0208992 -0.00124571c0,0 0.0100464,-0.00412013 0.00382033,-0.00670699 -0.00622731,-0.00258686 -0.0328265,-0.00105359 -0.0354953,0.00057513z"/>
    <path id="_359655080" class="fil47" d="M0.351817 0.590053l-0.022107 0.00966463c-0.0110694,-0.001488 -0.0445432,-0.0107439 -0.0215931,0.00121879l0.027025 0.00383869 0.0198248 0.00195055c0,0 0.00875788,-0.0049816 0.00287443,-0.00632398 -0.00588346,-0.00134115 -0.00868446,0.00023617 -0.00868446,0.00023617 0,0 0.0160473,-0.0149925 0.0114696,-0.0140344 -0.00457779,0.000958142 -0.00880928,0.00344956 -0.00880928,0.00344956zm-0.0348969 0.0230933c0,0 -0.00770674,0.00517372 -0.00649897,0.00747424 0.00120777,0.0022993 0.016445,0.0128401 0.016445,0.0128401 0,0 0.0112481,-0.00239474 0.00693704,-0.0065161 -0.00431103,-0.00412013 -0.00610861,-0.00641943 -0.00610861,-0.00641943l0.0208992 -0.00124571c0,0 0.0100476,-0.00412013 0.00382033,-0.00670822 -0.00622609,-0.00258686 -0.0328252,-0.00105359 -0.0354941,0.00057513z"/>
    <g>
     <path id="_359655344" class="fil48" d="M0.4657 0.68878c0,0 0.0027802,0.00254526 0.000969155,0.00627381 -0.00180982,0.00372855 -0.0164842,0.0262541 -0.0164842,0.0262541 0,0 -0.00633622,0.00312528 -0.00168134,-0.00475767 0.00465488,-0.00788295 0.00685261,-0.0119419 0.00685261,-0.0119419l-0.0131876 0.0100611c0,0 -0.00478459,0.000165197 0.000451538,-0.00675716 0.00523735,-0.00692358 0.0220458,-0.0197979 0.0230798,-0.0191322zm-0.00906747 -0.0136489l-0.00129221 0.0182157 0.0107305 -0.0104245c0,0 0.00355602,-0.00776425 -0.0009043,-0.00523613 -0.00446032,0.00252812 -0.00560568,0.00500241 -0.00560568,0.00500241 0,0 0.00392434,-0.017588 0.00133871,-0.0144725 -0.00258564,0.00311427 -0.00426697,0.00691502 -0.00426697,0.00691502zm-0.0142669 0.0154832c0,0 0.00840424,-0.00425351 0.0108602,-0.00416296 0.00245715,9.05524e-005 -0.00271535,0.0105077 -0.00271535,0.0105077l-0.010602 0.00266762c0,0 -0.00012971,-0.00735432 0.00245715,-0.00901241z"/>
     <path id="_359655536" class="fil47" d="M0.465159 0.688481c0,0 0.0027802,0.00254526 0.000969155,0.00627259 -0.00180982,0.00372855 -0.0164842,0.0262541 -0.0164842,0.0262541 0,0 -0.00633622,0.0031265 -0.00168134,-0.00475645 0.00465488,-0.00788295 0.00685261,-0.0119419 0.00685261,-0.0119419l-0.0131876 0.0100611c0,0 -0.00478459,0.000163973 0.000451538,-0.00675839 0.00523735,-0.00692236 0.0220458,-0.0197967 0.0230798,-0.019131zm-0.00906747 -0.0136502l-0.00129221 0.0182157 0.0107317 -0.0104245c0,0 0.00355479,-0.00776425 -0.000905524,-0.00523491 -0.00446032,0.00252812 -0.00560568,0.00500241 -0.00560568,0.00500241 0,0 0.00392434,-0.017588 0.00133871,-0.0144737 -0.00258564,0.00311549 -0.00426697,0.00691502 -0.00426697,0.00691502zm-0.0142669 0.0154832c0,0 0.00840424,-0.00425229 0.0108602,-0.00416174 0.00245715,8.93287e-005 -0.00271535,0.0105077 -0.00271535,0.0105077l-0.010602 0.00266762c0,0 -0.00012971,-0.00735432 0.00245715,-0.00901363z"/>
    </g>
   </g>
  </g>
 </g>
</svg>
