<?xml version="1.0" encoding="UTF-8" standalone="no"?>
<!-- Creator: CorelDRAW -->

<svg
   xmlns:dc="http://purl.org/dc/elements/1.1/"
   xmlns:cc="http://creativecommons.org/ns#"
   xmlns:rdf="http://www.w3.org/1999/02/22-rdf-syntax-ns#"
   xmlns:svg="http://www.w3.org/2000/svg"
   xmlns="http://www.w3.org/2000/svg"
   xmlns:xlink="http://www.w3.org/1999/xlink"
   xmlns:sodipodi="http://sodipodi.sourceforge.net/DTD/sodipodi-0.dtd"
   xmlns:inkscape="http://www.inkscape.org/namespaces/inkscape"
   xml:space="preserve"
   width="5.4836702in"
   height="5.4836702in"
   style="fill-rule:evenodd"
   viewBox=""
   id="svg10919"
   version="1.1"
   inkscape:version="0.48.3.1 r9886"
   sodipodi:docname="player19.svg">
  <metadata
     id="metadata3960">
    <rdf:RDF>
      <cc:Work
         rdf:about="">
        <dc:format>image/svg+xml</dc:format>
        <dc:type
           rdf:resource="http://purl.org/dc/dcmitype/StillImage" />
        <dc:title></dc:title>
        <cc:license
           rdf:resource="http://www.gnu.org/licenses/gpl-3.0.html" />
        <dc:creator>
          <cc:Agent>
            <dc:title>Abhash Bikram Thapa</dc:title>
          </cc:Agent>
        </dc:creator>
        <dc:description>http://pixelpinch.com</dc:description>
      </cc:Work>
    </rdf:RDF>
  </metadata>
   pagecolor="#ffffff"
   bordercolor="#666666"
   borderopacity="1"
   objecttolerance="10"
   gridtolerance="10"
   guidetolerance="10"
   inkscape:pageopacity="0"
   inkscape:pageshadow="2"
   inkscape:window-width="1366"
   inkscape:window-height="713"
   id="namedview11048"
   showgrid="false"
   inkscape:zoom="0.70222697"
   inkscape:cx="246.76517"
   inkscape:cy="255.25668"
   inkscape:window-x="-2"
   inkscape:window-y="-3"
   inkscape:window-maximized="1"
   inkscape:current-layer="svg10919" />
 <defs
   id="defs10921">
  <style
   type="text/css"
   id="style10923">
   
    .fil20 {fill:#451A40}
    .fil23 {fill:#570F4D}
    .fil24 {fill:#710263}
    .fil10 {fill:#740066}
    .fil17 {fill:#750068}
    .fil22 {fill:#750266}
    .fil21 {fill:#7B0071}
    .fil14 {fill:#840076}
    .fil19 {fill:#870176}
    .fil18 {fill:#8C007F}
    .fil13 {fill:#990487}
    .fil4 {fill:#9B0089}
    .fil16 {fill:#CB05B1}
    .fil12 {fill:#CC09B1}
    .fil11 {fill:#EE0CD0}
    .fil15 {fill:#FF37D4}
    .fil2 {fill:#E8AAD8;fill-rule:nonzero}
    .fil8 {fill:#EE0CD0;fill-opacity:0.501961}
    .fil7 {fill:url(#id0)}
    .fil9 {fill:url(#id1)}
    .fil3 {fill:url(#id2)}
    .fil5 {fill:url(#id3)}
    .fil26 {fill:url(#id4)}
    .fil25 {fill:url(#id5)}
    .fil6 {fill:url(#id6)}
    .fil1 {fill:url(#id7)}
    .fil0 {fill:url(#id8)}
  </style>
  <linearGradient
   id="id0"
   gradientUnits="userSpaceOnUse"
   x1="0.58721101"
   y1="0.63565499"
   x2="1.22455"
   y2="0.0104016">
   <stop
   offset="0"
   style="stop-color:#292929"
   id="stop10926" />
   <stop
   offset="1"
   style="stop-color:#B2009D"
   id="stop10928" />
  </linearGradient>
  <linearGradient
   id="id1"
   gradientUnits="userSpaceOnUse"
   x1="0.804636"
   y1="0.97120303"
   x2="1.22592"
   y2="0.246234">
   <stop
   offset="0"
   style="stop-color:#292929"
   id="stop10931" />
   <stop
   offset="1"
   style="stop-color:#830076"
   id="stop10933" />
  </linearGradient>
  <linearGradient
   id="id2"
   gradientUnits="userSpaceOnUse"
   x1="0.606601"
   y1="1.12324"
   x2="1.4268399"
   y2="0.157882">
   <stop
   offset="0"
   style="stop-color:#292929"
   id="stop10936" />
   <stop
   offset="0.2"
   style="stop-color:#372237"
   id="stop10938" />
   <stop
   offset="0.678431"
   style="stop-color:#950083"
   id="stop10940" />
   <stop
   offset="1"
   style="stop-color:#BE00A5"
   id="stop10942" />
  </linearGradient>
  <linearGradient
   id="id3"
   gradientUnits="userSpaceOnUse"
   xlink:href="#id0"
   x1="0.88958597"
   y1="1.16636"
   x2="1.30311"
   y2="0.57042003">
  </linearGradient>
  <linearGradient
   id="id4"
   gradientUnits="userSpaceOnUse"
   x1="0.358006"
   y1="1.1540999"
   x2="2.08567"
   y2="0.64425898">
   <stop
   offset="0"
   style="stop-color:#832177"
   id="stop10946" />
   <stop
   offset="0.458824"
   style="stop-color:#F27CE0"
   id="stop10948" />
   <stop
   offset="1"
   style="stop-color:#FFA2EA"
   id="stop10950" />
  </linearGradient>
  <linearGradient
   id="id5"
   gradientUnits="userSpaceOnUse"
   x1="0.52192497"
   y1="1.11991"
   x2="1.77264"
   y2="0.31111899">
   <stop
   offset="0"
   style="stop-color:#55094B"
   id="stop10953" />
   <stop
   offset="0.529412"
   style="stop-color:#FFB8EA"
   id="stop10955" />
   <stop
   offset="1"
   style="stop-color:#C757B7"
   id="stop10957" />
  </linearGradient>
  <linearGradient
   id="id6"
   gradientUnits="userSpaceOnUse"
   xlink:href="#id1"
   x1="1.02479"
   y1="1.25157"
   x2="1.3141201"
   y2="0.92756099">
  </linearGradient>
  <linearGradient
   id="id7"
   gradientUnits="userSpaceOnUse"
   x1="0.60882801"
   y1="0.73858899"
   x2="1.94116"
   y2="0.33087">
   <stop
   offset="0"
   style="stop-color:#1D051C"
   id="stop10961" />
   <stop
   offset="0.678431"
   style="stop-color:#73006B"
   id="stop10963" />
   <stop
   offset="1"
   style="stop-color:#ED8CE0"
   id="stop10965" />
  </linearGradient>
  <linearGradient
   id="id8"
   gradientUnits="userSpaceOnUse"
   x1="0.61806101"
   y1="0.54588902"
   x2="1.7871799"
   y2="0.076650001">
   <stop
   offset="0"
   style="stop-color:#450042"
   id="stop10968" />
   <stop
   offset="1"
   style="stop-color:#ED8CE0"
   id="stop10970" />
  </linearGradient>
 <linearGradient
   inkscape:collect="always"
   xlink:href="#id0"
   id="linearGradient11052"
   gradientUnits="userSpaceOnUse"
   x1="0.58721101"
   y1="0.63565499"
   x2="1.22455"
   y2="0.0104016" /><linearGradient
   inkscape:collect="always"
   xlink:href="#id1"
   id="linearGradient11054"
   gradientUnits="userSpaceOnUse"
   x1="0.804636"
   y1="0.97120303"
   x2="1.22592"
   y2="0.246234" /></defs>
 <g
   id="Layer_x0020_1"
   transform="matrix(243.09171,0,0,243.31222,-0.00108285,94.976965)">
  <metadata
   id="CorelCorpID_0Corel-Layer" />
  <g
   id="_354773800">
   <path
   id="_354773488"
   class="fil0"
   d="M 2.02614,0.334093 C 1.621291,0.035192 0.11035,0.551174 0.00763,0.991141 -0.136423,0.524992 1.80553,-0.129289 2.02614,0.334093 z"
   inkscape:connector-curvature="0"
   style="fill:url(#id8)" />
   <g
   id="g10976">
    <path
   id="_354773272"
   class="fil1"
   d="M 1.95134,0.347208 C 1.572725,0.067674 0.15968,0.550222 0.06362,0.961683 -0.071099,0.525737 1.74503,-0.086147 1.95134,0.347208 z"
   inkscape:connector-curvature="0"
   style="fill:url(#id7)" />
    <path
   id="_3547732721"
   class="fil2"
   d="m 0.0625874,0.962256 0.002052,-0.001146 -0.002071,3.7893e-4 0.0128792,-0.0390195 0.0201809,-0.039222 0.0270322,-0.0392774 0.0334478,-0.0391973 0.0394305,-0.0389714 0.0449832,-0.0386085 0.050106,-0.0380955 0.0548019,-0.0374353 0.0590677,-0.0366235 0.0629066,-0.035663 0.066314,-0.0345481 0.0692915,-0.0332874 0.0718376,-0.0318694 0.0739582,-0.0303012 0.0756444,-0.02858 0.0769036,-0.0267072 0.07773,-0.0246814 0.0781264,-0.0225055 0.078096,-0.0201736 0.077631,-0.0176916 0.07674,-0.0150566 0.075417,-0.01227 0.073664,-0.009327 0.071481,-0.006235 0.068867,-0.002988 0.065827,4.1099e-4 0.062356,0.003964 0.058457,0.007672 0.054126,0.011534 0.049372,0.0155536 0.044183,0.0197305 0.038565,0.0240693 -0.00131,0.002239 -0.038343,-0.0239294 -0.043985,-0.0196431 -0.049199,-0.0154982 -0.05398,-0.0115019 -0.058329,-0.007654 -0.062248,-0.003958 -0.065731,-4.1099e-4 -0.068783,0.002985 -0.071405,0.006229 -0.073594,0.009319 -0.075353,0.0122583 -0.076679,0.0150449 -0.077576,0.0176799 -0.07804,0.020159 L 0.9793632,0.37189733 0.9016857,0.39656123 0.8248375,0.42325093 0.7492456,0.45181053 0.6753457,0.48208843 0.6035664,0.51393153 0.534339,0.54718693 0.468095,0.58170003 0.4052642,0.61731933 0.346281,0.65389033 0.2915753,0.69125853 0.24158,0.72926943 0.1967279,0.76776423 0.157449,0.80658693 0.1241791,0.84557433 0.0973422,0.88456323 0.0773654,0.92338303 0.0646582,0.96187783 0.0625872,0.96225676 z m 1.88809,-0.613929 0.00131,-0.002239 -0.00162,0.001857 L 1.9265564,0.3105608 1.8939774,0.2790062 1.8532544,0.25307 1.8050354,0.232551 1.7499724,0.2172379 1.6887204,0.2069165 l -0.066786,-0.005545 -0.071664,-9.9104e-4 -0.075891,0.003342 -0.079458,0.007452 -0.082379,0.0113387 -0.084641,0.0150027 -0.086252,0.0184436 -0.087212,0.0216602 -0.087518,0.0246537 -0.0871697,0.0274228 -0.0861713,0.0299689 -0.0845201,0.0322906 -0.0822144,0.0343878 -0.0792559,0.036262 -0.0756473,0.0379118 -0.0713829,0.0393343 -0.066467,0.0405352 -0.0608968,0.0415073 -0.0546692,0.042252 -0.0477902,0.042765 -0.0402539,0.0430449 -0.0320661,0.0430827 -0.0232385,0.0428729 -0.0137813,0.042424 -0.0037237,0.0417784 0.0069635,0.0409972 -0.002052,0.001146 -0.007083,-0.0416997 0.0037878,-0.0425333 0.0139825,-0.0430536 0.0234776,-0.0433247 0.0322935,-0.0433888 0.0404463,-0.0432518 0.0479505,-0.0429108 0.0548033,-0.042354 0.0610075,-0.041586 0.0665632,-0.0405935 0.0714674,-0.0393809 0.0757231,-0.0379497 0.0793258,-0.0362941 0.0822786,-0.034414 0.0845813,-0.0323139 0.0862296,-0.0299893 0.0872309,-0.0274432 0.0875763,-0.0246683 0.087273,-0.0216776 0.086319,-0.0184553 0.084711,-0.0150172 0.082455,-0.0113475 0.079546,-0.007461 0.075987,-0.003345 0.071778,9.9104e-4 0.06692,0.005557 0.061413,0.0103477 0.055255,0.0153685 0.048452,0.020621 0.040994,0.0261111 0.032879,0.031849 0.024088,0.0378215 -0.00162,0.001857 z"
   inkscape:connector-curvature="0"
   style="fill:#e8aad8;fill-rule:nonzero" />
   </g>
   <g
   id="_354772792">
    <g
   id="g10981">
     <ellipse
   id="_354773632"
   class="fil3"
   cx="1.0167201"
   cy="0.64056098"
   rx="0.62215602"
   ry="0.625754"
   sodipodi:cx="1.0167201"
   sodipodi:cy="0.64056098"
   sodipodi:rx="0.62215602"
   sodipodi:ry="0.625754"
   style="fill:url(#id2)"
   d="m 1.6388761,0.64056098 c 0,0.3455944 -0.2785488,0.62575402 -0.622156,0.62575402 -0.34360733,0 -0.62215607,-0.28015962 -0.62215607,-0.62575402 0,-0.34559439 0.27854874,-0.62575399 0.62215607,-0.62575399 0.3436072,0 0.622156,0.2801596 0.622156,0.62575399 z" />
     <path
   id="_354772696"
   class="fil4"
   d="M 0.555282,1.0512 C 0.712838,0.948016 0.6010391,0.922782 0.748912,0.933599 0.896785,0.9444174 0.907603,0.9552562 0.983349,0.8542542 1.0590954,0.7532522 1.098768,0.7713096 1.199748,0.7280172 1.30073,0.6847246 1.2944263,0.6522708 1.369715,0.6522708 c 0.075289,0 0.107741,0 0.165452,0 0.057709,0 0.104033,-0.0465645 0.104033,-0.0465645 0,0 -0.0034,0.113762 -0.011123,0.148091 -0.00772,0.034328 -0.107786,-5.4507e-4 -0.183074,-5.4507e-4 -0.075289,0 -0.050513,0.007219 -0.201984,0.0757464 -0.151472,0.0685264 -0.176728,0.0505112 -0.238036,0.10460001 -0.0613092,0.0540892 0.010795,0.068506 -0.104602,0.0937616 -0.115397,0.025257 -0.104602,0.00724 -0.15869,0.032476 -0.0540892,0.025235 -0.120393,0.055006 -0.120393,0.055006 L 0.5552799,1.0511992 z"
   inkscape:connector-curvature="0"
   style="fill:#9b0089" />
     <path
   id="_354772672"
   class="fil5"
   d="M 0.554387,1.05932 C 0.711943,0.956136 0.6001441,0.930902 0.748017,0.941719 0.89589,0.9525374 0.906708,0.9633762 0.982454,0.8623742 1.0582004,0.7613712 1.097873,0.7794296 1.198854,0.7361372 1.299834,0.6928446 1.2935308,0.6603908 1.36882,0.6603908 c 0.075289,0 0.107743,0 0.165452,0 0.057709,0 0.104035,-0.0465645 0.104035,-0.0465645 0,0 -0.0034,0.113762 -0.011124,0.148091 -0.00772,0.034328 -0.107785,-5.4653e-4 -0.183074,-5.4653e-4 -0.075289,0 -0.050513,0.00722 -0.201984,0.0757479 -0.151471,0.0685264 -0.176727,0.0505112 -0.238036,0.1046 -0.0613078,0.0540892 0.010797,0.068506 -0.1046,0.0937616 -0.115398,0.025257 -0.104602,0.00724 -0.158691,0.032476 -0.0540892,0.025234 -0.120392,0.055006 -0.120392,0.055006 L 0.5543859,1.0593193 z"
   inkscape:connector-curvature="0"
   style="fill:url(#id3)" />
     <path
   id="_354773392"
   class="fil6"
   d="M 0.769,1.21476 C 0.8598161,1.20139 0.8382026,1.172536 0.971637,1.14368 1.105072,1.114826 1.188016,1.122067 1.22409,1.067955 1.260164,1.013844 1.209216,1.010246 1.28902,1.010246 c 0.079802,0 0.151471,-0.0396943 0.198362,-0.054111 0.046892,-0.0144168 0.082553,-0.0289633 0.082553,-0.0289633 0,0 -0.170055,0.209246 -0.201112,0.229376 -0.031058,0.020131 -0.115876,0.00155 -0.177186,0.00517 -0.061308,0.00362 -0.176727,0.039694 -0.198362,0.043294 -0.0216368,0.0036 -0.109793,0.046935 -0.109793,0.046935 l -0.11448,-0.037186 z"
   inkscape:connector-curvature="0"
   style="fill:url(#id6)" />
     <path
   id="_354773296"
   class="fil7"
   d="M 0.538837,0.339386 C 0.6109632,0.245623 0.639817,0.234806 0.72998,0.195134 0.8201432,0.1554616 0.877853,0.1157878 0.964417,0.1193876 c 0.0865648,0.003598 0.204078,0.041089 0.265843,0.041089 0.022683,0 0.041964,-0.0129987 0.064645,-0.0493992 0.015966,-0.0255835 0.122311,0.0506001 0.122311,0.0506001 0,0 -0.096859,-0.097666 -0.24497,-0.126935 C 1.024133,0.0054732 0.985441,0.0113189 0.934843,0.0201727 0.8842429,0.029028 0.768518,0.0611101 0.72082,0.0899656 0.6731216,0.118821 0.445554,0.2848826 0.420058,0.4627226 0.3945619,0.6405626 0.538836,0.3393876 0.538836,0.3393876 z"
   inkscape:connector-curvature="0"
   style="fill:url(#linearGradient11052)" />
     <path
   id="_354773224"
   class="fil8"
   d="M 0.67467,0.122003 C 0.6862958,0.113911 0.810395,0.0511856 0.913557,0.0415681 1.016719,0.0319491 1.059554,0.0297688 1.094122,0.0367484 1.128692,0.0437265 1.16734,0.0177947 1.202018,0.060172 1.236696,0.1025494 1.227688,0.0935411 1.21506,0.1205864 1.202432,0.1476303 1.179923,0.1428106 1.22047,0.157532 c 0.040545,0.0147228 0.093762,0 0.093762,0 0,0 -0.00179,-0.0450809 0.030666,0 0.032454,0.0450823 -0.027045,0.0342639 0.046891,0.0595195 0.073936,0.0252571 0.046892,-0.0108388 0.046892,0.0613092 0,0.072148 0.089552,0.0618966 0.084449,0.0913627 C 1.51803,0.399188 1.44409,0.3396904 1.489172,0.4316637 1.534253,0.523637 1.496392,0.4749563 1.534253,0.523637 1.572115,0.5723177 1.59194,0.53295 1.615408,0.5867549 1.636673,0.635523 1.637677,0.6726435 1.637656,0.6791873 c 7.841e-4,-0.0127816 0.00122,-0.0256491 0.00122,-0.038626 0,-0.345603 -0.278559,-0.625754 -0.622156,-0.625754 -0.0665865,0 -0.13073,0.0105561 -0.190861,0.030033 -0.0548747,0.019716 -0.106106,0.0458664 -0.151188,0.077163 z"
   inkscape:connector-curvature="0"
   style="fill:#ee0cd0;fill-opacity:0.50196078" />
     <path
   id="_354772888"
   class="fil4"
   d="M 0.437855,0.731596 C 0.5172012,0.580125 0.4125994,0.486363 0.657854,0.489962 0.90311,0.49356037 0.870656,0.4286324 1.047384,0.4142156 1.224111,0.3997988 1.29266,0.40701887 1.415276,0.3889819 1.537893,0.3709449 1.5522,0.3096138 1.575494,0.3686116 1.588602,0.401762 1.6016007,0.435306 1.6060065,0.450399 c 0.00342,0.0117337 0.0055,0.007372 -0.025955,0.0156381 -0.071886,0.0189304 -0.060653,0.0275233 -0.139541,0.0275233 -0.078887,0 0.00722,-0.003598 -0.147873,-0.003598 -0.155093,0 -0.178516,-0.009051 -0.230817,0.0649076 -0.052301,0.0739582 -2.19e-5,0.101002 -0.230838,0.101002 -0.230817,0 -0.187523,-0.0685264 -0.259671,0.0288554 -0.072148,0.0973818 -0.129901,0.199607 -0.129901,0.199607 0,0 -0.0367503,-0.108397 -0.003556,-0.152737 z"
   inkscape:connector-curvature="0"
   style="fill:#9b0089" />
     <path
   id="_354772168"
   class="fil9"
   d="M 0.445053,0.74333 C 0.5243978,0.591859 0.4197974,0.498097 0.665052,0.501696 0.910306,0.50529582 0.877853,0.4403664 1.054581,0.4259496 1.231309,0.4115328 1.299857,0.41875287 1.422474,0.4007159 1.545091,0.3826789 1.559398,0.3213493 1.582691,0.3803456 1.595799,0.413496 1.6087977,0.44704 1.6132035,0.462133 c 0.00342,0.0117337 0.0055,0.007372 -0.025954,0.0156381 -0.071887,0.0189304 -0.060655,0.0275248 -0.139542,0.0275248 -0.078887,0 0.00722,-0.0036 -0.147873,-0.0036 -0.155091,0 -0.178515,-0.009051 -0.230816,0.0649076 -0.052301,0.0739582 -2.19e-5,0.101002 -0.230839,0.101002 -0.230816,0 -0.187523,-0.0685264 -0.259671,0.0288554 -0.072148,0.0973818 -0.129901,0.199607 -0.129901,0.199607 0,0 -0.0367503,-0.108397 -0.003555,-0.152737 z"
   inkscape:connector-curvature="0"
   style="fill:url(#linearGradient11054)" />
    </g>
    <g
   id="g10991">
     <g
   id="g10993">
      <path
   id="_354771256"
   class="fil10"
   d="M 0.998731,0.0250239 C 0.9885101,0.0304091 0.9861783,0.0325442 0.9801766,0.0338355 0.9741746,0.0351282 0.9763146,0.0364574 0.9954737,0.0481517 1.0146329,0.059846 1.019011,0.0721452 1.0544831,0.0800415 c 0.035472,0.0078948 0.087413,0.0151411 0.103646,0.0190587 0.016233,0.003919 0.016182,0.0011135 0.031744,0.0029527 0.015561,0.001838 0.031571,0.003734 0.029959,-0.0074051 -0.00161,-0.0111376 -0.00753,-0.0155885 -0.00753,-0.0155885 0,0 -0.152004,-0.0115369 -0.186539,-0.0391331 C 0.9912281,0.01233 0.9987309,0.0250241 0.9987309,0.0250241 z"
   inkscape:connector-curvature="0"
   style="fill:#740066" />
      <g
   id="g10996">
       <path
   id="_354771424"
   class="fil11"
   d="M 1.03426,0 C 1.009152,0.00724774 1.016532,0.0193895 1.02723,0.027895 1.037932,0.0364005 1.068794,0.0552843 1.102462,0.0609099 1.13613,0.0665341 1.143197,0.0629663 1.168549,0.0621895 1.193899,0.06141415 1.233611,0.0858288 1.216587,0.06267482 1.199563,0.03952082 1.221687,0.04497012 1.176062,0.02816902 1.1304408,0.01136793 1.1280536,0.00926193 1.116486,0.00843853 1.1049185,0.00761509 1.082894,0.00475563 1.0655172,0.00287265 1.0481404,9.8967e-4 1.0342599,8e-8 1.0342599,8e-8 z"
   inkscape:connector-curvature="0"
   style="fill:#ee0cd0" />
       <path
   id="_354757024"
   class="fil12"
   d="m 1.02395,0.0192102 c 0.00168,0.0020112 0.00376,0.0039423 0.00599,0.0057145 0.010702,0.0085069 0.040375,0.0306233 0.074044,0.0362489 0.033668,0.0056242 0.048802,0.0092838 0.074153,0.0085069 0.019391,-5.9317e-4 0.043153,0.0074299 0.04564,8.7591e-4 l -6.471e-4,-8.9777e-4 c -0.0066,-0.0089792 -0.00731,-0.013656 -0.00838,-0.0169979 -6.442e-4,-0.0011849 -0.00117,-0.0022648 -0.00159,-0.00325 -0.00259,-0.0033608 -0.00904,-0.0063354 -0.030556,-0.0142579 C 1.1369845,0.01835179 1.1345987,0.01624579 1.1230311,0.01542239 1.1114636,0.01459895 1.0894376,0.01173949 1.0720608,0.00985651 1.054684,0.00797353 1.0408035,0.00698394 1.0408035,0.00698394 1.0292972,0.0103054 1.0246174,0.01465433 1.0239499,0.01921024 z"
   inkscape:connector-curvature="0"
   style="fill:#cc09b1" />
       <path
   id="_350270144"
   class="fil13"
   d="M 1.07798,0.0536403 C 1.102038,0.0567694 1.105458,0.0580519 1.11876,0.0589992 1.128982,0.05972645 1.1886,0.0704399 1.211864,0.0673079 1.215534,0.06681383 1.213934,0.0575053 1.206804,0.0486981 1.200344,0.0407217 1.188372,0.033127 1.189688,0.033315 1.195608,0.03416468 1.202487,0.0386666 1.207321,0.0429325 1.215611,0.0502487 1.219132,0.060643 1.220288,0.0610963 1.234953,0.0822799 1.202965,0.0689212 1.178141,0.0696805 1.152789,0.0704573 1.137655,0.0667977 1.103988,0.0611736 1.094928,0.0596593 1.086168,0.0569529 1.077982,0.0536402 z"
   inkscape:connector-curvature="0"
   style="fill:#990487" />
       <path
   id="_346202168"
   class="fil14"
   d="M 1.01545,0.0083204 C 0.9960692,0.0156585 1.004021,0.029297 1.01436,0.0375125 1.024695,0.0457265 1.052785,0.0690685 1.086453,0.0746927 1.120122,0.0803169 1.139251,0.0793462 1.160483,0.0821722 1.181715,0.0849981 1.225864,0.0922502 1.224571,0.0734102 1.206234,0.0786365 1.189794,0.0704677 1.17305,0.0697798 1.156306,0.06909044 1.130316,0.0727369 1.096648,0.0671127 1.062979,0.0614871 1.031608,0.0380197 1.022604,0.0308638 1.013604,0.0237079 1.010382,0.0148016 1.015454,0.0083205 z"
   inkscape:connector-curvature="0"
   style="fill:#840076" />
      </g>
     </g>
     <path
   id="_354760336"
   class="fil15"
   d="m 1.01732,0.0132013 c 0,0 0.0024,-0.00512866 0.00967,-0.0091657 C 1.034261,0 1.043587,-7.1121e-4 1.0510082,0.00173579 c 0.00742,0.00244846 0.020064,0.00303289 0.025598,0.00386507 0.00553,8.3364e-4 0.039993,0.00246741 0.044214,0.00327773 0.00422,8.1033e-4 0.012206,0.00326753 0.012206,0.00326753 0,0 -0.087433,-0.00932602 -0.09801,-0.00472495 C 1.0244395,0.01202078 1.01732,0.01320129 1.01732,0.01320129 z"
   inkscape:connector-curvature="0"
   style="fill:#ff37d4" />
    </g>
    <g
   id="g11003">
     <path
   id="_354770872"
   class="fil10"
   d="M 1.50754,0.325749 C 1.4730881,0.2959914 1.4247747,0.2740762 1.384248,0.2808416 1.343723,0.2876066 1.274585,0.2873566 1.336665,0.3261032 1.398747,0.3648487 1.38788,0.3667798 1.433301,0.3699176 1.47872,0.3730556 1.50754,0.3257491 1.50754,0.3257491 z"
   inkscape:connector-curvature="0"
   style="fill:#740066" />
     <path
   id="_359655320"
   class="fil15"
   d="M 1.44541,0.311302 C 1.4233432,0.2922433 1.3923993,0.2782069 1.3664442,0.2825398 c -0.025955,0.004334 -0.070237,0.004173 -0.030476,0.0289895 0.039761,0.0248155 0.032802,0.0260514 0.061892,0.0280611 0.02909,0.00201 0.04755,-0.0282885 0.04755,-0.0282885 z"
   inkscape:connector-curvature="0"
   style="fill:#ff37d4" />
     <path
   id="_357150912"
   class="fil12"
   d="M 1.48841,0.314058 C 1.4612918,0.2906344 1.4232634,0.2733858 1.3913663,0.2787112 c -0.031899,0.005325 -0.086318,0.005127 -0.037454,0.0356251 0.048866,0.0304979 0.040312,0.0320166 0.076063,0.0344869 0.035749,0.002469 0.058435,-0.0347653 0.058435,-0.0347653 z"
   inkscape:connector-curvature="0"
   style="fill:#cc09b1" />
    </g>
    <g
   id="g11008">
     <path
   id="_359670104"
   class="fil10"
   d="m 0.552895,0.224047 c -3.2209e-4,0.003168 -1.8801e-4,0.00403 -8.0741e-4,0.005604 -6.194e-4,0.001575 1.166e-5,0.001287 0.00562,-0.001326 0.005608,-0.002615 0.0091,-0.001743 0.016326,-0.00868 0.007224,-0.006939 0.0168128,-0.0177572 0.0201896,-0.0208848 0.003377,-0.003129 0.002725,-0.003546 0.005521,-0.006837 0.002797,-0.003292 0.005675,-0.006678 0.002873,-0.008007 -0.002804,-0.001329 -0.004728,-6.5147e-4 -0.004728,-6.5147e-4 0,0 -0.0258415,0.0331344 -0.0374469,0.0368523 -0.011604,0.003716 -0.007547,0.003931 -0.007547,0.003931 z"
   inkscape:connector-curvature="0"
   style="fill:#740066" />
     <g
   id="g11011">
      <path
   id="_360316088"
   class="fil11"
   d="M 0.552573,0.212073 C 0.550406,0.218942 0.554319,0.219101 0.557904,0.217942 0.561491,0.216783 0.570534,0.21258 0.5769627,0.2057084 c 0.006429,-0.00687 0.006688,-0.009037 0.0103783,-0.014975 0.00369,-0.005938 0.0153539,-0.0113285 0.00744,-0.010954 -0.007912,3.7601e-4 -0.003285,-0.003872 -0.0141034,0.004039 -0.0108199,0.007909 -0.0116666,0.008137 -0.013621,0.0106654 -0.001954,0.00253 -0.005971,0.00715 -0.009055,0.0108519 -0.003084,0.003702 -0.005429,0.006738 -0.005429,0.006738 z"
   inkscape:connector-curvature="0"
   style="fill:#ee0cd0" />
      <path
   id="_347418504"
   class="fil12"
   d="m 0.555409,0.217371 c 7.1851e-4,-7.724e-5 0.001479,-2.6233e-4 0.002227,-5.0281e-4 0.003585,-0.001159 0.0131911,-0.004597 0.0196183,-0.011467 0.006429,-0.00687 0.009578,-0.009787 0.0132683,-0.0157241 0.002823,-0.004543 0.00829,-0.008774 0.007165,-0.0103448 l -3.046e-4,1.166e-5 c -0.003068,1.4574e-4 -0.00425,-4.037e-4 -0.00518,-6.7041e-4 -3.7018e-4,-3.352e-5 -6.981e-4,-7.87e-5 -9.8959e-4,-1.3117e-4 -0.001166,8.307e-5 -0.002833,0.001109 -0.007934,0.004839 -0.0108199,0.007911 -0.0116666,0.008137 -0.013621,0.0106668 -0.001954,0.00253 -0.005971,0.00715 -0.009055,0.0108519 -0.003084,0.003702 -0.005429,0.006738 -0.005429,0.006738 -9.925e-4,0.003148 -7.083e-4,0.004885 2.3465e-4,0.005733 z"
   inkscape:connector-curvature="0"
   style="fill:#cc09b1" />
      <path
   id="_357148776"
   class="fil13"
   d="M 0.571557,0.210221 C 0.575947,0.205177 0.576763,0.204587 0.57901,0.201678 0.580737,0.199442 0.5922929,0.1873924 0.5951232,0.1815729 c 4.4743e-4,-9.1817e-4 -0.001934,-0.00197 -0.005044,-0.001677 -0.002816,2.6525e-4 -0.006386,0.001855 -0.006143,0.001581 0.001099,-0.00123 0.003182,-0.002121 0.004898,-0.00258 0.002944,-7.8701e-4 0.005868,-8.74e-6 0.006149,-2.055e-4 0.007101,-1.3408e-4 -8.4822e-4,0.005171 -0.004461,0.010986 -0.00369,0.005938 -0.00684,0.008854 -0.0132683,0.0157241 -0.001729,0.001848 -0.003687,0.003447 -0.005697,0.00482 z"
   inkscape:connector-curvature="0"
   style="fill:#990487" />
      <path
   id="_353066288"
   class="fil14"
   d="M 0.551612,0.21766 C 0.55034,0.223229 0.554684,0.223485 0.558147,0.222366 0.56161,0.221247 0.5712536,0.21836 0.5776822,0.2114893 0.5841112,0.2046193 0.5868072,0.2000792 0.5906955,0.195637 0.5945835,0.191193 0.6029859,0.1821646 0.5984635,0.1795879 0.5968645,0.1845939 0.5924805,0.1871209 0.5897685,0.190861 0.5870545,0.194599 0.5839255,0.2011212 0.577497,0.207993 0.57107,0.214863 0.5608955,0.218485 0.5578787,0.21946 c -0.003017,9.7501e-4 -0.005553,3.5415e-4 -0.006267,-0.0018 z"
   inkscape:connector-curvature="0"
   style="fill:#840076" />
     </g>
    </g>
    <g
   id="g11017">
     <path
   id="_353049224"
   class="fil10"
   d="M 1.31736,0.0900451 C 1.3051643,0.079779 1.2870151,0.0702475 1.2704632,0.0684228 1.2539112,0.0665981 1.2262942,0.0605906 1.2490582,0.0754388 c 0.022762,0.0148467 0.018318,0.0143862 0.036303,0.0190616 0.017985,0.0046754 0.031999,-0.0044553 0.031999,-0.0044553 z"
   inkscape:connector-curvature="0"
   style="fill:#740066" />
     <path
   id="_353048456"
   class="fil15"
   d="M 1.2933,0.0811563 C 1.28549,0.0745819 1.273864,0.0684768 1.263264,0.0673079 1.252663,0.0661391 1.234976,0.0622929 1.249554,0.0718011 1.264133,0.0813108 1.261286,0.0810149 1.272806,0.0840099 1.284324,0.0870049 1.2933,0.0811563 1.2933,0.0811563 z"
   inkscape:connector-curvature="0"
   style="fill:#ff37d4" />
     <path
   id="_356688912"
   class="fil12"
   d="M 1.31034,0.0855315 C 1.30074,0.0774516 1.286454,0.0699473 1.273426,0.0685118 1.260398,0.0670762 1.238661,0.0623484 1.256578,0.074034 1.274494,0.0857196 1.270996,0.0853567 1.285152,0.0890381 1.299308,0.0927181 1.310339,0.0855316 1.310339,0.0855316 z"
   inkscape:connector-curvature="0"
   style="fill:#cc09b1" />
    </g>
    <g
   id="g11022">
     <path
   id="_353048840"
   class="fil16"
   d="M 0.730817,0.219611 C 0.7157109,0.2472364 0.727265,0.2621764 0.739483,0.269137 0.751702,0.276098 0.7841237,0.2870501 0.8120289,0.274799 0.8399326,0.2625479 0.8434232,0.2523023 0.8619367,0.2349794 0.8804503,0.2176565 0.9222257,0.2319374 0.8979932,0.2053151 0.8737592,0.1786924 0.8929692,0.1734734 0.8505805,0.1752442 0.80819,0.1770152 0.8053612,0.17512615 0.7963266,0.1811262 0.7872916,0.1871282 0.7694445,0.1964684 0.7555509,0.2044391 0.7416573,0.2124101 0.7308171,0.2196108 0.7308171,0.2196108 z"
   inkscape:connector-curvature="0"
   style="fill:#cb05b1" />
     <path
   id="_353048648"
   class="fil17"
   d="M 0.724554,0.239723 C 0.7141276,0.263049 0.726425,0.2794741 0.7378282,0.2859698 0.7492296,0.2924668 0.7807069,0.3117049 0.8076692,0.2998663 0.8346314,0.2880291 0.847945,0.2747972 0.8646003,0.2662058 0.8812557,0.25761578 0.9165529,0.241899 0.9065477,0.2132767 0.8958546,0.2326662 0.8800766,0.2299802 0.8676842,0.2391605 0.8552903,0.24834078 0.8383245,0.2699499 0.8113608,0.2817885 0.7843986,0.2936257 0.7504961,0.27620076 0.7405638,0.2705431 0.73063004,0.26488394 0.7240236,0.2529477 0.7245541,0.2397231 z"
   inkscape:connector-curvature="0"
   style="fill:#750068" />
     <path
   id="_346808112"
   class="fil18"
   d="M 0.732704,0.257188 C 0.734957,0.259374 0.737474,0.261173 0.74002,0.262624 0.7522375,0.269585 0.7853865,0.286514 0.8132903,0.2742629 0.8411955,0.2620104 0.8543021,0.2583304 0.8728156,0.241009 0.8869773,0.2277582 0.9086914,0.2256609 0.9072792,0.2134944 l -9.2838e-4,-0.001041 c -0.009399,-0.0103258 -0.0122613,-0.0174278 -0.0147199,-0.0221557 -0.00107,-0.001507 -0.001998,-0.002922 -0.002806,-0.004245 -0.003609,-0.003785 -0.0099,-0.004505 -0.0298873,-0.00367 -0.0423905,0.001771 -0.0452193,-1.1805e-4 -0.0542539,0.005882 -0.009035,0.006002 -0.0268821,0.0153422 -0.0407757,0.0233129 -0.0138936,0.007971 -0.0247338,0.0151717 -0.0247338,0.0151717 -0.006924,0.0126606 -0.008245,0.0226527 -0.006471,0.0304382 z"
   inkscape:connector-curvature="0"
   style="fill:#8c007f" />
     <path
   id="_356455808"
   class="fil19"
   d="M 0.790148,0.278575 C 0.8096439,0.2683804 0.8128327,0.2682856 0.8232212,0.2613847 0.8312062,0.2560827 0.8809933,0.2356059 0.8967771,0.2157981 0.8992691,0.2126701 0.8934341,0.1986457 0.8837259,0.1889335 0.8749359,0.1801395 0.8622231,0.1754568 0.8632973,0.1749263 c 0.004842,-0.002381 0.0122103,5.3487e-4 0.0179408,0.004365 0.009826,0.00657 0.0176333,0.0211311 0.018722,0.0211311 C 0.9214512,0.2253574 0.8909441,0.2240442 0.8728157,0.2410086 0.8543021,0.25833 0.8411955,0.26201 0.8132904,0.2742625 0.8057844,0.2775575 0.7979015,0.2787395 0.7901481,0.2785745 z"
   inkscape:connector-curvature="0"
   style="fill:#870176" />
    </g>
    <g
   id="g11028">
     <path
   id="_356677632"
   class="fil20"
   d="M 0.955927,1.23403 C 0.9661479,1.22864 0.9684812,1.22651 0.9744829,1.22522 0.9804829,1.22393 0.9783449,1.2226 0.9591858,1.210905 0.9400251,1.1992079 0.935647,1.1869073 0.9001749,1.179011 0.8647028,1.1711161 0.8127633,1.1638699 0.7965309,1.1599523 c -0.0162327,-0.00392 -0.0161832,-0.00111 -0.031744,-0.00295 -0.0155623,-0.00184 -0.0315706,-0.00373 -0.0299587,0.00741 0.001612,0.011139 0.007528,0.015589 0.007528,0.015589 0,0 0.152006,0.011537 0.186539,0.039133 0.034535,0.027596 0.0270322,0.014904 0.0270322,0.014904 z"
   inkscape:connector-curvature="0"
   style="fill:#451a40" />
     <g
   id="g11031">
      <path
   id="_353047256"
   class="fil21"
   d="M 0.920396,1.25905 C 0.9455029,1.2518 0.9381226,1.239662 0.927421,1.231155 0.9167192,1.222645 0.8858583,1.203766 0.8521905,1.19814 0.8185212,1.19252 0.8114542,1.19608 0.7861039,1.19686 0.7607521,1.1976353 0.7210418,1.173221 0.7380659,1.1963747 c 0.0170241,0.023154 -0.005101,0.017705 0.0405235,0.034506 0.0456259,0.016801 0.0480117,0.018907 0.0595793,0.019731 0.0115675,8.234e-4 0.0335935,0.00368 0.0509703,0.00557 0.0173768,0.00188 0.0312573,0.00287 0.0312573,0.00287 z"
   inkscape:connector-curvature="0"
   style="fill:#7b0071" />
      <path
   id="_357909488"
   class="fil22"
   d="M 0.876678,1.20541 C 0.8526189,1.20228 0.8491984,1.201 0.835898,1.20005 0.8256742,1.1993227 0.7660585,1.188609 0.7427937,1.19174 c -0.003674,4.956e-4 -0.002071,0.0098 0.005062,0.018611 0.006456,0.00797 0.0184305,0.015571 0.0171159,0.015382 C 0.7590456,1.2248834 0.7521726,1.220383 0.7473383,1.216113 0.7390513,1.208793 0.7355274,1.198403 0.7343702,1.197949 0.7197071,1.176765 0.7516945,1.190129 0.7765187,1.189369 c 0.0253503,-7.753e-4 0.0404856,0.00288 0.0741535,0.00851 0.009056,0.00151 0.0178199,0.00422 0.0260062,0.00753 z"
   inkscape:connector-curvature="0"
   style="fill:#750266" />
      <path
   id="_345994016"
   class="fil23"
   d="M 0.939206,1.25073 C 0.9585868,1.24339 0.9506336,1.229753 0.940299,1.221538 0.929963,1.213328 0.9018742,1.189983 0.8682049,1.184358 0.8345371,1.178738 0.815407,1.179708 0.7941753,1.176878 0.7729451,1.174048 0.7287955,1.1668 0.7300882,1.185638 c 0.0183372,-0.00523 0.0347769,0.00294 0.0515212,0.00363 0.0167428,6.879e-4 0.0427344,-0.00296 0.0764022,0.00267 0.0336678,0.00562 0.0650402,0.029092 0.0740441,0.036247 0.009004,0.00716 0.0122205,0.016062 0.00715,0.022543 z"
   inkscape:connector-curvature="0"
   style="fill:#570f4d" />
     </g>
    </g>
    <g
   id="g11036">
     <path
   id="_345992528"
   class="fil17"
   d="M 1.49387,0.978081 C 1.5058689,0.9512383 1.4917174,0.9323385 1.4785963,0.9248634 1.4654766,0.9173883 1.4292554,0.8952501 1.3982299,0.9088726 1.3672029,0.9224951 1.351884,0.9377207 1.3327189,0.9476064 c -0.019166,0.009886 -0.059783,0.0279708 -0.04827,0.060907 0.012305,-0.0223131 0.03046,-0.0192204 0.044721,-0.0297853 0.014261,-0.0105634 0.033784,-0.0354298 0.064811,-0.0490523 0.031025,-0.0136225 0.070038,0.00643 0.081467,0.0129404 0.01143,0.006512 0.019032,0.0202465 0.018422,0.0354648 z"
   inkscape:connector-curvature="0"
   style="fill:#750068" />
     <path
   id="_345995240"
   class="fil24"
   d="M 1.48449,0.957984 C 1.4819,0.955467 1.479,0.953399 1.47607,0.951729 1.462009,0.943719 1.423865,0.9242377 1.391755,0.9383353 1.359645,0.9524344 1.344562,0.9566682 1.323259,0.9766013 1.306964,0.9918488 1.281976,0.9942623 1.283601,1.0082623 l 0.00107,0.0012 c 0.010814,0.011882 0.014109,0.020056 0.016937,0.025496 0.00123,0.00173 0.0023,0.00336 0.00323,0.00488 0.00415,0.00436 0.011391,0.00518 0.034392,0.00422 0.048778,-0.00204 0.052033,1.37e-4 0.06243,-0.00677 0.010396,-0.00691 0.030932,-0.017654 0.046919,-0.026827 0.015988,-0.00917 0.028463,-0.0174584 0.028463,-0.0174584 0.00797,-0.0145684 0.00949,-0.0260659 0.00745,-0.0350247 z"
   inkscape:connector-curvature="0"
   style="fill:#710263" />
     <path
   id="_345994520"
   class="fil19"
   d="M 1.41839,0.933375 C 1.395956,0.9451043 1.392285,0.9452136 1.380331,0.9531536 1.371141,0.9592576 1.313852,0.9828194 1.29569,1.0056119 c -0.00287,0.0036 0.00385,0.019736 0.015019,0.030912 0.010115,0.01012 0.024744,0.01551 0.023507,0.016119 -0.00557,0.00274 -0.01405,-6.15e-4 -0.020644,-0.00502 C 1.302265,1.0400629 1.29328,1.0233069 1.292028,1.0233069 1.267297,0.9946147 1.302402,0.9961246 1.323263,0.9766039 1.344566,0.9566708 1.359649,0.952437 1.391759,0.9383379 1.400399,0.9345469 1.409467,0.9331859 1.41839,0.9333769 z"
   inkscape:connector-curvature="0"
   style="fill:#870176" />
    </g>
   </g>
   <path
   class="fil25"
   d="M 1.95134,0.347208 C 1.809683,0.796482 0.38198,1.238605 0.06181,0.962272 0.209667,1.394401 2.03974,0.819427 1.95134,0.347208 z"
   id="path11041"
   inkscape:connector-curvature="0"
   style="fill:url(#id5)" />
   <g
   id="g11043">
    <path
   class="fil26"
   d="M 2.02614,0.334093 C 1.874813,0.814035 0.34966,1.286337 0.00763,0.991141 0.165579,1.452767 2.12058,0.838546 2.02614,0.334093 z"
   id="path11045"
   inkscape:connector-curvature="0"
   style="fill:url(#id4)" />
    <path
   id="1"
   class="fil2"
   d="m 0.00683384,0.991527 0.00126212,-0.001268 0.0353293,0.0253604 0.0418148,0.021039 0.047831,0.016842 0.053375,0.012776 0.0584469,0.00885 0.0630465,0.00505 0.0671782,0.00139 0.0708378,-0.00213 0.0740281,-0.00552 0.076752,-0.00876 0.0790037,-0.011863 0.0807862,-0.014832 0.0821022,-0.01766 0.0829504,-0.020346 0.0833294,-0.022896 0.083237,-0.0253052 0.082679,-0.0275744 0.081652,-0.0297066 0.080157,-0.0316989 0.078192,-0.0335512 0.075759,-0.0352637 0.072859,-0.0368377 0.069488,-0.0382718 0.065651,-0.039566 0.061343,-0.0407188 0.056567,-0.0417346 0.05132,-0.0426047 0.045605,-0.0433363 0.039422,-0.0439208 0.032769,-0.0443609 0.025651,-0.0446495 0.01807,-0.0447923 0.00161,8.7445e-4 -0.018196,0.0451071 -0.025782,0.0448797 -0.032888,0.0445241 -0.039527,0.0440374 -0.045696,0.0434209 -0.051399,0.0426718 -0.056634,0.0417842 -0.061404,0.0407596 -0.065703,0.0395981 -0.069538,0.038298 -0.072903,0.036861 -0.0758,0.0352841 -0.078233,0.0335658 -0.080194,0.0317134 -0.081687,0.0297211 -0.082717,0.027586 -0.083273,0.0253168 -0.0833643,0.0229049 -0.0829883,0.020357 -0.082143,0.017665 -0.0808299,0.014841 -0.0790504,0.011872 -0.0768016,0.00876 -0.0740864,0.00552 -0.070902,0.00214 -0.067254,-0.00139 -0.0631368,-0.00506 -0.0585547,-0.00886 -0.0535091,-0.012808 -0.0479942,-0.016903 -0.0420217,-0.021144 -0.035577,-0.0255383 0.00126212,-0.001268 -0.00158567,7.7243e-4 z m 2.01849996,-0.657871 0.00165,2.3756e-4 0.00299,0.0479024 -0.00838,0.0482814 -0.019013,0.0484111 -0.028909,0.0483367 -0.038093,0.0480657 -0.046567,0.0475964 -0.054341,0.0469187 -0.061413,0.0460326 -0.067779,0.0449308 -0.073447,0.0436147 -0.078408,0.0420844 -0.082665,0.0403355 -0.086221,0.0383738 -0.08907,0.0361921 -0.091218,0.0337946 L 1.1117868,1.025946 1.0183848,1.054296 0.9249468,1.079598 0.8321777,1.101637 0.7407815,1.120191 0.6514607,1.135048 0.5649192,1.145986 0.481858,1.152796 0.4029854,1.155256 0.3289966,1.153136 0.2605999,1.146236 0.198492,1.134323 0.1433695,1.117176 0.0959349,1.094566 0.0568848,1.066251 0.0269378,1.031983 0.0068429,0.99153526 l 0.00158567,-7.7243e-4 0.0198151,0.0398764 0.0296147,0.033881 0.0387528,0.028096 0.0472014,0.022497 0.0549388,0.017088 0.061968,0.011884 0.0682859,0.00689 0.0738955,0.00211 0.0787997,-0.00245 0.0829942,-0.0068 0.0864861,-0.010932 0.0892713,-0.014848 0.0913495,-0.018546 0.0927253,-0.022027 0.0933971,-0.025291 0.093361,-0.028338 0.092622,-0.0311669 0.091178,-0.03378 0.089029,-0.0361746 0.086174,-0.0383534 0.082618,-0.0403122 0.078352,-0.0420553 0.073385,-0.0435797 0.067712,-0.0448841 0.061331,-0.0459714 0.054245,-0.0468371 0.046454,-0.0474769 0.037956,-0.0478937 0.028755,-0.0480744 0.018862,-0.0480147 0.00829,-0.0477275 -0.00295,-0.0472524 0.00165,2.3756e-4 -0.00161,-8.7445e-4 z"
   inkscape:connector-curvature="0"
   style="fill:#e8aad8;fill-rule:nonzero" />
   </g>
  </g>
 </g>
</svg>
