<?xml version="1.0" encoding="UTF-8" standalone="no"?>
<!-- Creator: CorelDRAW -->

<svg
   xmlns:dc="http://purl.org/dc/elements/1.1/"
   xmlns:cc="http://creativecommons.org/ns#"
   xmlns:rdf="http://www.w3.org/1999/02/22-rdf-syntax-ns#"
   xmlns:svg="http://www.w3.org/2000/svg"
   xmlns="http://www.w3.org/2000/svg"
   xmlns:xlink="http://www.w3.org/1999/xlink"
   xmlns:sodipodi="http://sodipodi.sourceforge.net/DTD/sodipodi-0.dtd"
   xmlns:inkscape="http://www.inkscape.org/namespaces/inkscape"
   xml:space="preserve"
   width="3.24735in"
   height="3.4207699in"
   style="fill-rule:evenodd"
   viewBox=""
   id="svg6997"
   version="1.1"
   inkscape:version="0.48.3.1 r9886"
   sodipodi:docname="player10.svg">  
   <metadata
     id="metadata3960">
    <rdf:RDF>
      <cc:Work
         rdf:about="">
        <dc:format>image/svg+xml</dc:format>
        <dc:type
           rdf:resource="http://purl.org/dc/dcmitype/StillImage" />
        <dc:title></dc:title>
        <cc:license
           rdf:resource="http://www.gnu.org/licenses/gpl-3.0.html" />
        <dc:creator>
          <cc:Agent>
            <dc:title>Abhash Bikram Thapa</dc:title>
          </cc:Agent>
        </dc:creator>
        <dc:description>http://pixelpinch.com</dc:description>
      </cc:Work>
    </rdf:RDF>
  </metadata>
   pagecolor="#ffffff"
   bordercolor="#666666"
   borderopacity="1"
   objecttolerance="10"
   gridtolerance="10"
   guidetolerance="10"
   inkscape:pageopacity="0"
   inkscape:pageshadow="2"
   inkscape:window-width="640"
   inkscape:window-height="480"
   id="namedview7333"
   showgrid="false"
   inkscape:zoom="0.9731707"
   inkscape:cx="146.13075"
   inkscape:cy="153.93465"
   inkscape:window-x="0"
   inkscape:window-y="0"
   inkscape:window-maximized="0"
   inkscape:current-layer="svg6997" />
 <defs
   id="defs6999">
  <style
   type="text/css"
   id="style7001">
   
    .str0 {stroke:gray;stroke-width:0.000518078}
    .str1 {stroke:#99CCCC;stroke-width:0.000518078}
    .str4 {stroke:white;stroke-width:0.000518078}
    .str3 {stroke:black;stroke-width:0.00119933}
    .str2 {stroke:#95D11E;stroke-width:0.00119933}
    .fil45 {fill:none}
    .fil5 {fill:#003333}
    .fil69 {fill:#336666}
    .fil43 {fill:#3C682D}
    .fil49 {fill:#528C36}
    .fil48 {fill:#61A53E}
    .fil12 {fill:#669999}
    .fil64 {fill:#72155B}
    .fil24 {fill:#74E9F0}
    .fil54 {fill:#7C2772}
    .fil21 {fill:#7DC05C}
    .fil63 {fill:#912783}
    .fil70 {fill:#99CCCC}
    .fil22 {fill:#AADA94}
    .fil17 {fill:#B648B8}
    .fil36 {fill:#C1FFFF}
    .fil4 {fill:#CC3300}
    .fil19 {fill:#CCCCFF}
    .fil68 {fill:#D0E8E8}
    .fil56 {fill:#D273D9}
    .fil25 {fill:#DDF6A2}
    .fil67 {fill:#E6E6E6}
    .fil50 {fill:#EEC8F0}
    .fil3 {fill:#FFCC00}
    .fil2 {fill:#FFFF66}
    .fil6 {fill:white}
    .fil46 {fill:#224827;fill-rule:nonzero}
    .fil65 {fill:#2E0823;fill-rule:nonzero}
    .fil66 {fill:url(#id0)}
    .fil13 {fill:url(#id1)}
    .fil9 {fill:url(#id2)}
    .fil53 {fill:url(#id3)}
    .fil8 {fill:url(#id4)}
    .fil31 {fill:url(#id5)}
    .fil15 {fill:url(#id6)}
    .fil62 {fill:url(#id7)}
    .fil42 {fill:url(#id8)}
    .fil41 {fill:url(#id9)}
    .fil61 {fill:url(#id10)}
    .fil30 {fill:url(#id11)}
    .fil55 {fill:url(#id12)}
    .fil39 {fill:url(#id13)}
    .fil28 {fill:url(#id14)}
    .fil40 {fill:url(#id15)}
    .fil57 {fill:url(#id16)}
    .fil47 {fill:url(#id17)}
    .fil16 {fill:url(#id18)}
    .fil23 {fill:url(#id19)}
    .fil38 {fill:url(#id20)}
    .fil20 {fill:url(#id21)}
    .fil44 {fill:url(#id22)}
    .fil18 {fill:url(#id23)}
    .fil58 {fill:url(#id24)}
    .fil29 {fill:url(#id25)}
    .fil37 {fill:url(#id26)}
    .fil51 {fill:url(#id27)}
    .fil59 {fill:url(#id28)}
    .fil60 {fill:url(#id29)}
    .fil52 {fill:url(#id30)}
    .fil1 {fill:url(#id31)}
    .fil0 {fill:url(#id32)}
    .fil14 {fill:url(#id33)}
    .fil27 {fill:url(#id34)}
    .fil11 {fill:url(#id35)}
    .fil35 {fill:url(#id36)}
    .fil33 {fill:url(#id37)}
    .fil32 {fill:url(#id38)}
    .fil26 {fill:url(#id39)}
    .fil10 {fill:url(#id40)}
    .fil34 {fill:url(#id41)}
    .fil7 {fill:url(#id42)}
   
  </style>
  <linearGradient
   id="id0"
   gradientUnits="userSpaceOnUse"
   x1="0.14083"
   y1="0.34769401"
   x2="0.42030901"
   y2="0.34769401">
   <stop
   offset="0"
   style="stop-color:#336666"
   id="stop7004" />
   <stop
   offset="0.380392"
   style="stop-color:#99CCCC"
   id="stop7006" />
   <stop
   offset="0.509804"
   style="stop-color:#BDDFDF"
   id="stop7008" />
   <stop
   offset="0.639216"
   style="stop-color:#99CCCC"
   id="stop7010" />
   <stop
   offset="1"
   style="stop-color:#336666"
   id="stop7012" />
  </linearGradient>
  <linearGradient
   id="id1"
   gradientUnits="userSpaceOnUse"
   x1="0.28060201"
   y1="0.30065799"
   x2="0.28060201"
   y2="0.35750201">
   <stop
   offset="0"
   style="stop-color:#669999"
   id="stop7015" />
   <stop
   offset="1"
   style="stop-color:#003333"
   id="stop7017" />
  </linearGradient>
  <linearGradient
   id="id2"
   gradientUnits="userSpaceOnUse"
   x1="0"
   y1="0.381466"
   x2="0.56492198"
   y2="0.381466">
   <stop
   offset="0"
   style="stop-color:#99CCCC"
   id="stop7020" />
   <stop
   offset="0.0784314"
   style="stop-color:#669999"
   id="stop7022" />
   <stop
   offset="0.509804"
   style="stop-color:#99CCCC"
   id="stop7024" />
   <stop
   offset="0.929412"
   style="stop-color:#669999"
   id="stop7026" />
   <stop
   offset="1"
   style="stop-color:#99CCCC"
   id="stop7028" />
  </linearGradient>
  <linearGradient
   id="id3"
   gradientUnits="userSpaceOnUse"
   x1="0.29440999"
   y1="0.33969501"
   x2="0.289009"
   y2="0.25753099">
   <stop
   offset="0"
   style="stop-color:#D273D9"
   id="stop7031" />
   <stop
   offset="1"
   style="stop-color:#CBA0E6"
   id="stop7033" />
  </linearGradient>
  <linearGradient
   id="id4"
   gradientUnits="userSpaceOnUse"
   x1="0.15028501"
   y1="0.41970801"
   x2="0.41273901"
   y2="0.41970801">
   <stop
   offset="0"
   style="stop-color:black"
   id="stop7036" />
   <stop
   offset="0.509804"
   style="stop-color:#336666"
   id="stop7038" />
   <stop
   offset="1"
   style="stop-color:black"
   id="stop7040" />
  </linearGradient>
  <linearGradient
   id="id5"
   gradientUnits="userSpaceOnUse"
   x1="0.338512"
   y1="0.090947099"
   x2="0.344585"
   y2="0.160404">
   <stop
   offset="0"
   style="stop-color:#9C2E8D"
   id="stop7043" />
   <stop
   offset="1"
   style="stop-color:#D789DF"
   id="stop7045" />
  </linearGradient>
  <linearGradient
   id="id6"
   gradientUnits="userSpaceOnUse"
   x1="0.28060201"
   y1="0.31669101"
   x2="0.28060201"
   y2="0.34625">
   <stop
   offset="0"
   style="stop-color:#003333"
   id="stop7048" />
   <stop
   offset="1"
   style="stop-color:black"
   id="stop7050" />
  </linearGradient>
  <linearGradient
   id="id7"
   gradientUnits="userSpaceOnUse"
   x1="0.34640199"
   y1="0.19776"
   x2="0.34640199"
   y2="0.207268">
   <stop
   offset="0"
   style="stop-color:#CD78D1"
   id="stop7053" />
   <stop
   offset="1"
   style="stop-color:#B648B8"
   id="stop7055" />
  </linearGradient>
  <linearGradient
   id="id8"
   gradientUnits="userSpaceOnUse"
   x1="0.184388"
   y1="0.161138"
   x2="0.18206"
   y2="0.14056601">
   <stop
   offset="0"
   style="stop-color:black"
   id="stop7058" />
   <stop
   offset="1"
   style="stop-color:#1A1A1A"
   id="stop7060" />
  </linearGradient>
  <linearGradient
   id="id9"
   gradientUnits="userSpaceOnUse"
   x1="0.180418"
   y1="0.160807"
   x2="0.192568"
   y2="0.132291">
   <stop
   offset="0"
   style="stop-color:#88CA68"
   id="stop7063" />
   <stop
   offset="1"
   style="stop-color:#61A53E"
   id="stop7065" />
  </linearGradient>
  <linearGradient
   id="id10"
   gradientUnits="userSpaceOnUse"
   x1="0.34640199"
   y1="0.217003"
   x2="0.34640199"
   y2="0.223426">
   <stop
   offset="0"
   style="stop-color:#C465C7"
   id="stop7068" />
   <stop
   offset="1"
   style="stop-color:#B648B8"
   id="stop7070" />
  </linearGradient>
  <linearGradient
   id="id11"
   gradientUnits="userSpaceOnUse"
   x1="0.34697899"
   y1="0.099197596"
   x2="0.34537801"
   y2="0.066638902">
   <stop
   offset="0"
   style="stop-color:#D273D9"
   id="stop7073" />
   <stop
   offset="0.45098"
   style="stop-color:#C45EC9"
   id="stop7075" />
   <stop
   offset="1"
   style="stop-color:#B648B8"
   id="stop7077" />
  </linearGradient>
  <linearGradient
   id="id12"
   gradientUnits="userSpaceOnUse"
   x1="0.38389999"
   y1="0.29862899"
   x2="0.396034"
   y2="0.29778501">
   <stop
   offset="0"
   style="stop-color:#B648B8"
   id="stop7080" />
   <stop
   offset="1"
   style="stop-color:#9C2E8D"
   id="stop7082" />
  </linearGradient>
  <linearGradient
   id="id13"
   gradientUnits="userSpaceOnUse"
   xlink:href="#id9"
   x1="0.247936"
   y1="0.152273"
   x2="0.229784"
   y2="0.128116">
  </linearGradient>
  <linearGradient
   id="id14"
   gradientUnits="userSpaceOnUse"
   x1="0.29651201"
   y1="0.12988199"
   x2="0.28622401"
   y2="0.246029">
   <stop
   offset="0"
   style="stop-color:#BE5AC1"
   id="stop7086" />
   <stop
   offset="1"
   style="stop-color:#9C2E8D"
   id="stop7088" />
  </linearGradient>
  <linearGradient
   id="id15"
   gradientUnits="userSpaceOnUse"
   xlink:href="#id8"
   x1="0.23993"
   y1="0.154192"
   x2="0.237664"
   y2="0.13697">
  </linearGradient>
  <linearGradient
   id="id16"
   gradientUnits="userSpaceOnUse"
   x1="0.37321401"
   y1="0.258154"
   x2="0.388776"
   y2="0.26236701">
   <stop
   offset="0"
   style="stop-color:#9C3E98"
   id="stop7092" />
   <stop
   offset="1"
   style="stop-color:#660066"
   id="stop7094" />
  </linearGradient>
  <linearGradient
   id="id17"
   gradientUnits="userSpaceOnUse"
   xlink:href="#id9"
   x1="0.219744"
   y1="0.201377"
   x2="0.218894"
   y2="0.194378">
  </linearGradient>
  <linearGradient
   id="id18"
   gradientUnits="userSpaceOnUse"
   x1="0.37810799"
   y1="0.034574501"
   x2="0.35939199"
   y2="0.0313274">
   <stop
   offset="0"
   style="stop-color:#C568C9"
   id="stop7098" />
   <stop
   offset="1"
   style="stop-color:#912783"
   id="stop7100" />
  </linearGradient>
  <linearGradient
   id="id19"
   gradientUnits="userSpaceOnUse"
   x1="0.20677499"
   y1="0.25917101"
   x2="0.210155"
   y2="0.280743">
   <stop
   offset="0"
   style="stop-color:#3C682D"
   id="stop7103" />
   <stop
   offset="1"
   style="stop-color:#88CA68"
   id="stop7105" />
  </linearGradient>
  <linearGradient
   id="id20"
   gradientUnits="userSpaceOnUse"
   x1="0.26663399"
   y1="0.094358101"
   x2="0.22386201"
   y2="0.0995498">
   <stop
   offset="0"
   style="stop-color:#AADA94"
   id="stop7108" />
   <stop
   offset="1"
   style="stop-color:#88CA68"
   id="stop7110" />
  </linearGradient>
  <linearGradient
   id="id21"
   gradientUnits="userSpaceOnUse"
   x1="0.22171301"
   y1="0.30368799"
   x2="0.280588"
   y2="0.283283">
   <stop
   offset="0"
   style="stop-color:#88CA68"
   id="stop7113" />
   <stop
   offset="1"
   style="stop-color:#98D27E"
   id="stop7115" />
  </linearGradient>
  <linearGradient
   id="id22"
   gradientUnits="userSpaceOnUse"
   xlink:href="#id9"
   x1="0.217453"
   y1="0.182189"
   x2="0.218486"
   y2="0.190697">
  </linearGradient>
  <linearGradient
   id="id23"
   gradientUnits="userSpaceOnUse"
   xlink:href="#id18"
   x1="0.31790301"
   y1="0.0211576"
   x2="0.320925"
   y2="0.040981799">
  </linearGradient>
  <linearGradient
   id="id24"
   gradientUnits="userSpaceOnUse"
   x1="0.37180001"
   y1="0.240483"
   x2="0.37257099"
   y2="0.24608">
   <stop
   offset="0"
   style="stop-color:#98D27E"
   id="stop7120" />
   <stop
   offset="1"
   style="stop-color:#88CA68"
   id="stop7122" />
  </linearGradient>
  <linearGradient
   id="id25"
   gradientUnits="userSpaceOnUse"
   x1="0.29499"
   y1="0.21972699"
   x2="0.28050801"
   y2="0.156478">
   <stop
   offset="0"
   style="stop-color:#CBA0E6"
   id="stop7125" />
   <stop
   offset="0.760784"
   style="stop-color:#CBB6F2"
   id="stop7127" />
   <stop
   offset="1"
   style="stop-color:#CCCCFF"
   id="stop7129" />
  </linearGradient>
  <linearGradient
   id="id26"
   gradientUnits="userSpaceOnUse"
   xlink:href="#id21"
   x1="0.22217201"
   y1="0.132704"
   x2="0.25830701"
   y2="0.128039">
  </linearGradient>
  <linearGradient
   id="id27"
   gradientUnits="userSpaceOnUse"
   x1="0.305446"
   y1="0.29746801"
   x2="0.29895601"
   y2="0.298421">
   <stop
   offset="0"
   style="stop-color:#7C2772"
   id="stop7133" />
   <stop
   offset="1"
   style="stop-color:#660066"
   id="stop7135" />
  </linearGradient>
  <linearGradient
   id="id28"
   gradientUnits="userSpaceOnUse"
   xlink:href="#id24"
   x1="0.37806299"
   y1="0.255694"
   x2="0.38093001"
   y2="0.260784">
  </linearGradient>
  <linearGradient
   id="id29"
   gradientUnits="userSpaceOnUse"
   xlink:href="#id24"
   x1="0.38713899"
   y1="0.26888201"
   x2="0.38991499"
   y2="0.273123">
  </linearGradient>
  <linearGradient
   id="id30"
   gradientUnits="userSpaceOnUse"
   x1="0.29403901"
   y1="0.29596999"
   x2="0.29794899"
   y2="0.296527">
   <stop
   offset="0"
   style="stop-color:#B24AAE"
   id="stop7140" />
   <stop
   offset="1"
   style="stop-color:#9C2E8D"
   id="stop7142" />
  </linearGradient>
  <radialGradient
   id="id31"
   gradientUnits="userSpaceOnUse"
   cx="0.28039601"
   cy="0.30443701"
   r="0.36937001"
   fx="0.28039601"
   fy="0.30443701">
   <stop
   offset="0"
   style="stop-color:#CC3399"
   id="stop7145" />
   <stop
   offset="1"
   style="stop-color:#000066"
   id="stop7147" />
  </radialGradient>
  <radialGradient
   id="id32"
   gradientUnits="userSpaceOnUse"
   cx="0.28039601"
   cy="0.304436"
   r="0.36937001"
   fx="0.28039601"
   fy="0.304436">
   <stop
   offset="0"
   style="stop-color:black"
   id="stop7150" />
   <stop
   offset="0.701961"
   style="stop-color:gray"
   id="stop7152" />
   <stop
   offset="1"
   style="stop-color:white"
   id="stop7154" />
  </radialGradient>
  <radialGradient
   id="id33"
   gradientUnits="userSpaceOnUse"
   cx="0.288932"
   cy="0.363141"
   r="0.15838701"
   fx="0.288932"
   fy="0.363141">
   <stop
   offset="0"
   style="stop-color:#003333"
   id="stop7157" />
   <stop
   offset="1"
   style="stop-color:#669999"
   id="stop7159" />
  </radialGradient>
  <radialGradient
   id="id34"
   gradientUnits="userSpaceOnUse"
   cx="0.45230401"
   cy="0.134748"
   r="0.27319399"
   fx="0.45230401"
   fy="0.134748">
   <stop
   offset="0"
   style="stop-color:#E0A0E6"
   id="stop7162" />
   <stop
   offset="1"
   style="stop-color:#B648B8"
   id="stop7164" />
  </radialGradient>
  <radialGradient
   id="id35"
   gradientUnits="userSpaceOnUse"
   cx="0.280395"
   cy="0.31845099"
   r="0.15008099"
   fx="0.280395"
   fy="0.31845099">
   <stop
   offset="0"
   style="stop-color:#FEFEFE"
   id="stop7167" />
   <stop
   offset="1"
   style="stop-color:#99CCCC"
   id="stop7169" />
  </radialGradient>
  <radialGradient
   id="id36"
   gradientUnits="userSpaceOnUse"
   cx="0.34475601"
   cy="0.119518"
   r="0.019544199"
   fx="0.34475601"
   fy="0.119518">
   <stop
   offset="0"
   style="stop-color:#333333"
   id="stop7172" />
   <stop
   offset="1"
   style="stop-color:black"
   id="stop7174" />
  </radialGradient>
  <radialGradient
   id="id37"
   gradientUnits="userSpaceOnUse"
   cx="0.345777"
   cy="0.12723801"
   r="0.0239764"
   fx="0.345777"
   fy="0.12723801">
   <stop
   offset="0"
   style="stop-color:#FEFEFE"
   id="stop7177" />
   <stop
   offset="0.419608"
   style="stop-color:white"
   id="stop7179" />
   <stop
   offset="1"
   style="stop-color:#B7F145"
   id="stop7181" />
  </radialGradient>
  <radialGradient
   id="id38"
   gradientUnits="userSpaceOnUse"
   cx="0.34640199"
   cy="0.132682"
   r="0.030731101"
   fx="0.34640199"
   fy="0.132682">
   <stop
   offset="0"
   style="stop-color:#FEFEFE"
   id="stop7184" />
   <stop
   offset="0.741176"
   style="stop-color:#F2F2F2"
   id="stop7186" />
   <stop
   offset="1"
   style="stop-color:#B3B3B3"
   id="stop7188" />
  </radialGradient>
  <radialGradient
   id="id39"
   gradientUnits="userSpaceOnUse"
   xlink:href="#id34"
   cx="0.347334"
   cy="0.131427"
   r="0.169561"
   fx="0.347334"
   fy="0.131427">
  </radialGradient>
  <radialGradient
   id="id40"
   gradientUnits="userSpaceOnUse"
   xlink:href="#id35"
   cx="0.280395"
   cy="0.292974"
   r="0.095796101"
   fx="0.280395"
   fy="0.292974">
  </radialGradient>
  <radialGradient
   id="id41"
   gradientUnits="userSpaceOnUse"
   cx="0.349076"
   cy="0.118079"
   r="0.0064032199"
   fx="0.349076"
   fy="0.118079">
   <stop
   offset="0"
   style="stop-color:#1A1A1A"
   id="stop7193" />
   <stop
   offset="1"
   style="stop-color:black"
   id="stop7195" />
  </radialGradient>
  <radialGradient
   id="id42"
   gradientUnits="userSpaceOnUse"
   cx="0.28278899"
   cy="0.482526"
   r="0.049191501"
   fx="0.28278899"
   fy="0.482526">
   <stop
   offset="0"
   style="stop-color:#99CCCC"
   id="stop7198" />
   <stop
   offset="1"
   style="stop-color:#336666"
   id="stop7200" />
  </radialGradient>
 <radialGradient
   inkscape:collect="always"
   xlink:href="#id35"
   id="radialGradient7337"
   gradientUnits="userSpaceOnUse"
   cx="0.280395"
   cy="0.31845099"
   fx="0.280395"
   fy="0.31845099"
   r="0.15008099" /><linearGradient
   inkscape:collect="always"
   xlink:href="#id18"
   id="linearGradient7339"
   gradientUnits="userSpaceOnUse"
   x1="0.37810799"
   y1="0.034574501"
   x2="0.35939199"
   y2="0.0313274" /><linearGradient
   inkscape:collect="always"
   xlink:href="#id21"
   id="linearGradient7341"
   gradientUnits="userSpaceOnUse"
   x1="0.22171301"
   y1="0.30368799"
   x2="0.280588"
   y2="0.283283" /><radialGradient
   inkscape:collect="always"
   xlink:href="#id34"
   id="radialGradient7343"
   gradientUnits="userSpaceOnUse"
   cx="0.45230401"
   cy="0.134748"
   fx="0.45230401"
   fy="0.134748"
   r="0.27319399" /><linearGradient
   inkscape:collect="always"
   xlink:href="#id9"
   id="linearGradient7345"
   gradientUnits="userSpaceOnUse"
   x1="0.180418"
   y1="0.160807"
   x2="0.192568"
   y2="0.132291" /><linearGradient
   inkscape:collect="always"
   xlink:href="#id8"
   id="linearGradient7347"
   gradientUnits="userSpaceOnUse"
   x1="0.184388"
   y1="0.161138"
   x2="0.18206"
   y2="0.14056601" /><linearGradient
   inkscape:collect="always"
   xlink:href="#id24"
   id="linearGradient7349"
   gradientUnits="userSpaceOnUse"
   x1="0.37180001"
   y1="0.240483"
   x2="0.37257099"
   y2="0.24608" /></defs>
 <g
   id="Layer_x0020_1"
   transform="matrix(521.38702,0,0,521.09829,0,-6.3112754e-4)">
  <metadata
   id="CorelCorpID_0Corel-Layer" />
  <g
   id="_350488280">
   <circle
   id="_354764776"
   class="fil0 str0"
   cx="0.280397"
   cy="0.304436"
   r="0.26575899"
   sodipodi:cx="0.280397"
   sodipodi:cy="0.304436"
   sodipodi:rx="0.26575899"
   sodipodi:ry="0.26575899"
   style="fill:url(#id32);stroke:#808080;stroke-width:0.00051808"
   d="m 0.54615599,0.304436 c 0,0.14677464 -0.11898435,0.26575899 -0.26575899,0.26575899 -0.14677464,0 -0.26575899,-0.11898435 -0.26575899,-0.26575899 0,-0.14677464 0.11898435,-0.26575899 0.26575899,-0.26575899 0.14677464,0 0.26575899,0.11898435 0.26575899,0.26575899 z" />
   <circle
   id="_354774256"
   class="fil1"
   cx="0.280397"
   cy="0.304436"
   r="0.25294301"
   sodipodi:cx="0.280397"
   sodipodi:cy="0.304436"
   sodipodi:rx="0.25294301"
   sodipodi:ry="0.25294301"
   style="fill:url(#id31)"
   d="m 0.53334001,0.304436 c 0,0.13969656 -0.11324645,0.25294301 -0.25294301,0.25294301 -0.13969657,0 -0.25294301,-0.11324645 -0.25294301,-0.25294301 0,-0.13969657 0.11324644,-0.25294301 0.25294301,-0.25294301 0.13969656,0 0.25294301,0.11324644 0.25294301,0.25294301 z" />
   <g
   id="g7207">
    <g
   id="g7209">
     <path
   id="_354757768"
   class="fil2"
   d="M 0.277214,0.458771 C 0.3317814,0.453764 0.3186623,0.467584 0.3231414,0.4766127 0.3332432,0.4969734 0.3120422,0.5418273 0.2866938,0.5907417 0.2847658,0.5726946 0.1871229,0.4670377 0.2772138,0.4587707 z"
   inkscape:connector-curvature="0"
   style="fill:#ffff66" />
     <path
   id="_354762376"
   class="fil3"
   d="M 0.260001,0.4967 0.257778,0.488443 c 0,0 -0.0129778,-0.0266076 0.0216899,-0.0285888 0.034667,-0.001981 0.0340599,0.0146088 0.0309344,0.022586 -0.003125,0.007976 -6.7989e-4,0.0176969 0.00187,0.0217688 0.00255,0.004072 -0.003695,-0.005254 -0.008493,-0.008255 -0.004799,-0.003002 -7.88e-4,0.0201554 0.002611,0.0250527 0.003399,0.004897 -0.007651,-0.01381 -0.0113358,-0.0110877 -0.003685,0.002722 0.004897,0.0242266 0.003539,0.0295569 -0.001358,0.00533 -0.003483,-0.0133612 -0.006387,-0.005516 -0.002905,0.007845 -0.0109857,0.0355291 -0.0109857,0.0355291 0,0 0.008688,-0.0442739 0.002866,-0.0397492 -0.005823,0.004525 -0.0181184,0.0235392 -0.0181184,0.0235392 0,0 0.0187609,-0.0414802 0.0118349,-0.034703 -0.006926,0.006776 -0.0199732,0.0145313 -0.0199732,0.0145313 0,0 0.0253042,-0.0286085 0.0185957,-0.0251533 -0.006708,0.003455 -0.0188357,0.009333 -0.0188357,0.009333 0,0 0.0157341,-0.0122782 0.0123353,-0.0171754 -0.003399,-0.004897 0.001481,0.004973 -0.0105716,0.0113386 -0.0120531,0.006366 0.002869,-0.006494 6.459e-4,-0.0147509 z"
   inkscape:connector-curvature="0"
   style="fill:#ffcc00" />
     <path
   id="_354757168"
   class="fil4"
   d="M 0.299717,0.486841 C 0.29913433,0.48661052 0.289956,0.48769766 0.297758,0.47953 0.3219724,0.4541775 0.2654475,0.4598872 0.2603265,0.469833 0.2574005,0.475514 0.2634755,0.4864978 0.2706439,0.4899082 0.2651519,0.4838902 0.2563995,0.472144 0.2673159,0.4671631 0.2889106,0.4573101 0.3092326,0.46631731 0.298113,0.4748941 0.294201,0.4779111 0.289658,0.4876727 0.299718,0.4868405 z"
   inkscape:connector-curvature="0"
   style="fill:#cc3300" />
    </g>
    <path
   id="_354760864"
   class="fil5"
   d="M 0.416698,0.378908 C 0.4037488,0.4255058 0.3688996,0.4623226 0.3231415,0.4762359 0.3114766,0.4712439 0.2989047,0.4684149 0.2839845,0.4684149 c -0.0149209,0 -0.0288186,0.002899 -0.0404842,0.007892 C 0.1977429,0.46239333 0.1642195,0.42550573 0.1512702,0.37890803 l 0.265428,0 z"
   inkscape:connector-curvature="0"
   style="fill:#003333" />
    <path
   id="_354761512"
   class="fil6"
   d="M 0.415503,0.378908 C 0.4025538,0.4255058 0.3690303,0.4617957 0.3232729,0.475709 0.3116073,0.47071655 0.297709,0.46841444 0.2827887,0.46841444 c -0.0149202,0 -0.0288186,0.002899 -0.0404842,0.007892 C 0.1965471,0.46239335 0.1630237,0.42550575 0.1500744,0.37890805 l 0.265428,0 z"
   inkscape:connector-curvature="0"
   style="fill:#ffffff" />
    <path
   id="_354765616"
   class="fil7"
   d="M 0.417893,0.37831 C 0.4049438,0.4249078 0.3690305,0.4617953 0.3232731,0.4757086 0.3116075,0.4707166 0.2977092,0.4678166 0.2827889,0.4678166 c -0.0149202,0 -0.0288186,0.0029 -0.0404842,0.007892 C 0.1965473,0.4617953 0.160634,0.4249078 0.1476848,0.37831 l 0.270208,0 z"
   inkscape:connector-curvature="0"
   style="fill:url(#id42)" />
    <path
   id="_354761896"
   class="fil6"
   d="m 0.280396,0.39013 c 0.0787043,0 0.151474,-0.003673 0.151474,0.0120674 0,0.0157415 0.002232,0.0513951 -0.149922,0.0513951 -0.152154,0 -0.153026,-0.0350212 -0.153026,-0.0507621 0,-0.0157409 0.0727702,-0.0127004 0.151474,-0.0127004 z"
   inkscape:connector-curvature="0"
   style="fill:#ffffff" />
    <path
   id="_354758536"
   class="fil8"
   d="m 0.280396,0.389497 c 0.0787043,0 0.151474,-0.00304 0.151474,0.0127004 0,0.0157409 0.002232,0.0507621 -0.149922,0.0507621 -0.152154,0 -0.153026,-0.0350212 -0.153026,-0.0507621 0,-0.0157409 0.0727702,-0.0127004 0.151474,-0.0127004 z"
   inkscape:connector-curvature="0"
   style="fill:url(#id4)" />
    <path
   id="_354763216"
   class="fil9"
   d="m 0.280395,0.325542 c 0.14569,0 0.280395,-0.005628 0.280395,0.02351 0,0.0291381 0.004132,0.0939658 -0.277522,0.0939658 C 0.001613,0.4430178 1e-6,0.3781901 1e-6,0.349052 c 0,-0.0291381 0.134706,-0.02351 0.280395,-0.02351 z"
   inkscape:connector-curvature="0"
   style="fill:url(#id2)" />
    <ellipse
   id="_354754696"
   class="fil10"
   cx="0.280395"
   cy="0.34905201"
   rx="0.280395"
   ry="0.056078501"
   sodipodi:cx="0.280395"
   sodipodi:cy="0.34905201"
   sodipodi:rx="0.280395"
   sodipodi:ry="0.056078501"
   style="fill:url(#id40)"
   d="m 0.56079,0.34905201 c 0,0.0309713 -0.12553712,0.0560785 -0.280395,0.0560785 C 0.12553712,0.40513051 0,0.38002331 0,0.34905201 c 0,-0.0309713 0.12553712,-0.0560785 0.280395,-0.0560785 0.15485788,0 0.280395,0.0251072 0.280395,0.0560785 z" />
    <ellipse
   id="_354755128"
   class="fil11 str1"
   cx="0.280395"
   cy="0.34905201"
   rx="0.21858799"
   ry="0.043717202"
   sodipodi:cx="0.280395"
   sodipodi:cy="0.34905201"
   sodipodi:rx="0.21858799"
   sodipodi:ry="0.043717202"
   style="fill:url(#radialGradient7337);stroke:#99cccc;stroke-width:0.00051808"
   d="m 0.498983,0.34905201 c 0,0.0241443 -0.0978652,0.0437172 -0.218588,0.0437172 -0.12072281,0 -0.21858799,-0.0195728 -0.21858799,-0.0437172 0,-0.0241443 0.09786518,-0.0437172 0.21858799,-0.0437172 0.12072282,0 0.218588,0.0195729 0.218588,0.0437172 z" />
    <ellipse
   id="_354756016"
   class="fil12 str1"
   cx="0.280395"
   cy="0.33826399"
   rx="0.145137"
   ry="0.029027101"
   sodipodi:cx="0.280395"
   sodipodi:cy="0.33826399"
   sodipodi:rx="0.145137"
   sodipodi:ry="0.029027101"
   style="fill:#669999;stroke:#99cccc;stroke-width:0.00051808"
   d="m 0.425532,0.33826399 c 0,0.0160312 -0.0649801,0.0290271 -0.145137,0.0290271 -0.080157,0 -0.145137,-0.0129959 -0.145137,-0.0290271 0,-0.0160312 0.0649801,-0.0290271 0.145137,-0.0290271 0.080157,0 0.145137,0.0129959 0.145137,0.0290271 z" />
    <path
   id="_354756208"
   class="fil6"
   d="m 0.280395,0.276662 c 0.0652778,0 0.117647,0.0114181 0.133326,0.0234916 0.001432,0.0108368 0.005435,0.0278844 0.005836,0.0323901 0,0.0155002 -0.0602663,0.0251397 -0.137764,0.0251397 -0.0774975,0 -0.140415,-0.0102025 -0.140415,-0.025702 0,-0.001964 0.004833,-0.0268816 0.005539,-0.0312104 0.0132253,-0.01275 0.0657993,-0.024109 0.133478,-0.024109 z"
   inkscape:connector-curvature="0"
   style="fill:#ffffff" />
    <path
   id="_354762160"
   class="fil13"
   d="m 0.280395,0.300658 c 0.0652778,0 0.122504,0.0128071 0.138183,0.0248806 0.001432,0.0108368 7.0845e-4,0.005513 0.001109,0.0100189 0,0.0154995 -0.0578228,0.0219449 -0.13532,0.0219449 -0.0774968,0 -0.143171,-0.007919 -0.143171,-0.0234182 0,-0.001964 5.1672e-4,-0.005681 0.001222,-0.01001 C 0.1556433,0.3113242 0.2127161,0.300658 0.280395,0.300658 z"
   inkscape:connector-curvature="0"
   style="fill:url(#id1)" />
    <path
   id="_354762136"
   class="fil14"
   d="m 0.280395,0.277259 c 0.0652778,0 0.117647,0.0108205 0.133326,0.022894 0.002893,0.010934 0.00606,0.0285228 0.005836,0.0329877 0,0.0154995 -0.0602663,0.025139 -0.137764,0.025139 -0.0774975,0 -0.140415,-0.0102018 -0.140415,-0.025702 0,-0.001964 0.004833,-0.0274785 0.005539,-0.0318074 C 0.1601423,0.2880203 0.2127163,0.277259 0.280395,0.277259 z"
   inkscape:connector-curvature="0"
   style="fill:url(#id33)" />
    <path
   id="_354754816"
   class="fil15"
   d="m 0.280395,0.303048 c 0.0652778,0 0.122504,0.0128071 0.138183,0.0248813 0.001432,0.0108361 7.0845e-4,0.005513 0.001109,0.0100189 0,0.0154995 -0.0578228,0.0219442 -0.13532,0.0219442 -0.0774968,0 -0.143171,-0.007918 -0.143171,-0.0234175 0,-0.001964 5.1672e-4,-0.005682 0.001222,-0.01001 C 0.1556433,0.3137142 0.2127161,0.3030481 0.280395,0.3030481 z"
   inkscape:connector-curvature="0"
   style="fill:url(#id6)" />
    <path
   id="_354759976"
   class="fil16"
   d="M 0.361627,0.0673147 C 0.3443475,0.0075549 0.398828,-0.0125576 0.3971806,0.0118253 0.39684405,0.016796 0.3907056,0.0191552 0.3869224,0.0181721 0.3819644,0.0168837 0.3827604,0.00957351 0.3829514,0.0086271 0.38314381,0.00768069 0.3558468,0.01046689 0.3616273,0.0673147 z"
   inkscape:connector-curvature="0"
   style="fill:url(#linearGradient7339)" />
    <path
   id="_354766120"
   class="fil17"
   d="M 0.386244,0.00184727 C 0.387979,0.00288682 0.389583,0.00386859 0.390376,0.0044057 0.399094,0.01031532 0.39096751,0.018128 0.3842,0.0162929 0.3848187,0.01716384 0.385693,0.0178526 0.386922,0.0181721 0.390706,0.01915522 0.396844,0.016796 0.3971802,0.0118253 0.39769284,0.00422887 0.3927582,9.538e-4 0.3862435,0.00184721 z"
   inkscape:connector-curvature="0"
   style="fill:#b648b8" />
    <path
   id="_354751864"
   class="fil18"
   d="M 0.320008,0.067994 C 0.3372875,0.0082349 0.282807,-0.0118777 0.2844551,0.0125046 0.28479097,0.017476 0.2909301,0.0198352 0.2947126,0.0188521 0.2996706,0.017563 0.2988746,0.0102535 0.2986836,0.0093071 0.29849255,0.00836069 0.3257882,0.01114757 0.3200077,0.067994 z"
   inkscape:connector-curvature="0"
   style="fill:url(#id23)" />
    <path
   id="_354755944"
   class="fil17"
   d="M 0.295391,0.00252784 C 0.293656,0.00356671 0.292052,0.00454848 0.291259,0.00508627 0.282541,0.01099521 0.29066817,0.01880787 0.297435,0.01697287 0.2968163,0.01784381 0.295942,0.01853257 0.294713,0.01885207 0.29093,0.01983519 0.284791,0.01747597 0.2844548,0.01250527 0.28394216,0.00490952 0.2888778,0.00163377 0.2953915,0.00252786 z"
   inkscape:connector-curvature="0"
   style="fill:#b648b8" />
    <path
   id="_354756880"
   class="fil19"
   d="M 0.30219,0.00476196 C 0.29358053,3.9433e-4 0.2854273,0.00202879 0.2845121,0.00992642 c 0.001265,-0.00239186 0.003498,-0.00598985 0.006571,-0.00639574 0.003074,-4.0589e-4 0.006628,3.4471e-4 0.0111067,0.00123128 z"
   inkscape:connector-curvature="0"
   style="fill:#ccccff" />
    <path
   id="_354758800"
   class="fil20"
   d="m 0.144323,0.344926 c 0,0 0.0374083,-0.0584116 0.0579601,-0.0636182 0.002486,-6.323e-4 0.004483,-7.1117e-4 0.007517,-0.002305 0.002745,-0.004334 0.005188,-0.003827 0.003169,-0.0235154 -0.002019,-0.0196883 0.0193096,-0.009412 0.0193096,-0.009412 0,0 -0.001082,0.0190676 0.005774,0.0277301 0.00393,0.0083 0.119926,-0.0199732 0.119926,-0.0199732 l 0,0.0223882 c 0,0 -0.107318,0.008599 -0.107572,0.0286962 -2.5428e-4,0.0200983 0.00205,0.0261677 0.002757,0.0400096 l -0.0563848,0.006245 c 0,0 -8.5666e-4,-0.0247059 -3.4811e-4,-0.0333555 5.0856e-4,-0.00865 -0.0249323,0.0113542 -0.0287479,0.0271107 -0.0129744,0 -0.0233604,0 -0.0233604,0 z"
   inkscape:connector-curvature="0"
   style="fill:url(#linearGradient7341)" />
    <path
   id="_354755632"
   class="fil21"
   d="m 0.357979,0.272526 0,0.003695 c 0,0 -0.107318,0.008599 -0.107572,0.0286962 -2.5428e-4,0.0200983 0.00205,0.0261677 0.002757,0.0400096 l -0.006394,0 C 0.24583379,0.3317824 0.244792,0.3165413 0.245006,0.2996535 0.24521949,0.2827657 0.3298966,0.2751257 0.357979,0.2725265 z"
   inkscape:connector-curvature="0"
   style="fill:#7dc05c" />
    <path
   id="_354754744"
   class="fil22"
   d="M 0.333666,0.278756 0.3579783,0.27622 c 0,0 -0.107318,0.008599 -0.107572,0.0286962 -2.5428e-4,0.0200983 0.00205,0.0261677 0.002757,0.0400096 l -0.001515,0 C 0.25071225,0.3324389 0.2483283,0.3164723 0.2490313,0.3031186 0.24973363,0.2897648 0.2992889,0.2822228 0.3336663,0.278756 z"
   inkscape:connector-curvature="0"
   style="fill:#aada94" />
    <path
   id="_354757432"
   class="fil21"
   d="M 0.200044,0.350332 0.196686,0.344926 c 0,0 -7.6352e-4,-0.0184611 -2.5496e-4,-0.0271107 5.0856e-4,-0.00865 -0.0249323,0.0113542 -0.0287479,0.0271107 l -0.007273,0 c 0.009682,-0.0174467 0.0324118,-0.043184 0.0367162,-0.0342971 0.004304,0.008888 0.002082,0.0225452 0.002917,0.039703 z"
   inkscape:connector-curvature="0"
   style="fill:#7dc05c" />
    <path
   id="_354755656"
   class="fil23"
   d="M 0.174577,0.304114 C 0.184263,0.2929182 0.1944856,0.2832835 0.2022826,0.2813084 c 0.002486,-6.323e-4 0.004483,-7.1117e-4 0.007517,-0.002305 0.002745,-0.004334 0.005188,-0.003827 0.003169,-0.0235154 -0.002019,-0.0196883 0.0193096,-0.009412 0.0193096,-0.009412 0,0 -0.001082,0.0190676 0.005774,0.0277301 3.9162e-4,8.2675e-4 0.001911,0.001286 0.004301,0.001451 -0.003292,0.003176 -0.007838,0.006234 -0.0138399,0.007647 -0.0138399,0.003256 -0.0366163,0.006823 -0.0459974,0.014857 -0.002242,0.001919 -0.005016,0.004118 -0.007939,0.006354 z"
   inkscape:connector-curvature="0"
   style="fill:url(#id19)" />
    <path
   id="_354765352"
   class="fil24"
   d="m 0.144323,0.344926 c 0,0 0.0374083,-0.0584116 0.0579601,-0.0636182 0.002486,-6.323e-4 0.004483,-7.1117e-4 0.007517,-0.002305 0.002745,-0.004334 0.005188,-0.003827 0.003169,-0.0235154 C 0.2119181,0.2452346 0.2171981,0.2431093 0.2225001,0.2434254 0.2179051,0.24372455 0.212471,0.24334789 0.2139441,0.257714 0.2154171,0.2720794 0.21345662,0.2747317 0.2107111,0.279066 0.2076771,0.28066 0.2066341,0.280675 0.2041481,0.281308 0.1835963,0.286515 0.146188,0.3449262 0.146188,0.3449262 l -0.001865,0 z m 0.0537087,0.004028 -0.001346,0 c 0,0 -5.5819e-4,-0.0262901 -2.5496e-4,-0.0311391 4.147e-5,-6.6765e-4 5.038e-4,0.001984 7.0301e-4,0.007153 6.119e-5,0.001601 -6.7173e-4,0.0132871 8.9746e-4,0.0239859 z"
   inkscape:connector-curvature="0"
   style="fill:#74e9f0" />
    <path
   id="_354762424"
   class="fil25"
   d="m 0.246081,0.275308 c 0,0 0.00974,8.2539e-4 0.0288716,-0.002635 C 0.289811,0.269985 0.3374408,0.2599339 0.3579783,0.2555771 l 0,-0.001745 c 0,0 -0.0848967,0.0206925 -0.111886,0.0214723 l -1.156e-5,3.4e-6 z"
   inkscape:connector-curvature="0"
   style="fill:#ddf6a2" />
    <path
   id="_354752848"
   class="fil26"
   d="m 0.287104,0.344926 c 0.003328,-0.0325845 0.01268,-0.126067 0.01268,-0.147485 0,-0.0624501 -0.0723799,-0.161934 0.0475503,-0.161597 0.11993,3.3655e-4 0.0317374,0.149461 0.0411865,0.19986 0.001392,0.007425 0.002604,0.0142267 0.003657,0.0205905 -0.004099,-0.002503 -0.009094,-0.001927 -0.009563,0.003753 -4.8952e-4,0.0352354 -0.001987,0.065186 -0.005443,0.0848784 l -0.090068,0 z"
   inkscape:connector-curvature="0"
   style="fill:url(#id39)" />
    <path
   id="_354766288"
   class="fil27"
   d="m 0.34259,0.0358929 c 0.001552,-3.128e-5 0.003123,-5.371e-5 0.004744,-4.895e-5 0.11993,3.3654e-4 0.031738,0.149461 0.0411865,0.19986 0.009402,0.0501502 0.0110884,0.0607613 0.009357,0.109224 l -0.00692,0 c 0.001732,-0.0484627 4.487e-5,-0.0590738 -0.009357,-0.109224 -0.00939,-0.0500856 0.0776158,-0.197648 -0.0390108,-0.199811 z"
   inkscape:connector-curvature="0"
   style="fill:url(#radialGradient7343)" />
    <path
   id="_354754408"
   class="fil28"
   d="m 0.287104,0.344926 c 0.003328,-0.0325845 0.01268,-0.126067 0.01268,-0.147485 0,-0.0639826 -0.071749,-0.166457 0.0549169,-0.161351 -0.105133,0.0054555 -0.0537196,0.099269 -0.0489706,0.146923 0.002147,0.0215553 7.6352e-4,0.126997 2.3592e-4,0.161912 l -0.0188622,0 z"
   inkscape:connector-curvature="0"
   style="fill:url(#id14)" />
    <path
   id="_354760840"
   class="fil17"
   d="m 0.303033,0.116694 c 0,0 0.0538332,0.0115113 0.0872526,-0.004064 C 0.3868926,0.0588002 0.2952272,0.0684962 0.303033,0.116694 z"
   inkscape:connector-curvature="0"
   style="fill:#b648b8" />
    <path
   id="_354761440"
   class="fil29"
   d="m 0.287535,0.340698 c 0,0 0.0122489,-0.117205 0.0122489,-0.143257 0,-0.0624501 -0.0723799,-0.161934 0.0475503,-0.161597 2.604e-4,6.8e-7 5.0176e-4,1.496e-5 7.6012e-4,1.7e-5 -0.117562,6.0034e-4 -0.0458934,0.0994254 -0.0458934,0.16158 0,0.0260514 -0.0122496,0.143257 -0.0122496,0.143257 l -0.002416,0 z"
   inkscape:connector-curvature="0"
   style="fill:url(#id25)" />
    <path
   id="_354760744"
   class="fil30"
   d="m 0.303033,0.117451 c 0,0 0.0538325,0.0115113 0.0872519,-0.004064 C 0.3868919,0.0595572 0.2952265,0.0692532 0.303033,0.117451 z"
   inkscape:connector-curvature="0"
   style="fill:url(#id11)" />
    <path
   id="_354764752"
   class="fil31"
   d="m 0.302762,0.108951 c 0,0 0.0481268,-0.0245835 0.0873498,0.002572 C 0.4005753,0.213517 0.2936215,0.2030521 0.302762,0.108951 z"
   inkscape:connector-curvature="0"
   style="fill:url(#id5)" />
    <path
   id="_354763552"
   class="fil32"
   d="m 0.304114,0.112239 c 0,0 0.0506418,-0.0197271 0.0843562,0.003615 0.009374,0.0896302 -0.091818,0.0789681 -0.0843562,-0.003615 z"
   inkscape:connector-curvature="0"
   style="fill:url(#id38)" />
    <path
   id="_354748168"
   class="fil33 str2"
   d="m 0.327148,0.106525 c 0.0114215,-0.002004 0.0258366,-0.00305 0.039826,4.419e-5 0.006736,0.006127 0.0106668,0.0152792 0.009869,0.0251594 -0.001356,0.016775 -0.0158258,0.0292938 -0.0323214,0.0279619 -0.0164949,-0.001333 -0.0287676,-0.0160115 -0.0274139,-0.0327864 6.6018e-4,-0.008174 0.004436,-0.0153363 0.01004,-0.0203791 z"
   inkscape:connector-curvature="0"
   style="fill:url(#id37);stroke:#95d11e;stroke-width:0.00119933" />
    <path
   id="_354766216"
   class="fil34 str3"
   d="M 0.345662,0.11204 C 0.352717,0.11261043 0.3580129,0.11829 0.3574928,0.1247275 0.35697268,0.1311645 0.3508328,0.1359206 0.3437801,0.1353508 0.3367269,0.13478105 0.3314292,0.12910191 0.33195,0.122664 0.33246944,0.11622678 0.33860886,0.1114709 0.3456621,0.11204 z"
   inkscape:connector-curvature="0"
   style="fill:url(#id41);stroke:#000000;stroke-width:0.00119933" />
    <path
   id="_354747568"
   class="fil35"
   d="m 0.345663,0.112041 c 0.006789,5.4799e-4 0.0119498,0.00583 0.0118634,0.0119654 -0.002718,-0.002344 -0.006675,-0.003943 -0.0112039,-0.004231 -0.005836,-3.719e-4 -0.0111774,0.001524 -0.0143688,0.004674 -5.031e-5,-5.8607e-4 -5.303e-5,-0.001182 -4.08e-6,-0.001785 5.1944e-4,-0.006437 0.00666,-0.0111931 0.0137134,-0.0106233 z"
   inkscape:connector-curvature="0"
   style="fill:url(#id36)" />
    <path
   id="_354752056"
   class="fil36"
   d="M 0.350512,0.114678 C 0.355379,0.116605 0.355889,0.124632 0.352573,0.119522 0.349257,0.114412 0.347717,0.113559 0.350512,0.114678 z"
   inkscape:connector-curvature="0"
   style="fill:#c1ffff" />
    <path
   id="_354747544"
   class="fil37"
   d="m 0.195357,7.20006e-4 0,0 C 0.2279544,-0.00323696 0.2578615,0.02019551 0.2618171,0.05279291 c 0.005889,0.0485144 0.004684,0.0920812 0.017665,0.145543 0.003965,0.0326668 -0.0195102,0.0625086 -0.0521566,0.0664696 C 0.1947281,0.26876251 0.1649039,0.24531911 0.1609476,0.21272241 0.1594126,0.15865061 0.1512336,0.11306181 0.1432833,0.06718041 0.1393263,0.03458301 0.1627602,0.00467661 0.1953569,7.20306e-4 z"
   inkscape:connector-curvature="0"
   style="fill:url(#id26)" />
    <path
   id="_354762784"
   class="fil38"
   d="m 0.195355,7.20006e-4 -6.8e-7,0 c -0.004581,5.55474e-4 -0.008981,0.001624264 -0.0131498,0.003141104 0.0458424,-0.01635 0.0606872,0.0228015 0.064088,0.0508165 0.001403,0.0200235 0.002752,0.0400042 0.00475,0.0604927 0.001685,0.017291 -0.001564,0.0149229 0.009044,0.0301947 0.003564,0.005131 0.00587,0.0296236 0.006381,0.0333718 0.002658,0.0195129 -0.001022,0.0243143 -6.7309e-4,0.0292727 1.8425e-4,0.002607 0.001074,0.005222 0.001316,0.006231 0.003402,0.0280224 -0.0198447,0.0467854 -0.0531608,0.0506479 0.0378598,0.00405 0.0701648,-0.0283651 0.0655307,-0.0665512 -0.0114446,-0.0528691 -0.0144083,-0.0990909 -0.0176643,-0.145543 -0.003956,-0.0325974 -0.0338627,-0.0560299 -0.0664601,-0.052073604 z"
   inkscape:connector-curvature="0"
   style="fill:url(#id20)" />
    <path
   id="_354766984"
   class="fil21"
   d="m 0.195357,7.19326e-4 6.8e-7,0 c 0.00458,-5.56152e-4 0.009109,-5.71109e-4 0.013519,-9.58648e-5 C 0.18338418,0.00989787 0.16655208,0.03592686 0.16995218,0.06394316 c 0.003427,0.0197774 0.006897,0.039501 0.009859,0.0598726 0.002499,0.0171924 -0.006059,0.0154675 -0.0127051,0.032834 -0.002233,0.005836 0.001387,0.0301675 0.001787,0.0339286 0.002087,0.0195822 0.0111937,0.0236011 0.0120416,0.028499 4.4601e-4,0.002576 2.0669e-4,0.005327 2.1281e-4,0.006365 0.003401,0.0280211 0.0260752,0.0404434 0.0593478,0.0362233 -0.0357916,0.0129893 -0.0749139,-0.0107566 -0.079548,-0.0489434 -0.001534,-0.0540718 -0.009714,-0.0996606 -0.017665,-0.145542 -0.003956,-0.0325974 0.0194769,-0.0625045 0.0520743,-0.0664607988 z"
   inkscape:connector-curvature="0"
   style="fill:#7dc05c" />
    <path
   id="_354758872"
   class="fil39"
   d="M 0.265191,0.123755 C 0.2542441,0.11998976 0.2127033,0.12063226 0.2167181,0.1576571 0.21956957,0.1839635 0.2698605,0.1657213 0.265191,0.123755 z"
   inkscape:connector-curvature="0"
   style="fill:url(#id13)" />
    <path
   id="_354764224"
   class="fil40"
   d="M 0.265192,0.126002 C 0.2549379,0.12406363 0.221171,0.13491062 0.2192014,0.1579059 0.21723991,0.180806 0.2650377,0.16175885 0.265192,0.126002 z"
   inkscape:connector-curvature="0"
   style="fill:url(#id15)" />
    <path
   id="_354765064"
   class="fil36"
   d="M 0.241753,0.133476 C 0.238666,0.134854 0.2288554,0.141404 0.2287426,0.1443978 0.2286311,0.1473788 0.2424424,0.1376758 0.241753,0.133476 z"
   inkscape:connector-curvature="0"
   style="fill:#c1ffff" />
    <path
   id="_354765112"
   class="fil41"
   d="M 0.156993,0.136889 C 0.16672225,0.13061292 0.2072091,0.1213004 0.2121676,0.1582091 0.21569216,0.1844346 0.1624981,0.1787527 0.156993,0.136889 z"
   inkscape:connector-curvature="0"
   style="fill:url(#linearGradient7345)" />
    <path
   id="_354764272"
   class="fil42"
   d="M 0.157529,0.139068 C 0.167022,0.134734 0.2024032,0.137188 0.2098175,0.1590439 0.21719977,0.18081 0.166233,0.17375 0.157529,0.139068 z"
   inkscape:connector-curvature="0"
   style="fill:url(#linearGradient7347)" />
    <path
   id="_354763048"
   class="fil36"
   d="M 0.182076,0.140719 C 0.185403,0.14131866 0.1964958,0.145332 0.1973212,0.148211 0.19814319,0.151079 0.1824112,0.144961 0.182076,0.140719 z"
   inkscape:connector-curvature="0"
   style="fill:#c1ffff" />
    <path
   id="_354761200"
   class="fil43"
   d="M 0.205618,3.66462e-4 C 0.1918012,0.00298064 0.1768253,0.00704708 0.1618595,0.02754856 c -0.0162113,0.022206 -0.012306,0.0499231 -0.007696,0.0855202 0.00461,0.0355978 0.002289,0.0264764 0.001417,0.031923 -0.003382,-0.026853 -0.007875,-0.0522878 -0.0122979,-0.0778116 -0.003956,-0.0325974 0.0194769,-0.0625045 0.0520743,-0.066460798 l 6.8e-7,0 c 0.00346,-4.20173e-4 0.006889,-5.28276e-4 0.0102602,-3.52864e-4 z"
   inkscape:connector-curvature="0"
   style="fill:#3c682d" />
    <path
   id="_354744016"
   class="fil44"
   d="M 0.251412,0.186464 C 0.2618885,0.185191 0.2614458,0.178522 0.2614458,0.178522 0.26088285,0.17869265 0.2645368,0.171817 0.2161922,0.17748 0.1678471,0.183142 0.1737221,0.1891694 0.1737221,0.1891694 c 0,0 0.001165,0.006582 0.0116418,0.005311 0.0311316,-0.003779 0.0349165,-0.004238 0.0660481,-0.008016 z"
   inkscape:connector-curvature="0"
   style="fill:url(#id22)" />
    <path
   id="_354767344"
   class="fil45"
   d="m 0.173641,0.188496 c 0,0 0.001165,0.006583 0.0116411,0.005311 C 0.1957579,0.192536 0.228906,0.188513 0.228906,0.188513 M 0.2613634,0.1778496 c 0,0 4.4397e-4,0.00667 -0.0100325,0.007942 -0.0104765,0.001271 -0.0436239,0.005294 -0.0436239,0.005294"
   inkscape:connector-curvature="0"
   style="fill:none" />
    <path
   id="_354765208"
   class="fil46"
   d="M 0.185201,0.193134 0.2077768,0.190957 0.2289758,0.188384 0.2512497,0.185118 C 0.2584547,0.18411 0.2601077,0.18231 0.2620348,0.177822 c 6.8e-7,2.04e-5 4.7796e-4,0.007296 -0.010622,0.008643 -0.007403,0.001497 -0.0148067,0.002994 -0.02221,0.00449 -0.006701,0.001946 -0.0137576,0.002826 -0.021199,0.002573 l -0.0226397,9.5321e-4 c -0.0110999,0.001348 -0.0122258,-0.005287 -0.0122299,-0.005307 0.002227,0.00362 0.004064,0.004869 0.0120667,0.00396 z"
   inkscape:connector-curvature="0"
   style="fill:#224827;fill-rule:nonzero" />
    <path
   id="_354764032"
   class="fil47"
   d="M 0.233705,0.193875 C 0.238364,0.19330933 0.239329,0.199917 0.239329,0.199917 0.23906112,0.19984765 0.2277484,0.205933 0.2201268,0.207063 0.2125048,0.208194 0.2003141,0.204652 0.2003141,0.204652 c 0,0 -6.4318e-4,-0.006646 0.004015,-0.007211 C 0.2181744,0.19576 0.2198585,0.195556 0.2337045,0.193876 z"
   inkscape:connector-curvature="0"
   style="fill:url(#id17)" />
    <path
   id="_354753760"
   class="fil48"
   d="M 0.223876,0.171877 C 0.22262,0.17163972 0.218481,0.172969 0.21824,0.175787 0.218,0.178594 0.223858,0.17625952 0.223876,0.171877 z"
   inkscape:connector-curvature="0"
   style="fill:#61a53e" />
    <path
   id="_354753808"
   class="fil49"
   d="m 0.22148,0.173422 c -1.564e-5,-0.001589 -0.003142,8.0703e-4 -0.003085,0.002457 8.295e-5,0.002416 0.0031,-8.6822e-4 0.003085,-0.002457 z"
   inkscape:connector-curvature="0"
   style="fill:#528c36" />
    <path
   id="_354753592"
   class="fil48"
   d="M 0.208526,0.17374 C 0.209689,0.173209 0.214026,0.17350952 0.214934,0.176188 0.21583894,0.178856 0.209593,0.17799 0.208526,0.17374 z"
   inkscape:connector-curvature="0"
   style="fill:#61a53e" />
    <path
   id="_354753448"
   class="fil49"
   d="M 0.211223,0.174667 C 0.2108579,0.17312 0.214466,0.17469895 0.214806,0.176315 0.215303,0.178681 0.211588,0.17621302 0.211223,0.174667 z"
   inkscape:connector-curvature="0"
   style="fill:#528c36" />
    <path
   id="_354754360"
   class="fil48"
   d="m 0.279073,0.196626 c 1.353e-4,5.6907e-4 2.706e-4,0.001138 4.093e-4,0.00171 C 0.2834473,0.2310028 0.2599721,0.2608446 0.2273257,0.2648063 0.194729,0.2687623 0.1649035,0.2453199 0.1609478,0.2127225 c -1.904e-5,-6.6358e-4 -3.944e-5,-0.001326 -6.052e-5,-0.001987 0.006059,0.0301818 0.0351239,0.0556505 0.0661732,0.0518826 0.0310201,-0.003765 0.053226,-0.0352742 0.0520124,-0.0659924 z"
   inkscape:connector-curvature="0"
   style="fill:#61a53e" />
    <path
   id="_354753616"
   class="fil24"
   d="M 0.197286,5.20797e-4 C 0.1633145,0.0047878 0.140772,0.0350614 0.1446501,0.0670142 0.15260076,0.112896 0.1615441,0.1583924 0.1630779,0.2124642 0.166956,0.2444184 0.1936152,0.2698743 0.2292491,0.2645378 0.1960269,0.26966011 0.1649973,0.2460821 0.1609485,0.2127226 0.15941466,0.1586508 0.1512342,0.113062 0.1432835,0.0671806 0.13923066,0.0337857 0.1638482,0.003489 0.197286,5.21297e-4 z"
   inkscape:connector-curvature="0"
   style="fill:#74e9f0" />
    <path
   id="_354761488"
   class="fil50"
   d="M 0.390125,0.111338 C 0.3519783,0.0845469 0.3048924,0.107395 0.3027623,0.108952 c -1.292e-5,2.3456e-4 -4.759e-5,3.0119e-4 -7.547e-5,8.3423e-4 -6.6697e-4,-4.1746e-4 0.0472212,-0.0251961 0.0875368,0.002919 -7.207e-5,-7.1253e-4 -2.175e-5,-7.1661e-4 -9.858e-5,-0.001367 z"
   inkscape:connector-curvature="0"
   style="fill:#eec8f0" />
    <path
   id="_354752584"
   class="fil51"
   d="M 0.285423,0.344926 C 0.286701,0.3211577 0.289849,0.2675094 0.292538,0.2611293 0.296004,0.2529013 0.3043919,0.2509629 0.3074406,0.2584603 c 0.001063,0.0177316 0.004832,0.062733 0.0115398,0.0864659 l -0.0335574,0 z"
   inkscape:connector-curvature="0"
   style="fill:url(#id27)" />
    <path
   id="_354752368"
   class="fil52"
   d="M 0.282979,0.344926 C 0.285185,0.3211828 0.290357,0.2675856 0.2927,0.2606622 0.295721,0.2517312 0.306939,0.2475695 0.3074401,0.2584602 0.3062791,0.2943884 0.3063981,0.3249108 0.3090091,0.3449261 l -0.0260297,0 z"
   inkscape:connector-curvature="0"
   style="fill:url(#id30)" />
    <path
   id="_354752224"
   class="fil53"
   d="M 0.282993,0.344926 C 0.285261,0.3208136 0.2906,0.2659402 0.2927,0.2606622 0.295399,0.2538772 0.296388,0.2534032 0.300426,0.2522992 0.295497,0.2539702 0.294775,0.2577642 0.293489,0.2612582 0.292485,0.2639882 0.287772,0.3203707 0.285757,0.3449257 l -0.002764,0 z"
   inkscape:connector-curvature="0"
   style="fill:url(#id3)" />
    <path
   id="_354751696"
   class="fil54"
   d="M 0.39984,0.344926 C 0.39981756,0.3214527 0.39950141,0.2689338 0.397153,0.2626727 0.394117,0.2545797 0.3859531,0.2526722 0.3826135,0.2600477 0.3807415,0.27768 0.3803305,0.3207349 0.3753605,0.3449261 l 0.0244795,0 z"
   inkscape:connector-curvature="0"
   style="fill:#7c2772" />
    <path
   id="_354751552"
   class="fil55"
   d="M 0.402761,0.344926 C 0.4017,0.3212896 0.399111,0.2681778 0.397015,0.2622137 0.394308,0.2545147 0.3833233,0.2514884 0.3826149,0.2600477 0.38212538,0.2952831 0.3806279,0.3252337 0.3771719,0.3449261 l 0.0255891,0 z"
   inkscape:connector-curvature="0"
   style="fill:url(#id12)" />
    <path
   id="_354751336"
   class="fil56"
   d="M 0.388079,0.2549 C 0.385308,0.25470827 0.382932,0.256216 0.382614,0.260048 0.38212516,0.2952834 0.380627,0.325234 0.377173,0.3449264 l 9.0358e-4,0 c 0.003455,-0.0196924 0.004953,-0.049643 0.005443,-0.0848784 2.8215e-4,-0.003407 0.002192,-0.004977 0.00456,-0.005148 z"
   inkscape:connector-curvature="0"
   style="fill:#d273d9" />
    <path
   id="_354751144"
   class="fil57"
   d="m 0.365183,0.239368 c 0,0 -0.004274,0.0058 -0.00173,0.008955 0.002544,0.003155 0.005088,0.004375 0.008344,0.006716 0.003257,0.002341 0.007225,0.00224 0.006207,0.00458 -0.001017,0.002341 -0.003219,0.003246 -0.003219,0.003246 0,0 -0.003302,0.006123 0.002201,0.005506 0.005502,-6.1666e-4 0.008529,-0.001454 0.009865,-0.001947 0.001336,-4.936e-4 0.00423,0.008206 0.00423,0.008206 0,0 -0.002544,-6.6085e-4 -0.003867,0.001781 -0.001323,0.002442 -7.2136e-4,0.003709 5.0856e-4,0.004884 0.00123,0.001176 0.008445,6.0646e-4 0.0110408,-0.002546 -9.179e-5,-0.001624 -1.8221e-4,-0.003478 -3.6102e-4,-0.006374 -7.207e-5,-0.00117 -5.5751e-4,-0.004073 -4.4669e-4,-0.004781 6.9349e-4,-0.004419 0.003125,-0.00447 0.003125,-0.00447 l -0.005239,-0.003278 -0.001873,-0.002132 -0.003063,-0.008883 -8.1111e-4,-0.004564 -0.002471,-0.00622 -0.0224426,0.001319 z"
   inkscape:connector-curvature="0"
   style="fill:url(#id16)" />
    <path
   id="_354751072"
   class="fil58"
   d="m 0.380066,0.236887 c -0.007623,4.487e-5 -0.009271,-0.004385 -0.0147944,-7.2545e-4 -0.005522,0.003661 -0.004337,0.0152534 0.007014,0.0145544 0.0113522,-6.9757e-4 0.008705,-0.00539 0.0144844,-0.004598 0.00578,7.9004e-4 0.0112209,-0.001498 0.007646,-0.007787 -0.005589,-0.00983 -0.006727,-0.001489 -0.0143505,-0.001444 z"
   inkscape:connector-curvature="0"
   style="fill:url(#linearGradient7349)" />
    <path
   id="_354750064"
   class="fil21"
   d="m 0.362178,0.243907 c 5.9967e-4,0.003755 0.003767,0.007199 0.010108,0.006809 0.0113522,-6.9825e-4 0.008704,-0.00539 0.0144844,-0.004599 0.005751,7.8664e-4 0.0111652,-0.001476 0.007697,-0.007694 5.2964e-4,0.004026 -0.003993,0.005458 -0.008745,0.004808 -0.00578,-7.9139e-4 -0.003132,0.003901 -0.0144837,0.004599 -0.00464,2.8555e-4 -0.007581,-0.001484 -0.00906,-0.003924 z"
   inkscape:connector-curvature="0"
   style="fill:#7dc05c" />
    <path
   id="_354750304"
   class="fil25"
   d="m 0.380067,0.236887 c -0.007624,4.487e-5 -0.009272,-0.004385 -0.0147944,-7.2545e-4 -0.002977,0.001973 -0.004004,0.00625 -0.002541,0.009665 -8.1519e-4,-0.003172 2.8963e-4,-0.006747 0.002936,-0.008501 0.005523,-0.003661 0.007171,7.7032e-4 0.0147944,7.2477e-4 0.007623,-4.487e-5 0.008761,-0.008385 0.0143491,0.001445 2.2912e-4,4.025e-4 4.2085e-4,7.8935e-4 5.7859e-4,0.001159 -1.7609e-4,-7.0369e-4 -4.9292e-4,-0.001477 -9.7361e-4,-0.002323 -0.005589,-0.00983 -0.006726,-0.001489 -0.0143498,-0.001444 z"
   inkscape:connector-curvature="0"
   style="fill:#ddf6a2" />
    <path
   id="_354750184"
   class="fil59"
   d="m 0.387154,0.252606 c -0.007195,0.00252 -0.0140214,-0.004575 -0.0180545,6.8057e-4 -0.004033,0.005256 0.004659,0.0151711 0.0151677,0.0108205 0.0105084,-0.004349 0.007165,-0.006224 0.0128887,-0.007355 0.005723,-0.001131 0.007053,-0.006474 0.0047,-0.009849 -0.006466,-0.009276 -0.007507,0.003183 -0.014702,0.005703 z"
   inkscape:connector-curvature="0"
   style="fill:url(#id28)" />
    <path
   id="_354749944"
   class="fil21"
   d="M 0.368244,0.25761 C 0.36934,0.262477 0.376278,0.267415 0.384267,0.264108 0.3947761,0.259758 0.391432,0.257882 0.3971557,0.256752 c 0.005723,-0.001131 0.007054,-0.006473 0.004701,-0.009848 -8.635e-5,-1.2306e-4 -1.7065e-4,-2.4136e-4 -2.5496e-4,-3.5694e-4 5.5955e-4,0.003081 -0.001229,0.006543 -0.005706,0.007428 -0.005723,0.001131 -0.00238,0.003006 -0.0128887,0.007356 -0.006441,0.002666 -0.0121973,-2.72e-5 -0.0147625,-0.003721 z"
   inkscape:connector-curvature="0"
   style="fill:#7dc05c" />
    <path
   id="_354749800"
   class="fil25"
   d="m 0.387154,0.252606 c -0.007195,0.00252 -0.0140214,-0.004575 -0.0180545,6.8057e-4 -0.001766,0.002301 -0.001093,0.005494 0.001103,0.007993 -0.001573,-0.002316 -0.001896,-0.005009 -3.515e-4,-0.007021 0.004034,-0.005256 0.0108599,0.001839 0.0180552,-6.8125e-4 0.006819,-0.002388 0.00811,-0.0136991 0.0137311,-0.00698 -0.006272,-0.008684 -0.007371,0.003518 -0.0144837,0.006009 z"
   inkscape:connector-curvature="0"
   style="fill:#ddf6a2" />
    <path
   id="_354749248"
   class="fil60"
   d="m 0.390923,0.263446 c -0.005576,0.002707 -0.007284,3.8142e-4 -0.0100522,0.005003 -0.002768,0.004622 0.002168,0.0127106 0.0102501,0.008216 0.008083,-0.004494 0.006537,-0.007662 0.011055,-0.009109 0.004517,-0.001447 0.005265,-0.005957 3.3587e-4,-0.009164 -0.006042,-0.00393 -0.006012,0.002346 -0.0115888,0.005054 z"
   inkscape:connector-curvature="0"
   style="fill:url(#id29)" />
    <path
   id="_354749104"
   class="fil21"
   d="m 0.380453,0.273489 c 0.001181,0.003503 0.005205,0.006214 0.0106682,0.003176 0.008083,-0.004494 0.006536,-0.007662 0.0110544,-0.009109 0.0042,-0.001346 0.005141,-0.005339 0.00129,-0.00847 5.9083e-4,0.002233 -7.6012e-4,0.004336 -0.003586,0.005242 -0.004517,0.001447 -0.002971,0.004614 -0.0110537,0.009109 -0.003508,0.001951 -0.006423,0.00153 -0.008373,5.235e-5 z"
   inkscape:connector-curvature="0"
   style="fill:#7dc05c" />
    <path
   id="_354748864"
   class="fil25"
   d="M 0.390924,0.263446 C 0.385348,0.266153 0.383639,0.26382674 0.3808711,0.268449 0.3793601,0.270973 0.38014566,0.274531 0.3824871,0.276509 0.3808361,0.27447 0.3804221,0.271512 0.3817297,0.269328 0.3844977,0.264705 0.3862057,0.267032 0.3917826,0.264325 0.3973586,0.261618 0.3973276,0.255342 0.4033707,0.259271 c 4.7184e-4,3.0731e-4 8.9066e-4,6.2618e-4 0.001261,9.5253e-4 -5.3032e-4,-6.357e-4 -0.001233,-0.001254 -0.002119,-0.001832 -0.006043,-0.00393 -0.006012,0.002346 -0.0115881,0.005054 z"
   inkscape:connector-curvature="0"
   style="fill:#ddf6a2" />
    <path
   id="_354749632"
   class="fil61"
   d="M 0.36303,0.213489 C 0.368286,0.21256843 0.368487,0.220163 0.368487,0.220163 0.36819737,0.22006102 0.366331,0.227454 0.3463946,0.227657 0.3264574,0.22786029 0.3243144,0.220163 0.3243144,0.220163 c 0,0 1.9853e-4,-0.007513 0.005457,-0.006674 0.0147101,0.002345 0.018234,0.00263 0.0332583,0 z"
   inkscape:connector-curvature="0"
   style="fill:url(#id10)" />
    <path
   id="_354748432"
   class="fil62"
   d="M 0.367176,0.206982 C 0.373663,0.205101 0.373993,0.200308 0.373993,0.200308 0.3736313,0.20040998 0.371299,0.193017 0.3463935,0.192814 0.3214877,0.19261071 0.3188103,0.200308 0.3188103,0.200308 c 0,0 3.3043e-4,0.004796 0.006817,0.006674 0.0184033,0.005331 0.0228111,0.005435 0.0415482,0 z"
   inkscape:connector-curvature="0"
   style="fill:url(#id7)" />
    <path
   id="_354748024"
   class="fil63"
   d="M 0.361386,0.196347 C 0.360139,0.198022 0.356819,0.19637352 0.35643,0.192076 0.35598127,0.187121 0.362646,0.194422 0.361386,0.196347 z"
   inkscape:connector-curvature="0"
   style="fill:#912783" />
    <path
   id="_354747952"
   class="fil64"
   d="M 0.359735,0.195682 C 0.35990089,0.198107 0.3567,0.19503202 0.356566,0.192506 0.35636883,0.188807 0.359568,0.1932566 0.359735,0.195682 z"
   inkscape:connector-curvature="0"
   style="fill:#72155b" />
    <path
   id="_354747256"
   class="fil63"
   d="M 0.329805,0.195562 C 0.331052,0.197237 0.334372,0.19558852 0.334761,0.191291 0.33520973,0.186336 0.328545,0.193637 0.329805,0.195562 z"
   inkscape:connector-curvature="0"
   style="fill:#912783" />
    <path
   id="_354747040"
   class="fil64"
   d="M 0.331458,0.194898 C 0.33129143,0.197323 0.334492,0.19424802 0.334626,0.191721 0.33482317,0.188022 0.331624,0.19247228 0.331458,0.194898 z"
   inkscape:connector-curvature="0"
   style="fill:#72155b" />
    <path
   id="_354748312"
   class="fil65"
   d="M 0.374166,0.199763 C 0.37317812,0.2157643 0.3189166,0.2158377 0.3186365,0.20032187 0.3205655,0.21138167 0.3686045,0.21455267 0.374166,0.199763 z"
   inkscape:connector-curvature="0"
   style="fill:#2e0823;fill-rule:nonzero" />
    <path
   id="_354747208"
   class="fil19"
   d="M 0.368152,0.0136257 C 0.3784789,4.691e-4 0.3935718,-0.0019214 0.396651,0.00708922 0.39587864,0.00552547 0.39463104,0.00439345 0.39271579,0.00400999 0.38237869,0.00194312 0.37480199,0.00680095 0.36815199,0.0136257 z"
   inkscape:connector-curvature="0"
   style="fill:#ccccff" />
    <path
   id="_354757504"
   class="fil6"
   d="m 0.288519,0.336692 c 0.0672991,-8.2131e-4 0.0720957,0.0245584 0.13034,-0.009533 0.00145,0.0108361 6.9621e-4,0.006276 0.001101,0.0107817 0,0.0154995 -0.0610155,0.025139 -0.139476,0.025139 -0.0784609,0 -0.139655,-0.00964 -0.139655,-0.025139 0,-0.001964 1.7949e-4,-0.004735 8.9406e-4,-0.009064 0.0589215,0.0381576 0.0794957,0.008637 0.146795,0.007815 z"
   inkscape:connector-curvature="0"
   style="fill:#ffffff" />
    <path
   id="_354746584"
   class="fil66"
   d="m 0.288519,0.33729 c 0.0672991,-8.2131e-4 0.0720957,0.0245584 0.13034,-0.009533 0.00145,0.0108361 6.9621e-4,0.006276 0.001101,0.0107817 0,0.0154995 -0.0610155,0.025139 -0.139476,0.025139 -0.0784609,0 -0.139655,-0.00964 -0.139655,-0.025139 0,-0.001964 1.7949e-4,-0.004735 8.9406e-4,-0.009064 0.0589215,0.0381576 0.0794957,0.008637 0.146795,0.007815 z"
   inkscape:connector-curvature="0"
   style="fill:url(#id0)" />
    <path
   id="_354746344"
   class="fil12"
   d="M 0.141469,0.331105 3.29e-4,0.349014 0.140921,0.3370656 0.14146899,0.3311046 z m 0.277823,-4.6573e-4 0.141498,0.0184135 -0.14095,-0.0124529 -5.4731e-4,-0.005961 z m -0.140734,0.033038 0.011463,-6.051e-5 -0.004467,0.0415047 -0.006996,-0.0414442 z"
   inkscape:connector-curvature="0"
   style="fill:#669999" />
    <path
   id="_354745816"
   class="fil67"
   d="M 0.141377,0.332578 0,0.3490525 0.14083,0.3385387 0.14137731,0.3325777 z m 0.278035,0 L 0.560789,0.3490525 0.41996,0.3385387 0.41941201,0.3325777 z m -0.139591,0.0310989 0.0114637,-6.051e-5 -0.005731,0.0415047 -0.005732,-0.0414442 z"
   inkscape:connector-curvature="0"
   style="fill:#e6e6e6" />
    <path
   id="_354745744"
   class="fil68 str4"
   d="m 0.466787,0.370852 c 0.005839,0 0.0102766,0.002692 0.0102766,0.001218 0,-0.001473 -0.004734,-0.00751 -0.010573,-0.00751 -0.005839,0 -0.010573,0.006037 -0.010573,0.00751 0,0.001473 0.005031,-0.001218 0.0108694,-0.001218 z"
   inkscape:connector-curvature="0"
   style="fill:#d0e8e8;stroke:#ffffff;stroke-width:0.00051808" />
    <path
   id="_354745528"
   class="fil69"
   d="m 0.46649,0.372177 c 0.005839,0 0.010573,-0.001259 0.010573,0 0,0.00126 -0.004734,0.002282 -0.010573,0.002282 -0.005839,0 -0.010573,-0.001022 -0.010573,-0.002282 0,-0.001259 0.004734,0 0.010573,0 z"
   inkscape:connector-curvature="0"
   style="fill:#336666" />
    <ellipse
   id="_354745384"
   class="fil12"
   cx="0.46649"
   cy="0.37207001"
   rx="0.0105729"
   ry="0.0021738501"
   sodipodi:cx="0.46649"
   sodipodi:cy="0.37207001"
   sodipodi:rx="0.0105729"
   sodipodi:ry="0.0021738501"
   style="fill:#669999"
   d="m 0.4770629,0.37207001 c 0,0.001201 -0.004734,0.002174 -0.0105729,0.002174 -0.005839,0 -0.0105729,-9.7326e-4 -0.0105729,-0.002174 0,-0.001201 0.004734,-0.002174 0.0105729,-0.002174 0.005839,0 0.0105729,9.7327e-4 0.0105729,0.002174 z" />
    <path
   id="_354745192"
   class="fil68 str4"
   d="m 0.377131,0.387808 c 0.005839,0 0.0102766,0.002692 0.0102766,0.001218 0,-0.001473 -0.004734,-0.00751 -0.010573,-0.00751 -0.005839,0 -0.010573,0.006037 -0.010573,0.00751 0,0.001473 0.005031,-0.001218 0.0108694,-0.001218 z"
   inkscape:connector-curvature="0"
   style="fill:#d0e8e8;stroke:#ffffff;stroke-width:0.00051808" />
    <path
   id="_354744616"
   class="fil69"
   d="m 0.376835,0.389133 c 0.005839,0 0.010573,-0.001259 0.010573,0 0,0.00126 -0.004734,0.002282 -0.010573,0.002282 -0.005839,0 -0.010573,-0.001022 -0.010573,-0.002282 0,-0.001259 0.004734,0 0.010573,0 z"
   inkscape:connector-curvature="0"
   style="fill:#336666" />
    <ellipse
   id="_354744472"
   class="fil12"
   cx="0.37683499"
   cy="0.38902599"
   rx="0.0105729"
   ry="0.0021738501"
   sodipodi:cx="0.37683499"
   sodipodi:cy="0.38902599"
   sodipodi:rx="0.0105729"
   sodipodi:ry="0.0021738501"
   style="fill:#669999"
   d="m 0.38740789,0.38902599 c 0,0.001201 -0.004734,0.002174 -0.0105729,0.002174 -0.005839,0 -0.0105729,-9.7327e-4 -0.0105729,-0.002174 0,-0.001201 0.004734,-0.002174 0.0105729,-0.002174 0.005839,0 0.0105729,9.7326e-4 0.0105729,0.002174 z" />
    <path
   id="_354744280"
   class="fil68 str4"
   d="m 0.455415,0.323059 c 0.005481,0 0.009647,0.002527 0.009647,0.001144 0,-0.001384 -0.004444,-0.00705 -0.009925,-0.00705 -0.005481,0 -0.009925,0.005666 -0.009925,0.00705 0,0.001383 0.004722,-0.001144 0.0102031,-0.001144 z"
   inkscape:connector-curvature="0"
   style="fill:#d0e8e8;stroke:#ffffff;stroke-width:0.00051808" />
    <path
   id="_354744064"
   class="fil69"
   d="m 0.455137,0.324303 c 0.005481,0 0.009925,-0.001182 0.009925,0 0,0.001182 -0.004444,0.002142 -0.009925,0.002142 -0.005481,0 -0.009925,-9.5933e-4 -0.009925,-0.002142 0,-0.001182 0.004444,0 0.009925,0 z"
   inkscape:connector-curvature="0"
   style="fill:#336666" />
    <ellipse
   id="_354743920"
   class="fil12"
   cx="0.455136"
   cy="0.32420301"
   rx="0.0099250004"
   ry="0.00204064"
   sodipodi:cx="0.455136"
   sodipodi:cy="0.32420301"
   sodipodi:rx="0.0099250004"
   sodipodi:ry="0.00204064"
   style="fill:#669999"
   d="m 0.465061,0.32420301 c 0,0.001127 -0.004444,0.002041 -0.009925,0.002041 -0.005481,0 -0.009925,-9.1362e-4 -0.009925,-0.002041 0,-0.001127 0.004444,-0.002041 0.009925,-0.002041 0.005481,0 0.009925,9.1363e-4 0.009925,0.002041 z" />
    <rect
   id="_354744232"
   class="fil69"
   x="0.28342199"
   y="0.40512699"
   width="0.0033199301"
   height="0.037889902"
   style="fill:#336666" />
    <rect
   id="_354743800"
   class="fil12"
   x="0.28397599"
   y="0.40512699"
   width="0.0033199301"
   height="0.037889902"
   style="fill:#669999" />
    <polygon
   id="_354743560"
   class="fil69"
   points="0.491402,0.42082 0.491402,0.385992 0.488035,0.386757 0.488035,0.421664 "
   style="fill:#336666" />
    <polygon
   id="_354743416"
   class="fil12"
   points="0.490841,0.420986 0.490841,0.386088 0.487474,0.386757 0.487474,0.421787 "
   style="fill:#669999" />
    <path
   id="_354742792"
   class="fil68 str4"
   d="m 0.286885,0.39275 c 0.005839,0 0.0102766,0.002692 0.0102766,0.001218 0,-0.001473 -0.004734,-0.00751 -0.010573,-0.00751 -0.00584,0 -0.010573,0.006037 -0.010573,0.00751 0,0.001473 0.00503,-0.001218 0.0108694,-0.001218 z"
   inkscape:connector-curvature="0"
   style="fill:#d0e8e8;stroke:#ffffff;stroke-width:0.00051808" />
    <path
   id="_354742648"
   class="fil69"
   d="m 0.286589,0.394076 c 0.005839,0 0.010573,-0.001259 0.010573,0 0,0.00126 -0.004734,0.002282 -0.010573,0.002282 -0.00584,0 -0.010573,-0.001022 -0.010573,-0.002282 0,-0.001259 0.004733,0 0.010573,0 z"
   inkscape:connector-curvature="0"
   style="fill:#336666" />
    <ellipse
   id="_354747592"
   class="fil12"
   cx="0.286589"
   cy="0.393969"
   rx="0.0105729"
   ry="0.0021738501"
   sodipodi:cx="0.286589"
   sodipodi:cy="0.393969"
   sodipodi:rx="0.0105729"
   sodipodi:ry="0.0021738501"
   style="fill:#669999"
   d="m 0.2971619,0.393969 c 0,0.001201 -0.004734,0.002174 -0.0105729,0.002174 -0.005839,0 -0.0105729,-9.7327e-4 -0.0105729,-0.002174 0,-0.001201 0.004734,-0.002174 0.0105729,-0.002174 0.005839,0 0.0105729,9.7327e-4 0.0105729,0.002174 z" />
    <rect
   id="_354743128"
   class="fil69"
   transform="matrix(0.878873,0.0804368,0,0.927308,0.169602,0.400652)"
   width="0.00377748"
   height="0.040860102"
   x="0"
   y="0"
   style="fill:#336666" />
    <rect
   id="_354767584"
   class="fil12"
   transform="matrix(0.878873,0.0804368,0,0.927308,0.170155,0.400702)"
   width="0.00377748"
   height="0.040860102"
   x="0"
   y="0"
   style="fill:#669999" />
    <rect
   id="_354767752"
   class="fil69"
   transform="matrix(-0.878873,0.0812361,0,0.936523,0.397513,0.400015)"
   width="0.00377748"
   height="0.040860102"
   x="0"
   y="0"
   style="fill:#336666" />
    <rect
   id="_354768520"
   class="fil12"
   transform="matrix(-0.878873,0.0812361,0,0.936523,0.396959,0.400066)"
   width="0.00377748"
   height="0.040860102"
   x="0"
   y="0"
   style="fill:#669999" />
    <path
   id="_354768280"
   class="fil70"
   d="M 0.438541,0.378858 0.3882752,0.3572218 0.3721856,0.36092721 0.388505,0.38682291 c 0,0 0.0333752,-0.003294 0.050036,-0.007965 z"
   inkscape:connector-curvature="0"
   style="fill:#99cccc" />
    <path
   id="_354768256"
   class="fil68 str4"
   d="m 0.0956132,0.370852 c -0.0058389,0 -0.0102766,0.002692 -0.0102766,0.001218 0,-0.001473 0.0047341,-0.00751 0.010573,-0.00751 0.0058396,0 0.010573,0.006037 0.010573,0.00751 0,0.001473 -0.00503,-0.001218 -0.0108694,-0.001218 z"
   inkscape:connector-curvature="0"
   style="fill:#d0e8e8;stroke:#ffffff;stroke-width:0.00051808" />
    <path
   id="_354767944"
   class="fil69"
   d="m 0.0959096,0.372177 c -0.0058389,0 -0.010573,-0.001259 -0.010573,0 0,0.00126 0.0047341,0.002282 0.010573,0.002282 0.0058396,0 0.010573,-0.001022 0.010573,-0.002282 0,-0.001259 -0.004733,0 -0.010573,0 z"
   inkscape:connector-curvature="0"
   style="fill:#336666" />
    <ellipse
   id="_354769168"
   class="fil12"
   cx="0.095909797"
   cy="0.37207001"
   rx="0.0105729"
   ry="0.0021738501"
   sodipodi:cx="0.095909797"
   sodipodi:cy="0.37207001"
   sodipodi:rx="0.0105729"
   sodipodi:ry="0.0021738501"
   style="fill:#669999"
   d="m 0.1064827,0.37207001 c 0,0.001201 -0.004734,0.002174 -0.0105729,0.002174 -0.0058393,0 -0.0105729,-9.7326e-4 -0.0105729,-0.002174 0,-0.001201 0.0047337,-0.002174 0.0105729,-0.002174 0.0058392,0 0.0105729,9.7327e-4 0.0105729,0.002174 z" />
    <path
   id="_354769048"
   class="fil68 str4"
   d="m 0.185269,0.387808 c -0.005839,0 -0.0102766,0.002692 -0.0102766,0.001218 0,-0.001473 0.004734,-0.00751 0.010573,-0.00751 0.00584,0 0.010573,0.006037 0.010573,0.00751 0,0.001473 -0.00503,-0.001218 -0.0108694,-0.001218 z"
   inkscape:connector-curvature="0"
   style="fill:#d0e8e8;stroke:#ffffff;stroke-width:0.00051808" />
    <path
   id="_354768856"
   class="fil69"
   d="m 0.185565,0.389133 c -0.005839,0 -0.010573,-0.001259 -0.010573,0 0,0.00126 0.004734,0.002282 0.010573,0.002282 0.00584,0 0.010573,-0.001022 0.010573,-0.002282 0,-0.001259 -0.004733,0 -0.010573,0 z"
   inkscape:connector-curvature="0"
   style="fill:#336666" />
    <ellipse
   id="_354768664"
   class="fil12"
   cx="0.18556499"
   cy="0.38902599"
   rx="0.0105729"
   ry="0.0021738501"
   sodipodi:cx="0.18556499"
   sodipodi:cy="0.38902599"
   sodipodi:rx="0.0105729"
   sodipodi:ry="0.0021738501"
   style="fill:#669999"
   d="m 0.19613789,0.38902599 c 0,0.001201 -0.004734,0.002174 -0.0105729,0.002174 -0.005839,0 -0.0105729,-9.7327e-4 -0.0105729,-0.002174 0,-0.001201 0.004734,-0.002174 0.0105729,-0.002174 0.005839,0 0.0105729,9.7326e-4 0.0105729,0.002174 z" />
    <path
   id="_354769336"
   class="fil68 str4"
   d="m 0.106985,0.323059 c -0.005481,0 -0.0096463,0.002527 -0.0096463,0.001144 0,-0.001384 0.0044431,-0.00705 0.0099251,-0.00705 0.005481,0 0.009924,0.005666 0.009924,0.00705 0,0.001383 -0.004722,-0.001144 -0.0102031,-0.001144 z"
   inkscape:connector-curvature="0"
   style="fill:#d0e8e8;stroke:#ffffff;stroke-width:0.00051808" />
    <path
   id="_354769528"
   class="fil69"
   d="m 0.107264,0.324303 c -0.005482,0 -0.0099251,-0.001182 -0.0099251,0 0,0.001182 0.0044431,0.002142 0.0099251,0.002142 0.005481,0 0.009924,-9.5933e-4 0.009924,-0.002142 0,-0.001182 -0.004443,0 -0.009924,0 z"
   inkscape:connector-curvature="0"
   style="fill:#336666" />
    <ellipse
   id="_354769720"
   class="fil12"
   cx="0.107263"
   cy="0.32420301"
   rx="0.0099250004"
   ry="0.00204064"
   sodipodi:cx="0.107263"
   sodipodi:cy="0.32420301"
   sodipodi:rx="0.0099250004"
   sodipodi:ry="0.00204064"
   style="fill:#669999"
   d="m 0.117188,0.32420301 c 0,0.001127 -0.004444,0.002041 -0.009925,0.002041 -0.005481,0 -0.009925,-9.1362e-4 -0.009925,-0.002041 0,-0.001127 0.0044436,-0.002041 0.009925,-0.002041 0.005481,0 0.009925,9.1363e-4 0.009925,0.002041 z" />
    <polygon
   id="_354769312"
   class="fil69"
   points="0.0815932,0.422953 0.0815932,0.388609 0.0849131,0.389363 0.0849131,0.423784 "
   style="fill:#336666" />
    <polygon
   id="_354770008"
   class="fil12"
   points="0.0821466,0.423116 0.0821466,0.388703 0.0854665,0.389363 0.0854665,0.423906 "
   style="fill:#669999" />
    <path
   id="_354770200"
   class="fil70"
   d="M 0.120218,0.378858 0.1704838,0.3572218 0.1865734,0.3609268 0.1702546,0.3868225 c 0,0 -0.0333752,-0.003294 -0.0500366,-0.007965 z"
   inkscape:connector-curvature="0"
   style="fill:#99cccc" />
   </g>
  </g>
 </g>
</svg>
