<?xml version="1.0" encoding="UTF-8" standalone="no"?>
<!-- Creator: CorelDRAW -->

<svg
   xmlns:dc="http://purl.org/dc/elements/1.1/"
   xmlns:cc="http://creativecommons.org/ns#"
   xmlns:rdf="http://www.w3.org/1999/02/22-rdf-syntax-ns#"
   xmlns:svg="http://www.w3.org/2000/svg"
   xmlns="http://www.w3.org/2000/svg"
   xmlns:xlink="http://www.w3.org/1999/xlink"
   xmlns:sodipodi="http://sodipodi.sourceforge.net/DTD/sodipodi-0.dtd"
   xmlns:inkscape="http://www.inkscape.org/namespaces/inkscape"
   xml:space="preserve"
   width="5.4833598in"
   height="5.4833598in"
   style="fill-rule:evenodd"
   viewBox=""
   id="svg10307"
   version="1.1"
   inkscape:version="0.48.3.1 r9886"
   sodipodi:docname="player18.svg"><metadata
   id="metadata10438"><rdf:RDF><cc:Work
       rdf:about=""><dc:format>image/svg+xml</dc:format><dc:type
         rdf:resource="http://purl.org/dc/dcmitype/StillImage" /></cc:Work></rdf:RDF></metadata><sodipodi:namedview
   pagecolor="#ffffff"
   bordercolor="#666666"
   borderopacity="1"
   objecttolerance="10"
   gridtolerance="10"
   guidetolerance="10"
   inkscape:pageopacity="0"
   inkscape:pageshadow="2"
   inkscape:window-width="1366"
   inkscape:window-height="713"
   id="namedview10436"
   showgrid="false"
   inkscape:zoom="0.99315516"
   inkscape:cx="246.75119"
   inkscape:cy="252.91321"
   inkscape:window-x="-2"
   inkscape:window-y="-3"
   inkscape:window-maximized="1"
   inkscape:current-layer="svg10307" />
 <defs
   id="defs10309">
  <style
   type="text/css"
   id="style10311">
   
    .fil20 {fill:#462F1A}
    .fil23 {fill:#58340F}
    .fil24 {fill:#723902}
    .fil10 {fill:#753900}
    .fil17 {fill:#763800}
    .fil22 {fill:#763B02}
    .fil21 {fill:#7C3800}
    .fil14 {fill:#853F00}
    .fil19 {fill:#884401}
    .fil18 {fill:#8D4100}
    .fil13 {fill:#9A4D04}
    .fil4 {fill:#9C4C00}
    .fil16 {fill:#CC6805}
    .fil12 {fill:#CD6C09}
    .fil11 {fill:#EF7D0C}
    .fil15 {fill:#FFAB38}
    .fil2 {fill:#E8D1AB;fill-rule:nonzero}
    .fil8 {fill:#EF7D0C;fill-opacity:0.501961}
    .fil7 {fill:url(#id0)}
    .fil9 {fill:url(#id1)}
    .fil3 {fill:url(#id2)}
    .fil5 {fill:url(#id3)}
    .fil26 {fill:url(#id4)}
    .fil25 {fill:url(#id5)}
    .fil6 {fill:url(#id6)}
    .fil1 {fill:url(#id7)}
    .fil0 {fill:url(#id8)}
  </style>
  <linearGradient
   id="id0"
   gradientUnits="userSpaceOnUse"
   x1="2.5122499"
   y1="2.7195001"
   x2="5.2389398"
   y2="0.044500802">
   <stop
   offset="0"
   style="stop-color:#2A2A2A"
   id="stop10314" />
   <stop
   offset="1"
   style="stop-color:#B35700"
   id="stop10316" />
  </linearGradient>
  <linearGradient
   id="id1"
   gradientUnits="userSpaceOnUse"
   x1="3.44245"
   y1="4.1550698"
   x2="5.2448201"
   y2="1.05345">
   <stop
   offset="0"
   style="stop-color:#2A2A2A"
   id="stop10319" />
   <stop
   offset="1"
   style="stop-color:#843E00"
   id="stop10321" />
  </linearGradient>
  <linearGradient
   id="id2"
   gradientUnits="userSpaceOnUse"
   x1="2.5952001"
   y1="4.8055301"
   x2="6.1043901"
   y2="0.67546302">
   <stop
   offset="0"
   style="stop-color:#2A2A2A"
   id="stop10324" />
   <stop
   offset="0.2"
   style="stop-color:#382A22"
   id="stop10326" />
   <stop
   offset="0.678431"
   style="stop-color:#964900"
   id="stop10328" />
   <stop
   offset="1"
   style="stop-color:#BF5F00"
   id="stop10330" />
  </linearGradient>
  <linearGradient
   id="id3"
   gradientUnits="userSpaceOnUse"
   xlink:href="#id0"
   x1="3.8058901"
   y1="4.9900098"
   x2="5.5750499"
   y2="2.4404099">
  </linearGradient>
  <linearGradient
   id="id4"
   gradientUnits="userSpaceOnUse"
   x1="1.5316499"
   y1="4.9375501"
   x2="8.9230604"
   y2="2.75632">
   <stop
   offset="0"
   style="stop-color:#845221"
   id="stop10334" />
   <stop
   offset="0.458824"
   style="stop-color:#F2B97D"
   id="stop10336" />
   <stop
   offset="1"
   style="stop-color:#FFD9A3"
   id="stop10338" />
  </linearGradient>
  <linearGradient
   id="id5"
   gradientUnits="userSpaceOnUse"
   x1="2.23294"
   y1="4.7912698"
   x2="7.5838399"
   y2="1.33105">
   <stop
   offset="0"
   style="stop-color:#562F09"
   id="stop10341" />
   <stop
   offset="0.529412"
   style="stop-color:#FFE7B9"
   id="stop10343" />
   <stop
   offset="1"
   style="stop-color:#C89158"
   id="stop10345" />
  </linearGradient>
  <linearGradient
   id="id6"
   gradientUnits="userSpaceOnUse"
   xlink:href="#id1"
   x1="4.3843198"
   y1="5.3545699"
   x2="5.62216"
   y2="3.9683599">
  </linearGradient>
  <linearGradient
   id="id7"
   gradientUnits="userSpaceOnUse"
   x1="2.6047299"
   y1="3.1598799"
   x2="8.3048201"
   y2="1.41555">
   <stop
   offset="0"
   style="stop-color:#230E00"
   id="stop10349" />
   <stop
   offset="0.678431"
   style="stop-color:#743300"
   id="stop10351" />
   <stop
   offset="1"
   style="stop-color:#EDBD8D"
   id="stop10353" />
  </linearGradient>
  <linearGradient
   id="id8"
   gradientUnits="userSpaceOnUse"
   x1="2.6442299"
   y1="2.3354599"
   x2="7.64605"
   y2="0.32793">
   <stop
   offset="0"
   style="stop-color:#461D00"
   id="stop10356" />
   <stop
   offset="1"
   style="stop-color:#EDBD8D"
   id="stop10358" />
  </linearGradient>
 <linearGradient
   inkscape:collect="always"
   xlink:href="#id0"
   id="linearGradient10744"
   gradientUnits="userSpaceOnUse"
   x1="2.5122499"
   y1="2.7195001"
   x2="5.2389398"
   y2="0.044500802" /><linearGradient
   inkscape:collect="always"
   xlink:href="#id1"
   id="linearGradient10746"
   gradientUnits="userSpaceOnUse"
   x1="3.44245"
   y1="4.1550698"
   x2="5.2448201"
   y2="1.05345" /></defs>
 <g
   id="Layer_x0020_1"
   transform="matrix(57.023338,0,0,56.732015,-3.3985682e-4,93.122429)">
  <metadata
   id="CorelCorpID_0Corel-Layer" />
  <g
   id="_354773824">
   <path
   id="_346274064"
   class="fil0"
   d="M 8.66836,1.42934 C 6.93631,0.15056 0.4721,2.358071 0.03263,4.24037 -0.583667,2.24606 7.72455,-0.55314 8.66836,1.42934 z"
   inkscape:connector-curvature="0"
   style="fill:url(#id8)" />
   <g
   id="g10364">
    <path
   id="_348826568"
   class="fil1"
   d="M 8.34835,1.48545 C 6.72853,0.28953 0.68316,2.353999 0.27216,4.11434 -0.304206,2.24925 7.4657,-0.36858 8.34835,1.48545 z"
   inkscape:connector-curvature="0"
   style="fill:url(#id7)" />
    <path
   id="_3488265681"
   class="fil2"
   d="m 0.268714,4.11593 0.006884,-0.00318 -0.006959,6.734e-4 0.0549885,-0.166605 0.0862021,-0.167534 0.115526,-0.167852 0.14298,-0.167553 0.168594,-0.166637 0.192369,-0.165103 0.214299,-0.162933 0.234401,-0.160115 0.252658,-0.156654 0.269088,-0.152551 0.283666,-0.147787 0.296417,-0.142394 0.30731,-0.136333 0.316376,-0.129624 0.323602,-0.12226 0.328983,-0.114254 0.332525,-0.105581 0.334221,-0.096278 0.33409,-0.086302 0.332101,-0.075683 0.328285,-0.064416 0.322623,-0.052482 0.315122,-0.039905 0.305782,-0.026674 0.294602,-0.012782 0.281583,0.00176 0.266737,0.01696 0.250045,0.03281 0.23152,0.049339 0.211169,0.066524 0.188971,0.084388 0.164934,0.102937 -0.00413,0.0072 -0.164099,-0.102414 -0.188235,-0.084063 -0.210545,-0.066324 -0.230984,-0.049215 -0.249596,-0.03276 -0.26635,-0.016935 -0.281259,-0.00175 -0.294303,0.01277 -0.30552,0.026649 -0.314885,0.039868 -0.322411,0.052457 -0.328085,0.064366 -0.331914,0.075646 -0.333903,0.086252 -0.334046,0.096228 -0.33235,0.105531 -0.328809,0.114192 -0.323428,0.122198 -0.316201,0.129549 -0.307123,0.136246 -0.296205,0.142294 -0.283454,0.147675 -0.268851,0.152414 -0.252396,0.156492 -0.234102,0.159915 -0.213962,0.162671 -0.19197002,0.164766 -0.168145,0.166188 -0.142456,0.166942 -0.11494,0.166992 -0.0856035,0.16635 -0.0544772,0.165022 -0.006959,6.734e-4 z M 8.346284,1.48905 8.350414,1.48185 8.345134,1.48762 8.243175,1.327555 8.103712,1.192475 7.929425,1.081469 7.723064,0.993652 7.487428,0.9281197 7.225318,0.8839556 6.939539,0.8602243 6.632897,0.8559903 6.308179,0.8702815 5.968191,0.9021685 5.61572,0.9506786 5.253572,1.0148765 l -0.369038,0.078907 -0.373147,0.09268 -0.374451,0.105481 -0.372973,0.117335 -0.368689,0.128228 -0.361631,0.13816 -0.351773,0.147133 -0.339116,0.155157 -0.323683,0.162216 -0.305445,0.168308 -0.28442,0.173458 -0.260595,0.177629 -0.23397699,0.180828 -0.204559,0.183054 -0.172348,0.184288 -0.137337,0.184525 -0.0995766,0.183721 -0.0590913,0.181894 -0.0159684,0.179163 0.0298481,0.175703 -0.006884,0.00318 -0.0302471,-0.178097 0.016168,-0.181545 0.0596899,-0.183802 0.100287,-0.185055 0.138011,-0.185423 0.172909,-0.184912 0.205046,-0.18349 0.23437599,-0.18114 0.260944,-0.177866 0.284719,-0.173632 0.305707,-0.168457 0.32392,-0.16234 0.33934,-0.155257 0.351973,-0.14722 0.36183,-0.138235 0.368889,-0.12829 0.37316,-0.117397 0.37465,-0.105531 0.373347,-0.09273 0.369263,-0.078957 0.362385,-0.0642354 0.352733,-0.0485475 0.340275,-0.0319119 0.325055,-0.0143161 0.307041,0.004246 0.286253,0.0237687 0.262684,0.0442639 0.236334,0.0657318 0.207222,0.0881911 0.175322,0.111667 0.140586,0.136177 0.102969,0.161686 -0.00527,0.00577 z"
   inkscape:connector-curvature="0"
   style="fill:#e8d1ab;fill-rule:nonzero" />
   </g>
   <g
   id="_346476480">
    <g
   id="g10369">
     <ellipse
   id="_353047472"
   class="fil3"
   cx="4.3498001"
   cy="2.7405"
   rx="2.6617501"
   ry="2.67715"
   sodipodi:cx="4.3498001"
   sodipodi:cy="2.7405"
   sodipodi:rx="2.6617501"
   sodipodi:ry="2.67715"
   style="fill:url(#id2)"
   d="m 7.0115502,2.7405 c 0,1.4785491 -1.1917061,2.67715 -2.6617501,2.67715 -1.470044,0 -2.6617501,-1.1986009 -2.6617501,-2.67715 0,-1.4785492 1.1917061,-2.67715004 2.6617501,-2.67715004 1.470044,0 2.6617501,1.19860084 2.6617501,2.67715004 z" />
     <path
   id="_346202984"
   class="fil4"
   d="M 2.37565,4.49733 C 3.049716,4.055882 2.571411,3.947925 3.20405,3.994203 3.836689,4.0404871 3.882973,4.0868585 4.20704,3.654745 4.531104,3.222631 4.700833,3.299886 5.132853,3.114668 5.56488,2.92945 5.537912,2.790604 5.860018,2.790604 c 0.322106,0 0.460946,0 0.707848,0 0.246896,0 0.445083,-0.199216 0.445083,-0.199216 0,0 -0.014553,0.486703 -0.047587,0.633574 -0.033034,0.146865 -0.461139,-0.00233 -0.783239,-0.00233 -0.322106,0 -0.216107,0.030883 -0.864141,0.324064 C 4.669942,3.83987 4.561892,3.762797 4.299602,3.994205 4.037305,4.225613 4.345786,4.287292 3.852087,4.395342 3.358388,4.503399 3.404572,4.426325 3.17317,4.534282 2.941762,4.642245 2.658096,4.769612 2.658096,4.769612 L 2.3756517,4.49733 z"
   inkscape:connector-curvature="0"
   style="fill:#9c4c00" />
     <path
   id="_346462824"
   class="fil5"
   d="M 2.37182,4.53204 C 3.045886,4.090592 2.567581,3.982635 3.20022,4.028913 3.832859,4.0751971 3.879143,4.1215685 4.20321,3.689455 4.527274,3.257335 4.697003,3.334596 5.12903,3.149378 5.56105,2.96416 5.534083,2.825314 5.856189,2.825314 c 0.322106,0 0.460952,0 0.707848,0 0.246896,0 0.44509,-0.199216 0.44509,-0.199216 0,0 -0.014559,0.486703 -0.047594,0.633574 C 6.928505,3.406537 6.5004,3.257332 6.178294,3.257332 c -0.322106,0 -0.216107,0.030889 -0.864141,0.32407 C 4.666119,3.874576 4.558069,3.797503 4.295773,4.028911 4.033482,4.260319 4.341964,4.321998 3.848264,4.430048 3.354558,4.538105 3.400749,4.461031 3.169341,4.568988 2.937933,4.676945 2.654273,4.804318 2.654273,4.804318 l -0.28245,-0.27228 z"
   inkscape:connector-curvature="0"
   style="fill:url(#id3)" />
     <path
   id="_346465560"
   class="fil6"
   d="M 3.28999,5.19706 C 3.678526,5.139858 3.586057,5.016413 4.156924,4.892962 4.727797,4.769517 5.08265,4.8004935 5.236984,4.568992 5.391318,4.33749 5.1733472,4.322096 5.51477,4.322096 c 0.341416,0 0.648034,-0.169823 0.848646,-0.231502 0.200619,-0.061679 0.353182,-0.123913 0.353182,-0.123913 0,0 -0.727539,0.895211 -0.860412,0.981332 C 5.723313,5.03414 5.360435,4.954643 5.098138,4.970129 4.835847,4.985617 4.342054,5.139952 4.249492,5.155353 4.156924,5.170748 3.779767,5.356152 3.779767,5.356152 L 3.28999,5.1970604 z"
   inkscape:connector-curvature="0"
   style="fill:url(#id6)" />
     <path
   id="_346202336"
   class="fil7"
   d="M 2.30529,1.45199 C 2.613865,1.050846 2.73731,1.004569 3.123053,0.834839 3.508796,0.66511 3.755692,0.495374 4.126043,0.510775 c 0.370348,0.0153948 0.873101,0.17579 1.13735,0.17579 0.097045,0 0.179531,-0.055612 0.27657,-0.211343 0.068307,-0.109453 0.523279,0.216481 0.523279,0.216481 0,0 -0.414387,-0.417842 -1.04805,-0.543064 C 4.381524,0.023417 4.215991,0.048426 3.999512,0.0863054 c -0.216481,0.0378853 -0.711583,0.175141 -0.91565,0.298593 -0.204067,0.123451 -1.17766,0.833906 -1.28674,1.59475 -0.109079,0.760848 0.508165,-0.527663 0.508165,-0.527663 z"
   inkscape:connector-curvature="0"
   style="fill:url(#linearGradient10744)" />
     <path
   id="_346467840"
   class="fil8"
   d="M 2.88642,0.521964 C 2.9361584,0.487346 3.467088,0.218988 3.90844,0.177842 4.349795,0.1366895 4.533054,0.1273616 4.680948,0.1572221 c 0.1479,0.0298543 0.313246,-0.0810892 0.461607,0.100213 0.148361,0.181302 0.109821,0.142762 0.055799,0.258469 -0.054028,0.115701 -0.150325,0.095081 0.023139,0.158063 0.173464,0.0629883 0.401137,0 0.401137,0 0,0 -0.00765,-0.192868 0.131196,0 0.138846,0.192874 -0.115707,0.14659 0.200612,0.254641 0.31632,0.108057 0.200619,-0.0463714 0.200619,0.262297 0,0.308669 0.38313,0.26481 0.361294,0.390874 -0.021836,0.126058 -0.338155,-0.128489 -0.145281,0.264997 0.192868,0.393487 0.030883,0.185218 0.192868,0.393487 0.161985,0.208269 0.246803,0.039843 0.347203,0.270035 0.090978,0.208643 0.095274,0.367455 0.095181,0.395451 0.00335,-0.054683 0.00523,-0.109734 0.00523,-0.165252 0,-1.47859 -1.19175,-2.67715 -2.66175,-2.67715 -0.284875,0 -0.5593,0.0451618 -0.816553,0.128489 -0.234769,0.0843502 -0.45395,0.196229 -0.646824,0.330124 z"
   inkscape:connector-curvature="0"
   style="fill:#ef7d0c;fill-opacity:0.50196078" />
     <path
   id="_357148128"
   class="fil4"
   d="M 1.87326,3.12997 C 2.212725,2.481936 1.76521,2.0808 2.814474,2.09619 3.863744,2.111585 3.724899,1.833805 4.480994,1.772126 5.237078,1.710447 5.530354,1.741336 6.054934,1.664169 6.579523,1.587002 6.640734,1.324611 6.740392,1.577019 6.796472,1.718846 6.852084,1.862356 6.870933,1.926928 6.88558,1.977128 6.894446,1.958466 6.75989,1.993832 6.452343,2.074821 6.500398,2.111584 6.162898,2.111584 c -0.337501,0 0.030883,-0.015395 -0.632639,-0.015395 -0.663528,0 -0.763741,-0.038721 -0.987499,0.277692 -0.223758,0.316413 -9.35e-5,0.432114 -0.987586,0.432114 -0.987499,0 -0.802275,-0.293174 -1.11094,0.123451 -0.308669,0.416626 -0.555752,0.853971 -0.555752,0.853971 0,0 -0.157228,-0.463752 -0.015214,-0.653452 z"
   inkscape:connector-curvature="0"
   style="fill:#9c4c00" />
     <path
   id="_357148320"
   class="fil9"
   d="M 1.90406,3.18017 C 2.243518,2.532136 1.79601,2.131 2.845274,2.14639 3.894534,2.161791 3.755693,1.884005 4.511784,1.822326 5.267874,1.760647 5.561144,1.791536 6.085734,1.714369 6.610323,1.637202 6.671534,1.374817 6.771185,1.627219 6.827265,1.769046 6.882877,1.912556 6.901726,1.977128 6.916373,2.027328 6.925239,2.008666 6.790689,2.044032 6.483136,2.125021 6.531191,2.161791 6.193691,2.161791 5.85619,2.161791 6.22458,2.14639 5.561052,2.14639 4.89753,2.14639 4.797317,2.107669 4.57356,2.424082 4.349802,2.740495 4.5734665,2.856196 3.585968,2.856196 c -0.987492,0 -0.802275,-0.293174 -1.11094,0.123451 -0.308669,0.416626 -0.555752,0.853971 -0.555752,0.853971 0,0 -0.157228,-0.463752 -0.015208,-0.653452 z"
   inkscape:connector-curvature="0"
   style="fill:url(#linearGradient10746)" />
    </g>
    <g
   id="g10379">
     <g
   id="g10381">
      <path
   id="_353055464"
   class="fil10"
   d="M 4.27284,0.107059 C 4.229112,0.1300982 4.219136,0.1392328 4.193459,0.1447572 4.167782,0.1502882 4.176936,0.1559744 4.258904,0.2060059 c 0.081968,0.0500315 0.100699,0.102651 0.252458,0.136433 0.151759,0.0337762 0.373977,0.0647778 0.443425,0.0815381 0.069448,0.0167665 0.06923,0.004764 0.13581,0.0126326 0.066574,0.007863 0.135068,0.0159747 0.128171,-0.0316812 -0.0069,-0.0476496 -0.032211,-0.066692 -0.032211,-0.066692 0,0 -0.650316,-0.0493581 -0.798066,-0.167422 C 4.240741,0.0527504 4.27284,0.1070592 4.27284,0.1070592 z"
   inkscape:connector-curvature="0"
   style="fill:#753900" />
      <g
   id="g10384">
       <path
   id="_347413872"
   class="fil11"
   d="M 4.42486,0 C 4.317439,0.0310078 4.349015,0.0829535 4.3948,0.119342 4.440585,0.1557308 4.572623,0.236521 4.716663,0.260589 4.860703,0.2846508 4.890938,0.269387 4.9994,0.266064 5.107856,0.262747 5.277753,0.367199 5.204919,0.26814 5.132085,0.1690809 5.226742,0.1923944 5.031542,0.120515 4.8363479,0.04863516 4.8261349,0.03962516 4.7766459,0.03610226 4.7271569,0.03257935 4.6329299,0.02034586 4.5585869,0.01228996 4.4842442,0.00423404 4.4248599,3.6e-7 4.4248599,3.6e-7 z"
   inkscape:connector-curvature="0"
   style="fill:#ef7d0c" />
       <path
   id="_347220288"
   class="fil12"
   d="m 4.38074,0.0821866 c 0.00718,0.0086046 0.016099,0.0168663 0.025639,0.0244483 0.045785,0.036395 0.172735,0.131015 0.316781,0.155083 0.14404,0.0240618 0.208787,0.0397184 0.317249,0.036395 0.08296,-0.002538 0.184619,0.0317872 0.195263,0.003747 L 5.232902,0.2980189 C 5.204663,0.2596036 5.201607,0.2395948 5.197062,0.2252974 5.194302,0.2202284 5.192072,0.2156074 5.190262,0.2113928 5.179163,0.1970144 5.151572,0.1842882 5.059534,0.1503935 4.864334,0.0785138 4.854127,0.0695038 4.804638,0.0659809 4.755149,0.062458 4.660916,0.0502245 4.586573,0.0421686 4.51223,0.0341127 4.452846,0.029879 4.452846,0.029879 4.403619,0.0440891 4.383597,0.062695 4.380742,0.0821864 z"
   inkscape:connector-curvature="0"
   style="fill:#cd6c09" />
       <path
   id="_350417336"
   class="fil13"
   d="M 4.6119,0.229488 C 4.714825,0.242875 4.729459,0.248362 4.786368,0.2524149 4.8301019,0.25552628 5.08516,0.3013615 5.184693,0.287962 5.2004058,0.28584826 5.193547,0.2460238 5.163038,0.2083443 5.1354097,0.1742189 5.084181,0.1417271 5.0898114,0.1425314 c 0.025346,0.003635 0.054758,0.0228958 0.07544,0.0411463 0.035454,0.0313009 0.05053,0.0757705 0.055475,0.0777097 0.062739,0.0906291 -0.074112,0.033477 -0.180317,0.0367255 C 4.9319474,0.3014359 4.8672014,0.2857796 4.7231604,0.2617179 4.6844144,0.2552399 4.6469224,0.2436607 4.6118994,0.229488 z"
   inkscape:connector-curvature="0"
   style="fill:#9a4d04" />
       <path
   id="_350487632"
   class="fil14"
   d="M 4.34438,0.0355969 C 4.261464,0.0669913 4.295483,0.1253406 4.3397,0.1604889 4.383914,0.1956307 4.504092,0.2954939 4.648132,0.3195559 4.792178,0.3436177 4.874016,0.339465 4.964851,0.3515551 5.055686,0.3636452 5.24457,0.3946717 5.239039,0.3140689 5.1605909,0.3364284 5.0902576,0.30148 5.0186206,0.2985369 4.946984,0.29558764 4.8357916,0.3111882 4.6917506,0.2871264 4.5477046,0.2630584 4.4134906,0.1626584 4.3749696,0.1320434 4.3364483,0.1014284 4.3226809,0.0633249 4.3443796,0.0355968 z"
   inkscape:connector-curvature="0"
   style="fill:#853f00" />
      </g>
     </g>
     <path
   id="_353056256"
   class="fil15"
   d="m 4.35238,0.0564787 c 0,0 0.010251,-0.0219418 0.041365,-0.0392134 C 4.424859,-1e-7 4.464758,-0.0030428 4.496508,0.0074261 c 0.03175,0.0104752 0.08584,0.0129755 0.109516,0.0165358 0.023675,0.0035665 0.171101,0.0105562 0.189158,0.014023 0.018064,0.0034668 0.05222,0.0139794 0.05222,0.0139794 0,0 -0.374064,-0.0398992 -0.419313,-0.0202146 C 4.38284,0.0514281 4.352381,0.0564786 4.352381,0.0564786 z"
   inkscape:connector-curvature="0"
   style="fill:#ffab38" />
    </g>
    <g
   id="g10391">
     <path
   id="_354743104"
   class="fil10"
   d="M 6.44967,1.39364 C 6.302275,1.266329 6.095577,1.17257 5.922194,1.201514 5.748817,1.2304579 5.453024,1.2293855 5.71862,1.395155 5.984222,1.560919 5.937732,1.56918 6.132053,1.582605 6.326368,1.5960295 6.449669,1.39364 6.449669,1.39364 z"
   inkscape:connector-curvature="0"
   style="fill:#753900" />
     <path
   id="_346462248"
   class="fil15"
   d="M 6.18385,1.33183 C 6.0894424,1.2502919 5.957056,1.19024 5.846013,1.208778 5.73497,1.2273216 5.545518,1.2266295 5.715628,1.332803 5.885738,1.43897 5.855964,1.444258 5.98042,1.452856 6.104875,1.4614544 6.183851,1.33183 6.183851,1.33183 z"
   inkscape:connector-curvature="0"
   style="fill:#ffab38" />
     <path
   id="_346278840"
   class="fil12"
   d="M 6.36784,1.34362 C 6.251821,1.243407 6.089125,1.169613 5.952661,1.192397 5.81619,1.2151805 5.583367,1.2143325 5.792422,1.344811 6.001483,1.475289 5.964888,1.481787 6.117839,1.492355 6.270783,1.5029175 6.367841,1.34362 6.367841,1.34362 z"
   inkscape:connector-curvature="0"
   style="fill:#cd6c09" />
    </g>
    <g
   id="g10396">
     <path
   id="_346279440"
   class="fil10"
   d="M 2.36543,0.958536 C 2.36405,0.9720914 2.3646257,0.9757764 2.36198,0.9825105 2.35933,0.9892505 2.3620299,0.9880165 2.386023,0.9768365 2.410016,0.9656505 2.424956,0.9693795 2.45587,0.9396995 2.486778,0.9100136 2.5278,0.8637294 2.542247,0.8503486 2.556694,0.8369616 2.553907,0.8351783 2.565866,0.8210991 2.577831,0.8070137 2.590146,0.7925293 2.578156,0.7868427 2.566159,0.7811557 2.557929,0.7840557 2.557929,0.7840557 c 0,0 -0.110557,0.141758 -0.160208,0.157664 C 2.348076,0.9576195 2.365435,0.9585361 2.365435,0.9585361 z"
   inkscape:connector-curvature="0"
   style="fill:#753900" />
     <g
   id="g10399">
      <path
   id="_346277472"
   class="fil11"
   d="M 2.36406,0.907307 C 2.35479,0.9366936 2.37153,0.9373733 2.386869,0.9324163 2.402214,0.9274593 2.440904,0.9094769 2.468407,0.8800778 2.495911,0.8506849 2.497021,0.8414131 2.512808,0.8160108 2.528596,0.7906085 2.578496,0.7675443 2.544639,0.7691468 2.510788,0.7707558 2.530585,0.7525798 2.484301,0.7864246 2.438011,0.8202632 2.434388,0.8212359 2.426026,0.832054 2.417666,0.8428784 2.40048,0.862644 2.387286,0.8784815 2.3740926,0.894319 2.3640601,0.907307 2.3640601,0.907307 z"
   inkscape:connector-curvature="0"
   style="fill:#ef7d0c" />
      <path
   id="_346278456"
   class="fil12"
   d="M 2.37619,0.929972 C 2.37926,0.92964153 2.38252,0.92885 2.38572,0.927821 2.401059,0.922864 2.442155,0.9081551 2.469652,0.8787622 2.497156,0.8493693 2.51063,0.8368926 2.526418,0.8114903 2.538496,0.7920551 2.561884,0.7739542 2.55707,0.7672326 l -0.0013,4.988e-5 C 2.542645,0.767906 2.537588,0.76555548 2.53361,0.76441448 2.53203,0.76427107 2.53062,0.76407778 2.52938,0.76385331 c -0.00499,3.5541e-4 -0.012121,0.004745 -0.033945,0.020701 -0.046291,0.0338448 -0.049913,0.0348113 -0.058275,0.0456357 -0.00836,0.0108244 -0.025546,0.03059 -0.03874,0.0464275 -0.013194,0.0158375 -0.023226,0.0288255 -0.023226,0.0288255 -0.00425,0.0134681 -0.00303,0.0209005 10e-4,0.0245294 z"
   inkscape:connector-curvature="0"
   style="fill:#cd6c09" />
      <path
   id="_346278048"
   class="fil13"
   d="M 2.44528,0.899382 C 2.464061,0.8778019 2.467552,0.8752766 2.477167,0.8628311 c 0.00739,-0.009565 0.056828,-0.0611177 0.068937,-0.086015 0.00191,-0.003928 -0.00827,-0.00843 -0.02158,-0.007177 -0.012047,0.001135 -0.027323,0.007937 -0.026282,0.006765 0.0047,-0.005263 0.013611,-0.009072 0.020957,-0.0110364 0.012595,-0.003367 0.025103,-3.741e-5 0.026306,-8.7917e-4 0.030378,-5.7364e-4 -0.00363,0.0221226 -0.019086,0.0470012 -0.015788,0.0254023 -0.029262,0.037879 -0.056766,0.0672719 -0.00739,0.007906 -0.015775,0.0147463 -0.024373,0.0206199 z"
   inkscape:connector-curvature="0"
   style="fill:#9a4d04" />
      <path
   id="_346277448"
   class="fil14"
   d="M 2.35995,0.931207 C 2.35451,0.9550318 2.373094,0.9561292 2.387909,0.9513406 2.402724,0.9465516 2.443982,0.9341999 2.471486,0.9048071 2.49899,0.8754142 2.510525,0.8559915 2.52716,0.8369865 2.543796,0.8179753 2.579742,0.779348 2.560394,0.7683241 2.553554,0.7897421 2.534798,0.800554 2.523195,0.8165536 2.511585,0.832547 2.498198,0.8604496 2.470694,0.8898487 2.443197,0.9192416 2.399669,0.9347361 2.386762,0.9389075 2.373855,0.9430785 2.363006,0.9404225 2.359951,0.9312065 z"
   inkscape:connector-curvature="0"
   style="fill:#853f00" />
     </g>
    </g>
    <g
   id="g10405">
     <path
   id="_346277736"
   class="fil10"
   d="M 5.63604,0.385238 C 5.5838636,0.341317 5.506216,0.3005386 5.435403,0.2927321 5.3645895,0.28492559 5.246438,0.259224 5.3438262,0.3227485 5.441208,0.3862668 5.4221968,0.3842965 5.4991392,0.4042991 5.576082,0.4243017 5.6360402,0.385238 5.6360402,0.385238 z"
   inkscape:connector-curvature="0"
   style="fill:#753900" />
     <path
   id="_346277592"
   class="fil15"
   d="M 5.53308,0.347209 C 5.4996592,0.3190819 5.449927,0.2929625 5.404578,0.2879618 5.3592229,0.28296114 5.283552,0.2665064 5.3459232,0.307185 c 0.062371,0.0406849 0.050194,0.0394191 0.099477,0.0522325 0.049277,0.0128134 0.08768,-0.0122086 0.08768,-0.0122086 z"
   inkscape:connector-curvature="0"
   style="fill:#ffab38" />
     <path
   id="_346278072"
   class="fil12"
   d="M 5.60598,0.365927 C 5.5649085,0.3313589 5.503791,0.2992537 5.448054,0.293112 5.3923173,0.2869703 5.299319,0.2667432 5.3759747,0.3167373 c 0.07665,0.0499941 0.061685,0.0484415 0.122248,0.0641917 0.060563,0.015744 0.107757,-0.015002 0.107757,-0.015002 z"
   inkscape:connector-curvature="0"
   style="fill:#cd6c09" />
    </g>
    <g
   id="g10410">
     <path
   id="_346462800"
   class="fil16"
   d="M 3.12663,0.939556 C 3.062002,1.057745 3.111435,1.121662 3.163705,1.151442 3.215981,1.181221 3.35469,1.228079 3.474076,1.175666 3.593456,1.123253 3.608389,1.079419 3.687595,1.005307 3.766801,0.931195 3.945528,0.9922941 3.841855,0.878395 3.738176,0.764496 3.820362,0.742168 3.63901,0.749743 3.457652,0.757319 3.445549,0.74923795 3.406897,0.7749084 3.368245,0.8005851 3.291888,0.8405467 3.232448,0.8746472 3.173007,0.9087477 3.12663,0.939556 3.12663,0.939556 z"
   inkscape:connector-curvature="0"
   style="fill:#cc6805" />
     <path
   id="_346275744"
   class="fil17"
   d="M 3.09984,1.0256 C 3.055233,1.125395 3.10785,1.195666 3.15663,1.223456 3.205408,1.251253 3.340077,1.333558 3.455429,1.282909 3.570781,1.232267 3.62774,1.175657 3.698996,1.1389 3.770252,1.10215 3.921263,1.034909 3.878458,0.912455 3.83271,0.9954085 3.765207,0.983917 3.712189,1.023193 3.659165,1.062469 3.58658,1.154918 3.471222,1.205567 3.35587,1.256209 3.210826,1.181661 3.168333,1.157456 3.125834,1.133245 3.097569,1.082178 3.099839,1.0256 z"
   inkscape:connector-curvature="0"
   style="fill:#763800" />
     <path
   id="_346277304"
   class="fil18"
   d="m 3.13471,1.10032 c 0.00964,0.00935 0.020408,0.017047 0.031301,0.023257 0.05227,0.029779 0.19409,0.102208 0.31347,0.049795 C 3.598867,1.120952 3.65494,1.105208 3.734147,1.031103 3.794735,0.9744123 3.887633,0.9654398 3.881592,0.913388 L 3.877622,0.908936 C 3.837411,0.8647594 3.825165,0.8343751 3.814646,0.814148 3.810066,0.807701 3.806096,0.8016464 3.802643,0.7959848 3.787205,0.7797919 3.760287,0.7767117 3.674777,0.7802845 3.493419,0.7878605 3.481316,0.77977945 3.442664,0.8054499 3.404012,0.8311266 3.327655,0.8710882 3.268215,0.9051887 3.208774,0.9392892 3.162397,0.9700975 3.162397,0.9700975 3.132773,1.024263 3.127124,1.0670117 3.134713,1.1003205 z"
   inkscape:connector-curvature="0"
   style="fill:#8d4100" />
     <path
   id="_346277904"
   class="fil19"
   d="M 3.38047,1.19182 C 3.463879,1.148205 3.477521,1.147799 3.521966,1.118275 3.556129,1.095591 3.769131,1.007986 3.836658,0.923243 3.8473202,0.9098626 3.8223544,0.849861 3.7808215,0.8083094 3.7432168,0.770686 3.6888269,0.7506522 3.6934223,0.7483826 c 0.020713,-0.0101884 0.052239,0.002288 0.076756,0.0186745 0.042038,0.0281084 0.07544,0.0904046 0.080098,0.0904046 0.091945,0.106679 -0.038571,0.101061 -0.116131,0.173639 -0.079206,0.074106 -0.13528,0.08985 -0.254666,0.142269 -0.032111,0.014098 -0.065838,0.019155 -0.099009,0.01845 z"
   inkscape:connector-curvature="0"
   style="fill:#884401" />
    </g>
    <g
   id="g10416">
     <path
   id="_346276800"
   class="fil20"
   d="M 4.08971,5.27951 C 4.133438,5.256465 4.14342,5.247336 4.169097,5.241806 4.194767,5.236276 4.18562,5.230595 4.103652,5.180564 4.0216774,5.1305317 4.002947,5.0779062 3.851187,5.0441242 3.699428,5.010348 3.477217,4.9793464 3.407769,4.9625861 3.338321,4.9458196 3.338533,4.9578224 3.271959,4.9499535 c -0.06658,-0.00786 -0.135068,-0.015975 -0.128171,0.031681 0.0069,0.047656 0.032205,0.066692 0.032205,0.066692 0,0 0.650322,0.049358 0.798066,0.167422 0.14775,0.118064 0.115651,0.063762 0.115651,0.063762 z"
   inkscape:connector-curvature="0"
   style="fill:#462f1a" />
     <g
   id="g10419">
      <path
   id="_346276296"
   class="fil21"
   d="M 3.9377,5.38656 C 4.045114,5.355552 4.013539,5.303613 3.967754,5.267218 3.921969,5.230829 3.789938,5.150039 3.645898,5.125971 3.501852,5.101909 3.471617,5.117181 3.363161,5.120501 3.254699,5.123821 3.084808,5.019366 3.157642,5.118421 3.230476,5.21748 3.135819,5.194167 3.331013,5.266046 c 0.1952,0.07188 0.205407,0.08089 0.254896,0.084413 0.049489,0.00352 0.143722,0.015756 0.218065,0.023812 0.074343,0.00806 0.133727,0.01229 0.133727,0.01229 z"
   inkscape:connector-curvature="0"
   style="fill:#7c3800" />
      <path
   id="_346275960"
   class="fil22"
   d="M 3.75067,5.15707 C 3.647739,5.1436892 3.633105,5.138196 3.576202,5.1341431 3.5324619,5.1310317 3.27741,5.0851965 3.177877,5.098596 3.162158,5.100716 3.169017,5.140534 3.199532,5.17822 3.227154,5.212339 3.278383,5.244837 3.272759,5.244027 3.247407,5.240387 3.218001,5.221137 3.197319,5.202881 3.161865,5.17158 3.146789,5.127111 3.141838,5.125171 3.079105,5.034542 3.215956,5.0917 3.322161,5.088445 3.430617,5.085125 3.495369,5.100778 3.63941,5.124846 3.678156,5.131316 3.715648,5.142897 3.750671,5.15707 z"
   inkscape:connector-curvature="0"
   style="fill:#763b02" />
      <path
   id="_346275720"
   class="fil23"
   d="M 4.01818,5.35096 C 4.101096,5.319566 4.06707,5.261216 4.02286,5.226068 3.97864,5.190926 3.858468,5.091069 3.714422,5.067001 3.570382,5.042939 3.488538,5.047092 3.397703,5.035002 3.306874,5.022912 3.117991,4.991885 3.123521,5.072488 c 0.078452,-0.02236 0.148785,0.012595 0.220422,0.015538 0.07163,0.00294 0.182829,-0.012657 0.32687,0.011411 0.14404,0.024062 0.27826,0.124461 0.316781,0.155076 0.038521,0.030615 0.052282,0.068719 0.03059,0.096447 z"
   inkscape:connector-curvature="0"
   style="fill:#58340f" />
     </g>
    </g>
    <g
   id="g10424">
     <path
   id="_346276464"
   class="fil17"
   d="M 6.39117,4.18449 C 6.442505,4.06965 6.38196,3.988791 6.325825,3.956811 6.269695,3.924831 6.114731,3.830117 5.981996,3.888398 5.849254,3.946679 5.783716,4.011818 5.701722,4.054112 5.619723,4.096406 5.445953,4.173779 5.495211,4.314689 5.547855,4.219228 5.625527,4.232459 5.686539,4.18726 5.747551,4.142067 5.831078,4.035682 5.96382,3.977401 6.096556,3.91912 6.26346,4.004911 6.312357,4.032764 6.36126,4.060623 6.393783,4.119384 6.39117,4.184492 z"
   inkscape:connector-curvature="0"
   style="fill:#763800" />
     <path
   id="_346276128"
   class="fil24"
   d="M 6.35106,4.09852 C 6.339967,4.087752 6.327578,4.078904 6.315045,4.071758 6.254887,4.037489 6.091699,3.954143 5.954324,4.014456 5.816949,4.074776 5.752421,4.092889 5.661281,4.178168 5.591565,4.243401 5.484662,4.253726 5.491614,4.313622 l 0.00458,0.00512 c 0.046265,0.050836 0.060363,0.085803 0.07246,0.109079 0.00527,0.00742 0.00984,0.014378 0.013817,0.020894 C 5.600235,4.467352 5.631206,4.470894 5.72961,4.466785 5.938297,4.458065 5.95222,4.4673711 5.996702,4.437829 6.041178,4.408287 6.129039,4.362302 6.197433,4.323057 6.265833,4.283819 6.319207,4.248365 6.319207,4.248365 6.353289,4.186038 6.359792,4.136848 6.351063,4.09852 z"
   inkscape:connector-curvature="0"
   style="fill:#723902" />
     <path
   id="_346462944"
   class="fil19"
   d="M 6.06826,3.99323 C 5.972281,4.043411 5.956575,4.043879 5.905433,4.077848 5.866126,4.103961 5.621019,4.204766 5.543316,4.302279 5.531051,4.317674 5.559777,4.386716 5.60757,4.434528 5.650842,4.477825 5.713432,4.500883 5.708138,4.50349 5.684307,4.515218 5.64803,4.50086 5.619816,4.482003 5.571443,4.449661 5.533003,4.377974 5.527647,4.377974 5.421841,4.255221 5.572029,4.261681 5.66128,4.178166 5.75242,4.092887 5.816949,4.074773 5.954323,4.014454 5.991273,3.998236 6.030081,3.992413 6.068259,3.993229 z"
   inkscape:connector-curvature="0"
   style="fill:#884401" />
    </g>
   </g>
   <path
   class="fil25"
   d="M 8.34835,1.48545 C 7.742304,3.40757 1.63422,5.29909 0.26443,4.11686 0.897,5.96562 8.72656,3.505733 8.34835,1.48545 z"
   id="path10429"
   inkscape:connector-curvature="0"
   style="fill:url(#id5)" />
   <g
   id="g10431">
    <path
   class="fil26"
   d="M 8.66836,1.42934 C 8.020943,3.48266 1.49592,5.5033 0.03263,4.24037 0.708379,6.21533 9.07239,3.587529 8.66836,1.42934 z"
   id="path10433"
   inkscape:connector-curvature="0"
   style="fill:url(#id4)" />
    <path
   id="1"
   class="fil2"
   d="m 0.0296423,4.24158 0.0048385,-0.00413 0.151211,0.108537 0.178939,0.090031 0.204653,0.072073 0.228372,0.054658 0.250064,0.037842 0.269742,0.021599 0.287413,0.00594 0.30307,-0.00912 0.316725,-0.023607 0.328366,-0.03748 0.338012,-0.050761 0.345631,-0.063456 0.351262,-0.075552 0.354891,-0.08705 0.356506,-0.097955 0.356119,-0.108262 0.353737,-0.117971 0.349329,-0.127099 0.342938,-0.135616 0.334539,-0.143541 0.324126,-0.150874 0.311718,-0.157608 0.297302,-0.163743 0.280885,-0.16928 0.262453,-0.174219 0.242027,-0.178558 0.21958,-0.182299 0.195144,-0.18543 0.168694,-0.187942 0.140237,-0.18985 0.109802,-0.191129 0.077367,-0.191783 0.00606,0.00281 -0.077791,0.192831 -0.110239,0.191902 -0.140661,0.190424 -0.169068,0.188366 -0.195468,0.185741 -0.219879,0.182536 -0.242276,0.178758 -0.26269,0.174368 -0.281084,0.169405 -0.297489,0.163843 -0.311893,0.157695 -0.324288,0.150949 -0.334689,0.143604 -0.343087,0.135679 -0.349478,0.127149 -0.353874,0.11802 -0.356256,0.108312 -0.356655,0.097993 -0.35504,0.087087 -0.351424,0.075577 -0.345806,0.063493 -0.338186,0.050786 -0.328578,0.037505 -0.316949,0.023619 -0.303332,0.00913 -0.287725,-0.00595 -0.270104,-0.021624 -0.25050006,-0.037904 -0.228908,-0.054795 -0.205314,-0.072298 -0.179737,-0.090442 -0.152146,-0.109223 0.0048385,-0.00413 -0.0059733,0.00242 z m 8.63569,-2.81364 0.00617,7.856e-4 0.012764,0.204578 -0.035821,0.206255 -0.08127,0.206916 -0.123613,0.206685 -0.16292,0.205576 -0.199191,0.203593 -0.232462,0.200706 -0.262715,0.196927 -0.289963,0.192213 -0.314212,0.186589 -0.335431,0.180042 -0.353656,0.17256 -0.368864,0.164167 -0.381066,0.154839 -0.390251,0.144583 -0.396424,0.133397 -0.399591,0.121288 -0.399747,0.108244 -0.396885,0.094289 -0.391011,0.079381 -0.382132,0.063556 -0.370248,0.046802 -0.35534,0.029112 -0.337438,0.010506 -0.316525,-0.00905 -0.292607,-0.029536 -0.26570202,-0.050961 -0.235798,-0.073345 -0.202901,-0.096715 -0.166986,-0.121082 -0.128009,-0.146472 -0.0858467,-0.172784 0.0059733,-0.00242 0.0848989,0.170864 0.126812,0.145088 0.165876,0.120259 0.201978,0.096266 0.235074,0.073121 0.26512792,0.050848 0.292158,0.029486 0.316164,0.00904 0.337126,-0.010494 0.35509,-0.0291 0.370011,-0.046764 0.381933,-0.063531 0.390824,-0.079343 0.39671,-0.094239 0.399585,-0.108206 0.399429,-0.121238 0.396274,-0.133347 0.390089,-0.14452 0.380892,-0.154765 0.368689,-0.164093 0.353469,-0.172473 0.335231,-0.17993 0.313975,-0.186452 0.289701,-0.192039 0.262416,-0.19669 0.2321,-0.200407 0.198779,-0.203156 0.162434,-0.204965 0.12309,-0.205788 0.080771,-0.205619 0.035522,-0.204497 -0.012626,-0.20252 0.00617,7.856e-4 -0.00606,-0.00281 z"
   inkscape:connector-curvature="0"
   style="fill:#e8d1ab;fill-rule:nonzero" />
   </g>
  </g>
 </g>
</svg>
