<?xml version="1.0" encoding="UTF-8"?>
<!DOCTYPE svg PUBLIC "-//W3C//DTD SVG 1.1//EN" "http://www.w3.org/Graphics/SVG/1.1/DTD/svg11.dtd">
<!-- Creator: CorelDRAW -->
<svg xmlns="http://www.w3.org/2000/svg" xml:space="preserve" width="104px" height="106px" style="shape-rendering:geometricPrecision; text-rendering:geometricPrecision; image-rendering:optimizeQuality; fill-rule:evenodd; clip-rule:evenodd"
viewBox="0 0 3.96172 4.03067"
 xmlns:xlink="http://www.w3.org/1999/xlink">
 <defs>
  <style type="text/css">
   <![CDATA[
    .fil17 {fill:#0F0700}
    .fil20 {fill:#1C0E00}
    .fil19 {fill:#25190D}
    .fil21 {fill:#2C1600}
    .fil7 {fill:#2E1700}
    .fil14 {fill:#2F1700}
    .fil18 {fill:#321800}
    .fil16 {fill:#3D2915}
    .fil11 {fill:#402000}
    .fil15 {fill:#4E2600}
    .fil10 {fill:#53381D}
    .fil1 {fill:#663300}
    .fil9 {fill:#996633}
    .fil13 {fill:#A06223}
    .fil8 {fill:#C28446}
    .fil12 {fill:#FFCC99}
    .fil5 {fill:#C28446;fill-opacity:0.501961}
    .fil4 {fill:url(#id0)}
    .fil6 {fill:url(#id1)}
    .fil0 {fill:url(#id2)}
    .fil2 {fill:url(#id3)}
    .fil3 {fill:url(#id4)}
   ]]>
  </style>
  <linearGradient id="id0" gradientUnits="userSpaceOnUse" x1="0.613227" y1="2.02323" x2="2.64187" y2="0.0330279">
   <stop offset="0" style="stop-color:black"/>
   <stop offset="1" style="stop-color:#8E4700"/>
  </linearGradient>
  <linearGradient id="id1" gradientUnits="userSpaceOnUse" x1="1.30528" y1="3.09131" x2="2.64625" y2="0.783691">
   <stop offset="0" style="stop-color:black"/>
   <stop offset="1" style="stop-color:#3C1E00"/>
  </linearGradient>
  <linearGradient id="id2" gradientUnits="userSpaceOnUse" x1="0.674906" y1="3.57527" x2="3.28578" y2="0.502457">
   <stop offset="0" style="stop-color:black"/>
   <stop offset="0.2" style="stop-color:#050200"/>
   <stop offset="0.678431" style="stop-color:#5F2F00"/>
   <stop offset="1" style="stop-color:#A25100"/>
  </linearGradient>
  <linearGradient id="id3" gradientUnits="userSpaceOnUse" xlink:href="#id0" x1="1.57568" y1="3.71253" x2="2.89193" y2="1.81559">
  </linearGradient>
  <linearGradient id="id4" gradientUnits="userSpaceOnUse" xlink:href="#id1" x1="2.00604" y1="3.98374" x2="2.92699" y2="2.95239">
  </linearGradient>
 </defs>
 <g id="Layer_x0020_1">
  <metadata id="CorelCorpID_0Corel-Layer"/>
  <g id="_322574104">
   <ellipse id="_322575328" class="fil0" cx="1.98034" cy="2.03887" rx="1.98034" ry="1.9918"/>
   <path id="_322575160" class="fil1" d="M0.511572 3.34597c0.50151,-0.328474 0.145648,-0.408788 0.61634,-0.374361 0.470693,0.0344717 0.505119,0.0689435 0.746196,-0.252537 0.241122,-0.321481 0.367413,-0.263998 0.688848,-0.40184 0.32139,-0.137797 0.301357,-0.241077 0.54099,-0.241077 0.239633,0 0.342958,0 0.526642,0 0.183684,0 0.331136,-0.148219 0.331136,-0.148219 0,0 -0.0108288,0.362089 -0.0354193,0.47137 -0.0245453,0.109281 -0.343048,-0.00171456 -0.582726,-0.00171456 -0.239633,0 -0.160763,0.0229661 -0.642916,0.241077 -0.482108,0.218156 -0.562512,0.160808 -0.757657,0.332941 -0.195144,0.172178 0.0343364,0.218065 -0.332941,0.298469 -0.367323,0.080404 -0.332986,0.0230564 -0.505119,0.10337 -0.172178,0.0803138 -0.38325,0.175066 -0.38325,0.175066l-0.210124 -0.202544z"/>
   <path id="_322574992" class="fil2" d="M0.508729 3.37178c0.50151,-0.328429 0.145648,-0.408743 0.61634,-0.374316 0.470693,0.0344266 0.505119,0.0689435 0.746196,-0.252582 0.241122,-0.321481 0.367413,-0.263998 0.688848,-0.401794 0.32139,-0.137797 0.301357,-0.241122 0.54099,-0.241122 0.239633,0 0.342958,0 0.526642,0 0.183684,0 0.331136,-0.148219 0.331136,-0.148219 0,0 -0.0108288,0.362134 -0.0354193,0.47137 -0.0245453,0.109281 -0.343048,-0.00171456 -0.582726,-0.00171456 -0.239633,0 -0.160763,0.0229661 -0.642916,0.241122 -0.482153,0.218111 -0.562512,0.160763 -0.757657,0.332941 -0.195144,0.172178 0.0343364,0.218065 -0.332986,0.298424 -0.367278,0.080404 -0.332941,0.0230564 -0.505074,0.10337 -0.172178,0.0803138 -0.38325,0.175111 -0.38325,0.175111l-0.210124 -0.202589z"/>
   <path id="_322574824" class="fil3" d="M1.19185 3.86657c0.289084,-0.0425482 0.220276,-0.134413 0.644992,-0.226277 0.424715,-0.0918194 0.688758,-0.068763 0.803589,-0.241032 0.114831,-0.172223 -0.0473761,-0.183684 0.20665,-0.183684 0.254026,0 0.482153,-0.126336 0.631411,-0.172223 0.149257,-0.0458871 0.262779,-0.0921803 0.262779,-0.0921803 0,0 -0.541306,0.666018 -0.640164,0.730088 -0.0988581,0.0640705 -0.368857,0.00491809 -0.564001,0.0164688 -0.195144,0.0115056 -0.562512,0.126336 -0.631365,0.137797 -0.0688984,0.0114605 -0.3495,0.149393 -0.3495,0.149393l-0.36439 -0.11835z"/>
   <path id="_322574656" class="fil4" d="M0.459232 1.08022c0.229571,-0.298469 0.321436,-0.332896 0.608399,-0.459187 0.287009,-0.126246 0.470693,-0.252537 0.746241,-0.241077 0.275548,0.0114605 0.649594,0.130803 0.846182,0.130803 0.0721921,0 0.133555,-0.0413751 0.205793,-0.157244 0.0508052,-0.0814418 0.389296,0.161034 0.389296,0.161034 0,0 -0.308306,-0.310877 -0.779765,-0.40405 -0.471415,-0.0931279 -0.594593,-0.0745384 -0.755626,-0.0463383 -0.161079,0.0281549 -0.529439,0.130307 -0.681268,0.222126 -0.151829,0.0918645 -0.876187,0.620446 -0.957313,1.18652 -0.081171,0.566077 0.378061,-0.39259 0.378061,-0.39259z"/>
   <path id="_322574488" class="fil5" d="M0.891573 0.388258c0.0370436,-0.0257185 0.432025,-0.225375 0.760409,-0.256011 0.328384,-0.0305914 0.464692,-0.0375399 0.57474,-0.0153408 0.110048,0.0221991 0.233045,-0.0603256 0.343454,0.0745835 0.110364,0.134864 0.0817125,0.106213 0.0415105,0.192257 -0.040202,0.0860891 -0.111853,0.0707483 0.0171908,0.117628 0.129089,0.0468347 0.298469,0 0.298469,0 0,0 -0.00568513,-0.143482 0.0975948,0 0.103325,0.143482 -0.0860891,0.109055 0.149257,0.189459 0.235346,0.0803589 0.149257,-0.0345169 0.149257,0.195144 0,0.229661 0.285069,0.196994 0.268825,0.290799 -0.0162432,0.0938047 -0.25159,-0.0956095 -0.108108,0.197175 0.143482,0.292739 0.0229661,0.137797 0.143482,0.292739 0.120516,0.154942 0.183639,0.0296439 0.258358,0.20092 0.0676801,0.155213 0.0708385,0.273383 0.0707934,0.294183 0.0024816,-0.0406532 0.00388033,-0.0816222 0.00388033,-0.122907 0,-1.10007 -0.886655,-1.99183 -1.98032,-1.99183 -0.211974,0 -0.416143,0.0336145 -0.607542,0.0956095 -0.17466,0.062762 -0.337724,0.146009 -0.481251,0.245589z"/>
   <path id="_322574320" class="fil1" d="M0.137797 2.32865c0.252582,-0.482153 -0.080404,-0.780578 0.700264,-0.769162 0.780668,0.0114605 0.677343,-0.19519 1.2399,-0.241077 0.562512,-0.0458871 0.780713,-0.022921 1.171,-0.0803138 0.390289,-0.0574379 0.43586,-0.252627 0.509992,-0.0648376 0.0417361,0.105491 0.0831112,0.21229 0.0970984,0.260298 0.0109191,0.0373594 0.0175066,0.0234624 -0.0826149,0.0498126 -0.228804,0.0602353 -0.193024,0.0875781 -0.444162,0.0875781 -0.251093,0 0.0230112,-0.0114605 -0.470648,-0.0114605 -0.493704,0 -0.568242,-0.0287866 -0.734736,0.206605 -0.166448,0.235437 -4.51201e-005,0.321526 -0.734736,0.321526 -0.73469,0 -0.596894,-0.218156 -0.826555,0.0918194 -0.229661,0.309975 -0.41348,0.635381 -0.41348,0.635381 0,0 -0.116996,-0.345033 -0.0113251,-0.486169z"/>
   <path id="_322574080" class="fil6" d="M0.160718 2.36601c0.252537,-0.482153 -0.080404,-0.780623 0.700264,-0.769162 0.780668,0.0114605 0.677343,-0.19519 1.2399,-0.241077 0.562512,-0.0458871 0.780713,-0.022921 1.171,-0.0803589 0.390289,-0.0573928 0.435815,-0.252627 0.509992,-0.0648376 0.041691,0.105536 0.0830661,0.21229 0.0970984,0.260343 0.0109191,0.0373594 0.0175066,0.0234624 -0.0826149,0.0497675 -0.228804,0.0602804 -0.193069,0.0876232 -0.444162,0.0876232 -0.251093,0 0.0229661,-0.0114605 -0.470693,-0.0114605 -0.493659,0 -0.568197,-0.0287866 -0.73469,0.206605 -0.166448,0.235437 -4.51201e-005,0.321481 -0.734781,0.321481 -0.73469,0 -0.596894,-0.218111 -0.82651,0.0918645 -0.229661,0.309975 -0.41348,0.635336 -0.41348,0.635336 0,0 -0.116996,-0.344988 -0.0113251,-0.486124z"/>
  </g>
  <g id="_322572952">
   <g>
    <path id="_322573936" class="fil7" d="M1.92311 0.0795918c-0.0325316,0.0171456 -0.0399764,0.0239136 -0.0590622,0.0280647 -0.0191309,0.00410593 -0.0123178,0.0083021 0.0486846,0.0455262 0.0609572,0.0372241 0.0748993,0.0763883 0.187835,0.10152 0.11289,0.0251319 0.27821,0.0481883 0.329873,0.0606865 0.0517076,0.0124531 0.0515271,0.00351937 0.101069,0.00938498 0.0495419,0.00586561 0.100482,0.0118666 0.0953387,-0.0235527 -0.00509857,-0.0354644 -0.0239588,-0.0496321 -0.0239588,-0.0496321 0,0 -0.483823,-0.0367278 -0.593735,-0.124577 -0.109958,-0.0878488 -0.086044,-0.0474212 -0.086044,-0.0474212z"/>
    <g>
     <path id="_322573768" class="fil8" d="M2.03618 -4.51201e-005c-0.0799077,0.0230564 -0.0564001,0.0616792 -0.0223344,0.0887512 0.0340657,0.0271172 0.132292,0.0872171 0.239452,0.10513 0.10716,0.0178676 0.129675,0.00654241 0.21035,0.00406081 0.0806747,-0.0024816 0.207101,0.0752152 0.152912,0.00153408 -0.0541892,-0.0736811 0.0162432,-0.056355 -0.128998,-0.109822 -0.145242,-0.0534673 -0.152822,-0.0601902 -0.18964,-0.0628072 -0.036818,-0.00261697 -0.106935,-0.0117312 -0.162252,-0.0177322 -0.0553172,-0.00600097 -0.0994898,-0.00911426 -0.0994898,-0.00911426z"/>
     <path id="_322573600" class="fil9" d="M2.00338 0.0610926c0.00532417,0.00640705 0.0119568,0.0125434 0.0190407,0.0181834 0.0340657,0.0270721 0.128547,0.0974594 0.235707,0.115372 0.10716,0.0179127 0.155348,0.0295537 0.236023,0.0270721 0.0617243,-0.00189504 0.137391,0.0236429 0.145287,0.00279745l-0.00207552 -0.00284257c-0.0209808,-0.0286061 -0.023282,-0.0434958 -0.026666,-0.054099 -0.0020304,-0.00379009 -0.00369985,-0.00721921 -0.00505345,-0.0103776 -0.00825698,-0.0106935 -0.0287866,-0.0201687 -0.0972338,-0.0453908 -0.145242,-0.0534673 -0.152822,-0.0601451 -0.189685,-0.062762 -0.036818,-0.00266209 -0.106889,-0.0117312 -0.162207,-0.0177322 -0.0553172,-0.00600097 -0.0994898,-0.00915938 -0.0994898,-0.00915938 -0.0366375,0.0106032 -0.0515271,0.02441 -0.0536478,0.0389386z"/>
     <path id="_322573432" class="fil10" d="M2.17533 0.170689c0.0766139,0.00992642 0.0874879,0.0140323 0.12981,0.0170554 0.0325316,0.00230112 0.222307,0.0364119 0.296349,0.0264404 0.0117312,-0.0015792 0.00658753,-0.0312231 -0.0161079,-0.0592427 -0.0205296,-0.0254026 -0.0586561,-0.0495419 -0.0544599,-0.0489553 0.0188602,0.00270721 0.0407434,0.0170103 0.0561294,0.0305914 0.0263501,0.023282 0.037585,0.0564001 0.0412849,0.057844 0.0466542,0.0674094 -0.0551819,0.0249063 -0.134187,0.0272977 -0.0806747,0.0024816 -0.128863,-0.00915938 -0.236023,-0.0270721 -0.0288317,-0.00482785 -0.056716,-0.0134458 -0.0827954,-0.0239588z"/>
     <path id="_322573312" class="fil11" d="M1.97631 0.0264404c-0.0616792,0.0233271 -0.0363668,0.0667326 -0.00347425,0.0929023 0.0328925,0.0261245 0.122321,0.100437 0.229481,0.11835 0.10716,0.0179127 0.168072,0.0147994 0.235662,0.0238234 0.0675448,0.0089789 0.208094,0.0320353 0.203988,-0.0279293 -0.0583854,0.0166493 -0.110725,-0.00933986 -0.164012,-0.0115507 -0.0532868,-0.00216576 -0.136037,0.0094301 -0.243197,-0.00848258 -0.10716,-0.0179127 -0.207011,-0.0925864 -0.235662,-0.115372 -0.0286964,-0.0227856 -0.0388935,-0.0511211 -0.0227856,-0.0717409z"/>
    </g>
   </g>
   <path id="_322572928" class="fil12" d="M1.98226 0.0419617c0,0 0.0076253,-0.0163335 0.0307719,-0.0291927 0.0231466,-0.0128141 0.0528356,-0.0151152 0.0764786,-0.00730945 0.0235978,0.00780578 0.0638449,0.0096557 0.0814869,0.0123178 0.0175968,0.00261697 0.127284,0.0078509 0.14073,0.0104227 0.0134007,0.00257185 0.0388484,0.0103776 0.0388484,0.0103776 0,0 -0.278301,-0.0296439 -0.312005,-0.015025 -0.0336596,0.014664 -0.0563099,0.018409 -0.0563099,0.018409z"/>
  </g>
  <g id="_322572400">
   <path id="_322572784" class="fil7" d="M3.54265 1.03681c-0.109642,-0.0947071 -0.263456,-0.164463 -0.392455,-0.14294 -0.128953,0.0215223 -0.349049,0.0207101 -0.151423,0.144068 0.197581,0.123313 0.163019,0.12945 0.307584,0.139466 0.144565,0.00997154 0.236294,-0.140594 0.236294,-0.140594z"/>
   <path id="_322572616" class="fil12" d="M3.34489 0.990837c-0.070252,-0.0606865 -0.168749,-0.105355 -0.251364,-0.0915487 -0.0826149,0.0137616 -0.22357,0.0132653 -0.0970082,0.0922706 0.126562,0.0789602 0.104408,0.0829307 0.197039,0.0892927 0.0925864,0.00640705 0.151333,-0.0900146 0.151333,-0.0900146z"/>
   <path id="_322572376" class="fil9" d="M3.48178 0.99959c-0.0863147,-0.0745384 -0.207372,-0.12945 -0.308892,-0.11253 -0.101565,0.0169652 -0.274781,0.0163335 -0.119252,0.113432 0.155574,0.0970533 0.128322,0.101881 0.242114,0.109777 0.113793,0.0078509 0.18603,-0.11068 0.18603,-0.11068z"/>
  </g>
  <g id="_322571464">
   <path id="_322572232" class="fil7" d="M0.503991 0.713078c-0.00103776,0.0101069 -0.000631681,0.0128141 -0.00257185,0.0178676 -0.00198528,0.00500833 4.51201e-005,0.00406081 0.0178676,-0.00424129 0.0178676,-0.0083021 0.0289671,-0.00554977 0.0519783,-0.0276135 0.0230112,-0.0221088 0.0535124,-0.0565355 0.064251,-0.066507 0.0107386,-0.00992642 0.00866306,-0.01128 0.0175968,-0.0217479 0.00888866,-0.0104679 0.018048,-0.0212516 0.00911426,-0.0254929 -0.00888866,-0.00424129 -0.015025,-0.00207552 -0.015025,-0.00207552 0,0 -0.0822539,0.105491 -0.119207,0.117312 -0.0369534,0.0118215 -0.0240039,0.0124983 -0.0240039,0.0124983z"/>
   <g>
    <path id="_322572064" class="fil8" d="M0.502954 0.674951c-0.00690337,0.0218832 0.00554977,0.0223796 0.0169652,0.0187248 0.0114154,-0.00369985 0.040202,-0.0171005 0.0606865,-0.0389386 0.0204394,-0.0218832 0.0212516,-0.0287866 0.0330279,-0.0476919 0.0117312,-0.0189053 0.0488651,-0.036051 0.023688,-0.0348778 -0.0252221,0.00121824 -0.0104679,-0.0123178 -0.0448945,0.0128592 -0.0344717,0.025177 -0.0371338,0.0258989 -0.0433604,0.0339754 -0.00622657,0.00803138 -0.0189956,0.0227405 -0.0288317,0.0345169 -0.00983618,0.0117763 -0.017281,0.021432 -0.017281,0.021432z"/>
    <path id="_322571896" class="fil9" d="M0.511978 0.691826c0.00230112,-0.0002256 0.00469249,-0.000812162 0.00708385,-0.0015792 0.0114154,-0.00369985 0.0420068,-0.014664 0.0624462,-0.0365022 0.0204845,-0.0218832 0.0305012,-0.031178 0.0422324,-0.0500833 0.0089789,-0.0144384 0.0263953,-0.0278842 0.0228308,-0.0328925l-0.000992642 4.51201e-005c-0.00974594,0.000451201 -0.013536,-0.00130848 -0.0164688,-0.00216576 -0.00117312,-9.02402e-005 -0.002256,-0.0002256 -0.00315841,-0.000406081 -0.00369985,0.000270721 -0.00902402,0.00351937 -0.0252672,0.015386 -0.0344266,0.025177 -0.0371338,0.0258989 -0.0433604,0.0339754 -0.00622657,0.00803138 -0.0189956,0.0227405 -0.0288317,0.0345169 -0.00979106,0.0118215 -0.0172359,0.0214772 -0.0172359,0.0214772 -0.00320353,0.0100167 -0.00230112,0.0155213 0.000721921,0.0182285z"/>
    <path id="_322571728" class="fil10" d="M0.563369 0.669086c0.0139872,-0.0160628 0.0165591,-0.0179578 0.0237332,-0.0272074 0.00550465,-0.00712897 0.0422775,-0.045481 0.0513015,-0.0639803 0.00139872,-0.00293281 -0.00618145,-0.00627169 -0.0160628,-0.00536929 -0.0089789,0.000857282 -0.0203492,0.00591073 -0.019537,0.00505345 0.00347425,-0.00392545 0.0101069,-0.00676801 0.0155664,-0.00821186 0.00938498,-0.0024816 0.0186797,-4.51201e-005 0.0195821,-0.000631681 0.0226052,-0.000451201 -0.00270721,0.0164237 -0.0142128,0.0349229 -0.0117312,0.0189053 -0.0217479,0.0282001 -0.0422324,0.0500833 -0.00550465,0.00586561 -0.0117312,0.0109642 -0.0181383,0.0153408z"/>
    <path id="_322571608" class="fil11" d="M0.499885 0.692774c-0.00406081,0.0176871 0.00979106,0.0185444 0.0208004,0.0149799 0.0110544,-0.00356449 0.0417361,-0.012769 0.0621755,-0.0346522 0.0204845,-0.0218381 0.0290573,-0.0363217 0.0414202,-0.0504443 0.012408,-0.0141677 0.0391191,-0.0428641 0.0247258,-0.0510759 -0.00505345,0.0159274 -0.0190407,0.0239588 -0.0276586,0.0358705 -0.00861794,0.0119117 -0.0185895,0.0326669 -0.039074,0.0545502 -0.0204394,0.0218381 -0.0528356,0.0333889 -0.0624462,0.0365022 -0.00961058,0.00306817 -0.017642,0.001128 -0.0199431,-0.00573025z"/>
   </g>
  </g>
  <g id="_322570912">
   <path id="_322571296" class="fil7" d="M2.93732 0.286558c-0.0388484,-0.0326669 -0.0966021,-0.0630328 -0.149302,-0.0688081 -0.0526551,-0.00582049 -0.140549,-0.0249514 -0.0681313,0.0222893 0.0724629,0.0472859 0.0583403,0.0457969 0.115553,0.0606865 0.0572574,0.0148896 0.101881,-0.0141677 0.101881,-0.0141677z"/>
   <path id="_322571128" class="fil12" d="M2.8607 0.258267c-0.0248612,-0.0209357 -0.0618596,-0.0403825 -0.0956095,-0.0440823 -0.0337498,-0.00374497 -0.0900597,-0.0159725 -0.0436311,0.0143031 0.0463835,0.0302756 0.0373594,0.0293281 0.0739969,0.0388484 0.0366826,0.00952034 0.0652436,-0.00906914 0.0652436,-0.00906914z"/>
   <path id="_322570888" class="fil9" d="M2.91494 0.272164c-0.0305463,-0.0257185 -0.0760273,-0.049587 -0.117493,-0.0541441 -0.0414654,-0.00455713 -0.110634,-0.0196272 -0.0536478,0.0175517 0.0570318,0.0372241 0.0459323,0.036051 0.0909621,0.0477822 0.045075,0.0116861 0.0801784,-0.0111898 0.0801784,-0.0111898z"/>
  </g>
  <g id="_322570192">
   <path id="_322570744" class="fil13" d="M1.07029 0.698955c-0.0480529,0.0879391 -0.01128,0.135496 0.0276135,0.15765 0.0388935,0.022154 0.142083,0.0570318 0.230879,0.018048 0.0888415,-0.0390289 0.099941,-0.0716507 0.158868,-0.126787 0.0589268,-0.0551367 0.191896,-0.0096557 0.114786,-0.0943912 -0.0771554,-0.0847355 -0.0159725,-0.101385 -0.150927,-0.0957448 -0.134909,0.00564001 -0.143933,-0.000360961 -0.172675,0.0187248 -0.0287866,0.0191309 -0.0855928,0.0488651 -0.12981,0.0742225 -0.0442177,0.0253575 -0.0787346,0.0482785 -0.0787346,0.0482785z"/>
   <path id="_322570576" class="fil14" d="M1.0504 0.762981c-0.0332084,0.0742677 0.00595585,0.126517 0.0422324,0.147227 0.0362766,0.020665 0.136488,0.081893 0.222307,0.0442177 0.0858184,-0.0376753 0.128186,-0.0798174 0.181202,-0.10716 0.0530161,-0.0273428 0.165365,-0.0773358 0.13351,-0.168478 -0.0340205,0.0617243 -0.0842392,0.0531966 -0.123674,0.0823893 -0.039435,0.0292378 -0.0934437,0.0980008 -0.179307,0.135721 -0.0858184,0.0376753 -0.193701,-0.0178224 -0.22533,-0.0358254 -0.0316292,-0.0180029 -0.0526551,-0.055994 -0.0509406,-0.0980911z"/>
   <path id="_322570408" class="fil15" d="M1.07629 0.818569c0.00717409,0.00694849 0.0152055,0.0126787 0.0233271,0.0173261 0.0388935,0.022154 0.144384,0.0760273 0.233226,0.0370436 0.0887963,-0.0390289 0.130532,-0.050715 0.189459,-0.105852 0.045075,-0.0421873 0.114199,-0.0488651 0.109687,-0.0875781l-0.00293281 -0.00333889c-0.0299146,-0.0328474 -0.0390289,-0.0554526 -0.0468798,-0.0705227 -0.00338401,-0.00478273 -0.00636193,-0.00929474 -0.00893378,-0.0134909 -0.0114605,-0.0120471 -0.0314938,-0.0143482 -0.0951131,-0.0116861 -0.134954,0.00564001 -0.143933,-0.000360961 -0.17272,0.0187248 -0.0287415,0.0190858 -0.0855477,0.0488199 -0.129765,0.0742225 -0.0442177,0.0253575 -0.0787346,0.0482785 -0.0787346,0.0482785 -0.0220186,0.0402922 -0.0262599,0.0721019 -0.0206199,0.0968728z"/>
   <path id="_322570168" class="fil16" d="M1.25917 0.886655c0.0620401,-0.0324413 0.0721921,-0.0327572 0.105265,-0.0547307 0.0254026,-0.0168749 0.183909,-0.0820283 0.234128,-0.145106 0.00794114,-0.00992642 -0.0106483,-0.0545953 -0.0415556,-0.0855026 -0.0279745,-0.0279745 -0.0684021,-0.0429092 -0.065018,-0.0445786 0.0154311,-0.00758017 0.0388935,0.00171456 0.057122,0.013897 0.0312682,0.0208906 0.0561294,0.0672741 0.0596036,0.0672741 0.0684021,0.0793662 -0.0286964,0.0751701 -0.086405,0.129179 -0.0589268,0.0551367 -0.100663,0.0668229 -0.189459,0.105852 -0.0239136,0.0104679 -0.0490004,0.0142579 -0.0736811,0.0137165z"/>
  </g>
  <g id="_322569424">
   <path id="_322570024" class="fil17" d="M1.78685 3.92788c0.0325316,-0.0171456 0.0399764,-0.0239136 0.0590622,-0.0280196 0.0190858,-0.00415105 0.0122727,-0.00834722 -0.0486846,-0.0455713 -0.0610024,-0.0372241 -0.0749445,-0.0763883 -0.187835,-0.10152 -0.112936,-0.0251319 -0.278256,-0.0481883 -0.329918,-0.0606865 -0.0516625,-0.0124531 -0.051482,-0.00351937 -0.101024,-0.00938498 -0.0495419,-0.00586561 -0.100482,-0.0118666 -0.0953839,0.0235527 0.00514369,0.0354644 0.0239588,0.0496321 0.0239588,0.0496321 0,0 0.483868,0.0367278 0.59378,0.124577 0.109913,0.0878488 0.086044,0.0474212 0.086044,0.0474212z"/>
   <g>
    <path id="_322569856" class="fil18" d="M1.67373 4.00752c0.0799528,-0.0230564 0.0564452,-0.0616792 0.0223796,-0.0887512 -0.0340657,-0.0270721 -0.132292,-0.0872171 -0.239452,-0.105085 -0.10716,-0.0179127 -0.129675,-0.00654241 -0.21035,-0.00410593 -0.0807198,0.0024816 -0.207101,-0.0752152 -0.152912,-0.00153408 0.0541892,0.0736811 -0.0162432,0.056355 0.128998,0.109822 0.145196,0.0535124 0.152822,0.0601902 0.18964,0.0628072 0.036818,0.00261697 0.106889,0.0117312 0.162207,0.0177322 0.0553172,0.00600097 0.0994898,0.00911426 0.0994898,0.00911426z"/>
    <path id="_322569688" class="fil19" d="M1.53458 3.83679c-0.0765688,-0.00992642 -0.0874427,-0.0140323 -0.12981,-0.0170554 -0.0325316,-0.00230112 -0.222307,-0.0364119 -0.296349,-0.0264404 -0.0116861,0.0015792 -0.00658753,0.0312231 0.0161079,0.0592427 0.0205748,0.0254026 0.0587012,0.049587 0.0545051,0.0489553 -0.0188602,-0.00270721 -0.0407434,-0.0170103 -0.0561294,-0.0305914 -0.0263953,-0.023282 -0.037585,-0.0564001 -0.0412849,-0.057844 -0.0466542,-0.0674094 0.0551367,-0.0249063 0.134142,-0.0272977 0.0807198,-0.0024816 0.128863,0.00915938 0.236068,0.0270721 0.0287866,0.00482785 0.056716,0.0134458 0.0827502,0.0239588z"/>
    <path id="_322569568" class="fil20" d="M1.7336 3.98108c0.0617243,-0.0233722 0.0364119,-0.0667777 0.00347425,-0.0929474 -0.0328925,-0.0261245 -0.122275,-0.100437 -0.229436,-0.11835 -0.107205,-0.0179127 -0.168072,-0.0147994 -0.235662,-0.0237783 -0.0675899,-0.00902402 -0.208094,-0.0320804 -0.203988,0.0278842 0.0583854,-0.0166493 0.11068,0.00933986 0.163966,0.0115507 0.0533319,0.00216576 0.136037,-0.0094301 0.243197,0.00848258 0.107205,0.0179127 0.207056,0.0925864 0.235707,0.115372 0.0286513,0.0227856 0.0388935,0.0511211 0.0227405,0.0717861z"/>
   </g>
  </g>
  <g id="_322568872">
   <path id="_322569256" class="fil14" d="M3.49915 3.1132c0.0381716,-0.0854123 -0.00685825,-0.145603 -0.0486395,-0.169381 -0.0417361,-0.0237783 -0.157063,-0.0942559 -0.255831,-0.0508955 -0.0987228,0.0433604 -0.147498,0.0918194 -0.2085,0.123268 -0.0610024,0.0314938 -0.190271,0.0890671 -0.153634,0.193881 0.0391642,-0.071019 0.0969631,-0.0611828 0.142354,-0.0947973 0.0453908,-0.0336145 0.107521,-0.1128 0.206289,-0.156161 0.0987679,-0.0433604 0.222938,0.0204845 0.259305,0.0411946 0.0363668,0.0207552 0.0605963,0.0644766 0.0586561,0.11289z"/>
   <path id="_322569088" class="fil21" d="M3.46928 3.04922c-0.00825698,-0.00798626 -0.0174615,-0.0145738 -0.0268013,-0.019898 -0.0447591,-0.0254929 -0.166177,-0.0874879 -0.268374,-0.0426385 -0.102197,0.0448945 -0.150205,0.0583854 -0.21802,0.121824 -0.0518881,0.0485041 -0.13139,0.0562196 -0.126246,0.100753l0.00342913 0.00383521c0.0344266,0.0378106 0.0448945,0.0638449 0.0539185,0.0811259 0.00392545,0.00554977 0.00730945,0.0107386 0.0102423,0.0155664 0.0132202,0.0138519 0.0362766,0.016514 0.109506,0.0134458 0.155258,-0.00649729 0.165591,0.000451201 0.198709,-0.0215674 0.033073,-0.0219735 0.098452,-0.0561745 0.149347,-0.0853672 0.0508955,-0.0291927 0.0906011,-0.0555879 0.0906011,-0.0555879 0.0253575,-0.0463383 0.0301853,-0.0829758 0.023688,-0.111492z"/>
   <path id="_322568848" class="fil16" d="M3.25889 2.97089c-0.0714251,0.0373594 -0.0831112,0.0377204 -0.121147,0.0629876 -0.0292378,0.0194016 -0.211613,0.0943912 -0.269412,0.166944 -0.00911426,0.0114605 0.0122275,0.0628523 0.0477822,0.0984069 0.0322157,0.0322157 0.0787797,0.0493614 0.0748542,0.0513015 -0.0177322,0.0087533 -0.044714,-0.00194016 -0.06574,-0.0159725 -0.0359607,-0.024049 -0.0645668,-0.077381 -0.0685825,-0.077381 -0.0786894,-0.0913682 0.0330279,-0.0865403 0.0994447,-0.148671 0.0678155,-0.0634388 0.115823,-0.0769298 0.21802,-0.121824 0.0274781,-0.0120471 0.056355,-0.0163786 0.0847806,-0.015792z"/>
  </g>
 </g>
</svg>
