<?xml version="1.0" encoding="UTF-8" standalone="no"?>
<!-- Creator: CorelDRAW -->

<svg
   xmlns:dc="http://purl.org/dc/elements/1.1/"
   xmlns:cc="http://creativecommons.org/ns#"
   xmlns:rdf="http://www.w3.org/1999/02/22-rdf-syntax-ns#"
   xmlns:svg="http://www.w3.org/2000/svg"
   xmlns="http://www.w3.org/2000/svg"
   xmlns:xlink="http://www.w3.org/1999/xlink"
   xmlns:sodipodi="http://sodipodi.sourceforge.net/DTD/sodipodi-0.dtd"
   xmlns:inkscape="http://www.inkscape.org/namespaces/inkscape"
   xml:space="preserve"
   width="3.36221in"
   height="3.4207699in"
   style="fill-rule:evenodd"
   viewBox=""
   id="svg8947"
   version="1.1"
   inkscape:version="0.48.3.1 r9886"
   sodipodi:docname="player13.svg">
  <metadata
     id="metadata3960">
    <rdf:RDF>
      <cc:Work
         rdf:about="">
        <dc:format>image/svg+xml</dc:format>
        <dc:type
           rdf:resource="http://purl.org/dc/dcmitype/StillImage" />
        <dc:title></dc:title>
        <cc:license
           rdf:resource="http://www.gnu.org/licenses/gpl-3.0.html" />
        <dc:creator>
          <cc:Agent>
            <dc:title>Abhash Bikram Thapa</dc:title>
          </cc:Agent>
        </dc:creator>
        <dc:description>http://pixelpinch.com</dc:description>
      </cc:Work>
    </rdf:RDF>
  </metadata>
   pagecolor="#ffffff"
   bordercolor="#666666"
   borderopacity="1"
   objecttolerance="10"
   gridtolerance="10"
   guidetolerance="10"
   inkscape:pageopacity="0"
   inkscape:pageshadow="2"
   inkscape:window-width="640"
   inkscape:window-height="480"
   id="namedview9037"
   showgrid="false"
   inkscape:zoom="0.9731707"
   inkscape:cx="151.29945"
   inkscape:cy="153.93465"
   inkscape:window-x="0"
   inkscape:window-y="0"
   inkscape:window-maximized="0"
   inkscape:current-layer="svg8947" />
 <defs
   id="defs8949">
  <style
   type="text/css"
   id="style8951">
   
    .fil17 {fill:#513B22}
    .fil20 {fill:#644217}
    .fil21 {fill:#7D4A07}
    .fil7 {fill:#804B05}
    .fil19 {fill:#814C07}
    .fil14 {fill:#824A04}
    .fil18 {fill:#874A00}
    .fil11 {fill:#905100}
    .fil16 {fill:#935706}
    .fil15 {fill:#985300}
    .fil10 {fill:#A46008}
    .fil1 {fill:#A65E00}
    .fil13 {fill:#D57D07}
    .fil9 {fill:#D67F0A}
    .fil8 {fill:#F39110}
    .fil12 {fill:#FFB858}
    .fil5 {fill:#F39110;fill-opacity:0.501961}
    .fil4 {fill:url(#id0)}
    .fil6 {fill:url(#id1)}
    .fil0 {fill:url(#id2)}
    .fil2 {fill:url(#id3)}
    .fil3 {fill:url(#id4)}
  
  </style>
  <linearGradient
   id="id0"
   gradientUnits="userSpaceOnUse"
   x1="0.31344301"
   y1="1.03422"
   x2="1.3504"
   y2="0.016923601">
   <stop
   offset="0"
   style="stop-color:#353535"
   id="stop8954" />
   <stop
   offset="1"
   style="stop-color:#BE6B00"
   id="stop8956" />
  </linearGradient>
  <linearGradient
   id="id1"
   gradientUnits="userSpaceOnUse"
   x1="0.66719699"
   y1="1.58016"
   x2="1.35263"
   y2="0.40062699">
   <stop
   offset="0"
   style="stop-color:#353535"
   id="stop8959" />
   <stop
   offset="1"
   style="stop-color:#8E5000"
   id="stop8961" />
  </linearGradient>
  <linearGradient
   id="id2"
   gradientUnits="userSpaceOnUse"
   x1="0.34498999"
   y1="1.82753"
   x2="1.67953"
   y2="0.25687701">
   <stop
   offset="0"
   style="stop-color:#353535"
   id="stop8964" />
   <stop
   offset="0.2"
   style="stop-color:#44362A"
   id="stop8966" />
   <stop
   offset="0.678431"
   style="stop-color:#A25C00"
   id="stop8968" />
   <stop
   offset="1"
   style="stop-color:#C97300"
   id="stop8970" />
  </linearGradient>
  <linearGradient
   id="id3"
   gradientUnits="userSpaceOnUse"
   xlink:href="#id0"
   x1="0.80541199"
   y1="1.8976901"
   x2="1.47822"
   y2="0.92808402">
  </linearGradient>
  <linearGradient
   id="id4"
   gradientUnits="userSpaceOnUse"
   xlink:href="#id1"
   x1="1.02539"
   y1="2.03633"
   x2="1.49614"
   y2="1.50916">
  </linearGradient>
 <linearGradient
   inkscape:collect="always"
   xlink:href="#id0"
   id="linearGradient9041"
   gradientUnits="userSpaceOnUse"
   x1="0.31344301"
   y1="1.03422"
   x2="1.3504"
   y2="0.016923601" /><linearGradient
   inkscape:collect="always"
   xlink:href="#id1"
   id="linearGradient9043"
   gradientUnits="userSpaceOnUse"
   x1="0.66719699"
   y1="1.58016"
   x2="1.35263"
   y2="0.40062699" /></defs>
 <g
   id="Layer_x0020_1"
   transform="scale(149.16939,149.62596)">
  <metadata
   id="CorelCorpID_0Corel-Layer" />
  <g
   id="_350343248">
   <g
   id="g8977">
    <ellipse
   id="_350343392"
   class="fil0"
   cx="1.01226"
   cy="1.0422"
   rx="1.01226"
   ry="1.01811"
   sodipodi:cx="1.01226"
   sodipodi:cy="1.0422"
   sodipodi:rx="1.01226"
   sodipodi:ry="1.01811"
   style="fill:url(#id2)"
   d="m 2.0245199,1.0422 c 0,0.5622866 -0.4532042,1.01811 -1.0122599,1.01811 C 0.45320422,2.06031 0,1.6044866 0,1.0422 0,0.47991332 0.45320422,0.02408993 1.01226,0.02408993 c 0.5590557,0 1.0122599,0.45582339 1.0122599,1.01811007 z" />
    <path
   id="_350343512"
   class="fil1"
   d="M 0.261494,1.71032 C 0.51784,1.542438 0.3359416,1.501382 0.576533,1.518982 0.817124,1.5365838 0.834726,1.5542187 0.957967,1.389887 1.081208,1.225555 1.145755,1.254935 1.310052,1.184497 1.474351,1.1140592 1.464095,1.061256 1.586591,1.061256 c 0.122496,0 0.175297,0 0.269193,0 0.093894,0 0.169264,-0.0757613 0.169264,-0.0757613 0,0 -0.00553,0.185092 -0.018097,0.240947 -0.012563,0.055852 -0.17537,-8.868e-4 -0.297864,-8.868e-4 -0.122496,0 -0.082185,0.011745 -0.328631,0.123241 -0.246448,0.111494 -0.28754,0.082183 -0.387288,0.170187 -0.0997512,0.088004 0.0175638,0.11146 -0.170189,0.152552 -0.187753,0.041094 -0.170189,0.011783 -0.258191,0.052839 -0.088004,0.041058 -0.195881,0.089495 -0.195881,0.089495 L 0.261494,1.7103209 z"
   inkscape:connector-curvature="0"
   style="fill:#a65e00" />
    <path
   id="_350343704"
   class="fil2"
   d="M 0.260038,1.72353 C 0.516384,1.555648 0.3344856,1.514592 0.575077,1.532192 0.815668,1.5497938 0.83327,1.5674287 0.956511,1.403097 1.079752,1.238763 1.144299,1.268145 1.308598,1.197707 1.472894,1.1272692 1.462639,1.074466 1.585135,1.074466 c 0.122496,0 0.175299,0 0.269193,0 0.093894,0 0.169267,-0.0757613 0.169267,-0.0757613 0,0 -0.00554,0.185092 -0.0181,0.240947 -0.012561,0.055852 -0.175368,-8.892e-4 -0.297864,-8.892e-4 -0.122496,0 -0.082185,0.011747 -0.328631,0.123243 -0.246446,0.111494 -0.287537,0.082183 -0.387288,0.170187 -0.0997488,0.088004 0.0175662,0.11146 -0.170187,0.152552 -0.187755,0.041094 -0.170189,0.011783 -0.258193,0.052839 -0.088004,0.041056 -0.195879,0.089495 -0.195879,0.089495 L 0.260038,1.7235305 z"
   inkscape:connector-curvature="0"
   style="fill:url(#id3)" />
    <path
   id="_350343896"
   class="fil3"
   d="M 0.609216,1.97643 C 0.756975,1.954676 0.72181,1.90773 0.938909,1.860782 1.156011,1.813836 1.290961,1.825616 1.349654,1.737577 1.408347,1.649537 1.325453,1.643683 1.455295,1.643683 c 0.12984,0 0.246446,-0.064583 0.322738,-0.08804 0.076295,-0.023456 0.134314,-0.047124 0.134314,-0.047124 0,0 -0.276682,0.340447 -0.327213,0.373198 C 1.534603,1.914471 1.396601,1.884237 1.29685,1.890127 1.197101,1.896017 1.009313,1.95471 0.974112,1.960567 0.9389085,1.966423 0.795477,2.036932 0.795477,2.036932 L 0.609216,1.9764297 z"
   inkscape:connector-curvature="0"
   style="fill:url(#id4)" />
    <path
   id="_350344088"
   class="fil4"
   d="M 0.234737,0.552187 C 0.352088,0.399633 0.399033,0.382034 0.545731,0.317486 0.692428,0.2529383 0.786322,0.188388 0.927165,0.194245 1.068007,0.2001 1.259203,0.2610975 1.359697,0.2610975 c 0.036906,0 0.068275,-0.0211491 0.105179,-0.0803734 0.025977,-0.0416248 0.199002,0.0823273 0.199002,0.0823273 0,0 -0.157591,-0.158904 -0.398571,-0.206526 C 1.024324,0.0089037 0.961373,0.0184147 0.879048,0.0328201 0.7967207,0.0472278 0.608434,0.099426 0.530828,0.1463741 0.4532219,0.1933224 0.082966,0.4635071 0.041484,0.7528561 1.4e-6,1.0422051 0.234738,0.5521871 0.234738,0.5521871 z"
   inkscape:connector-curvature="0"
   style="fill:url(#linearGradient9041)" />
    <path
   id="_350344280"
   class="fil5"
   d="M 0.455739,0.198502 C 0.4746568,0.1853416 0.676566,0.083283 0.844412,0.067635 1.012258,0.0519824 1.081949,0.048435 1.138197,0.0597886 1.194441,0.0711469 1.257321,0.0289529 1.313743,0.0979016 1.370164,0.1668479 1.355505,0.1521913 1.334966,0.1961968 1.314414,0.2401976 1.277798,0.2323583 1.343756,0.2563079 c 0.065968,0.0239543 0.152556,0 0.152556,0 0,0 -0.00291,-0.0733474 0.049889,0 0.052805,0.0733497 -0.044001,0.0557456 0.076295,0.0968393 0.120296,0.0410937 0.076295,-0.017635 0.076295,0.0997488 0,0.117389 0.145706,0.100709 0.137399,0.148651 -0.0083,0.0479395 -0.128597,-0.0488643 -0.055252,0.10078 0.07335,0.149637 0.011745,0.0704355 0.07335,0.149637 0.061603,0.0792043 0.093859,0.0151546 0.13204,0.102696 0.034596,0.0793489 0.036233,0.1397419 0.036197,0.1503839 0.00128,-0.020791 0.00198,-0.041727 0.00198,-0.062843 0,-0.5623029 -0.453221,-1.0181099 -1.01226,-1.0181099 -0.10833702,0 -0.21270302,0.0171749 -0.31053402,0.0488643 -0.0892821,0.0320782 -0.172639,0.0746231 -0.245986,0.125546 z"
   inkscape:connector-curvature="0"
   style="fill:#f39110;fill-opacity:0.5019609" />
    <path
   id="_350344472"
   class="fil1"
   d="m 0.0704378,1.19032 c 0.129098,-0.246446 -0.0410913,-0.398998 0.357942,-0.393143 0.399036,0.005855 0.346233,-0.0997844 0.633772,-0.123241 0.287537,-0.0234564 0.399069,-0.0117092 0.598566,-0.0410557 0.1995,-0.0293465 0.222779,-0.129133 0.260678,-0.0331429 0.021327,0.0539363 0.042476,0.108513 0.049644,0.13307 0.00557,0.0190909 0.00894,0.0119938 -0.042229,0.0254435 -0.116959,0.0308001 -0.098684,0.044781 -0.227035,0.044781 -0.128351,0 0.011745,-0.005855 -0.240591,-0.005855 -0.252338,0 -0.290449,-0.0147254 -0.375544,0.105606 -0.085094,0.120331 -3.56e-5,0.164332 -0.375577,0.164332 -0.375544,0 -0.305103,-0.111494 -0.42249,0.046948 -0.117386,0.158442 -0.211351,0.324763 -0.211351,0.324763 0,0 -0.0597933,-0.176364 -0.0057858,-0.248507 z"
   inkscape:connector-curvature="0"
   style="fill:#a65e00" />
    <path
   id="_350344664"
   class="fil6"
   d="m 0.0821494,1.20941 c 0.129095,-0.246446 -0.0410913,-0.398998 0.357942,-0.393143 0.399033,0.005857 0.34623,-0.0997844 0.63377,-0.123241 0.28754,-0.0234564 0.399069,-0.0117092 0.598569,-0.0410557 0.1995,-0.0293465 0.222779,-0.129131 0.260676,-0.0331429 0.021327,0.0539363 0.042476,0.108513 0.049644,0.13307 0.00557,0.0190909 0.00894,0.0119938 -0.042227,0.0254435 -0.116962,0.0308001 -0.098686,0.0447833 -0.227037,0.0447833 -0.128351,0 0.011747,-0.005857 -0.240591,-0.005857 -0.252336,0 -0.290447,-0.0147254 -0.375541,0.105606 -0.085094,0.120331 -3.56e-5,0.164332 -0.375579,0.164332 -0.375541,0 -0.305103,-0.111494 -0.42249,0.046948 -0.117386,0.158442 -0.211351,0.324763 -0.211351,0.324763 0,0 -0.0597933,-0.176364 -0.0057835,-0.248507 z"
   inkscape:connector-curvature="0"
   style="fill:url(#linearGradient9043)" />
   </g>
   <g
   id="g8987">
    <g
   id="g8989">
     <path
   id="_350344976"
   class="fil7"
   d="M 0.982993,0.0407143 C 0.9663635,0.049476 0.9625695,0.0529499 0.9528047,0.0550508 c -0.009765,0.0021033 -0.006284,0.0042659 0.0248886,0.0232927 0.0311724,0.0190269 0.0382956,0.0390378 0.0960094,0.0518852 0.057714,0.012845 0.142223,0.0246349 0.168633,0.0310088 0.026411,0.006376 0.026328,0.001812 0.051648,0.004804 0.025318,0.00299 0.051366,0.006075 0.048743,-0.0120483 -0.00263,-0.0181211 -0.01225,-0.0253628 -0.01225,-0.0253628 0,0 -0.247314,-0.0187708 -0.303503,-0.0636703 C 0.9707847,0.0200606 0.9829918,0.0407141 0.9829918,0.0407141 z"
   inkscape:connector-curvature="0"
   style="fill:#804b05" />
     <g
   id="g8992">
      <path
   id="_350345240"
   class="fil8"
   d="M 1.0408,0 C 0.9999482,0.0117922 1.011956,0.031547 1.029368,0.0453856 1.04678,0.0592242 1.096994,0.0899484 1.151772,0.0991014 1.20655,0.108252 1.218048,0.1024472 1.259296,0.1011833 1.300541,0.0999218 1.365153,0.1396449 1.337455,0.10197293 1.309757,0.06430093 1.345755,0.07316703 1.27152,0.04583133 1.1972881,0.01849568 1.193404,0.01506918 1.1745834,0.01372948 1.1557628,0.01238973 1.1199286,0.00773734 1.0916562,0.00467369 1.0633838,0.00161004 1.0408001,-3.5e-8 1.0408001,-3.5e-8 z"
   inkscape:connector-curvature="0"
   style="fill:#f39110" />
      <path
   id="_350345432"
   class="fil9"
   d="M 1.02402,0.0312554 C 1.02675,0.0345277 1.03014,0.0376696 1.03377,0.040553 1.051182,0.054394 1.099461,0.0903776 1.154241,0.0995306 1.209019,0.1086812 1.233642,0.1146354 1.27489,0.1133716 1.306439,0.1124065 1.3451,0.1254602 1.349148,0.1147966 L 1.348098,0.1133356 C 1.337359,0.0987264 1.336197,0.091117 1.334468,0.0856798 1.333418,0.083752 1.332568,0.0819949 1.331878,0.0803919 1.3276579,0.07492431 1.3171651,0.0700846 1.2821632,0.0571945 1.207929,0.0298588 1.2040473,0.0264323 1.1852267,0.0250926 1.1664061,0.02375285 1.1305695,0.01910046 1.1022971,0.01603681 1.0740247,0.01297316 1.051441,0.01136309 1.051441,0.01136309 1.03272,0.01676716 1.0251059,0.02384299 1.0240199,0.03125549 z"
   inkscape:connector-curvature="0"
   style="fill:#d67f0a" />
      <path
   id="_350345624"
   class="fil10"
   d="M 1.11193,0.0872737 C 1.151072,0.0923648 1.156637,0.0944515 1.17828,0.0959928 1.194912,0.097176 1.29191,0.1146071 1.329762,0.1095113 1.335742,0.10870745 1.333132,0.0935623 1.321522,0.0792329 1.311015,0.0662551 1.291533,0.0538985 1.293674,0.0542044 1.303314,0.0555868 1.314498,0.0629116 1.322364,0.0698522 1.335847,0.0817559 1.341581,0.0986676 1.343461,0.099405 1.36732,0.1338711 1.315276,0.1121362 1.274887,0.1133716 1.233639,0.1146356 1.209016,0.1086816 1.154238,0.0995306 1.139503,0.0970669 1.125245,0.0926635 1.111926,0.0872736 z"
   inkscape:connector-curvature="0"
   style="fill:#a46008" />
      <path
   id="_350345816"
   class="fil11"
   d="M 1.0102,0.0135374 C 0.9786672,0.0254766 0.9916047,0.0476667 1.00842,0.0610334 1.025235,0.0743977 1.070938,0.1123756 1.125716,0.1215262 1.180497,0.1306772 1.211619,0.1290972 1.246163,0.1336954 1.280707,0.1382934 1.352539,0.1500926 1.350436,0.1194395 1.320601,0.1279425 1.293853,0.1146515 1.26661,0.1135325 1.239367,0.1124105 1.19708,0.1183435 1.142302,0.1091935 1.087521,0.1000405 1.03648,0.0618587 1.021831,0.0502159 1.007181,0.0385731 1.001946,0.0240824 1.010198,0.0135375 z"
   inkscape:connector-curvature="0"
   style="fill:#905100" />
     </g>
    </g>
    <path
   id="_350344952"
   class="fil12"
   d="m 1.01324,0.0214787 c 0,0 0.0039,-0.0083444 0.015731,-0.0149128 C 1.040804,-8e-8 1.055977,-0.00115725 1.068052,0.00282407 c 0.012074,0.00398369 0.032645,0.00493456 0.041649,0.00628854 0.009,0.00135635 0.065069,0.00401452 0.071936,0.00533293 0.00687,0.0013184 0.019859,0.0053163 0.019859,0.0053163 0,0 -0.142256,-0.0151736 -0.159464,-0.0076876 -0.017208,0.0074836 -0.028792,0.0094044 -0.028792,0.0094044 z"
   inkscape:connector-curvature="0"
   style="fill:#ffb858" />
   </g>
   <g
   id="g8999">
    <path
   id="_350346200"
   class="fil7"
   d="M 1.81084,0.529999 C 1.7547861,0.4815829 1.676179,0.4459265 1.610242,0.4569338 1.5443071,0.4679411 1.431818,0.4675333 1.5328232,0.5305752 c 0.101008,0.0630396 0.083328,0.0661815 0.157228,0.0712868 0.073897,0.005105 0.120789,-0.071863 0.120789,-0.071863 z"
   inkscape:connector-curvature="0"
   style="fill:#804b05" />
    <path
   id="_350346392"
   class="fil12"
   d="M 1.70975,0.506493 C 1.673847,0.4754842 1.6235007,0.4526468 1.581271,0.4596965 c -0.04223,0.007052 -0.114277,0.006789 -0.049585,0.0471664 0.064692,0.0403752 0.05337,0.042386 0.1007,0.045656 C 1.679716,0.5557889 1.70975,0.506493 1.70975,0.506493 z"
   inkscape:connector-curvature="0"
   style="fill:#ffb858" />
    <path
   id="_350346584"
   class="fil9"
   d="M 1.77971,0.510977 C 1.7355882,0.4728663 1.673715,0.4448027 1.621818,0.4534672 1.569919,0.4621322 1.481376,0.4618092 1.560879,0.5114299 1.640385,0.5610506 1.626468,0.5635214 1.684634,0.5675407 1.742798,0.5715577 1.779709,0.510977 1.779709,0.510977 z"
   inkscape:connector-curvature="0"
   style="fill:#d67f0a" />
   </g>
   <g
   id="g9004">
    <path
   id="_350346824"
   class="fil7"
   d="M 0.25761,0.364529 C 0.25708596,0.369684 0.25730411,0.371085 0.256296,0.373646 0.255288,0.376209 0.25631497,0.37574 0.26544,0.371488 0.274565,0.367234 0.2802461,0.368652 0.2920027,0.3573649 0.303757,0.3460754 0.3193574,0.3284736 0.3248516,0.323385 c 0.005494,-0.005091 0.004434,-0.005769 0.008982,-0.0111235 0.00455,-0.005357 0.009234,-0.010865 0.004674,-0.0130276 -0.004562,-0.002163 -0.007692,-0.00106 -0.007692,-0.00106 0,0 -0.0420446,0.0539103 -0.0609268,0.0599593 -0.0188799,0.006047 -0.0122783,0.006395 -0.0122783,0.006395 z"
   inkscape:connector-curvature="0"
   style="fill:#804b05" />
    <g
   id="g9007">
     <path
   id="_350347088"
   class="fil8"
   d="M 0.257086,0.345047 C 0.25356,0.3562227 0.259927,0.3564811 0.26576,0.354596 0.271596,0.352711 0.2863092,0.345872 0.2967688,0.3346918 0.3072284,0.3235137 0.3076504,0.3199877 0.3136544,0.3103273 0.3196584,0.3006673 0.3386355,0.2918956 0.3257596,0.292505 0.3128861,0.29311678 0.3204146,0.286205 0.3028131,0.299076 0.285209,0.3119447 0.2838313,0.3123147 0.2806514,0.3164288 c -0.00318,0.004116 -0.009715,0.0116333 -0.0147325,0.0176563 -0.005018,0.006023 -0.008833,0.0109623 -0.008833,0.0109623 z"
   inkscape:connector-curvature="0"
   style="fill:#f39110" />
     <path
   id="_350347280"
   class="fil9"
   d="m 0.2617,0.353667 c 0.001169,-1.2568e-4 0.002407,-4.2682e-4 0.003623,-8.1808e-4 0.005833,-0.001885 0.0214621,-0.007479 0.0319193,-0.018657 0.0104596,-0.0111781 0.0155838,-0.0159229 0.0215878,-0.0255834 0.004593,-0.007391 0.0134876,-0.0142749 0.011657,-0.0168311 l -4.9559e-4,1.897e-5 c -0.004991,2.3713e-4 -0.006915,-6.5683e-4 -0.008427,-0.001091 -6.023e-4,-5.454e-5 -0.001136,-1.2805e-4 -0.00161,-2.1341e-4 -0.001897,1.3516e-4 -0.00461,0.001805 -0.0129091,0.007873 -0.0176041,0.0128711 -0.0189818,0.0132387 -0.0221617,0.0173551 -0.00318,0.004116 -0.009715,0.0116333 -0.0147325,0.0176563 -0.005018,0.006023 -0.008833,0.0109623 -0.008833,0.0109623 -0.001615,0.005122 -0.001152,0.007948 3.8177e-4,0.009328 z"
   inkscape:connector-curvature="0"
   style="fill:#d67f0a" />
     <path
   id="_359962744"
   class="fil10"
   d="M 0.287974,0.342033 C 0.295116,0.333826 0.296444,0.332866 0.3001005,0.3281328 0.3029105,0.3244958 0.321712,0.3048899 0.326317,0.2954215 0.32704497,0.2939275 0.32317,0.2922155 0.31811,0.2926925 c -0.004581,4.3157e-4 -0.0103908,0.003019 -0.009995,0.002573 0.001788,-0.002001 0.005176,-0.00345 0.00797,-0.004197 0.00479,-0.00128 0.009547,-1.423e-5 0.0100043,-3.3435e-4 0.0115527,-2.1815e-4 -0.00138,0.008413 -0.007258,0.0178744 -0.006004,0.00966 -0.0111283,0.0144053 -0.0215878,0.0255834 -0.002812,0.003007 -0.005999,0.005608 -0.009269,0.007842 z"
   inkscape:connector-curvature="0"
   style="fill:#a46008" />
     <path
   id="_359962936"
   class="fil11"
   d="M 0.255523,0.354136 C 0.253453,0.363197 0.260522,0.363614 0.2661557,0.361793 0.2717897,0.359972 0.2874803,0.355274 0.2979399,0.3440964 0.3083995,0.3329183 0.3127863,0.3255319 0.3191128,0.3183044 0.3254388,0.3110744 0.3391095,0.2963846 0.3317515,0.2921922 0.3291505,0.3003372 0.3220175,0.3044492 0.3176046,0.3105338 0.3131896,0.3166158 0.3080986,0.3272274 0.2976387,0.3384078 0.2871815,0.3495859 0.2706278,0.3554784 0.2657194,0.3570648 0.2608114,0.3586508 0.2566854,0.35764101 0.255523,0.3541368 z"
   inkscape:connector-curvature="0"
   style="fill:#905100" />
    </g>
   </g>
   <g
   id="g9013">
    <path
   id="_359963152"
   class="fil7"
   d="M 1.50141,0.146505 C 1.4815674,0.1298019 1.4520383,0.114294 1.4251081,0.1113252 c -0.02693,-0.002969 -0.071863,-0.0127431 -0.034827,0.0114152 0.037034,0.0241559 0.029804,0.0234066 0.059065,0.0310135 0.029261,0.007607 0.052063,-0.007249 0.052063,-0.007249 z"
   inkscape:connector-curvature="0"
   style="fill:#804b05" />
    <path
   id="_359963344"
   class="fil12"
   d="M 1.46226,0.132043 C 1.4495501,0.1213463 1.4306371,0.1114132 1.413391,0.1095114 1.396143,0.1076094 1.367365,0.1013524 1.391085,0.1168224 c 0.02372,0.0154724 0.019089,0.014991 0.037831,0.0198639 0.01874,0.004873 0.033344,-0.004643 0.033344,-0.004643 z"
   inkscape:connector-curvature="0"
   style="fill:#ffb858" />
    <path
   id="_359963536"
   class="fil9"
   d="M 1.48998,0.139161 C 1.4743606,0.1260148 1.4511177,0.1138053 1.4299211,0.1114696 c -0.021197,-0.002336 -0.056564,-0.010028 -0.027412,0.008985 0.02915,0.0190126 0.023459,0.0184222 0.046491,0.024412 0.023032,0.005987 0.04098,-0.005705 0.04098,-0.005705 z"
   inkscape:connector-curvature="0"
   style="fill:#d67f0a" />
   </g>
   <g
   id="g9018">
    <path
   id="_359963776"
   class="fil13"
   d="M 0.547091,0.357311 C 0.522513,0.402258 0.541312,0.4265656 0.5611904,0.4378907 0.5810709,0.4492158 0.6338216,0.4670357 0.6792234,0.4471027 0.7246233,0.42717 0.7303024,0.4105002 0.7604243,0.3823155 0.7905462,0.3541309 0.8585156,0.3773665 0.8190889,0.3340512 0.7796598,0.2907357 0.8109149,0.2822442 0.7419475,0.2851253 0.6729775,0.2880063 0.6683749,0.28493323 0.6536755,0.2946953 0.6389761,0.3044603 0.6099379,0.3196574 0.5873328,0.3326257 0.5647277,0.345594 0.5470904,0.3573104 0.5470904,0.3573104 z"
   inkscape:connector-curvature="0"
   style="fill:#d57d07" />
    <path
   id="_359963968"
   class="fil14"
   d="M 0.536902,0.390034 C 0.5199381,0.4279858 0.539947,0.4547097 0.5584993,0.4652784 0.5770496,0.4758494 0.6282637,0.5071499 0.6721313,0.4878882 0.7159993,0.4686289 0.7376607,0.4471004 0.7647593,0.4331219 0.7918579,0.4191458 0.8492871,0.3935743 0.8330085,0.3470054 0.8156107,0.3785524 0.7899396,0.3741822 0.7697769,0.3891187 0.7496118,0.4040552 0.7220082,0.4392136 0.6781377,0.4584753 0.6342697,0.4777346 0.5791097,0.44938395 0.5629497,0.4401788 0.5467873,0.43097125 0.5360384,0.4115508 0.5369016,0.3900341 z"
   inkscape:connector-curvature="0"
   style="fill:#824a04" />
    <path
   id="_359964160"
   class="fil15"
   d="M 0.550162,0.418449 C 0.553828,0.422006 0.557923,0.424932 0.5620657,0.427294 0.5819439,0.4386191 0.6358778,0.4661635 0.6812777,0.4462308 0.7266799,0.4262957 0.7480045,0.4203083 0.7781265,0.3921261 0.8011679,0.3705667 0.8364971,0.3671545 0.8341993,0.3473594 l -0.00151,-0.001693 C 0.8173971,0.3288661 0.81274,0.317311 0.8087397,0.3096187 0.8069997,0.3071667 0.8054887,0.3048647 0.8041747,0.3027117 0.7983037,0.2965537 0.7880668,0.2953817 0.7555476,0.2967407 0.6865776,0.2996217 0.681975,0.29654863 0.6672756,0.3063107 0.6525762,0.3160757 0.623538,0.3312728 0.6009329,0.3442411 0.5783278,0.3572094 0.5606905,0.3689258 0.5606905,0.3689258 0.5494247,0.3895248 0.5472764,0.4057821 0.5501622,0.4184493 z"
   inkscape:connector-curvature="0"
   style="fill:#985300" />
    <path
   id="_359964352"
   class="fil16"
   d="M 0.643625,0.453247 C 0.6753452,0.4366601 0.6805334,0.436506 0.6974357,0.4252782 0.7104278,0.41665161 0.7914319,0.3833356 0.8171127,0.351108 0.82116753,0.34601931 0.81167306,0.3232008 0.7958782,0.3073988 0.7815772,0.2930907 0.7608928,0.2854719 0.7626405,0.2846088 c 0.007877,-0.003875 0.0198663,8.7025e-4 0.02919,0.007102 0.0159869,0.0106896 0.0286897,0.0343807 0.030461,0.0343807 C 0.8572579,0.3666611 0.807623,0.3645246 0.7781271,0.3921259 0.7480052,0.4203082 0.7266806,0.4262955 0.6812783,0.4462306 c -0.0122119,0.005361 -0.025038,0.007284 -0.037653,0.007017 z"
   inkscape:connector-curvature="0"
   style="fill:#935706" />
   </g>
   <g
   id="g9024">
    <path
   id="_359964592"
   class="fil17"
   d="M 0.913349,2.00779 C 0.9299785,1.99903 0.9337749,1.995554 0.9435397,1.993451 0.9533017,1.991351 0.9498237,1.989191 0.9186511,1.970161 0.8874763,1.9511338 0.8803531,1.9311205 0.8226394,1.9182731 0.7649257,1.9054281 0.6804194,1.8936382 0.6540084,1.8872643 0.6275975,1.880888 0.6276781,1.8854527 0.6023603,1.8824602 0.5770401,1.87947 0.5509944,1.876385 0.553617,1.8945085 c 0.002623,0.018123 0.0122475,0.025363 0.0122475,0.025363 0,0 0.247316,0.018771 0.303503,0.06367 0.056189,0.0449 0.0439819,0.024248 0.0439819,0.024248 z"
   inkscape:connector-curvature="0"
   style="fill:#513b22" />
    <g
   id="g9027">
     <path
   id="_359964856"
   class="fil18"
   d="M 0.855541,2.0485 C 0.8963904,2.0367078 0.8843825,2.0169553 0.8669704,2.0031144 0.8495583,1.9892758 0.7993472,1.9585516 0.7445694,1.9493986 0.6897889,1.940248 0.6782907,1.9460551 0.6370454,1.9473167 0.5957976,1.9485782 0.5311884,1.9088551 0.5588868,1.946527 c 0.0276985,0.037672 -0.008299,0.028806 0.0659325,0.056142 0.0742342,0.027336 0.0781159,0.030762 0.0969365,0.032102 0.0188206,0.00134 0.0546572,0.00599 0.0829296,0.00906 0.0282724,0.00307 0.0508561,0.00467 0.0508561,0.00467 z"
   inkscape:connector-curvature="0"
   style="fill:#874a00" />
     <path
   id="_359965048"
   class="fil19"
   d="M 0.78441,1.96122 C 0.7452655,1.95613 0.7397002,1.95404 0.7180602,1.9525 0.7014259,1.95132 0.6044302,1.933886 0.5665782,1.938982 0.5606002,1.9397883 0.5632082,1.954931 0.5748132,1.969263 0.5853178,1.982238 0.6048,1.994597 0.6026611,1.994289 0.5930201,1.992909 0.5818368,1.985589 0.5739714,1.978641 0.5604885,1.966737 0.5547548,1.949826 0.5528721,1.949088 0.529015,1.914622 0.5810591,1.936359 0.6214485,1.935121 c 0.0412454,-0.00126 0.0658708,0.00469 0.120649,0.013843 0.0147349,0.00246 0.0289932,0.00686 0.0423125,0.012255 z"
   inkscape:connector-curvature="0"
   style="fill:#814c07" />
     <path
   id="_359965240"
   class="fil20"
   d="M 0.886144,2.03496 C 0.9176768,2.023021 0.9047369,2.000831 0.887922,1.987464 0.8711051,1.9741 0.8254041,1.936124 0.770624,1.926971 0.7158459,1.917821 0.6847209,1.919401 0.650177,1.914802 0.6156351,1.910202 0.543803,1.898405 0.545906,1.929058 c 0.029835,-0.0085 0.0565827,0.00479 0.0838259,0.00591 0.0272409,0.00112 0.0695297,-0.00481 0.124308,0.00434 0.0547781,0.00915 0.105822,0.047332 0.120471,0.058975 0.0146496,0.011643 0.0198829,0.026134 0.0116333,0.036678 z"
   inkscape:connector-curvature="0"
   style="fill:#644217" />
    </g>
   </g>
   <g
   id="g9032">
    <path
   id="_359965456"
   class="fil14"
   d="M 1.78859,1.59135 C 1.808113,1.547676 1.78509,1.516926 1.763739,1.504764 1.742393,1.492602 1.683461,1.456583 1.632981,1.478747 1.5825,1.500911 1.557575,1.525683 1.526394,1.541768 1.49521,1.557852 1.429126,1.587277 1.447858,1.640865 1.467878,1.604561 1.497417,1.609593 1.52062,1.592404 1.543823,1.575217 1.575588,1.534759 1.626069,1.512595 1.676548,1.490431 1.740022,1.523057 1.758617,1.533649 1.777215,1.544244 1.789583,1.56659 1.788589,1.591351 z"
   inkscape:connector-curvature="0"
   style="fill:#824a04" />
    <path
   id="_359965648"
   class="fil21"
   d="M 1.77333,1.55866 C 1.76911,1.55456 1.7644,1.5512 1.759634,1.548483 1.736756,1.535451 1.674696,1.503754 1.622453,1.526691 1.57021,1.54963 1.54567,1.556519 1.511009,1.58895 1.484496,1.613758 1.443841,1.617685 1.446485,1.640463 l 0.00174,0.00195 c 0.017595,0.019333 0.022956,0.032631 0.027556,0.041483 0.002,0.00282 0.00374,0.00547 0.00525,0.00795 0.00676,0.00709 0.018534,0.00843 0.055957,0.00687 C 1.616351,1.695406 1.621646,1.6989389 1.638563,1.687704 1.655477,1.676469 1.68889,1.658981 1.7149,1.644057 1.740913,1.629135 1.76121,1.615652 1.76121,1.615652 1.774171,1.591949 1.776644,1.573242 1.773325,1.558666 z"
   inkscape:connector-curvature="0"
   style="fill:#7d4a07" />
    <path
   id="_359965840"
   class="fil16"
   d="M 1.66579,1.51862 C 1.629289,1.537704 1.623316,1.537882 1.603867,1.5508 1.588919,1.56073 1.495705,1.599067 1.466155,1.636151 1.461495,1.642001 1.472415,1.668262 1.490591,1.686445 1.507047,1.702911 1.53085,1.71168 1.528837,1.712671 1.519777,1.717131 1.505978,1.711671 1.495248,1.704501 1.476852,1.692201 1.462233,1.664939 1.460196,1.664939 1.419958,1.618256 1.477075,1.620713 1.511016,1.588952 1.545676,1.55652 1.570216,1.549632 1.62246,1.526693 1.636512,1.520523 1.651271,1.518313 1.66579,1.518623 z"
   inkscape:connector-curvature="0"
   style="fill:#935706" />
   </g>
  </g>
 </g>
</svg>

