<?xml version="1.0" encoding="UTF-8"?>
<!DOCTYPE svg PUBLIC "-//W3C//DTD SVG 1.1//EN" "http://www.w3.org/Graphics/SVG/1.1/DTD/svg11.dtd">
<!-- Creator: CorelDRAW -->
<svg xmlns="http://www.w3.org/2000/svg" xml:space="preserve" width="3.36133in" height="3.42077in" style="shape-rendering:geometricPrecision; text-rendering:geometricPrecision; image-rendering:optimizeQuality; fill-rule:evenodd; clip-rule:evenodd"
viewBox="0 0 0.517087 0.526231"
 xmlns:xlink="http://www.w3.org/1999/xlink">
 <defs>
  <style type="text/css">
   <![CDATA[
    .fil12 {fill:#7D7E7E}
    .fil15 {fill:#808989}
    .fil16 {fill:#879999}
    .fil18 {fill:#899595}
    .fil4 {fill:#899999}
    .fil13 {fill:#899B9B}
    .fil17 {fill:#8C9696}
    .fil14 {fill:#8C9B9B}
    .fil8 {fill:#91A5A5}
    .fil10 {fill:#9BB1B1}
    .fil11 {fill:#9FB1B1}
    .fil19 {fill:#A2ADAD}
    .fil7 {fill:#B1C5C5}
    .fil9 {fill:#E7FDFF}
    .fil6 {fill:#EDFFFF}
    .fil5 {fill:white}
    .fil3 {fill:white;fill-opacity:0.501961}
    .fil0 {fill:url(#id0)}
    .fil1 {fill:url(#id1)}
    .fil2 {fill:url(#id2)}
   ]]>
  </style>
  <linearGradient id="id0" gradientUnits="userSpaceOnUse" x1="0.0881148" y1="0.466775" x2="0.428973" y2="0.065609">
   <stop offset="0" style="stop-color:#737373"/>
   <stop offset="0.2" style="stop-color:#757878"/>
   <stop offset="0.678431" style="stop-color:#A5BBBD"/>
   <stop offset="1" style="stop-color:#CEEAEC"/>
  </linearGradient>
  <linearGradient id="id1" gradientUnits="userSpaceOnUse" x1="0.261897" y1="0.520105" x2="0.382133" y2="0.385458">
   <stop offset="0" style="stop-color:#737373"/>
   <stop offset="1" style="stop-color:#90A2A4"/>
  </linearGradient>
  <linearGradient id="id2" gradientUnits="userSpaceOnUse" x1="0.13336" y1="0.355585" x2="0.380302" y2="0.113319">
   <stop offset="0" style="stop-color:#737373"/>
   <stop offset="1" style="stop-color:#C4DEDE"/>
  </linearGradient>
 </defs>
 <g id="Layer_x0020_1">
  <metadata id="CorelCorpID_0Corel-Layer"/>
  <g id="_358915968">
   <ellipse id="_358917192" class="fil0" cx="0.258544" cy="0.266192" rx="0.258544" ry="0.260039"/>
   <path id="_358917456" class="fil1" d="M0.155601 0.504805c0.0377402,-0.0055562 0.0287585,-0.0175468 0.0842084,-0.029538 0.0554499,-0.0119906 0.0899185,-0.00898173 0.104909,-0.0314682 0.014991,-0.0224864 -0.00618122,-0.0239818 0.0269815,-0.0239818 0.0331634,0 0.062946,-0.0164954 0.0824321,-0.0224864 0.0194867,-0.00599105 0.034305,-0.012036 0.034305,-0.012036 0,0 -0.0706674,0.0869544 -0.0835737,0.0953196 -0.0129063,0.00836579 -0.0481543,0.000643802 -0.0736314,0.00214823 -0.0254771,0.00150442 -0.0734412,0.0164954 -0.0824321,0.0179913 -0.00899082,0.00149534 -0.0456251,0.0195042 -0.0456251,0.0195042l-0.0475741 -0.0154531z"/>
   <path id="_358917576" class="fil2" d="M0.0599547 0.141035c0.0299728,-0.0389636 -0.0596555,0.112885 -0.0157704,0.203347 0.00974363,0.0200753 0.0696348,-0.029819 0.0848886,-0.0219335 0.0538819,0.0278337 0.0452533,0.144181 0.0900995,0.137519 0.0141297,-0.00209311 -0.00194897,-0.10432 0.0253051,-0.131474 0.0237462,-0.0236735 0.173846,0.0446827 0.204924,0.0275078 0.0642693,-0.0355375 0.0332542,-0.119085 0.0193686,-0.144653 -0.0314136,-0.057861 -0.108262,0.0396256 -0.152384,-0.00354364 -0.0228032,-0.0223053 0.0221515,-0.141118 0.0308976,-0.141118 0.00942567,0 0.0174378,-0.00540176 0.026864,-0.0205284 0.00663425,-0.0106315 0.0508276,0.0210268 0.0508276,0.0210268 0,0 -0.0402506,-0.0405862 -0.101801,-0.0527493 -0.06155,-0.0121632 -0.0776281,-0.00973394 -0.0986555,-0.00605404 -0.0210274,0.00367991 -0.0691175,0.017012 -0.0889397,0.0290026 -0.0198216,0.0119912 -0.11439,0.0810003 -0.124985,0.154904 -0.0105952,0.0739034 0.0493595,-0.051254 0.0493595,-0.051254z"/>
   <path id="_358916088" class="fil3" d="M0.116402 0.0506998c0.00483063,-0.00336255 0.0564014,-0.0294289 0.0992714,-0.0334262 0.04287,-0.00399666 0.0606706,-0.00490331 0.0750365,-0.00200287 0.0143653,0.00290044 0.0304258,-0.00787582 0.0448366,0.00973394 0.0144107,0.0176104 0.0106678,0.0138675 0.00541993,0.0251058 -0.00524732,0.011239 -0.0146009,0.0092355 0.00224816,0.0153537 0.0168485,0.00611763 0.0389636,0 0.0389636,0 0,0 -0.000743128,-0.0187344 0.0127428,0 0.0134865,0.0187338 -0.0112384,0.0142387 0.0194867,0.024734 0.030725,0.0104952 0.0194861,-0.0045048 0.0194861,0.0254771 0,0.0299819 0.0372145,0.0257224 0.0350942,0.0379667 -0.00212097,0.012245 -0.032846,-0.0124799 -0.0141122,0.0257406 0.0187344,0.0382205 0.00300037,0.0179907 0.0187344,0.0382205 0.0157341,0.0202292 0.0239727,0.00387008 0.0337248,0.0262293 0.00883698,0.0202661 0.00925367,0.0356919 0.00924458,0.0384113 0.000326443,-0.00531152 0.000507531,-0.0106588 0.000507531,-0.0160514 0,-0.143619 -0.115758,-0.26004 -0.258544,-0.26004 -0.0276708,0 -0.0543258,0.00438669 -0.0793142,0.0124805 -0.0228032,0.00819318 -0.0440935,0.0190603 -0.0628273,0.0320665z"/>
   <path id="_358917552" class="fil4" d="M0.251069 0.0103983c-0.0042474,0.00223847 -0.00521704,0.00312513 -0.00771109,0.00366234 -0.00249344,0.000537208 -0.00160496,0.00108895 0.00635686,0.00594866 0.00796243,0.0048597 0.00978179,0.00997136 0.0245226,0.0132521 0.0147408,0.00328139 0.0363248,0.00629266 0.0430711,0.00792064 0.00674569,0.00162858 0.00672449,0.000462714 0.013191,0.00122643 0.00646709,0.000764325 0.0131195,0.00155167 0.0124497,-0.00307668 -0.000669845,-0.00462895 -0.00312816,-0.00647799 -0.00312816,-0.00647799 0,0 -0.0631677,-0.00479429 -0.0775185,-0.0162622 -0.0143514,-0.0114685 -0.0112335,-0.00619334 -0.0112335,-0.00619334z"/>
   <path id="_358917408" class="fil5" d="M0.265834 0c-0.0104335,0.00301188 -0.00736647,0.00805691 -0.00291921,0.0115915 0.00444726,0.00353516 0.0172718,0.0113825 0.0312628,0.0137197 0.0139916,0.00233779 0.0169284,0.000854567 0.027463,0.000532363 0.0105352,-0.000322809 0.0270373,0.00982358 0.0199627,0.00020168 -0.00707455,-0.0096219 0.00211976,-0.00735799 -0.01684,-0.0143399 -0.0189604,-0.00698189 -0.0199518,-0.00785644 -0.0247588,-0.00819863 -0.00480701,-0.000342796 -0.0139601,-0.00153047 -0.0211813,-0.00231357 -0.00722112,-0.000782495 -0.0129893,-0.00119312 -0.0129893,-0.00119312z"/>
   <path id="_358916928" class="fil6" d="M0.261549 0.00798302c0.000697099,0.000835792 0.00156317,0.00163827 0.00248981,0.00237474 0.00444726,0.00353455 0.0167788,0.0127258 0.0307698,0.015063 0.0139916,0.00233719 0.0202807,0.00385797 0.0308153,0.00353576 0.00805812,-0.000247104 0.0179332,0.00308698 0.0189664,0.000363388l-0.000268301 -0.000372472c-0.00274358,-0.00373199 -0.00304034,-0.0056749 -0.00348125,-0.00706365 -0.000267696,-0.000492996 -0.000484517,-0.00094178 -0.000661365,-0.0013512 -0.00107744,-0.00139601 -0.00375803,-0.00263274 -0.012698,-0.00592504 -0.0189597,-0.00698189 -0.0199518,-0.00785644 -0.0247588,-0.00819863 -0.00480701,-0.000342796 -0.0139595,-0.00153047 -0.0211807,-0.00231357 -0.00722112,-0.000782495 -0.0129893,-0.00119312 -0.0129893,-0.00119312 -0.00478218,0.00138027 -0.0067263,0.00318752 -0.00700369,0.00508076z"/>
   <path id="_358915752" class="fil7" d="M0.284002 0.0222908c0.009998,0.00129972 0.0114195,0.00183329 0.0169466,0.00222635 0.00424861,0.000302823 0.0290226,0.00475493 0.0386905,0.00345339 0.00152683,-0.00020592 0.000860623,-0.00407358 -0.00210341,-0.0077341 -0.00268301,-0.0033147 -0.007659,-0.00647072 -0.00711271,-0.00639259 0.00246256,0.000353092 0.00531878,0.00222393 0.00732771,0.00399666 0.0034437,0.00304095 0.00490816,0.00735981 0.00538904,0.00754877 0.0060934,0.00880246 -0.00719871,0.00325111 -0.0175153,0.00356726 -0.0105346,0.000322204 -0.0168236,-0.00119857 -0.0308153,-0.00353576 -0.00376348,-0.000628661 -0.00740523,-0.00175335 -0.0108071,-0.00312998z"/>
   <path id="_358916136" class="fil8" d="M0.258018 0.00345703c-0.00805388,0.00304943 -0.00474887,0.00871767 -0.000454235,0.0121311 0.00429524,0.00341403 0.0159685,0.0131134 0.0299595,0.0154506 0.013991,0.00233779 0.0219407,0.00193443 0.0307638,0.00310878 0.00882245,0.00117435 0.0271693,0.00418804 0.0266321,-0.00364114 -0.00762024,0.00217185 -0.0144519,-0.00122341 -0.0214096,-0.00150927 -0.00695827,-0.000285865 -0.0177588,0.00122886 -0.0317504,-0.00110833 -0.013991,-0.00233719 -0.0270282,-0.0120893 -0.0307698,-0.015063 -0.00374168,-0.00297372 -0.00507834,-0.00667543 -0.0029713,-0.00936874z"/>
   <path id="_358917888" class="fil5" d="M0.258795 0.00548594c0,0 0.000995682,-0.00213187 0.00401786,-0.00380891 0.00302157,-0.00167703 0.0068977,-0.00197319 0.00998165,-0.000955709 0.00308395,0.00101688 0.00833732,0.00126035 0.010637,0.00160617 0.00230024,0.000345824 0.0166195,0.00102475 0.0183741,0.00136149 0.00175395,0.000337345 0.00507229,0.00135786 0.00507229,0.00135786 0,0 -0.0363345,-0.00387492 -0.0407297,-0.0019635 -0.00439457,0.00191202 -0.00735315,0.0024026 -0.00735315,0.0024026z"/>
   <path id="_358918080" class="fil4" d="M0.478107 0.159377c-0.0219837,-0.0189882 -0.0528117,-0.0329714 -0.0786704,-0.0286543 -0.0258587,0.00431644 -0.0699751,0.00415655 -0.0303616,0.0288796 0.0396129,0.0247237 0.0326788,0.025955 0.0616602,0.0279572 0.0289814,0.00200227 0.0473718,-0.0281825 0.0473718,-0.0281825z"/>
   <path id="_358918272" class="fil5" d="M0.438461 0.150158c-0.0140807,-0.0121614 -0.0338247,-0.0211177 -0.0503867,-0.0183523 -0.0165614,0.00276477 -0.0448172,0.00266181 -0.0194461,0.0184964 0.0253711,0.0158352 0.0209305,0.0166238 0.0394924,0.0179059 0.0185618,0.00128276 0.0303404,-0.0180501 0.0303404,-0.0180501z"/>
   <path id="_358918464" class="fil6" d="M0.465901 0.151917c-0.0173039,-0.0149455 -0.0415685,-0.0259519 -0.0619219,-0.0225543 -0.0203533,0.00339828 -0.0550781,0.0032717 -0.0238982,0.0227317 0.0311799,0.01946 0.0257218,0.0204297 0.0485334,0.0220055 0.0228111,0.00157589 0.0372866,-0.022183 0.0372866,-0.022183z"/>
   <path id="_358864960" class="fil4" d="M0.066165 0.105278c-0.000212582,0.00208766 -0.000124763,0.00265515 -0.000532363,0.00369323 -0.000408205,0.00103808 7.8734e-006,0.000847904 0.00370413,-0.000874553 0.00369626,-0.00172306 0.00599711,-0.0011483 0.0107593,-0.00572093 0.00476159,-0.00457263 0.0110815,-0.0117029 0.0133066,-0.0137645 0.00222514,-0.00206222 0.00179574,-0.00233658 0.00363872,-0.00450601 0.00184359,-0.00216942 0.00373986,-0.00440123 0.00189264,-0.00527699 -0.00184722,-0.00087637 -0.00311544,-0.000428797 -0.00311544,-0.000428797 0,0 -0.017032,0.0218378 -0.0246801,0.0242876 -0.0076487,0.00244923 -0.00497357,0.00259095 -0.00497357,0.00259095z"/>
   <path id="_359677312" class="fil5" d="M0.0659524 0.0973855c-0.00142872,0.0045272 0.00115073,0.00463198 0.00351396,0.00386826 0.00236323,-0.00076372 0.008324,-0.00353394 0.0125605,-0.00806236 0.0042371,-0.00452842 0.00440789,-0.00595653 0.00683956,-0.00987021 0.00243227,-0.00391308 0.0101197,-0.0074664 0.00490452,-0.0072187 -0.00521522,0.000247104 -0.00216579,-0.0025528 -0.00929606,0.0026606 -0.00713027,0.0052134 -0.00768868,0.005363 -0.00897628,0.00703034 -0.00128821,0.00166734 -0.00393609,0.00471193 -0.00596804,0.00715147 -0.00203255,0.00243954 -0.00357816,0.0044406 -0.00357816,0.0044406z"/>
   <path id="_359407984" class="fil6" d="M0.0678221 0.100878c0.00047301,-5.14799e-005 0.000974484,-0.000173215 0.00146687,-0.000331894 0.00236323,-0.00076372 0.00869344,-0.00302944 0.0129305,-0.00755786 0.0042371,-0.00452781 0.00631265,-0.00644952 0.00874432,-0.0103632 0.00186054,-0.00299371 0.00546414,-0.0057821 0.00472222,-0.00681715l-0.000200469 7.26775e-006c-0.00202225,9.56921e-005 -0.00280172,-0.000266484 -0.00341403,-0.000442122 -0.000244075,-2.18033e-005 -0.000460291,-5.14799e-005 -0.000652281,-8.60017e-005 -0.000768565,5.45081e-005 -0.00186781,0.000731015 -0.00522975,0.00318933 -0.00713027,0.0052134 -0.00768868,0.00536239 -0.00897689,0.00702973 -0.0012876,0.00166734 -0.00393549,0.00471253 -0.00596743,0.00715207 -0.00203255,0.00243954 -0.00357816,0.00443999 -0.00357816,0.00443999 -0.000654703,0.00207494 -0.000467559,0.00322022 0.000155045,0.00377984z"/>
   <path id="_359408176" class="fil7" d="M0.0784645 0.0961651c0.00289257,-0.003325 0.00343098,-0.00371382 0.00491179,-0.00563069 0.00113861,-0.00147354 0.00875461,-0.00941598 0.0106206,-0.0132509 0.000294344,-0.000605646 -0.00127549,-0.00129911 -0.003325,-0.00110591 -0.00185631,0.000175032 -0.00420924,0.0012228 -0.00404874,0.00104292 0.000724353,-0.00081096 0.00209675,-0.00139844 0.0032287,-0.00170065 0.00193988,-0.000518433 0.00386705,-6.05646e-006 0.00405177,-0.000135665 0.00467983,-8.78187e-005 -0.0005578,0.00340797 -0.00293981,0.0072405 -0.00243167,0.00391368 -0.00450722,0.0058354 -0.00874432,0.0103632 -0.00113983,0.00121795 -0.00243046,0.00227178 -0.00375501,0.00317722z"/>
   <path id="_359408368" class="fil8" d="M0.0653195 0.101068c-0.00083882,0.00367022 0.00202467,0.00383858 0.00430675,0.00310091 0.00228207,-0.000737071 0.00863833,-0.00264001 0.0128754,-0.00716843 0.0042371,-0.00452842 0.00601346,-0.0075197 0.00857655,-0.010448 0.00256249,-0.0029283 0.00809991,-0.00887877 0.00511953,-0.0105776 -0.00105382,0.00330017 -0.00394276,0.00496569 -0.00573062,0.00743007 -0.00178787,0.00246377 -0.00385009,0.00676264 -0.00808719,0.0112911 -0.0042371,0.00452842 -0.0109422,0.00691466 -0.0129305,0.00755725 -0.00198834,0.00064259 -0.00365931,0.000233779 -0.0041299,-0.00118525z"/>
   <path id="_359408560" class="fil4" d="M0.383481 0.0374192c-0.00506865,-0.00426617 -0.0126108,-0.0082277 -0.0194891,-0.00898536 -0.00687832,-0.000758269 -0.0183541,-0.00325474 -0.00889512,0.00291497 0.00945959,0.00616972 0.00761237,0.00597833 0.015086,0.00792124 0.00747367,0.00194291 0.0132982,-0.00185085 0.0132982,-0.00185085z"/>
   <path id="_359408752" class="fil5" d="M0.37348 0.0337254c-0.00324626,-0.00273207 -0.0080769,-0.00526912 -0.0124824,-0.00575485 -0.00440547,-0.000485728 -0.0117556,-0.00208463 -0.00569731,0.00186721 0.00605888,0.00395123 0.00487606,0.00382889 0.00966248,0.0050735 0.00478703,0.001244 0.0085172,-0.00118585 0.0085172,-0.00118585z"/>
   <path id="_359408944" class="fil6" d="M0.38056 0.0355429c-0.00398939,-0.0033577 -0.00992593,-0.00647557 -0.0153398,-0.00707213 -0.00541387,-0.000597167 -0.0144465,-0.00256188 -0.00700127,0.00229419 0.00744521,0.00485668 0.00599166,0.00470587 0.0118743,0.00623513 0.00588264,0.00152926 0.0104668,-0.00145718 0.0104668,-0.00145718z"/>
   <path id="_359409136" class="fil9" d="M0.183427 0.102354c-0.00995622,0.0182069 -0.00234082,0.0280535 0.00571245,0.0326413 0.00805267,0.00458777 0.0294205,0.0118065 0.0478121,0.00373139 0.018391,-0.00807447 0.0206913,-0.0148274 0.0328932,-0.0262439 0.0122013,-0.0114164 0.0397346,-0.00200408 0.0237631,-0.0195503 -0.0159715,-0.0175468 -0.00330986,-0.0209868 -0.0312483,-0.0198198 -0.0279385,0.00116769 -0.0298026,-7.75227e-005 -0.0357567,0.00387735 -0.00595471,0.00395487 -0.017717,0.0101113 -0.0268737,0.0153646 -0.00915676,0.00525337 -0.0163022,0.00999922 -0.0163022,0.00999922z"/>
   <path id="_359409328" class="fil4" d="M0.1793 0.115609c-0.00687166,0.0153743 0.0012337,0.026199 0.00874795,0.0304803 0.00751486,0.00428131 0.0282607,0.0169611 0.0460309,0.00915919 0.0177703,-0.00780254 0.0265443,-0.0165232 0.0375216,-0.0221848 0.0109773,-0.00566218 0.0342402,-0.0160205 0.0276459,-0.0348846 -0.0070473,0.0127797 -0.0174456,0.0110088 -0.0256134,0.0170592 -0.00816835,0.0060504 -0.0193504,0.0202928 -0.0371207,0.0280947 -0.0177709,0.00780193 -0.040115,-0.00368233 -0.0466614,-0.00741129 -0.00654582,-0.00372957 -0.010901,-0.0115963 -0.010551,-0.0203128z"/>
   <path id="_359409520" class="fil10" d="M0.184672 0.127119c0.00148444,0.00144144 0.0031433,0.00262669 0.00482155,0.003583 0.00805267,0.00458777 0.0298995,0.0157456 0.0482906,0.00767051 0.0183917,-0.00807447 0.02703,-0.0105001 0.0392319,-0.0219165 0.0093324,-0.00873281 0.0236444,-0.0101155 0.0227135,-0.0181336l-0.000612308 -0.000685591c-0.00619394,-0.00680564 -0.00808114,-0.0114873 -0.00970063,-0.0146027 -0.000705578,-0.00099326 -0.00131728,-0.00192535 -0.00184964,-0.00279748 -0.00237837,-0.00249466 -0.00652523,-0.00296888 -0.019698,-0.00241895 -0.0279385,0.00116708 -0.0298026,-7.81283e-005 -0.0357573,0.00387674 -0.00595411,0.00395487 -0.0177164,0.0101113 -0.0268731,0.0153646 -0.00915676,0.00525337 -0.0163022,0.00999922 -0.0163022,0.00999922 -0.00456294,0.00834459 -0.00543386,0.0149298 -0.00426435,0.0200608z"/>
   <path id="_359409712" class="fil11" d="M0.222531 0.141215c0.0128488,-0.00671843 0.014951,-0.00678142 0.0217978,-0.0113292 0.00526246,-0.00349518 0.0380758,-0.0169902 0.0484783,-0.0300449 0.00164251,-0.00206162 -0.00220334,-0.0113044 -0.00860139,-0.0177055 -0.005793,-0.00579603 -0.0141721,-0.0088824 -0.0134641,-0.00923186 0.00319054,-0.00156983 0.00804722,0.000352486 0.011824,0.00287621 0.00647617,0.00433037 0.0116223,0.0139274 0.0123394,0.0139274 0.0141642,0.0164336 -0.00594139,0.0155687 -0.0178896,0.026749 -0.012202,0.0114164 -0.0208403,0.013842 -0.0392319,0.0219165 -0.00494631,0.00217185 -0.0101421,0.00295071 -0.0152526,0.0028423z"/>
   <path id="_359409904" class="fil12" d="M0.233282 0.512814c0.0042474,-0.00223847 0.00521643,-0.00312513 0.00771048,-0.00366234 0.00249405,-0.000537208 0.00160496,-0.00108895 -0.00635686,-0.00594866 -0.00796182,-0.0048597 -0.00978118,-0.00997136 -0.024522,-0.0132527 -0.0147408,-0.00328078 -0.0363254,-0.00629206 -0.0430711,-0.00792003 -0.00674569,-0.00162858 -0.00672449,-0.000462714 -0.0131916,-0.00122704 -0.00646648,-0.00076372 -0.0131195,-0.00155167 -0.0124497,0.00307729 0.00067045,0.00462895 0.00312877,0.00647799 0.00312877,0.00647799 0,0 0.0631671,0.00479429 0.0775185,0.0162622 0.0143514,0.0114679 0.0112335,0.00619334 0.0112335,0.00619334z"/>
   <path id="_359410096" class="fil13" d="M0.218516 0.523212c0.0104341,-0.00301188 0.00736708,-0.00805691 0.00291982,-0.0115921 -0.00444726,-0.00353455 -0.0172724,-0.0113819 -0.0312634,-0.0137197 -0.013991,-0.00233719 -0.0169278,-0.000853961 -0.027463,-0.000531757 -0.0105346,0.000322204 -0.0270373,-0.00982358 -0.0199627,-0.00020168 0.00707455,0.0096219 -0.00211976,0.00735739 0.0168406,0.0143393 0.0189597,0.00698189 0.0199518,0.00785705 0.0247588,0.00819924 0.00480641,0.00034219 0.0139595,0.00153047 0.0211807,0.00231296 0.00722112,0.0007831 0.0129893,0.00119373 0.0129893,0.00119373z"/>
   <path id="_359410288" class="fil14" d="M0.200348 0.500921c-0.0099974,-0.00129972 -0.0114189,-0.00183329 -0.0169466,-0.00222696 -0.004248,-0.000302217 -0.0290226,-0.00475432 -0.0386905,-0.00345279 -0.00152683,0.00020592 -0.000860017,0.00407358 0.00210341,0.0077341 0.00268362,0.0033141 0.00765961,0.00647072 0.00711271,0.00639259 -0.00246195,-0.000353092 -0.00531878,-0.00222393 -0.00732771,-0.00399726 -0.0034437,-0.00304034 -0.00490816,-0.00735981 -0.00538843,-0.00754817 -0.00609401,-0.00880307 0.00719871,-0.00325111 0.0175147,-0.00356726 0.0105352,-0.000322204 0.0168242,0.00119797 0.0308153,0.00353576 0.00376348,0.000628661 0.00740523,0.00175335 0.0108071,0.00312998z"/>
   <path id="_359410480" class="fil15" d="M0.226332 0.519755c0.00805388,-0.00304943 0.00474948,-0.00871767 0.000454235,-0.0121317 -0.00429464,-0.00341342 -0.0159679,-0.0131128 -0.0299589,-0.0154506 -0.0139916,-0.00233719 -0.0219407,-0.00193383 -0.0307638,-0.00310818 -0.00882305,-0.00117435 -0.0271699,-0.00418804 -0.0266327,0.00364114 0.00762024,-0.00217185 0.0144519,0.00122341 0.0214102,0.00150927 0.00695827,0.000285865 0.0177588,-0.00122946 0.0317498,0.00110833 0.0139916,0.00233719 0.0270282,0.0120893 0.0307698,0.015063 0.00374168,0.00297372 0.00507895,0.00667483 0.0029713,0.00936874z"/>
   <path id="_359410672" class="fil4" d="M0.462199 0.397292c0.00878247,-0.0196478 -0.00157589,-0.0334825 -0.0111796,-0.0389539 -0.00960373,-0.00547201 -0.0361165,-0.0216761 -0.058827,-0.0117047 -0.0227111,0.00997075 -0.0339241,0.0211158 -0.0479532,0.0283521 -0.0140286,0.00723565 -0.0437591,0.0204733 -0.0353322,0.0445822 0.00900717,-0.0163325 0.0222963,-0.0140692 0.0327346,-0.0218014 0.0104389,-0.00773289 0.0247303,-0.0259344 0.0474409,-0.0359057 0.0227105,-0.00997075 0.0512661,0.00470648 0.0596325,0.0094723 0.00836639,0.00476583 0.0139317,0.0148196 0.0134841,0.0259592z"/>
   <path id="_359410864" class="fil16" d="M0.455336 0.382582c-0.00189809,-0.00184177 -0.00401786,-0.00335588 -0.00616184,-0.00457868 -0.0102917,-0.00586326 -0.0382126,-0.0201226 -0.0617165,-0.00980299 -0.0235039,0.0103196 -0.0345442,0.0134193 -0.0501378,0.0280099 -0.0119276,0.0111602 -0.0302181,0.0129275 -0.029028,0.023175l0.000782495 0.000875764c0.00791579,0.00869768 0.0103275,0.0146803 0.0123976,0.0186624 0.000901807,0.00126943 0.00168248,0.00246074 0.00236384,0.00357513 0.00303913,0.00318812 0.00833853,0.00379437 0.0251743,0.00309182 0.0357047,-0.00149171 0.0380873,9.9326e-005 0.0456972,-0.00495479 0.00760994,-0.00505472 0.0226421,-0.0129227 0.0343444,-0.0196363 0.0117023,-0.00671419 0.0208342,-0.0127791 0.0208342,-0.0127791 0.00583116,-0.0106642 0.00694373,-0.0190803 0.00545021,-0.0256382z"/>
   <path id="_359411056" class="fil11" d="M0.406951 0.364568c-0.0164209,0.00858624 -0.0191075,0.00866619 -0.0278579,0.014478 -0.00672509,0.00446725 -0.0486606,0.0217142 -0.0619552,0.038398 -0.00209917,0.00263456 0.00281625,0.0144471 0.0109925,0.0226275 0.00740342,0.00740766 0.0181118,0.0113522 0.017207,0.011798 -0.00407781,0.00200711 -0.0102845,-0.000449995 -0.0151115,-0.00367567 -0.00827555,-0.00553379 -0.0148529,-0.0177987 -0.0157692,-0.0177987 -0.0181022,-0.0210026 0.00759298,-0.0198973 0.0228631,-0.0341851 0.0155936,-0.0145906 0.0266339,-0.0176903 0.0501378,-0.0280099 0.00632234,-0.00277568 0.012962,-0.00377136 0.0194933,-0.00363206z"/>
   <path id="_359411248" class="fil17" d="M0.124358 0.402394c0.0194146,-0.000360359 0.0267417,-0.0141255 0.0275284,-0.0240672 0.000786129,-0.00994168 0.00385494,-0.0378093 -0.0129966,-0.0525343 -0.0168515,-0.0147257 -0.0302538,-0.0196102 -0.0415431,-0.028294 -0.0112886,-0.00868315 -0.0335001,-0.0278894 -0.0499591,-0.0117629 0.0167927,0.0010938 0.0200396,0.0128155 0.0303574,0.0183765 0.0103178,0.00556044 0.0306639,0.0102536 0.0475154,0.0249793 0.0168521,0.0147251 0.0158134,0.0436756 0.015129,0.0523357 -0.000684986,0.00866074 -0.00676204,0.017061 -0.0160315,0.0209669z"/>
   <path id="_359411440" class="fil18" d="M0.13374 0.391147c0.000777044,-0.00225664 0.001201,-0.00456839 0.00137724,-0.00678869 0.000842454,-0.0106539 0.00178302,-0.0389249 -0.0156572,-0.0541647 -0.0174408,-0.0152399 -0.0242052,-0.0230678 -0.0421009,-0.0302096 -0.0136888,-0.00546232 -0.0221454,-0.0197235 -0.0300588,-0.0148226l-0.000415473 0.00097509c-0.00406812,0.00979996 -0.00802966,0.0140637 -0.010488,0.0172809 -0.000691042,0.00122341 -0.00136452,0.00231841 -0.00201377,0.00330198 -0.00143841,0.00370413 9.81147e-005,0.00826525 0.00712724,0.0217457 0.0149086,0.0285901 0.0145228,0.031146 0.0215689,0.035423 0.00704609,0.00427768 0.0192353,0.013538 0.0292061,0.0205217 0.00997075,0.0069837 0.0184256,0.0121159 0.0184256,0.0121159 0.0109458,0.000673478 0.0182463,-0.00164433 0.0230291,-0.00537874z"/>
   <path id="_359411632" class="fil19" d="M0.129901 0.344722c-0.0133091,-0.0101191 -0.0144047,-0.0122831 -0.0225064,-0.0172016 -0.00622725,-0.00377984 -0.0363927,-0.0314173 -0.0551168,-0.0358779 -0.00295616,-0.000704366 -0.0107193,0.00783948 -0.0142654,0.017654 -0.00321174,0.00888725 -0.0023275,0.0191457 -0.00303853,0.018577 -0.00320266,-0.00256067 -0.00357573,-0.00857171 -0.00279203,-0.0137512 0.00134635,-0.00888059 0.00884183,-0.0189555 0.00849055,-0.0197041 0.0102124,-0.0228377 0.019162,-0.00142751 0.036687,0.00556589 0.0178956,0.00714178 0.0246601,0.0149698 0.0421009,0.0302096 0.00469073,0.00409901 0.00804964,0.00914041 0.0104407,0.0145282z"/>
  </g>
 </g>
</svg>
