<?xml version="1.0" encoding="UTF-8"?>
<!DOCTYPE svg PUBLIC "-//W3C//DTD SVG 1.1//EN" "http://www.w3.org/Graphics/SVG/1.1/DTD/svg11.dtd">
<!-- Creator: CorelDRAW -->
<svg xmlns="http://www.w3.org/2000/svg" xml:space="preserve" width="3.08083in" height="3.29936in" style="shape-rendering:geometricPrecision; text-rendering:geometricPrecision; image-rendering:optimizeQuality; fill-rule:evenodd; clip-rule:evenodd"
viewBox="0 0 0.254074 0.272096"
 xmlns:xlink="http://www.w3.org/1999/xlink">
 <defs>
  <style type="text/css">
   <![CDATA[
    .str0 {stroke:gray;stroke-width:0.000247408}
    .str2 {stroke:black;stroke-width:0.000572741}
    .str1 {stroke:#95D11E;stroke-width:0.000572741}
    .fil27 {fill:#72155B}
    .fil13 {fill:#7C2772}
    .fil26 {fill:#912783}
    .fil3 {fill:#B648B8}
    .fil22 {fill:#C1FFFF}
    .fil5 {fill:#CCCCFF}
    .fil15 {fill:#D273D9}
    .fil23 {fill:#EEC8F0}
    .fil28 {fill:#2E0823;fill-rule:nonzero}
    .fil12 {fill:url(#id0)}
    .fil17 {fill:url(#id1)}
    .fil25 {fill:url(#id2)}
    .fil24 {fill:url(#id3)}
    .fil14 {fill:url(#id4)}
    .fil16 {fill:url(#id5)}
    .fil8 {fill:url(#id6)}
    .fil2 {fill:url(#id7)}
    .fil4 {fill:url(#id8)}
    .fil9 {fill:url(#id9)}
    .fil10 {fill:url(#id10)}
    .fil11 {fill:url(#id11)}
    .fil0 {fill:url(#id12)}
    .fil1 {fill:url(#id13)}
    .fil7 {fill:url(#id14)}
    .fil21 {fill:url(#id15)}
    .fil19 {fill:url(#id16)}
    .fil18 {fill:url(#id17)}
    .fil6 {fill:url(#id18)}
    .fil20 {fill:url(#id19)}
   ]]>
  </style>
  <linearGradient id="id0" gradientUnits="userSpaceOnUse" x1="0.0879102" y1="0.253734" x2="0.0843669" y2="0.199827">
   <stop offset="0" style="stop-color:#D273D9"/>
   <stop offset="1" style="stop-color:#CBA0E6"/>
  </linearGradient>
  <linearGradient id="id1" gradientUnits="userSpaceOnUse" x1="0.122216" y1="0.0699532" x2="0.126975" y2="0.124396">
   <stop offset="0" style="stop-color:#9C2E8D"/>
   <stop offset="1" style="stop-color:#D789DF"/>
  </linearGradient>
  <linearGradient id="id2" gradientUnits="userSpaceOnUse" x1="0.128399" y1="0.153678" x2="0.128399" y2="0.16113">
   <stop offset="0" style="stop-color:#CD78D1"/>
   <stop offset="1" style="stop-color:#B648B8"/>
  </linearGradient>
  <linearGradient id="id3" gradientUnits="userSpaceOnUse" x1="0.128399" y1="0.168761" x2="0.128399" y2="0.173796">
   <stop offset="0" style="stop-color:#C465C7"/>
   <stop offset="1" style="stop-color:#B648B8"/>
  </linearGradient>
  <linearGradient id="id4" gradientUnits="userSpaceOnUse" x1="0.158091" y1="0.229789" x2="0.167357" y2="0.229145">
   <stop offset="0" style="stop-color:#B648B8"/>
   <stop offset="1" style="stop-color:#9C2E8D"/>
  </linearGradient>
  <linearGradient id="id5" gradientUnits="userSpaceOnUse" x1="0.128852" y1="0.0764213" x2="0.127597" y2="0.0508999">
   <stop offset="0" style="stop-color:#D273D9"/>
   <stop offset="0.45098" style="stop-color:#C45EC9"/>
   <stop offset="1" style="stop-color:#B648B8"/>
  </linearGradient>
  <linearGradient id="id6" gradientUnits="userSpaceOnUse" x1="0.0891865" y1="0.0982851" x2="0.081337" y2="0.186894">
   <stop offset="0" style="stop-color:#BE5AC1"/>
   <stop offset="1" style="stop-color:#9C2E8D"/>
  </linearGradient>
  <linearGradient id="id7" gradientUnits="userSpaceOnUse" x1="0.155421" y1="0.0213888" x2="0.140861" y2="0.0188634">
   <stop offset="0" style="stop-color:#C568C9"/>
   <stop offset="1" style="stop-color:#912783"/>
  </linearGradient>
  <linearGradient id="id8" gradientUnits="userSpaceOnUse" xlink:href="#id7" x1="0.0986692" y1="0.0125539" x2="0.101139" y2="0.0287646">
  </linearGradient>
  <linearGradient id="id9" gradientUnits="userSpaceOnUse" x1="0.088493" y1="0.168932" x2="0.0763576" y2="0.115934">
   <stop offset="0" style="stop-color:#CBA0E6"/>
   <stop offset="0.760784" style="stop-color:#CBB6F2"/>
   <stop offset="1" style="stop-color:#CCCCFF"/>
  </linearGradient>
  <linearGradient id="id10" gradientUnits="userSpaceOnUse" x1="0.0958448" y1="0.229453" x2="0.0911164" y2="0.230148">
   <stop offset="0" style="stop-color:#7C2772"/>
   <stop offset="1" style="stop-color:#660066"/>
  </linearGradient>
  <linearGradient id="id11" gradientUnits="userSpaceOnUse" x1="0.0874731" y1="0.227444" x2="0.0908213" y2="0.227921">
   <stop offset="0" style="stop-color:#B24AAE"/>
   <stop offset="1" style="stop-color:#9C2E8D"/>
  </linearGradient>
  <radialGradient id="id12" gradientUnits="userSpaceOnUse" cx="0.127037" cy="0.145059" r="0.176393" fx="0.127037" fy="0.145059">
   <stop offset="0" style="stop-color:black"/>
   <stop offset="0.701961" style="stop-color:gray"/>
   <stop offset="1" style="stop-color:white"/>
  </radialGradient>
  <radialGradient id="id13" gradientUnits="userSpaceOnUse" cx="0.127037" cy="0.145059" r="0.176393" fx="0.127037" fy="0.145059">
   <stop offset="0" style="stop-color:#CC3399"/>
   <stop offset="1" style="stop-color:#000066"/>
  </radialGradient>
  <radialGradient id="id14" gradientUnits="userSpaceOnUse" cx="0.211409" cy="0.101488" r="0.120603" fx="0.211409" fy="0.101488">
   <stop offset="0" style="stop-color:#E0A0E6"/>
   <stop offset="1" style="stop-color:#B648B8"/>
  </radialGradient>
  <radialGradient id="id15" gradientUnits="userSpaceOnUse" cx="0.12711" cy="0.0923486" r="0.00933333" fx="0.12711" fy="0.0923486">
   <stop offset="0" style="stop-color:#333333"/>
   <stop offset="1" style="stop-color:black"/>
  </radialGradient>
  <radialGradient id="id16" gradientUnits="userSpaceOnUse" cx="0.12791" cy="0.0983997" r="0.018793" fx="0.12791" fy="0.0983997">
   <stop offset="0" style="stop-color:#FEFEFE"/>
   <stop offset="0.419608" style="stop-color:white"/>
   <stop offset="1" style="stop-color:#B7F145"/>
  </radialGradient>
  <radialGradient id="id17" gradientUnits="userSpaceOnUse" cx="0.128399" cy="0.102666" r="0.0240882" fx="0.128399" fy="0.102666">
   <stop offset="0" style="stop-color:#FEFEFE"/>
   <stop offset="0.741176" style="stop-color:#F2F2F2"/>
   <stop offset="1" style="stop-color:#B3B3B3"/>
  </radialGradient>
  <radialGradient id="id18" gradientUnits="userSpaceOnUse" xlink:href="#id14" cx="0.12913" cy="0.100791" r="0.0767346" fx="0.12913" fy="0.100791">
  </radialGradient>
  <radialGradient id="id19" gradientUnits="userSpaceOnUse" cx="0.130496" cy="0.091221" r="0.0050196" fx="0.130496" fy="0.091221">
   <stop offset="0" style="stop-color:#1A1A1A"/>
   <stop offset="1" style="stop-color:black"/>
  </radialGradient>
 </defs>
 <g id="Layer_x0020_1">
  <metadata id="CorelCorpID_0Corel-Layer"/>
  <g id="_350270048">
   <circle id="_346811640" class="fil0 str0" cx="0.127037" cy="0.145059" r="0.126914"/>
   <circle id="_347219760" class="fil1" cx="0.127037" cy="0.145059" r="0.120793"/>
   <g>
    <path id="_354770632" class="fil2" d="M0.140333 0.0514294c-0.0135448,-0.0468413 0.0291594,-0.0626067 0.0278682,-0.0434942 -0.000262993,0.00389652 -0.00507479,0.00574559 -0.00804045,0.00497512 -0.00388613,-0.00101074 -0.00326274,-0.00674009 -0.00311273,-0.00748167 0.000150328,-0.0007419 -0.0212456,0.00144224 -0.016715,0.0460007z"/>
    <path id="_354773896" class="fil3" d="M0.15963 0.000113964c0.00135977,0.000815279 0.00261694,0.00158413 0.00323871,0.00200557 0.0068336,0.00463225 0.000463322,0.0107558 -0.00484102,0.00931742 0.000485076,0.000682159 0.00117048,0.00122308 0.00213382,0.00147341 0.00296565,0.000770472 0.00777745,-0.0010786 0.00804045,-0.00497512 0.000402282,-0.00595436 -0.00346566,-0.00852195 -0.00857195,-0.00782129z"/>
    <g>
     <path id="_354774136" class="fil4" d="M0.107711 0.0519626c0.0135445,-0.0468413 -0.0291594,-0.062607 -0.0278679,-0.0434945 0.000262993,0.00389684 0.00507479,0.00574559 0.00804045,0.00497512 0.00388645,-0.00101041 0.00326274,-0.00673977 0.00311273,-0.00748167 -0.000150003,-0.000741576 0.0212456,0.00144224 0.0167147,0.0460011z"/>
     <path id="_354774352" class="fil3" d="M0.0884154 0.000647093c-0.00135977,0.000814954 -0.00261694,0.0015838 -0.00323871,0.00200557 -0.00683393,0.00463225 -0.000463322,0.0107558 0.00484102,0.00931742 -0.000485076,0.000682483 -0.00117048,0.00122276 -0.00213382,0.00147309 -0.00296565,0.000770472 -0.00777745,-0.00107827 -0.00804045,-0.00497512 -0.000402282,-0.00595371 0.00346599,-0.0085213 0.00857195,-0.00782096z"/>
     <path id="_354758584" class="fil5" d="M0.093745 0.00239876c-0.00674886,-0.00342346 -0.0131396,-0.00214226 -0.0138568,0.00404782 0.000991581,-0.00187439 0.00274195,-0.00469491 0.00515077,-0.00501278 0.00240915,-0.000318189 0.0051946,0.000270461 0.00870605,0.000964957z"/>
    </g>
    <path id="_354772000" class="fil6" d="M0.0830737 0.257641c0.00314618,-0.0313124 0.00878527,-0.0894884 0.00878527,-0.104213 0,-0.0489511 -0.0567341,-0.12693 0.0372713,-0.126667 0.0940061,0.000263967 0.0248772,0.117154 0.0322835,0.156658 0.00109126,0.00582059 0.00204161,0.0111519 0.00286663,0.01614 -0.00321274,-0.00196238 -0.00712776,-0.0015101 -0.00749595,0.00294163 -0.000337995,0.0243093 -0.00128802,0.0454079 -0.00335755,0.0606407 -0.00850767,0.0019692 -0.0173705,0.00301176 -0.0264772,0.00301176 -0.0155169,0 -0.0303273,-0.0030241 -0.043876,-0.00851221z"/>
    <path id="_354769072" class="fil7" d="M0.125412 0.0268003c0.00121659,-2.46759e-005 0.00244746,-4.22088e-005 0.00371827,-3.86373e-005 0.0940061,0.000263967 0.0248779,0.117154 0.0322835,0.156658 0.00662256,0.0353242 0.00836091,0.0456267 0.00766089,0.0749154 -0.00180296,0.000696445 -0.00362898,0.00134614 -0.0054735,0.00195459 0.000823071,-0.0308049 -0.000844175,-0.0407708 -0.00761154,-0.07687 -0.00736024,-0.0392584 0.0608384,-0.154924 -0.0305777,-0.156619z"/>
    <path id="_354774472" class="fil8" d="M0.0830737 0.257641c0.00314618,-0.0313124 0.00878527,-0.0894884 0.00878527,-0.104213 0,-0.0501518 -0.0562399,-0.130475 0.0430458,-0.126473 -0.0824074,0.00427575 -0.0421071,0.0778106 -0.038385,0.115164 0.00156075,0.0156679 0.0007419,0.087868 0.000284747,0.120106 -0.00469914,-0.00125068 -0.00928366,-0.00278318 -0.0137308,-0.00458452z"/>
    <path id="_350487824" class="fil9" d="M0.0830883 0.257647c0.00233122,-0.0228541 0.00877066,-0.0874946 0.00877066,-0.104219 0,-0.0489511 -0.0567341,-0.12693 0.0372713,-0.126667 0.000204226,6.49366e-007 0.000393516,1.23379e-005 0.000596118,1.36367e-005 -0.0921499,0.000470465 -0.0359729,0.0779333 -0.0359729,0.126653 0,0.0169014 -0.00657743,0.082748 -0.00884436,0.10494 -0.00060943,-0.000234746 -0.00121626,-0.00047631 -0.00182082,-0.000721121z"/>
    <path id="_354774232" class="fil10" d="M0.081284 0.256897c0.0012062,-0.0205748 0.00317085,-0.0494567 0.00489427,-0.0535477 0.00271727,-0.00644885 0.0092921,-0.00796869 0.0116814,-0.00209193 0.000766252,0.0127766 0.00332508,0.0436156 0.00781771,0.0629635 -0.00848721,-0.00156108 -0.0166536,-0.00403776 -0.0243934,-0.00732387z"/>
    <path id="_350269880" class="fil11" d="M0.0798937 0.256295c0.00198349,-0.0205229 0.00492511,-0.0489157 0.00641249,-0.0533116 0.00236824,-0.00700049 0.011161,-0.0102626 0.0115535,-0.00172601 -0.000793525,0.0245746 -0.000823071,0.0459218 0.000541246,0.0613865 -0.00639463,-0.00160523 -0.0125789,-0.0037397 -0.0185072,-0.00634885z"/>
    <path id="_350270240" class="fil12" d="M0.0799155 0.256304c0.00203674,-0.020906 0.00505271,-0.049958 0.00639073,-0.0533214 0.00211563,-0.00531863 0.00289065,-0.00568909 0.00605566,-0.00655502 -0.00386308,0.0013101 -0.004429,0.00428354 -0.00543746,0.00702289 -0.000650989,0.00176887 -0.00328871,0.0322855 -0.00507544,0.0536824 -0.000647418,-0.000270786 -0.00129224,-0.000547091 -0.00193349,-0.000828915z"/>
    <path id="_356764504" class="fil13" d="M0.170251 0.257869c-0.000113314,-0.0202758 -0.000544493,-0.049243 -0.00207018,-0.05331 -0.00238025,-0.0063443 -0.00877878,-0.00783882 -0.0113967,-0.00205784 -0.00133217,0.012547 -0.00172017,0.0415165 -0.00469556,0.0609378 0.00625599,-0.00137179 0.012325,-0.00324163 0.0181624,-0.00556993z"/>
    <path id="_354772576" class="fil14" d="M0.172021 0.257146c-0.000993205,-0.020418 -0.00260071,-0.0491125 -0.00394879,-0.052947 -0.00212213,-0.00603488 -0.0107324,-0.00840669 -0.0112873,-0.00169777 -0.000337995,0.0243093 -0.00128802,0.0454079 -0.00335755,0.0606407 0.00641671,-0.00148672 0.0126298,-0.00350268 0.0185936,-0.00599592z"/>
    <path id="_349367880" class="fil15" d="M0.161068 0.198466c-0.00217245,-0.000150003 -0.00403483,0.00103217 -0.00428387,0.00403516 -0.000337346,0.0243093 -0.00128737,0.0454079 -0.00335657,0.0606404 0.000245136,-5.64948e-005 0.000488648,-0.000117535 0.000732809,-0.000175978 0.00205265,-0.0152192 0.0029965,-0.0362492 0.00333319,-0.0604644 0.000221109,-0.00267052 0.00171822,-0.00390106 0.00357443,-0.00403516z"/>
    <path id="_346201832" class="fil5" d="M0.145448 0.00934632c0.00809467,-0.0103123 0.0199251,-0.0121863 0.0223385,-0.00512317 -0.000605534,-0.00122568 -0.00158348,-0.00211369 -0.00308449,-0.00241369 -0.00810279,-0.00162049 -0.0140412,0.00218771 -0.019254,0.00753686z"/>
    <path id="_358880216" class="fil3" d="M0.0944054 0.0901355c0,0 0.0421961,0.00902294 0.0683912,-0.00318546 -0.00265915,-0.0421942 -0.0745098,-0.034594 -0.0683912,0.00318546z"/>
    <path id="_358880600" class="fil16" d="M0.0944054 0.0907287c0,0 0.0421961,0.00902326 0.0683912,-0.00318514 -0.00265948,-0.0421938 -0.0745098,-0.034594 -0.0683912,0.00318514z"/>
    <path id="_358880792" class="fil17" d="M0.0941934 0.0840662c0,0 0.037723,-0.019269 0.0684678,0.00201661 0.00820116,0.079946 -0.0756333,0.0717436 -0.0684678,-0.00201661z"/>
    <path id="_358880984" class="fil18" d="M0.0952522 0.0866439c0,0 0.0396951,-0.0154633 0.0661213,0.00283286 0.00734757,0.0702555 -0.0719699,0.0618985 -0.0661213,-0.00283286z"/>
    <path id="_358881176" class="fil19 str1" d="M0.113308 0.0821649c0.00895248,-0.00157147 0.0202508,-0.00239064 0.0312173,3.44164e-005 0.00527999,0.00480303 0.00836026,0.0119766 0.00773492,0.0197212 -0.00106171,0.0131487 -0.0124039,0.0229616 -0.0253337,0.0219174 -0.0129298,-0.0010445 -0.0225502,-0.0125503 -0.0214882,-0.0256993 0.000517869,-0.00640664 0.0034767,-0.0120207 0.00786966,-0.0159737z"/>
    <path id="_358881368" class="fil20 str2" d="M0.12782 0.086488c0.0055287,0.000446114 0.00968074,0.00489849 0.00927294,0.00994406 -0.000407477,0.00504557 -0.0052196,0.00877391 -0.010749,0.00832714 -0.00552902,-0.000446439 -0.00968074,-0.00489849 -0.00927327,-0.00994439 0.000407802,-0.00504525 0.00522025,-0.00877326 0.0107493,-0.00832682z"/>
    <path id="_358881464" class="fil21" d="M0.12782 0.086488c0.00532188,0.000429555 0.00936645,0.00456991 0.00929924,0.00937879 -0.00213057,-0.00183738 -0.00523226,-0.00309066 -0.00878202,-0.00331664 -0.00457413,-0.000291241 -0.00876124,0.00119483 -0.0112632,0.00366405 -3.92866e-005,-0.000459426 -4.12347e-005,-0.000926645 -2.92215e-006,-0.00139938 0.000407477,-0.00504557 0.00522025,-0.00877358 0.010749,-0.00832682z"/>
    <path id="_358881656" class="fil22" d="M0.131622 0.088555c0.0038147,0.0015101 0.00421438,0.00780213 0.0016153,0.00379684 -0.00259909,-0.00400561 -0.00380658,-0.00467446 -0.0016153,-0.00379684z"/>
    <path id="_357906512" class="fil23" d="M0.162672 0.0859371c-0.0299013,-0.0210005 -0.0668087,-0.00309066 -0.0684785,-0.00187082 -1.00652e-005,0.000184095 -3.70138e-005,0.000236044 -5.90923e-005,0.000653587 -0.000522415,-0.000326956 0.0370142,-0.0197495 0.0686149,0.00228869 -5.71442e-005,-0.00055813 -1.72082e-005,-0.000561701 -7.72745e-005,-0.00107145z"/>
    <path id="_357907856" class="fil24" d="M0.141434 0.166006c0.00411958,-0.000721121 0.00427737,0.00523194 0.00427737,0.00523194 -0.000226953,-7.9872e-005 -0.00168965,0.00571474 -0.017317,0.00587449 -0.015627,0.000159419 -0.0173069,-0.00587449 -0.0173069,-0.00587449 0,0 0.000155523,-0.0058891 0.00427737,-0.00523194 0.0115301,0.00183803 0.0142922,0.00206174 0.0260691,0z"/>
    <path id="_357908048" class="fil25" d="M0.144683 0.160907c0.00508486,-0.00147471 0.00534363,-0.00523194 0.00534363,-0.00523194 -0.000283448,7.9872e-005 -0.00211109,-0.00571474 -0.021633,-0.00587416 -0.0195222,-0.000159419 -0.021621,0.00587416 -0.021621,0.00587416 0,0 0.000258772,0.0037595 0.00534363,0.00523194 0.0144253,0.00417867 0.0178796,0.00425984 0.0325667,0z"/>
    <g>
     <g>
      <path id="_357908384" class="fil26" d="M0.140145 0.15257c-0.000977295,0.00131269 -0.00357963,2.11044e-005 -0.00388451,-0.00334813 -0.000351632,-0.00388353 0.00487219,0.00183868 0.00388451,0.00334813z"/>
      <path id="_357908576" class="fil27" d="M0.13885 0.152049c0.000130198,0.00190102 -0.00237863,-0.000509427 -0.00248382,-0.00248999 -0.000154549,-0.00289942 0.00235363,0.00058865 0.00248382,0.00248999z"/>
     </g>
     <g>
      <path id="_357908816" class="fil26" d="M0.115391 0.151955c0.000977295,0.00131269 0.00357963,2.07797e-005 0.00388451,-0.00334813 0.000351632,-0.00388386 -0.00487219,0.00183868 -0.00388451,0.00334813z"/>
      <path id="_357909008" class="fil27" d="M0.116686 0.151434c-0.000130198,0.00190102 0.0023783,-0.000509427 0.00248382,-0.00248999 0.000154224,-0.00289974 -0.00235363,0.00058865 -0.00248382,0.00248999z"/>
     </g>
    </g>
    <path id="_357908288" class="fil28" d="M0.150162 0.155248c-0.000774369,0.0125425 -0.0433065,0.0126 -0.043526,0.000437997 0.00151205,0.00866968 0.0391671,0.0111548 0.043526,-0.000437997z"/>
   </g>
  </g>
 </g>
</svg>
