<?xml version="1.0" encoding="UTF-8" standalone="no"?>
<!-- Created with Inkscape (http://www.inkscape.org/) -->

<svg
   xmlns:dc="http://purl.org/dc/elements/1.1/"
   xmlns:cc="http://creativecommons.org/ns#"
   xmlns:rdf="http://www.w3.org/1999/02/22-rdf-syntax-ns#"
   xmlns:svg="http://www.w3.org/2000/svg"
   xmlns="http://www.w3.org/2000/svg"
   xmlns:xlink="http://www.w3.org/1999/xlink"
   xmlns:sodipodi="http://sodipodi.sourceforge.net/DTD/sodipodi-0.dtd"
   xmlns:inkscape="http://www.inkscape.org/namespaces/inkscape"
   version="1.1"
   width="1234"
   height="1234"
   viewBox=""
   id="svg3617"
   xml:space="preserve"
   style="fill-rule:evenodd"
   inkscape:version="0.48.3.1 r9886"
   sodipodi:docname="player1.svg"><sodipodi:namedview
   pagecolor="#ffffff"
   bordercolor="#666666"
   borderopacity="1"
   objecttolerance="10"
   gridtolerance="10"
   guidetolerance="10"
   inkscape:pageopacity="0"
   inkscape:pageshadow="2"
   inkscape:window-width="1366"
   inkscape:window-height="713"
   id="namedview3217"
   showgrid="false"
   inkscape:zoom="0.43598055"
   inkscape:cx="617"
   inkscape:cy="597.87523"
   inkscape:window-x="-2"
   inkscape:window-y="-3"
   inkscape:window-maximized="1"
   inkscape:current-layer="svg3617" /><metadata
   id="metadata3055"><rdf:RDF><cc:Work
       rdf:about=""><dc:format>image/svg+xml</dc:format><dc:type
         rdf:resource="http://purl.org/dc/dcmitype/StillImage" /><dc:title /></cc:Work></rdf:RDF></metadata>
 <defs
   id="defs3619">
  <style
   id="style3621"
   type="text/css" />
  <linearGradient
   id="id0"
   y2="0.090529"
   gradientUnits="userSpaceOnUse"
   y1="0.10559"
   x2="0.083152"
   x1="0.08465">
   <stop
   id="stop3624"
   stop-color="#000000"
   offset="0" />
   <stop
   id="stop3626"
   stop-color="#191919"
   offset="1" />
  </linearGradient>
  <linearGradient
   id="id1"
   y2="0.084642"
   gradientUnits="userSpaceOnUse"
   y1="0.10515"
   x2="0.087161"
   x1="0.079484">
   <stop
   id="stop3629"
   stop-color="#80cc65"
   offset="0" />
   <stop
   id="stop3631"
   stop-color="#58a73b"
   offset="1" />
  </linearGradient>
  <linearGradient
   id="id2"
   x1="0.12019"
   xlink:href="#id1"
   gradientUnits="userSpaceOnUse"
   x2="0.10868"
   y1="0.10304"
   y2="0.085601">
  </linearGradient>
  <linearGradient
   id="id3"
   x1="0.11517"
   xlink:href="#id0"
   gradientUnits="userSpaceOnUse"
   x2="0.11363"
   y1="0.10128"
   y2="0.087956">
  </linearGradient>
  <linearGradient
   id="id4"
   y2="0.1769"
   gradientUnits="userSpaceOnUse"
   y1="0.18724"
   x2="0.11326"
   x1="0.083426">
   <stop
   id="stop3636"
   stop-color="#80cc65"
   offset="0" />
   <stop
   id="stop3638"
   stop-color="#90d47b"
   offset="1" />
  </linearGradient>
  <linearGradient
   id="id5"
   x1="0.1023"
   xlink:href="#id1"
   gradientUnits="userSpaceOnUse"
   x2="0.1019"
   y1="0.12766"
   y2="0.12387">
  </linearGradient>
  <linearGradient
   id="id6"
   x1="0.099913"
   xlink:href="#id1"
   gradientUnits="userSpaceOnUse"
   x2="0.10054"
   y1="0.11188"
   y2="0.11777">
  </linearGradient>
  <linearGradient
   id="id7"
   y2="0.17604"
   gradientUnits="userSpaceOnUse"
   y1="0.16252"
   x2="0.091709"
   x1="0.089589">
   <stop
   id="stop3643"
   stop-color="#366a2a"
   offset="0" />
   <stop
   id="stop3645"
   stop-color="#80cc65"
   offset="1" />
  </linearGradient>
  <linearGradient
   id="id8"
   y2="0.081731"
   gradientUnits="userSpaceOnUse"
   y1="0.079076"
   x2="0.095262"
   x1="0.11712">
   <stop
   id="stop3648"
   stop-color="#a4db91"
   offset="0" />
   <stop
   id="stop3650"
   stop-color="#80cc65"
   offset="1" />
  </linearGradient>
  <linearGradient
   id="id9"
   x1="0.083696"
   xlink:href="#id4"
   gradientUnits="userSpaceOnUse"
   x2="0.10138"
   y1="0.084392"
   y2="0.082107">
  </linearGradient>
  <radialGradient
   id="id10"
   gradientUnits="userSpaceOnUse"
   cy="0.11836"
   cx="0.10299"
   r="0.143">
   <stop
   id="stop3654"
   stop-color="#000000"
   offset="0" />
   <stop
   id="stop3656"
   stop-color="#808080"
   offset="0.70196" />
   <stop
   id="stop3658"
   stop-color="#ffffff"
   offset="1" />
  </radialGradient>
  <radialGradient
   id="id11"
   gradientUnits="userSpaceOnUse"
   cy="0.11836"
   cx="0.10299"
   r="0.143">
   <stop
   id="stop3661"
   stop-color="#cc3399"
   offset="0" />
   <stop
   id="stop3663"
   stop-color="#000066"
   offset="1" />
  </radialGradient>
 <linearGradient
   id="linearGradient3208"
   y2="0.1769"
   xlink:href="#id4"
   gradientUnits="userSpaceOnUse"
   x2="0.11326"
   y1="0.18724"
   x1="0.083426" /><linearGradient
   id="linearGradient3210"
   y2="0.084642"
   xlink:href="#id1"
   gradientUnits="userSpaceOnUse"
   x2="0.087161"
   y1="0.10515"
   x1="0.079484" /><linearGradient
   id="linearGradient3212"
   y2="0.090529"
   xlink:href="#id0"
   gradientUnits="userSpaceOnUse"
   x2="0.083152"
   y1="0.10559"
   x1="0.08465" /></defs>
 <g
   id="Layer_x0020_1"
   transform="matrix(16628.303,0,0,15465.687,-1095.446,-1094.2797)">
  <g
   id="_347425536"
   transform="matrix(0.36065417,0,0,0.36065417,0.06584623,0.07075979)">
   <circle
   id="_358631744"
   d="m 0.20588,0.11836 c 0,0.0568246 -0.0460654,0.10289 -0.10289,0.10289 -0.05682458,0 -0.10288999831,-0.0460654 -0.10288999831,-0.10289 0,-0.05682458 0.0460654183,-0.10289 0.10288999831,-0.10289 0.0568246,0 0.10289,0.04606542 0.10289,0.10289 z"
   cx="0.10299"
   cy="0.11836"
   r="0.10289"
   style="fill:url(#id10);stroke:#808080;stroke-width:0.00020057"
   sodipodi:cx="0.10299"
   sodipodi:cy="0.11836"
   sodipodi:rx="0.10289"
   sodipodi:ry="0.10289" />
   <circle
   id="_354765976"
   d="m 0.200917,0.11836 c 0,0.0540836 -0.0438434,0.097927 -0.097927,0.097927 -0.05408359,0 -0.097927,-0.0438434 -0.097927,-0.097927 0,-0.05408359 0.04384341,-0.097927 0.097927,-0.097927 0.0540836,0 0.097927,0.04384341 0.097927,0.097927 z"
   cx="0.10299"
   cy="0.11836"
   r="0.097926997"
   style="fill:url(#id11)"
   sodipodi:cx="0.10299"
   sodipodi:cy="0.11836"
   sodipodi:rx="0.097926997"
   sodipodi:ry="0.097926997" />
   <g
   id="g3670">
    <path
   id="_359964832"
   d="M 0.05799,0.20535 C 0.065975,0.19428 0.078573,0.17848 0.086831,0.17639 0.08839,0.176 0.089642,0.17595 0.091544,0.17495 0.093266,0.17223 0.094798,0.17255 0.093532,0.1602 0.092266,0.14786 0.10564,0.1543 0.10564,0.1543 c 0,0 2.2558e-4,0.013924 0.004525,0.019356 0.001901,4.7222e-4 0.005588,0.00128 0.007072,0.001937 C 0.128733,0.180684 0.135679,0.199386 0.138692,0.209569 0.135486,0.210825 0.1322,0.21192 0.12884,0.212837 0.126697,0.206065 0.121519,0.191644 0.117008,0.191197 0.11685612,0.203177 0.118154,0.207209 0.118664,0.215034 0.11356,0.21585525 0.108325,0.216286 0.10299,0.216286 c -0.0067624,0 -0.013364,-6.8727e-4 -0.01974,-0.001993 -1.2e-4,-0.00357 -3.24e-4,-0.01099 -8.7e-5,-0.01502 2.52e-4,-0.00429 -0.009655,0.00264 -0.015005,0.01062 C 0.064669,0.208563 0.061276,0.207033 0.057991,0.205333 z"
   style="fill:url(#linearGradient3208)"
   inkscape:connector-curvature="0" />
    <path
   id="_359678200"
   d="M 0.1288,0.21285 C 0.12673,0.20636 0.12188,0.19281 0.117,0.1912 0.11685,0.20318 0.11815,0.20721 0.11866,0.21504 0.11734,0.21525 0.11601,0.21543 0.11468,0.21559 0.11414013,0.207287 0.11414329,0.194098 0.11479055,0.189385 c 6.3094e-4,-0.004597 0.009048,-0.001976 0.01668,0.022688 -8.8416e-4,2.6848e-4 -0.001772,5.2881e-4 -0.002667,7.7282e-4 z"
   inkscape:connector-curvature="0"
   style="fill:#74c358" />
    <path
   id="_358915320"
   d="m 0.083249,0.2143 c -1.2029e-4,-0.003551 -3.2403e-4,-0.010977 -8.686e-5,-0.015006 2.5216e-4,-0.004286 -0.0096552,0.002648 -0.015005,0.010621 -9.2417e-4,-3.5193e-4 -0.001841,-7.1912e-4 -0.0027515,-0.001098 0.0068135,-0.009378 0.016071,-0.01841 0.018192,-0.014029 0.0025617,0.005288 0.0013324,0.010218 0.0016472,0.0199 -6.678e-4,-1.224e-4 -0.0013335,-2.5085e-4 -0.0019965,-3.8667e-4 z"
   inkscape:connector-curvature="0"
   style="fill:#74c358" />
    <path
   id="_359526888"
   d="M 0.069459,0.1907 C 0.075533,0.18368 0.081943,0.17764 0.086832,0.1764 0.088391,0.176 0.089643,0.17595 0.091546,0.17495 0.093267,0.17224 0.0948,0.17256 0.093533,0.16021 0.092267,0.14786 0.10564,0.15431 0.10564,0.15431 c 0,0 -7.8256e-4,0.012372 0.003516,0.017804 2.4585e-4,5.1802e-4 0.001184,0.00192 0.002682,0.002023 -0.00207,0.00199 -0.00234,0.00181 -0.00856,0.00327 -0.006221,0.00146 -0.02296,0.00428 -0.028843,0.00932 -0.001405,0.0012 -0.003146,0.00258 -0.004979,0.00398 z"
   style="fill:url(#id7)"
   inkscape:connector-curvature="0" />
    <path
   id="_359670848"
   d="M 0.05799,0.20535 C 0.065975,0.19428 0.078573,0.17848 0.086831,0.17639 0.08839,0.176 0.089642,0.17595 0.091544,0.17495 0.093266,0.17223 0.094798,0.17255 0.093532,0.1602 0.092873,0.15377 0.096184,0.15244 0.099508,0.15264 0.096627,0.15283 0.09322,0.15259 0.094143,0.1616 0.095067,0.1706 0.093837,0.17227 0.092116,0.17499 0.090213,0.17599 0.089559,0.176 0.088,0.17639 0.079632,0.17851 0.066808,0.1947 0.058843,0.20579 0.058558,0.20565 0.058274,0.2055 0.05799,0.20535 z m 0.025285,0.008946 c -8.844e-5,-0.003967 -2.5875e-4,-0.012685 -1.1345e-4,-0.015012 2.632e-5,-4.1852e-4 3.1534e-4,0.001243 4.4063e-4,0.004485 3.501e-5,9.089e-4 -3.3824e-4,0.004927 3.2008e-4,0.010654 -2.1584e-4,-4.264e-5 -4.3195e-4,-8.37e-5 -6.4726e-4,-1.2766e-4 z"
   inkscape:connector-curvature="0"
   style="fill:#d0ffbf" />
    <path
   id="_357150240"
   d="m 0.082489,4.5037e-4 2.6e-7,0 c 0.02044,-0.0024809 0.039193,0.012213 0.041675,0.032654 0.003692,0.03042 0.002937,0.057739 0.011076,0.091263 0.002486,0.020484 -0.012234,0.039196 -0.032705,0.041681 -0.020441,0.002481 -0.039143,-0.01222 -0.041623,-0.03266 -9.6181e-4,-0.033906 -0.0060915,-0.062493 -0.011077,-0.091264 -0.0024806,-0.02044 0.012213,-0.039193 0.032654,-0.041674 z"
   style="fill:url(#id9)"
   inkscape:connector-curvature="0" />
    <path
   id="_358878608"
   d="m 0.082487,4.509e-4 0,0 C 0.079614,7.994e-4 0.076855,0.0014698 0.074241,0.0024206 c 0.028745,-0.010252 0.038054,0.014297 0.040187,0.031865 8.7916e-4,0.012555 0.001726,0.025085 0.002979,0.037932 0.001057,0.010842 -9.8076e-4,0.009357 0.00567,0.018934 0.002236,0.0032174 0.003681,0.018576 0.004001,0.020926 0.001667,0.012236 -6.4095e-4,0.015247 -4.2194e-4,0.018356 1.1529e-4,0.001635 6.7358e-4,0.003274 8.2546e-4,0.003907 0.002133,0.017571 -0.012445,0.029337 -0.033335,0.031759 0.02374,0.00254 0.043998,-0.017787 0.041092,-0.041732 -0.007178,-0.033152 -0.009035,-0.062136 -0.011077,-0.091263 -0.00248,-0.020441 -0.021234,-0.035135 -0.041675,-0.032654 z"
   style="fill:url(#id8)"
   inkscape:connector-curvature="0" />
    <path
   id="_356765672"
   d="m 0.082489,4.5037e-4 2.6e-7,0 c 0.002873,-3.485e-4 0.005712,-3.5824e-4 0.008478,-6.001e-5 -0.015985,0.0058156 -0.02654,0.022137 -0.024409,0.039705 0.0021495,0.012402 0.0043253,0.02477 0.006182,0.037544 0.0015678,0.01078 -0.0037985,0.0096987 -0.0079664,0.020588 -0.0013998,0.003659 8.6995e-4,0.018917 0.0011213,0.021276 0.0013079,0.012279 0.0070191,0.014799 0.0075508,0.01787 2.7902e-4,0.001615 1.2925e-4,0.00334 1.3319e-4,0.003991 0.0021321,0.017571 0.016351,0.02536 0.037214,0.022714 -0.022443,0.008145 -0.046975,-0.006745 -0.049881,-0.03069 -9.6181e-4,-0.033906 -0.0060915,-0.062493 -0.011077,-0.091264 -0.0024806,-0.02044 0.012213,-0.039193 0.032654,-0.041674 z"
   inkscape:connector-curvature="0"
   style="fill:#74c358" />
    <g
   id="g3680">
     <path
   id="_347010696"
   d="M 0.12798,0.07613 C 0.12178,0.073703 0.098255,0.074117 0.10053,0.097986 0.10214,0.11494 0.13062,0.10319 0.12798,0.07613 z"
   style="fill:url(#id2)"
   inkscape:connector-curvature="0" />
     <path
   id="_346202840"
   d="M 0.12798,0.077578 C 0.12217,0.076329 0.10305,0.083322 0.10193,0.098146 0.10082,0.11291 0.12789,0.10063 0.12798,0.077578 z"
   style="fill:url(#id3)"
   inkscape:connector-curvature="0" />
     <path
   id="_347005704"
   d="M 0.1147,0.082396 C 0.11295,0.083285 0.1074,0.087508 0.10733,0.089437 0.10727,0.091359 0.11509,0.085104 0.1147,0.082396 z"
   inkscape:connector-curvature="0"
   style="fill:#c0faff" />
     <g
   id="g3685">
      <path
   id="_347220384"
   d="M 0.0667,0.084596 C 0.072211,0.08055 0.09514,0.074547 0.097948,0.098341 0.099944,0.11525 0.069818,0.11158 0.0667,0.084596 z"
   style="fill:url(#linearGradient3210)"
   inkscape:connector-curvature="0" />
      <path
   id="_347213808"
   d="M 0.067005,0.086001 C 0.072381,0.083207 0.092418,0.08479 0.096616,0.09888 0.1008,0.11291 0.071934,0.10836 0.067005,0.086001 z"
   style="fill:url(#linearGradient3212)"
   inkscape:connector-curvature="0" />
      <path
   id="_347218632"
   d="M 0.080907,0.087066 C 0.08279,0.087452 0.089072,0.09004 0.08954,0.091896 0.090006,0.093745 0.081096,0.089801 0.080907,0.087066 z"
   inkscape:connector-curvature="0"
   style="fill:#c0faff" />
     </g>
    </g>
    <path
   id="_356254080"
   d="m 0.088922,2.2953e-4 c -0.008663,0.0016389 -0.018054,0.0041889 -0.027438,0.017044 -0.010165,0.013924 -0.0077158,0.031305 -0.0048248,0.053627 0.002891,0.022321 0.0014356,0.016602 8.8811e-4,0.020017 -0.0021202,-0.016838 -0.0049378,-0.032787 -0.0077113,-0.048793 -0.0024806,-0.02044 0.012213,-0.039193 0.032654,-0.041674 h 2.6e-7 c 0.002169,-2.6296e-4 0.0043195,-3.314e-4 0.0064326,-2.2084e-4 z"
   inkscape:connector-curvature="0"
   style="fill:#366a2a" />
    <g
   id="g3691">
     <path
   id="_347215128"
   d="M 0.12017,0.11656 C 0.1261,0.11574 0.12585,0.11144 0.12585,0.11144 0.12553,0.11155 0.1276,0.10712 0.10022,0.11077 0.07284,0.11442 0.076168,0.118306 0.076168,0.118306 c 0,0 6.5963e-4,0.004244 0.0065932,0.003424 0.017631,-0.002436 0.019774,-0.002732 0.037405,-0.005168 z"
   style="fill:url(#id6)"
   inkscape:connector-curvature="0" />
     <path
   id="_347214768"
   d="m 0.076128,0.11787 c 0,0 6.6042e-4,0.004244 0.0065932,0.003424 0.005933,-8.1967e-4 0.024706,-0.003413 0.024706,-0.003413 m 0.018382,-0.006875 c 0,0 2.5138e-4,0.0043 -0.005681,0.005119 -0.005933,8.1915e-4 -0.024706,0.003413 -0.024706,0.003413"
   inkscape:connector-curvature="0"
   style="fill:none" />
     <path
   id="_347216280"
   d="M 0.082676,0.12086 0.095462,0.11946 0.10747,0.1178 0.12008,0.11569 c 0.004081,-6.5016e-4 0.005016,-0.00181 0.006108,-0.004704 2.6e-7,1.342e-5 2.7085e-4,0.004704 -0.006015,0.005572 -0.0042,9.7e-4 -0.00839,0.00193 -0.01258,0.0029 -0.0038,0.00125 -0.007795,0.00182 -0.012008,0.00165 l -0.012822,6.2e-4 C 0.0764765,0.12259689 0.0758387,0.11832 0.0758369,0.118307 0.0770972,0.12064 0.0781382,0.121445 0.0826701,0.12086 z"
   inkscape:connector-curvature="0"
   style="fill:#204928;fill-rule:nonzero" />
     <path
   id="_347212944"
   d="M 0.11014,0.12133 C 0.11278,0.12097 0.11333,0.12522 0.11333,0.12522 0.11317,0.12518 0.10677,0.1291 0.10245,0.12983 0.098133,0.13056 0.09123,0.12828 0.09123,0.12828 c 0,0 -3.6456e-4,-0.004284 0.0022742,-0.004648 0.0078411,-0.001083 0.0087942,-0.001215 0.016636,-0.002298 z"
   style="fill:url(#id5)"
   inkscape:connector-curvature="0" />
    </g>
    <g
   id="g3697">
     <g
   id="g3699">
      <path
   id="_347215176"
   d="M 0.10458,0.10715 C 0.10387,0.107 0.10152,0.10785 0.10139,0.10967 0.10125,0.11148 0.10457,0.10998 0.10458,0.10715 z"
   inkscape:connector-curvature="0"
   style="fill:#58a73b" />
      <path
   id="_347222904"
   d="m 0.10322,0.10815 c -1e-5,-0.00102 -0.00178,5.2e-4 -0.00175,0.00159 5e-5,0.00155 0.00176,-5.6e-4 0.00175,-0.00159 z"
   inkscape:connector-curvature="0"
   style="fill:#4b8e33" />
     </g>
     <g
   id="g3703">
      <path
   id="_345992864"
   d="M 0.095886,0.10835 C 0.096545,0.10801 0.099001,0.1082 0.099515,0.10993 0.10003,0.11165 0.09649,0.11109 0.095886,0.10835 z"
   inkscape:connector-curvature="0"
   style="fill:#58a73b" />
      <path
   id="_345991616"
   d="m 0.097412,0.10895 c -2.07e-4,-0.001 0.001837,2e-5 0.002029,0.00106 2.82e-4,0.00153 -0.001822,-6e-5 -0.002029,-0.00106 z"
   inkscape:connector-curvature="0"
   style="fill:#4b8e33" />
     </g>
    </g>
    <path
   id="_347224944"
   d="m 0.13498,0.1233 c 8.528e-5,3.5693e-4 1.6978e-4,7.1412e-4 2.5717e-4,0.001073 0.002486,0.020484 -0.012234,0.039196 -0.032705,0.041681 -0.020441,0.002481 -0.039143,-0.01222 -0.041623,-0.03266 -1.211e-5,-4.1642e-4 -2.474e-5,-8.3152e-4 -3.817e-5,-0.001246 0.0037996,0.018925 0.022025,0.034896 0.041495,0.032533 0.019451,-0.00236 0.033376,-0.022118 0.032614,-0.04138 z"
   inkscape:connector-curvature="0"
   style="fill:#58a73b" />
    <path
   id="_347215656"
   d="m 0.083698,3.2587e-4 c -0.021302,0.0026756 -0.035437,0.021659 -0.033006,0.041694 0.0049852,0.028771 0.010593,0.0573 0.011555,0.091207 0.0024319,0.020037 0.019148,0.035999 0.041493,0.032653 -0.020832,0.00321 -0.040289,-0.01157 -0.042828,-0.03249 -9.62e-4,-0.033907 -0.006091,-0.062494 -0.011077,-0.091265 -0.002541,-0.020941 0.012896,-0.039938 0.033863,-0.041799 z"
   inkscape:connector-curvature="0"
   style="fill:#d0ffbf" />
   </g>
  </g>
 </g>
</svg>