<?xml version="1.0" encoding="UTF-8"?>
<!DOCTYPE svg PUBLIC "-//W3C//DTD SVG 1.1//EN" "http://www.w3.org/Graphics/SVG/1.1/DTD/svg11.dtd">
<!-- Creator: CorelDRAW -->
<svg xmlns="http://www.w3.org/2000/svg" xml:space="preserve" width="5.48283in" height="3.42077in" style="shape-rendering:geometricPrecision; text-rendering:geometricPrecision; image-rendering:optimizeQuality; fill-rule:evenodd; clip-rule:evenodd"
viewBox="0 0 1.05363 0.657364"
 xmlns:xlink="http://www.w3.org/1999/xlink">
 <defs>
  <style type="text/css">
   <![CDATA[
    .fil21 {fill:#057265}
    .fil14 {fill:#05796D}
    .fil18 {fill:#068071}
    .fil4 {fill:#068C7F}
    .fil17 {fill:#086D62}
    .fil10 {fill:#096C62}
    .fil19 {fill:#0A7C71}
    .fil24 {fill:#0B6960}
    .fil22 {fill:#0B6D63}
    .fil13 {fill:#0D8A7D}
    .fil16 {fill:#0EB4A3}
    .fil12 {fill:#11B5A6}
    .fil11 {fill:#14D1BE}
    .fil23 {fill:#17544E}
    .fil20 {fill:#204540}
    .fil15 {fill:#3AF5E3}
    .fil2 {fill:#99CCCC;fill-rule:nonzero}
    .fil8 {fill:#14D1BE;fill-opacity:0.501961}
    .fil7 {fill:url(#id0)}
    .fil9 {fill:url(#id1)}
    .fil3 {fill:url(#id2)}
    .fil5 {fill:url(#id3)}
    .fil26 {fill:url(#id4)}
    .fil25 {fill:url(#id5)}
    .fil6 {fill:url(#id6)}
    .fil1 {fill:url(#id7)}
    .fil0 {fill:url(#id8)}
   ]]>
  </style>
  <linearGradient id="id0" gradientUnits="userSpaceOnUse" x1="0.304831" y1="0.329978" x2="0.635681" y2="0.00539963">
   <stop offset="0" style="stop-color:#2E2E2E"/>
   <stop offset="1" style="stop-color:#07A090"/>
  </linearGradient>
  <linearGradient id="id1" gradientUnits="userSpaceOnUse" x1="0.417699" y1="0.504167" x2="0.636394" y2="0.127824">
   <stop offset="0" style="stop-color:#2E2E2E"/>
   <stop offset="1" style="stop-color:#05786C"/>
  </linearGradient>
  <linearGradient id="id2" gradientUnits="userSpaceOnUse" x1="0.314896" y1="0.583092" x2="0.740693" y2="0.0819591">
   <stop offset="0" style="stop-color:#2E2E2E"/>
   <stop offset="0.2" style="stop-color:#263A36"/>
   <stop offset="0.678431" style="stop-color:#06887B"/>
   <stop offset="1" style="stop-color:#08AA9A"/>
  </linearGradient>
  <linearGradient id="id3" gradientUnits="userSpaceOnUse" xlink:href="#id0" x1="0.461798" y1="0.605476" x2="0.676463" y2="0.296114">
  </linearGradient>
  <linearGradient id="id4" gradientUnits="userSpaceOnUse" x1="0.185847" y1="0.599111" x2="1.0827" y2="0.334445">
   <stop offset="0" style="stop-color:#257870"/>
   <stop offset="0.458824" style="stop-color:#73D4CA"/>
   <stop offset="1" style="stop-color:#92EBE2"/>
  </linearGradient>
  <linearGradient id="id5" gradientUnits="userSpaceOnUse" x1="0.270939" y1="0.581362" x2="0.920205" y2="0.161507">
   <stop offset="0" style="stop-color:#11524C"/>
   <stop offset="0.529412" style="stop-color:#A4F2EA"/>
   <stop offset="1" style="stop-color:#54B0A7"/>
  </linearGradient>
  <linearGradient id="id6" gradientUnits="userSpaceOnUse" xlink:href="#id1" x1="0.531983" y1="0.649711" x2="0.68218" y2="0.481511">
  </linearGradient>
  <linearGradient id="id7" gradientUnits="userSpaceOnUse" x1="0.316052" y1="0.383413" x2="1.00769" y2="0.17176">
   <stop offset="0" style="stop-color:#012B27"/>
   <stop offset="0.678431" style="stop-color:#006B60"/>
   <stop offset="1" style="stop-color:#80CFC7"/>
  </linearGradient>
  <linearGradient id="id8" gradientUnits="userSpaceOnUse" x1="0.320845" y1="0.28338" x2="0.927754" y2="0.0397902">
   <stop offset="0" style="stop-color:#00453E"/>
   <stop offset="1" style="stop-color:#80CFC7"/>
  </linearGradient>
 </defs>
 <g id="Layer_x0020_1">
  <metadata id="CorelCorpID_0Corel-Layer"/>
  <g id="_347214408">
   <path id="_354750664" class="fil0" d="M1.0518 0.173433c-0.210163,-0.155164 -0.994515,0.112689 -1.04784,0.341084 -0.0747792,-0.241985 0.93332,-0.581633 1.04784,-0.341084z"/>
   <g>
    <path id="_354671200" class="fil1" d="M1.01297 0.180241c-0.196547,-0.145111 -0.930077,0.105388 -0.979947,0.318984 -0.0699342,-0.226306 0.872846,-0.543947 0.979947,-0.318984z"/>
    <path id="_3546712001" class="fil2" d="M0.0327488 0.49931l0.000547756 -0.000169471 -0.000553052 1.81576e-005 0.00665629 -0.0201663 0.0104414 -0.0202927 0.0140011 -0.0203419 0.0173345 -0.0203139 0.0204455 -0.0202072 0.0233311 -0.0200249 0.0259942 -0.0197638 0.0284349 -0.0194234 0.0306516 -0.0190042 0.0326452 -0.0185072 0.034414 -0.0179299 0.035962 -0.0172755 0.0372852 -0.0165409 0.0383853 -0.0157268 0.0392606 -0.0148333 0.039915 -0.0138626 0.0403448 -0.0128102 0.0405506 -0.0116807 0.0405347 -0.0104709 0.0402933 -0.00918323 0.0398296 -0.0078146 0.0391433 -0.00636804 0.0382324 -0.00484128 0.0370983 -0.00323584 0.0357418 -0.00155097 0.0341621 0.000213352 0.0323592 0.00205787 0.0303331 0.00398106 0.0280853 0.00598446 0.0256121 0.0080688 0.0229187 0.0102341 0.0199984 0.0124811 -0.000338943 0.000464533 -0.0199257 -0.0124357 -0.0228522 -0.0102054 -0.0255561 -0.00805065 -0.0280354 -0.00597387 -0.0302922 -0.00397501 -0.0323244 -0.00205484 -0.0341318 -0.000213352 -0.0357146 0.00154945 -0.0370756 0.00323433 -0.0382113 0.00483826 -0.0391237 0.00636501 -0.0398129 0.00781157 -0.0402767 0.00917869 -0.040518 0.0104664 -0.0405369 0.0116776 -0.0403296 0.0128057 -0.0398999 0.0138566 -0.039247 0.0148287 -0.0383701 0.0157207 -0.0372701 0.0165333 -0.0359453 0.0172679 -0.0343974 0.0179208 -0.032627 0.0184966 -0.0306304 0.0189921 -0.0284122 0.0194083 -0.02597 0.0197442 -0.0233038 0.0200006 -0.0204137 0.0201769 -0.0172997 0.020273 -0.0139632 0.0202874 -0.0104051 0.0202201 -0.00662603 0.0200725 -0.000553052 1.81576e-005zm0.980051 -0.318836l0.000338943 -0.000464533 -0.000428218 0.000355587 -0.0123956 -0.0194612 -0.0169449 -0.0164122 -0.0211658 -0.0134805 -0.025053 -0.0106616 -0.0286021 -0.00795456 -0.0318122 -0.00536029 -0.0346834 -0.00288026 -0.0372133 -0.00051371 -0.0394059 0.00173481 -0.0412572 0.00386909 -0.0427726 0.00588686 -0.043946 0.00779039 -0.0447828 0.00957513 -0.0452799 0.0112464 -0.0454388 0.0127996 -0.0452587 0.0142386 -0.0447404 0.0155596 -0.0438825 0.0167656 -0.0426879 0.0178543 -0.041152 0.0188287 -0.0392795 0.0196859 -0.0370681 0.0204251 -0.0345177 0.0210508 -0.0316268 0.0215584 -0.0284008 0.0219488 -0.0248321 0.0222227 -0.0209282 0.0223778 -0.0166831 0.0224149 -0.0121036 0.0223324 -0.00718891 0.0221304 -0.00194362 0.0218134 0.00363304 0.0213905 -0.000547756 0.000169471 -0.00365877 -0.0215388 0.00195573 -0.0219541 0.00722372 -0.0222424 0.0121475 -0.0224141 0.016727 -0.0224739 0.020966 -0.0224202 0.0248669 -0.022253 0.0284296 -0.0219715 0.0316541 -0.0215766 0.0345404 -0.0210644 0.0370877 -0.0204372 0.0392992 -0.019695 0.0411702 -0.0188363 0.0427045 -0.0178618 0.0438991 -0.0167716 0.0447556 -0.0155656 0.0452753 -0.0142432 0.0454554 -0.0128042 0.045298 -0.0112509 0.044801 -0.00957967 0.0439672 -0.00779341 0.0427953 -0.00588989 0.0412844 -0.00387212 0.0394361 -0.00173632 0.0372497 0.000515223 0.0347257 0.00288328 0.0318652 0.00536937 0.0286671 0.00797272 0.0251302 0.0106949 0.021255 0.013538 0.0170357 0.0165015 0.0124698 0.0195792 -0.000428218 0.000355587z"/>
   </g>
   <g id="_358873952">
    <g>
     <ellipse id="_358874720" class="fil3" cx="0.527794" cy="0.332525" rx="0.322971" ry="0.324839"/>
     <path id="_358874912" class="fil4" d="M0.288256 0.545696c0.0817896,-0.0535643 0.0237532,-0.0666635 0.100516,-0.0610483 0.076763,0.00561601 0.082379,0.0112426 0.1217,-0.0411891 0.0393211,-0.0524317 0.0599157,-0.0430578 0.112336,-0.0655317 0.0524211,-0.0224739 0.049149,-0.0393211 0.0882325,-0.0393211 0.0390836,0 0.0559301,0 0.0858887,0 0.0299578,0 0.0540054,-0.0241724 0.0540054,-0.0241724 0,0 -0.00176583,0.0590555 -0.00577413,0.0768764 -0.0040083,0.0178202 -0.0559535,-0.000282957 -0.0950364,-0.000282957 -0.0390836,0 -0.0262219,0.00374728 -0.104853,0.0393211 -0.0786317,0.0355731 -0.0917423,0.0262212 -0.123568,0.0542997 -0.0318266,0.0280785 0.0056039,0.0355625 -0.0543004,0.0486731 -0.0599043,0.0131113 -0.0543004,0.00375939 -0.0823782,0.0168586 -0.0280785,0.0131 -0.0624979,0.0285544 -0.0624979,0.0285544l-0.034271 -0.0330378z"/>
     <path id="_358875104" class="fil5" d="M0.287791 0.549907c0.0817896,-0.0535643 0.0237532,-0.0666635 0.100516,-0.0610483 0.076763,0.00561601 0.082379,0.0112426 0.1217,-0.0411891 0.0393211,-0.0524325 0.0599157,-0.0430578 0.112337,-0.0655317 0.0524204,-0.0224739 0.0491482,-0.0393211 0.0882318,-0.0393211 0.0390836,0 0.0559308,0 0.0858887,0 0.0299578,0 0.0540061,-0.0241724 0.0540061,-0.0241724 0,0 -0.00176659,0.0590555 -0.00577489,0.0768764 -0.00400754,0.0178202 -0.0559528,-0.000283713 -0.0950364,-0.000283713 -0.0390836,0 -0.0262219,0.00374804 -0.104853,0.0393219 -0.0786309,0.0355731 -0.0917415,0.0262212 -0.123568,0.0542997 -0.0318258,0.0280785 0.00560466,0.0355625 -0.0542997,0.0486731 -0.0599051,0.0131113 -0.0543004,0.00375939 -0.082379,0.0168586 -0.0280785,0.0130992 -0.0624971,0.0285544 -0.0624971,0.0285544l-0.0342718 -0.0330378z"/>
     <path id="_358875152" class="fil6" d="M0.3992 0.630599c0.0471441,-0.00694076 0.0359241,-0.0219193 0.105192,-0.0368986 0.0692684,-0.0149785 0.112325,-0.0112199 0.131052,-0.0393098 0.0187266,-0.0280899 -0.00772154,-0.0299578 0.0337059,-0.0299578 0.0414267,0 0.0786309,-0.0206059 0.102973,-0.0280899 0.0243426,-0.00748398 0.0428543,-0.0150353 0.0428543,-0.0150353 0,0 -0.0882779,0.108623 -0.1044,0.119073 -0.0161225,0.0104505 -0.0601533,0.000804232 -0.0919798,0.00268355 -0.0318258,0.00187932 -0.0917415,0.0206059 -0.102973,0.0224746 -0.011232,0.00186797 -0.0569953,0.0243645 -0.0569953,0.0243645l-0.0594285 -0.0193038z"/>
     <path id="_358875176" class="fil7" d="M0.279719 0.176181c0.0374418,-0.0486738 0.0524204,-0.0542891 0.0992255,-0.0748836 0.0468051,-0.0205946 0.076763,-0.0411899 0.1217,-0.0393211 0.0449371,0.00186797 0.10594,0.0213299 0.138003,0.0213299 0.0117752,0 0.0217839,-0.00674784 0.0335584,-0.0256439 0.00828821,-0.0132808 0.0634935,0.0262673 0.0634935,0.0262673 0,0 -0.0502808,-0.0506999 -0.127168,-0.0658941 -0.0768878,-0.0151942 -0.0969732,-0.0121596 -0.12324,-0.00756342 -0.0262673,0.00459691 -0.0863419,0.0212513 -0.111103,0.0362306 -0.024761,0.0149793 -0.142895,0.101184 -0.15613,0.193504 -0.0132354,0.0923195 0.0616596,-0.0640254 0.0616596,-0.0640254z"/>
     <path id="_358875368" class="fil8" d="M0.350231 0.0633339c0.00603515,-0.00420047 0.070457,-0.0367624 0.12401,-0.041755 0.053553,-0.00499335 0.0757893,-0.00612518 0.0937343,-0.00250197 0.0179458,0.00362245 0.0380085,-0.00983917 0.0560103,0.0121596 0.0180018,0.0219987 0.0133254,0.0173224 0.00677053,0.031362 -0.00655567,0.0140389 -0.0182401,0.0115369 0.00280763,0.019179 0.0210477,0.00764286 0.0486731,0 0.0486731,0 0,0 -0.00092831,-0.0234022 0.015919,0 0.0168473,0.0234029 -0.0140396,0.0177869 0.0243418,0.0308975 0.0383815,0.0131113 0.0243426,-0.0056266 0.0243426,0.0318266 0,0.0374532 0.0464881,0.0321315 0.0438386,0.0474278 -0.0026495,0.0152955 -0.041031,-0.0155906 -0.017628,0.0321542 0.0234022,0.0477448 0.00374728,0.0224739 0.0234022,0.0477448 0.0196549,0.0252709 0.0299465,0.00483447 0.0421288,0.0327655 0.0110391,0.0253163 0.0115604,0.0445861 0.011549,0.0479831 0.000407034,-0.00663511 0.000634004,-0.0133149 0.000634004,-0.0200513 0,-0.179408 -0.144604,-0.324839 -0.322971,-0.324839 -0.0345661,0 -0.0678642,0.00547983 -0.0990787,0.0155906 -0.0284863,0.0102349 -0.0550812,0.02381 -0.0784842,0.0400565z"/>
     <path id="_358875560" class="fil4" d="M0.227297 0.379783c0.0411899,-0.0786309 -0.0131106,-0.127304 0.114205,-0.125436 0.127316,0.00186797 0.110469,-0.0318372 0.202211,-0.0393211 0.0917415,-0.00748398 0.127327,-0.00373594 0.190978,-0.0130992 0.0636524,-0.00936329 0.0710796,-0.0412012 0.0831719,-0.0105746 0.00680458,0.0172089 0.0135524,0.0346221 0.0158395,0.0424571 0.00177718,0.00609113 0.00285302,0.00382672 -0.0134737,0.00811798 -0.037317,0.00982707 -0.0314861,0.0142878 -0.0724377,0.0142878 -0.0409515,0 0.00374728,-0.00186797 -0.076763,-0.00186797 -0.080511,0 -0.0926706,-0.00469829 -0.119821,0.0336945 -0.0271502,0.0383928 -1.13485e-005,0.0524317 -0.119831,0.0524317 -0.119821,0 -0.0973462,-0.0355731 -0.134799,0.0149793 -0.0374532,0.0505524 -0.0674337,0.103619 -0.0674337,0.103619 0,0 -0.0190776,-0.0562705 -0.00184603,-0.0792884z"/>
     <path id="_358875752" class="fil9" d="M0.231034 0.385874c0.0411891,-0.0786309 -0.0131106,-0.127304 0.114205,-0.125436 0.127315,0.00186872 0.110468,-0.0318372 0.20221,-0.0393211 0.0917423,-0.00748398 0.127327,-0.00373594 0.190979,-0.0130992 0.0636524,-0.00936329 0.0710796,-0.0412005 0.0831711,-0.0105746 0.00680458,0.0172089 0.0135524,0.0346221 0.0158395,0.0424571 0.00177718,0.00609113 0.00285302,0.00382672 -0.013473,0.00811798 -0.0373177,0.00982707 -0.0314869,0.0142886 -0.0724384,0.0142886 -0.0409515,0 0.00374804,-0.00186872 -0.076763,-0.00186872 -0.0805102,0 -0.0926698,-0.00469829 -0.11982,0.0336945 -0.0271502,0.0383928 -1.13485e-005,0.0524317 -0.119832,0.0524317 -0.11982,0 -0.0973462,-0.0355731 -0.134799,0.0149793 -0.0374532,0.0505524 -0.0674337,0.103619 -0.0674337,0.103619 0,0 -0.0190776,-0.0562705 -0.00184527,-0.0792884z"/>
    </g>
    <g>
     <g>
      <path id="_358876208" class="fil10" d="M0.518457 0.0129903c-0.00530582,0.00279552 -0.00651633,0.00390389 -0.00963187,0.00457421 -0.00311555,0.000671076 -0.00200491,0.00136107 0.00794094,0.00743177 0.00994585,0.00607071 0.0122186,0.0124554 0.0306327,0.0165545 0.0184141,0.00409833 0.0453775,0.00785999 0.0538041,0.00989365 0.00842666,0.00203441 0.00840018,0.000578018 0.0164788,0.00153281 0.00807788,0.000954033 0.0163888,0.00193833 0.015552,-0.00384412 -0.000837521,-0.0057817 -0.00390843,-0.00809226 -0.00390843,-0.00809226 0,0 -0.0789078,-0.005989 -0.0968355,-0.0203146 -0.0179276,-0.0143256 -0.0140328,-0.00773591 -0.0140328,-0.00773591z"/>
      <g>
       <path id="_358876808" class="fil11" d="M0.536902 0c-0.0130342,0.00376242 -0.0092029,0.0100654 -0.00364742,0.0144807 0.00555548,0.00441533 0.0215766,0.0142182 0.0390541,0.0171385 0.0174775,0.0029196 0.0211461,0.00106752 0.0343066,0.000664267 0.0131598,-0.000402494 0.0337747,0.0122715 0.0249373,0.000251937 -0.00883748,-0.0120196 0.00264799,-0.0091908 -0.0210371,-0.0179125 -0.0236844,-0.00872172 -0.0249236,-0.00981496 -0.0309285,-0.0102424 -0.00600488,-0.000427461 -0.0174381,-0.00191185 -0.0264587,-0.00288934 -0.00902057,-0.000977487 -0.0162261,-0.0014912 -0.0162261,-0.0014912z"/>
       <path id="_358877000" class="fil12" d="M0.531548 0.00997233c0.00087081,0.00104406 0.00195346,0.00204652 0.00311101,0.00296651 0.00555548,0.00441609 0.0209592,0.015897 0.0384375,0.0188174 0.0174775,0.0029196 0.0253337,0.00481934 0.0384942,0.00441609 0.0100661,-0.000307923 0.0224012,0.00385699 0.0236927,0.000454698l-0.000335916 -0.000466046c-0.0034265,-0.00466122 -0.00379722,-0.00708905 -0.00434876,-0.00882386 -0.000334403,-0.00061509 -0.000605255,-0.00117571 -0.000825416,-0.00168715 -0.00134669,-0.00174465 -0.00469451,-0.0032888 -0.0158622,-0.00740151 -0.0236851,-0.00872172 -0.0249236,-0.00981496 -0.0309285,-0.0102424 -0.00600488,-0.000427461 -0.0174389,-0.00191185 -0.0264595,-0.00288934 -0.00902057,-0.000977487 -0.0162261,-0.0014912 -0.0162261,-0.0014912 -0.00597311,0.00172422 -0.00840245,0.00398182 -0.00874896,0.00634685z"/>
       <path id="_358877120" class="fil13" d="M0.559597 0.0278455c0.0124887,0.00162435 0.0142643,0.00229013 0.0211695,0.0027819 0.00530657,0.000377528 0.0362548,0.00593906 0.0483319,0.0043132 0.00190655,-0.000256477 0.00107433,-0.00508868 -0.00262756,-0.00966062 -0.00335236,-0.0041407 -0.00956832,-0.00808318 -0.00888514,-0.00798558 0.00307545,0.000441079 0.00664419,0.00277812 0.00915372,0.0049926 0.00430185,0.00379797 0.00613123,0.00919382 0.00673119,0.00942911 0.00761259,0.0109967 -0.00899257,0.00406202 -0.0218792,0.00445619 -0.0131605,0.000403251 -0.0210167,-0.00149649 -0.0384942,-0.00441609 -0.00470132,-0.000786075 -0.00925056,-0.00219102 -0.0135002,-0.0039107z"/>
       <path id="_358877336" class="fil14" d="M0.527138 0.00431925c-0.0100608,0.00380932 -0.00593301,0.0108893 -0.000567426,0.0151541 0.00536483,0.00426402 0.0199469,0.0163812 0.0374244,0.0193008 0.0174782,0.0029196 0.0274082,0.00241572 0.0384299,0.00388271 0.0110217,0.00146699 0.0339404,0.00523167 0.0332693,-0.00454849 -0.00951915,0.00271305 -0.0180532,-0.00152751 -0.0267455,-0.00188461 -0.00869222,-0.000357857 -0.0221841,0.00153508 -0.0396616,-0.00138452 -0.0174782,-0.00292035 -0.0337634,-0.0151026 -0.0384375,-0.0188174 -0.00467408,-0.00371475 -0.00634458,-0.00833814 -0.00371173,-0.0117026z"/>
      </g>
     </g>
     <path id="_358876016" class="fil15" d="M0.528108 0.006853c0,0 0.0012438,-0.00266236 0.00501908,-0.00475806 0.00377528,-0.00209494 0.00861656,-0.00246414 0.012469,-0.00119387 0.00385245,0.00127104 0.0104157,0.00157442 0.0132884,0.00200642 0.00287269,0.000432757 0.020761,0.00128087 0.022952,0.00170152 0.00219178,0.000420652 0.00633626,0.00169623 0.00633626,0.00169623 0,0 -0.0453881,-0.00484128 -0.0508785,-0.0024528 -0.00549042,0.00238773 -0.00918626,0.00300055 -0.00918626,0.00300055z"/>
    </g>
    <g>
     <path id="_358877360" class="fil10" d="M0.782588 0.169101c-0.0178845,-0.0154476 -0.0429648,-0.0268241 -0.0640027,-0.0233121 -0.0210371,0.00351199 -0.056928,0.00338186 -0.0247012,0.023496 0.0322276,0.0201134 0.0265866,0.0211158 0.050165,0.0227447 0.0235777,0.00162889 0.0385388,-0.0229286 0.0385388,-0.0229286z"/>
     <path id="_358877408" class="fil15" d="M0.750334 0.161602c-0.0114552,-0.00989365 -0.0275187,-0.0171802 -0.0409924,-0.0149309 -0.0134737,0.00225003 -0.0364613,0.00216606 -0.0158206,0.0150489 0.0206407,0.0128821 0.0170281,0.0135237 0.0321292,0.014567 0.0151011,0.00104331 0.0246838,-0.014685 0.0246838,-0.014685z"/>
     <path id="_358877432" class="fil12" d="M0.772659 0.163032c-0.0140775,-0.0121596 -0.0338186,-0.0211136 -0.0503769,-0.0183491 -0.016559,0.0027645 -0.0448093,0.00266161 -0.0194431,0.0184936 0.025367,0.015832 0.0209267,0.0166203 0.0394853,0.0179027 0.0185579,0.00128163 0.0303346,-0.0180472 0.0303346,-0.0180472z"/>
    </g>
    <g>
     <path id="_358877840" class="fil10" d="M0.287016 0.116307c-0.000167202,0.00164478 -9.75973e-005,0.00209191 -0.000419139,0.00290901 -0.000321542,0.000817851 6.05255e-006,0.00066805 0.00291733,-0.000688477 0.00291128,-0.00135728 0.00472401,-0.000904856 0.00847508,-0.00450612 0.00375031,-0.00360202 0.00872778,-0.00921803 0.0104807,-0.0108416 0.00175297,-0.00162435 0.00141478,-0.00184073 0.00286588,-0.00354906 0.00145186,-0.00170909 0.00294608,-0.0034666 0.0014912,-0.00415659 -0.00145564,-0.000689991 -0.00245431,-0.000338186 -0.00245431,-0.000338186 0,0 -0.0134147,0.0172006 -0.0194393,0.0191306 -0.0060238,0.00192925 -0.00391751,0.00204047 -0.00391751,0.00204047z"/>
     <g>
      <path id="_359277408" class="fil11" d="M0.286849 0.110091c-0.00112502,0.00356571 0.000906369,0.00364817 0.00276753,0.0030467 0.00186192,-0.000601472 0.00655642,-0.00278342 0.00989365,-0.00635064 0.00333722,-0.00356646 0.00347189,-0.00469148 0.00538752,-0.00777374 0.00191563,-0.00308226 0.00797045,-0.00588081 0.00386228,-0.00568637 -0.00410741,0.000195195 -0.00170531,-0.0020102 -0.00732131,0.00209645 -0.00561677,0.0041059 -0.00605633,0.00422392 -0.00707089,0.00553657 -0.00101456,0.0013134 -0.00309966,0.00371173 -0.00470056,0.00563341 -0.0016009,0.00192168 -0.00281822,0.00349762 -0.00281822,0.00349762z"/>
      <path id="_350487440" class="fil12" d="M0.288321 0.112841c0.000372988,-4.00981e-005 0.000767917,-0.000136182 0.00115604,-0.000261016 0.00186116,-0.000601472 0.0068477,-0.00238622 0.0101842,-0.00595268 0.00333722,-0.00356646 0.00497217,-0.00508036 0.0068878,-0.00816262 0.00146547,-0.00235822 0.00430336,-0.00455454 0.00371929,-0.00537012l-0.000158123 6.05255e-006c-0.00159258,7.56569e-005 -0.00220615,-0.000209569 -0.00268884,-0.000348022 -0.000192168,-1.74011e-005 -0.000362396,-4.08547e-005 -0.00051371,-6.80912e-005 -0.000605255,4.31244e-005 -0.00147077,0.000575749 -0.00411876,0.00251181 -0.00561677,0.00410665 -0.00605633,0.00422392 -0.00707089,0.00553733 -0.00101456,0.0013134 -0.00309966,0.00371173 -0.00470056,0.00563341 -0.0016009,0.00192168 -0.00281822,0.00349762 -0.00281822,0.00349762 -0.000515223,0.00163419 -0.000367692,0.00253602 0.000121808,0.00297634z"/>
      <path id="_350269304" class="fil13" d="M0.296704 0.109129c0.00227878,-0.00261848 0.00270246,-0.00292489 0.00386909,-0.00443501 0.000896534,-0.00116058 0.00689537,-0.00741589 0.00836462,-0.0104369 0.000232267,-0.000476638 -0.00100397,-0.00102288 -0.00261848,-0.00087081 -0.00146169,0.000137695 -0.00331528,0.000963112 -0.00318894,0.000820877 0.000570453,-0.000638544 0.00165159,-0.00110081 0.00254283,-0.00133913 0.00152827,-0.000408547 0.00304595,-4.53941e-006 0.00319196,-0.000106676 0.003686,-6.96043e-005 -0.000440323,0.00268431 -0.00231586,0.00570301 -0.00191563,0.00308226 -0.00355058,0.00459615 -0.0068878,0.00816262 -0.00089729,0.000959329 -0.00191412,0.00178928 -0.00295743,0.00250197z"/>
      <path id="_350269712" class="fil14" d="M0.286351 0.11299c-0.000660484,0.00289085 0.00159485,0.003024 0.00339245,0.00244296 0.00179761,-0.000581045 0.00680382,-0.00207981 0.010141,-0.00564627 0.00333722,-0.00356646 0.00473688,-0.00592318 0.0067554,-0.0082292 0.00201852,-0.00230678 0.00638014,-0.00699372 0.00403251,-0.00833133 -0.000829956,0.00259881 -0.00310571,0.0039107 -0.00451369,0.00585206 -0.00140873,0.0019406 -0.00303308,0.00532624 -0.00637031,0.00889346 -0.00333647,0.00356646 -0.00861807,0.00544654 -0.0101842,0.00595268 -0.0015661,0.000506144 -0.00288253,0.000183846 -0.00325324,-0.000934362z"/>
     </g>
    </g>
    <g>
     <path id="_354770800" class="fil10" d="M0.683864 0.0467438c-0.00633097,-0.00532927 -0.0157525,-0.0102772 -0.0243449,-0.0112245 -0.00859235,-0.000947224 -0.0229286,-0.0040658 -0.0111117,0.00364212 0.0118161,0.00770716 0.00950931,0.00746809 0.0188454,0.00989516 0.00933606,0.00242707 0.0166112,-0.00231283 0.0166112,-0.00231283z"/>
     <path id="_354774616" class="fil15" d="M0.671371 0.0421295c-0.00405521,-0.00341288 -0.0100896,-0.00658215 -0.0155921,-0.00718891 -0.00550328,-0.000606768 -0.014685,-0.00260335 -0.00711704,0.0023325 0.00756796,0.00493661 0.00609038,0.00478303 0.0120703,0.00633777 0.00597916,0.00155475 0.0106389,-0.00148136 0.0106389,-0.00148136z"/>
     <path id="_354773728" class="fil12" d="M0.680216 0.0444007c-0.00498352,-0.00419442 -0.0123994,-0.00808999 -0.0191624,-0.00883521 -0.00676297,-0.00074522 -0.0180472,-0.00319953 -0.00874593,0.00286664 0.0093005,0.00606617 0.00748473,0.00587778 0.0148333,0.00778887 0.00734855,0.00191034 0.013075,-0.0018203 0.013075,-0.0018203z"/>
    </g>
    <g>
     <path id="_354772456" class="fil16" d="M0.379378 0.114004c-0.00784183,0.0143408 -0.00184376,0.0220963 0.00449856,0.0257097 0.00634307,0.00361337 0.0231737,0.00929898 0.0376597,0.00293927 0.0144853,-0.00635972 0.0162972,-0.0116784 0.0259079,-0.020671 0.00961069,-0.00899257 0.031297,-0.00157896 0.0187175,-0.0153992 -0.0125802,-0.0138202 -0.00260789,-0.0165295 -0.0246127,-0.0156103 -0.0220056,0.000919231 -0.0234741,-6.12821e-005 -0.028164,0.00305351 -0.00468997,0.00311555 -0.0139549,0.0079644 -0.0211673,0.0121021 -0.00721237,0.00413767 -0.0128397,0.00787588 -0.0128397,0.00787588z"/>
     <path id="_354771232" class="fil17" d="M0.376127 0.124444c-0.00541249,0.0121089 0.000971434,0.0206354 0.00689083,0.0240074 0.00591864,0.00337278 0.022259,0.0133595 0.0362555,0.00721388 0.0139965,-0.00614485 0.0209078,-0.0130137 0.0295538,-0.0174737 0.00864607,-0.00445922 0.0269694,-0.0126181 0.0217756,-0.0274763 -0.00555094,0.0100654 -0.0137416,0.00867103 -0.0201747,0.0134367 -0.00643386,0.00476563 -0.0152411,0.0159833 -0.0292383,0.0221289 -0.0139965,0.00614485 -0.0315958,-0.00290068 -0.0367518,-0.00583768 -0.00515677,-0.00293776 -0.0085863,-0.00913405 -0.00831091,-0.0159992z"/>
     <path id="_354774112" class="fil18" d="M0.380358 0.13351c0.00116966,0.00113485 0.00247625,0.00206846 0.00379797,0.002822 0.00634231,0.00361337 0.0235505,0.0124017 0.0380357,0.00604196 0.014486,-0.00636047 0.0212898,-0.00827081 0.0309005,-0.0172626 0.00735158,-0.00687872 0.0186237,-0.00796742 0.0178906,-0.0142833l-0.000481934 -0.00054019c-0.00487911,-0.00536029 -0.00636501,-0.00904705 -0.00764134,-0.0115014 -0.000555321,-0.000782292 -0.00103726,-0.00151692 -0.00145639,-0.00220388 -0.00187326,-0.00196481 -0.00513937,-0.00233855 -0.015515,-0.00190504 -0.0220056,0.000919231 -0.0234741,-6.12821e-005 -0.028164,0.00305351 -0.00468997,0.00311555 -0.0139549,0.0079644 -0.0211673,0.0121021 -0.00721237,0.00413767 -0.0128397,0.00787588 -0.0128397,0.00787588 -0.00359446,0.00657231 -0.00427991,0.0117593 -0.00335916,0.0158009z"/>
     <path id="_354760504" class="fil19" d="M0.410178 0.144613c0.0101206,-0.0052922 0.011776,-0.00534137 0.0171688,-0.00892373 0.00414524,-0.0027524 0.0299904,-0.0133822 0.038184,-0.0236647 0.00129373,-0.0016236 -0.00173557,-0.00890406 -0.00677507,-0.0139458 -0.00456287,-0.00456513 -0.0111624,-0.00699599 -0.0106048,-0.00727138 0.00251332,-0.00123623 0.00633853,0.000277661 0.00931336,0.00226592 0.00510079,0.00341061 0.00915372,0.0109695 0.00971888,0.0109695 0.0111564,0.0129441 -0.00468013,0.0122625 -0.0140911,0.0210689 -0.00961069,0.00899182 -0.0164145,0.0109022 -0.0309005,0.0172626 -0.00389633,0.0017106 -0.00798861,0.00232418 -0.0120136,0.00223869z"/>
    </g>
    <g>
     <path id="_354771064" class="fil20" d="M0.496236 0.640603c0.00530582,-0.00279628 0.00651708,-0.00390389 0.00963263,-0.00457497 0.00311479,-0.000671076 0.00200491,-0.00136031 -0.00794094,-0.00743102 -0.00994661,-0.00607071 -0.0122193,-0.0124561 -0.0306335,-0.0165552 -0.0184141,-0.00409833 -0.0453767,-0.00785999 -0.0538034,-0.00989365 -0.00842666,-0.00203441 -0.00840094,-0.000578018 -0.0164788,-0.00153281 -0.00807864,-0.000954033 -0.0163888,-0.00193833 -0.015552,0.00384412 0.000836765,0.00578245 0.00390768,0.00809226 0.00390768,0.00809226 0,0 0.0789086,0.005989 0.0968355,0.0203146 0.0179276,0.0143256 0.0140328,0.00773667 0.0140328,0.00773667z"/>
     <g>
      <path id="_354772336" class="fil21" d="M0.477792 0.653593c0.0130334,-0.00376242 0.00920214,-0.0100646 0.00364666,-0.0144807 -0.00555548,-0.00441533 -0.0215758,-0.0142182 -0.0390533,-0.0171385 -0.0174782,-0.0029196 -0.0211468,-0.00106676 -0.0343066,-0.000664267 -0.0131605,0.000402494 -0.0337747,-0.0122715 -0.0249373,-0.000251937 0.00883748,0.0120196 -0.00264799,0.0091908 0.0210364,0.0179125 0.0236851,0.00872172 0.0249236,0.00981496 0.0309285,0.0102424 0.00600488,0.000427461 0.0174389,0.00191185 0.0264595,0.00288934 0.00902057,0.000978243 0.0162261,0.0014912 0.0162261,0.0014912z"/>
      <path id="_354771736" class="fil22" d="M0.455097 0.625747c-0.0124894,-0.0016236 -0.0142651,-0.00229013 -0.0211695,-0.0027819 -0.00530733,-0.000377528 -0.0362548,-0.00593906 -0.0483319,-0.0043132 -0.00190731,0.000257233 -0.00107508,0.00508868 0.00262756,0.00966138 0.0033516,0.00413994 0.00956757,0.00808318 0.00888514,0.00798482 -0.00307621,-0.000441079 -0.00664419,-0.00277736 -0.00915372,-0.0049926 -0.00430185,-0.00379797 -0.00613123,-0.00919382 -0.00673195,-0.00942911 -0.00761184,-0.0109967 0.00899333,-0.00406126 0.02188,-0.00445619 0.0131598,-0.000402494 0.0210167,0.00149649 0.0384942,0.00441685 0.00470132,0.000785318 0.00925056,0.00219027 0.0135002,0.00390995z"/>
      <path id="_354772072" class="fil23" d="M0.487556 0.649274c0.0100608,-0.00380932 0.00593225,-0.0108893 0.000567426,-0.0151541 -0.00536558,-0.00426402 -0.0199469,-0.0163805 -0.0374252,-0.0193008 -0.0174775,-0.0029196 -0.0274082,-0.00241572 -0.0384299,-0.00388271 -0.0110209,-0.00146699 -0.0339397,-0.00523167 -0.0332686,0.00454849 0.00951915,-0.00271305 0.0180532,0.00152827 0.0267455,0.00188537 0.00869146,0.0003571 0.0221841,-0.00153583 0.0396616,0.00138452 0.0174775,0.0029196 0.0337634,0.0151019 0.0384375,0.0188166 0.00467408,0.00371475 0.00634383,0.00833814 0.00371173,0.0117026z"/>
     </g>
    </g>
    <g>
     <path id="_354772120" class="fil17" d="M0.77549 0.507737c0.00622883,-0.0139345 -0.00111745,-0.0237457 -0.00792884,-0.0276261 -0.00681063,-0.00388044 -0.0256136,-0.0153727 -0.0417195,-0.00830107 -0.0161066,0.00707165 -0.0240589,0.0149755 -0.0340078,0.0201073 -0.00994963,0.0051318 -0.0310344,0.0145201 -0.0250576,0.0316178 0.00638771,-0.0115831 0.0158123,-0.00997763 0.0232153,-0.015462 0.00740302,-0.00548361 0.017538,-0.0183922 0.0336446,-0.0254638 0.0161058,-0.00707165 0.0363577,0.00333798 0.0422907,0.00671757 0.00593377,0.00338035 0.00988003,0.0105103 0.00956303,0.0184103z"/>
     <path id="_354770944" class="fil24" d="M0.770623 0.497305c-0.00134594,-0.00130659 -0.00284924,-0.00238016 -0.00436994,-0.00324719 -0.00729937,-0.0041581 -0.0271003,-0.0142712 -0.043769,-0.00695287 -0.0166687,0.00731904 -0.0244984,0.00951688 -0.0355572,0.0198645 -0.00845919,0.00791522 -0.0214306,0.0091681 -0.020587,0.0164357l0.000555321 0.000621143c0.00561374,0.0061683 0.00732434,0.0104111 0.00879208,0.0132354 0.0006393,0.000900317 0.00119387,0.00174465 0.00167656,0.00253526 0.00215546,0.00226138 0.00591334,0.00269111 0.0178535,0.00219254 0.0253216,-0.00105768 0.027011,7.11174e-005 0.0324084,-0.0035135 0.0053966,-0.00358462 0.0160574,-0.00916432 0.0243562,-0.0139262 0.00829956,-0.00476109 0.0147758,-0.00906294 0.0147758,-0.00906294 0.0041354,-0.00756266 0.0049245,-0.0135312 0.00386531,-0.0181819z"/>
     <path id="_354772216" class="fil19" d="M0.736308 0.484529c-0.0116459,0.00608886 -0.0135517,0.00614561 -0.019757,0.0102674 -0.00476941,0.00316851 -0.0345101,0.0154 -0.0439385,0.0272319 -0.00148817,0.00186797 0.00199734,0.0102455 0.00779644,0.0160468 0.00525059,0.00525361 0.012845,0.0080514 0.0122027,0.00836765 -0.00289161,0.00142311 -0.00729332,-0.000319272 -0.0107168,-0.00260714 -0.00586946,-0.00392432 -0.0105337,-0.0126226 -0.0111836,-0.0126226 -0.0128382,-0.0148946 0.00538526,-0.0141108 0.0162148,-0.0242442 0.0110588,-0.0103476 0.0188885,-0.0125454 0.0355572,-0.0198645 0.00448343,-0.00196783 0.00919231,-0.00267447 0.0138248,-0.00257536z"/>
    </g>
   </g>
   <path class="fil25" d="M1.01297 0.180241c-0.0735362,0.233226 -0.814678,0.462738 -0.980884,0.319289 0.0767546,0.224324 1.02678,-0.0741528 0.980884,-0.319289z"/>
   <g>
    <path class="fil26" d="M1.0518 0.173433c-0.078556,0.249146 -0.870288,0.494325 -1.04784,0.341084 0.0819939,0.239637 1.09686,-0.0792142 1.04784,-0.341084z"/>
    <path id="1" class="fil2" d="M0.00368752 0.51461l0.000458481 -0.00031095 0.0183642 0.0131817 0.0217241 0.0109309 0.0248412 0.00874745 0.0277169 0.00663435 0.0303467 0.00459237 0.0327329 0.00262075 0.0348778 0.000720253 0.036776 -0.00110686 0.0384322 -0.00286437 0.0398454 -0.00454849 0.0410151 -0.00615922 0.0419396 -0.00770036 0.0426228 -0.00916658 0.0430631 -0.0105632 0.0432591 -0.0118857 0.0432114 -0.0131371 0.0429232 -0.014315 0.0423883 -0.0154219 0.0416128 -0.0164561 0.0405937 -0.0174177 0.0393302 -0.0183074 0.0378254 -0.0191245 0.0360762 -0.019869 0.0340834 -0.0205416 0.0318493 -0.0211416 0.0293692 -0.0216689 0.0266486 -0.0221228 0.0236829 -0.0225041 0.020475 -0.0228113 0.0170235 -0.0230466 0.0133315 -0.023207 0.00939734 -0.023294 0.000547756 0.000175524 -0.00942911 0.0233742 -0.0133678 0.023269 -0.0170599 0.023095 -0.0205083 0.0228491 -0.0237131 0.0225329 -0.0266743 0.0221455 -0.029395 0.021687 -0.0318705 0.0211552 -0.0341046 0.0205537 -0.0360944 0.0198796 -0.037842 0.0191336 -0.0393469 0.018315 -0.0406088 0.0174238 -0.0416279 0.0164622 -0.0424034 0.0154279 -0.0429368 0.0143196 -0.0432265 0.0131416 -0.0432742 0.0118902 -0.0430783 0.0105662 -0.0426394 0.00917112 -0.0419578 0.00770338 -0.0410333 0.00616225 -0.0398666 0.00455 -0.0384564 0.00286588 -0.0368033 0.00110837 -0.0349081 -0.000721766 -0.0327708 -0.00262378 -0.0303906 -0.00459842 -0.0277683 -0.00664645 -0.0249032 -0.00877014 -0.0217967 -0.0109672 -0.0184444 -0.0132407 0.000458481 -0.00031095 -0.000543216 0.000186116zm1.04784 -0.341265l0.000556078 3.55587e-005 0.00154491 0.0247678 -0.00433892 0.0249819 -0.00984977 0.0250772 -0.0149891 0.0250613 -0.0197593 0.0249327 -0.0241633 0.0246967 -0.0282011 0.0243494 -0.0318735 0.0238909 -0.0351797 0.0233205 -0.0381227 0.0226388 -0.0406989 0.0218444 -0.0429095 0.020938 -0.0447556 0.0199189 -0.0462354 0.0187864 -0.0473506 0.0175426 -0.0481004 0.016186 -0.0484839 0.014716 -0.0485029 0.013134 -0.0481556 0.0114401 -0.0474421 0.00963187 -0.0463655 0.0077117 -0.0449228 0.00567805 -0.0431138 0.00353242 -0.040941 0.00127482 -0.0384034 -0.00109854 -0.0354997 -0.00358311 -0.0322328 -0.00618192 -0.0286021 -0.00889725 -0.0246051 -0.0117283 -0.020242 -0.0146767 -0.0155051 -0.0177415 -0.010393 -0.0209161 0.000543216 -0.000186116 0.0103249 0.0207814 0.0154143 0.0176356 0.0201467 0.0146071 0.0245219 0.0116875 0.0285325 0.00887455 0.0321769 0.00617133 0.0354543 0.00357857 0.0383656 0.00109702 0.0409092 -0.0012733 0.0430881 -0.00353091 0.0448986 -0.00567502 0.0463444 -0.00770868 0.047424 -0.00962734 0.0481374 -0.0114355 0.0484862 -0.0131295 0.0484673 -0.0147115 0.0480837 -0.01618 0.047334 -0.0175365 0.0462188 -0.0187803 0.0447374 -0.0199114 0.0428914 -0.0209274 0.0406777 -0.0218338 0.0381 -0.0226252 0.0351555 -0.0233038 0.0318447 -0.0238697 0.0281678 -0.0243207 0.0241255 -0.0246573 0.0197184 -0.0248813 0.0149453 -0.0249872 0.00981194 -0.0249789 0.00431774 -0.0248578 -0.00153583 -0.0246286 0.000556078 3.55587e-005 -0.000547756 -0.000175524z"/>
   </g>
  </g>
 </g>
</svg>
