<?xml version="1.0" encoding="UTF-8" standalone="no"?>
<!-- Creator: CorelDRAW -->

<svg
   xmlns:dc="http://purl.org/dc/elements/1.1/"
   xmlns:cc="http://creativecommons.org/ns#"
   xmlns:rdf="http://www.w3.org/1999/02/22-rdf-syntax-ns#"
   xmlns:svg="http://www.w3.org/2000/svg"
   xmlns="http://www.w3.org/2000/svg"
   xmlns:xlink="http://www.w3.org/1999/xlink"
   xmlns:sodipodi="http://sodipodi.sourceforge.net/DTD/sodipodi-0.dtd"
   xmlns:inkscape="http://www.inkscape.org/namespaces/inkscape"
   xml:space="preserve"
   width="5.48283in"
   height="5.48283in"
   style="fill-rule:evenodd"
   viewBox=""
   id="svg11227"
   version="1.1"
   inkscape:version="0.48.3.1 r9886"
   sodipodi:docname="player20.svg">
  <metadata
     id="metadata3960">
    <rdf:RDF>
      <cc:Work
         rdf:about="">
        <dc:format>image/svg+xml</dc:format>
        <dc:type
           rdf:resource="http://purl.org/dc/dcmitype/StillImage" />
        <dc:title></dc:title>
        <cc:license
           rdf:resource="http://www.gnu.org/licenses/gpl-3.0.html" />
        <dc:creator>
          <cc:Agent>
            <dc:title>Abhash Bikram Thapa</dc:title>
          </cc:Agent>
        </dc:creator>
        <dc:description>http://pixelpinch.com</dc:description>
      </cc:Work>
    </rdf:RDF>
  </metadata>
   pagecolor="#ffffff"
   bordercolor="#666666"
   borderopacity="1"
   objecttolerance="10"
   gridtolerance="10"
   guidetolerance="10"
   inkscape:pageopacity="0"
   inkscape:pageshadow="2"
   inkscape:window-width="1366"
   inkscape:window-height="713"
   id="namedview11356"
   showgrid="false"
   inkscape:zoom="0.49662555"
   inkscape:cx="246.72736"
   inkscape:cy="374.0806"
   inkscape:window-x="-2"
   inkscape:window-y="-3"
   inkscape:window-maximized="1"
   inkscape:current-layer="svg11227" />
 <defs
   id="defs11229">
  <style
   type="text/css"
   id="style11231">
   
    .fil21 {fill:#057265}
    .fil14 {fill:#05796D}
    .fil18 {fill:#068071}
    .fil4 {fill:#068C7F}
    .fil17 {fill:#086D62}
    .fil10 {fill:#096C62}
    .fil19 {fill:#0A7C71}
    .fil24 {fill:#0B6960}
    .fil22 {fill:#0B6D63}
    .fil13 {fill:#0D8A7D}
    .fil16 {fill:#0EB4A3}
    .fil12 {fill:#11B5A6}
    .fil11 {fill:#14D1BE}
    .fil23 {fill:#17544E}
    .fil20 {fill:#204540}
    .fil15 {fill:#3AF5E3}
    .fil2 {fill:#99CCCC;fill-rule:nonzero}
    .fil8 {fill:#14D1BE;fill-opacity:0.501961}
    .fil7 {fill:url(#id0)}
    .fil9 {fill:url(#id1)}
    .fil3 {fill:url(#id2)}
    .fil5 {fill:url(#id3)}
    .fil26 {fill:url(#id4)}
    .fil25 {fill:url(#id5)}
    .fil6 {fill:url(#id6)}
    .fil1 {fill:url(#id7)}
    .fil0 {fill:url(#id8)}
  </style>
  <linearGradient
   id="id0"
   gradientUnits="userSpaceOnUse"
   x1="0.304831"
   y1="0.32997799"
   x2="0.63568097"
   y2="0.0053996299">
   <stop
   offset="0"
   style="stop-color:#2E2E2E"
   id="stop11234" />
   <stop
   offset="1"
   style="stop-color:#07A090"
   id="stop11236" />
  </linearGradient>
  <linearGradient
   id="id1"
   gradientUnits="userSpaceOnUse"
   x1="0.41769901"
   y1="0.50416702"
   x2="0.63639402"
   y2="0.12782399">
   <stop
   offset="0"
   style="stop-color:#2E2E2E"
   id="stop11239" />
   <stop
   offset="1"
   style="stop-color:#05786C"
   id="stop11241" />
  </linearGradient>
  <linearGradient
   id="id2"
   gradientUnits="userSpaceOnUse"
   x1="0.31489599"
   y1="0.58309197"
   x2="0.74069297"
   y2="0.081959099">
   <stop
   offset="0"
   style="stop-color:#2E2E2E"
   id="stop11244" />
   <stop
   offset="0.2"
   style="stop-color:#263A36"
   id="stop11246" />
   <stop
   offset="0.678431"
   style="stop-color:#06887B"
   id="stop11248" />
   <stop
   offset="1"
   style="stop-color:#08AA9A"
   id="stop11250" />
  </linearGradient>
  <linearGradient
   id="id3"
   gradientUnits="userSpaceOnUse"
   xlink:href="#id0"
   x1="0.46179801"
   y1="0.60547602"
   x2="0.67646301"
   y2="0.296114">
  </linearGradient>
  <linearGradient
   id="id4"
   gradientUnits="userSpaceOnUse"
   x1="0.185847"
   y1="0.59911102"
   x2="1.0827"
   y2="0.334445">
   <stop
   offset="0"
   style="stop-color:#257870"
   id="stop11254" />
   <stop
   offset="0.458824"
   style="stop-color:#73D4CA"
   id="stop11256" />
   <stop
   offset="1"
   style="stop-color:#92EBE2"
   id="stop11258" />
  </linearGradient>
  <linearGradient
   id="id5"
   gradientUnits="userSpaceOnUse"
   x1="0.27093899"
   y1="0.58136201"
   x2="0.920205"
   y2="0.161507">
   <stop
   offset="0"
   style="stop-color:#11524C"
   id="stop11261" />
   <stop
   offset="0.529412"
   style="stop-color:#A4F2EA"
   id="stop11263" />
   <stop
   offset="1"
   style="stop-color:#54B0A7"
   id="stop11265" />
  </linearGradient>
  <linearGradient
   id="id6"
   gradientUnits="userSpaceOnUse"
   xlink:href="#id1"
   x1="0.53198302"
   y1="0.64971101"
   x2="0.68217999"
   y2="0.481511">
  </linearGradient>
  <linearGradient
   id="id7"
   gradientUnits="userSpaceOnUse"
   x1="0.31605199"
   y1="0.38341299"
   x2="1.00769"
   y2="0.17175999">
   <stop
   offset="0"
   style="stop-color:#012B27"
   id="stop11269" />
   <stop
   offset="0.678431"
   style="stop-color:#006B60"
   id="stop11271" />
   <stop
   offset="1"
   style="stop-color:#80CFC7"
   id="stop11273" />
  </linearGradient>
  <linearGradient
   id="id8"
   gradientUnits="userSpaceOnUse"
   x1="0.32084501"
   y1="0.28338"
   x2="0.92775398"
   y2="0.039790198">
   <stop
   offset="0"
   style="stop-color:#00453E"
   id="stop11276" />
   <stop
   offset="1"
   style="stop-color:#80CFC7"
   id="stop11278" />
  </linearGradient>
 <linearGradient
   inkscape:collect="always"
   xlink:href="#id0"
   id="linearGradient11360"
   gradientUnits="userSpaceOnUse"
   x1="0.304831"
   y1="0.32997799"
   x2="0.63568097"
   y2="0.0053996299" /><linearGradient
   inkscape:collect="always"
   xlink:href="#id1"
   id="linearGradient11362"
   gradientUnits="userSpaceOnUse"
   x1="0.41769901"
   y1="0.50416702"
   x2="0.63639402"
   y2="0.12782399" /></defs>
 <g
   id="Layer_x0020_1"
   transform="matrix(468.51655,0,0,467.70726,-7.3542945e-4,96.652313)">
  <metadata
   id="CorelCorpID_0Corel-Layer" />
  <g
   id="_347214408">
   <path
   id="_354750664"
   class="fil0"
   d="M 1.0518,0.173433 C 0.841637,0.018269 0.057285,0.286122 0.00396,0.514517 -0.0708192,0.272532 0.93728,-0.067116 1.0518,0.173433 z"
   inkscape:connector-curvature="0"
   style="fill:url(#id8)" />
   <g
   id="g11284">
    <path
   id="_354671200"
   class="fil1"
   d="M 1.01297,0.180241 C 0.816423,0.03513 0.082893,0.285629 0.033023,0.499225 -0.0369112,0.272919 0.905869,-0.044722 1.01297,0.180241 z"
   inkscape:connector-curvature="0"
   style="fill:url(#id7)" />
    <path
   id="_3546712001"
   class="fil2"
   d="m 0.0327488,0.49931 5.4776e-4,-1.6947e-4 -5.5306e-4,1.816e-5 0.0066563,-0.0201663 0.0104414,-0.0202927 0.0140011,-0.0203419 0.0173345,-0.0203139 0.0204455,-0.0202072 0.0233311,-0.0200249 0.0259942,-0.0197638 0.0284349,-0.0194234 0.0306516,-0.0190042 0.0326452,-0.0185072 0.034414,-0.0179299 0.035962,-0.0172755 0.0372852,-0.0165409 0.0383853,-0.0157268 0.0392606,-0.0148333 0.039915,-0.0138626 0.0403448,-0.0128102 0.0405506,-0.0116807 0.0405347,-0.0104709 0.0402933,-0.009183 0.0398296,-0.007815 0.0391433,-0.006368 0.0382324,-0.004841 0.0370983,-0.003236 0.0357418,-0.001551 0.0341621,2.1335e-4 0.0323592,0.002058 0.0303331,0.003981 0.0280853,0.005984 0.0256121,0.008069 0.0229187,0.0102341 0.0199984,0.0124811 -3.389e-4,4.6453e-4 -0.0199258,-0.0124357 -0.0228522,-0.0102054 -0.0255561,-0.008051 -0.0280354,-0.005974 -0.0302922,-0.003975 -0.0323244,-0.002055 -0.0341318,-2.1335e-4 -0.0357146,0.001549 -0.0370756,0.003234 -0.0382113,0.004838 -0.0391237,0.006365 -0.0398129,0.007812 -0.0402767,0.009179 -0.040518,0.0104664 -0.0405369,0.0116776 -0.0403296,0.0128057 -0.0398999,0.0138566 -0.039247,0.0148287 -0.0383701,0.0157207 -0.0372701,0.0165333 -0.0359453,0.0172679 -0.0343974,0.0179208 -0.032627,0.0184966 -0.0306304,0.0189921 -0.0284122,0.0194083 -0.02597,0.0197442 -0.0233038,0.0200006 -0.0204137,0.0201769 -0.0172997,0.020273 -0.0139632,0.0202874 -0.0104051,0.0202201 -0.006626,0.0200725 -5.5305e-4,1.816e-5 z m 0.980051,-0.318836 3.389e-4,-4.6453e-4 -4.282e-4,3.5558e-4 -0.012396,-0.0194612 -0.0169449,-0.0164122 -0.0211658,-0.0134805 -0.025053,-0.0106616 -0.0286021,-0.007955 -0.0318122,-0.00536 -0.0346834,-0.00288 -0.0372133,-5.1371e-4 -0.0394059,0.001735 -0.0412572,0.003869 -0.0427726,0.005887 -0.043946,0.00779 -0.0447828,0.009575 -0.0452799,0.0112464 -0.0454388,0.0127996 -0.0452587,0.0142386 -0.0447404,0.0155596 -0.0438825,0.0167656 -0.0426879,0.0178543 -0.041152,0.0188287 -0.0392795,0.0196859 -0.0370681,0.0204251 -0.0345177,0.0210508 -0.0316268,0.0215584 -0.0284008,0.0219488 -0.0248321,0.0222227 -0.0209282,0.0223778 -0.0166831,0.0224149 -0.0121036,0.0223324 -0.0071889,0.0221304 -0.0019436,0.0218134 0.003633,0.0213905 -5.4775e-4,1.6947e-4 -0.0036588,-0.0215388 0.0019557,-0.0219541 0.0072237,-0.0222424 0.0121475,-0.0224141 0.016727,-0.0224739 0.020966,-0.0224202 0.0248669,-0.022253 0.0284296,-0.0219715 0.0316541,-0.0215766 0.0345404,-0.0210644 0.0370877,-0.0204372 0.0392992,-0.019695 0.0411702,-0.0188363 0.0427045,-0.0178618 0.0438991,-0.0167716 0.0447556,-0.0155656 0.0452753,-0.0142432 0.0454554,-0.0128042 0.045298,-0.0112509 0.044801,-0.00958 0.0439672,-0.007793 0.0427953,-0.00589 0.0412844,-0.003872 0.0394361,-0.001736 0.0372497,5.1523e-4 0.0347257,0.002883 0.0318652,0.005369 0.0286671,0.007973 0.0251302,0.0106949 0.021255,0.013538 0.0170357,0.0165015 0.01247,0.0195792 -4.283e-4,3.5558e-4 z"
   inkscape:connector-curvature="0"
   style="fill:#99cccc;fill-rule:nonzero" />
   </g>
   <g
   id="_358873952">
    <g
   id="g11289">
     <ellipse
   id="_358874720"
   class="fil3"
   cx="0.527794"
   cy="0.33252501"
   rx="0.32297099"
   ry="0.324839"
   sodipodi:cx="0.527794"
   sodipodi:cy="0.33252501"
   sodipodi:rx="0.32297099"
   sodipodi:ry="0.324839"
   style="fill:url(#id2)"
   d="m 0.85076499,0.33252501 c 0,0.17940363 -0.14459904,0.324839 -0.32297099,0.324839 -0.17837195,0 -0.32297098,-0.14543537 -0.32297098,-0.324839 0,-0.17940362 0.14459903,-0.32483899 0.32297098,-0.32483899 0.17837195,0 0.32297099,0.14543537 0.32297099,0.32483899 z" />
     <path
   id="_358874912"
   class="fil4"
   d="M 0.288256,0.545696 C 0.3700456,0.4921317 0.3120092,0.4790325 0.388772,0.4846477 0.465535,0.49026371 0.471151,0.4958903 0.510472,0.4434586 0.5497931,0.3910269 0.5703877,0.4004008 0.622808,0.3779269 0.6752291,0.355453 0.671957,0.3386058 0.7110405,0.3386058 c 0.0390836,0 0.0559301,0 0.0858887,0 0.0299578,0 0.0540054,-0.0241724 0.0540054,-0.0241724 0,0 -0.001766,0.0590555 -0.005774,0.0768764 -0.004008,0.0178202 -0.0559535,-2.8296e-4 -0.0950364,-2.8296e-4 -0.0390836,0 -0.0262219,0.003747 -0.104853,0.0393211 -0.0786317,0.0355731 -0.0917423,0.0262212 -0.123568,0.0542997 -0.0318266,0.0280785 0.005604,0.0355625 -0.0543004,0.0486731 -0.0599043,0.0131113 -0.0543004,0.003759 -0.0823782,0.0168586 -0.0280785,0.0131 -0.0624979,0.0285544 -0.0624979,0.0285544 l -0.034271,-0.0330378 z"
   inkscape:connector-curvature="0"
   style="fill:#068c7f" />
     <path
   id="_358875104"
   class="fil5"
   d="M 0.287791,0.549907 C 0.3695806,0.4963427 0.3115442,0.4832435 0.388307,0.4888587 0.46507,0.49447471 0.470686,0.5001013 0.510007,0.4476696 0.5493281,0.3952371 0.5699227,0.4046118 0.622344,0.3821379 0.6747644,0.359664 0.6714922,0.3428168 0.7105758,0.3428168 c 0.0390836,0 0.0559308,0 0.0858887,0 0.0299578,0 0.0540061,-0.0241724 0.0540061,-0.0241724 0,0 -0.001767,0.0590555 -0.005775,0.0768764 -0.004008,0.0178202 -0.0559528,-2.8371e-4 -0.0950364,-2.8371e-4 -0.0390836,0 -0.0262219,0.003748 -0.104853,0.0393219 -0.0786309,0.0355731 -0.0917415,0.0262212 -0.123568,0.0542997 -0.0318258,0.0280785 0.005605,0.0355625 -0.0542997,0.0486731 -0.0599051,0.0131113 -0.0543004,0.003759 -0.082379,0.0168586 -0.0280785,0.0130992 -0.0624971,0.0285544 -0.0624971,0.0285544 L 0.2877906,0.54990699 z"
   inkscape:connector-curvature="0"
   style="fill:url(#id3)" />
     <path
   id="_358875152"
   class="fil6"
   d="M 0.3992,0.630599 C 0.4463441,0.62365824 0.4351241,0.6086797 0.504392,0.5937004 0.5736604,0.5787219 0.616717,0.5824805 0.635444,0.5543906 0.6541706,0.5263007 0.62772246,0.5244328 0.6691499,0.5244328 c 0.0414267,0 0.0786309,-0.0206059 0.102973,-0.0280899 0.0243426,-0.007484 0.0428543,-0.0150353 0.0428543,-0.0150353 0,0 -0.0882779,0.108623 -0.1044,0.119073 C 0.6944547,0.6108311 0.6504239,0.60118483 0.6185974,0.6030646 0.5867716,0.6049436 0.5268559,0.6236705 0.5156244,0.6255392 0.5043924,0.6274072 0.4586291,0.6499037 0.4586291,0.6499037 L 0.3992006,0.63059945 z"
   inkscape:connector-curvature="0"
   style="fill:url(#id6)" />
     <path
   id="_358875176"
   class="fil7"
   d="M 0.279719,0.176181 C 0.3171608,0.1275072 0.3321394,0.1218919 0.3789445,0.1012974 c 0.0468051,-0.0205946 0.076763,-0.0411899 0.1217,-0.0393211 0.0449371,0.001868 0.10594,0.0213299 0.138003,0.0213299 0.0117752,0 0.0217839,-0.0067478 0.0335584,-0.0256439 0.008288,-0.0132808 0.0634935,0.0262673 0.0634935,0.0262673 0,0 -0.0502808,-0.0506999 -0.127168,-0.0658941 C 0.5316436,0.0028413 0.5115582,0.0058759 0.4852914,0.0104721 0.4590241,0.015069 0.3989495,0.0317234 0.3741884,0.0467027 0.3494274,0.061682 0.2312934,0.1478867 0.2180584,0.2402067 0.204823,0.33252618 0.279718,0.17618128 0.279718,0.17618128 z"
   inkscape:connector-curvature="0"
   style="fill:url(#linearGradient11360)" />
     <path
   id="_358875368"
   class="fil8"
   d="M 0.350231,0.0633339 C 0.356266,0.0591334 0.420688,0.0265715 0.474241,0.0215789 0.527794,0.0165855 0.5500303,0.0154537 0.5679753,0.0190769 0.5859211,0.0226994 0.6059838,0.00923773 0.6239856,0.0312365 c 0.0180018,0.0219987 0.0133254,0.0173224 0.006771,0.031362 -0.006556,0.0140389 -0.0182401,0.0115369 0.002808,0.019179 0.0210477,0.0076429 0.0486731,0 0.0486731,0 0,0 -9.2831e-4,-0.0234022 0.015919,0 C 0.715004,0.1051804 0.6841171,0.0995644 0.7224985,0.112675 0.76088,0.1257863 0.7468411,0.107048 0.7468411,0.1445016 c 0,0.0374532 0.0464881,0.0321315 0.0438386,0.0474278 -0.002649,0.0152955 -0.041031,-0.0155906 -0.017628,0.0321542 0.0234022,0.0477448 0.003747,0.0224739 0.0234022,0.0477448 0.0196549,0.0252709 0.0299465,0.004834 0.0421288,0.0327655 0.0110391,0.0253163 0.0115604,0.0445861 0.011549,0.0479831 4.0703e-4,-0.006635 6.34e-4,-0.0133149 6.34e-4,-0.0200513 0,-0.179408 -0.144604,-0.324839 -0.322971,-0.324839 -0.0345661,0 -0.0678642,0.00547983 -0.0990787,0.0155906 -0.0284863,0.0102349 -0.0550812,0.02381 -0.0784842,0.0400565 z"
   inkscape:connector-curvature="0"
   style="fill:#14d1be;fill-opacity:0.50196078" />
     <path
   id="_358875560"
   class="fil4"
   d="M 0.227297,0.379783 C 0.2684869,0.3011521 0.2141864,0.252479 0.341502,0.254347 0.468818,0.25621497 0.451971,0.2225098 0.543713,0.2150259 0.6354545,0.20754192 0.67104,0.21128996 0.734691,0.2019267 0.7983434,0.19256341 0.8057706,0.1607255 0.8178629,0.1913521 c 0.006805,0.0172089 0.0135524,0.0346221 0.0158395,0.0424571 0.001777,0.006091 0.002853,0.003827 -0.0134737,0.008118 -0.037317,0.009827 -0.0314861,0.0142878 -0.0724377,0.0142878 -0.0409515,0 0.003747,-0.001868 -0.076763,-0.001868 -0.080511,0 -0.0926706,-0.004698 -0.119821,0.0336945 -0.0271502,0.0383928 -1.135e-5,0.0524317 -0.119831,0.0524317 -0.119821,0 -0.0973462,-0.0355731 -0.134799,0.0149793 -0.0374532,0.0505524 -0.0674337,0.103619 -0.0674337,0.103619 0,0 -0.0190776,-0.0562705 -0.001846,-0.0792884 z"
   inkscape:connector-curvature="0"
   style="fill:#068c7f" />
     <path
   id="_358875752"
   class="fil9"
   d="M 0.231034,0.385874 C 0.2722231,0.3072431 0.2179234,0.25857 0.345239,0.260438 0.472554,0.262307 0.455707,0.2286008 0.547449,0.2211169 0.6391913,0.2136329 0.674776,0.2173809 0.738428,0.2080177 0.8020804,0.1986547 0.8095076,0.1668172 0.8215991,0.1974431 c 0.006805,0.0172089 0.0135524,0.0346221 0.0158395,0.0424571 0.001777,0.006091 0.002853,0.003827 -0.013473,0.008118 -0.0373177,0.009827 -0.0314869,0.0142886 -0.0724384,0.0142886 -0.0409515,0 0.003748,-0.001869 -0.076763,-0.001869 -0.0805102,0 -0.0926698,-0.004698 -0.11982,0.0336945 -0.0271502,0.0383928 -1.135e-5,0.0524317 -0.119832,0.0524317 -0.11982,0 -0.0973462,-0.0355731 -0.134799,0.0149793 -0.0374532,0.0505524 -0.0674337,0.103619 -0.0674337,0.103619 0,0 -0.0190776,-0.0562705 -0.001845,-0.0792884 z"
   inkscape:connector-curvature="0"
   style="fill:url(#linearGradient11362)" />
    </g>
    <g
   id="g11299">
     <g
   id="g11301">
      <path
   id="_358876208"
   class="fil10"
   d="M 0.518457,0.0129903 C 0.513151,0.0157858 0.511941,0.0168942 0.508825,0.0175645 0.505709,0.01823558 0.50682,0.0189256 0.516766,0.0249963 0.526712,0.031067 0.5289846,0.0374517 0.5473987,0.0415508 c 0.0184141,0.0040983 0.0453775,0.00786 0.0538041,0.0098936 0.008427,0.0020344 0.0084,5.7802e-4 0.0164788,0.0015328 0.008078,9.5403e-4 0.0163888,0.0019383 0.015552,-0.0038441 -8.3752e-4,-0.0057817 -0.003908,-0.0080923 -0.003908,-0.0080923 0,0 -0.0789078,-0.005989 -0.0968355,-0.0203146 C 0.5145625,0.0064006 0.5184573,0.0129903 0.5184573,0.0129903 z"
   inkscape:connector-curvature="0"
   style="fill:#096c62" />
      <g
   id="g11304">
       <path
   id="_358876808"
   class="fil11"
   d="M 0.536902,0 C 0.5238678,0.00376242 0.527699,0.0100654 0.533255,0.0144807 0.53881,0.018896 0.5548316,0.0286989 0.5723091,0.0316192 0.5897866,0.0345388 0.5934552,0.0326867 0.6066157,0.03228347 0.6197755,0.03188097 0.6403904,0.04455497 0.631553,0.0325354 0.6227151,0.0205158 0.63420057,0.0233446 0.61051548,0.0146229 0.58683108,0.00590118 0.58559188,0.00480794 0.57958698,0.0043805 0.5735821,0.00395304 0.56214888,0.00246865 0.55312828,0.00149116 0.54410771,5.13677e-4 0.53690218,-3.6e-8 0.53690218,-3.6e-8 z"
   inkscape:connector-curvature="0"
   style="fill:#14d1be" />
       <path
   id="_358877000"
   class="fil12"
   d="m 0.531548,0.00997233 c 8.7081e-4,0.00104406 0.001953,0.00204652 0.003111,0.00296651 0.005555,0.0044161 0.0209592,0.015897 0.0384375,0.0188174 0.0174775,0.0029196 0.0253337,0.0048193 0.0384942,0.0044161 0.0100661,-3.0792e-4 0.0224012,0.003857 0.0236927,4.547e-4 l -3.3592e-4,-4.6605e-4 c -0.003426,-0.0046612 -0.003797,-0.0070891 -0.004349,-0.0088239 -3.344e-4,-6.1509e-4 -6.0525e-4,-0.0011757 -8.2541e-4,-0.0016871 -0.001347,-0.0017447 -0.004695,-0.0032888 -0.0158622,-0.0074015 C 0.59022602,0.00952674 0.58898752,0.0084335 0.58298262,0.00800606 0.57697774,0.0075786 0.56554372,0.00609421 0.55652312,0.00511672 c -0.009021,-9.7748e-4 -0.0162261,-0.0014912 -0.0162261,-0.0014912 -0.005973,0.00172422 -0.008402,0.00398182 -0.008749,0.00634685 z"
   inkscape:connector-curvature="0"
   style="fill:#11b5a6" />
       <path
   id="_358877120"
   class="fil13"
   d="M 0.559597,0.0278455 C 0.5720857,0.0294699 0.5738613,0.0301356 0.5807665,0.0306274 0.5860735,0.03100493 0.6170213,0.0365665 0.6290984,0.0349406 0.6310054,0.03468412 0.6301724,0.0298519 0.6264704,0.02528 0.6231184,0.0211393 0.6169024,0.0171968 0.6175854,0.0172944 c 0.003075,4.4108e-4 0.006644,0.0027781 0.009154,0.0049926 0.004302,0.003798 0.006131,0.0091938 0.006731,0.0094291 0.007613,0.0109967 -0.008993,0.004062 -0.0218792,0.0044562 C 0.5984307,0.03657555 0.5905745,0.0346758 0.573097,0.0317562 0.568396,0.03097013 0.563846,0.0295652 0.5595968,0.0278455 z"
   inkscape:connector-curvature="0"
   style="fill:#0d8a7d" />
       <path
   id="_358877336"
   class="fil14"
   d="m 0.527138,0.00431925 c -0.0100608,0.00380932 -0.005933,0.0108893 -5.6743e-4,0.0151541 0.005365,0.004264 0.0199469,0.0163812 0.0374244,0.0193008 0.0174782,0.0029196 0.0274082,0.0024157 0.0384299,0.0038827 0.0110217,0.001467 0.0339404,0.0052317 0.0332693,-0.0045485 -0.009519,0.002713 -0.0180532,-0.0015275 -0.0267455,-0.0018846 -0.008692,-3.5786e-4 -0.0221841,0.0015351 -0.0396616,-0.0013845 -0.0174782,-0.0029204 -0.0337634,-0.0151026 -0.0384375,-0.0188174 -0.004674,-0.0037147 -0.006345,-0.00833814 -0.003712,-0.0117026 z"
   inkscape:connector-curvature="0"
   style="fill:#05796d" />
      </g>
     </g>
     <path
   id="_358876016"
   class="fil15"
   d="m 0.528108,0.006853 c 0,0 0.001244,-0.00266236 0.005019,-0.00475806 C 0.53690236,0 0.54174364,-3.692e-4 0.54559608,9.0107e-4 c 0.003852,0.00127104 0.0104157,0.00157442 0.0132884,0.00200642 0.002873,4.3276e-4 0.020761,0.00128087 0.022952,0.00170152 0.002192,4.2065e-4 0.006336,0.00169623 0.006336,0.00169623 0,0 -0.0453881,-0.00484128 -0.0508785,-0.0024528 -0.00549,0.00238773 -0.009186,0.00300055 -0.009186,0.00300055 z"
   inkscape:connector-curvature="0"
   style="fill:#3af5e3" />
    </g>
    <g
   id="g11311">
     <path
   id="_358877360"
   class="fil10"
   d="M 0.782588,0.169101 C 0.7647035,0.1536534 0.7396232,0.1422769 0.7185853,0.1457889 0.6975482,0.1493009 0.6616573,0.1491709 0.6938841,0.1692849 0.7261117,0.1893983 0.7204707,0.1904007 0.7440491,0.1920296 0.7676268,0.1936586 0.7825879,0.169101 0.7825879,0.169101 z"
   inkscape:connector-curvature="0"
   style="fill:#096c62" />
     <path
   id="_358877408"
   class="fil15"
   d="M 0.750334,0.161602 C 0.7388788,0.15170835 0.7228153,0.1444218 0.7093416,0.1466711 0.6958679,0.14892113 0.6728803,0.14883716 0.693521,0.16172 0.7141617,0.1746021 0.7105491,0.1752437 0.7256502,0.176287 0.7407513,0.17733031 0.750334,0.161602 0.750334,0.161602 z"
   inkscape:connector-curvature="0"
   style="fill:#3af5e3" />
     <path
   id="_358877432"
   class="fil12"
   d="M 0.772659,0.163032 C 0.7585815,0.1508724 0.7388404,0.1419184 0.7222821,0.1446829 0.7057231,0.1474474 0.6774728,0.14734451 0.702839,0.1631765 0.728206,0.1790085 0.7237657,0.1797968 0.7423243,0.1810792 0.7608822,0.18236083 0.7726589,0.163032 0.7726589,0.163032 z"
   inkscape:connector-curvature="0"
   style="fill:#11b5a6" />
    </g>
    <g
   id="g11316">
     <path
   id="_358877840"
   class="fil10"
   d="m 0.287016,0.116307 c -1.672e-4,0.001645 -9.76e-5,0.002092 -4.1914e-4,0.002909 -3.2154e-4,8.1785e-4 6.05e-6,6.6805e-4 0.002917,-6.8848e-4 0.002911,-0.001357 0.004724,-9.0485e-4 0.008475,-0.004506 0.00375,-0.003602 0.008728,-0.009218 0.0104807,-0.0108416 0.001753,-0.001624 0.001415,-0.001841 0.002866,-0.0035491 0.001452,-0.0017091 0.002946,-0.0034666 0.001491,-0.0041566 -0.001456,-6.8999e-4 -0.002454,-3.3818e-4 -0.002454,-3.3818e-4 0,0 -0.0134147,0.0172006 -0.0194393,0.0191306 -0.006024,0.001929 -0.003918,0.00204 -0.003918,0.00204 z"
   inkscape:connector-curvature="0"
   style="fill:#096c62" />
     <g
   id="g11319">
      <path
   id="_359277408"
   class="fil11"
   d="M 0.286849,0.110091 C 0.285724,0.113657 0.28775537,0.113739 0.289617,0.113138 0.291479,0.11253653 0.296173,0.110355 0.299511,0.106787 0.302848,0.103221 0.302983,0.102096 0.304899,0.0990133 0.306815,0.095931 0.312869,0.0931325 0.308761,0.0933269 0.304654,0.09352209 0.307056,0.0913167 0.30144,0.0954233 0.295823,0.0995292 0.295384,0.0996472 0.294369,0.1009599 0.293354,0.1022729 0.291269,0.1046719 0.289668,0.1065929 0.288067,0.1085149 0.28685,0.1100909 0.28685,0.1100909 z"
   inkscape:connector-curvature="0"
   style="fill:#14d1be" />
      <path
   id="_350487440"
   class="fil12"
   d="m 0.288321,0.112841 c 3.7299e-4,-4.01e-5 7.6792e-4,-1.3618e-4 0.001156,-2.6102e-4 0.001861,-6.0147e-4 0.006848,-0.002386 0.0101842,-0.005953 0.003337,-0.003566 0.004972,-0.00508 0.006888,-0.0081626 0.001465,-0.0023582 0.004303,-0.0045545 0.003719,-0.0053701 l -1.5812e-4,6.06e-6 c -0.001593,7.565e-5 -0.002206,-2.0957e-4 -0.002689,-3.4803e-4 -1.9217e-4,-1.74e-5 -3.624e-4,-4.085e-5 -5.1371e-4,-6.809e-5 -6.0526e-4,4.313e-5 -0.001471,5.7575e-4 -0.004119,0.0025118 -0.005617,0.0041066 -0.006056,0.0042239 -0.007071,0.0055373 -0.001015,0.001313 -0.0031,0.003712 -0.004701,0.005633 -0.001601,0.001922 -0.002818,0.003498 -0.002818,0.003498 -5.1523e-4,0.001634 -3.677e-4,0.002536 1.218e-4,0.002976 z"
   inkscape:connector-curvature="0"
   style="fill:#11b5a6" />
      <path
   id="_350269304"
   class="fil13"
   d="M 0.296704,0.109129 C 0.298983,0.106511 0.299406,0.106204 0.300573,0.104694 0.30146953,0.103533 0.307468,0.0972781 0.308938,0.0942571 0.30917027,0.09378046 0.307934,0.0932342 0.30632,0.09338629 0.304858,0.09352398 0.303005,0.0943494 0.303131,0.09420717 c 5.7045e-4,-6.3855e-4 0.001652,-0.0011008 0.002543,-0.0013391 0.001528,-4.0855e-4 0.003046,-4.54e-6 0.003192,-1.0668e-4 0.003686,-6.96e-5 -4.4032e-4,0.0026843 -0.002316,0.005703 -0.001916,0.0030823 -0.003551,0.0045961 -0.006888,0.0081626 -8.9729e-4,9.5933e-4 -0.001914,0.001789 -0.002957,0.002502 z"
   inkscape:connector-curvature="0"
   style="fill:#0d8a7d" />
      <path
   id="_350269712"
   class="fil14"
   d="M 0.286351,0.11299 C 0.28569052,0.115881 0.287946,0.116014 0.289743,0.115433 0.291541,0.11485195 0.296547,0.113353 0.299884,0.109787 0.303221,0.106221 0.304621,0.103864 0.306639,0.101558 0.308658,0.0992512 0.313019,0.0945643 0.310672,0.0932267 0.30984204,0.0958255 0.307566,0.0971374 0.306158,0.0990788 0.304749,0.1010194 0.303125,0.104405 0.299788,0.1079723 0.296452,0.1115383 0.29117,0.1134193 0.2896038,0.1139253 c -0.001566,5.0614e-4 -0.002883,1.8385e-4 -0.003253,-9.3436e-4 z"
   inkscape:connector-curvature="0"
   style="fill:#05796d" />
     </g>
    </g>
    <g
   id="g11325">
     <path
   id="_354770800"
   class="fil10"
   d="M 0.683864,0.0467438 C 0.67753303,0.04141453 0.6681115,0.0364666 0.6595191,0.0355193 0.65092675,0.03457208 0.6365905,0.0314535 0.6484074,0.03916142 c 0.0118161,0.0077072 0.009509,0.0074681 0.0188454,0.0098952 0.009336,0.0024271 0.0166112,-0.0023128 0.0166112,-0.0023128 z"
   inkscape:connector-curvature="0"
   style="fill:#096c62" />
     <path
   id="_354774616"
   class="fil15"
   d="M 0.671371,0.0421295 C 0.667316,0.0387166 0.6612814,0.0355473 0.6557789,0.0349406 0.6502759,0.03433383 0.6410939,0.0323373 0.6486619,0.0372731 c 0.007568,0.0049366 0.00609,0.004783 0.0120703,0.0063378 0.005979,0.0015548 0.0106389,-0.0014814 0.0106389,-0.0014814 z"
   inkscape:connector-curvature="0"
   style="fill:#3af5e3" />
     <path
   id="_354773728"
   class="fil12"
   d="M 0.680216,0.0444007 C 0.675232,0.0402063 0.6678166,0.0363107 0.6610536,0.0355655 0.6542906,0.03482028 0.6430064,0.032366 0.6523076,0.0384321 c 0.009301,0.0060662 0.007485,0.0058778 0.0148333,0.0077889 0.007349,0.0019103 0.013075,-0.0018203 0.013075,-0.0018203 z"
   inkscape:connector-curvature="0"
   style="fill:#11b5a6" />
    </g>
    <g
   id="g11330">
     <path
   id="_354772456"
   class="fil16"
   d="M 0.379378,0.114004 C 0.371536,0.1283448 0.377534,0.1361003 0.383877,0.1397137 0.39022,0.1433267 0.4070507,0.1490127 0.4215367,0.1426527 0.436022,0.1362927 0.4378339,0.1309743 0.4474446,0.1219817 0.4570556,0.1129887 0.4787416,0.1204027 0.4661621,0.1065825 0.4535819,0.0927623 0.4635541,0.090053 0.4415494,0.0909722 0.4195438,0.09189143 0.4180753,0.09091092 0.4133854,0.0940257 0.4086954,0.0971413 0.3994305,0.1019901 0.3922181,0.1061278 0.3850061,0.1102658 0.3793784,0.1140038 0.3793784,0.1140038 z"
   inkscape:connector-curvature="0"
   style="fill:#0eb4a3" />
     <path
   id="_354771232"
   class="fil17"
   d="M 0.376127,0.124444 C 0.370715,0.1365529 0.37709843,0.1450794 0.383018,0.1484514 0.388937,0.1518244 0.405277,0.1618109 0.4192735,0.1556654 0.43327,0.1495204 0.4401813,0.1426517 0.4488273,0.1381917 0.4574733,0.1337327 0.4757967,0.1255736 0.4706029,0.1107154 0.4650519,0.1207808 0.4568613,0.1193864 0.4504282,0.1241521 0.4439942,0.1289181 0.4351871,0.1401354 0.4211899,0.146281 0.4071934,0.152426 0.3895941,0.14338 0.3844381,0.140443 0.3792811,0.137505 0.3758521,0.131309 0.3761271,0.1244438 z"
   inkscape:connector-curvature="0"
   style="fill:#086d62" />
     <path
   id="_354774112"
   class="fil18"
   d="m 0.380358,0.13351 c 0.00117,0.001135 0.002476,0.002068 0.003798,0.002822 0.006342,0.003613 0.0235505,0.0124017 0.0380357,0.006042 0.014486,-0.00636 0.0212898,-0.008271 0.0309005,-0.0172626 0.007352,-0.006879 0.0186237,-0.007967 0.0178906,-0.0142833 l -4.8193e-4,-5.4019e-4 c -0.004879,-0.00536 -0.006365,-0.009047 -0.007641,-0.0115014 -5.5533e-4,-7.8229e-4 -0.001037,-0.0015169 -0.001456,-0.0022039 -0.001873,-0.0019648 -0.005139,-0.0023385 -0.015515,-0.001905 -0.0220056,9.1923e-4 -0.0234741,-6.128e-5 -0.028164,0.0030535 -0.00469,0.0031156 -0.0139549,0.0079644 -0.0211673,0.0121021 -0.007212,0.004138 -0.0128397,0.007876 -0.0128397,0.007876 -0.003594,0.006572 -0.00428,0.0117593 -0.003359,0.0158009 z"
   inkscape:connector-curvature="0"
   style="fill:#068071" />
     <path
   id="_354760504"
   class="fil19"
   d="M 0.410178,0.144613 C 0.4202986,0.139321 0.421954,0.139272 0.4273468,0.135689 0.4314918,0.132937 0.4573372,0.1223068 0.4655308,0.1120243 0.4668248,0.1104003 0.4637948,0.1031203 0.4587558,0.0980785 0.4541928,0.0935134 0.4475934,0.0910825 0.448151,0.0908071 0.450664,0.0895709 0.45449,0.09108476 0.457464,0.093073 0.462565,0.0964836 0.466618,0.1040425 0.467183,0.1040425 0.4783394,0.1169866 0.462503,0.116305 0.4530919,0.1251114 0.4434809,0.1341034 0.4366774,0.1360136 0.4221914,0.142374 0.4182954,0.144085 0.4142024,0.144698 0.4101778,0.144613 z"
   inkscape:connector-curvature="0"
   style="fill:#0a7c71" />
    </g>
    <g
   id="g11336">
     <path
   id="_354771064"
   class="fil20"
   d="M 0.496236,0.640603 C 0.501542,0.637807 0.502753,0.636699 0.505869,0.636028 0.508984,0.63535692 0.507874,0.634668 0.497928,0.628597 0.487981,0.622526 0.4857087,0.6161409 0.4672945,0.6120418 0.4488804,0.6079438 0.4219178,0.6041818 0.4134911,0.6021478 0.4050641,0.6001138 0.4050901,0.60156978 0.3970123,0.6006148 c -0.008079,-9.5403e-4 -0.0163888,-0.001938 -0.015552,0.003844 8.3677e-4,0.005782 0.003908,0.008092 0.003908,0.008092 0,0 0.0789086,0.005989 0.0968355,0.0203146 0.0179276,0.0143256 0.0140328,0.007737 0.0140328,0.007737 z"
   inkscape:connector-curvature="0"
   style="fill:#204540" />
     <g
   id="g11339">
      <path
   id="_354772336"
   class="fil21"
   d="M 0.477792,0.653593 C 0.4908254,0.649831 0.486994,0.6435284 0.481439,0.6391123 0.475884,0.6346973 0.4598632,0.6248941 0.4423857,0.6219738 0.4249075,0.6190538 0.4212389,0.6209068 0.4080791,0.62130953 0.3949186,0.62171203 0.3743044,0.60903803 0.3831418,0.6210576 c 0.008837,0.0120196 -0.002648,0.009191 0.0210364,0.0179125 0.0236851,0.008722 0.0249236,0.009815 0.0309285,0.0102424 0.006005,4.2746e-4 0.0174389,0.001912 0.0264595,0.002889 0.009021,9.7824e-4 0.0162261,0.001491 0.0162261,0.001491 z"
   inkscape:connector-curvature="0"
   style="fill:#057265" />
      <path
   id="_354771736"
   class="fil22"
   d="M 0.455097,0.625747 C 0.4426076,0.624123 0.4408319,0.623457 0.4339275,0.622965 0.4286205,0.62258747 0.3976727,0.617026 0.3855956,0.618652 c -0.001907,2.5723e-4 -0.001075,0.005089 0.002628,0.009661 0.003352,0.00414 0.009568,0.008083 0.008885,0.007985 C 0.3940326,0.63585692 0.3904646,0.633521 0.3879546,0.631305 0.3836526,0.627507 0.3818236,0.622111 0.3812226,0.621876 0.3736106,0.6108793 0.3902156,0.617815 0.4031026,0.61742 c 0.0131598,-4.0249e-4 0.0210167,0.001496 0.0384942,0.004417 0.004701,7.8532e-4 0.009251,0.00219 0.0135002,0.00391 z"
   inkscape:connector-curvature="0"
   style="fill:#0b6d63" />
      <path
   id="_354772072"
   class="fil23"
   d="M 0.487556,0.649274 C 0.4976168,0.645465 0.493488,0.6383847 0.48812343,0.6341199 0.48275743,0.6298559 0.46817653,0.6177394 0.45069823,0.6148191 c -0.0174775,-0.00292 -0.0274082,-0.002416 -0.0384299,-0.003883 -0.0110209,-0.001467 -0.0339397,-0.005232 -0.0332686,0.004548 0.009519,-0.002713 0.0180532,0.001528 0.0267455,0.001885 0.008691,3.571e-4 0.0221841,-0.001536 0.0396616,0.001385 0.0174775,0.00292 0.0337634,0.0151019 0.0384375,0.0188166 0.004674,0.003715 0.006344,0.008338 0.003712,0.0117026 z"
   inkscape:connector-curvature="0"
   style="fill:#17544e" />
     </g>
    </g>
    <g
   id="g11344">
     <path
   id="_354772120"
   class="fil17"
   d="M 0.77549,0.507737 C 0.781719,0.4938025 0.774373,0.4839913 0.767561,0.4801109 0.76075,0.4762309 0.7419474,0.4647382 0.7258415,0.4718099 0.7097349,0.4788819 0.7017826,0.4867854 0.6918337,0.4919172 0.6818837,0.4970492 0.6607993,0.5064373 0.6667761,0.523535 0.6731641,0.5119519 0.6825884,0.513557 0.6899914,0.508073 0.6973944,0.502589 0.7075294,0.4896808 0.723636,0.4826092 c 0.0161058,-0.007072 0.0363577,0.003338 0.0422907,0.006718 0.005934,0.00338 0.00988,0.0105103 0.009563,0.0184103 z"
   inkscape:connector-curvature="0"
   style="fill:#086d62" />
     <path
   id="_354770944"
   class="fil24"
   d="M 0.770623,0.497305 C 0.769277,0.495998 0.767774,0.494925 0.766253,0.494058 0.758954,0.4899 0.7391527,0.4797868 0.722484,0.487105 0.7058153,0.494424 0.6979856,0.496622 0.6869268,0.5069695 0.6784678,0.5148845 0.6654962,0.5161375 0.6663398,0.5234052 l 5.5532e-4,6.2114e-4 c 0.005614,0.006168 0.007324,0.0104111 0.008792,0.0132354 6.393e-4,9.0032e-4 0.001194,0.001745 0.001677,0.002535 0.002155,0.002261 0.005913,0.002691 0.0178535,0.002193 0.0253216,-0.001058 0.027011,7.112e-5 0.0324084,-0.003514 0.005397,-0.003585 0.0160574,-0.009164 0.0243562,-0.0139262 0.0083,-0.004761 0.0147758,-0.009063 0.0147758,-0.009063 0.004135,-0.007563 0.004924,-0.0135312 0.003865,-0.0181819 z"
   inkscape:connector-curvature="0"
   style="fill:#0b6960" />
     <path
   id="_354772216"
   class="fil19"
   d="M 0.736308,0.484529 C 0.7246621,0.490618 0.7227563,0.490675 0.716551,0.4947964 c -0.004769,0.003169 -0.0345101,0.0154 -0.0439385,0.0272319 -0.001488,0.001868 0.001997,0.0102455 0.007796,0.0160468 0.005251,0.005254 0.012845,0.008051 0.0122027,0.008368 C 0.6897192,0.5478661 0.6853182,0.54612383 0.6818944,0.5438361 0.6760254,0.5399121 0.6713607,0.5312135 0.6707108,0.5312135 0.6578726,0.5163189 0.6760958,0.5171027 0.6869256,0.5069693 0.6979844,0.4966217 0.7058141,0.4944239 0.7224828,0.4871048 c 0.004483,-0.001968 0.009192,-0.002674 0.0138248,-0.002575 z"
   inkscape:connector-curvature="0"
   style="fill:#0a7c71" />
    </g>
   </g>
   <path
   class="fil25"
   d="M 1.01297,0.180241 C 0.9394338,0.413467 0.198292,0.642979 0.032086,0.49953 0.1088406,0.723854 1.058866,0.4253772 1.01297,0.180241 z"
   id="path11349"
   inkscape:connector-curvature="0"
   style="fill:url(#id5)" />
   <g
   id="g11351">
    <path
   class="fil26"
   d="M 1.0518,0.173433 C 0.973244,0.422579 0.181512,0.667758 0.00396,0.514517 0.0859539,0.754154 1.10082,0.4353028 1.0518,0.173433 z"
   id="path11353"
   inkscape:connector-curvature="0"
   style="fill:url(#id4)" />
    <path
   id="1"
   class="fil2"
   d="m 0.00368752,0.51461 4.5848e-4,-3.1095e-4 0.0183642,0.0131817 0.0217241,0.0109309 0.0248412,0.008747 0.0277169,0.006634 0.0303467,0.004592 0.0327329,0.002621 0.0348778,7.2025e-4 0.036776,-0.001107 0.0384322,-0.002864 0.0398454,-0.004548 0.0410151,-0.006159 0.0419396,-0.0077 L 0.4353809,0.5301809 0.478444,0.5196177 0.5217031,0.507732 0.5649145,0.4945949 0.6078377,0.4802799 0.650226,0.464858 0.6918388,0.4484019 0.7324325,0.4309842 0.7717627,0.4126768 0.8095881,0.3935523 0.8456643,0.3736833 0.8797477,0.3531417 0.911597,0.3320001 0.9409662,0.3103312 0.9676148,0.2882084 0.9912977,0.2657043 1.0117727,0.242893 l 0.017023,-0.0230466 0.013332,-0.023207 0.0094,-0.023294 5.478e-4,1.7553e-4 -0.00943,0.0233742 -0.013368,0.023269 -0.01706,0.023095 -0.0205083,0.0228491 -0.0237131,0.0225329 -0.0266743,0.0221455 -0.029395,0.021687 -0.0318705,0.0211552 -0.0341046,0.0205537 -0.0360944,0.0198796 -0.037842,0.0191336 -0.0393469,0.018315 -0.0406088,0.0174238 -0.0416279,0.0164622 -0.0424034,0.0154279 -0.0429368,0.0143196 -0.0432265,0.0131416 -0.0432742,0.0118902 -0.0430783,0.0105662 -0.0426394,0.009171 -0.0419578,0.007703 -0.0410333,0.006162 -0.0398666,0.00455 -0.0384564,0.002866 -0.0368033,0.001108 -0.0349081,-7.2177e-4 -0.0327708,-0.002624 -0.0303906,-0.004598 -0.0277683,-0.006646 -0.0249032,-0.00877 -0.0217967,-0.0109672 -0.0184444,-0.0132407 4.5848e-4,-3.1095e-4 -5.4322e-4,1.8612e-4 z m 1.04783998,-0.341265 5.561e-4,3.556e-5 0.00154,0.0247678 -0.00434,0.0249819 -0.00985,0.0250772 -0.014989,0.0250613 -0.019759,0.0249327 -0.0241633,0.0246967 -0.0282011,0.0243494 -0.0318735,0.0238909 -0.0351797,0.0233205 -0.0381227,0.0226388 -0.0406989,0.0218444 -0.0429095,0.020938 -0.0447556,0.0199189 -0.0462354,0.0187864 -0.0473506,0.0175426 -0.0481004,0.016186 -0.0484839,0.014716 -0.0485029,0.013134 -0.0481556,0.0114401 -0.0474421,0.009632 -0.0463655,0.007712 -0.0449228,0.005678 -0.0431138,0.003532 -0.040941,0.001275 -0.0384034,-0.001099 -0.0354997,-0.003583 -0.0322328,-0.006182 -0.0286021,-0.008897 -0.0246051,-0.0117283 -0.020242,-0.0146767 -0.0155051,-0.0177415 -0.010393,-0.0209161 5.4321e-4,-1.8612e-4 0.0103249,0.0207814 0.0154143,0.0176356 0.0201467,0.0146071 0.0245219,0.0116875 0.0285325,0.008875 0.0321769,0.006171 0.0354543,0.003579 0.0383656,0.001097 0.0409092,-0.001273 0.0430881,-0.003531 0.0448986,-0.005675 0.0463444,-0.007709 0.047424,-0.009627 0.0481374,-0.0114355 0.0484862,-0.0131295 0.0484673,-0.0147115 0.0480837,-0.01618 0.047334,-0.0175365 0.0462188,-0.0187803 0.0447374,-0.0199114 0.0428914,-0.0209274 0.0406777,-0.0218338 0.0381,-0.0226252 0.0351555,-0.0233038 0.0318447,-0.0238697 0.0281678,-0.0243207 0.0241255,-0.0246573 0.019718,-0.0248813 0.014945,-0.0249872 0.00981,-0.0249789 0.00432,-0.0248578 -0.00154,-0.0246286 5.561e-4,3.556e-5 -5.478e-4,-1.7552e-4 z"
   inkscape:connector-curvature="0"
   style="fill:#99cccc;fill-rule:nonzero" />
   </g>
  </g>
 </g>
</svg>
