<?xml version="1.0" encoding="UTF-8"?>
<!DOCTYPE svg PUBLIC "-//W3C//DTD SVG 1.1//EN" "http://www.w3.org/Graphics/SVG/1.1/DTD/svg11.dtd">
<!-- Creator: CorelDRAW -->
<svg xmlns="http://www.w3.org/2000/svg" xml:space="preserve" width="3.08083in" height="3.31074in" style="shape-rendering:geometricPrecision; text-rendering:geometricPrecision; image-rendering:optimizeQuality; fill-rule:evenodd; clip-rule:evenodd"
viewBox="0 0 0.205979 0.22135"
 xmlns:xlink="http://www.w3.org/1999/xlink">
 <defs>
  <style type="text/css">
   <![CDATA[
    .str0 {stroke:gray;stroke-width:0.000200575}
    .fil15 {fill:none}
    .fil13 {fill:#366A2A}
    .fil19 {fill:#4B8E33}
    .fil18 {fill:#58A73B}
    .fil3 {fill:#74C358}
    .fil10 {fill:#C0FAFF}
    .fil5 {fill:#D0FFBF}
    .fil16 {fill:#204928;fill-rule:nonzero}
    .fil12 {fill:url(#id0)}
    .fil11 {fill:url(#id1)}
    .fil8 {fill:url(#id2)}
    .fil9 {fill:url(#id3)}
    .fil2 {fill:url(#id4)}
    .fil17 {fill:url(#id5)}
    .fil14 {fill:url(#id6)}
    .fil4 {fill:url(#id7)}
    .fil7 {fill:url(#id8)}
    .fil6 {fill:url(#id9)}
    .fil0 {fill:url(#id10)}
    .fil1 {fill:url(#id11)}
   ]]>
  </style>
  <linearGradient id="id0" gradientUnits="userSpaceOnUse" x1="0.08465" y1="0.10559" x2="0.0831522" y2="0.090529">
   <stop offset="0" style="stop-color:black"/>
   <stop offset="1" style="stop-color:#191919"/>
  </linearGradient>
  <linearGradient id="id1" gradientUnits="userSpaceOnUse" x1="0.079484" y1="0.105153" x2="0.0871606" y2="0.0846423">
   <stop offset="0" style="stop-color:#80CC65"/>
   <stop offset="1" style="stop-color:#58A73B"/>
  </linearGradient>
  <linearGradient id="id2" gradientUnits="userSpaceOnUse" xlink:href="#id1" x1="0.120193" y1="0.103045" x2="0.10868" y2="0.0856013">
  </linearGradient>
  <linearGradient id="id3" gradientUnits="userSpaceOnUse" xlink:href="#id0" x1="0.115168" y1="0.101282" x2="0.113629" y2="0.0879558">
  </linearGradient>
  <linearGradient id="id4" gradientUnits="userSpaceOnUse" x1="0.083426" y1="0.187243" x2="0.113256" y2="0.176904">
   <stop offset="0" style="stop-color:#80CC65"/>
   <stop offset="1" style="stop-color:#90D47B"/>
  </linearGradient>
  <linearGradient id="id5" gradientUnits="userSpaceOnUse" xlink:href="#id1" x1="0.102303" y1="0.127664" x2="0.101898" y2="0.12387">
  </linearGradient>
  <linearGradient id="id6" gradientUnits="userSpaceOnUse" xlink:href="#id1" x1="0.0999134" y1="0.111884" x2="0.100541" y2="0.117774">
  </linearGradient>
  <linearGradient id="id7" gradientUnits="userSpaceOnUse" x1="0.0895891" y1="0.162517" x2="0.0917085" y2="0.176039">
   <stop offset="0" style="stop-color:#366A2A"/>
   <stop offset="1" style="stop-color:#80CC65"/>
  </linearGradient>
  <linearGradient id="id8" gradientUnits="userSpaceOnUse" x1="0.117124" y1="0.0790765" x2="0.0952618" y2="0.0817308">
   <stop offset="0" style="stop-color:#A4DB91"/>
   <stop offset="1" style="stop-color:#80CC65"/>
  </linearGradient>
  <linearGradient id="id9" gradientUnits="userSpaceOnUse" xlink:href="#id4" x1="0.0836961" y1="0.0843917" x2="0.101385" y2="0.082107">
  </linearGradient>
  <radialGradient id="id10" gradientUnits="userSpaceOnUse" cx="0.102989" cy="0.118361" r="0.143003" fx="0.102989" fy="0.118361">
   <stop offset="0" style="stop-color:black"/>
   <stop offset="0.701961" style="stop-color:gray"/>
   <stop offset="1" style="stop-color:white"/>
  </radialGradient>
  <radialGradient id="id11" gradientUnits="userSpaceOnUse" cx="0.102989" cy="0.118361" r="0.143003" fx="0.102989" fy="0.118361">
   <stop offset="0" style="stop-color:#CC3399"/>
   <stop offset="1" style="stop-color:#000066"/>
  </radialGradient>
 </defs>
 <g id="Layer_x0020_1">
  <metadata id="CorelCorpID_0Corel-Layer"/>
  <g id="_347425536">
   <circle id="_358631744" class="fil0 str0" cx="0.10299" cy="0.118361" r="0.102889"/>
   <circle id="_354765976" class="fil1" cx="0.10299" cy="0.118361" r="0.0979273"/>
   <g>
    <path id="_359964832" class="fil2" d="M0.0579904 0.205353c0.00798509,-0.0110748 0.0205829,-0.026866 0.0288412,-0.0289581 0.00155906,-0.000395885 0.00281094,-0.000445371 0.00471351,-0.00144535 0.00172147,-0.0027175 0.00325395,-0.00239927 0.00198732,-0.0147446 -0.0012661,-0.0123461 0.0121079,-0.00590275 0.0121079,-0.00590275 0,0 0.000225581,0.0139244 0.00452504,0.0193555 0.00190072,0.00047222 0.00558846,0.00128031 0.00707171,0.00193705 0.0114957,0.0050915 0.0184424,0.0237926 0.0214549,0.0339759 -0.00320551,0.00125583 -0.0064921,0.00235083 -0.0098516,0.00326842 -0.00214262,-0.00677164 -0.00732072,-0.0211928 -0.0118323,-0.0216397 -0.000151879,0.01198 0.00114633,0.0160118 0.00165566,0.0238366 -0.00510413,0.000821251 -0.0103388,0.00125162 -0.0156743,0.00125162 -0.00676243,0 -0.0133643,-0.000687272 -0.0197403,-0.00199338 -0.000120292,-0.00355086 -0.000324026,-0.0109766 -8.68631e-005,-0.0150065 0.000252166,-0.00428577 -0.00965523,0.00264801 -0.0150047,0.010621 -0.00348927,-0.00132874 -0.00688193,-0.00285253 -0.0101672,-0.00455558z"/>
    <path id="_359678200" class="fil3" d="M0.128805 0.212849c-0.00207129,-0.00648868 -0.00692536,-0.0200388 -0.0117968,-0.0216495 -0.000151879,0.01198 0.00114633,0.0160118 0.00165566,0.0238366 -0.00131927,0.000212157 -0.00264696,0.000397728 -0.00398307,0.000556977 -0.000539868,-0.0083028 -0.000536709,-0.0214923 0.000110553,-0.026205 0.000630942,-0.00459743 0.00904772,-0.001976 0.0166804,0.0226881 -0.000884161,0.000268486 -0.00177201,0.000528812 -0.0026667,0.000772819z"/>
    <path id="_358915320" class="fil3" d="M0.0832491 0.214295c-0.000120292,-0.00355086 -0.000324026,-0.0109766 -8.68631e-005,-0.0150065 0.000252166,-0.00428577 -0.00965523,0.00264801 -0.0150047,0.010621 -0.000924171,-0.000351927 -0.00184097,-0.000719121 -0.00275146,-0.0010979 0.00681349,-0.00937832 0.0160707,-0.0184095 0.0181923,-0.0140294 0.00256167,0.0052876 0.00133243,0.0102175 0.00164724,0.0198996 -0.000667793,-0.000122398 -0.00133348,-0.00025085 -0.00199654,-0.000386673z"/>
    <path id="_359526888" class="fil4" d="M0.0694587 0.190696c0.0060741,-0.00702117 0.0124835,-0.0130621 0.0173729,-0.0143011 0.00155906,-0.000395885 0.00281094,-0.000445371 0.00471351,-0.00144535 0.00172147,-0.0027175 0.00325395,-0.00239927 0.00198732,-0.0147446 -0.0012661,-0.0123461 0.0121079,-0.00590275 0.0121079,-0.00590275 0,0 -0.000782558,0.0123722 0.00351638,0.0178038 0.000245849,0.00051802 0.00118371,0.00191994 0.00268249,0.00202338 -0.00206497,0.0019918 -0.00233846,0.00180254 -0.00855918,0.00326579 -0.00622124,0.00146378 -0.0229603,0.00427919 -0.0288428,0.00931647 -0.00140534,0.00120371 -0.0031455,0.00258247 -0.00497857,0.00398439z"/>
    <path id="_359670848" class="fil5" d="M0.0579904 0.205353c0.00798509,-0.0110748 0.0205829,-0.026866 0.0288412,-0.0289581 0.00155906,-0.000395885 0.00281094,-0.000445371 0.00471351,-0.00144535 0.00172147,-0.0027175 0.00325395,-0.00239927 0.00198732,-0.0147446 -0.000659107,-0.00642971 0.00265222,-0.00776241 0.00597671,-0.00756473 -0.00288149,0.000188203 -0.00628889,-4.76431e-005 -0.00536525,0.00896033 0.000923645,0.00900771 -0.000305864,0.0106707 -0.00202681,0.013389 -0.00190309,0.000999453 -0.0025572,0.00100945 -0.004116,0.00140534 -0.00836834,0.00212025 -0.0211922,0.0183071 -0.0291573,0.0293987 -0.000285859,-0.000144772 -0.000569085,-0.000293229 -0.000853365,-0.000440633zm0.0252853 0.00894638c-8.84425e-005,-0.00396728 -0.000258747,-0.0126854 -0.000113449,-0.0150118 2.63222e-005,-0.000418522 0.00031534,0.00124346 0.000440633,0.00448503 3.50085e-005,0.000908904 -0.00033824,0.00492725 0.000320078,0.0106544 -0.000215842,-4.26419e-005 -0.000431947,-8.37045e-005 -0.000647262,-0.000127662z"/>
    <path id="_357150240" class="fil6" d="M0.0824894 0.000450372l2.63222e-007 0c0.0204397,-0.00248086 0.0391934,0.0122135 0.0416746,0.032654 0.00369195,0.0304203 0.0029365,0.057739 0.0110761,0.0912634 0.00248613,0.0204836 -0.0122345,0.0391961 -0.0327048,0.0416809 -0.0204407,0.00248086 -0.0391426,-0.0122198 -0.0416232,-0.0326598 -0.000961812,-0.0339061 -0.00609147,-0.0624928 -0.0110769,-0.0912642 -0.0024806,-0.0204402 0.0122132,-0.0391932 0.032654,-0.0416743z"/>
    <path id="_358878608" class="fil7" d="M0.0824868 0.000450899l0 0c-0.0028728,0.000348505 -0.00563189,0.00101893 -0.00824542,0.00196969 0.0287454,-0.0102522 0.0380542,0.0142974 0.0401868,0.0318653 0.00087916,0.0125551 0.00172594,0.0250853 0.00297862,0.0379321 0.00105657,0.0108424 -0.000980764,0.009357 0.00567032,0.0189335 0.00223607,0.00321736 0.00368142,0.0185756 0.00400123,0.0209259 0.00166698,0.0122356 -0.000640945,0.0152468 -0.000421944,0.018356 0.000115291,0.00163487 0.000673584,0.00327448 0.000825463,0.003907 0.00213262,0.0175714 -0.0124446,0.0293374 -0.0333352,0.031759 0.0237402,0.00253983 0.043998,-0.0177867 0.0410918,-0.0417317 -0.00717753,-0.0331517 -0.00903508,-0.0621356 -0.0110769,-0.0912632 -0.00248007,-0.0204407 -0.0212344,-0.0351346 -0.0416748,-0.0326537z"/>
    <path id="_356765672" class="fil3" d="M0.0824894 0.000450372l2.63222e-007 0c0.00287227,-0.000348505 0.00571112,-0.000358245 0.00847705,-6.00145e-005 -0.0159849,0.00581562 -0.0265401,0.0221369 -0.0244083,0.0397049 0.00214947,0.012402 0.00432526,0.0247697 0.00618202,0.0375441 0.00156775,0.0107805 -0.00379855,0.00969866 -0.0079664,0.0205884 -0.00139981,0.00365904 0.000869947,0.0189167 0.00112132,0.0212759 0.00130795,0.0122788 0.00701907,0.0147986 0.00755078,0.0178701 0.000279015,0.0016146 0.000129242,0.00334002 0.00013319,0.00399097 0.0021321,0.0175711 0.0163508,0.0253601 0.0372143,0.0227142 -0.0224433,0.00814513 -0.0469751,-0.00674505 -0.0498813,-0.0306901 -0.000961812,-0.0339061 -0.00609147,-0.0624928 -0.0110769,-0.0912642 -0.0024806,-0.0204402 0.0122132,-0.0391932 0.032654,-0.0416743z"/>
    <g>
     <path id="_347010696" class="fil8" d="M0.127977 0.0761295c-0.00620019,-0.00242717 -0.0297254,-0.00201312 -0.0274524,0.0218556 0.00161565,0.0169591 0.0300965,0.00519942 0.0274524,-0.0218556z"/>
     <path id="_346202840" class="fil9" d="M0.127977 0.0775775c-0.00580667,-0.0012482 -0.02493,0.00574429 -0.0260458,0.0205684 -0.0011108,0.0147628 0.0259587,0.0024835 0.0260458,-0.0205684z"/>
     <path id="_347005704" class="fil10" d="M0.114702 0.0823955c-0.00174832,0.000889426 -0.00730387,0.0051115 -0.00736757,0.00704144 -6.31732e-005,0.00192152 0.00775819,-0.00433368 0.00736757,-0.00704144z"/>
     <g>
      <path id="_347220384" class="fil11" d="M0.0667001 0.0845957c0.00551081,-0.00404572 0.0284398,-0.0100487 0.0312481,0.0137449 0.00199627,0.0169073 -0.0281297,0.0132437 -0.0312481,-0.0137449z"/>
      <path id="_347213808" class="fil12" d="M0.0670046 0.0860014c0.00537604,-0.0027941 0.0254138,-0.00121161 0.0296114,0.0128781 0.0041818,0.0140323 -0.024682,0.00948098 -0.0296114,-0.0128781z"/>
      <path id="_347218632" class="fil10" d="M0.080907 0.0870656c0.00188335,0.000386409 0.0081654,0.00297361 0.00863341,0.00482985 0.000465113,0.00184913 -0.00844415,-0.00209472 -0.00863341,-0.00482985z"/>
     </g>
    </g>
    <path id="_356254080" class="fil13" d="M0.0889223 0.000229529c-0.00866315,0.00163882 -0.0180538,0.00418891 -0.0274387,0.0170444 -0.0101648,0.0139244 -0.00771582,0.0313049 -0.00482485,0.0536267 0.00289096,0.0223209 0.00143561,0.0166017 0.00088811,0.0200167 -0.00212025,-0.0168383 -0.00493777,-0.0327871 -0.00771134,-0.0487926 -0.0024806,-0.0204402 0.0122132,-0.0391932 0.032654,-0.0416743l2.63222e-007 0c0.00216895,-0.000262958 0.00431947,-0.000331396 0.00643261,-0.000220843z"/>
    <g>
     <path id="_347215128" class="fil14" d="M0.120174 0.116556c0.00593249,-0.000819146 0.00568243,-0.00511913 0.00568243,-0.00511913 -0.000319025,0.000110027 0.00175095,-0.00432315 -0.0256283,-0.000672005 -0.0273798,0.00365036 -0.0240524,0.00753551 -0.0240524,0.00753551 0,0 0.000659633,0.00424366 0.00659318,0.00342399 0.0176306,-0.00243559 0.0197743,-0.00273224 0.0374051,-0.00516836z"/>
     <path id="_347214768" class="fil15" d="M0.0761284 0.117866c0,0 0.000660423,0.00424366 0.00659318,0.00342399 0.00593302,-0.000819672 0.0247055,-0.00341267 0.0247055,-0.00341267m0.0183821 -0.00687482c0,0 0.000251377,0.00429999 -0.00568138,0.0051194 -0.00593328,0.000819146 -0.024706,0.00341346 -0.024706,0.00341346"/>
     <path id="_347216280" class="fil16" d="M0.0826755 0.120856l0.0127855 -0.00140376 0.012005 -0.0016583 0.0126149 -0.00210604c0.00408072,-0.000650157 0.00501595,-0.00180965 0.00610779,-0.00470377 2.63222e-007,1.34243e-005 0.000270855,0.00470377 -0.00601514,0.00557161 -0.00419259,0.000965497 -0.00838571,0.00192968 -0.0125791,0.00289491 -0.00379408,0.00125451 -0.00779136,0.00182202 -0.0120042,0.00165856l-0.0128218 0.000614886c-0.00628652,0.000868895 -0.00692431,-0.00340793 -0.00692615,-0.00342083 0.00126031,0.00233346 0.00230135,0.00313813 0.00683323,0.00255272z"/>
     <path id="_347212944" class="fil17" d="M0.110145 0.121334c0.0026388,-0.000364299 0.00318551,0.00389463 0.00318551,0.00389463 -0.000151616,-4.60638e-005 -0.00655896,0.00387778 -0.0108755,0.00460717 -0.00431683,0.000728334 -0.0112201,-0.00155485 -0.0112201,-0.00155485 0,0 -0.000364562,-0.0042842 0.00227423,-0.00464849 0.00784111,-0.00108342 0.00879423,-0.00121503 0.0166359,-0.00229845z"/>
    </g>
    <g>
     <g>
      <path id="_347215176" class="fil18" d="M0.104578 0.107152c-0.000712015,-0.000153195 -0.00305548,0.000704118 -0.00319156,0.00252087 -0.000136612,0.00180939 0.00318077,0.000304547 0.00319156,-0.00252087z"/>
      <path id="_347222904" class="fil19" d="M0.103221 0.108148c-8.42309e-006,-0.00102341 -0.00177833,0.000521442 -0.00174648,0.00158486 4.65902e-005,0.00155775 0.00175569,-0.000559609 0.00174648,-0.00158486z"/>
     </g>
     <g>
      <path id="_345992864" class="fil18" d="M0.0958856 0.108353c0.000658844,-0.000342451 0.00311496,-0.00014872 0.0036293,0.00157801 0.000512493,0.00171963 -0.00302494,0.00116186 -0.0036293,-0.00157801z"/>
      <path id="_345991616" class="fil19" d="M0.0974125 0.108951c-0.000206892,-0.00099682 0.00183702,2.10577e-005 0.00202918,0.00106263 0.00028191,0.00152537 -0.00182228,-6.58054e-005 -0.00202918,-0.00106263z"/>
     </g>
    </g>
    <path id="_347224944" class="fil18" d="M0.134983 0.123295c8.52838e-005,0.000356929 0.000169778,0.00071412 0.000257168,0.00107263 0.00248613,0.0204836 -0.0122345,0.0391961 -0.0327048,0.0416809 -0.0204407,0.00248086 -0.0391426,-0.0122198 -0.0416232,-0.0326598 -1.21082e-005,-0.000416417 -2.47428e-005,-0.000831517 -3.81671e-005,-0.00124583 0.0037996,0.0189254 0.0220251,0.0348956 0.0414948,0.0325326 0.019451,-0.00236005 0.033376,-0.022118 0.0326142,-0.0413805z"/>
    <path id="_347215656" class="fil5" d="M0.0836984 0.000325868c-0.021302,0.00267565 -0.0354378,0.0216592 -0.0330059,0.0416946 0.00498515,0.0287712 0.0105934,0.0572999 0.0115554,0.0912066 0.0024319,0.020037 0.0191481,0.035999 0.0414927,0.0326526 -0.0208321,0.00321209 -0.0402895,-0.0115725 -0.0428283,-0.0324908 -0.000961812,-0.0339061 -0.00609147,-0.0624928 -0.0110769,-0.0912642 -0.0025414,-0.0209403 0.0128955,-0.0399376 0.0338629,-0.0417988z"/>
   </g>
  </g>
 </g>
</svg>
