<?xml version="1.0" encoding="UTF-8"?>
<!DOCTYPE svg PUBLIC "-//W3C//DTD SVG 1.1//EN" "http://www.w3.org/Graphics/SVG/1.1/DTD/svg11.dtd">
<!-- Creator: CorelDRAW -->
<svg xmlns="http://www.w3.org/2000/svg" xml:space="preserve" width="3.90637in" height="3.19831in" style="shape-rendering:geometricPrecision; text-rendering:geometricPrecision; image-rendering:optimizeQuality; fill-rule:evenodd; clip-rule:evenodd"
viewBox="0 0 0.524789 0.429666"
 xmlns:xlink="http://www.w3.org/1999/xlink">
 <defs>
  <style type="text/css">
   <![CDATA[
    .str0 {stroke:gray;stroke-width:0.000403025}
    .str1 {stroke:#99CCCC;stroke-width:0.000403025}
    .str2 {stroke:white;stroke-width:0.000403025}
    .fil33 {fill:none}
    .fil5 {fill:#003333}
    .fil41 {fill:#336666}
    .fil13 {fill:#336699}
    .fil31 {fill:#3C682D}
    .fil37 {fill:#528C36}
    .fil36 {fill:#61A53E}
    .fil12 {fill:#669999}
    .fil23 {fill:#74E9F0}
    .fil21 {fill:#7DC05C}
    .fil43 {fill:#9966CC}
    .fil19 {fill:#999966}
    .fil42 {fill:#99CCCC}
    .fil44 {fill:#99FFFF}
    .fil28 {fill:#C1FFFF}
    .fil4 {fill:#CC3300}
    .fil40 {fill:#D0E8E8}
    .fil39 {fill:#E6E6E6}
    .fil3 {fill:#FFCC00}
    .fil2 {fill:#FFFF66}
    .fil6 {fill:white}
    .fil34 {fill:#224827;fill-rule:nonzero}
    .fil38 {fill:url(#id0)}
    .fil15 {fill:url(#id1)}
    .fil9 {fill:url(#id2)}
    .fil8 {fill:url(#id3)}
    .fil17 {fill:url(#id4)}
    .fil16 {fill:url(#id5)}
    .fil30 {fill:url(#id6)}
    .fil29 {fill:url(#id7)}
    .fil26 {fill:url(#id8)}
    .fil27 {fill:url(#id9)}
    .fil35 {fill:url(#id10)}
    .fil20 {fill:url(#id11)}
    .fil32 {fill:url(#id12)}
    .fil22 {fill:url(#id13)}
    .fil25 {fill:url(#id14)}
    .fil24 {fill:url(#id15)}
    .fil1 {fill:url(#id16)}
    .fil0 {fill:url(#id17)}
    .fil14 {fill:url(#id18)}
    .fil18 {fill:url(#id19)}
    .fil11 {fill:url(#id20)}
    .fil10 {fill:url(#id21)}
    .fil7 {fill:url(#id22)}
   ]]>
  </style>
  <linearGradient id="id0" gradientUnits="userSpaceOnUse" x1="0.131788" y1="0.208441" x2="0.393323" y2="0.208441">
   <stop offset="0" style="stop-color:#336666"/>
   <stop offset="0.380392" style="stop-color:#99CCCC"/>
   <stop offset="0.509804" style="stop-color:#BDDFDF"/>
   <stop offset="0.639216" style="stop-color:#99CCCC"/>
   <stop offset="1" style="stop-color:#336666"/>
  </linearGradient>
  <linearGradient id="id1" gradientUnits="userSpaceOnUse" x1="0.262587" y1="0.164425" x2="0.262587" y2="0.217619">
   <stop offset="0" style="stop-color:#669999"/>
   <stop offset="1" style="stop-color:#003333"/>
  </linearGradient>
  <linearGradient id="id2" gradientUnits="userSpaceOnUse" x1="-0" y1="0.240044" x2="0.528651" y2="0.240044">
   <stop offset="0" style="stop-color:#99CCCC"/>
   <stop offset="0.0784314" style="stop-color:#669999"/>
   <stop offset="0.509804" style="stop-color:#99CCCC"/>
   <stop offset="0.929412" style="stop-color:#669999"/>
   <stop offset="1" style="stop-color:#99CCCC"/>
  </linearGradient>
  <linearGradient id="id3" gradientUnits="userSpaceOnUse" x1="0.140636" y1="0.275831" x2="0.38624" y2="0.275831">
   <stop offset="0" style="stop-color:black"/>
   <stop offset="0.509804" style="stop-color:#336666"/>
   <stop offset="1" style="stop-color:black"/>
  </linearGradient>
  <linearGradient id="id4" gradientUnits="userSpaceOnUse" x1="0.258973" y1="0.149839" x2="0.260038" y2="0.210133">
   <stop offset="0" style="stop-color:#666633"/>
   <stop offset="1" style="stop-color:#1A1A00"/>
  </linearGradient>
  <linearGradient id="id5" gradientUnits="userSpaceOnUse" x1="0.262587" y1="0.179428" x2="0.262587" y2="0.207089">
   <stop offset="0" style="stop-color:#003333"/>
   <stop offset="1" style="stop-color:black"/>
  </linearGradient>
  <linearGradient id="id6" gradientUnits="userSpaceOnUse" x1="0.255149" y1="0.123915" x2="0.254258" y2="0.114954">
   <stop offset="0" style="stop-color:black"/>
   <stop offset="1" style="stop-color:#1A1A1A"/>
  </linearGradient>
  <linearGradient id="id7" gradientUnits="userSpaceOnUse" x1="0.25363" y1="0.123747" x2="0.258237" y2="0.111439">
   <stop offset="0" style="stop-color:#88CA68"/>
   <stop offset="1" style="stop-color:#61A53E"/>
  </linearGradient>
  <linearGradient id="id8" gradientUnits="userSpaceOnUse" xlink:href="#id7" x1="0.279186" y1="0.120259" x2="0.272074" y2="0.109485">
  </linearGradient>
  <linearGradient id="id9" gradientUnits="userSpaceOnUse" xlink:href="#id6" x1="0.27602" y1="0.120765" x2="0.275191" y2="0.11359">
  </linearGradient>
  <linearGradient id="id10" gradientUnits="userSpaceOnUse" xlink:href="#id7" x1="0.268443" y1="0.141099" x2="0.268116" y2="0.13804">
  </linearGradient>
  <linearGradient id="id11" gradientUnits="userSpaceOnUse" x1="0.254509" y1="0.181466" x2="0.273383" y2="0.174924">
   <stop offset="0" style="stop-color:#88CA68"/>
   <stop offset="1" style="stop-color:#98D27E"/>
  </linearGradient>
  <linearGradient id="id12" gradientUnits="userSpaceOnUse" xlink:href="#id7" x1="0.267579" y1="0.132852" x2="0.267966" y2="0.136494">
  </linearGradient>
  <linearGradient id="id13" gradientUnits="userSpaceOnUse" x1="0.260039" y1="0.165207" x2="0.261446" y2="0.174187">
   <stop offset="0" style="stop-color:#3C682D"/>
   <stop offset="1" style="stop-color:#88CA68"/>
  </linearGradient>
  <linearGradient id="id14" gradientUnits="userSpaceOnUse" x1="0.285006" y1="0.096568" x2="0.267193" y2="0.0987301">
   <stop offset="0" style="stop-color:#AADA94"/>
   <stop offset="1" style="stop-color:#88CA68"/>
  </linearGradient>
  <linearGradient id="id15" gradientUnits="userSpaceOnUse" xlink:href="#id11" x1="0.26649" y1="0.112537" x2="0.281539" y2="0.110594">
  </linearGradient>
  <radialGradient id="id16" gradientUnits="userSpaceOnUse" cx="0.262394" cy="0.206942" r="0.287342" fx="0.262394" fy="0.206942">
   <stop offset="0" style="stop-color:#CC3399"/>
   <stop offset="1" style="stop-color:#000066"/>
  </radialGradient>
  <radialGradient id="id17" gradientUnits="userSpaceOnUse" cx="0.262394" cy="0.206942" r="0.287342" fx="0.262394" fy="0.206942">
   <stop offset="0" style="stop-color:black"/>
   <stop offset="0.701961" style="stop-color:gray"/>
   <stop offset="1" style="stop-color:white"/>
  </radialGradient>
  <radialGradient id="id18" gradientUnits="userSpaceOnUse" cx="0.270381" cy="0.222896" r="0.123213" fx="0.270381" fy="0.222896">
   <stop offset="0" style="stop-color:#003333"/>
   <stop offset="1" style="stop-color:#669999"/>
  </radialGradient>
  <radialGradient id="id19" gradientUnits="userSpaceOnUse" cx="0.267737" cy="0.190294" r="0.123114" fx="0.267737" fy="0.190294">
   <stop offset="0" style="stop-color:#333300"/>
   <stop offset="0.431373" style="stop-color:#666633"/>
   <stop offset="1" style="stop-color:#999966"/>
  </radialGradient>
  <radialGradient id="id20" gradientUnits="userSpaceOnUse" cx="0.262393" cy="0.181075" r="0.116751" fx="0.262393" fy="0.181075">
   <stop offset="0" style="stop-color:#FEFEFE"/>
   <stop offset="1" style="stop-color:#99CCCC"/>
  </radialGradient>
  <radialGradient id="id21" gradientUnits="userSpaceOnUse" xlink:href="#id20" cx="0.262393" cy="0.157234" r="0.0745222" fx="0.262393" fy="0.157234">
  </radialGradient>
  <radialGradient id="id22" gradientUnits="userSpaceOnUse" cx="0.264633" cy="0.334616" r="0.0382673" fx="0.264633" fy="0.334616">
   <stop offset="0" style="stop-color:#99CCCC"/>
   <stop offset="1" style="stop-color:#336666"/>
  </radialGradient>
 </defs>
 <g id="Layer_x0020_1">
  <metadata id="CorelCorpID_0Corel-Layer"/>
  <g id="_346201328">
   <circle id="_354761752" class="fil0 str0" cx="0.262394" cy="0.206942" r="0.206741"/>
   <circle id="_354753736" class="fil1" cx="0.262394" cy="0.206942" r="0.19677"/>
   <g>
    <g>
     <path id="_354762088" class="fil2" d="M0.260009 0.30997c0.0486296,-0.00454171 0.0369377,0.00799334 0.0409298,0.0161818 0.00900249,0.0184678 -0.00989158,0.0591495 -0.0324816,0.103515 -0.00171841,-0.0163685 -0.0887354,-0.112198 -0.0084482,-0.119696z"/>
     <path id="_354760960" class="fil3" d="M0.244669 0.344371l-0.00198075 -0.00748876c0,0 -0.0115656,-0.0241323 0.0193294,-0.0259296 0.0308949,-0.00179669 0.0303538,0.0132501 0.0275686,0.020485 -0.00278574,0.00723542 -0.000606125,0.0160517 0.00166658,0.0197445 0.00227217,0.00369281 -0.00329296,-0.0047649 -0.00756863,-0.00748718 -0.0042762,-0.00272174 -0.000702386,0.0182811 0.00232718,0.0227228 0.00302904,0.00444174 -0.00681864,-0.0125255 -0.0101026,-0.0100566 -0.00328397,0.00246946 0.00436452,0.0219733 0.00315386,0.0268081 -0.00121013,0.00483419 -0.00310361,-0.0121183 -0.00569207,-0.00500238 -0.00258846,0.00711536 -0.00979003,0.0322241 -0.00979003,0.0322241 0,0 0.00774264,-0.0401555 0.00255408,-0.0360517 -0.00518803,0.00410377 -0.0161464,0.0213498 -0.0161464,0.0213498 0,0 0.0167192,-0.0376226 0.0105474,-0.0314757 -0.00617232,0.0061464 -0.0177998,0.0131798 -0.0177998,0.0131798 0,0 0.0225504,-0.0259475 0.0165722,-0.0228138 -0.00597874,0.00313376 -0.0167864,0.00846512 -0.0167864,0.00846512 0,0 0.0140218,-0.0111366 0.0109928,-0.0155784 -0.00302904,-0.00444121 0.00132015,0.0045105 -0.00942138,0.010284 -0.0107415,0.00577352 0.00255725,-0.00589041 0.000575977,-0.0133792z"/>
     <path id="_354775264" class="fil4" d="M0.280064 0.335429c-0.000519384,-0.000209446 -0.00869837,0.000776961 -0.00174644,-0.00663088 0.0215798,-0.0229952 -0.0287946,-0.0178156 -0.0333586,-0.00879516 -0.00260697,0.00515312 0.0028069,0.015115 0.00919501,0.0182081 -0.00489448,-0.00545777 -0.0126942,-0.016112 -0.00296557,-0.0206294 0.0192442,-0.0089369 0.037355,-0.000767441 0.0274454,0.00701169 -0.00348654,0.00273708 -0.00753531,0.0115899 0.00143016,0.0108357z"/>
    </g>
    <g>
     <path id="_354501560" class="fil5" d="M0.389945 0.237651c-0.0121177,0.0436061 -0.04473,0.0780595 -0.0875501,0.091079 -0.0109161,-0.00467182 -0.0226805,-0.00731898 -0.0366431,-0.00731898 -0.0139626,0 -0.0269689,0.00271328 -0.0378849,0.0073851 -0.0428196,-0.01302 -0.0741905,-0.047539 -0.0863088,-0.0911451l0.248387 0z"/>
     <path id="_354503432" class="fil6" d="M0.388826 0.237651c-0.0121177,0.0436061 -0.0434887,0.077566 -0.0863083,0.090586 -0.0109166,-0.00467182 -0.0239224,-0.00682605 -0.0378849,-0.00682605 -0.0139626,0 -0.0269683,0.00271328 -0.0378844,0.0073851 -0.0428201,-0.01302 -0.0741911,-0.047539 -0.0863088,-0.0911451l0.248386 0z"/>
     <path id="_354502664" class="fil7" d="M0.391063 0.237092c-0.0121177,0.0436061 -0.0457254,0.0781251 -0.088545,0.0911451 -0.0109166,-0.00467182 -0.0239224,-0.0073851 -0.0378849,-0.0073851 -0.0139626,0 -0.0269683,0.00271328 -0.0378844,0.0073851 -0.0428201,-0.01302 -0.0764278,-0.047539 -0.0885455,-0.0911451l0.25286 0z"/>
     <path id="_354502520" class="fil6" d="M0.262393 0.248152c0.073651,0 0.141749,-0.00343682 0.141749,0.0112932 0,0.0147305 0.00208864,0.0480949 -0.140297,0.0480949 -0.142386,0 -0.143201,-0.032772 -0.143201,-0.0475025 0,-0.0147305 0.0680981,-0.0118855 0.141749,-0.0118855z"/>
     <path id="_354501440" class="fil8" d="M0.262393 0.24756c0.073651,0 0.141749,-0.00284551 0.141749,0.011885 0,0.0147305 0.00208864,0.0475031 -0.140297,0.0475031 -0.142386,0 -0.143201,-0.0327725 -0.143201,-0.0475031 0,-0.0147305 0.0680981,-0.011885 0.141749,-0.011885z"/>
     <path id="_354499664" class="fil9" d="M0.262393 0.187711c0.136336,0 0.262393,-0.00526683 0.262393,0.0220009 0,0.0272677 0.00386682,0.0879331 -0.259705,0.0879331 -0.263571,0 -0.265081,-0.0606654 -0.265081,-0.0879331 0,-0.0272677 0.126057,-0.0220009 0.262393,-0.0220009z"/>
     <ellipse id="_354501968" class="fil10" cx="0.262393" cy="0.209712" rx="0.262393" ry="0.0524781"/>
     <ellipse id="_354501248" class="fil11 str1" cx="0.262393" cy="0.209712" rx="0.204554" ry="0.0409104"/>
     <ellipse id="_354503360" class="fil12 str1" cx="0.262393" cy="0.199616" rx="0.135818" ry="0.0271635"/>
     <path id="_354502184" class="fil13" d="M0.262393 0.0453615c0.00110224,0 0.00220077,1.95695e-005 0.00329613,5.50061e-005 0.000340615,1.1107e-005 0.000679643,3.38499e-005 0.00101973,4.81303e-005 0.000744698,3.17343e-005 0.00148887,6.29397e-005 0.00223039,0.000110541 0.000444809,2.85609e-005 0.000886973,6.92865e-005 0.00133072,0.000104194 0.00063733,4.9717e-005 0.00127572,9.73185e-005 0.00191093,0.000158671 0.000471783,4.60147e-005 0.00094145,0.000102079 0.00141165,0.00015444 0.000607183,6.76998e-005 0.00121542,0.000134342 0.00182049,0.00021262 0.000466494,6.02951e-005 0.00093193,0.000129582 0.0013979,0.000196224 0.000602951,8.67404e-005 0.00120643,0.00017401 0.00180727,0.000271328 0.000482361,7.82779e-005 0.000963136,0.000163432 0.00144391,0.000248585 0.000574919,0.00010155 0.00114878,0.000204686 0.00172159,0.000315756 0.000483419,9.4145e-005 0.000965251,0.000194108 0.00144761,0.000295129 0.000579151,0.000121119 0.00115671,0.00024647 0.00173322,0.000377109 0.000469139,0.000106839 0.000937748,0.000218438 0.0014053,0.000331094 0.000575977,0.000139631 0.0011509,0.000284022 0.0017237,0.000433173 0.000471783,0.000123235 0.000942508,0.000248585 0.00141218,0.000378167 0.000565399,0.000156027 0.00112815,0.000317872 0.00169091,0.000483419 0.000469667,0.000138044 0.000938806,0.000276617 0.00140689,0.000421537 0.000559581,0.000172423 0.00111652,0.000353308 0.00167345,0.000536309 0.000464378,0.000151796 0.000927699,0.000303062 0.00138943,0.000461734 0.000568044,0.000194637 0.00113239,0.000398794 0.00169673,0.000602951 0.000444809,0.000160787 0.000890147,0.00031893 0.00133284,0.000486063 0.000568044,0.000214206 0.00113239,0.00043952 0.00169726,0.000663247 0.00043952,0.000174539 0.000880626,0.000345375 0.00131856,0.000525202 0.000606125,0.000249643 0.00120802,0.000510922 0.00180991,0.000771672 0.000378696,0.00016396 0.000759507,0.000322103 0.00113662,0.000490295 0.000678585,0.000303062 0.00135188,0.000620405 0.00202571,0.000937219 0.000311525,0.000146507 0.000625165,0.000286137 0.000935633,0.000435818 0.000959962,0.000462263 0.00191464,0.000938806 0.00286402,0.00142963 0.000338499,0.000175067 0.000672767,0.000361242 0.00100968,0.000540012 0.000628339,0.000332681 0.00125668,0.000663775 0.00187973,0.00100915 0.000389803,0.000215793 0.000775374,0.000442693 0.00116359,0.000662718 0.000556408,0.000316814 0.00111334,0.000631512 0.00166552,0.000957318 0.000431586,0.000254932 0.000858941,0.000520971 0.00128841,0.000781721 0.000504046,0.000306765 0.00100915,0.000610885 0.00151002,0.000925583 0.000444809,0.000279791 0.000885387,0.000568044 0.00132808,0.00085471 0.000477072,0.000308351 0.000955202,0.000616174 0.00142963,0.000932459 0.00044904,0.000299889 0.000894907,0.000606654 0.00134077,0.000913419 0.000463849,0.000317872 0.000926641,0.000636272 0.00138732,0.00096102 0.000447982,0.000316285 0.00089332,0.000638917 0.00133813,0.000962078 0.000454858,0.000330565 0.000909187,0.000662189 0.00136034,0.00099963 0.000433173,0.000323161 0.000863173,0.000650024 0.00129264,0.000979532 0.000454858,0.000349077 0.000909187,0.000700799 0.00136034,0.00105622 0.000435289,0.000343259 0.000870048,0.000689692 0.00130216,0.0010393 0.000430528,0.000348019 0.000858941,0.000700799 0.00128577,0.00105464 0.000440049,0.000365473 0.00087904,0.000732004 0.00131486,0.00110382 0.000424182,0.000361242 0.00084519,0.000727244 0.00126567,0.0010943 0.000426826,0.000372349 0.000852594,0.000746285 0.00127572,0.00112498 0.000423124,0.000378696 0.000842016,0.00076321 0.00126038,0.00114772 0.000419421,0.000385043 0.000838843,0.000769556 0.00125456,0.00116042 0.000408843,0.000384514 0.000812927,0.000776961 0.0012186,0.00116729 0.000416248,0.000401968 0.000834612,0.00080182 0.00124716,0.00121013 0.000399852,0.000394563 0.000794944,0.000798117 0.00119056,0.00119903 0.000413604,0.000418893 0.000829323,0.000834083 0.00123922,0.00125932 0.00037182,0.000385572 0.000737822,0.000780663 0.001107,0.00117152 0.000424711,0.000449569 0.000850479,0.000894907 0.00127043,0.00135188 0.000352251,0.000382927 0.000698683,0.000775903 0.00104829,0.00116412 0.00164595,0.00182842 0.00325752,0.00370921 0.00483313,0.00563971 0.000291427,0.000357011 0.000585498,0.000709261 0.000874808,0.00106997 0.000404612,0.000504575 0.000802349,0.00101973 0.0012022,0.00153171 0.000326334,0.000417835 0.000655842,0.000833554 0.000979003,0.00125615 0.00039139,0.00051198 0.000776432,0.00103189 0.00116359,0.00155022 0.000326863,0.000437404 0.000654255,0.000872693 0.000976887,0.00131433 0.000379225,0.000519913 0.000752631,0.00104617 0.0011271,0.00157138 0.000315756,0.000442164 0.000632041,0.0008838 0.000943566,0.0013302 0.000383985,0.000551119 0.000763738,0.00110858 0.00114243,0.00166552 0.000294071,0.000432115 0.000587613,0.00086423 0.000878511,0.00130058 0.000377109,0.000565928 0.000749987,0.00113715 0.00112181,0.00170995 0.000286666,0.000442164 0.000572275,0.000884858 0.000856297,0.00133072 0.000367589,0.000577564 0.000730946,0.00115883 0.00109272,0.00174274 0.00027503,0.000444809 0.000549003,0.000891205 0.00082086,0.00133972 0.000365473,0.000601365 0.000727244,0.0012059 0.00108584,0.00181361 0.000262866,0.000445338 0.000523616,0.00089332 0.000782779,0.00134183 0.000348548,0.000601894 0.00069551,0.00120537 0.00103771,0.00181361 0.000261808,0.000465436 0.000520442,0.000934575 0.000779077,0.00140371 0.000344846,0.000625165 0.000688105,0.00125139 0.0010266,0.00188343 0.000238007,0.000442693 0.000471254,0.000890147 0.000705559,0.00133601 0.000339557,0.000647379 0.000679643,0.00129476 0.00101285,0.00194849 0.000232189,0.000454858 0.00045856,0.000914476 0.000688105,0.00137304 0.000332152,0.000664304 0.000664833,0.00132808 0.00099011,0.00199926 0.000198868,0.000410959 0.000392447,0.000826678 0.000588671,0.00123975 0.000346962,0.000728302 0.000694452,0.0014566 0.00103348,0.00219284 0.000154969,0.000336383 0.00030412,0.000677527 0.000456974,0.00101497 0.000365473,0.000808166 0.000732004,0.00161528 0.00108796,0.0024319l0.000148622 0.000349606c0.00129159,0.00297509 0.00251336,0.00600994 0.0036706,0.0090924 0.000130111,0.000346962 0.000264452,0.000691279 0.000392976,0.0010393 0.000298831,0.000809753 0.000587084,0.00162585 0.000876924,0.00244248 0.000141746,0.000399852 0.000286666,0.000796531 0.000426297,0.00119797 0.000277146,0.000798646 0.00054583,0.00160311 0.000813456,0.0024081 0.000143333,0.00043 0.000288782,0.000858412 0.000429471,0.00129 0.000250172,0.000766912 0.000491881,0.00154017 0.000733591,0.00231237 0.000153911,0.000491353 0.00030888,0.000982176 0.000459089,0.00147617 0.000226371,0.000743111 0.000445867,0.00149045 0.000664304,0.00223885 0.000150209,0.000514095 0.000300418,0.00102819 0.000447453,0.00154493 0.000215793,0.000760565 0.000425768,0.0015243 0.000633628,0.0022891 0.000138044,0.000508277 0.000274502,0.00101655 0.000409372,0.00152748 0.000200455,0.000761094 0.000396679,0.00152695 0.000589729,0.0022928 0.000134342,0.000534194 0.000266039,0.00106997 0.00039615,0.00160575 0.000186703,0.000764267 0.000368118,0.00153118 0.000546359,0.00230021 0.000122177,0.000525731 0.000240123,0.00105305 0.000358069,0.0015809 0.000176125,0.000788068 0.000350135,0.00157825 0.000517798,0.00237108 0.000107897,0.000510393 0.000212091,0.00102184 0.000315756,0.00153329 0.000165547,0.000812398 0.000330037,0.00162532 0.000486592,0.00244195 9.73185e-005,0.000505633 0.000189348,0.00101391 0.000282964,0.00152113 0.000153382,0.000829852 0.000305178,0.00166023 0.000449569,0.00249484 8.40959e-005,0.000485535 0.000161845,0.000973714 0.000242238,0.00146031 0.000142804,0.000861586 0.00028508,0.0017237 0.000418364,0.00259058 6.82287e-005,0.000445867 0.000129582,0.000894907 0.000195695,0.00134077 0.000133813,0.000911832 0.000268684,0.00182366 0.000391918,0.00274026 4.60147e-005,0.000339557 8.46248e-005,0.000683345 0.000128524,0.00102343 0.000477072,0.00367642 0.000868991,0.00738986 0.00116518,0.0111414 -0.00684403,0.0132184 -0.0627048,0.0235252 -0.130605,0.0235252 -0.0679003,0 -0.123761,-0.0103068 -0.130605,-0.0235252 0.000295658,-0.00375152 0.000689163,-0.00746443 0.00116518,-0.0111414 4.38991e-005,-0.000340086 8.25091e-005,-0.000683874 0.000128524,-0.00102343 0.000123235,-0.000917121 0.000258106,-0.00182842 0.000391918,-0.00274026 6.55842e-005,-0.000446925 0.000127466,-0.000894907 0.000195695,-0.00134077 0.000133284,-0.000866875 0.000275559,-0.00172899 0.000418364,-0.00259058 8.03935e-005,-0.000486592 0.000158143,-0.0009753 0.000242238,-0.00146031 0.000143333,-0.000834612 0.000296187,-0.00166446 0.000449569,-0.00249484 9.30872e-005,-0.00050722 0.000186174,-0.0010155 0.000282964,-0.00152113 0.000156556,-0.000816629 0.000319987,-0.00162903 0.000486063,-0.00244195 0.000104723,-0.000511451 0.000208388,-0.00102343 0.000316285,-0.00153329 0.000167663,-0.000792828 0.000341672,-0.00158301 0.000517798,-0.00237108 0.000117946,-0.000527847 0.00023642,-0.00105464 0.00035754,-0.0015809 0.000178241,-0.000769556 0.000360184,-0.00153541 0.000546359,-0.00230021 0.000130639,-0.000536309 0.000262337,-0.00107156 0.000396679,-0.00160575 0.00019305,-0.000766383 0.000389274,-0.00153065 0.000589729,-0.0022928 0.000134342,-0.000510922 0.000271857,-0.0010192 0.000409372,-0.00152748 0.000207331,-0.000765325 0.000417835,-0.00152906 0.000633628,-0.0022891 0.000146507,-0.00051674 0.000297244,-0.00103084 0.000447453,-0.00154493 0.000218438,-0.0007484 0.000438462,-0.00149574 0.000664304,-0.00223885 0.000150209,-0.000493997 0.000305178,-0.000984292 0.000459089,-0.00147617 0.000241709,-0.000773259 0.000483948,-0.00154546 0.000733591,-0.00231237 0.00014016,-0.000431586 0.000286137,-0.000859999 0.000429471,-0.00129 0.000268155,-0.000804993 0.000536309,-0.00160946 0.000813456,-0.0024081 0.000139102,-0.000401439 0.000284551,-0.000798117 0.000426297,-0.00119797 0.000288782,-0.000816629 0.000578093,-0.00163273 0.000876395,-0.00244248 0.000129053,-0.000348548 0.000262866,-0.000692336 0.000393505,-0.0010393 0.00115724,-0.00308299 0.00237901,-0.00611678 0.00367007,-0.0090924l0.000149151 -0.000349606c0.000355953,-0.000816629 0.000721426,-0.00162427 0.00108796,-0.0024319 0.000152853,-0.000337441 0.000302534,-0.000678585 0.000456974,-0.00101497 0.00033797,-0.000736235 0.000686518,-0.00146454 0.00103295,-0.00219284 0.000196753,-0.000413075 0.000389803,-0.000829323 0.0005892,-0.00123975 0.000324748,-0.00067118 0.000657958,-0.00133443 0.00099011,-0.00199926 0.000229016,-0.000458032 0.000455916,-0.000918179 0.000688105,-0.00137304 0.00033321,-0.000653726 0.000672767,-0.00130111 0.00101285,-0.00194849 0.000234305,-0.000445867 0.000467552,-0.000892791 0.00070503,-0.00133601 0.000338499,-0.000632041 0.000682287,-0.00125826 0.0010266,-0.00188343 0.000258634,-0.000469139 0.000517798,-0.000938277 0.000779606,-0.00140371 0.000342201,-0.00060824 0.000689163,-0.00121172 0.00103718,-0.00181361 0.000259692,-0.000448511 0.000520442,-0.000896494 0.000783308,-0.00134183 0.000358597,-0.000607712 0.000720897,-0.00121225 0.00108584,-0.00181361 0.000271328,-0.000448511 0.00054583,-0.000894907 0.00082086,-0.00133972 0.000361771,-0.000583382 0.000725128,-0.00116518 0.00109272,-0.00174274 0.000283493,-0.000446396 0.00056963,-0.00088856 0.000856297,-0.00133072 0.000371291,-0.000572804 0.000744698,-0.00114349 0.00112181,-0.00170995 0.000290898,-0.000436346 0.000584969,-0.000868462 0.000878511,-0.00130058 0.000379225,-0.000557466 0.000758449,-0.0011144 0.00114243,-0.00166552 0.000311525,-0.000446396 0.00062781,-0.000887502 0.000943037,-0.0013302 0.000374993,-0.000525731 0.000747871,-0.00105146 0.00112762,-0.00157138 0.000322632,-0.000441635 0.000650024,-0.000876395 0.000976887,-0.00131433 0.0003861,-0.000518327 0.000772201,-0.00103824 0.00116359,-0.00155022 0.000323161,-0.000422595 0.000652668,-0.000838314 0.000979003,-0.00125615 0.000399852,-0.00051198 0.000797588,-0.00102713 0.0012022,-0.00153171 0.000288782,-0.000360184 0.000583911,-0.000712964 0.000874808,-0.00106997 0.00157508,-0.00193103 0.00318665,-0.00381129 0.00483313,-0.00563971 0.000349606,-0.000388216 0.000696039,-0.000781192 0.00104829,-0.00116412 0.00041995,-0.000456445 0.000845719,-0.000902312 0.00127043,-0.00135188 0.000368647,-0.000390861 0.000735178,-0.000785952 0.001107,-0.00117152 0.000409901,-0.000425239 0.000825091,-0.00084043 0.00123922,-0.00125932 0.000395621,-0.00040091 0.000790713,-0.000803935 0.00119056,-0.00119903 0.000412546,-0.000408314 0.000830909,-0.000808166 0.00124716,-0.00121013 0.00040567,-0.000390861 0.000809753,-0.000782779 0.0012186,-0.00116729 0.000415719,-0.00039139 0.000835141,-0.000775374 0.00125403,-0.00116042 0.000418893,-0.000384514 0.000837785,-0.000769028 0.00126038,-0.00114772 0.000423124,-0.000378696 0.000849421,-0.000752631 0.00127625,-0.00112498 0.000420479,-0.00036706 0.000841487,-0.000733062 0.00126514,-0.0010943 0.000436346,-0.00037182 0.000875337,-0.00073888 0.00131539,-0.00110382 0.000427355,-0.000354366 0.000855239,-0.000706088 0.00128577,-0.00105464 0.000432115,-0.000349077 0.000866346,-0.000696039 0.00130216,-0.0010393 0.000451685,-0.000355424 0.000905485,-0.000707146 0.00136034,-0.00105622 0.000429471,-0.000329508 0.000859999,-0.000656371 0.00129211,-0.000979532 0.000451685,-0.000337441 0.000906014,-0.000669065 0.00136087,-0.00099963 0.000444809,-0.000323161 0.000890147,-0.000645793 0.00133813,-0.000962078 0.000460147,-0.000325276 0.000923468,-0.000643148 0.00138732,-0.00096102 0.000445867,-0.000306765 0.000891733,-0.000614058 0.00134077,-0.000913419 0.000473899,-0.000316285 0.000952557,-0.000624108 0.00142963,-0.000932459 0.000442164,-0.000286666 0.000883271,-0.000574919 0.00132808,-0.00085471 0.000500344,-0.000314698 0.00100598,-0.00061829 0.00151002,-0.000925583 0.000429471,-0.00026075 0.000856297,-0.000526789 0.00128841,-0.000781721 0.000552177,-0.000326334 0.00110911,-0.000640504 0.00166552,-0.000957318 0.000388216,-0.000220553 0.000773788,-0.000446925 0.00116359,-0.000662718 0.00062305,-0.000345375 0.00125192,-0.000676469 0.0018792,-0.00100915 0.000337441,-0.00017877 0.000671709,-0.000364944 0.00101021,-0.000540012 0.000949384,-0.000490824 0.00190459,-0.000967367 0.00286402,-0.00142963 0.000310467,-0.000150209 0.000624108,-0.000288782 0.000935633,-0.000435818 0.000673825,-0.000316814 0.00134765,-0.000634686 0.00202571,-0.000937219 0.000377109,-0.000168192 0.000757921,-0.000326334 0.00113609,-0.000490295 0.000602423,-0.00026075 0.00120432,-0.000522029 0.00181044,-0.000771672 0.000437404,-0.000179828 0.000878511,-0.000350664 0.00131856,-0.000525202 0.000564341,-0.000224256 0.00112921,-0.00044904 0.00169726,-0.000663247 0.000443222,-0.000167134 0.000888031,-0.000325276 0.00133284,-0.000486063 0.000563812,-0.000204686 0.00112868,-0.000408314 0.0016962,-0.000602951 0.000462263,-0.000158671 0.000926112,-0.000309938 0.00138996,-0.000461734 0.000556937,-0.000183001 0.0011144,-0.000363358 0.00167345,-0.000536309 0.000468081,-0.00014492 0.000937219,-0.000283493 0.00140689,-0.000421537 0.000562226,-0.000165547 0.00112551,-0.000327392 0.00169091,-0.000483419 0.000469667,-0.000129582 0.000940393,-0.000254932 0.00141165,-0.000378167 0.000573333,-0.00014968 0.00114825,-0.000293542 0.00172423,-0.000433173 0.000467552,-0.000113715 0.000936161,-0.000223727 0.0014053,-0.000331094 0.000576506,-0.000131168 0.00115407,-0.000255461 0.00173322,-0.000377109 0.000481832,-0.00010155 0.000964193,-0.000200984 0.00144761,-0.000295129 0.000572275,-0.000111599 0.00114719,-0.000213149 0.00172106,-0.000315756 0.000481303,-8.51537e-005 0.000962078,-0.000170307 0.00144444,-0.000248585 0.000600836,-9.78474e-005 0.00120432,-0.000184588 0.00180727,-0.000271328 0.000465965,-6.71709e-005 0.000930872,-0.0001354 0.0013979,-0.000196224 0.000605067,-7.88068e-005 0.00121278,-0.00014492 0.00182049,-0.00021262 0.000470196,-5.23616e-005 0.000939864,-0.000107897 0.00141165,-0.00015444 0.000635215,-6.18819e-005 0.00127307,-0.000108954 0.00191093,-0.000158671 0.000443751,-3.49077e-005 0.000885387,-7.51045e-005 0.00133072,-0.000104194 0.000740996,-4.91881e-005 0.00148569,-7.82779e-005 0.00223039,-0.000110541 0.000340086,-1.42804e-005 0.000679114,-3.59655e-005 0.00101973,-4.81303e-005 0.00109483,-3.861e-005 0.00219443,-5.50061e-005 0.00329613,-5.50061e-005z"/>
     <path id="_354501104" class="fil6" d="M0.262393 0.141969c0.0610864,0 0.110094,0.0106849 0.124766,0.0219834 0.00133972,0.0101407 0.00508595,0.026094 0.00546094,0.030311 0,0.0145042 -0.0563976,0.0235246 -0.128919,0.0235246 -0.0725218,0 -0.1314,-0.00954726 -0.1314,-0.0240514 0,-0.00183742 0.00452266,-0.0251558 0.00518274,-0.0292067 0.0123764,-0.0119316 0.0615751,-0.022561 0.124909,-0.022561z"/>
     <path id="_354502832" class="fil14" d="M0.262393 0.142528c0.0610864,0 0.110094,0.0101259 0.124766,0.0214243 0.00270746,0.0102317 0.00567092,0.0266917 0.00546094,0.0308701 0,0.0145042 -0.0563976,0.0235252 -0.128919,0.0235252 -0.0725218,0 -0.1314,-0.00954779 -0.1314,-0.0240519 0,-0.00183742 0.00452266,-0.0257148 0.00518274,-0.0297657 0.0123764,-0.0119316 0.0615751,-0.0220019 0.124909,-0.0220019z"/>
     <path id="_354501656" class="fil15" d="M0.262393 0.164425c0.0610864,0 0.114639,0.0119845 0.129311,0.0232834 0.00133972,0.0101407 0.000662718,0.00515894 0.00103718,0.00937537 0,0.0145047 -0.0541101,0.0205358 -0.126632,0.0205358 -0.0725213,0 -0.133978,-0.00740996 -0.133978,-0.0219146 0,-0.00183742 0.00048289,-0.00531655 0.00114349,-0.00936743 0.0123758,-0.0119316 0.0657846,-0.0219125 0.129119,-0.0219125z"/>
     <path id="_354503168" class="fil16" d="M0.262393 0.166662c0.0610864,0 0.114639,0.0119845 0.129311,0.0232834 0.00133972,0.0101402 0.000662718,0.00515894 0.00103718,0.00937537 0,0.0145047 -0.0541101,0.0205358 -0.126632,0.0205358 -0.0725213,0 -0.133978,-0.00740996 -0.133978,-0.0219146 0,-0.00183742 0.00048289,-0.00531655 0.00114349,-0.00936743 0.0123758,-0.0119316 0.0657846,-0.0219125 0.129119,-0.0219125z"/>
     <path id="_354502688" class="fil17" d="M0.259487 0.142077c0.0176919,0 0.032352,0.0110446 0.0366018,0.0223431 0.000387687,0.0101407 0.00100651,0.0257344 0.00111493,0.0299513 0,0.0145042 -0.0163342,0.0235246 -0.037338,0.0235246 -0.0210039,0 -0.0380568,-0.00954726 -0.0380568,-0.0240514 0,-0.00183742 0.000884858,-0.0253737 0.00107632,-0.0294246 0.00358439,-0.0119316 0.0182583,-0.0223431 0.0366018,-0.0223431z"/>
     <path id="_354502040" class="fil18" d="M0.26244 0.142528c0.0176919,0 0.0323526,0.0110446 0.0366018,0.0223431 0.000388216,0.0101407 0.00100651,0.0257344 0.00111493,0.0299513 0,0.0145042 -0.0163342,0.0235252 -0.037338,0.0235252 -0.0210039,0 -0.0380563,-0.00954779 -0.0380563,-0.0240519 0,-0.00183742 0.000884858,-0.0253737 0.00107579,-0.0294246 0.00358439,-0.0119316 0.0182589,-0.0223431 0.0366018,-0.0223431z"/>
     <path id="_354502760" class="fil19" d="M0.26244 0.142528c0.00168932,0 0.00335114,0.000102079 0.00497805,0.000294071 -0.00115143,-9.52029e-005 -0.00231819,-0.000145978 -0.00349871,-0.000145978 -0.0183429,0 -0.0338557,0.010411 -0.0374401,0.0223425 -0.000190935,0.00405088 -0.00107632,0.0275871 -0.00107632,0.0294246 0,0.0127879 0.0140953,0.0217205 0.0316269,0.0236563 -0.018261,-0.0015846 -0.032268,-0.0106585 -0.032268,-0.0238039 0,-0.00183742 0.000885387,-0.0253737 0.00107685,-0.0294246 0.00358386,-0.0119316 0.0182578,-0.0223431 0.0366013,-0.0223431z"/>
     <g>
      <path id="_354500240" class="fil20" d="M0.234069 0.200918c0,0 0.0155789,-0.0243254 0.0241376,-0.0264939 0.00103507,-0.000263395 0.00186703,-0.000296187 0.00313059,-0.000959962 0.00114349,-0.00180515 0.00216058,-0.00159359 0.00131962,-0.00979267 -0.000840959,-0.00819908 0.00804147,-0.00392024 0.00804147,-0.00392024 0,0 0.000150209,0.0092479 0.00300524,0.012855 0.00126197,0.000313641 0.00371185,0.00084995 0.00469615,0.0012863 0.0106511,0.0047173 0.0154229,0.0270254 0.0154229,0.0270254l-0.00704713 0c7.08732e-005,0 -0.00460729,-0.0162733 -0.00852753,-0.0166621 -0.000105781,0.00836992 0.000854181,0.0108976 0.00114825,0.0166621l-0.0235204 0c0,0 -0.000317872,-0.00768816 -0.000105781,-0.0112905 0.000211562,-0.00360184 -0.0103835,0.00472894 -0.0119723,0.0112905 -0.00540329,0 -0.00972867,0 -0.00972867,0z"/>
      <path id="_354500528" class="fil21" d="M0.288675 0.200918l-0.00189877 0c0,0 -0.00425398,-0.0152489 -0.00852753,-0.0166621 -0.000105781,0.00836992 0.000854181,0.0108976 0.00114825,0.0166621l-0.00266251 0c-0.000389803,-0.00547364 -0.000399852,-0.0146459 4.17835e-005,-0.0178648 0.000442164,-0.00321944 0.00663194,-0.00111176 0.0118988,0.0178648z"/>
      <path id="_354502256" class="fil21" d="M0.257197 0.200918l-0.00132068 0c0,0 -0.000317872,-0.00768816 -0.000105781,-0.0112905 0.000211562,-0.00360184 -0.0103835,0.00472894 -0.0119723,0.0112905l-0.00302851 0c0.00403184,-0.00726556 0.0134971,-0.0179838 0.0152901,-0.0142831 0.00179299,0.00370128 0.000789655,0.00713757 0.00113715,0.0142831z"/>
      <path id="_354506912" class="fil22" d="M0.246669 0.183921c0.00403396,-0.0046623 0.00829111,-0.0086751 0.0115381,-0.00949754 0.00103507,-0.000263395 0.00186703,-0.000296187 0.00313059,-0.000959962 0.00114349,-0.00180515 0.00216058,-0.00159359 0.00131962,-0.00979267 -0.000840959,-0.00819908 0.00804147,-0.00392024 0.00804147,-0.00392024 0,0 -0.000519913,0.00821654 0.00233511,0.0118242 0.000163432,0.000344317 0.000785952,0.00127519 0.00178188,0.00134395 -0.00137092,0.00132332 -0.00155339,0.00119691 -0.00568467,0.00216904 -0.0041318,0.000972127 -0.0152489,0.00284181 -0.0191559,0.00618713 -0.000932988,0.000799704 -0.00208864,0.00171524 -0.00330618,0.00264611z"/>
      <path id="_354504176" class="fil23" d="M0.234069 0.200918c0,0 0.0155789,-0.0243254 0.0241376,-0.0264939 0.00103507,-0.000263395 0.00186703,-0.000296187 0.00313059,-0.000959962 0.00114349,-0.00180515 0.00216058,-0.00159359 0.00131962,-0.00979267 -0.000437933,-0.00426985 0.00176125,-0.00515523 0.00396943,-0.00502354 -0.00191358,0.000124822 -0.00417676,-3.22632e-005 -0.00356323,0.00595071 0.00061353,0.00598244 -0.000203099,0.0070868 -0.00134659,0.00889195 -0.00126302,0.000663775 -0.00169778,0.000670122 -0.00273285,0.000933517 -0.00855874,0.00216851 -0.0241376,0.0264939 -0.0241376,0.0264939l-0.000776961 0zm0.0223674 0l-0.000560639 0c0,0 -0.000232189,-0.00927064 -0.000105781,-0.0112905 1.6925e-005,-0.000277675 0.000209446,0.000826678 0.000292484,0.00297932 2.53874e-005,0.000666949 -0.000279791,0.00385572 0.000373936,0.00831121z"/>
      <path id="_354507032" class="fil24" d="M0.255323 0.0575718l0 0c0.0135754,-0.00164754 0.0260306,0.00811128 0.0276781,0.0216867 0.002452,0.0202036 0.00195007,0.0383467 0.00735601,0.0606114 0.00165124,0.013604 -0.00812504,0.0260316 -0.0217205,0.0276818 -0.0135754,0.00164807 -0.0259957,-0.00811499 -0.0276437,-0.0216904 -0.000638388,-0.0225181 -0.00404506,-0.0415042 -0.00735601,-0.0606114 -0.00164807,-0.0135754 0.00811128,-0.02603 0.0216862,-0.0276781z"/>
      <path id="_354506072" class="fil25" d="M0.255321 0.0575723l0 0c-0.00190776,0.000231131 -0.00374041,0.000676469 -0.00547575,0.00130798 0.0190908,-0.00680912 0.0252732,0.00949543 0.0266891,0.0211631 0.000584969,0.00833871 0.00114667,0.01666 0.00197863,0.0251923 0.000701857,0.00720104 -0.000651082,0.0062141 0.0037658,0.0125742 0.00148464,0.0021373 0.00244513,0.0123367 0.00265775,0.0138975 0.001107,0.00812609 -0.000425768,0.0101264 -0.00028032,0.0121913 7.61623e-005,0.00108637 0.000446925,0.00217486 0.000547945,0.00259481 0.00141641,0.0116698 -0.00826467,0.0194838 -0.0221394,0.0210927 0.0157667,0.00168668 0.0292209,-0.0118131 0.027291,-0.0277162 -0.00476649,-0.0220172 -0.00600095,-0.0412667 -0.00735654,-0.0606114 -0.00164754,-0.0135754 -0.0141027,-0.0233337 -0.0276781,-0.0216862z"/>
      <path id="_354505880" class="fil21" d="M0.255323 0.0575718l5.28905e-007 0c0.00190776,-0.00023166 0.00379331,-0.000237478 0.00563019,-3.96679e-005 -0.0106167,0.00386206 -0.0176263,0.014702 -0.0162104,0.0263696 0.00142699,0.00823611 0.00287248,0.01645 0.00410589,0.0249342 0.00104088,0.00715978 -0.0025234,0.00644153 -0.00529116,0.0136738 -0.000929815,0.00243032 0.000577564,0.0125631 0.000744169,0.0141297 0.000868991,0.00815518 0.00466177,0.00982864 0.00501508,0.0118686 0.000185646,0.00107262 8.56826e-005,0.00221823 8.83271e-005,0.00265034 0.00141641,0.0116698 0.0108595,0.016843 0.0247157,0.0150854 -0.0149056,0.00540964 -0.031198,-0.00447982 -0.033128,-0.0203824 -0.000638917,-0.0225186 -0.00404559,-0.0415042 -0.00735654,-0.060612 -0.00164754,-0.0135749 0.00811128,-0.02603 0.0216862,-0.0276776z"/>
      <g>
       <path id="_354505760" class="fil26" d="M0.285533 0.107834c-0.00411752,-0.0016121 -0.0197419,-0.00133707 -0.0182319,0.0145147 0.00107262,0.0112636 0.0199878,0.00345269 0.0182319,-0.0145147z"/>
       <path id="_354504416" class="fil27" d="M0.285533 0.108795c-0.00385677,-0.000829323 -0.0165574,0.00381446 -0.0172978,0.01366 -0.000737822,0.00980431 0.0172397,0.00164965 0.0172978,-0.01366z"/>
       <path id="_354504896" class="fil28" d="M0.276717 0.111995c-0.00116095,0.000590258 -0.00485059,0.00339451 -0.0048929,0.00467605 -4.23124e-005,0.00127678 0.00515259,-0.00287777 0.0048929,-0.00467605z"/>
       <g>
        <path id="_354505184" class="fil29" d="M0.244837 0.113456c0.00365949,-0.00268684 0.0188877,-0.00667372 0.0207526,0.0091289 0.00132596,0.0112281 -0.018682,0.00879569 -0.0207526,-0.0091289z"/>
        <path id="_354503576" class="fil30" d="M0.245039 0.11439c0.00357064,-0.00185593 0.0168784,-0.000804993 0.0196668,0.00855292 0.00277675,0.00931877 -0.0163929,0.00629608 -0.0196668,-0.00855292z"/>
        <path id="_354505592" class="fil28" d="M0.254272 0.115096c0.00125139,0.000257048 0.00542339,0.00197493 0.00573386,0.00320781 0.00030888,0.00122812 -0.00560798,-0.00139102 -0.00573386,-0.00320781z"/>
       </g>
      </g>
      <path id="_354504488" class="fil31" d="M0.259596 0.0574253c-0.00575396,0.00108849 -0.0119908,0.00278204 -0.0182229,0.0113196 -0.00675147,0.0092479 -0.00512509,0.0207907 -0.00320516,0.0356154 0.00191992,0.0148247 0.000953615,0.0110261 0.000590258,0.0132946 -0.00140847,-0.0111837 -0.00327974,-0.0217755 -0.00512138,-0.0324055 -0.00164754,-0.0135749 0.00811128,-0.02603 0.0216862,-0.0276776l5.28905e-007 0c0.00144074,-0.000174539 0.00286878,-0.000220024 0.00427249,-0.000146507z"/>
      <g>
       <path id="_354505952" class="fil32" d="M0.280351 0.134682c0.00394034,-0.000544243 0.00377374,-0.00340033 0.00377374,-0.00340033 -0.000211562,7.35178e-005 0.00116306,-0.00287037 -0.0170207,-0.000445867 -0.0181837,0.0024245 -0.015974,0.0050045 -0.015974,0.0050045 0,0 0.000438462,0.00281853 0.00437827,0.00227429 0.0117094,-0.00161792 0.0131338,-0.00181467 0.0248427,-0.00343259z"/>
       <path id="_354500048" class="fil33" d="M0.251099 0.135552c0,0 0.000437933,0.00281853 0.00437827,0.00227429 0.00394087,-0.000544243 0.0164077,-0.00226689 0.0164077,-0.00226689m0.0122087 -0.00456603c0,0 0.000166605,0.00285609 -0.00377374,0.00340033 -0.00394034,0.000544243 -0.0164077,0.00226689 -0.0164077,0.00226689"/>
       <path id="_354506240" class="fil34" d="M0.255447 0.137537l0.00849157 -0.00093193 0.00797324 -0.00110171 0.00837785 -0.00139842c0.00271011,-0.000431586 0.00333157,-0.0012022 0.0040567,-0.00312371 0,8.99138e-006 0.000179828,0.00312371 -0.00399535,0.00370075 -0.00278468,0.000640504 -0.00556937,0.00128154 -0.00835352,0.00192204 -0.00252023,0.000833025 -0.0051748,0.00121013 -0.00797377,0.00110171l-0.00851484 0.000408314c-0.00417517,0.000576506 -0.00459883,-0.00226371 -0.00459988,-0.00227217 0.000837256,0.00155022 0.00152801,0.00208441 0.004538,0.00169514z"/>
       <path id="_354506264" class="fil35" d="M0.273691 0.137855c0.00175226,-0.000242238 0.00211562,0.00258687 0.00211562,0.00258687 -0.000101021,-3.01476e-005 -0.00435606,0.00257577 -0.00722272,0.00305971 -0.00286719,0.000483419 -0.00745174,-0.00103242 -0.00745174,-0.00103242 0,0 -0.000242238,-0.00284551 0.00151002,-0.00308775 0.0052076,-0.00071931 0.00584122,-0.00080658 0.0110488,-0.00152642z"/>
      </g>
      <g>
       <g>
        <path id="_354503672" class="fil36" d="M0.269994 0.128437c-0.000472841,-0.00010155 -0.00202941,0.000467552 -0.00212038,0.00167398 -8.99138e-005,0.00120167 0.00211297,0.000202571 0.00212038,-0.00167398z"/>
        <path id="_354506312" class="fil37" d="M0.269092 0.129098c-6.34686e-006,-0.000680172 -0.00118157,0.000345375 -0.00116042,0.00105199 3.12054e-005,0.00103454 0.00116624,-0.00037182 0.00116042,-0.00105199z"/>
       </g>
       <g>
        <path id="_354507200" class="fil36" d="M0.26422 0.129234c0.000437933,-0.000227429 0.00206855,-9.83763e-005 0.00241022,0.00104829 0.000340615,0.00114191 -0.00200878,0.000771672 -0.00241022,-0.00104829z"/>
        <path id="_354507392" class="fil37" d="M0.265235 0.129631c-0.000137515,-0.00066166 0.00121965,1.42804e-005 0.00134765,0.000706088 0.000186703,0.00101285 -0.00121066,-4.38991e-005 -0.00134765,-0.000706088z"/>
       </g>
      </g>
      <path id="_354505640" class="fil36" d="M0.290187 0.139158c5.65928e-005,0.000236949 0.000112657,0.000473899 0.000170307,0.000711906 0.00165124,0.013604 -0.00812504,0.0260316 -0.0217205,0.0276818 -0.0135749,0.00164754 -0.0259957,-0.00811551 -0.0276432,-0.0216904 -7.93357e-006,-0.000276617 -1.6396e-005,-0.000552177 -2.53874e-005,-0.000827207 0.0025234,0.0125689 0.0146274,0.0231755 0.0275581,0.0216063 0.0129185,-0.00156767 0.0221664,-0.0146898 0.0216608,-0.0274824z"/>
      <path id="_354507176" class="fil23" d="M0.256126 0.0574893c-0.0141477,0.00177659 -0.0235357,0.0143846 -0.021921,0.0276913 0.00331147,0.0191077 0.00703602,0.0380547 0.00767441,0.0605728 0.00161528,0.0133078 0.0127175,0.0239091 0.0275575,0.0216867 -0.0138356,0.00213307 -0.0267578,-0.00768604 -0.028444,-0.0215788 -0.000638917,-0.0225186 -0.00404559,-0.0415042 -0.00735654,-0.060612 -0.00168826,-0.013907 0.00856403,-0.026524 0.0224896,-0.0277601z"/>
     </g>
     <path id="_354502856" class="fil6" d="M0.269995 0.198146c0.0629783,-0.000769028 0.0674666,0.0229814 0.121971,-0.00892104 0.00135664,0.0101407 0.000651611,0.00587296 0.00103084,0.0100894 0,0.0145047 -0.0570979,0.0235252 -0.130521,0.0235252 -0.0734231,0 -0.130688,-0.00902047 -0.130688,-0.0235252 0,-0.00183742 0.000168192,-0.00443116 0.000836727,-0.00848205 0.0551389,0.0357079 0.0743915,0.00808272 0.13737,0.0073137z"/>
     <path id="_359581656" class="fil38" d="M0.269995 0.198705c0.0629783,-0.000769028 0.0674666,0.0229814 0.121971,-0.00892104 0.00135664,0.0101407 0.000651611,0.00587296 0.00103084,0.0100899 0,0.0145042 -0.0570979,0.0235252 -0.130521,0.0235252 -0.0734231,0 -0.130688,-0.009021 -0.130688,-0.0235252 0,-0.00183742 0.000168192,-0.00443169 0.000836727,-0.00848205 0.0551389,0.0357074 0.0743915,0.00808219 0.13737,0.00731317z"/>
     <path id="_359581848" class="fil12" d="M0.132386 0.192917l-0.132078 0.0167589 0.131565 -0.011181 0.000513038 -0.00557783zm0.259985 -0.000435818l0.132414 0.0172312 -0.131901 -0.0116534 -0.000513038 -0.00557783zm-0.131698 0.0309166l0.0107272 -5.65928e-005 -0.00418046 0.0388401 -0.00654678 -0.0387835z"/>
     <path id="_359582040" class="fil39" d="M0.132301 0.194296l-0.132301 0.0154165 0.131788 -0.00983869 0.000512509 -0.00557783zm0.260184 0l0.132301 0.0154165 -0.131788 -0.00983869 -0.000512509 -0.00557783zm-0.130628 0.0291019l0.0107272 -5.65928e-005 -0.00536362 0.0388401 -0.00536362 -0.0387835z"/>
     <g>
      <path id="_359582304" class="fil40 str2" d="M0.436817 0.230112c0.00546464,0 0.00961708,0.00251864 0.00961708,0.00113979 0,-0.00137885 -0.00443011,-0.00702756 -0.00989422,-0.00702756 -0.00546412,0 -0.00989422,0.0056487 -0.00989422,0.00702756 0,0.00137885 0.00470725,-0.00113979 0.0101714,-0.00113979z"/>
      <path id="_359582496" class="fil41" d="M0.43654 0.231352c0.00546412,0 0.00989422,-0.00117893 0.00989422,0 0,0.0011784 -0.00443011,0.00213466 -0.00989422,0.00213466 -0.00546412,0 -0.00989422,-0.00095626 -0.00989422,-0.00213466 0,-0.00117893 0.00443011,0 0.00989422,0z"/>
      <ellipse id="_359582688" class="fil12" cx="0.43654" cy="0.231252" rx="0.00989404" ry="0.00203428"/>
     </g>
     <g>
      <path id="_359582856" class="fil40 str2" d="M0.352918 0.245979c0.00546412,0 0.00961655,0.00251864 0.00961655,0.00113979 0,-0.00137885 -0.00442958,-0.00702756 -0.00989369,-0.00702756 -0.00546412,0 -0.00989422,0.0056487 -0.00989422,0.00702756 0,0.00137885 0.00470725,-0.00113979 0.0101714,-0.00113979z"/>
      <path id="_359583048" class="fil41" d="M0.352641 0.24722c0.00546412,0 0.00989369,-0.00117893 0.00989369,0 0,0.0011784 -0.00442958,0.00213466 -0.00989369,0.00213466 -0.00546412,0 -0.00989422,-0.00095626 -0.00989422,-0.00213466 0,-0.00117893 0.00443011,0 0.00989422,0z"/>
      <ellipse id="_359583240" class="fil12" cx="0.352641" cy="0.247119" rx="0.00989404" ry="0.00203428"/>
     </g>
     <g>
      <path id="_359583408" class="fil40 str2" d="M0.0894748 0.230112c-0.00546412,0 -0.00961655,0.00251864 -0.00961655,0.00113979 0,-0.00137885 0.00442958,-0.00702756 0.00989369,-0.00702756 0.00546412,0 0.00989422,0.0056487 0.00989422,0.00702756 0,0.00137885 -0.00470725,-0.00113979 -0.0101714,-0.00113979z"/>
      <path id="_359583600" class="fil41" d="M0.089752 0.231352c-0.00546412,0 -0.00989369,-0.00117893 -0.00989369,0 0,0.0011784 0.00442958,0.00213466 0.00989369,0.00213466 0.00546412,0 0.00989422,-0.00095626 0.00989422,-0.00213466 0,-0.00117893 -0.00443011,0 -0.00989422,0z"/>
      <ellipse id="_359583792" class="fil12" cx="0.0897521" cy="0.231252" rx="0.00989404" ry="0.00203428"/>
     </g>
     <g>
      <path id="_359583960" class="fil40 str2" d="M0.173374 0.245979c-0.00546412,0 -0.00961655,0.00251864 -0.00961655,0.00113979 0,-0.00137885 0.00442958,-0.00702756 0.00989369,-0.00702756 0.00546412,0 0.00989422,0.0056487 0.00989422,0.00702756 0,0.00137885 -0.00470725,-0.00113979 -0.0101714,-0.00113979z"/>
      <path id="_359584152" class="fil41" d="M0.173651 0.24722c-0.00546412,0 -0.00989369,-0.00117893 -0.00989369,0 0,0.0011784 0.00442958,0.00213466 0.00989369,0.00213466 0.00546412,0 0.00989422,-0.00095626 0.00989422,-0.00213466 0,-0.00117893 -0.00443011,0 -0.00989422,0z"/>
      <ellipse id="_359584344" class="fil12" cx="0.173651" cy="0.247119" rx="0.00989404" ry="0.00203428"/>
     </g>
     <g>
      <path id="_359584512" class="fil40 str2" d="M0.426176 0.185387c0.00512932,0 0.00902735,0.00236473 0.00902735,0.0010705 0,-0.00129423 -0.00415825,-0.00659703 -0.00928757,-0.00659703 -0.00512985,0 -0.0092881,0.0053028 -0.0092881,0.00659703 0,0.00129423 0.004419,-0.0010705 0.00954832,-0.0010705z"/>
      <path id="_359584704" class="fil41" d="M0.425915 0.186552c0.00512932,0 0.00928757,-0.00110647 0.00928757,0 0,0.00110647 -0.00415825,0.00200402 -0.00928757,0.00200402 -0.00512985,0 -0.0092881,-0.000897551 -0.0092881,-0.00200402 0,-0.00110647 0.00415825,0 0.0092881,0z"/>
      <ellipse id="_359584896" class="fil12" cx="0.425915" cy="0.186458" rx="0.00928778" ry="0.00190963"/>
     </g>
     <g>
      <path id="_359585064" class="fil40 str2" d="M0.100116 0.185387c-0.00512932,0 -0.00902735,0.00236473 -0.00902735,0.0010705 0,-0.00129423 0.00415825,-0.00659703 0.00928757,-0.00659703 0.00512985,0 0.0092881,0.0053028 0.0092881,0.00659703 0,0.00129423 -0.004419,-0.0010705 -0.00954832,-0.0010705z"/>
      <path id="_359585256" class="fil41" d="M0.100377 0.186552c-0.00512932,0 -0.00928757,-0.00110647 -0.00928757,0 0,0.00110647 0.00415825,0.00200402 0.00928757,0.00200402 0.00512985,0 0.0092881,-0.000897551 0.0092881,-0.00200402 0,-0.00110647 -0.00415825,0 -0.0092881,0z"/>
      <ellipse id="_359585448" class="fil12" cx="0.100377" cy="0.186458" rx="0.00928778" ry="0.00190963"/>
     </g>
     <path id="_359585040" class="fil42" d="M0.215048 0.0698472c0,0 -0.0482774,0.0246887 -0.0512953,0.0760956 0.00449834,-0.0012223 0.0116073,-0.00287195 0.0116073,-0.00287195 0,0 -0.0038975,-0.0440519 0.039688,-0.0732237z"/>
     <path id="_359585736" class="fil43" d="M0.306743 0.0698472c0,0 0.0482774,0.0246887 0.0512948,0.0760956 -0.00449834,-0.0012223 -0.0116073,-0.00287195 -0.0116073,-0.00287195 0,0 0.0038975,-0.0440519 -0.0396874,-0.0732237z"/>
     <path id="_359585928" class="fil44" d="M0.132323 0.200746c-0.000198868,-0.000290369 -0.000383456,-0.00057968 -0.000534723,-0.000872693 0.000295658,-0.00375152 0.000689163,-0.00746443 0.00116518,-0.0111414 4.38991e-005,-0.000340086 8.25091e-005,-0.000683874 0.000128524,-0.00102343 0.000123235,-0.000917121 0.000258106,-0.00182842 0.000391918,-0.00274026 6.55842e-005,-0.000446925 0.000127466,-0.000894907 0.000195695,-0.00134077 0.000133284,-0.000866875 0.000275559,-0.00172899 0.000418364,-0.00259058 8.03935e-005,-0.000486592 0.000158143,-0.0009753 0.000242238,-0.00146031 0.000143333,-0.000834612 0.000296187,-0.00166446 0.000449569,-0.00249484 9.30872e-005,-0.00050722 0.000186174,-0.0010155 0.000282964,-0.00152113 0.000156556,-0.000816629 0.000319987,-0.00162903 0.000486063,-0.00244195 0.000104723,-0.000511451 0.000208388,-0.00102343 0.000316285,-0.00153329 0.000167663,-0.000792828 0.000341672,-0.00158301 0.000517798,-0.00237108 0.000117946,-0.000527847 0.00023642,-0.00105464 0.00035754,-0.0015809 0.000178241,-0.000769556 0.000360184,-0.00153541 0.000546359,-0.00230021 0.000130639,-0.000536309 0.000262337,-0.00107156 0.000396679,-0.00160575 0.00019305,-0.000766383 0.000389274,-0.00153065 0.000589729,-0.0022928 0.000134342,-0.000510922 0.000271857,-0.0010192 0.000409372,-0.00152748 0.000207331,-0.000765325 0.000417835,-0.00152906 0.000633628,-0.0022891 0.000146507,-0.00051674 0.000297244,-0.00103084 0.000447453,-0.00154493 0.000218438,-0.0007484 0.000438462,-0.00149574 0.000664304,-0.00223885 0.000150209,-0.000493997 0.000305178,-0.000984292 0.000459089,-0.00147617 0.000241709,-0.000773259 0.000483948,-0.00154546 0.000733591,-0.00231237 0.00014016,-0.000431586 0.000286137,-0.000859999 0.000429471,-0.00129 0.000268155,-0.000804993 0.000536309,-0.00160946 0.000813456,-0.0024081 0.000139102,-0.000401439 0.000284551,-0.000798117 0.000426297,-0.00119797 0.000288782,-0.000816629 0.000578093,-0.00163273 0.000876395,-0.00244248 0.000129053,-0.000348548 0.000262866,-0.000692336 0.000393505,-0.0010393 0.00115724,-0.00308299 0.00237901,-0.00611678 0.00367007,-0.0090924l0.000149151 -0.000349606c0.000355953,-0.000816629 0.000721426,-0.00162427 0.00108796,-0.0024319 0.000152853,-0.000337441 0.000302534,-0.000678585 0.000456974,-0.00101497 0.00033797,-0.000736235 0.000686518,-0.00146454 0.00103295,-0.00219284 0.000196753,-0.000413075 0.000389803,-0.000829323 0.0005892,-0.00123975 0.000324748,-0.00067118 0.000657958,-0.00133443 0.00099011,-0.00199926 0.000229016,-0.000458032 0.000455916,-0.000918179 0.000688105,-0.00137304 0.00033321,-0.000653726 0.000672767,-0.00130111 0.00101285,-0.00194849 0.000234305,-0.000445867 0.000467552,-0.000892791 0.00070503,-0.00133601 0.000338499,-0.000632041 0.000682287,-0.00125826 0.0010266,-0.00188343 0.000258634,-0.000469139 0.000517798,-0.000938277 0.000779606,-0.00140371 0.000342201,-0.00060824 0.000689163,-0.00121172 0.00103718,-0.00181361 0.000259692,-0.000448511 0.000520442,-0.000896494 0.000783308,-0.00134183 0.000358597,-0.000607712 0.000720897,-0.00121225 0.00108584,-0.00181361 0.000271328,-0.000448511 0.00054583,-0.000894907 0.00082086,-0.00133972 0.000361771,-0.000583382 0.000725128,-0.00116518 0.00109272,-0.00174274 0.000283493,-0.000446396 0.00056963,-0.00088856 0.000856297,-0.00133072 0.000371291,-0.000572804 0.000744698,-0.00114349 0.00112181,-0.00170995 0.000290898,-0.000436346 0.000584969,-0.000868462 0.000878511,-0.00130058 0.000379225,-0.000557466 0.000758449,-0.0011144 0.00114243,-0.00166552 0.000311525,-0.000446396 0.00062781,-0.000887502 0.000943037,-0.0013302 0.000374993,-0.000525731 0.000747871,-0.00105146 0.00112762,-0.00157138 0.000322632,-0.000441635 0.000650024,-0.000876395 0.000976887,-0.00131433 0.0003861,-0.000518327 0.000772201,-0.00103824 0.00116359,-0.00155022 0.000323161,-0.000422595 0.000652668,-0.000838314 0.000979003,-0.00125615 0.000399852,-0.00051198 0.000797588,-0.00102713 0.0012022,-0.00153171 0.000288782,-0.000360184 0.000583911,-0.000712964 0.000874808,-0.00106997 0.00157508,-0.00193103 0.00318665,-0.00381129 0.00483313,-0.00563971 0.000349606,-0.000388216 0.000696039,-0.000781192 0.00104829,-0.00116412 0.00041995,-0.000456445 0.000845719,-0.000902312 0.00127043,-0.00135188 0.000368647,-0.000390861 0.000735178,-0.000785952 0.001107,-0.00117152 0.000409901,-0.000425239 0.000825091,-0.00084043 0.00123922,-0.00125932 0.000395621,-0.00040091 0.000790713,-0.000803935 0.00119056,-0.00119903 0.000412546,-0.000408314 0.000830909,-0.000808166 0.00124716,-0.00121013 0.00040567,-0.000390861 0.000809753,-0.000782779 0.0012186,-0.00116729 0.000415719,-0.00039139 0.000835141,-0.000775374 0.00125403,-0.00116042 0.000418893,-0.000384514 0.000837785,-0.000769028 0.00126038,-0.00114772 0.000423124,-0.000378696 0.000849421,-0.000752631 0.00127625,-0.00112498 0.000420479,-0.00036706 0.000841487,-0.000733062 0.00126514,-0.0010943 0.000436346,-0.00037182 0.000875337,-0.00073888 0.00131539,-0.00110382 0.000427355,-0.000354366 0.000855239,-0.000706088 0.00128577,-0.00105464 0.000432115,-0.000349077 0.000866346,-0.000696039 0.00130216,-0.0010393 0.000451685,-0.000355424 0.000905485,-0.000707146 0.00136034,-0.00105622 0.000429471,-0.000329508 0.000859999,-0.000656371 0.00129211,-0.000979532 0.000451685,-0.000337441 0.000906014,-0.000669065 0.00136087,-0.00099963l0.0005215 -0.000377638 -0.000314169 0.000239065c-0.000441107,0.00033797 -0.000880626,0.000680172 -0.00131909,0.00102449 -0.000464907,0.000364415 -0.000927699,0.000732533 -0.0013889,0.00110382 -0.000445338,0.000359655 -0.00088856,0.000721955 -0.00132967,0.0010869 -0.00043952,0.000364944 -0.000876395,0.000732004 -0.00131274,0.0011033 -0.000449569,0.000380811 -0.000897551,0.000764796 -0.00134236,0.00115354 -0.000432644,0.000378167 -0.000862644,0.000760036 -0.00129211,0.00114455 -0.000435818,0.000389274 -0.000871106,0.000779606 -0.00130269,0.00117628 -0.000431586,0.000395621 -0.00085947,0.000797588 -0.00128683,0.00120008 -0.000427355,0.000402497 -0.000856297,0.000803935 -0.00127995,0.00121278 -0.000417835,0.000402497 -0.00083038,0.000811869 -0.00124451,0.00122071 -0.000425239,0.000420479 -0.000852066,0.000838314 -0.0012736,0.00126514 -0.000408314,0.000413075 -0.000810811,0.000834612 -0.00121489,0.00125298 -0.000423124,0.000438462 -0.000846777,0.000872693 -0.00126567,0.00131697 -0.000379225,0.000404083 -0.00075316,0.0008161 -0.00113027,0.00122547 -0.000433173,0.000469667 -0.000868462,0.000936161 -0.00129687,0.00141323 -0.000359655,0.000400381 -0.000712964,0.00081134 -0.00106997,0.00121701 -0.00168086,0.00191252 -0.00332628,0.00387793 -0.00493468,0.00589676 -0.000296187,0.000373936 -0.000597662,0.000742053 -0.000892262,0.00111863 -0.000413604,0.000527847 -0.000819273,0.00106627 -0.00122759,0.00160152 -0.00033321,0.000437404 -0.000669593,0.000871635 -0.00099963,0.00131327 -0.000399323,0.000535781 -0.000793357,0.00107897 -0.00118792,0.00162056 -0.000333739,0.00045856 -0.000668007,0.000913419 -0.000997514,0.00137515 -0.000387687,0.000542656 -0.000768499,0.00109325 -0.0011509,0.00164225 -0.000322103,0.000463321 -0.000645264,0.000923468 -0.000962607,0.00139102 -0.000392447,0.000575977 -0.000779606,0.00115883 -0.00116676,0.00174115 -0.00029936,0.000452742 -0.000599778,0.000904427 -0.000896494,0.00136034 -0.000385043,0.000591844 -0.000766383,0.00118898 -0.00114561,0.0017877 -0.000293013,0.000462792 -0.000584969,0.000924526 -0.00087428,0.00139155 -0.000375522,0.000604009 -0.000746285,0.00121172 -0.00111546,0.00182261 -0.000280848,0.000464378 -0.000560639,0.000930872 -0.000838314,0.00140001 -0.00037182,0.000628868 -0.000742053,0.00126091 -0.00110858,0.00189665 -0.000268155,0.000465436 -0.000534194,0.000933517 -0.000798646,0.00140266 -0.000356482,0.000629397 -0.00070979,0.00126038 -0.0010594,0.00189665 -0.000267097,0.000485535 -0.000532078,0.000976887 -0.000795473,0.00146771 -0.000351722,0.000653197 -0.000702914,0.00130798 -0.00104829,0.00196858 -0.000242767,0.000463849 -0.000480774,0.000930872 -0.000719839,0.00139684 -0.00034749,0.000676998 -0.000694452,0.00135347 -0.00103454,0.00203734 -0.000236949,0.000476014 -0.00046861,0.000957318 -0.000702386,0.00143598 -0.000339028,0.000694981 -0.000679114,0.00138838 -0.00101074,0.00209023 -0.000203099,0.000428942 -0.00040091,0.000863701 -0.000601365,0.00129582 -0.000353837,0.000762152 -0.00070979,0.00152325 -0.00105517,0.0022928 -0.000157085,0.000351722 -0.000310467,0.000708732 -0.000466494,0.00106151 -0.000373407,0.000844132 -0.000746814,0.00168932 -0.00111017,0.00254245l-0.000152325 0.000364944c-0.00131803,0.0031126 -0.00256519,0.00628339 -0.00374676,0.00950759 -0.000133284,0.000362829 -0.00027027,0.000721955 -0.000401439,0.00108637 -0.000305178,0.000846777 -0.000600307,0.00170043 -0.000895436,0.00255408 -0.000144391,0.000417835 -0.000292484,0.000833025 -0.000435289,0.00125245 -0.000282964,0.00083567 -0.000556408,0.00167663 -0.00083038,0.00251812 -0.000145978,0.00044904 -0.000295129,0.000897022 -0.000437933,0.00134818 -0.000255461,0.000802349 -0.000502988,0.00160999 -0.000749458,0.00241762 -0.000156556,0.000514624 -0.000314698,0.00102766 -0.00046861,0.00154334 -0.000230602,0.00077749 -0.000454858,0.00155921 -0.000678585,0.00234093 -0.000152325,0.000538425 -0.000306765,0.00107526 -0.000455916,0.00161528 -0.000220553,0.000795473 -0.000435289,0.00159306 -0.000646851,0.00239382 -0.000140689,0.000531549 -0.000280848,0.0010631 -0.000417835,0.00159676 -0.000205215,0.000797059 -0.00040567,0.00159623 -0.000602423,0.00239753 -0.000136986,0.000558523 -0.000271857,0.00111758 -0.000404612,0.00167874 -0.000190406,0.000800233 -0.00037658,0.00160099 -0.000557995,0.00240493 -0.000123764,0.00055059 -0.000244883,0.00110118 -0.000365473,0.00165283 -0.000179828,0.000825091 -0.000357011,0.00165071 -0.000528376,0.00248003 -0.000110541,0.000532607 -0.000215793,0.00106786 -0.000322632,0.00160258 -0.000169778,0.00084995 -0.000336912,0.00169937 -0.00049717,0.00255302 -9.83763e-005,0.000528376 -0.000193579,0.00105993 -0.000288253,0.00159042 -0.000156556,0.000867933 -0.000312583,0.00173587 -0.000459089,0.00260909 -8.56826e-005,0.000506691 -0.000165018,0.00101761 -0.000247527,0.00152589 -0.00014492,0.000901783 -0.000290898,0.00180304 -0.000426826,0.00270905 -6.92865e-005,0.000465965 -0.000132755,0.000935104 -0.000199926,0.0014016 -0.000136457,0.000954144 -0.000274502,0.0019067 -0.000400381,0.00286508 -4.60147e-005,0.000355953 -8.62115e-005,0.000714021 -0.000130639,0.0010705 -0.000319987,0.00253081 -0.00060348,0.00507854 -0.000846248,0.00764215z"/>
     <rect id="_359586120" class="fil41" x="0.265226" y="0.262186" width="0.00310678" height="0.0354573"/>
     <rect id="_359586264" class="fil12" x="0.265743" y="0.262186" width="0.00310678" height="0.0354573"/>
     <polygon id="_359586408" class="fil41" points="0.0763548,0.246729 0.0794616,0.247435 0.0794616,0.279646 0.0763548,0.278868 "/>
     <polygon id="_359586600" class="fil12" points="0.0768726,0.246817 0.0799794,0.247435 0.0799794,0.279759 0.0768726,0.279021 "/>
     <polygon id="_359586792" class="fil41" points="0.459853,0.24428 0.456702,0.244996 0.456702,0.277661 0.459853,0.276873 "/>
     <polygon id="_359586984" class="fil12" points="0.459327,0.244369 0.456177,0.244996 0.456177,0.277777 0.459327,0.277028 "/>
     <g>
      <path id="_359587248" class="fil40 str2" d="M0.268466 0.250605c0.00546412,0 0.00961655,0.00251917 0.00961655,0.00114032 0,-0.00137885 -0.00443011,-0.00702809 -0.00989422,-0.00702809 -0.00546412,0 -0.00989422,0.00564923 -0.00989422,0.00702809 0,0.00137885 0.00470725,-0.00114032 0.0101719,-0.00114032z"/>
      <path id="_359587440" class="fil41" d="M0.268189 0.251845c0.00546412,0 0.00989422,-0.00117893 0.00989422,0 0,0.00117893 -0.00443011,0.00213519 -0.00989422,0.00213519 -0.00546412,0 -0.00989422,-0.00095626 -0.00989422,-0.00213519 0,-0.00117893 0.00443011,0 0.00989422,0z"/>
      <ellipse id="_359587632" class="fil12" cx="0.268189" cy="0.251745" rx="0.00989404" ry="0.00203428"/>
     </g>
     <rect id="_359587224" class="fil41" transform="matrix(1.05723 0.0967607 -0 1.1155 0.158713 0.257998)" width="0.00293859" height="0.0317861"/>
     <rect id="_359587872" class="fil12" transform="matrix(1.05723 0.0967607 -0 1.1155 0.159231 0.258046)" width="0.00293859" height="0.0317861"/>
     <rect id="_359588016" class="fil41" transform="matrix(-1.05723 0.0977222 -0 1.12658 0.371991 0.257402)" width="0.00293859" height="0.0317861"/>
     <rect id="_359588160" class="fil12" transform="matrix(-1.05723 0.0977222 -0 1.12658 0.371473 0.25745)" width="0.00293859" height="0.0317861"/>
     <path id="_359588304" class="fil42" d="M0.1125 0.237605l0.0470387 -0.020247 0.0150563 0.0034675 -0.0152711 0.0242328c0,0 -0.0312324,-0.00308246 -0.0468239,-0.00745333z"/>
     <path id="_359588496" class="fil42" d="M0.410385 0.237605l-0.0470387 -0.020247 -0.0150563 0.0034675 0.0152716 0.0242328c0,0 0.0312324,-0.00308246 0.0468234,-0.00745333z"/>
    </g>
   </g>
  </g>
 </g>
</svg>
