<?xml version="1.0" encoding="UTF-8"?>
<!DOCTYPE svg PUBLIC "-//W3C//DTD SVG 1.1//EN" "http://www.w3.org/Graphics/SVG/1.1/DTD/svg11.dtd">
<!-- Creator: CorelDRAW -->
<svg xmlns="http://www.w3.org/2000/svg" xml:space="preserve" width="3.24735in" height="3.42077in" style="shape-rendering:geometricPrecision; text-rendering:geometricPrecision; image-rendering:optimizeQuality; fill-rule:evenodd; clip-rule:evenodd"
viewBox="0 0 0.560794 0.590742"
 xmlns:xlink="http://www.w3.org/1999/xlink">
 <defs>
  <style type="text/css">
   <![CDATA[
    .str0 {stroke:gray;stroke-width:0.000518078}
    .str1 {stroke:#99CCCC;stroke-width:0.000518078}
    .str4 {stroke:white;stroke-width:0.000518078}
    .str3 {stroke:black;stroke-width:0.00119933}
    .str2 {stroke:#95D11E;stroke-width:0.00119933}
    .fil45 {fill:none}
    .fil5 {fill:#003333}
    .fil69 {fill:#336666}
    .fil43 {fill:#3C682D}
    .fil49 {fill:#528C36}
    .fil48 {fill:#61A53E}
    .fil12 {fill:#669999}
    .fil64 {fill:#72155B}
    .fil24 {fill:#74E9F0}
    .fil54 {fill:#7C2772}
    .fil21 {fill:#7DC05C}
    .fil63 {fill:#912783}
    .fil70 {fill:#99CCCC}
    .fil22 {fill:#AADA94}
    .fil17 {fill:#B648B8}
    .fil36 {fill:#C1FFFF}
    .fil4 {fill:#CC3300}
    .fil19 {fill:#CCCCFF}
    .fil68 {fill:#D0E8E8}
    .fil56 {fill:#D273D9}
    .fil25 {fill:#DDF6A2}
    .fil67 {fill:#E6E6E6}
    .fil50 {fill:#EEC8F0}
    .fil3 {fill:#FFCC00}
    .fil2 {fill:#FFFF66}
    .fil6 {fill:white}
    .fil46 {fill:#224827;fill-rule:nonzero}
    .fil65 {fill:#2E0823;fill-rule:nonzero}
    .fil66 {fill:url(#id0)}
    .fil13 {fill:url(#id1)}
    .fil9 {fill:url(#id2)}
    .fil53 {fill:url(#id3)}
    .fil8 {fill:url(#id4)}
    .fil31 {fill:url(#id5)}
    .fil15 {fill:url(#id6)}
    .fil62 {fill:url(#id7)}
    .fil42 {fill:url(#id8)}
    .fil41 {fill:url(#id9)}
    .fil61 {fill:url(#id10)}
    .fil30 {fill:url(#id11)}
    .fil55 {fill:url(#id12)}
    .fil39 {fill:url(#id13)}
    .fil28 {fill:url(#id14)}
    .fil40 {fill:url(#id15)}
    .fil57 {fill:url(#id16)}
    .fil47 {fill:url(#id17)}
    .fil16 {fill:url(#id18)}
    .fil23 {fill:url(#id19)}
    .fil38 {fill:url(#id20)}
    .fil20 {fill:url(#id21)}
    .fil44 {fill:url(#id22)}
    .fil18 {fill:url(#id23)}
    .fil58 {fill:url(#id24)}
    .fil29 {fill:url(#id25)}
    .fil37 {fill:url(#id26)}
    .fil51 {fill:url(#id27)}
    .fil59 {fill:url(#id28)}
    .fil60 {fill:url(#id29)}
    .fil52 {fill:url(#id30)}
    .fil1 {fill:url(#id31)}
    .fil0 {fill:url(#id32)}
    .fil14 {fill:url(#id33)}
    .fil27 {fill:url(#id34)}
    .fil11 {fill:url(#id35)}
    .fil35 {fill:url(#id36)}
    .fil33 {fill:url(#id37)}
    .fil32 {fill:url(#id38)}
    .fil26 {fill:url(#id39)}
    .fil10 {fill:url(#id40)}
    .fil34 {fill:url(#id41)}
    .fil7 {fill:url(#id42)}
   ]]>
  </style>
  <linearGradient id="id0" gradientUnits="userSpaceOnUse" x1="0.14083" y1="0.347694" x2="0.420309" y2="0.347694">
   <stop offset="0" style="stop-color:#336666"/>
   <stop offset="0.380392" style="stop-color:#99CCCC"/>
   <stop offset="0.509804" style="stop-color:#BDDFDF"/>
   <stop offset="0.639216" style="stop-color:#99CCCC"/>
   <stop offset="1" style="stop-color:#336666"/>
  </linearGradient>
  <linearGradient id="id1" gradientUnits="userSpaceOnUse" x1="0.280602" y1="0.300658" x2="0.280602" y2="0.357502">
   <stop offset="0" style="stop-color:#669999"/>
   <stop offset="1" style="stop-color:#003333"/>
  </linearGradient>
  <linearGradient id="id2" gradientUnits="userSpaceOnUse" x1="-0" y1="0.381466" x2="0.564922" y2="0.381466">
   <stop offset="0" style="stop-color:#99CCCC"/>
   <stop offset="0.0784314" style="stop-color:#669999"/>
   <stop offset="0.509804" style="stop-color:#99CCCC"/>
   <stop offset="0.929412" style="stop-color:#669999"/>
   <stop offset="1" style="stop-color:#99CCCC"/>
  </linearGradient>
  <linearGradient id="id3" gradientUnits="userSpaceOnUse" x1="0.29441" y1="0.339695" x2="0.289009" y2="0.257531">
   <stop offset="0" style="stop-color:#D273D9"/>
   <stop offset="1" style="stop-color:#CBA0E6"/>
  </linearGradient>
  <linearGradient id="id4" gradientUnits="userSpaceOnUse" x1="0.150285" y1="0.419708" x2="0.412739" y2="0.419708">
   <stop offset="0" style="stop-color:black"/>
   <stop offset="0.509804" style="stop-color:#336666"/>
   <stop offset="1" style="stop-color:black"/>
  </linearGradient>
  <linearGradient id="id5" gradientUnits="userSpaceOnUse" x1="0.338512" y1="0.0909471" x2="0.344585" y2="0.160404">
   <stop offset="0" style="stop-color:#9C2E8D"/>
   <stop offset="1" style="stop-color:#D789DF"/>
  </linearGradient>
  <linearGradient id="id6" gradientUnits="userSpaceOnUse" x1="0.280602" y1="0.316691" x2="0.280602" y2="0.34625">
   <stop offset="0" style="stop-color:#003333"/>
   <stop offset="1" style="stop-color:black"/>
  </linearGradient>
  <linearGradient id="id7" gradientUnits="userSpaceOnUse" x1="0.346402" y1="0.19776" x2="0.346402" y2="0.207268">
   <stop offset="0" style="stop-color:#CD78D1"/>
   <stop offset="1" style="stop-color:#B648B8"/>
  </linearGradient>
  <linearGradient id="id8" gradientUnits="userSpaceOnUse" x1="0.184388" y1="0.161138" x2="0.18206" y2="0.140566">
   <stop offset="0" style="stop-color:black"/>
   <stop offset="1" style="stop-color:#1A1A1A"/>
  </linearGradient>
  <linearGradient id="id9" gradientUnits="userSpaceOnUse" x1="0.180418" y1="0.160807" x2="0.192568" y2="0.132291">
   <stop offset="0" style="stop-color:#88CA68"/>
   <stop offset="1" style="stop-color:#61A53E"/>
  </linearGradient>
  <linearGradient id="id10" gradientUnits="userSpaceOnUse" x1="0.346402" y1="0.217003" x2="0.346402" y2="0.223426">
   <stop offset="0" style="stop-color:#C465C7"/>
   <stop offset="1" style="stop-color:#B648B8"/>
  </linearGradient>
  <linearGradient id="id11" gradientUnits="userSpaceOnUse" x1="0.346979" y1="0.0991976" x2="0.345378" y2="0.0666389">
   <stop offset="0" style="stop-color:#D273D9"/>
   <stop offset="0.45098" style="stop-color:#C45EC9"/>
   <stop offset="1" style="stop-color:#B648B8"/>
  </linearGradient>
  <linearGradient id="id12" gradientUnits="userSpaceOnUse" x1="0.3839" y1="0.298629" x2="0.396034" y2="0.297785">
   <stop offset="0" style="stop-color:#B648B8"/>
   <stop offset="1" style="stop-color:#9C2E8D"/>
  </linearGradient>
  <linearGradient id="id13" gradientUnits="userSpaceOnUse" xlink:href="#id9" x1="0.247936" y1="0.152273" x2="0.229784" y2="0.128116">
  </linearGradient>
  <linearGradient id="id14" gradientUnits="userSpaceOnUse" x1="0.296512" y1="0.129882" x2="0.286224" y2="0.246029">
   <stop offset="0" style="stop-color:#BE5AC1"/>
   <stop offset="1" style="stop-color:#9C2E8D"/>
  </linearGradient>
  <linearGradient id="id15" gradientUnits="userSpaceOnUse" xlink:href="#id8" x1="0.23993" y1="0.154192" x2="0.237664" y2="0.13697">
  </linearGradient>
  <linearGradient id="id16" gradientUnits="userSpaceOnUse" x1="0.373214" y1="0.258154" x2="0.388776" y2="0.262367">
   <stop offset="0" style="stop-color:#9C3E98"/>
   <stop offset="1" style="stop-color:#660066"/>
  </linearGradient>
  <linearGradient id="id17" gradientUnits="userSpaceOnUse" xlink:href="#id9" x1="0.219744" y1="0.201377" x2="0.218894" y2="0.194378">
  </linearGradient>
  <linearGradient id="id18" gradientUnits="userSpaceOnUse" x1="0.378108" y1="0.0345745" x2="0.359392" y2="0.0313274">
   <stop offset="0" style="stop-color:#C568C9"/>
   <stop offset="1" style="stop-color:#912783"/>
  </linearGradient>
  <linearGradient id="id19" gradientUnits="userSpaceOnUse" x1="0.206775" y1="0.259171" x2="0.210155" y2="0.280743">
   <stop offset="0" style="stop-color:#3C682D"/>
   <stop offset="1" style="stop-color:#88CA68"/>
  </linearGradient>
  <linearGradient id="id20" gradientUnits="userSpaceOnUse" x1="0.266634" y1="0.0943581" x2="0.223862" y2="0.0995498">
   <stop offset="0" style="stop-color:#AADA94"/>
   <stop offset="1" style="stop-color:#88CA68"/>
  </linearGradient>
  <linearGradient id="id21" gradientUnits="userSpaceOnUse" x1="0.221713" y1="0.303688" x2="0.280588" y2="0.283283">
   <stop offset="0" style="stop-color:#88CA68"/>
   <stop offset="1" style="stop-color:#98D27E"/>
  </linearGradient>
  <linearGradient id="id22" gradientUnits="userSpaceOnUse" xlink:href="#id9" x1="0.217453" y1="0.182189" x2="0.218486" y2="0.190697">
  </linearGradient>
  <linearGradient id="id23" gradientUnits="userSpaceOnUse" xlink:href="#id18" x1="0.317903" y1="0.0211576" x2="0.320925" y2="0.0409818">
  </linearGradient>
  <linearGradient id="id24" gradientUnits="userSpaceOnUse" x1="0.3718" y1="0.240483" x2="0.372571" y2="0.24608">
   <stop offset="0" style="stop-color:#98D27E"/>
   <stop offset="1" style="stop-color:#88CA68"/>
  </linearGradient>
  <linearGradient id="id25" gradientUnits="userSpaceOnUse" x1="0.29499" y1="0.219727" x2="0.280508" y2="0.156478">
   <stop offset="0" style="stop-color:#CBA0E6"/>
   <stop offset="0.760784" style="stop-color:#CBB6F2"/>
   <stop offset="1" style="stop-color:#CCCCFF"/>
  </linearGradient>
  <linearGradient id="id26" gradientUnits="userSpaceOnUse" xlink:href="#id21" x1="0.222172" y1="0.132704" x2="0.258307" y2="0.128039">
  </linearGradient>
  <linearGradient id="id27" gradientUnits="userSpaceOnUse" x1="0.305446" y1="0.297468" x2="0.298956" y2="0.298421">
   <stop offset="0" style="stop-color:#7C2772"/>
   <stop offset="1" style="stop-color:#660066"/>
  </linearGradient>
  <linearGradient id="id28" gradientUnits="userSpaceOnUse" xlink:href="#id24" x1="0.378063" y1="0.255694" x2="0.38093" y2="0.260784">
  </linearGradient>
  <linearGradient id="id29" gradientUnits="userSpaceOnUse" xlink:href="#id24" x1="0.387139" y1="0.268882" x2="0.389915" y2="0.273123">
  </linearGradient>
  <linearGradient id="id30" gradientUnits="userSpaceOnUse" x1="0.294039" y1="0.29597" x2="0.297949" y2="0.296527">
   <stop offset="0" style="stop-color:#B24AAE"/>
   <stop offset="1" style="stop-color:#9C2E8D"/>
  </linearGradient>
  <radialGradient id="id31" gradientUnits="userSpaceOnUse" cx="0.280396" cy="0.304437" r="0.36937" fx="0.280396" fy="0.304437">
   <stop offset="0" style="stop-color:#CC3399"/>
   <stop offset="1" style="stop-color:#000066"/>
  </radialGradient>
  <radialGradient id="id32" gradientUnits="userSpaceOnUse" cx="0.280396" cy="0.304436" r="0.36937" fx="0.280396" fy="0.304436">
   <stop offset="0" style="stop-color:black"/>
   <stop offset="0.701961" style="stop-color:gray"/>
   <stop offset="1" style="stop-color:white"/>
  </radialGradient>
  <radialGradient id="id33" gradientUnits="userSpaceOnUse" cx="0.288932" cy="0.363141" r="0.158387" fx="0.288932" fy="0.363141">
   <stop offset="0" style="stop-color:#003333"/>
   <stop offset="1" style="stop-color:#669999"/>
  </radialGradient>
  <radialGradient id="id34" gradientUnits="userSpaceOnUse" cx="0.452304" cy="0.134748" r="0.273194" fx="0.452304" fy="0.134748">
   <stop offset="0" style="stop-color:#E0A0E6"/>
   <stop offset="1" style="stop-color:#B648B8"/>
  </radialGradient>
  <radialGradient id="id35" gradientUnits="userSpaceOnUse" cx="0.280395" cy="0.318451" r="0.150081" fx="0.280395" fy="0.318451">
   <stop offset="0" style="stop-color:#FEFEFE"/>
   <stop offset="1" style="stop-color:#99CCCC"/>
  </radialGradient>
  <radialGradient id="id36" gradientUnits="userSpaceOnUse" cx="0.344756" cy="0.119518" r="0.0195442" fx="0.344756" fy="0.119518">
   <stop offset="0" style="stop-color:#333333"/>
   <stop offset="1" style="stop-color:black"/>
  </radialGradient>
  <radialGradient id="id37" gradientUnits="userSpaceOnUse" cx="0.345777" cy="0.127238" r="0.0239764" fx="0.345777" fy="0.127238">
   <stop offset="0" style="stop-color:#FEFEFE"/>
   <stop offset="0.419608" style="stop-color:white"/>
   <stop offset="1" style="stop-color:#B7F145"/>
  </radialGradient>
  <radialGradient id="id38" gradientUnits="userSpaceOnUse" cx="0.346402" cy="0.132682" r="0.0307311" fx="0.346402" fy="0.132682">
   <stop offset="0" style="stop-color:#FEFEFE"/>
   <stop offset="0.741176" style="stop-color:#F2F2F2"/>
   <stop offset="1" style="stop-color:#B3B3B3"/>
  </radialGradient>
  <radialGradient id="id39" gradientUnits="userSpaceOnUse" xlink:href="#id34" cx="0.347334" cy="0.131427" r="0.169561" fx="0.347334" fy="0.131427">
  </radialGradient>
  <radialGradient id="id40" gradientUnits="userSpaceOnUse" xlink:href="#id35" cx="0.280395" cy="0.292974" r="0.0957961" fx="0.280395" fy="0.292974">
  </radialGradient>
  <radialGradient id="id41" gradientUnits="userSpaceOnUse" cx="0.349076" cy="0.118079" r="0.00640322" fx="0.349076" fy="0.118079">
   <stop offset="0" style="stop-color:#1A1A1A"/>
   <stop offset="1" style="stop-color:black"/>
  </radialGradient>
  <radialGradient id="id42" gradientUnits="userSpaceOnUse" cx="0.282789" cy="0.482526" r="0.0491915" fx="0.282789" fy="0.482526">
   <stop offset="0" style="stop-color:#99CCCC"/>
   <stop offset="1" style="stop-color:#336666"/>
  </radialGradient>
 </defs>
 <g id="Layer_x0020_1">
  <metadata id="CorelCorpID_0Corel-Layer"/>
  <g id="_350488280">
   <circle id="_354764776" class="fil0 str0" cx="0.280397" cy="0.304436" r="0.265759"/>
   <circle id="_354774256" class="fil1" cx="0.280397" cy="0.304436" r="0.252943"/>
   <g>
    <g>
     <path id="_354757768" class="fil2" d="M0.277214 0.458771c0.0545674,-0.0050074 0.0414483,0.00881344 0.0459274,0.0178417 0.0101018,0.0203607 -0.0110992,0.0652146 -0.0364476,0.114129 -0.00192817,-0.0180471 -0.0995709,-0.123704 -0.00947973,-0.131971z"/>
     <path id="_354762376" class="fil3" d="M0.260001 0.4967l-0.00222257 -0.00825661c0,0 -0.0129778,-0.0266076 0.0216899,-0.0285888 0.034667,-0.00198121 0.0340599,0.0146088 0.0309344,0.022586 -0.00312546,0.00797649 -0.000679892,0.0176969 0.0018697,0.0217688 0.00255027,0.00407187 -0.00369453,-0.00525353 -0.00849253,-0.00825457 -0.00479868,-0.00300172 -0.000787995,0.0201554 0.00261146,0.0250527 0.00339946,0.00489726 -0.00765082,-0.01381 -0.0113358,-0.0110877 -0.00368501,0.00272229 0.00489726,0.0242266 0.00353884,0.0295569 -0.00135842,0.00532967 -0.00348309,-0.0133612 -0.0063869,-0.00551596 -0.0029045,0.00784527 -0.0109857,0.0355291 -0.0109857,0.0355291 0,0 0.00868834,-0.0442739 0.00286642,-0.0397492 -0.00582259,0.00452468 -0.0181184,0.0235392 -0.0181184,0.0235392 0,0 0.0187609,-0.0414802 0.0118349,-0.034703 -0.00692606,0.00677648 -0.0199732,0.0145313 -0.0199732,0.0145313 0,0 0.0253042,-0.0286085 0.0185957,-0.0251533 -0.00670849,0.00345521 -0.0188357,0.00933288 -0.0188357,0.00933288 0,0 0.0157341,-0.0122782 0.0123353,-0.0171754 -0.00339878,-0.00489726 0.00148148,0.00497273 -0.0105716,0.0113386 -0.0120531,0.00636583 0.00286914,-0.00649433 0.000645897,-0.0147509z"/>
     <path id="_354757168" class="fil4" d="M0.299717 0.486841c-0.000582667,-0.000230483 -0.00976053,0.000856664 -0.00195945,-0.00731088 0.0242144,-0.0253525 -0.0323105,-0.0196428 -0.0374315,-0.00969662 -0.00292558,0.00568118 0.00314926,0.0166648 0.0103174,0.0200752 -0.00549217,-0.00601772 -0.0142444,-0.0177642 -0.00332807,-0.0227451 0.0215947,-0.00985299 0.0419167,-0.000845786 0.0307971,0.00773105 -0.0039121,0.00301736 -0.00845514,0.0127786 0.00160455,0.0119464z"/>
    </g>
    <path id="_354760864" class="fil5" d="M0.416698 0.378908c-0.0129492,0.0465978 -0.0477984,0.0834146 -0.0935565,0.0973279 -0.0116649,-0.00499245 -0.0242368,-0.00782148 -0.039157,-0.00782148 -0.0149209,0 -0.0288186,0.00289906 -0.0404842,0.00789151 -0.0457574,-0.0139126 -0.0792808,-0.0508002 -0.0922301,-0.0973979l0.265428 0z"/>
    <path id="_354761512" class="fil6" d="M0.415503 0.378908c-0.0129492,0.0465978 -0.0464727,0.0828877 -0.0922301,0.096801 -0.0116656,-0.00499245 -0.0255639,-0.00729456 -0.0404842,-0.00729456 -0.0149202,0 -0.0288186,0.00289906 -0.0404842,0.00789151 -0.0457574,-0.0139126 -0.0792808,-0.0508002 -0.0922301,-0.0973979l0.265428 0z"/>
    <path id="_354765616" class="fil7" d="M0.417893 0.37831c-0.0129492,0.0465978 -0.0488625,0.0834853 -0.0946199,0.0973986 -0.0116656,-0.00499245 -0.0255639,-0.00789219 -0.0404842,-0.00789219 -0.0149202,0 -0.0288186,0.00289974 -0.0404842,0.00789219 -0.0457574,-0.0139133 -0.0816707,-0.0508008 -0.0946199,-0.0973986l0.270208 0z"/>
    <path id="_354761896" class="fil6" d="M0.280396 0.39013c0.0787043,0 0.151474,-0.00367346 0.151474,0.0120674 0,0.0157415 0.00223209,0.0513951 -0.149922,0.0513951 -0.152154,0 -0.153026,-0.0350212 -0.153026,-0.0507621 0,-0.0157409 0.0727702,-0.0127004 0.151474,-0.0127004z"/>
    <path id="_354758536" class="fil8" d="M0.280396 0.389497c0.0787043,0 0.151474,-0.00304048 0.151474,0.0127004 0,0.0157409 0.00223209,0.0507621 -0.149922,0.0507621 -0.152154,0 -0.153026,-0.0350212 -0.153026,-0.0507621 0,-0.0157409 0.0727702,-0.0127004 0.151474,-0.0127004z"/>
    <path id="_354763216" class="fil9" d="M0.280395 0.325542c0.14569,0 0.280395,-0.00562815 0.280395,0.02351 0,0.0291381 0.00413238,0.0939658 -0.277522,0.0939658 -0.281655,0 -0.283267,-0.0648277 -0.283267,-0.0939658 0,-0.0291381 0.134706,-0.02351 0.280395,-0.02351z"/>
    <ellipse id="_354754696" class="fil10" cx="0.280395" cy="0.349052" rx="0.280395" ry="0.0560785"/>
    <ellipse id="_354755128" class="fil11 str1" cx="0.280395" cy="0.349052" rx="0.218588" ry="0.0437172"/>
    <ellipse id="_354756016" class="fil12 str1" cx="0.280395" cy="0.338264" rx="0.145137" ry="0.0290271"/>
    <path id="_354756208" class="fil6" d="M0.280395 0.276662c0.0652778,0 0.117647,0.0114181 0.133326,0.0234916 0.00143185,0.0108368 0.00543506,0.0278844 0.00583551,0.0323901 0,0.0155002 -0.0602663,0.0251397 -0.137764,0.0251397 -0.0774975,0 -0.140415,-0.0102025 -0.140415,-0.025702 0,-0.00196353 0.00483335,-0.0268816 0.00553908,-0.0312104 0.0132253,-0.01275 0.0657993,-0.024109 0.133478,-0.024109z"/>
    <path id="_354762160" class="fil13" d="M0.280395 0.300658c0.0652778,0 0.122504,0.0128071 0.138183,0.0248806 0.00143185,0.0108368 0.000708447,0.00551324 0.0011089,0.0100189 0,0.0154995 -0.0578228,0.0219449 -0.13532,0.0219449 -0.0774968,0 -0.143171,-0.0079187 -0.143171,-0.0234182 0,-0.00196353 0.000516718,-0.00568118 0.00122245,-0.01001 0.0132253,-0.01275 0.0702981,-0.0234162 0.137977,-0.0234162z"/>
    <path id="_354762136" class="fil14" d="M0.280395 0.277259c0.0652778,0 0.117647,0.0108205 0.133326,0.022894 0.00289294,0.010934 0.00605988,0.0285228 0.00583551,0.0329877 0,0.0154995 -0.0602663,0.025139 -0.137764,0.025139 -0.0774975,0 -0.140415,-0.0102018 -0.140415,-0.025702 0,-0.00196353 0.00483335,-0.0274785 0.00553908,-0.0318074 0.0132253,-0.01275 0.0657993,-0.0235113 0.133478,-0.0235113z"/>
    <path id="_354754816" class="fil15" d="M0.280395 0.303048c0.0652778,0 0.122504,0.0128071 0.138183,0.0248813 0.00143185,0.0108361 0.000708447,0.00551256 0.0011089,0.0100189 0,0.0154995 -0.0578228,0.0219442 -0.13532,0.0219442 -0.0774968,0 -0.143171,-0.00791802 -0.143171,-0.0234175 0,-0.00196353 0.000516718,-0.00568186 0.00122245,-0.01001 0.0132253,-0.0127507 0.0702981,-0.0234168 0.137977,-0.0234168z"/>
    <path id="_354759976" class="fil16" d="M0.361627 0.0673147c-0.0172795,-0.0597598 0.037201,-0.0798723 0.0355536,-0.0554894 -0.000336547,0.00497069 -0.00647461,0.00732992 -0.0102582,0.00634679 -0.00495777,-0.0012884 -0.0041623,-0.00859859 -0.00397125,-0.009545 0.000192409,-0.00094641 -0.0271046,0.00183979 -0.0213241,0.0586876z"/>
    <path id="_354766120" class="fil17" d="M0.386244 0.00184727c0.00173508,0.00103955 0.00333895,0.00202132 0.00413238,0.00255843 0.00871825,0.00590962 0.000591506,0.0137223 -0.00617614,0.0118872 0.000618702,0.000870942 0.00149304,0.00155967 0.00272229,0.00187922 0.0037836,0.000983124 0.00992166,-0.0013761 0.0102582,-0.00634679 0.000512639,-0.00759643 -0.00442202,-0.0108715 -0.0109367,-0.00997809z"/>
    <path id="_354751864" class="fil18" d="M0.320008 0.067994c0.0172795,-0.0597591 -0.037201,-0.0798717 -0.0355529,-0.0554894 0.000335867,0.00497137 0.00647461,0.0073306 0.0102575,0.00634747 0.00495845,-0.00128908 0.00416162,-0.00859859 0.00397125,-0.009545 -0.00019105,-0.00094641 0.0271046,0.00184047 0.0213241,0.0586869z"/>
    <path id="_354755944" class="fil17" d="M0.295391 0.00252784c-0.00173508,0.00103887 -0.00333895,0.00202064 -0.00413238,0.00255843 -0.00871825,0.00590894 -0.000590826,0.0137216 0.00617614,0.0118866 -0.000618702,0.000870942 -0.00149304,0.00155967 -0.00272229,0.00187922 -0.00378292,0.000983124 -0.00992166,-0.0013761 -0.0102582,-0.00634679 -0.000512639,-0.00759575 0.0044227,-0.0108715 0.0109367,-0.00997741z"/>
    <path id="_354756880" class="fil19" d="M0.30219 0.00476196c-0.00860947,-0.00436763 -0.0167627,-0.00273317 -0.0176779,0.00516446 0.0012646,-0.00239186 0.00349804,-0.00598985 0.00657116,-0.00639574 0.00307379,-0.000405895 0.00662759,0.000344705 0.0111067,0.00123128z"/>
    <path id="_354758800" class="fil20" d="M0.144323 0.344926c0,0 0.0374083,-0.0584116 0.0579601,-0.0636182 0.00248568,-0.0006323 0.00448321,-0.000711167 0.00751689,-0.00230483 0.0027454,-0.00433431 0.00518826,-0.00382711 0.00316898,-0.0235154 -0.00201928,-0.0196883 0.0193096,-0.00941242 0.0193096,-0.00941242 0,0 -0.00108171,0.0190676 0.00577432,0.0277301 0.00393046,0.00830012 0.119926,-0.0199732 0.119926,-0.0199732l0 0.0223882c0,0 -0.107318,0.00859859 -0.107572,0.0286962 -0.00025428,0.0200983 0.00204987,0.0261677 0.00275696,0.0400096l-0.0563848 0.00624481c0,0 -0.000856664,-0.0247059 -0.000348105,-0.0333555 0.000508559,-0.00864959 -0.0249323,0.0113542 -0.0287479,0.0271107 -0.0129744,0 -0.0233604,0 -0.0233604,0z"/>
    <path id="_354755632" class="fil21" d="M0.357979 0.272526l0 0.00369453c0,0 -0.107318,0.00859859 -0.107572,0.0286962 -0.00025428,0.0200983 0.00204987,0.0261677 0.00275696,0.0400096l-0.0063937 0c-0.000936211,-0.0131444 -0.00197781,-0.0283855 -0.00176432,-0.0452733 0.000213486,-0.0168878 0.0848906,-0.0245278 0.112973,-0.027127z"/>
    <path id="_354754744" class="fil22" d="M0.333666 0.278756l0.0243123 -0.002536c0,0 -0.107318,0.00859859 -0.107572,0.0286962 -0.00025428,0.0200983 0.00204987,0.0261677 0.00275696,0.0400096l-0.0015148 0c-0.000936211,-0.0124869 -0.00332059,-0.0284535 -0.00261758,-0.0418072 0.000702328,-0.0133538 0.0502576,-0.0208958 0.084635,-0.0243626z"/>
    <path id="_354757432" class="fil21" d="M0.200044 0.350332l-0.00335799 -0.00540582c0,0 -0.000763519,-0.0184611 -0.000254959,-0.0271107 0.000508559,-0.00864959 -0.0249323,0.0113542 -0.0287479,0.0271107l-0.0072728 0c0.00968166,-0.0174467 0.0324118,-0.043184 0.0367162,-0.0342971 0.0043044,0.00888755 0.00208183,0.0225452 0.00291742,0.039703z"/>
    <path id="_354755656" class="fil23" d="M0.174577 0.304114c0.00968574,-0.0111958 0.0199086,-0.0208305 0.0277056,-0.0228056 0.00248568,-0.0006323 0.00448321,-0.000711167 0.00751689,-0.00230483 0.0027454,-0.00433431 0.00518826,-0.00382711 0.00316898,-0.0235154 -0.00201928,-0.0196883 0.0193096,-0.00941242 0.0193096,-0.00941242 0,0 -0.00108171,0.0190676 0.00577432,0.0277301 0.000391618,0.000826749 0.0019105,0.00128568 0.004301,0.00145089 -0.00329204,0.00317646 -0.00783847,0.00623393 -0.0138399,0.00764674 -0.0138399,0.003256 -0.0366163,0.0068234 -0.0459974,0.014857 -0.0022416,0.00191933 -0.00501624,0.00411811 -0.0079391,0.00635359z"/>
    <path id="_354765352" class="fil24" d="M0.144323 0.344926c0,0 0.0374083,-0.0584116 0.0579601,-0.0636182 0.00248568,-0.0006323 0.00448321,-0.000711167 0.00751689,-0.00230483 0.0027454,-0.00433431 0.00518826,-0.00382711 0.00316898,-0.0235154 -0.00105111,-0.0102528 0.00422893,-0.0123781 0.00953141,-0.012062 -0.00459471,0.000299152 -0.0100291,-7.75077e-005 -0.00855644,0.0142886 0.00147333,0.0143654 -0.000487483,0.0170177 -0.00323289,0.021352 -0.00303368,0.00159435 -0.00407731,0.0016093 -0.006563,0.0022416 -0.0205518,0.00520661 -0.0579601,0.0636182 -0.0579601,0.0636182l-0.00186494 0zm0.0537087 0.00402836l-0.00134551 0c0,0 -0.000558191,-0.0262901 -0.000254959,-0.0311391 4.14734e-005,-0.000667654 0.0005038,0.00198392 0.000703008,0.00715314 6.11903e-005,0.00160115 -0.000671733,0.0132871 0.000897457,0.0239859z"/>
    <path id="_354762424" class="fil25" d="M0.246081 0.275308c0,0 0.00974013,0.000825389 0.0288716,-0.00263458 0.0148584,-0.00268761 0.0624882,-0.0127391 0.0830257,-0.0170959l0 -0.00174528c0,0 -0.0848967,0.0206925 -0.111886,0.0214723l-1.15582e-005 3.39946e-006z"/>
    <path id="_354752848" class="fil26" d="M0.287104 0.344926c0.00332807,-0.0325845 0.01268,-0.126067 0.01268,-0.147485 0,-0.0624501 -0.0723799,-0.161934 0.0475503,-0.161597 0.11993,0.000336547 0.0317374,0.149461 0.0411865,0.19986 0.00139174,0.0074251 0.00260399,0.0142267 0.00365714,0.0205905 -0.00409907,-0.00250336 -0.00909355,-0.00192681 -0.00956336,0.003753 -0.000489522,0.0352354 -0.00198732,0.065186 -0.00544254,0.0848784l-0.090068 0z"/>
    <path id="_354766288" class="fil27" d="M0.34259 0.0358929c0.00155219,-3.1275e-005 0.00312274,-5.37115e-005 0.00474429,-4.89522e-005 0.11993,0.000336547 0.031738,0.149461 0.0411865,0.19986 0.00940223,0.0501502 0.0110884,0.0607613 0.00935667,0.109224l-0.00691994 0c0.00173168,-0.0484627 4.48729e-005,-0.0590738 -0.00935667,-0.109224 -0.00938999,-0.0500856 0.0776158,-0.197648 -0.0390108,-0.199811z"/>
    <path id="_354754408" class="fil28" d="M0.287104 0.344926c0.00332807,-0.0325845 0.01268,-0.126067 0.01268,-0.147485 0,-0.0639826 -0.071749,-0.166457 0.0549169,-0.161351 -0.105133,0.00545545 -0.0537196,0.099269 -0.0489706,0.146923 0.0021471,0.0215553 0.000763519,0.126997 0.000235923,0.161912l-0.0188622 0z"/>
    <path id="_354760840" class="fil17" d="M0.303033 0.116694c0,0 0.0538332,0.0115113 0.0872526,-0.00406371 -0.00339334,-0.0538298 -0.0950584,-0.0441338 -0.0872526,0.00406371z"/>
    <path id="_354761440" class="fil29" d="M0.287535 0.340698c0,0 0.0122489,-0.117205 0.0122489,-0.143257 0,-0.0624501 -0.0723799,-0.161934 0.0475503,-0.161597 0.000260399,6.79892e-007 0.00050176,1.49576e-005 0.000760119,1.69973e-005 -0.117562,0.000600345 -0.0458934,0.0994254 -0.0458934,0.16158 0,0.0260514 -0.0122496,0.143257 -0.0122496,0.143257l-0.00241634 0z"/>
    <path id="_354760744" class="fil30" d="M0.303033 0.117451c0,0 0.0538325,0.0115113 0.0872519,-0.00406371 -0.00339334,-0.0538298 -0.0950584,-0.0441338 -0.0872519,0.00406371z"/>
    <path id="_354764752" class="fil31" d="M0.302762 0.108951c0,0 0.0481268,-0.0245835 0.0873498,0.00257203 0.0104635,0.101994 -0.0964903,0.0915291 -0.0873498,-0.00257203z"/>
    <path id="_354763552" class="fil32" d="M0.304114 0.112239c0,0 0.0506418,-0.0197271 0.0843562,0.00361499 0.00937367,0.0896302 -0.091818,0.0789681 -0.0843562,-0.00361499z"/>
    <path id="_354748168" class="fil33 str2" d="M0.327148 0.106525c0.0114215,-0.00200432 0.0258366,-0.00305 0.039826,4.4193e-005 0.00673637,0.00612719 0.0106668,0.0152792 0.00986931,0.0251594 -0.0013557,0.016775 -0.0158258,0.0292938 -0.0323214,0.0279619 -0.0164949,-0.00133259 -0.0287676,-0.0160115 -0.0274139,-0.0327864 0.000660175,-0.00817366 0.00443562,-0.0153363 0.01004,-0.0203791z"/>
    <path id="_354766216" class="fil34 str3" d="M0.345662 0.11204c0.00705524,0.000570429 0.0123509,0.00625025 0.0118308,0.0126875 -0.000520117,0.00643722 -0.00665954,0.0111931 -0.0137127,0.0106233 -0.0070532,-0.000569749 -0.0123509,-0.00624889 -0.0118301,-0.0126868 0.000519437,-0.00643722 0.00665886,-0.0111931 0.0137121,-0.010624z"/>
    <path id="_354747568" class="fil35" d="M0.345663 0.112041c0.0067894,0.000547993 0.0119498,0.00583007 0.0118634,0.0119654 -0.00271821,-0.00234427 -0.00667518,-0.00394269 -0.0112039,-0.00423097 -0.00583551,-0.000371901 -0.0111774,0.00152364 -0.0143688,0.00467426 -5.0312e-005,-0.000586067 -5.30316e-005,-0.00118233 -4.07935e-006,-0.0017854 0.000519437,-0.00643654 0.00666022,-0.0111931 0.0137134,-0.0106233z"/>
    <path id="_354752056" class="fil36" d="M0.350512 0.114678c0.00486667,0.00192681 0.00537659,0.00995362 0.00206075,0.00484355 -0.00331583,-0.00511007 -0.00485579,-0.00596333 -0.00206075,-0.00484355z"/>
    <path id="_354747544" class="fil37" d="M0.195357 0.000720006l0 0c0.0325974,-0.00395697 0.0625045,0.0194755 0.0664601,0.0520729 0.00588922,0.0485144 0.00468446,0.0920812 0.017665,0.145543 0.00396513,0.0326668 -0.0195102,0.0625086 -0.0521566,0.0664696 -0.0325974,0.00395697 -0.0624216,-0.0194864 -0.0663779,-0.0520831 -0.00153452,-0.0540718 -0.00971362,-0.0996606 -0.0176643,-0.145542 -0.00395697,-0.0325974 0.0194769,-0.0625038 0.0520736,-0.0664601z"/>
    <path id="_354762784" class="fil38" d="M0.195355 0.000720006l-6.79892e-007 0c-0.00458111,0.000555472 -0.00898137,0.00162426 -0.0131498,0.0031411 0.0458424,-0.01635 0.0606872,0.0228015 0.064088,0.0508165 0.0014033,0.0200235 0.00275152,0.0400042 0.00474973,0.0604927 0.00168545,0.017291 -0.00156375,0.0149229 0.00904392,0.0301947 0.00356399,0.00513114 0.00587019,0.0296236 0.00638079,0.0333718 0.0026577,0.0195129 -0.00102188,0.0243143 -0.000673093,0.0292727 0.000184251,0.00260739 0.00107355,0.00522225 0.00131559,0.00623053 0.0034015,0.0280224 -0.0198447,0.0467854 -0.0531608,0.0506479 0.0378598,0.00405012 0.0701648,-0.0283651 0.0655307,-0.0665512 -0.0114446,-0.0528691 -0.0144083,-0.0990909 -0.0176643,-0.145543 -0.00395561,-0.0325974 -0.0338627,-0.0560299 -0.0664601,-0.0520736z"/>
    <path id="_354766984" class="fil21" d="M0.195357 0.000719326l6.79892e-007 0c0.00458043,-0.000556152 0.00910919,-0.000571109 0.013519,-9.58648e-005 -0.0254925,0.00927441 -0.0423246,0.0353034 -0.0389245,0.0633197 0.00342734,0.0197774 0.0068975,0.039501 0.00985911,0.0598726 0.00249928,0.0171924 -0.00605852,0.0154675 -0.0127051,0.032834 -0.00223345,0.00583551 0.00138698,0.0301675 0.00178744,0.0339286 0.00208659,0.0195822 0.0111937,0.0236011 0.0120416,0.028499 0.000446009,0.00257611 0.000206687,0.00532695 0.000212806,0.00636515 0.00340082,0.0280211 0.0260752,0.0404434 0.0593478,0.0362233 -0.0357916,0.0129893 -0.0749139,-0.0107566 -0.079548,-0.0489434 -0.00153384,-0.0540718 -0.0097143,-0.0996606 -0.017665,-0.145542 -0.00395629,-0.0325974 0.0194769,-0.0625045 0.0520743,-0.0664608z"/>
    <path id="_354758872" class="fil39" d="M0.265191 0.123755c-0.0109469,-0.00376524 -0.0524877,-0.00312274 -0.0484729,0.0339021 0.00285147,0.0263064 0.0531424,0.0080642 0.0484729,-0.0339021z"/>
    <path id="_354764224" class="fil40" d="M0.265192 0.126002c-0.0102541,-0.00193837 -0.044021,0.00890862 -0.0459906,0.0319039 -0.00196149,0.0229001 0.0458363,0.00385295 0.0459906,-0.0319039z"/>
    <path id="_354765064" class="fil36" d="M0.241753 0.133476c-0.00308671,0.00137814 -0.0128976,0.00792822 -0.0130104,0.0109218 -0.000111502,0.00298133 0.0136998,-0.00672209 0.0130104,-0.0109218z"/>
    <path id="_354765112" class="fil41" d="M0.156993 0.136889c0.00972925,-0.00627608 0.0502161,-0.0155886 0.0551746,0.0213201 0.00352456,0.0262255 -0.0496695,0.0205436 -0.0551746,-0.0213201z"/>
    <path id="_354764272" class="fil42" d="M0.157529 0.139068c0.00949333,-0.00433431 0.0448742,-0.0018799 0.0522885,0.0199759 0.00738227,0.0217661 -0.0435845,0.0147061 -0.0522885,-0.0199759z"/>
    <path id="_354763048" class="fil36" d="M0.182076 0.140719c0.00332671,0.000599665 0.0144198,0.00461307 0.0152452,0.00749241 0.000821989,0.00286778 -0.01491,-0.00324988 -0.0152452,-0.00749241z"/>
    <path id="_354761200" class="fil43" d="M0.205618 0.000366462c-0.0138168,0.00261418 -0.0287927,0.00668062 -0.0437585,0.0271821 -0.0162113,0.022206 -0.012306,0.0499231 -0.0076957,0.0855202 0.00461035,0.0355978 0.0022892,0.0264764 0.00141689,0.031923 -0.00338178,-0.026853 -0.00787451,-0.0522878 -0.0122979,-0.0778116 -0.00395629,-0.0325974 0.0194769,-0.0625045 0.0520743,-0.0664608l6.79892e-007 0c0.00345997,-0.000420173 0.00688867,-0.000528276 0.0102602,-0.000352864z"/>
    <path id="_354744016" class="fil44" d="M0.251412 0.186464c0.0104765,-0.00127276 0.0100338,-0.00794182 0.0100338,-0.00794182 -0.000562951,0.000170653 0.00309147,-0.00670509 -0.0452536,-0.00104227 -0.0483451,0.00566214 -0.0424701,0.0116894 -0.0424701,0.0116894 0,0 0.00116533,0.00658203 0.0116418,0.00531064 0.0311316,-0.00377884 0.0349165,-0.00423777 0.0660481,-0.00801593z"/>
    <path id="_354767344" class="fil45" d="M0.173641 0.188496c0,0 0.00116465,0.00658271 0.0116411,0.00531064 0.0104758,-0.0012714 0.0436239,-0.00529432 0.0436239,-0.00529432m0.0324574 -0.0106634c0,0 0.000443969,0.00667042 -0.0100325,0.00794182 -0.0104765,0.0012714 -0.0436239,0.00529432 -0.0436239,0.00529432"/>
    <path id="_354765208" class="fil46" d="M0.185201 0.193134l0.0225758 -0.00217701 0.021199 -0.00257339 0.0222739 -0.0032662c0.00720549,-0.0010076 0.00885763,-0.00280795 0.0107851,-0.00729592 6.79892e-007,2.03968e-005 0.000477964,0.00729592 -0.010622,0.00864279 -0.00740334,0.00149712 -0.0148067,0.00299356 -0.02221,0.00449001 -0.00670102,0.00194585 -0.0137576,0.00282631 -0.021199,0.00257339l-0.0226397 0.000953209c-0.0110999,0.00134755 -0.0122258,-0.00528684 -0.0122299,-0.00530656 0.00222665,0.00361974 0.00406371,0.00486871 0.0120667,0.00395969z"/>
    <path id="_354764032" class="fil47" d="M0.233705 0.193875c0.0046593,-0.00056567 0.00562407,0.00604152 0.00562407,0.00604152 -0.000267877,-6.9349e-005 -0.0115806,0.00601568 -0.0192022,0.00714566 -0.00762227,0.00113066 -0.0198127,-0.0024109 -0.0198127,-0.0024109 0,0 -0.000643178,-0.00664594 0.00401544,-0.00721093 0.0138453,-0.00168069 0.0155294,-0.00188466 0.0293754,-0.00356535z"/>
    <path id="_354753760" class="fil48" d="M0.223876 0.171877c-0.00125644,-0.000237282 -0.00539494,0.00109191 -0.0056363,0.00391006 -0.000240002,0.00280659 0.00561795,0.000472525 0.0056363,-0.00391006z"/>
    <path id="_354753808" class="fil49" d="M0.22148 0.173422c-1.56375e-005,-0.00158891 -0.00314178,0.000807032 -0.00308467,0.00245713 8.29468e-005,0.00241634 0.00310031,-0.000868222 0.00308467,-0.00245713z"/>
    <path id="_354753592" class="fil48" d="M0.208526 0.17374c0.0011633,-0.000530996 0.00549965,-0.000230483 0.00640798,0.00244829 0.000904936,0.0026679 -0.00534123,0.00180239 -0.00640798,-0.00244829z"/>
    <path id="_354753448" class="fil49" d="M0.211223 0.174667c-0.000365102,-0.00154675 0.00324308,3.19549e-005 0.00358303,0.00164806 0.000497001,0.00236602 -0.00321793,-0.000101984 -0.00358303,-0.00164806z"/>
    <path id="_354754360" class="fil48" d="M0.279073 0.196626c0.000135298,0.00056907 0.000270597,0.00113814 0.000409295,0.00170993 0.00396513,0.0326668 -0.0195102,0.0625086 -0.0521566,0.0664703 -0.0325967,0.00395629 -0.0624222,-0.0194864 -0.0663779,-0.0520838 -1.9037e-005,-0.000663575 -3.94337e-005,-0.00132579 -6.05104e-005,-0.00198664 0.0060592,0.0301818 0.0351239,0.0556505 0.0661732,0.0518826 0.0310201,-0.00376524 0.053226,-0.0352742 0.0520124,-0.0659924z"/>
    <path id="_354753616" class="fil24" d="M0.197286 0.000520797c-0.0339715,0.004267 -0.056514,0.0345406 -0.0526359,0.0664934 0.00795066,0.0458818 0.016894,0.0913782 0.0184278,0.14545 0.0038781,0.0319542 0.0305373,0.0574101 0.0661712,0.0520736 -0.0332222,0.00512231 -0.0642518,-0.0184557 -0.0683006,-0.0518152 -0.00153384,-0.0540718 -0.0097143,-0.0996606 -0.017665,-0.145542 -0.00405284,-0.0333949 0.0205647,-0.0636916 0.0540025,-0.0666593z"/>
    <path id="_354761488" class="fil50" d="M0.390125 0.111338c-0.0381467,-0.0267911 -0.0852326,-0.00394269 -0.0873627,-0.00238642 -1.29179e-005,0.000234563 -4.75924e-005,0.000301192 -7.5468e-005,0.000834227 -0.000666974,-0.000417454 0.0472212,-0.0251961 0.0875368,0.00291946 -7.20685e-005,-0.000712527 -2.17565e-005,-0.000716606 -9.85843e-005,-0.00136726z"/>
    <path id="_354752584" class="fil51" d="M0.285423 0.344926c0.0012782,-0.0237683 0.0044261,-0.0774166 0.00711507,-0.0837967 0.00346609,-0.00822805 0.0118539,-0.0101664 0.0149026,-0.00266926 0.00106267,0.0177316 0.00483199,0.062733 0.0115398,0.0864659l-0.0335574 0z"/>
    <path id="_354752368" class="fil52" d="M0.282979 0.344926c0.00220625,-0.0237432 0.00737819,-0.0773404 0.0097211,-0.0842638 0.00302144,-0.00893106 0.014239,-0.0130927 0.0147401,-0.00220217 -0.00116126,0.0359282 -0.00104159,0.0664506 0.00156851,0.0864659l-0.0260297 0z"/>
    <path id="_354752224" class="fil53" d="M0.282993 0.344926c0.00226812,-0.0241124 0.00760663,-0.0789858 0.00970682,-0.0842638 0.00269917,-0.00678532 0.00368773,-0.00725853 0.00772561,-0.00836267 -0.00492854,0.00167117 -0.00565058,0.00546497 -0.00693694,0.00895894 -0.0010042,0.00272977 -0.00571653,0.0591125 -0.00773173,0.0836675l-0.00276376 0z"/>
    <path id="_354751696" class="fil54" d="M0.39984 0.344926c-2.24364e-005,-0.0234733 -0.000338586,-0.0759922 -0.00268693,-0.0822533 -0.0030364,-0.00809343 -0.0111999,-0.0100005 -0.0145395,-0.00262506 -0.00187242,0.0176323 -0.00228308,0.0606872 -0.00725309,0.0848784l0.0244795 0z"/>
    <path id="_354751552" class="fil55" d="M0.402761 0.344926c-0.00106063,-0.0236364 -0.00364966,-0.0767482 -0.00574645,-0.0827123 -0.00270733,-0.0076991 -0.0136917,-0.0107253 -0.0144001,-0.00216614 -0.000489522,0.0352354 -0.00198732,0.065186 -0.00544254,0.0848784l0.0255891 0z"/>
    <path id="_354751336" class="fil56" d="M0.388079 0.2549c-0.00277124,-0.00019173 -0.00514746,0.00131627 -0.00546497,0.00514814 -0.000488842,0.0352354 -0.00198664,0.065186 -0.00544118,0.0848784l0.000903576 0c0.00345521,-0.0196924 0.00495301,-0.049643 0.00544254,-0.0848784 0.000282155,-0.00340694 0.00219197,-0.00497681 0.00456004,-0.00514814z"/>
    <path id="_354751144" class="fil57" d="M0.365183 0.239368c0,0 -0.0042738,0.00580016 -0.00172965,0.00895486 0.00254416,0.0031547 0.00508763,0.0043751 0.00834431,0.00671597 0.00325668,0.00234087 0.00722521,0.00223956 0.00620741,0.00458043 -0.00101712,0.00234087 -0.00321861,0.00324648 -0.00321861,0.00324648 0,0 -0.00330156,0.00612311 0.00220081,0.00550644 0.00550237,-0.000616662 0.00852924,-0.00145361 0.00986523,-0.00194653 0.00133599,-0.000493602 0.00423029,0.00820562 0.00423029,0.00820562 0,0 -0.00254416,-0.000660855 -0.00386723,0.00178132 -0.00132307,0.00244217 -0.000721365,0.00370949 0.000508559,0.00488434 0.00122992,0.00117553 0.00844494,0.000606464 0.0110408,-0.00254552 -9.17854e-005,-0.00162358 -0.000182211,-0.00347765 -0.000361023,-0.00637399 -7.20685e-005,-0.00117009 -0.000557511,-0.00407323 -0.000446689,-0.004781 0.00069349,-0.00441862 0.00312478,-0.00447029 0.00312478,-0.00447029l-0.00523857 -0.00327776 -0.0018731 -0.00213214 -0.00306291 -0.00888279 -0.000811111 -0.00456411 -0.00247073 -0.00622033 -0.0224426 0.00131899z"/>
    <path id="_354751072" class="fil58" d="M0.380066 0.236887c-0.00762295,4.48729e-005 -0.00927101,-0.0043853 -0.0147944,-0.000725445 -0.00552208,0.00366054 -0.00433703,0.0152534 0.00701445,0.0145544 0.0113522,-0.000697569 0.00870466,-0.00539018 0.0144844,-0.00459811 0.00577976,0.000790034 0.0112209,-0.00149848 0.00764606,-0.0077868 -0.00558939,-0.00982988 -0.00672685,-0.00148896 -0.0143505,-0.00144409z"/>
    <path id="_354750064" class="fil21" d="M0.362178 0.243907c0.000599665,0.00375504 0.00376728,0.00719938 0.010108,0.00680912 0.0113522,-0.000698249 0.00870398,-0.00539018 0.0144844,-0.00459879 0.00575121,0.000786635 0.0111652,-0.00147605 0.00769706,-0.00769366 0.000529636,0.00402564 -0.00399301,0.00545817 -0.00874545,0.0048082 -0.00577976,-0.000791394 -0.00313158,0.00390054 -0.0144837,0.00459879 -0.00464026,0.000285555 -0.00758148,-0.00148352 -0.00906024,-0.00392366z"/>
    <path id="_354750304" class="fil25" d="M0.380067 0.236887c-0.00762363,4.48729e-005 -0.00927169,-0.0043853 -0.0147944,-0.000725445 -0.00297657,0.00197305 -0.00400388,0.00625025 -0.00254076,0.00966534 -0.00081519,-0.0031717 0.000289634,-0.00674725 0.00293645,-0.00850137 0.00552276,-0.00366054 0.00717082,0.000770318 0.0147944,0.000724765 0.00762295,-4.48729e-005 0.00876109,-0.00838511 0.0143491,0.00144477 0.000229124,0.000402496 0.000420853,0.000789355 0.000578588,0.00115922 -0.000176092,-0.000703688 -0.000492922,-0.00147673 -0.000973605,-0.00232319 -0.00558871,-0.00982988 -0.00672617,-0.00148896 -0.0143498,-0.00144409z"/>
    <path id="_354750184" class="fil59" d="M0.387154 0.252606c-0.00719462,0.00252036 -0.0140214,-0.00457499 -0.0180545,0.000680572 -0.00403312,0.00525624 0.00465862,0.0151711 0.0151677,0.0108205 0.0105084,-0.00434927 0.0071647,-0.00622441 0.0128887,-0.00735507 0.00572333,-0.00113066 0.0070532,-0.00647393 0.00470009,-0.00984891 -0.00646577,-0.00927577 -0.00750669,0.00318257 -0.014702,0.00570293z"/>
    <path id="_354749944" class="fil21" d="M0.368244 0.25761c0.00109599,0.00486735 0.0080336,0.0098054 0.016023,0.00649841 0.0105091,-0.00434995 0.00716538,-0.00622577 0.0128887,-0.00735643 0.00572333,-0.00113066 0.00705388,-0.00647325 0.00470077,-0.00984823 -8.63463e-005,-0.00012306 -0.000170653,-0.000241362 -0.000254959,-0.000356943 0.000559551,0.00308127 -0.00122924,0.00654328 -0.00570633,0.00742782 -0.00572333,0.00113066 -0.00237962,0.00300648 -0.0128887,0.00735643 -0.00644062,0.00266586 -0.0121973,-2.71957e-005 -0.0147625,-0.00372105z"/>
    <path id="_354749800" class="fil25" d="M0.387154 0.252606c-0.00719462,0.00252036 -0.0140214,-0.00457499 -0.0180545,0.000680572 -0.00176568,0.00230143 -0.00109259,0.00549421 0.00110346,0.00799349 -0.00157327,-0.00231571 -0.00189554,-0.00500944 -0.000351504,-0.00702124 0.0040338,-0.00525624 0.0108599,0.00183911 0.0180552,-0.000681252 0.00681864,-0.00238846 0.00811043,-0.0136991 0.0137311,-0.00698045 -0.006272,-0.00868426 -0.00737071,0.00351776 -0.0144837,0.00600889z"/>
    <path id="_354749248" class="fil60" d="M0.390923 0.263446c-0.00557647,0.00270733 -0.00728436,0.000381419 -0.0100522,0.00500264 -0.00276784,0.00462191 0.00216818,0.0127106 0.0102501,0.00821649 0.00808324,-0.00449409 0.00653716,-0.0076617 0.011055,-0.00910919 0.0045172,-0.00144749 0.00526508,-0.00595721 0.000335867,-0.00916358 -0.0060422,-0.00392978 -0.0060116,0.00234631 -0.0115888,0.00505364z"/>
    <path id="_354749104" class="fil21" d="M0.380453 0.273489c0.00118097,0.0035028 0.00520525,0.00621353 0.0106682,0.00317578 0.00808256,-0.00449409 0.00653648,-0.0076617 0.0110544,-0.00910919 0.00420037,-0.00134551 0.00514066,-0.00533851 0.00128976,-0.00847009 0.000590826,0.00223345 -0.000760119,0.00433635 -0.00358575,0.00524197 -0.0045172,0.00144749 -0.00297113,0.00461443 -0.0110537,0.00910919 -0.00350824,0.00195061 -0.00642294,0.00152976 -0.00837287,5.23517e-005z"/>
    <path id="_354748864" class="fil25" d="M0.390924 0.263446c-0.00557647,0.00270733 -0.00728504,0.000380739 -0.0100529,0.00500332 -0.0015114,0.00252444 -0.000725445,0.00608231 0.0016161,0.00806012 -0.00165146,-0.002039 -0.00206483,-0.00499653 -0.0007574,-0.00718102 0.00276784,-0.00462259 0.00447641,-0.002296 0.0100529,-0.00500332 0.00557647,-0.00270733 0.0055452,-0.00898341 0.0115881,-0.00505364 0.000471845,0.000307311 0.000890658,0.00062618 0.00126052,0.000952529 -0.000530316,-0.000635699 -0.00123264,-0.0012544 -0.00211922,-0.00183163 -0.00604288,-0.00392978 -0.0060116,0.00234631 -0.0115881,0.00505364z"/>
    <path id="_354749632" class="fil61" d="M0.36303 0.213489c0.00525556,-0.000920574 0.00545749,0.0066745 0.00545749,0.0066745 -0.000289634,-0.000101984 -0.00215594,0.00729116 -0.0220924,0.00749445 -0.0199372,0.000203288 -0.0220802,-0.00749445 -0.0220802,-0.00749445 0,0 0.000198528,-0.00751349 0.00545681,-0.0066745 0.0147101,0.00234495 0.018234,0.00262982 0.0332583,0z"/>
    <path id="_354748432" class="fil62" d="M0.367176 0.206982c0.00648685,-0.00188126 0.00681728,-0.0066745 0.00681728,-0.0066745 -0.000361703,0.000101984 -0.00269373,-0.00729116 -0.0275995,-0.00749445 -0.0249058,-0.000203288 -0.0275832,0.00749445 -0.0275832,0.00749445 0,0 0.000330427,0.00479596 0.00681728,0.0066745 0.0184033,0.00533103 0.0228111,0.00543506 0.0415482,0z"/>
    <path id="_354748024" class="fil63" d="M0.361386 0.196347c-0.00124692,0.00167457 -0.00456683,2.65158e-005 -0.00495573,-0.00427108 -0.000448729,-0.00495505 0.00621625,0.00234563 0.00495573,0.00427108z"/>
    <path id="_354747952" class="fil64" d="M0.359735 0.195682c0.000165894,0.00242517 -0.00303504,-0.000649977 -0.00316898,-0.00317646 -0.000197169,-0.00369929 0.0030024,0.000750601 0.00316898,0.00317646z"/>
    <path id="_354747256" class="fil63" d="M0.329805 0.195562c0.00124692,0.00167457 0.00456683,2.65158e-005 0.00495573,-0.00427108 0.000448729,-0.00495505 -0.00621557,0.00234563 -0.00495573,0.00427108z"/>
    <path id="_354747040" class="fil64" d="M0.331458 0.194898c-0.000166574,0.00242517 0.00303436,-0.000649977 0.0031683,-0.00317714 0.000197169,-0.00369861 -0.0030024,0.000751281 -0.0031683,0.00317714z"/>
    <path id="_354748312" class="fil65" d="M0.374166 0.199763c-0.000987883,0.0160013 -0.0552494,0.0160747 -0.0555295,0.000558871 0.00192885,0.0110598 0.049968,0.0142308 0.0555295,-0.000558871z"/>
    <path id="_354747208" class="fil19" d="M0.368152 0.0136257c0.0103269,-0.0131566 0.0254198,-0.0155471 0.028499,-0.00653648 -0.000772357,-0.00156375 -0.00201996,-0.00269577 -0.00393521,-0.00307923 -0.0103371,-0.00206687 -0.0179138,0.00279096 -0.0245638,0.00961571z"/>
    <path id="_354757504" class="fil6" d="M0.288519 0.336692c0.0672991,-0.000821309 0.0720957,0.0245584 0.13034,-0.00953277 0.00144953,0.0108361 0.000696209,0.00627608 0.00110142,0.0107817 0,0.0154995 -0.0610155,0.025139 -0.139476,0.025139 -0.0784609,0 -0.139655,-0.00963951 -0.139655,-0.025139 0,-0.00196353 0.000179491,-0.00473545 0.000894058,-0.00906364 0.0589215,0.0381576 0.0794957,0.00863667 0.146795,0.00781468z"/>
    <path id="_354746584" class="fil66" d="M0.288519 0.33729c0.0672991,-0.000821309 0.0720957,0.0245584 0.13034,-0.00953277 0.00144953,0.0108361 0.000696209,0.00627608 0.00110142,0.0107817 0,0.0154995 -0.0610155,0.025139 -0.139476,0.025139 -0.0784609,0 -0.139655,-0.00963951 -0.139655,-0.025139 0,-0.00196353 0.000179491,-0.00473545 0.000894058,-0.00906364 0.0589215,0.0381576 0.0794957,0.00863667 0.146795,0.00781468z"/>
    <path id="_354746344" class="fil12" d="M0.141469 0.331105l-0.14114 0.017909 0.140592 -0.0119484 0.000547993 -0.00596061zm0.277823 -0.000465726l0.141498 0.0184135 -0.14095 -0.0124529 -0.000547313 -0.00596061zm-0.140734 0.033038l0.011463 -6.05104e-005 -0.00446689 0.0415047 -0.00699609 -0.0414442z"/>
    <path id="_354745816" class="fil67" d="M0.141377 0.332578l-0.141377 0.0164745 0.14083 -0.0105138 0.000547313 -0.00596061zm0.278035 0l0.141377 0.0164745 -0.140829 -0.0105138 -0.000547993 -0.00596061zm-0.139591 0.0310989l0.0114637 -6.05104e-005 -0.00573149 0.0415047 -0.00573217 -0.0414442z"/>
    <path id="_354745744" class="fil68 str4" d="M0.466787 0.370852c0.00583891,0 0.0102766,0.00269169 0.0102766,0.00121837 0,-0.00147333 -0.00473409,-0.00751009 -0.010573,-0.00751009 -0.00583891,0 -0.010573,0.00603676 -0.010573,0.00751009 0,0.00147333 0.00503052,-0.00121837 0.0108694,-0.00121837z"/>
    <path id="_354745528" class="fil69" d="M0.46649 0.372177c0.00583891,0 0.010573,-0.00125916 0.010573,0 0,0.00125984 -0.00473409,0.00228172 -0.010573,0.00228172 -0.00583891,0 -0.010573,-0.00102188 -0.010573,-0.00228172 0,-0.00125916 0.00473409,0 0.010573,0z"/>
    <ellipse id="_354745384" class="fil12" cx="0.46649" cy="0.37207" rx="0.0105729" ry="0.00217385"/>
    <path id="_354745192" class="fil68 str4" d="M0.377131 0.387808c0.00583891,0 0.0102766,0.00269169 0.0102766,0.00121837 0,-0.00147333 -0.00473409,-0.00751009 -0.010573,-0.00751009 -0.00583891,0 -0.010573,0.00603676 -0.010573,0.00751009 0,0.00147333 0.00503052,-0.00121837 0.0108694,-0.00121837z"/>
    <path id="_354744616" class="fil69" d="M0.376835 0.389133c0.00583891,0 0.010573,-0.00125916 0.010573,0 0,0.00125984 -0.00473409,0.00228172 -0.010573,0.00228172 -0.00583891,0 -0.010573,-0.00102188 -0.010573,-0.00228172 0,-0.00125916 0.00473409,0 0.010573,0z"/>
    <ellipse id="_354744472" class="fil12" cx="0.376835" cy="0.389026" rx="0.0105729" ry="0.00217385"/>
    <path id="_354744280" class="fil68 str4" d="M0.455415 0.323059c0.00548129,0 0.00964699,0.00252716 0.00964699,0.00114426 0,-0.00138358 -0.00444377,-0.0070498 -0.00992506,-0.0070498 -0.00548129,0 -0.00992506,0.00566622 -0.00992506,0.0070498 0,0.0013829 0.00472185,-0.00114426 0.0102031,-0.00114426z"/>
    <path id="_354744064" class="fil69" d="M0.455137 0.324303c0.00548129,0 0.00992506,-0.00118233 0.00992506,0 0,0.00118233 -0.00444377,0.00214166 -0.00992506,0.00214166 -0.00548129,0 -0.00992506,-0.000959328 -0.00992506,-0.00214166 0,-0.00118233 0.00444377,0 0.00992506,0z"/>
    <ellipse id="_354743920" class="fil12" cx="0.455136" cy="0.324203" rx="0.009925" ry="0.00204064"/>
    <rect id="_354744232" class="fil69" x="0.283422" y="0.405127" width="0.00331993" height="0.0378899"/>
    <rect id="_354743800" class="fil12" x="0.283976" y="0.405127" width="0.00331993" height="0.0378899"/>
    <polygon id="_354743560" class="fil69" points="0.491402,0.385992 0.488035,0.386757 0.488035,0.421664 0.491402,0.42082 "/>
    <polygon id="_354743416" class="fil12" points="0.490841,0.386088 0.487474,0.386757 0.487474,0.421787 0.490841,0.420986 "/>
    <path id="_354742792" class="fil68 str4" d="M0.286885 0.39275c0.00583891,0 0.0102766,0.00269169 0.0102766,0.00121837 0,-0.00147333 -0.00473409,-0.00751009 -0.010573,-0.00751009 -0.00583959,0 -0.010573,0.00603676 -0.010573,0.00751009 0,0.00147333 0.00502984,-0.00121837 0.0108694,-0.00121837z"/>
    <path id="_354742648" class="fil69" d="M0.286589 0.394076c0.00583891,0 0.010573,-0.00125916 0.010573,0 0,0.00125984 -0.00473409,0.00228172 -0.010573,0.00228172 -0.00583959,0 -0.010573,-0.00102188 -0.010573,-0.00228172 0,-0.00125916 0.00473341,0 0.010573,0z"/>
    <ellipse id="_354747592" class="fil12" cx="0.286589" cy="0.393969" rx="0.0105729" ry="0.00217385"/>
    <rect id="_354743128" class="fil69" transform="matrix(0.878873 0.0804368 -0 0.927308 0.169602 0.400652)" width="0.00377748" height="0.0408601"/>
    <rect id="_354767584" class="fil12" transform="matrix(0.878873 0.0804368 -0 0.927308 0.170155 0.400702)" width="0.00377748" height="0.0408601"/>
    <rect id="_354767752" class="fil69" transform="matrix(-0.878873 0.0812361 -0 0.936523 0.397513 0.400015)" width="0.00377748" height="0.0408601"/>
    <rect id="_354768520" class="fil12" transform="matrix(-0.878873 0.0812361 -0 0.936523 0.396959 0.400066)" width="0.00377748" height="0.0408601"/>
    <path id="_354768280" class="fil70" d="M0.438541 0.378858l-0.0502658 -0.0216362 -0.0160896 0.00370541 0.0163194 0.0258957c0,0 0.0333752,-0.00329408 0.050036,-0.00796493z"/>
    <path id="_354768256" class="fil68 str4" d="M0.0956132 0.370852c-0.00583891,0 -0.0102766,0.00269169 -0.0102766,0.00121837 0,-0.00147333 0.00473409,-0.00751009 0.010573,-0.00751009 0.00583959,0 0.010573,0.00603676 0.010573,0.00751009 0,0.00147333 -0.00502984,-0.00121837 -0.0108694,-0.00121837z"/>
    <path id="_354767944" class="fil69" d="M0.0959096 0.372177c-0.00583891,0 -0.010573,-0.00125916 -0.010573,0 0,0.00125984 0.00473409,0.00228172 0.010573,0.00228172 0.00583959,0 0.010573,-0.00102188 0.010573,-0.00228172 0,-0.00125916 -0.00473341,0 -0.010573,0z"/>
    <ellipse id="_354769168" class="fil12" cx="0.0959098" cy="0.37207" rx="0.0105729" ry="0.00217385"/>
    <path id="_354769048" class="fil68 str4" d="M0.185269 0.387808c-0.00583891,0 -0.0102766,0.00269169 -0.0102766,0.00121837 0,-0.00147333 0.00473409,-0.00751009 0.010573,-0.00751009 0.00583959,0 0.010573,0.00603676 0.010573,0.00751009 0,0.00147333 -0.00502984,-0.00121837 -0.0108694,-0.00121837z"/>
    <path id="_354768856" class="fil69" d="M0.185565 0.389133c-0.00583891,0 -0.010573,-0.00125916 -0.010573,0 0,0.00125984 0.00473409,0.00228172 0.010573,0.00228172 0.00583959,0 0.010573,-0.00102188 0.010573,-0.00228172 0,-0.00125916 -0.00473341,0 -0.010573,0z"/>
    <ellipse id="_354768664" class="fil12" cx="0.185565" cy="0.389026" rx="0.0105729" ry="0.00217385"/>
    <path id="_354769336" class="fil68 str4" d="M0.106985 0.323059c-0.00548129,0 -0.00964631,0.00252716 -0.00964631,0.00114426 0,-0.00138358 0.00444309,-0.0070498 0.00992506,-0.0070498 0.00548129,0 0.00992438,0.00566622 0.00992438,0.0070498 0,0.0013829 -0.00472185,-0.00114426 -0.0102031,-0.00114426z"/>
    <path id="_354769528" class="fil69" d="M0.107264 0.324303c-0.00548197,0 -0.00992506,-0.00118233 -0.00992506,0 0,0.00118233 0.00444309,0.00214166 0.00992506,0.00214166 0.00548129,0 0.00992438,-0.000959328 0.00992438,-0.00214166 0,-0.00118233 -0.00444309,0 -0.00992438,0z"/>
    <ellipse id="_354769720" class="fil12" cx="0.107263" cy="0.324203" rx="0.009925" ry="0.00204064"/>
    <polygon id="_354769312" class="fil69" points="0.0815932,0.388609 0.0849131,0.389363 0.0849131,0.423784 0.0815932,0.422953 "/>
    <polygon id="_354770008" class="fil12" points="0.0821466,0.388703 0.0854665,0.389363 0.0854665,0.423906 0.0821466,0.423116 "/>
    <path id="_354770200" class="fil70" d="M0.120218 0.378858l0.0502658 -0.0216362 0.0160896 0.00370541 -0.0163188 0.0258957c0,0 -0.0333752,-0.00329408 -0.0500366,-0.00796493z"/>
   </g>
  </g>
 </g>
</svg>
