<?xml version="1.0" encoding="UTF-8"?>
<!DOCTYPE svg PUBLIC "-//W3C//DTD SVG 1.1//EN" "http://www.w3.org/Graphics/SVG/1.1/DTD/svg11.dtd">
<!-- Creator: CorelDRAW -->
<svg xmlns="http://www.w3.org/2000/svg" xml:space="preserve" width="3.36221in" height="3.42077in" style="shape-rendering:geometricPrecision; text-rendering:geometricPrecision; image-rendering:optimizeQuality; fill-rule:evenodd; clip-rule:evenodd"
viewBox="0 0 0.846577 0.861321"
 xmlns:xlink="http://www.w3.org/1999/xlink">
 <defs>
  <style type="text/css">
   <![CDATA[
    .fil17 {fill:#50224C}
    .fil20 {fill:#63175B}
    .fil21 {fill:#7C076E}
    .fil7 {fill:#7F0571}
    .fil19 {fill:#800772}
    .fil14 {fill:#810474}
    .fil18 {fill:#860079}
    .fil11 {fill:#8F007F}
    .fil16 {fill:#920681}
    .fil15 {fill:#970089}
    .fil10 {fill:#A30891}
    .fil1 {fill:#A50092}
    .fil13 {fill:#D407BB}
    .fil9 {fill:#D50ABC}
    .fil8 {fill:#F30FD8}
    .fil12 {fill:#FF57EA}
    .fil5 {fill:#F30FD8;fill-opacity:0.501961}
    .fil4 {fill:url(#id0)}
    .fil6 {fill:url(#id1)}
    .fil0 {fill:url(#id2)}
    .fil2 {fill:url(#id3)}
    .fil3 {fill:url(#id4)}
   ]]>
  </style>
  <linearGradient id="id0" gradientUnits="userSpaceOnUse" x1="0.131036" y1="0.432359" x2="0.564538" y2="0.00707495">
   <stop offset="0" style="stop-color:#343434"/>
   <stop offset="1" style="stop-color:#BD00A8"/>
  </linearGradient>
  <linearGradient id="id1" gradientUnits="userSpaceOnUse" x1="0.278924" y1="0.660592" x2="0.565472" y2="0.167483">
   <stop offset="0" style="stop-color:#343434"/>
   <stop offset="1" style="stop-color:#8D007D"/>
  </linearGradient>
  <linearGradient id="id2" gradientUnits="userSpaceOnUse" x1="0.144224" y1="0.764005" x2="0.702131" y2="0.107388">
   <stop offset="0" style="stop-color:#343434"/>
   <stop offset="0.2" style="stop-color:#432A43"/>
   <stop offset="0.678431" style="stop-color:#A1008E"/>
   <stop offset="1" style="stop-color:#C800B0"/>
  </linearGradient>
  <linearGradient id="id3" gradientUnits="userSpaceOnUse" xlink:href="#id0" x1="0.336705" y1="0.793334" x2="0.617973" y2="0.387988">
  </linearGradient>
  <linearGradient id="id4" gradientUnits="userSpaceOnUse" xlink:href="#id1" x1="0.428666" y1="0.851293" x2="0.625464" y2="0.630907">
  </linearGradient>
 </defs>
 <g id="Layer_x0020_1">
  <metadata id="CorelCorpID_0Corel-Layer"/>
  <g id="_357148584">
   <g>
    <ellipse id="_357148944" class="fil0" cx="0.423177" cy="0.435696" rx="0.423177" ry="0.425625"/>
    <path id="_357148920" class="fil1" d="M0.109318 0.715006c0.107166,-0.0701834 0.031123,-0.0873469 0.131703,-0.0799894 0.10058,0.00735846 0.107938,0.0147308 0.159459,-0.0539687 0.0515211,-0.0686994 0.0785054,-0.0564172 0.14719,-0.0858639 0.0686856,-0.0294467 0.0643982,-0.0515211 0.115608,-0.0515211 0.0512098,0 0.0732832,0 0.112537,0 0.0392527,0 0.0707614,-0.0316722 0.0707614,-0.0316722 0,0 -0.00231371,0.0773783 -0.00756564,0.100729 -0.00525194,0.0233492 -0.073314,-0.000370748 -0.124523,-0.000370748 -0.0512098,0 -0.0343577,0.00490994 -0.137385,0.0515211 -0.103028,0.0466102 -0.120207,0.0343567 -0.161907,0.071147 -0.0417012,0.0367903 0.0073426,0.0465963 -0.071148,0.0637746 -0.0784906,0.0171793 -0.071148,0.0049258 -0.107937,0.0220893 -0.0367903,0.0171645 -0.0818888,0.0374138 -0.0818888,0.0374138l-0.0449042 -0.0432883z"/>
    <path id="_357149496" class="fil2" d="M0.10871 0.720524c0.107166,-0.0701834 0.031123,-0.0873469 0.131703,-0.0799894 0.10058,0.00735846 0.107938,0.0147308 0.159459,-0.0539687 0.0515211,-0.0687004 0.0785054,-0.0564172 0.147191,-0.0858639 0.0686846,-0.0294467 0.0643972,-0.0515211 0.115607,-0.0515211 0.0512098,0 0.0732842,0 0.112537,0 0.0392527,0 0.0707624,-0.0316722 0.0707624,-0.0316722 0,0 -0.0023147,0.0773783 -0.00756663,0.100729 -0.00525094,0.0233492 -0.073313,-0.00037174 -0.124523,-0.00037174 -0.0512098,0 -0.0343577,0.00491093 -0.137385,0.0515221 -0.103027,0.0466102 -0.120206,0.0343567 -0.161907,0.071147 -0.0417003,0.0367903 0.00734359,0.0465963 -0.071147,0.0637746 -0.0784916,0.0171793 -0.071148,0.0049258 -0.107938,0.0220893 -0.0367903,0.0171635 -0.0818878,0.0374138 -0.0818878,0.0374138l-0.0449051 -0.0432883z"/>
    <path id="_357149688" class="fil3" d="M0.254684 0.826252c0.0617712,-0.00909424 0.0470702,-0.0287201 0.137829,-0.048347 0.09076,-0.0196259 0.147176,-0.0147011 0.171713,-0.0515062 0.0245368,-0.0368052 -0.0101173,-0.0392527 0.0441636,-0.0392527 0.0542799,0 0.103027,-0.0269992 0.134922,-0.0368052 0.0318953,-0.00980599 0.0561505,-0.0197002 0.0561505,-0.0197002 0,0 -0.115667,0.142325 -0.136792,0.156017 -0.0211247,0.0136929 -0.0788167,0.00105376 -0.120518,0.00351616 -0.0417003,0.0024624 -0.120206,0.0269992 -0.134922,0.0294477 -0.0147169,0.00244753 -0.074679,0.031924 -0.074679,0.031924l-0.077867 -0.0252932z"/>
    <path id="_357149880" class="fil4" d="M0.0981323 0.230843c0.0490587,-0.0637756 0.0686846,-0.0711331 0.130012,-0.0981174 0.0613271,-0.0269843 0.10058,-0.0539696 0.159459,-0.0515211 0.0588796,0.00244753 0.13881,0.0279479 0.180821,0.0279479 0.0154287,0 0.0285427,-0.00884145 0.0439703,-0.0336003 0.0108598,-0.0174014 0.0831933,0.0344171 0.0831933,0.0344171 0,0 -0.0658812,-0.0664304 -0.166624,-0.0863387 -0.100743,-0.0199084 -0.127061,-0.0159323 -0.161477,-0.00991008 -0.0344171,0.00602317 -0.113131,0.0278448 -0.145574,0.0474716 -0.0324434,0.0196269 -0.18723,0.132578 -0.204572,0.253541 -0.0173419,0.120963 0.0807904,-0.0838902 0.0807904,-0.0838902z"/>
    <path id="_357149472" class="fil5" d="M0.190523 0.0829842c0.00790764,-0.00550373 0.0923173,-0.0481685 0.162486,-0.0547101 0.0701686,-0.00654262 0.099304,-0.00802561 0.122817,-0.00327825 0.0235138,0.00474637 0.0498012,-0.0128919 0.0733883,0.0159323 0.0235871,0.0288242 0.0174599,0.0226969 0.00887119,0.0410926 -0.00858966,0.0183947 -0.0238994,0.0151164 0.00367873,0.0251296 0.0275781,0.0100142 0.0637746,0 0.0637746,0 0,0 -0.00121633,-0.0306631 0.0208581,0 0.0220744,0.0306641 -0.0183957,0.0233056 0.0318943,0.0404839 0.0502899,0.0171793 0.0318953,-0.00737234 0.0318953,0.0417012 0,0.0490736 0.0609118,0.0421007 0.0574402,0.062143 -0.00347155,0.0200412 -0.0537615,-0.0204278 -0.0230974,0.0421305 0.0306631,0.0625583 0.00490994,0.0294467 0.0306631,0.0625583 0.0257531,0.0331116 0.0392379,0.00633444 0.0551999,0.0429315 0.0144641,0.0331711 0.0151471,0.0584196 0.0151323,0.0628706 0.000533322,-0.00869375 0.000830714,-0.017446 0.000830714,-0.0262726 0,-0.235072 -0.18947,-0.425625 -0.423177,-0.425625 -0.0452908,0 -0.0889201,0.00718003 -0.129819,0.0204278 -0.0373246,0.0134104 -0.072171,0.0311974 -0.102835,0.0524847z"/>
    <path id="_357150120" class="fil1" d="M0.0294467 0.497616c0.0539696,-0.103027 -0.0171783,-0.166802 0.149639,-0.164354 0.166818,0.00244753 0.144743,-0.0417151 0.26495,-0.0515211 0.120206,-0.00980599 0.166832,-0.00489507 0.250232,-0.0171635 0.0834015,-0.0122684 0.0931331,-0.0539845 0.108977,-0.0138555 0.0089158,0.0225482 0.0177573,0.0453641 0.020754,0.0556301 0.00232858,0.007981 0.00373821,0.00501402 -0.0176542,0.0106367 -0.0488951,0.0128761 -0.0412552,0.0187208 -0.0949125,0.0187208 -0.0536574,0 0.00490994,-0.00244753 -0.10058,-0.00244753 -0.105491,0 -0.121423,-0.00615601 -0.156997,0.0441488 -0.035574,0.0503048 -1.48696e-005,0.0686994 -0.157011,0.0686994 -0.156997,0 -0.127549,-0.0466102 -0.176623,0.0196269 -0.0490736,0.066237 -0.088356,0.135768 -0.088356,0.135768 0,0 -0.0249968,-0.0737293 -0.00241879,-0.103889z"/>
    <path id="_357150264" class="fil6" d="M0.0343428 0.505597c0.0539687,-0.103027 -0.0171783,-0.166802 0.149639,-0.164354 0.166817,0.00244852 0.144742,-0.0417151 0.264949,-0.0515211 0.120207,-0.00980599 0.166832,-0.00489507 0.250233,-0.0171635 0.0834015,-0.0122684 0.0931331,-0.0539835 0.108976,-0.0138555 0.0089158,0.0225482 0.0177573,0.0453641 0.020754,0.0556301 0.00232858,0.007981 0.00373821,0.00501402 -0.0176532,0.0106367 -0.0488961,0.0128761 -0.0412561,0.0187218 -0.0949135,0.0187218 -0.0536574,0 0.00491093,-0.00244852 -0.10058,-0.00244852 -0.10549,0 -0.121422,-0.00615601 -0.156996,0.0441488 -0.035574,0.0503048 -1.48696e-005,0.0686994 -0.157012,0.0686994 -0.156996,0 -0.127549,-0.0466102 -0.176623,0.0196269 -0.0490736,0.066237 -0.088356,0.135768 -0.088356,0.135768 0,0 -0.0249968,-0.0737293 -0.00241779,-0.103889z"/>
   </g>
   <g>
    <g>
     <path id="_346470312" class="fil7" d="M0.410943 0.0170207c-0.00695202,0.00366287 -0.00853811,0.00511514 -0.0126203,0.00599343 -0.0040822,0.000879288 -0.00262696,0.00178336 0.0104047,0.00973759 0.0130317,0.00795423 0.0160096,0.0163199 0.040137,0.0216908 0.0241274,0.0053699 0.0594565,0.0102987 0.0704977,0.0129633 0.0110412,0.00266562 0.0110065,0.000757357 0.0215916,0.00200838 0.0105842,0.00125004 0.0214737,0.00253972 0.0203773,-0.00503682 -0.00109738,-0.00757556 -0.00512108,-0.010603 -0.00512108,-0.010603 0,0 -0.10339,-0.00784717 -0.12688,-0.0266175 -0.02349,-0.0187704 -0.0183867,-0.0101361 -0.0183867,-0.0101361z"/>
     <g>
      <path id="_346465872" class="fil8" d="M0.435111 0c-0.0170782,0.00492976 -0.0120582,0.0131883 -0.00477908,0.0189736 0.00727916,0.00578526 0.028271,0.0186296 0.0511712,0.022456 0.0229001,0.00382545 0.027707,0.00139873 0.0449507,0.000870366 0.0172428,-0.000527374 0.0442539,0.016079 0.0326744,0.000330105 -0.0115794,-0.0157489 0.00346957,-0.0120424 -0.0275642,-0.0234701 -0.0310328,-0.0114278 -0.0326566,-0.0128602 -0.0405246,-0.0134203 -0.00786799,-0.000560088 -0.0228486,-0.00250503 -0.0346679,-0.0037858 -0.0118193,-0.00128077 -0.0212605,-0.00195386 -0.0212605,-0.00195386z"/>
      <path id="_346465704" class="fil9" d="M0.428096 0.0130664c0.00114099,0.001368 0.00255955,0.00268148 0.00407625,0.00388691 0.00727916,0.00578625 0.0274621,0.0208293 0.0503633,0.0246557 0.0229001,0.00382545 0.0331939,0.00631462 0.0504376,0.00578625 0.0131893,-0.000403461 0.0293516,0.00505368 0.0310437,0.000595775l-0.00044014 -0.000610644c-0.00448962,-0.00610743 -0.00497536,-0.00928853 -0.00569802,-0.0115616 -0.000438157,-0.000805931 -0.000793044,-0.00154049 -0.00108151,-0.00221061 -0.00176452,-0.00228595 -0.00615105,-0.0043092 -0.0207837,-0.00969794 -0.0310338,-0.0114278 -0.0326566,-0.0128602 -0.0405246,-0.0134203 -0.00786799,-0.000560088 -0.0228496,-0.00250503 -0.0346689,-0.0037858 -0.0118193,-0.00128077 -0.0212605,-0.00195386 -0.0212605,-0.00195386 -0.00782636,0.00225919 -0.0110094,0.00521724 -0.0114635,0.00831606z"/>
      <path id="_346469640" class="fil10" d="M0.464847 0.036485c0.0163635,0.00212833 0.0186901,0.00300068 0.0277377,0.00364503 0.00695302,0.000494661 0.0475034,0.00778175 0.0633276,0.00565143 0.00249809,-0.000336053 0.00140765,-0.00666752 -0.0034428,-0.012658 -0.00439247,-0.00542541 -0.012537,-0.0105911 -0.0116419,-0.0104632 0.00402966,0.000577931 0.00870564,0.00364007 0.0119938,0.00654162 0.00563656,0.00497635 0.00803354,0.0120463 0.00881964,0.0123546 0.00997452,0.0144086 -0.0117827,0.00532232 -0.0286676,0.00583879 -0.0172438,0.000528366 -0.0275375,-0.0019608 -0.0504376,-0.00578625 -0.00615997,-0.00102997 -0.0121207,-0.00287082 -0.0176889,-0.00512406z"/>
      <path id="_346465608" class="fil11" d="M0.422317 0.00565936c-0.0131824,0.00499122 -0.00777382,0.0142679 -0.000743479,0.0198558 0.00702935,0.005587 0.0261358,0.0214637 0.0490359,0.0252892 0.0229011,0.00382545 0.035912,0.00316524 0.0503534,0.00508738 0.0144413,0.00192214 0.044471,0.00685488 0.0435917,-0.00595973 -0.0124726,0.00355482 -0.0236545,-0.00200145 -0.0350436,-0.00246934 -0.0113891,-0.000468887 -0.0290671,0.00201136 -0.0519672,-0.00181409 -0.0229011,-0.00382644 -0.044239,-0.0197884 -0.0503633,-0.0246557 -0.00612428,-0.00486731 -0.00831309,-0.0109252 -0.00486334,-0.0153335z"/>
     </g>
    </g>
    <path id="_346470144" class="fil12" d="M0.423588 0.00897924c0,0 0.00162971,-0.0034884 0.00657632,-0.00623432 0.00494661,-0.00274492 0.01129,-0.00322868 0.0163377,-0.00156428 0.00504773,0.00166539 0.0136473,0.00206291 0.0174113,0.00262894 0.00376399,0.000567027 0.0272024,0.00167828 0.0300732,0.00222945 0.00287181,0.000551166 0.00830218,0.00222251 0.00830218,0.00222251 0,0 -0.0594704,-0.00634336 -0.0666643,-0.00321381 -0.0071939,0.00312856 -0.0120364,0.00393152 -0.0120364,0.00393152z"/>
   </g>
   <g>
    <path id="_346465416" class="fil7" d="M0.757025 0.221568c-0.0234335,-0.0202405 -0.0562952,-0.0351467 -0.0838605,-0.0305451 -0.0275642,0.00460164 -0.0745908,0.00443114 -0.0323651,0.030786 0.0422266,0.0263539 0.0348355,0.0276673 0.0657295,0.0298016 0.030893,0.00213428 0.0504961,-0.0300425 0.0504961,-0.0300425z"/>
    <path id="_346465320" class="fil12" d="M0.714764 0.211741c-0.0150094,-0.0129633 -0.0360568,-0.0225106 -0.0537109,-0.0195634 -0.0176542,0.00294814 -0.047774,0.00283811 -0.0207292,0.0197181 0.0270448,0.016879 0.0223113,0.0177196 0.0420978,0.0190866 0.0197865,0.00136701 0.0323423,-0.0192412 0.0323423,-0.0192412z"/>
    <path id="_346465152" class="fil9" d="M0.744014 0.213615c-0.0184452,-0.0159323 -0.0443114,-0.0276644 -0.0660071,-0.0240421 -0.0216967,0.00362223 -0.058712,0.00348741 -0.0254756,0.0242315 0.0332375,0.0207441 0.0274195,0.021777 0.0517362,0.0234573 0.0243157,0.00167927 0.0397464,-0.0236466 0.0397464,-0.0236466z"/>
   </g>
   <g>
    <path id="_346464816" class="fil7" d="M0.107694 0.152392c-0.000219078,0.0021551 -0.000127878,0.00274096 -0.000549183,0.00381157 -0.000421305,0.0010716 7.93044e-006,0.000875323 0.00382247,-0.000902088 0.00381454,-0.0017784 0.00618971,-0.0011856 0.0111046,-0.00590422 0.0049139,-0.00471961 0.0114357,-0.0120781 0.0137326,-0.0142054 0.00229685,-0.00212833 0.00185374,-0.00241185 0.00375506,-0.00465021 0.00190232,-0.00223936 0.00386014,-0.00454216 0.00195386,-0.00544623 -0.00190727,-0.000904071 -0.00321579,-0.000443114 -0.00321579,-0.000443114 0,0 -0.0175768,0.0225373 -0.0254706,0.0250661 -0.00789277,0.00252783 -0.00513298,0.00267355 -0.00513298,0.00267355z"/>
    <g>
     <path id="_346464336" class="fil8" d="M0.107475 0.144248c-0.00147407,0.00467202 0.00118758,0.00478007 0.0036262,0.00399199 0.0024396,-0.000788088 0.00859065,-0.00364701 0.0129633,-0.00832102 0.00437265,-0.00467301 0.0045491,-0.00614708 0.00705909,-0.0101857 0.00250999,-0.00403858 0.0104434,-0.00770542 0.00506061,-0.00745065 -0.0053818,0.000255757 -0.0022344,-0.0026339 -0.00959286,0.00274691 -0.00735945,0.00537981 -0.0079354,0.00553446 -0.00926474,0.00725437 -0.00132934,0.00172091 -0.00406138,0.00486334 -0.00615898,0.00738126 -0.0020976,0.00251792 -0.00369261,0.0045828 -0.00369261,0.0045828z"/>
     <path id="_346464192" class="fil9" d="M0.109404 0.147851c0.000488714,-5.25392e-005 0.00100618,-0.000178435 0.00151471,-0.000342 0.00243861,-0.000788088 0.00897231,-0.00312658 0.013344,-0.00779959 0.00437265,-0.00467301 0.00651486,-0.00665662 0.00902484,-0.0106952 0.00192016,-0.0030899 0.00563855,-0.00596766 0.00487326,-0.00703629l-0.000207183 7.93044e-006c-0.0020867,9.91305e-005 -0.00289065,-0.000274592 -0.0035231,-0.000456 -0.000251792,-2.28e-005 -0.000474835,-5.35305e-005 -0.000673096,-8.92175e-005 -0.000793044,5.65044e-005 -0.0019271,0.000754383 -0.00539667,0.00329113 -0.00735945,0.00538081 -0.0079354,0.00553446 -0.00926474,0.00725536 -0.00132934,0.00172091 -0.00406138,0.00486334 -0.00615898,0.00738126 -0.0020976,0.00251792 -0.00369261,0.0045828 -0.00369261,0.0045828 -0.000675079,0.00214122 -0.000481774,0.00332286 0.0001596,0.0038998z"/>
     <path id="_346464216" class="fil10" d="M0.120388 0.142988c0.00298581,-0.00343091 0.00354094,-0.00383239 0.00506954,-0.00581103 0.0011747,-0.00152066 0.00903476,-0.00971678 0.0109599,-0.0136751 0.000304331,-0.000624522 -0.00131546,-0.00134024 -0.00343091,-0.00114099 -0.0019152,0.000180418 -0.0043439,0.00126193 -0.00417835,0.00107557 0.000747444,-0.000836662 0.00216402,-0.00144235 0.00333178,-0.00175461 0.00200244,-0.000535305 0.003991,-5.94783e-006 0.00418232,-0.000139774 0.00482964,-9.12001e-005 -0.00057694,0.00351715 -0.00303439,0.00747246 -0.00250999,0.00403858 -0.0046522,0.00602218 -0.00902484,0.0106952 -0.00117569,0.00125698 -0.002508,0.00234444 -0.00387501,0.00327825z"/>
     <path id="_346464072" class="fil11" d="M0.106822 0.148048c-0.00086541,0.00378778 0.00208967,0.00396225 0.00444501,0.00320093 0.00235534,-0.000761323 0.00891481,-0.0027251 0.0132875,-0.00739811 0.00437265,-0.00467301 0.00620656,-0.00776093 0.00885137,-0.0107824 0.0026448,-0.00302249 0.00835968,-0.00916363 0.00528366,-0.0109163 -0.00108746,0.00340513 -0.00406931,0.00512406 -0.00591413,0.00766775 -0.00184581,0.0025427 -0.00397414,0.00697879 -0.00834679,0.0116528 -0.00437166,0.00467301 -0.011292,0.00713641 -0.013344,0.00779959 -0.002052,0.000663183 -0.00377687,0.000240887 -0.00426261,-0.00122426z"/>
    </g>
   </g>
   <g>
    <path id="_346464984" class="fil7" d="M0.62767 0.0612468c-0.00829524,-0.00698276 -0.02064,-0.0134659 -0.0318982,-0.014707 -0.0112583,-0.00124111 -0.0300425,-0.00532728 -0.0145593,0.00477214 0.0154822,0.0100984 0.0124597,0.00978518 0.0246924,0.0129653 0.0122327,0.00318011 0.0217651,-0.00303042 0.0217651,-0.00303042z"/>
    <path id="_346463952" class="fil12" d="M0.6113 0.0552008c-0.0053134,-0.00447178 -0.01322,-0.00862436 -0.0204298,-0.00941938 -0.00721076,-0.000795027 -0.0192412,-0.00341108 -0.00932521,0.00305619 0.00991603,0.00646827 0.00798001,0.00626703 0.0158153,0.00830417 0.00783429,0.00203713 0.0139397,-0.00194098 0.0139397,-0.00194098z"/>
    <path id="_346463856" class="fil9" d="M0.622891 0.0581767c-0.00652973,-0.0054958 -0.0162465,-0.0106 -0.0251078,-0.0115765 -0.00886128,-0.000976436 -0.0236466,-0.00419223 -0.0114595,0.00375606 0.0121861,0.00794829 0.00980698,0.00770145 0.0194355,0.0102055 0.00962855,0.00250305 0.0171317,-0.00238508 0.0171317,-0.00238508z"/>
   </g>
   <g>
    <path id="_346463664" class="fil13" d="M0.228713 0.149375c-0.0102749,0.0187902 -0.00241581,0.0289521 0.0058943,0.0336865 0.0083111,0.00473447 0.0303637,0.0121841 0.0493442,0.00385122 0.0189795,-0.00833291 0.0213537,-0.0153018 0.0339463,-0.0270844 0.0125926,-0.0117827 0.0410073,-0.00206885 0.0245249,-0.020177 -0.0164834,-0.0181082 -0.00341703,-0.021658 -0.0322491,-0.0204536 -0.0288331,0.00120444 -0.0307572,-8.02957e-005 -0.0369023,0.00400091 -0.0061451,0.0040822 -0.0182846,0.0104355 -0.0277347,0.0158569 -0.00945011,0.00542145 -0.0168234,0.0103195 -0.0168234,0.0103195z"/>
    <path id="_346463568" class="fil14" d="M0.224453 0.163055c-0.0070918,0.0158658 0.00127284,0.0270379 0.00902881,0.0314561 0.00775498,0.00441924 0.0291652,0.0175045 0.0475043,0.0094521 0.0183392,-0.00805138 0.0273947,-0.0170514 0.0387234,-0.0228952 0.0113286,-0.00584275 0.0353371,-0.016533 0.0285318,-0.0360012 -0.00727321,0.0131883 -0.0180051,0.0113614 -0.0264342,0.0176056 -0.00843006,0.00624423 -0.0199698,0.0209423 -0.03831,0.0289947 -0.0183392,0.00805138 -0.0413989,-0.00380067 -0.0481546,-0.00764891 -0.00675674,-0.00384924 -0.0112503,-0.011968 -0.0108895,-0.0209631z"/>
    <path id="_346463400" class="fil15" d="M0.229997 0.174934c0.00153256,0.00148696 0.00324454,0.00271023 0.00497635,0.00369757 0.00831011,0.00473447 0.0308574,0.0162495 0.0498369,0.00791657 0.0189805,-0.0083339 0.0278953,-0.010837 0.0404879,-0.0226186 0.00963251,-0.00901295 0.024402,-0.0104394 0.0234414,-0.0187149l-0.000631462 -0.000707792c-0.00639293,-0.0070234 -0.00833985,-0.011854 -0.0100122,-0.0150698 -0.000727618,-0.00102501 -0.00135908,-0.00198757 -0.00190826,-0.00288767 -0.00245447,-0.00257442 -0.00673394,-0.00306413 -0.0203287,-0.00249611 -0.0288331,0.00120444 -0.0307572,-8.02957e-005 -0.0369023,0.00400091 -0.0061451,0.0040822 -0.0182846,0.0104355 -0.0277347,0.0158569 -0.00945011,0.00542145 -0.0168234,0.0103195 -0.0168234,0.0103195 -0.00470969,0.00861147 -0.00560781,0.0154079 -0.0044014,0.0207034z"/>
    <path id="_346463232" class="fil16" d="M0.269069 0.189481c0.0132607,-0.00693418 0.0154297,-0.00699862 0.0224957,-0.0116924 0.00543136,-0.00360637 0.0392953,-0.0175342 0.0500312,-0.031007 0.00169513,-0.00212734 -0.00227405,-0.0116667 -0.00887714,-0.0182727 -0.00597856,-0.00598154 -0.0146257,-0.0091666 -0.0138951,-0.00952744 0.00329312,-0.00161979 0.00830516,0.000363809 0.012203,0.00296896 0.00668338,0.0044688 0.0119938,0.0143729 0.0127343,0.0143729 0.0146178,0.0169602 -0.00613222,0.0160671 -0.0184631,0.0276059 -0.0125926,0.0117817 -0.0215074,0.0142847 -0.0404879,0.0226186 -0.00510522,0.00224134 -0.0104672,0.00304529 -0.0157409,0.00293327z"/>
   </g>
   <g>
    <path id="_346462992" class="fil17" d="M0.381828 0.83936c0.00695202,-0.00366386 0.0085391,-0.00511514 0.0126213,-0.00599442 0.0040812,-0.000879288 0.00262696,-0.00178237 -0.0104047,-0.0097366 -0.0130327,-0.00795423 -0.0160106,-0.0163209 -0.040138,-0.0216917 -0.0241274,-0.0053699 -0.0594555,-0.0102987 -0.0704967,-0.0129633 -0.0110412,-0.00266562 -0.0110075,-0.000757357 -0.0215916,-0.00200838 -0.0105852,-0.00125004 -0.0214737,-0.00253972 -0.0203773,0.00503682 0.00109638,0.00757655 0.00512009,0.010603 0.00512009,0.010603 0,0 0.103391,0.00784717 0.12688,0.0266175 0.02349,0.0187704 0.0183867,0.0101371 0.0183867,0.0101371z"/>
    <g>
     <path id="_346462488" class="fil18" d="M0.357661 0.85638c0.0170772,-0.00492976 0.0120572,-0.0131873 0.00477809,-0.0189736 -0.00727916,-0.00578526 -0.02827,-0.0186296 -0.0511702,-0.022456 -0.0229011,-0.00382545 -0.027708,-0.00139774 -0.0449507,-0.000870366 -0.0172438,0.000527374 -0.0442539,-0.016079 -0.0326744,-0.000330105 0.0115794,0.0157489 -0.00346957,0.0120424 0.0275632,0.0234701 0.0310338,0.0114278 0.0326566,0.0128602 0.0405246,0.0134203 0.00786799,0.000560088 0.0228496,0.00250503 0.0346689,0.0037858 0.0118193,0.00128176 0.0212605,0.00195386 0.0212605,0.00195386z"/>
     <path id="_346279776" class="fil19" d="M0.327925 0.819895c-0.0163645,-0.00212734 -0.0186911,-0.00300068 -0.0277377,-0.00364503 -0.00695401,-0.000494661 -0.0475034,-0.00778175 -0.0633276,-0.00565143 -0.00249908,0.000337044 -0.00140865,0.00666752 0.0034428,0.012659 0.00439148,0.00542442 0.012536,0.0105911 0.0116419,0.0104622 -0.00403065,-0.000577931 -0.00870564,-0.00363908 -0.0119938,-0.00654162 -0.00563656,-0.00497635 -0.00803354,-0.0120463 -0.00882064,-0.0123546 -0.00997352,-0.0144086 0.0117836,-0.00532133 0.0286686,-0.00583879 0.0172428,-0.000527374 0.0275375,0.0019608 0.0504376,0.00578724 0.00615997,0.00102898 0.0121207,0.00286983 0.0176889,0.00512307z"/>
     <path id="_347413848" class="fil20" d="M0.370455 0.85072c0.0131824,-0.00499122 0.00777283,-0.0142679 0.000743479,-0.0198558 -0.00703034,-0.005587 -0.0261358,-0.0214628 -0.0490369,-0.0252892 -0.0229001,-0.00382545 -0.035912,-0.00316524 -0.0503534,-0.00508738 -0.0144403,-0.00192214 -0.04447,-0.00685488 -0.0435907,0.00595973 0.0124726,-0.00355482 0.0236545,0.00200244 0.0350436,0.00247033 0.0113881,0.000467896 0.0290671,-0.00201235 0.0519672,0.00181409 0.0229001,0.00382545 0.044239,0.0197874 0.0503633,0.0246548 0.00612428,0.00486731 0.0083121,0.0109252 0.00486334,0.0153335z"/>
    </g>
   </g>
   <g>
    <path id="_346470480" class="fil14" d="M0.747725 0.66527c0.00816142,-0.0182579 -0.00146416,-0.0311131 -0.0103889,-0.0361975 -0.00892373,-0.00508441 -0.0335606,-0.0201423 -0.0546636,-0.0108766 -0.0211039,0.00926573 -0.0315235,0.0196219 -0.0445592,0.0263459 -0.0130367,0.00672402 -0.0406633,0.0190251 -0.032832,0.0414276 0.00836959,-0.0151769 0.0207183,-0.0130733 0.0304182,-0.0202593 0.00969992,-0.00718498 0.0229795,-0.0240986 0.0440834,-0.0333644 0.0211029,-0.00926573 0.0476382,0.00437364 0.055412,0.0088018 0.00777481,0.00442915 0.0129455,0.0137712 0.0125301,0.0241224z"/>
    <path id="_349367208" class="fil21" d="M0.741347 0.651601c-0.00176353,-0.00171198 -0.00373326,-0.00311865 -0.00572578,-0.00425468 -0.00956411,-0.00544821 -0.0355086,-0.018699 -0.057349,-0.0091101 -0.0218404,0.00958989 -0.0320995,0.0124696 -0.0465894,0.0260277 -0.0110838,0.010371 -0.0280797,0.0120126 -0.0269744,0.0215351l0.000727618 0.000813862c0.00735549,0.00808211 0.00959683,0.0136414 0.01152,0.0173419 0.000837653,0.00117965 0.00156428,0.00228595 0.00219673,0.00332186 0.00282423,0.00296301 0.00774804,0.00352607 0.0233928,0.0028728 0.033178,-0.00138584 0.0353916,9.31827e-005 0.0424636,-0.00460362 0.00707098,-0.00469681 0.0210395,-0.0120077 0.0319131,-0.018247 0.0108746,-0.00623829 0.0193602,-0.0118748 0.0193602,-0.0118748 0.00541848,-0.00990909 0.00645241,-0.0177295 0.00506458,-0.0238231z"/>
    <path id="_346279176" class="fil16" d="M0.696386 0.634862c-0.0152592,0.00797803 -0.0177563,0.00805237 -0.0258869,0.013453 -0.00624919,0.00415159 -0.0452174,0.020178 -0.0575711,0.035681 -0.0019499,0.00244753 0.00261705,0.0134243 0.0102154,0.0210256 0.00687966,0.00688362 0.0168304,0.0105495 0.0159888,0.0109638 -0.00378877,0.00186465 -0.00955618,-0.000418331 -0.0140418,-0.00341604 -0.00769055,-0.0051419 -0.0138019,-0.0165389 -0.0146535,-0.0165389 -0.0168215,-0.0195158 0.00705611,-0.0184888 0.0212457,-0.0317664 0.0144899,-0.0135581 0.0247489,-0.0164378 0.0465894,-0.0260277 0.00587448,-0.00257839 0.0120444,-0.00350426 0.0181141,-0.0033744z"/>
   </g>
  </g>
 </g>
</svg>
