<?xml version="1.0" encoding="UTF-8" standalone="no"?>
<!-- Creator: CorelDRAW -->

<svg
   xmlns:dc="http://purl.org/dc/elements/1.1/"
   xmlns:cc="http://creativecommons.org/ns#"
   xmlns:rdf="http://www.w3.org/1999/02/22-rdf-syntax-ns#"
   xmlns:svg="http://www.w3.org/2000/svg"
   xmlns="http://www.w3.org/2000/svg"
   xmlns:xlink="http://www.w3.org/1999/xlink"
   xmlns:sodipodi="http://sodipodi.sourceforge.net/DTD/sodipodi-0.dtd"
   xmlns:inkscape="http://www.inkscape.org/namespaces/inkscape"
   xml:space="preserve"
   width="3.9063699in"
   height="3.9063699in"
   style="fill-rule:evenodd"
   viewBox=""
   id="svg6368"
   version="1.1"
   inkscape:version="0.48.3.1 r9886"
   sodipodi:docname="player9.svg"><metadata
   id="metadata6609"><rdf:RDF><cc:Work
       rdf:about=""><dc:format>image/svg+xml</dc:format><dc:type
         rdf:resource="http://purl.org/dc/dcmitype/StillImage" /></cc:Work></rdf:RDF></metadata><sodipodi:namedview
   pagecolor="#ffffff"
   bordercolor="#666666"
   borderopacity="1"
   objecttolerance="10"
   gridtolerance="10"
   guidetolerance="10"
   inkscape:pageopacity="0"
   inkscape:pageshadow="2"
   inkscape:window-width="1366"
   inkscape:window-height="713"
   id="namedview6607"
   showgrid="false"
   inkscape:zoom="0.89353831"
   inkscape:cx="169.56249"
   inkscape:cy="169.69191"
   inkscape:window-x="-2"
   inkscape:window-y="-3"
   inkscape:window-maximized="1"
   inkscape:current-layer="svg6368" />
 <defs
   id="defs6370">
  <style
   type="text/css"
   id="style6372">
   
    .str0 {stroke:gray;stroke-width:0.000403025}
    .str1 {stroke:#99CCCC;stroke-width:0.000403025}
    .str2 {stroke:white;stroke-width:0.000403025}
    .fil33 {fill:none}
    .fil5 {fill:#003333}
    .fil41 {fill:#336666}
    .fil13 {fill:#336699}
    .fil31 {fill:#3C682D}
    .fil37 {fill:#528C36}
    .fil36 {fill:#61A53E}
    .fil12 {fill:#669999}
    .fil23 {fill:#74E9F0}
    .fil21 {fill:#7DC05C}
    .fil43 {fill:#9966CC}
    .fil19 {fill:#999966}
    .fil42 {fill:#99CCCC}
    .fil44 {fill:#99FFFF}
    .fil28 {fill:#C1FFFF}
    .fil4 {fill:#CC3300}
    .fil40 {fill:#D0E8E8}
    .fil39 {fill:#E6E6E6}
    .fil3 {fill:#FFCC00}
    .fil2 {fill:#FFFF66}
    .fil6 {fill:white}
    .fil34 {fill:#224827;fill-rule:nonzero}
    .fil38 {fill:url(#id0)}
    .fil15 {fill:url(#id1)}
    .fil9 {fill:url(#id2)}
    .fil8 {fill:url(#id3)}
    .fil17 {fill:url(#id4)}
    .fil16 {fill:url(#id5)}
    .fil30 {fill:url(#id6)}
    .fil29 {fill:url(#id7)}
    .fil26 {fill:url(#id8)}
    .fil27 {fill:url(#id9)}
    .fil35 {fill:url(#id10)}
    .fil20 {fill:url(#id11)}
    .fil32 {fill:url(#id12)}
    .fil22 {fill:url(#id13)}
    .fil25 {fill:url(#id14)}
    .fil24 {fill:url(#id15)}
    .fil1 {fill:url(#id16)}
    .fil0 {fill:url(#id17)}
    .fil14 {fill:url(#id18)}
    .fil18 {fill:url(#id19)}
    .fil11 {fill:url(#id20)}
    .fil10 {fill:url(#id21)}
    .fil7 {fill:url(#id22)}
  </style>
  <linearGradient
   id="id0"
   gradientUnits="userSpaceOnUse"
   x1="0.131788"
   y1="0.208441"
   x2="0.393323"
   y2="0.208441">
   <stop
   offset="0"
   style="stop-color:#336666"
   id="stop6375" />
   <stop
   offset="0.380392"
   style="stop-color:#99CCCC"
   id="stop6377" />
   <stop
   offset="0.509804"
   style="stop-color:#BDDFDF"
   id="stop6379" />
   <stop
   offset="0.639216"
   style="stop-color:#99CCCC"
   id="stop6381" />
   <stop
   offset="1"
   style="stop-color:#336666"
   id="stop6383" />
  </linearGradient>
  <linearGradient
   id="id1"
   gradientUnits="userSpaceOnUse"
   x1="0.26258701"
   y1="0.164425"
   x2="0.26258701"
   y2="0.217619">
   <stop
   offset="0"
   style="stop-color:#669999"
   id="stop6386" />
   <stop
   offset="1"
   style="stop-color:#003333"
   id="stop6388" />
  </linearGradient>
  <linearGradient
   id="id2"
   gradientUnits="userSpaceOnUse"
   x1="0"
   y1="0.240044"
   x2="0.528651"
   y2="0.240044">
   <stop
   offset="0"
   style="stop-color:#99CCCC"
   id="stop6391" />
   <stop
   offset="0.0784314"
   style="stop-color:#669999"
   id="stop6393" />
   <stop
   offset="0.509804"
   style="stop-color:#99CCCC"
   id="stop6395" />
   <stop
   offset="0.929412"
   style="stop-color:#669999"
   id="stop6397" />
   <stop
   offset="1"
   style="stop-color:#99CCCC"
   id="stop6399" />
  </linearGradient>
  <linearGradient
   id="id3"
   gradientUnits="userSpaceOnUse"
   x1="0.140636"
   y1="0.27583101"
   x2="0.38624001"
   y2="0.27583101">
   <stop
   offset="0"
   style="stop-color:black"
   id="stop6402" />
   <stop
   offset="0.509804"
   style="stop-color:#336666"
   id="stop6404" />
   <stop
   offset="1"
   style="stop-color:black"
   id="stop6406" />
  </linearGradient>
  <linearGradient
   id="id4"
   gradientUnits="userSpaceOnUse"
   x1="0.258973"
   y1="0.149839"
   x2="0.26003799"
   y2="0.210133">
   <stop
   offset="0"
   style="stop-color:#666633"
   id="stop6409" />
   <stop
   offset="1"
   style="stop-color:#1A1A00"
   id="stop6411" />
  </linearGradient>
  <linearGradient
   id="id5"
   gradientUnits="userSpaceOnUse"
   x1="0.26258701"
   y1="0.179428"
   x2="0.26258701"
   y2="0.20708901">
   <stop
   offset="0"
   style="stop-color:#003333"
   id="stop6414" />
   <stop
   offset="1"
   style="stop-color:black"
   id="stop6416" />
  </linearGradient>
  <linearGradient
   id="id6"
   gradientUnits="userSpaceOnUse"
   x1="0.25514901"
   y1="0.123915"
   x2="0.25425801"
   y2="0.114954">
   <stop
   offset="0"
   style="stop-color:black"
   id="stop6419" />
   <stop
   offset="1"
   style="stop-color:#1A1A1A"
   id="stop6421" />
  </linearGradient>
  <linearGradient
   id="id7"
   gradientUnits="userSpaceOnUse"
   x1="0.25363001"
   y1="0.123747"
   x2="0.258237"
   y2="0.111439">
   <stop
   offset="0"
   style="stop-color:#88CA68"
   id="stop6424" />
   <stop
   offset="1"
   style="stop-color:#61A53E"
   id="stop6426" />
  </linearGradient>
  <linearGradient
   id="id8"
   gradientUnits="userSpaceOnUse"
   xlink:href="#id7"
   x1="0.27918601"
   y1="0.120259"
   x2="0.27207401"
   y2="0.109485">
  </linearGradient>
  <linearGradient
   id="id9"
   gradientUnits="userSpaceOnUse"
   xlink:href="#id6"
   x1="0.27601999"
   y1="0.120765"
   x2="0.27519101"
   y2="0.11359">
  </linearGradient>
  <linearGradient
   id="id10"
   gradientUnits="userSpaceOnUse"
   xlink:href="#id7"
   x1="0.26844299"
   y1="0.14109901"
   x2="0.268116"
   y2="0.13804001">
  </linearGradient>
  <linearGradient
   id="id11"
   gradientUnits="userSpaceOnUse"
   x1="0.254509"
   y1="0.181466"
   x2="0.27338299"
   y2="0.174924">
   <stop
   offset="0"
   style="stop-color:#88CA68"
   id="stop6432" />
   <stop
   offset="1"
   style="stop-color:#98D27E"
   id="stop6434" />
  </linearGradient>
  <linearGradient
   id="id12"
   gradientUnits="userSpaceOnUse"
   xlink:href="#id7"
   x1="0.26757899"
   y1="0.132852"
   x2="0.267966"
   y2="0.136494">
  </linearGradient>
  <linearGradient
   id="id13"
   gradientUnits="userSpaceOnUse"
   x1="0.260039"
   y1="0.165207"
   x2="0.261446"
   y2="0.174187">
   <stop
   offset="0"
   style="stop-color:#3C682D"
   id="stop6438" />
   <stop
   offset="1"
   style="stop-color:#88CA68"
   id="stop6440" />
  </linearGradient>
  <linearGradient
   id="id14"
   gradientUnits="userSpaceOnUse"
   x1="0.28500599"
   y1="0.096568003"
   x2="0.26719299"
   y2="0.098730102">
   <stop
   offset="0"
   style="stop-color:#AADA94"
   id="stop6443" />
   <stop
   offset="1"
   style="stop-color:#88CA68"
   id="stop6445" />
  </linearGradient>
  <linearGradient
   id="id15"
   gradientUnits="userSpaceOnUse"
   xlink:href="#id11"
   x1="0.26649001"
   y1="0.112537"
   x2="0.28153899"
   y2="0.110594">
  </linearGradient>
  <radialGradient
   id="id16"
   gradientUnits="userSpaceOnUse"
   cx="0.26239401"
   cy="0.20694201"
   r="0.28734201"
   fx="0.26239401"
   fy="0.20694201">
   <stop
   offset="0"
   style="stop-color:#CC3399"
   id="stop6449" />
   <stop
   offset="1"
   style="stop-color:#000066"
   id="stop6451" />
  </radialGradient>
  <radialGradient
   id="id17"
   gradientUnits="userSpaceOnUse"
   cx="0.26239401"
   cy="0.20694201"
   r="0.28734201"
   fx="0.26239401"
   fy="0.20694201">
   <stop
   offset="0"
   style="stop-color:black"
   id="stop6454" />
   <stop
   offset="0.701961"
   style="stop-color:gray"
   id="stop6456" />
   <stop
   offset="1"
   style="stop-color:white"
   id="stop6458" />
  </radialGradient>
  <radialGradient
   id="id18"
   gradientUnits="userSpaceOnUse"
   cx="0.270381"
   cy="0.22289599"
   r="0.123213"
   fx="0.270381"
   fy="0.22289599">
   <stop
   offset="0"
   style="stop-color:#003333"
   id="stop6461" />
   <stop
   offset="1"
   style="stop-color:#669999"
   id="stop6463" />
  </radialGradient>
  <radialGradient
   id="id19"
   gradientUnits="userSpaceOnUse"
   cx="0.267737"
   cy="0.190294"
   r="0.123114"
   fx="0.267737"
   fy="0.190294">
   <stop
   offset="0"
   style="stop-color:#333300"
   id="stop6466" />
   <stop
   offset="0.431373"
   style="stop-color:#666633"
   id="stop6468" />
   <stop
   offset="1"
   style="stop-color:#999966"
   id="stop6470" />
  </radialGradient>
  <radialGradient
   id="id20"
   gradientUnits="userSpaceOnUse"
   cx="0.262393"
   cy="0.18107501"
   r="0.116751"
   fx="0.262393"
   fy="0.18107501">
   <stop
   offset="0"
   style="stop-color:#FEFEFE"
   id="stop6473" />
   <stop
   offset="1"
   style="stop-color:#99CCCC"
   id="stop6475" />
  </radialGradient>
  <radialGradient
   id="id21"
   gradientUnits="userSpaceOnUse"
   xlink:href="#id20"
   cx="0.262393"
   cy="0.157234"
   r="0.074522197"
   fx="0.262393"
   fy="0.157234">
  </radialGradient>
  <radialGradient
   id="id22"
   gradientUnits="userSpaceOnUse"
   cx="0.264633"
   cy="0.33461601"
   r="0.0382673"
   fx="0.264633"
   fy="0.33461601">
   <stop
   offset="0"
   style="stop-color:#99CCCC"
   id="stop6479" />
   <stop
   offset="1"
   style="stop-color:#336666"
   id="stop6481" />
  </radialGradient>
 <radialGradient
   inkscape:collect="always"
   xlink:href="#id20"
   id="radialGradient6611"
   gradientUnits="userSpaceOnUse"
   cx="0.262393"
   cy="0.18107501"
   fx="0.262393"
   fy="0.18107501"
   r="0.116751" /><linearGradient
   inkscape:collect="always"
   xlink:href="#id11"
   id="linearGradient6613"
   gradientUnits="userSpaceOnUse"
   x1="0.254509"
   y1="0.181466"
   x2="0.27338299"
   y2="0.174924" /><linearGradient
   inkscape:collect="always"
   xlink:href="#id7"
   id="linearGradient6615"
   gradientUnits="userSpaceOnUse"
   x1="0.25363001"
   y1="0.123747"
   x2="0.258237"
   y2="0.111439" /><linearGradient
   inkscape:collect="always"
   xlink:href="#id6"
   id="linearGradient6617"
   gradientUnits="userSpaceOnUse"
   x1="0.25514901"
   y1="0.123915"
   x2="0.25425801"
   y2="0.114954" /></defs>
 <g
   id="Layer_x0020_1"
   transform="matrix(671.04491,0,0,674.34845,0,31.393951)">
  <metadata
   id="CorelCorpID_0Corel-Layer" />
  <g
   id="_346201328">
   <circle
   id="_354761752"
   class="fil0 str0"
   cx="0.26239401"
   cy="0.20694201"
   r="0.20674101"
   sodipodi:cx="0.26239401"
   sodipodi:cy="0.20694201"
   sodipodi:rx="0.20674101"
   sodipodi:ry="0.20674101"
   style="fill:url(#id17);stroke:#808080;stroke-width:0.00040303"
   d="m 0.46913502,0.20694201 c 0,0.1141799 -0.0925611,0.206741 -0.20674101,0.206741 -0.1141799,0 -0.206741,-0.0925611 -0.206741,-0.206741 0,-0.11417991 0.0925611,-0.20674100824 0.206741,-0.20674100824 0.11417991,0 0.20674101,0.0925610982 0.20674101,0.20674100824 z" />
   <circle
   id="_354753736"
   class="fil1"
   cx="0.26239401"
   cy="0.20694201"
   r="0.19677"
   sodipodi:cx="0.26239401"
   sodipodi:cy="0.20694201"
   sodipodi:rx="0.19677"
   sodipodi:ry="0.19677"
   style="fill:url(#id16)"
   d="m 0.45916401,0.20694201 c 0,0.10867307 -0.0880969,0.19676999 -0.19677,0.19676999 -0.10867307,0 -0.19677,-0.0880969 -0.19677,-0.19676999 0,-0.10867307 0.08809693,-0.19677 0.19677,-0.19677 0.10867307,0 0.19677,0.08809693 0.19677,0.19677 z" />
   <g
   id="g6488">
    <g
   id="g6490">
     <path
   id="_354762088"
   class="fil2"
   d="M 0.260009,0.30997 C 0.3086386,0.305428 0.2969467,0.317963 0.3009388,0.3261518 0.3099408,0.3446196 0.2910468,0.3853013 0.2684572,0.4296668 0.2667392,0.4132983 0.1797218,0.3174688 0.2600092,0.3099708 z"
   inkscape:connector-curvature="0"
   style="fill:#ffff66" />
     <path
   id="_354760960"
   class="fil3"
   d="M 0.244669,0.344371 0.242688,0.336882 c 0,0 -0.0115656,-0.0241323 0.0193294,-0.0259296 C 0.2929123,0.3091554 0.2923712,0.3242025 0.289586,0.3314374 0.2868,0.3386724 0.28897988,0.3474891 0.291253,0.3511819 0.293525,0.3548749 0.28796,0.3464169 0.283684,0.3436949 0.279408,0.3409729 0.28298161,0.361976 0.286011,0.3664177 0.28904,0.3708597 0.279192,0.3538922 0.2759084,0.3563611 c -0.003284,0.002469 0.004365,0.0219733 0.003154,0.0268081 -0.00121,0.004834 -0.003104,-0.0121183 -0.005692,-0.005002 -0.002588,0.007115 -0.00979,0.0322241 -0.00979,0.0322241 0,0 0.007743,-0.0401555 0.002554,-0.0360517 -0.005188,0.004104 -0.0161464,0.0213498 -0.0161464,0.0213498 0,0 0.0167192,-0.0376226 0.0105474,-0.0314757 -0.006172,0.006146 -0.0177998,0.0131798 -0.0177998,0.0131798 0,0 0.0225504,-0.0259475 0.0165722,-0.0228138 -0.005979,0.003134 -0.0167864,0.008465 -0.0167864,0.008465 0,0 0.0140218,-0.0111366 0.0109928,-0.0155784 -0.003029,-0.004441 0.00132,0.00451 -0.009421,0.010284 -0.0107415,0.005774 0.002557,-0.00589 5.7598e-4,-0.0133792 z"
   inkscape:connector-curvature="0"
   style="fill:#ffcc00" />
     <path
   id="_354775264"
   class="fil4"
   d="M 0.280064,0.335429 C 0.27954462,0.33521955 0.271366,0.33620596 0.278318,0.328798 0.2998978,0.3058028 0.2495234,0.3109824 0.2449594,0.320003 c -0.002607,0.005153 0.002807,0.015115 0.009195,0.0182081 -0.004894,-0.005458 -0.0126942,-0.016112 -0.002966,-0.0206294 0.0192442,-0.008937 0.037355,-7.6744e-4 0.0274454,0.007012 -0.003487,0.002737 -0.007535,0.0115899 0.00143,0.0108357 z"
   inkscape:connector-curvature="0"
   style="fill:#cc3300" />
    </g>
    <g
   id="g6495">
     <path
   id="_354501560"
   class="fil5"
   d="M 0.389945,0.237651 C 0.3778273,0.2812571 0.345215,0.3157105 0.3023949,0.32873 0.2914788,0.324058 0.2797144,0.321411 0.2657518,0.321411 0.2517892,0.321411 0.2387829,0.324124 0.2278669,0.328796 0.1850473,0.315776 0.1536764,0.281257 0.1415581,0.2376509 l 0.248387,0 z"
   inkscape:connector-curvature="0"
   style="fill:#003333" />
     <path
   id="_354503432"
   class="fil6"
   d="M 0.388826,0.237651 C 0.3767083,0.2812571 0.3453373,0.315217 0.3025177,0.328237 0.2916011,0.323565 0.2785953,0.321411 0.2646328,0.321411 0.2506702,0.321411 0.2376645,0.324124 0.2267484,0.328796 0.1839283,0.315776 0.1525573,0.281257 0.1404396,0.2376509 l 0.248386,0 z"
   inkscape:connector-curvature="0"
   style="fill:#ffffff" />
     <path
   id="_354502664"
   class="fil7"
   d="M 0.391063,0.237092 C 0.3789453,0.2806981 0.3453376,0.3152171 0.302518,0.3282371 0.2916014,0.32356528 0.2785956,0.320852 0.2646331,0.320852 0.2506705,0.320852 0.2376648,0.323565 0.2267487,0.328237 0.1839286,0.3152171 0.1503209,0.2806981 0.1382032,0.237092 l 0.25286,0 z"
   inkscape:connector-curvature="0"
   style="fill:url(#id22)" />
     <path
   id="_354502520"
   class="fil6"
   d="m 0.262393,0.248152 c 0.073651,0 0.141749,-0.003437 0.141749,0.0112932 0,0.0147305 0.002089,0.0480949 -0.140297,0.0480949 -0.142386,0 -0.143201,-0.032772 -0.143201,-0.0475025 0,-0.0147305 0.0680981,-0.0118855 0.141749,-0.0118855 z"
   inkscape:connector-curvature="0"
   style="fill:#ffffff" />
     <path
   id="_354501440"
   class="fil8"
   d="m 0.262393,0.24756 c 0.073651,0 0.141749,-0.002846 0.141749,0.011885 0,0.0147305 0.002089,0.0475031 -0.140297,0.0475031 -0.142386,0 -0.143201,-0.0327725 -0.143201,-0.0475031 0,-0.0147305 0.0680981,-0.011885 0.141749,-0.011885 z"
   inkscape:connector-curvature="0"
   style="fill:url(#id3)" />
     <path
   id="_354499664"
   class="fil9"
   d="m 0.262393,0.187711 c 0.136336,0 0.262393,-0.005267 0.262393,0.0220009 0,0.0272677 0.003867,0.0879331 -0.259705,0.0879331 C 0.00151,0.297645 0,0.2369796 0,0.2097119 0,0.1824442 0.126057,0.187711 0.262393,0.187711 z"
   inkscape:connector-curvature="0"
   style="fill:url(#id2)" />
     <ellipse
   id="_354501968"
   class="fil10"
   cx="0.262393"
   cy="0.209712"
   rx="0.262393"
   ry="0.052478101"
   sodipodi:cx="0.262393"
   sodipodi:cy="0.209712"
   sodipodi:rx="0.262393"
   sodipodi:ry="0.052478101"
   style="fill:url(#id21)"
   d="m 0.524786,0.209712 c 0,0.0289828 -0.11747735,0.0524781 -0.262393,0.0524781 C 0.11747735,0.2621901 0,0.23869485 0,0.209712 0,0.18072914 0.11747735,0.1572339 0.262393,0.1572339 c 0.14491565,0 0.262393,0.0234952 0.262393,0.0524781 z" />
     <ellipse
   id="_354501248"
   class="fil11 str1"
   cx="0.262393"
   cy="0.209712"
   rx="0.20455401"
   ry="0.0409104"
   sodipodi:cx="0.262393"
   sodipodi:cy="0.209712"
   sodipodi:rx="0.20455401"
   sodipodi:ry="0.0409104"
   style="fill:url(#radialGradient6611);stroke:#99cccc;stroke-width:0.00040303"
   d="m 0.466947,0.209712 c 0,0.0225942 -0.0915819,0.0409104 -0.204554,0.0409104 -0.11297206,0 -0.20455401,-0.0183162 -0.20455401,-0.0409104 0,-0.0225942 0.09158195,-0.0409104 0.20455401,-0.0409104 0.11297206,0 0.204554,0.0183162 0.204554,0.0409104 z" />
     <ellipse
   id="_354503360"
   class="fil12 str1"
   cx="0.262393"
   cy="0.199616"
   rx="0.135818"
   ry="0.0271635"
   sodipodi:cx="0.262393"
   sodipodi:cy="0.199616"
   sodipodi:rx="0.135818"
   sodipodi:ry="0.0271635"
   style="fill:#669999;stroke:#99cccc;stroke-width:0.00040303"
   d="m 0.398211,0.199616 c 0,0.015002 -0.0608078,0.0271635 -0.135818,0.0271635 -0.0750102,0 -0.13581801,-0.0121615 -0.13581801,-0.0271635 0,-0.015002 0.0608078,-0.0271635 0.13581801,-0.0271635 0.0750102,0 0.135818,0.0121615 0.135818,0.0271635 z" />
     <path
   id="_354502184"
   class="fil13"
   d="m 0.262393,0.0453615 c 0.001102,0 0.002201,1.957e-5 0.003296,5.501e-5 3.4061e-4,1.11e-5 6.7964e-4,3.385e-5 0.00102,4.813e-5 7.447e-4,3.173e-5 0.001489,6.294e-5 0.00223,1.1054e-4 4.4481e-4,2.856e-5 8.8697e-4,6.928e-5 0.001331,1.0419e-4 6.3733e-4,4.972e-5 0.001276,9.732e-5 0.001911,1.5867e-4 4.7178e-4,4.602e-5 9.4145e-4,1.0208e-4 0.001412,1.5444e-4 6.0718e-4,6.77e-5 0.001215,1.3434e-4 0.00182,2.1262e-4 4.6649e-4,6.03e-5 9.3193e-4,1.2958e-4 0.001398,1.9623e-4 6.0295e-4,8.674e-5 0.001206,1.7401e-4 0.001807,2.7132e-4 4.8236e-4,7.828e-5 9.6314e-4,1.6344e-4 0.001444,2.4859e-4 5.7492e-4,1.0155e-4 0.001149,2.0469e-4 0.001722,3.1576e-4 4.8342e-4,9.414e-5 9.6525e-4,1.941e-4 0.001448,2.9512e-4 5.7915e-4,1.2112e-4 0.001157,2.4647e-4 0.001733,3.7711e-4 4.6914e-4,1.0684e-4 9.3775e-4,2.1844e-4 0.001405,3.311e-4 5.7598e-4,1.3963e-4 0.001151,2.8402e-4 0.001724,4.3317e-4 4.7178e-4,1.2324e-4 9.4251e-4,2.4859e-4 0.001412,3.7817e-4 5.654e-4,1.5602e-4 0.001128,3.1787e-4 0.001691,4.8342e-4 4.6967e-4,1.3804e-4 9.3881e-4,2.7661e-4 0.001407,4.2153e-4 5.5958e-4,1.7243e-4 0.001117,3.5331e-4 0.001673,5.3631e-4 4.6438e-4,1.518e-4 9.277e-4,3.0306e-4 0.001389,4.6174e-4 5.6804e-4,1.9463e-4 0.001132,3.9879e-4 0.001697,6.0295e-4 4.4481e-4,1.6078e-4 8.9015e-4,3.1893e-4 0.001333,4.8606e-4 5.6804e-4,2.1421e-4 0.001132,4.3952e-4 0.001697,6.6325e-4 4.3952e-4,1.7454e-4 8.8063e-4,3.4537e-4 0.001319,5.252e-4 6.0613e-4,2.4964e-4 0.001208,5.1092e-4 0.00181,7.7167e-4 3.787e-4,1.6396e-4 7.5951e-4,3.221e-4 0.001137,4.903e-4 6.7859e-4,3.0306e-4 0.001352,6.204e-4 0.002026,9.3722e-4 3.1153e-4,1.465e-4 6.2516e-4,2.8613e-4 9.3563e-4,4.3581e-4 9.5997e-4,4.6227e-4 0.001915,9.3881e-4 0.002864,0.0014296 3.385e-4,1.7507e-4 6.7277e-4,3.6125e-4 0.00101,5.4002e-4 6.2834e-4,3.3268e-4 0.001257,6.6377e-4 0.00188,0.0010092 3.8981e-4,2.1579e-4 7.7538e-4,4.4269e-4 0.001164,6.6271e-4 5.5641e-4,3.1682e-4 0.001113,6.3152e-4 0.001666,9.5732e-4 4.3159e-4,2.5493e-4 8.5894e-4,5.2097e-4 0.001288,7.8172e-4 5.0405e-4,3.0677e-4 0.001009,6.1089e-4 0.00151,9.2559e-4 4.4481e-4,2.7979e-4 8.8539e-4,5.6804e-4 0.001328,8.5471e-4 4.7708e-4,3.0835e-4 9.5521e-4,6.1617e-4 0.00143,9.3245e-4 4.4904e-4,2.9989e-4 8.9491e-4,6.0666e-4 0.001341,9.1342e-4 4.6385e-4,3.1788e-4 9.2664e-4,6.3628e-4 0.001387,9.6102e-4 4.4799e-4,3.1629e-4 8.9332e-4,6.3892e-4 0.001338,9.6208e-4 4.5486e-4,3.3057e-4 9.0919e-4,6.6219e-4 0.00136,9.9963e-4 4.3318e-4,3.2316e-4 8.6318e-4,6.5003e-4 0.001293,9.7953e-4 4.5486e-4,3.4908e-4 9.0919e-4,7.008e-4 0.00136,0.0010562 4.3529e-4,3.4326e-4 8.7005e-4,6.897e-4 0.001302,0.0010393 4.3053e-4,3.4802e-4 8.5894e-4,7.008e-4 0.001286,0.0010546 4.4005e-4,3.6548e-4 8.7904e-4,7.3201e-4 0.001315,0.0011038 4.2419e-4,3.6125e-4 8.4519e-4,7.2725e-4 0.001266,0.0010943 4.2683e-4,3.7235e-4 8.526e-4,7.4629e-4 0.001276,0.001125 4.2313e-4,3.787e-4 8.4202e-4,7.6321e-4 0.00126,0.0011477 4.1942e-4,3.8505e-4 8.3885e-4,7.6956e-4 0.001255,0.0011604 4.0885e-4,3.8452e-4 8.1293e-4,7.7696e-4 0.001219,0.0011673 4.1625e-4,4.0197e-4 8.3462e-4,8.0182e-4 0.001247,0.0012101 3.9986e-4,3.9457e-4 7.9495e-4,7.9812e-4 0.001191,0.001199 4.1361e-4,4.189e-4 8.2933e-4,8.3409e-4 0.001239,0.0012593 3.7182e-4,3.8558e-4 7.3783e-4,7.8067e-4 0.001107,0.0011715 4.2471e-4,4.4957e-4 8.5048e-4,8.9491e-4 0.00127,0.0013519 3.5225e-4,3.8293e-4 6.9869e-4,7.7591e-4 0.001048,0.0011641 0.001646,0.0018284 0.003258,0.0037092 0.004833,0.0056397 2.9143e-4,3.5701e-4 5.855e-4,7.0926e-4 8.7481e-4,0.00107 4.0461e-4,5.0458e-4 8.0235e-4,0.0010197 0.001202,0.0015317 3.2634e-4,4.1784e-4 6.5584e-4,8.3356e-4 9.79e-4,0.0012561 3.9139e-4,5.1198e-4 7.7644e-4,0.0010319 0.001164,0.0015502 3.2687e-4,4.3741e-4 6.5426e-4,8.727e-4 9.7689e-4,0.0013143 3.7923e-4,5.1992e-4 7.5263e-4,0.0010462 0.001127,0.0015714 3.1576e-4,4.4217e-4 6.3204e-4,8.838e-4 9.4357e-4,0.00133 3.8398e-4,5.5112e-4 7.6374e-4,0.001109 0.001142,0.001666 2.9407e-4,4.3212e-4 5.8761e-4,8.6423e-4 8.7851e-4,0.001301 3.7711e-4,5.6593e-4 7.4999e-4,0.001137 0.001122,0.00171 2.8666e-4,4.4217e-4 5.7227e-4,8.8486e-4 8.563e-4,0.001331 3.6758e-4,5.7757e-4 7.3094e-4,0.001159 0.001093,0.001743 2.7503e-4,4.4481e-4 5.49e-4,8.9121e-4 8.2086e-4,0.00134 3.6547e-4,6.0137e-4 7.2724e-4,0.001206 0.001086,0.001814 2.6286e-4,4.4534e-4 5.2361e-4,8.9332e-4 7.8277e-4,0.001342 3.4855e-4,6.019e-4 6.9551e-4,0.001205 0.001038,0.001814 2.6181e-4,4.6544e-4 5.2045e-4,9.3458e-4 7.7908e-4,0.001404 3.4485e-4,6.2517e-4 6.8811e-4,0.001251 0.001027,0.001883 2.3801e-4,4.427e-4 4.7126e-4,8.9015e-4 7.0556e-4,0.001336 3.3956e-4,6.4738e-4 6.7964e-4,0.001295 0.001013,0.001948 2.3219e-4,4.5486e-4 4.5856e-4,9.1448e-4 6.8811e-4,0.001373 3.3215e-4,6.6431e-4 6.6483e-4,0.001328 9.9011e-4,0.001999 1.9886e-4,4.1096e-4 3.9244e-4,8.2668e-4 5.8867e-4,0.00124 3.4696e-4,7.2831e-4 6.9445e-4,0.001457 0.001033,0.002193 1.5497e-4,3.3639e-4 3.0412e-4,6.7753e-4 4.5697e-4,0.001015 3.6547e-4,8.0817e-4 7.32e-4,0.001615 0.001088,0.002432 l 1.4862e-4,3.4961e-4 c 0.001292,0.002975 0.002513,0.00601 0.003671,0.009092 1.3011e-4,3.4696e-4 2.6445e-4,6.9128e-4 3.9298e-4,0.001039 2.9883e-4,8.0975e-4 5.8708e-4,0.001626 8.7692e-4,0.002442 1.4175e-4,3.9985e-4 2.8667e-4,7.9653e-4 4.263e-4,0.001198 2.7715e-4,7.9865e-4 5.4583e-4,0.001603 8.1346e-4,0.002408 1.4333e-4,4.3e-4 2.8878e-4,8.5841e-4 4.2947e-4,0.00129 2.5017e-4,7.6691e-4 4.9188e-4,0.00154 7.3359e-4,0.002312 1.5391e-4,4.9135e-4 3.0888e-4,9.8218e-4 4.5909e-4,0.001476 2.2637e-4,7.4311e-4 4.4586e-4,0.00149 6.643e-4,0.002239 1.5021e-4,5.1409e-4 3.0042e-4,0.001028 4.4745e-4,0.001545 2.158e-4,7.6056e-4 4.2577e-4,0.001524 6.3363e-4,0.002289 1.3805e-4,5.0828e-4 2.745e-4,0.001017 4.0937e-4,0.001527 2.0046e-4,7.6109e-4 3.9668e-4,0.001527 5.8973e-4,0.002293 1.3434e-4,5.3419e-4 2.6604e-4,0.00107 3.9615e-4,0.001606 1.8671e-4,7.6427e-4 3.6812e-4,0.001531 5.4636e-4,0.0023 1.2218e-4,5.2573e-4 2.4012e-4,0.001053 3.5807e-4,0.001581 1.7613e-4,7.8807e-4 3.5014e-4,0.001578 5.178e-4,0.002371 1.079e-4,5.1039e-4 2.1209e-4,0.001022 3.1575e-4,0.001533 1.6555e-4,8.124e-4 3.3004e-4,0.001625 4.866e-4,0.002442 9.731e-5,5.0563e-4 1.8934e-4,0.001014 2.8296e-4,0.001521 1.5338e-4,8.2985e-4 3.0518e-4,0.00166 4.4957e-4,0.002495 8.409e-5,4.8553e-4 1.6184e-4,9.7371e-4 2.4224e-4,0.00146 1.428e-4,8.6159e-4 2.8508e-4,0.001724 4.1836e-4,0.002591 6.823e-5,4.4587e-4 1.2958e-4,8.9491e-4 1.957e-4,0.001341 1.3381e-4,9.1183e-4 2.6868e-4,0.001824 3.9191e-4,0.00274 4.602e-5,3.3956e-4 8.463e-5,6.8334e-4 1.2853e-4,0.001023 4.7707e-4,0.003676 8.6899e-4,0.00739 0.001165,0.0111414 -0.006844,0.0132184 -0.0627048,0.0235252 -0.130605,0.0235252 -0.0679003,0 -0.123761,-0.0103068 -0.130605,-0.0235252 2.9566e-4,-0.003752 6.8916e-4,-0.007464 0.001165,-0.0111414 4.39e-5,-3.4009e-4 8.251e-5,-6.8387e-4 1.2852e-4,-0.001023 1.2324e-4,-9.1712e-4 2.5811e-4,-0.001828 3.9192e-4,-0.00274 6.558e-5,-4.4693e-4 1.2747e-4,-8.9491e-4 1.957e-4,-0.001341 1.3328e-4,-8.6688e-4 2.7555e-4,-0.001729 4.1836e-4,-0.002591 8.039e-5,-4.8659e-4 1.5814e-4,-9.753e-4 2.4224e-4,-0.00146 1.4333e-4,-8.3461e-4 2.9618e-4,-0.001664 4.4957e-4,-0.002495 9.308e-5,-5.0722e-4 1.8617e-4,-0.001016 2.8296e-4,-0.001521 1.5656e-4,-8.1663e-4 3.1999e-4,-0.001629 4.8606e-4,-0.002442 1.0473e-4,-5.1145e-4 2.0839e-4,-0.001023 3.1629e-4,-0.001533 1.6766e-4,-7.9283e-4 3.4167e-4,-0.001583 5.178e-4,-0.002371 1.1794e-4,-5.2785e-4 2.3642e-4,-0.001055 3.5754e-4,-0.001581 1.7824e-4,-7.6956e-4 3.6018e-4,-0.001535 5.4636e-4,-0.0023 1.3063e-4,-5.3631e-4 2.6233e-4,-0.001072 3.9667e-4,-0.001606 1.9305e-4,-7.6638e-4 3.8928e-4,-0.001531 5.8973e-4,-0.002293 1.3435e-4,-5.1092e-4 2.7186e-4,-0.001019 4.0938e-4,-0.001527 2.0733e-4,-7.6533e-4 4.1783e-4,-0.001529 6.3362e-4,-0.002289 1.4651e-4,-5.1674e-4 2.9725e-4,-0.001031 4.4746e-4,-0.001545 2.1843e-4,-7.484e-4 4.3846e-4,-0.001496 6.643e-4,-0.002239 1.5021e-4,-4.94e-4 3.0518e-4,-9.8429e-4 4.5909e-4,-0.001476 2.4171e-4,-7.7326e-4 4.8395e-4,-0.001545 7.3359e-4,-0.002312 1.4016e-4,-4.3159e-4 2.8614e-4,-8.6e-4 4.2947e-4,-0.00129 2.6816e-4,-8.0499e-4 5.3631e-4,-0.001609 8.1346e-4,-0.002408 1.391e-4,-4.0144e-4 2.8455e-4,-7.9812e-4 4.2629e-4,-0.001198 2.8879e-4,-8.1663e-4 5.781e-4,-0.001633 8.764e-4,-0.002442 1.2905e-4,-3.4855e-4 2.6287e-4,-6.9234e-4 3.935e-4,-0.001039 0.001157,-0.003083 0.002379,-0.006117 0.00367,-0.009092 l 1.4916e-4,-3.4961e-4 c 3.5595e-4,-8.1663e-4 7.2142e-4,-0.001624 0.001088,-0.002432 1.5285e-4,-3.3744e-4 3.0253e-4,-6.7858e-4 4.5697e-4,-0.001015 3.3797e-4,-7.3623e-4 6.8652e-4,-0.001465 0.001033,-0.002193 1.9675e-4,-4.1307e-4 3.898e-4,-8.2932e-4 5.892e-4,-0.00124 3.2475e-4,-6.7118e-4 6.5796e-4,-0.001334 9.9011e-4,-0.001999 2.2902e-4,-4.5803e-4 4.5592e-4,-9.1818e-4 6.881e-4,-0.001373 3.3321e-4,-6.5372e-4 6.7277e-4,-0.001301 0.001013,-0.001948 2.3431e-4,-4.4586e-4 4.6756e-4,-8.9279e-4 7.0503e-4,-0.001336 3.385e-4,-6.3204e-4 6.8229e-4,-0.001258 0.001027,-0.001883 2.5864e-4,-4.6914e-4 5.178e-4,-9.3827e-4 7.7961e-4,-0.001404 3.422e-4,-6.0824e-4 6.8916e-4,-0.001212 0.001037,-0.001814 2.5969e-4,-4.4851e-4 5.2044e-4,-8.9649e-4 7.8331e-4,-0.001342 3.586e-4,-6.0771e-4 7.209e-4,-0.001212 0.001086,-0.001814 2.7133e-4,-4.4851e-4 5.4583e-4,-8.949e-4 8.2086e-4,-0.00134 3.6177e-4,-5.8338e-4 7.2513e-4,-0.001165 0.001093,-0.001743 2.8349e-4,-4.4639e-4 5.6963e-4,-8.8856e-4 8.563e-4,-0.001331 3.7129e-4,-5.728e-4 7.4469e-4,-0.001143 0.001122,-0.00171 2.9089e-4,-4.3634e-4 5.8496e-4,-8.6846e-4 8.7851e-4,-0.001301 3.7922e-4,-5.5746e-4 7.5845e-4,-0.001114 0.001142,-0.001666 3.1152e-4,-4.4639e-4 6.2781e-4,-8.875e-4 9.4303e-4,-0.00133 3.75e-4,-5.2573e-4 7.4787e-4,-0.0010515 0.001128,-0.0015714 3.2264e-4,-4.4163e-4 6.5003e-4,-8.7639e-4 9.7689e-4,-0.0013143 3.861e-4,-5.1832e-4 7.722e-4,-0.0010382 0.001164,-0.0015502 3.2316e-4,-4.2259e-4 6.5267e-4,-8.3831e-4 9.79e-4,-0.0012561 3.9986e-4,-5.1198e-4 7.9759e-4,-0.0010271 0.001202,-0.0015317 2.8879e-4,-3.6018e-4 5.8391e-4,-7.1296e-4 8.7481e-4,-0.00107 0.001575,-0.001931 0.003187,-0.0038113 0.004833,-0.0056397 3.4961e-4,-3.8821e-4 6.9604e-4,-7.8119e-4 0.001048,-0.0011641 4.1995e-4,-4.5644e-4 8.4572e-4,-9.0231e-4 0.00127,-0.0013519 3.6865e-4,-3.9086e-4 7.3518e-4,-7.8595e-4 0.001107,-0.0011715 4.099e-4,-4.2524e-4 8.2509e-4,-8.4043e-4 0.001239,-0.0012593 3.9562e-4,-4.0091e-4 7.9071e-4,-8.0393e-4 0.001191,-0.001199 4.1255e-4,-4.0831e-4 8.3091e-4,-8.0816e-4 0.001247,-0.0012101 4.0567e-4,-3.9086e-4 8.0975e-4,-7.8278e-4 0.001219,-0.0011673 4.1572e-4,-3.9139e-4 8.3514e-4,-7.7537e-4 0.001254,-0.0011604 4.1889e-4,-3.8451e-4 8.3779e-4,-7.6902e-4 0.00126,-0.0011477 4.2313e-4,-3.7869e-4 8.4942e-4,-7.5263e-4 0.001276,-0.001125 4.2048e-4,-3.6706e-4 8.4149e-4,-7.3306e-4 0.001265,-0.0010943 4.3635e-4,-3.7182e-4 8.7534e-4,-7.3888e-4 0.001315,-0.0011038 4.2736e-4,-3.5436e-4 8.5524e-4,-7.0608e-4 0.001286,-0.0010546 4.3212e-4,-3.4907e-4 8.6635e-4,-6.9604e-4 0.001302,-0.0010393 4.5169e-4,-3.5542e-4 9.0549e-4,-7.0714e-4 0.00136,-0.0010562 4.2947e-4,-3.295e-4 8.6e-4,-6.5637e-4 0.001292,-9.7953e-4 4.5169e-4,-3.3744e-4 9.0602e-4,-6.6906e-4 0.001361,-9.9963e-4 4.4481e-4,-3.2316e-4 8.9015e-4,-6.4579e-4 0.001338,-9.6208e-4 4.6015e-4,-3.2527e-4 9.2347e-4,-6.4314e-4 0.001387,-9.6102e-4 4.4587e-4,-3.0676e-4 8.9173e-4,-6.1405e-4 0.001341,-9.1342e-4 4.739e-4,-3.1628e-4 9.5256e-4,-6.241e-4 0.00143,-9.3245e-4 4.4217e-4,-2.8667e-4 8.8327e-4,-5.7492e-4 0.001328,-8.5471e-4 5.0035e-4,-3.147e-4 0.001006,-6.1829e-4 0.00151,-9.2559e-4 4.2947e-4,-2.6075e-4 8.563e-4,-5.2679e-4 0.001288,-7.8172e-4 5.5218e-4,-3.2633e-4 0.001109,-6.405e-4 0.001666,-9.5732e-4 3.8822e-4,-2.2055e-4 7.7379e-4,-4.4692e-4 0.001164,-6.6271e-4 6.2305e-4,-3.4538e-4 0.001252,-6.7647e-4 0.001879,-0.0010092 3.3744e-4,-1.7877e-4 6.7171e-4,-3.6495e-4 0.00101,-5.4002e-4 9.4939e-4,-4.9082e-4 0.001905,-9.6736e-4 0.002864,-0.0014296 3.1047e-4,-1.5021e-4 6.2411e-4,-2.8878e-4 9.3563e-4,-4.3581e-4 6.7383e-4,-3.1682e-4 0.001348,-6.3469e-4 0.002026,-9.3722e-4 3.7711e-4,-1.682e-4 7.5793e-4,-3.2634e-4 0.001136,-4.903e-4 6.0243e-4,-2.6075e-4 0.001204,-5.2203e-4 0.00181,-7.7167e-4 4.3741e-4,-1.7983e-4 8.7852e-4,-3.5066e-4 0.001319,-5.252e-4 5.6434e-4,-2.2426e-4 0.001129,-4.4904e-4 0.001697,-6.6325e-4 4.4323e-4,-1.6713e-4 8.8803e-4,-3.2528e-4 0.001333,-4.8606e-4 5.6382e-4,-2.0469e-4 0.001129,-4.0832e-4 0.001696,-6.0295e-4 4.6227e-4,-1.5867e-4 9.2612e-4,-3.0994e-4 0.00139,-4.6174e-4 5.5694e-4,-1.83e-4 0.001114,-3.6336e-4 0.001673,-5.3631e-4 4.6809e-4,-1.4492e-4 9.3722e-4,-2.8349e-4 0.001407,-4.2153e-4 5.6223e-4,-1.6555e-4 0.001126,-3.274e-4 0.001691,-4.8342e-4 4.6967e-4,-1.2958e-4 9.404e-4,-2.5493e-4 0.001412,-3.7817e-4 5.7334e-4,-1.4968e-4 0.001148,-2.9354e-4 0.001724,-4.3317e-4 4.6756e-4,-1.1372e-4 9.3616e-4,-2.2373e-4 0.001405,-3.311e-4 5.7651e-4,-1.3116e-4 0.001154,-2.5546e-4 0.001733,-3.7711e-4 4.8184e-4,-1.0155e-4 9.642e-4,-2.0098e-4 0.001448,-2.9512e-4 5.7228e-4,-1.116e-4 0.001147,-2.1315e-4 0.001721,-3.1576e-4 4.8131e-4,-8.515e-5 9.6208e-4,-1.7031e-4 0.001444,-2.4859e-4 6.0084e-4,-9.784e-5 0.001204,-1.8458e-4 0.001807,-2.7132e-4 4.6597e-4,-6.717e-5 9.3088e-4,-1.354e-4 0.001398,-1.9623e-4 6.0507e-4,-7.88e-5 0.001213,-1.4492e-4 0.00182,-2.1262e-4 4.702e-4,-5.236e-5 9.3987e-4,-1.0789e-4 0.001412,-1.5444e-4 6.3522e-4,-6.188e-5 0.001273,-1.0895e-4 0.001911,-1.5867e-4 4.4375e-4,-3.491e-5 8.8539e-4,-7.51e-5 0.001331,-1.0419e-4 7.41e-4,-4.919e-5 0.001486,-7.828e-5 0.00223,-1.1054e-4 3.4009e-4,-1.428e-5 6.7912e-4,-3.597e-5 0.00102,-4.813e-5 0.001095,-3.861e-5 0.002194,-5.501e-5 0.003296,-5.501e-5 z"
   inkscape:connector-curvature="0"
   style="fill:#336699" />
     <path
   id="_354501104"
   class="fil6"
   d="m 0.262393,0.141969 c 0.0610864,0 0.110094,0.0106849 0.124766,0.0219834 0.00134,0.0101407 0.005086,0.026094 0.005461,0.030311 0,0.0145042 -0.0563976,0.0235246 -0.128919,0.0235246 -0.0725218,0 -0.1314,-0.009547 -0.1314,-0.0240514 0,-0.001837 0.004523,-0.0251558 0.005183,-0.0292067 0.0123764,-0.0119316 0.0615751,-0.022561 0.124909,-0.022561 z"
   inkscape:connector-curvature="0"
   style="fill:#ffffff" />
     <path
   id="_354502832"
   class="fil14"
   d="m 0.262393,0.142528 c 0.0610864,0 0.110094,0.0101259 0.124766,0.0214243 0.002707,0.0102317 0.005671,0.0266917 0.005461,0.0308701 0,0.0145042 -0.0563976,0.0235252 -0.128919,0.0235252 -0.0725218,0 -0.1314,-0.009548 -0.1314,-0.0240519 0,-0.001837 0.004523,-0.0257148 0.005183,-0.0297657 C 0.1498604,0.1525984 0.1990591,0.1425281 0.262393,0.1425281 z"
   inkscape:connector-curvature="0"
   style="fill:url(#id18)" />
     <path
   id="_354501656"
   class="fil15"
   d="m 0.262393,0.164425 c 0.0610864,0 0.114639,0.0119845 0.129311,0.0232834 0.00134,0.0101407 6.6272e-4,0.005159 0.001037,0.009375 0,0.0145047 -0.0541101,0.0205358 -0.126632,0.0205358 -0.0725213,0 -0.133978,-0.00741 -0.133978,-0.0219146 0,-0.001837 4.8289e-4,-0.005317 0.001143,-0.009367 C 0.1456498,0.174406 0.1990586,0.1644251 0.262393,0.1644251 z"
   inkscape:connector-curvature="0"
   style="fill:url(#id1)" />
     <path
   id="_354503168"
   class="fil16"
   d="m 0.262393,0.166662 c 0.0610864,0 0.114639,0.0119845 0.129311,0.0232834 0.00134,0.0101402 6.6272e-4,0.005159 0.001037,0.009375 0,0.0145047 -0.0541101,0.0205358 -0.126632,0.0205358 -0.0725213,0 -0.133978,-0.00741 -0.133978,-0.0219146 0,-0.001837 4.8289e-4,-0.005317 0.001143,-0.009367 C 0.1456498,0.176643 0.1990586,0.1666621 0.262393,0.1666621 z"
   inkscape:connector-curvature="0"
   style="fill:url(#id5)" />
     <path
   id="_354502688"
   class="fil17"
   d="m 0.259487,0.142077 c 0.0176919,0 0.032352,0.0110446 0.0366018,0.0223431 3.8769e-4,0.0101407 0.001007,0.0257344 0.001115,0.0299513 0,0.0145042 -0.0163342,0.0235246 -0.037338,0.0235246 -0.0210039,0 -0.0380568,-0.009547 -0.0380568,-0.0240514 0,-0.001837 8.8486e-4,-0.0253737 0.001076,-0.0294246 C 0.226469,0.1524884 0.2411433,0.1420769 0.2594868,0.1420769 z"
   inkscape:connector-curvature="0"
   style="fill:url(#id4)" />
     <path
   id="_354502040"
   class="fil18"
   d="m 0.26244,0.142528 c 0.0176919,0 0.0323526,0.0110446 0.0366018,0.0223431 3.8822e-4,0.0101407 0.001007,0.0257344 0.001115,0.0299513 0,0.0145042 -0.0163342,0.0235252 -0.037338,0.0235252 -0.0210039,0 -0.0380563,-0.009548 -0.0380563,-0.0240519 0,-0.001837 8.8486e-4,-0.0253737 0.001076,-0.0294246 C 0.2294225,0.1529395 0.2440974,0.142528 0.2624403,0.142528 z"
   inkscape:connector-curvature="0"
   style="fill:url(#id19)" />
     <path
   id="_354502760"
   class="fil19"
   d="m 0.26244,0.142528 c 0.001689,0 0.003351,1.0208e-4 0.004978,2.9407e-4 -0.001151,-9.52e-5 -0.002318,-1.4598e-4 -0.003499,-1.4598e-4 -0.0183429,0 -0.0338557,0.010411 -0.0374401,0.0223425 -1.9094e-4,0.004051 -0.001076,0.0275871 -0.001076,0.0294246 0,0.0127879 0.0140953,0.0217205 0.0316269,0.0236563 -0.018261,-0.001585 -0.032268,-0.0106585 -0.032268,-0.0238039 0,-0.001837 8.8539e-4,-0.0253737 0.001077,-0.0294246 0.003584,-0.0119316 0.0182578,-0.0223431 0.0366013,-0.0223431 z"
   inkscape:connector-curvature="0"
   style="fill:#999966" />
     <g
   id="g6514">
      <path
   id="_354500240"
   class="fil20"
   d="m 0.234069,0.200918 c 0,0 0.0155789,-0.0243254 0.0241376,-0.0264939 0.001035,-2.6339e-4 0.001867,-2.9619e-4 0.003131,-9.5996e-4 0.001143,-0.001805 0.002161,-0.001594 0.00132,-0.009793 -8.4096e-4,-0.008199 0.008041,-0.00392 0.008041,-0.00392 0,0 1.5021e-4,0.009248 0.003005,0.012855 0.001262,3.1364e-4 0.003712,8.4995e-4 0.004696,0.001286 0.0106511,0.004717 0.0154229,0.0270254 0.0154229,0.0270254 l -0.007047,0 c 7.087e-5,0 -0.004607,-0.0162733 -0.008528,-0.0166621 -1.0578e-4,0.00837 8.5418e-4,0.0108976 0.001148,0.0166621 l -0.0235204,0 c 0,0 -3.1787e-4,-0.007688 -1.0578e-4,-0.0112905 2.1156e-4,-0.003602 -0.0103835,0.004729 -0.0119723,0.0112905 -0.005403,0 -0.009729,0 -0.009729,0 z"
   inkscape:connector-curvature="0"
   style="fill:url(#linearGradient6613)" />
      <path
   id="_354500528"
   class="fil21"
   d="m 0.288675,0.200918 -0.001899,0 c 0,0 -0.004254,-0.0152489 -0.008528,-0.0166621 -1.0578e-4,0.00837 8.5418e-4,0.0108976 0.001148,0.0166621 l -0.002663,0 c -3.898e-4,-0.005474 -3.9985e-4,-0.0146459 4.178e-5,-0.0178648 4.4217e-4,-0.003219 0.006632,-0.001112 0.0118988,0.0178648 z"
   inkscape:connector-curvature="0"
   style="fill:#7dc05c" />
      <path
   id="_354502256"
   class="fil21"
   d="m 0.257197,0.200918 -0.001321,0 c 0,0 -3.1787e-4,-0.007688 -1.0578e-4,-0.0112905 2.1156e-4,-0.003602 -0.0103835,0.004729 -0.0119723,0.0112905 l -0.003029,0 c 0.004032,-0.007266 0.0134971,-0.0179838 0.0152901,-0.0142831 0.001793,0.003701 7.8965e-4,0.007138 0.001137,0.0142831 z"
   inkscape:connector-curvature="0"
   style="fill:#7dc05c" />
      <path
   id="_354506912"
   class="fil22"
   d="M 0.246669,0.183921 C 0.250703,0.179259 0.25496,0.175246 0.2582071,0.174423 c 0.001035,-2.6339e-4 0.001867,-2.9619e-4 0.003131,-9.5996e-4 0.001143,-0.001805 0.002161,-0.001594 0.00132,-0.009793 -8.4096e-4,-0.008199 0.008041,-0.00392 0.008041,-0.00392 0,0 -5.1991e-4,0.008217 0.002335,0.0118242 1.6343e-4,3.4432e-4 7.8595e-4,0.001275 0.001782,0.001344 -0.001371,0.001323 -0.001553,0.001197 -0.005685,0.002169 -0.004132,9.7213e-4 -0.0152489,0.002842 -0.0191559,0.006187 -9.3299e-4,7.997e-4 -0.002089,0.001715 -0.003306,0.002646 z"
   inkscape:connector-curvature="0"
   style="fill:url(#id13)" />
      <path
   id="_354504176"
   class="fil23"
   d="m 0.234069,0.200918 c 0,0 0.0155789,-0.0243254 0.0241376,-0.0264939 0.001035,-2.6339e-4 0.001867,-2.9619e-4 0.003131,-9.5996e-4 0.001143,-0.001805 0.002161,-0.001594 0.00132,-0.009793 -4.3793e-4,-0.00427 0.001761,-0.005155 0.003969,-0.005024 -0.001914,1.2482e-4 -0.004177,-3.227e-5 -0.003563,0.005951 6.1353e-4,0.005982 -2.031e-4,0.007087 -0.001347,0.008892 -0.001263,6.6377e-4 -0.001698,6.7012e-4 -0.002733,9.3352e-4 -0.008559,0.002169 -0.0241376,0.0264939 -0.0241376,0.0264939 l -7.7696e-4,0 z m 0.0223674,0 -5.6064e-4,0 c 0,0 -2.3219e-4,-0.009271 -1.0578e-4,-0.0112905 1.693e-5,-2.7767e-4 2.0945e-4,8.2668e-4 2.9248e-4,0.002979 2.539e-5,6.6695e-4 -2.7979e-4,0.003856 3.7394e-4,0.008311 z"
   inkscape:connector-curvature="0"
   style="fill:#74e9f0" />
      <path
   id="_354507032"
   class="fil24"
   d="m 0.255323,0.0575718 0,0 c 0.0135754,-0.0016475 0.0260306,0.0081113 0.0276781,0.0216867 0.002452,0.0202036 0.00195,0.0383467 0.007356,0.0606114 0.001651,0.013604 -0.008125,0.0260316 -0.0217205,0.0276818 C 0.2550612,0.1691997 0.2426409,0.1594367 0.2409929,0.1458613 0.24035451,0.1233432 0.2369479,0.1043571 0.2336369,0.0852499 0.2319889,0.0716745 0.2417479,0.0592199 0.2553231,0.0575718 z"
   inkscape:connector-curvature="0"
   style="fill:url(#id15)" />
      <path
   id="_354506072"
   class="fil25"
   d="m 0.255321,0.0575723 0,0 c -0.001908,2.3113e-4 -0.00374,6.7647e-4 -0.005476,0.001308 0.0190908,-0.0068091 0.0252732,0.0094954 0.0266891,0.0211631 5.8497e-4,0.0083387 0.001147,0.01666 0.001979,0.0251923 7.0186e-4,0.007201 -6.5108e-4,0.006214 0.003766,0.0125742 0.001485,0.002137 0.002445,0.0123367 0.002658,0.0138975 0.001107,0.008126 -4.2577e-4,0.0101264 -2.8032e-4,0.0121913 7.616e-5,0.001086 4.4693e-4,0.002175 5.4795e-4,0.002595 0.001416,0.0116698 -0.008265,0.0194838 -0.0221394,0.0210927 0.0157667,0.001687 0.0292209,-0.0118131 0.027291,-0.0277162 C 0.28559033,0.117853 0.28435533,0.0986035 0.28299933,0.0792588 0.28135133,0.0656834 0.26889663,0.0559251 0.25532123,0.0575726 z"
   inkscape:connector-curvature="0"
   style="fill:url(#id14)" />
      <path
   id="_354505880"
   class="fil21"
   d="m 0.255323,0.0575718 5.3e-7,0 c 0.001908,-2.3166e-4 0.003793,-2.3748e-4 0.00563,-3.967e-5 -0.0106167,0.0038621 -0.0176263,0.014702 -0.0162104,0.0263696 0.001427,0.0082361 0.002872,0.01645 0.004106,0.0249342 0.001041,0.00716 -0.002523,0.006442 -0.005291,0.0136738 -9.2982e-4,0.00243 5.7756e-4,0.0125631 7.4417e-4,0.0141297 8.6899e-4,0.008155 0.004662,0.009829 0.005015,0.0118686 1.8564e-4,0.001073 8.568e-5,0.002218 8.833e-5,0.00265 0.001416,0.0116698 0.0108595,0.016843 0.0247157,0.0150854 -0.0149056,0.00541 -0.031198,-0.00448 -0.033128,-0.0203824 -6.3892e-4,-0.0225186 -0.004046,-0.0415042 -0.007357,-0.060612 -0.001648,-0.0135749 0.008111,-0.02603 0.0216862,-0.0276776 z"
   inkscape:connector-curvature="0"
   style="fill:#7dc05c" />
      <g
   id="g6524">
       <path
   id="_354505760"
   class="fil26"
   d="M 0.285533,0.107834 C 0.281415,0.106222 0.2657911,0.106497 0.2673011,0.1223487 0.2683741,0.1336123 0.2872889,0.1258017 0.285533,0.107834 z"
   inkscape:connector-curvature="0"
   style="fill:url(#id8)" />
       <path
   id="_354504416"
   class="fil27"
   d="M 0.285533,0.108795 C 0.281676,0.10796568 0.2689756,0.112609 0.2682352,0.122455 0.26749738,0.132259 0.2854749,0.124105 0.285533,0.108795 z"
   inkscape:connector-curvature="0"
   style="fill:url(#id9)" />
       <path
   id="_354504896"
   class="fil28"
   d="M 0.276717,0.111995 C 0.275556,0.11258526 0.271866,0.11539 0.271824,0.116671 0.27178169,0.117948 0.276977,0.113793 0.276717,0.111995 z"
   inkscape:connector-curvature="0"
   style="fill:#c1ffff" />
       <g
   id="g6529">
        <path
   id="_354505184"
   class="fil29"
   d="M 0.244837,0.113456 C 0.248496,0.110769 0.2637247,0.106782 0.2655896,0.122585 0.2669156,0.1338131 0.2469076,0.131381 0.244837,0.113456 z"
   inkscape:connector-curvature="0"
   style="fill:url(#linearGradient6615)" />
        <path
   id="_354503576"
   class="fil30"
   d="M 0.245039,0.11439 C 0.24861,0.112534 0.2619174,0.11358501 0.2647058,0.122943 0.2674828,0.132262 0.2483129,0.129239 0.245039,0.11439 z"
   inkscape:connector-curvature="0"
   style="fill:url(#linearGradient6617)" />
        <path
   id="_354505592"
   class="fil28"
   d="M 0.254272,0.115096 C 0.255523,0.11535305 0.259695,0.117071 0.260006,0.118304 0.26031488,0.119532 0.254398,0.116913 0.254272,0.115096 z"
   inkscape:connector-curvature="0"
   style="fill:#c1ffff" />
       </g>
      </g>
      <path
   id="_354504488"
   class="fil31"
   d="m 0.259596,0.0574253 c -0.005754,0.0010885 -0.0119908,0.002782 -0.0182229,0.0113196 -0.006751,0.0092479 -0.005125,0.0207907 -0.003205,0.0356154 0.00192,0.0148247 9.5361e-4,0.0110261 5.9026e-4,0.0132946 -0.001408,-0.0111837 -0.00328,-0.0217755 -0.005121,-0.0324055 -0.001648,-0.0135749 0.008111,-0.02603 0.0216862,-0.0276776 l 5.3e-7,0 c 0.001441,-1.7454e-4 0.002869,-2.2002e-4 0.004272,-1.4651e-4 z"
   inkscape:connector-curvature="0"
   style="fill:#3c682d" />
      <g
   id="g6535">
       <path
   id="_354505952"
   class="fil32"
   d="m 0.280351,0.134682 c 0.00394,-5.4424e-4 0.003774,-0.0034 0.003774,-0.0034 -2.1156e-4,7.352e-5 0.001163,-0.00287 -0.0170207,-4.4587e-4 -0.0181837,0.002424 -0.015974,0.005004 -0.015974,0.005004 0,0 4.3846e-4,0.002819 0.004378,0.002274 0.0117094,-0.001618 0.0131338,-0.001815 0.0248427,-0.003433 z"
   inkscape:connector-curvature="0"
   style="fill:url(#id12)" />
       <path
   id="_354500048"
   class="fil33"
   d="m 0.251099,0.135552 c 0,0 4.3793e-4,0.002819 0.004378,0.002274 C 0.259418,0.13728176 0.2718847,0.135559 0.2718847,0.135559 M 0.2840934,0.130993 c 0,0 1.6661e-4,0.002856 -0.003774,0.0034 -0.00394,5.4424e-4 -0.0164077,0.002267 -0.0164077,0.002267"
   inkscape:connector-curvature="0"
   style="fill:none" />
       <path
   id="_354506240"
   class="fil34"
   d="m 0.255447,0.137537 0.008492,-9.3193e-4 0.007973,-0.001102 0.008378,-0.001398 c 0.00271,-4.3159e-4 0.003332,-0.001202 0.004057,-0.003124 0,8.99e-6 1.7983e-4,0.003124 -0.003995,0.003701 -0.002785,6.405e-4 -0.005569,0.001282 -0.008354,0.001922 -0.00252,8.3302e-4 -0.005175,0.00121 -0.007974,0.001102 l -0.008515,4.0831e-4 c -0.004175,5.7651e-4 -0.004599,-0.002264 -0.0046,-0.002272 8.3726e-4,0.00155 0.001528,0.002084 0.004538,0.001695 z"
   inkscape:connector-curvature="0"
   style="fill:#224827;fill-rule:nonzero" />
       <path
   id="_354506264"
   class="fil35"
   d="M 0.273691,0.137855 C 0.275443,0.13761276 0.275807,0.140442 0.275807,0.140442 0.27570598,0.14041185 0.271451,0.143018 0.268584,0.143502 0.265717,0.14398542 0.261132,0.14247 0.261132,0.14247 c 0,0 -2.4224e-4,-0.002846 0.00151,-0.003088 0.005208,-7.1931e-4 0.005841,-8.0658e-4 0.0110488,-0.001526 z"
   inkscape:connector-curvature="0"
   style="fill:url(#id10)" />
      </g>
      <g
   id="g6541">
       <g
   id="g6543">
        <path
   id="_354503672"
   class="fil36"
   d="m 0.269994,0.128437 c -4.7284e-4,-1.0155e-4 -0.002029,4.6755e-4 -0.00212,0.001674 -8.991e-5,0.001202 0.002113,2.0257e-4 0.00212,-0.001674 z"
   inkscape:connector-curvature="0"
   style="fill:#61a53e" />
        <path
   id="_354506312"
   class="fil37"
   d="m 0.269092,0.129098 c -6.35e-6,-6.8017e-4 -0.001182,3.4537e-4 -0.00116,0.001052 3.121e-5,0.001035 0.001166,-3.7182e-4 0.00116,-0.001052 z"
   inkscape:connector-curvature="0"
   style="fill:#528c36" />
       </g>
       <g
   id="g6547">
        <path
   id="_354507200"
   class="fil36"
   d="m 0.26422,0.129234 c 4.3793e-4,-2.2743e-4 0.002069,-9.838e-5 0.00241,0.001048 3.4062e-4,0.001142 -0.002009,7.7167e-4 -0.00241,-0.001048 z"
   inkscape:connector-curvature="0"
   style="fill:#61a53e" />
        <path
   id="_354507392"
   class="fil37"
   d="m 0.265235,0.129631 c -1.3751e-4,-6.6166e-4 0.00122,1.428e-5 0.001348,7.0609e-4 1.867e-4,0.001013 -0.001211,-4.39e-5 -0.001348,-7.0609e-4 z"
   inkscape:connector-curvature="0"
   style="fill:#528c36" />
       </g>
      </g>
      <path
   id="_354505640"
   class="fil36"
   d="m 0.290187,0.139158 c 5.659e-5,2.3695e-4 1.1266e-4,4.739e-4 1.7031e-4,7.1191e-4 0.001651,0.013604 -0.008125,0.0260316 -0.0217205,0.0276818 -0.0135749,0.001648 -0.0259957,-0.008116 -0.0276432,-0.0216904 -7.94e-6,-2.7662e-4 -1.64e-5,-5.5218e-4 -2.539e-5,-8.2721e-4 0.002523,0.0125689 0.0146274,0.0231755 0.0275581,0.0216063 0.0129185,-0.001568 0.0221664,-0.0146898 0.0216608,-0.0274824 z"
   inkscape:connector-curvature="0"
   style="fill:#61a53e" />
      <path
   id="_354507176"
   class="fil23"
   d="M 0.256126,0.0574893 C 0.2419783,0.0592659 0.2325903,0.0718739 0.234205,0.0851806 0.237516,0.1042883 0.241241,0.1232353 0.241879,0.1457534 0.243494,0.1590612 0.2545965,0.1696625 0.2694365,0.1674401 0.2556009,0.1695731 0.2426787,0.1597541 0.2409925,0.1458613 0.24035358,0.1233427 0.2369465,0.1043571 0.2336355,0.0852493 0.2319475,0.0713423 0.2421995,0.0587253 0.2561251,0.0574892 z"
   inkscape:connector-curvature="0"
   style="fill:#74e9f0" />
     </g>
     <path
   id="_354502856"
   class="fil6"
   d="m 0.269995,0.198146 c 0.0629783,-7.6903e-4 0.0674666,0.0229814 0.121971,-0.008921 0.001357,0.0101407 6.5161e-4,0.005873 0.001031,0.0100894 0,0.0145047 -0.0570979,0.0235252 -0.130521,0.0235252 -0.0734231,0 -0.130688,-0.00902 -0.130688,-0.0235252 0,-0.001837 1.6819e-4,-0.004431 8.3673e-4,-0.008482 0.0551389,0.0357079 0.0743915,0.008083 0.13737,0.007314 z"
   inkscape:connector-curvature="0"
   style="fill:#ffffff" />
     <path
   id="_359581656"
   class="fil38"
   d="m 0.269995,0.198705 c 0.0629783,-7.6903e-4 0.0674666,0.0229814 0.121971,-0.008921 0.001357,0.0101407 6.5161e-4,0.005873 0.001031,0.0100899 0,0.0145042 -0.0570979,0.0235252 -0.130521,0.0235252 -0.0734231,0 -0.130688,-0.009021 -0.130688,-0.0235252 0,-0.001837 1.6819e-4,-0.004432 8.3673e-4,-0.008482 0.0551389,0.0357074 0.0743915,0.008082 0.13737,0.007313 z"
   inkscape:connector-curvature="0"
   style="fill:url(#id0)" />
     <path
   id="_359581848"
   class="fil12"
   d="M 0.132386,0.192917 3.08e-4,0.2096759 0.131873,0.1984949 0.13238604,0.1929169 z m 0.259985,-4.3582e-4 0.132414,0.0172312 -0.131901,-0.0116534 -5.1304e-4,-0.005578 z m -0.131698,0.0309166 0.0107272,-5.659e-5 -0.00418,0.0388401 -0.006547,-0.0387835 z"
   inkscape:connector-curvature="0"
   style="fill:#669999" />
     <path
   id="_359582040"
   class="fil39"
   d="M 0.132301,0.194296 0,0.2097125 0.131788,0.1998735 0.13230051,0.1942955 z m 0.260184,0 0.132301,0.0154165 -0.131788,-0.009839 -5.1251e-4,-0.005578 z m -0.130628,0.0291019 0.0107272,-5.659e-5 -0.005364,0.0388401 -0.005364,-0.0387835 z"
   inkscape:connector-curvature="0"
   style="fill:#e6e6e6" />
     <g
   id="g6557">
      <path
   id="_359582304"
   class="fil40 str2"
   d="m 0.436817,0.230112 c 0.005465,0 0.009617,0.002519 0.009617,0.00114 0,-0.001379 -0.00443,-0.007028 -0.009894,-0.007028 -0.005464,0 -0.009894,0.005649 -0.009894,0.007028 0,0.001379 0.004707,-0.00114 0.0101714,-0.00114 z"
   inkscape:connector-curvature="0"
   style="fill:#d0e8e8;stroke:#ffffff;stroke-width:0.00040303" />
      <path
   id="_359582496"
   class="fil41"
   d="m 0.43654,0.231352 c 0.005464,0 0.009894,-0.001179 0.009894,0 0,0.001178 -0.00443,0.002135 -0.009894,0.002135 -0.005464,0 -0.009894,-9.5626e-4 -0.009894,-0.002135 0,-0.001179 0.00443,0 0.009894,0 z"
   inkscape:connector-curvature="0"
   style="fill:#336666" />
      <ellipse
   id="_359582688"
   class="fil12"
   cx="0.43654001"
   cy="0.231252"
   rx="0.0098940404"
   ry="0.00203428"
   sodipodi:cx="0.43654001"
   sodipodi:cy="0.231252"
   sodipodi:rx="0.0098940404"
   sodipodi:ry="0.00203428"
   style="fill:#669999"
   d="m 0.44643405,0.231252 c 0,0.001123 -0.00443,0.002034 -0.009894,0.002034 -0.005464,0 -0.009894,-9.1078e-4 -0.009894,-0.002034 0,-0.001123 0.00443,-0.002034 0.009894,-0.002034 0.005464,0 0.009894,9.1078e-4 0.009894,0.002034 z" />
     </g>
     <g
   id="g6562">
      <path
   id="_359582856"
   class="fil40 str2"
   d="m 0.352918,0.245979 c 0.005464,0 0.009617,0.002519 0.009617,0.00114 0,-0.001379 -0.00443,-0.007028 -0.009894,-0.007028 -0.005464,0 -0.009894,0.005649 -0.009894,0.007028 0,0.001379 0.004707,-0.00114 0.0101714,-0.00114 z"
   inkscape:connector-curvature="0"
   style="fill:#d0e8e8;stroke:#ffffff;stroke-width:0.00040303" />
      <path
   id="_359583048"
   class="fil41"
   d="m 0.352641,0.24722 c 0.005464,0 0.009894,-0.001179 0.009894,0 0,0.001178 -0.00443,0.002135 -0.009894,0.002135 -0.005464,0 -0.009894,-9.5626e-4 -0.009894,-0.002135 0,-0.001179 0.00443,0 0.009894,0 z"
   inkscape:connector-curvature="0"
   style="fill:#336666" />
      <ellipse
   id="_359583240"
   class="fil12"
   cx="0.35264099"
   cy="0.24711899"
   rx="0.0098940404"
   ry="0.00203428"
   sodipodi:cx="0.35264099"
   sodipodi:cy="0.24711899"
   sodipodi:rx="0.0098940404"
   sodipodi:ry="0.00203428"
   style="fill:#669999"
   d="m 0.36253503,0.24711899 c 0,0.001124 -0.00443,0.002034 -0.009894,0.002034 -0.005464,0 -0.009894,-9.1077e-4 -0.009894,-0.002034 0,-0.001123 0.00443,-0.002034 0.009894,-0.002034 0.005464,0 0.009894,9.1078e-4 0.009894,0.002034 z" />
     </g>
     <g
   id="g6567">
      <path
   id="_359583408"
   class="fil40 str2"
   d="m 0.0894748,0.230112 c -0.0054641,0 -0.0096165,0.002519 -0.0096165,0.00114 0,-0.001379 0.0044296,-0.007028 0.0098937,-0.007028 0.0054641,0 0.0098942,0.005649 0.0098942,0.007028 0,0.001379 -0.0047072,-0.00114 -0.0101714,-0.00114 z"
   inkscape:connector-curvature="0"
   style="fill:#d0e8e8;stroke:#ffffff;stroke-width:0.00040303" />
      <path
   id="_359583600"
   class="fil41"
   d="m 0.089752,0.231352 c -0.0054641,0 -0.0098937,-0.001179 -0.0098937,0 0,0.001178 0.0044296,0.002135 0.0098937,0.002135 0.0054641,0 0.0098942,-9.5626e-4 0.0098942,-0.002135 0,-0.001179 -0.0044301,0 -0.0098942,0 z"
   inkscape:connector-curvature="0"
   style="fill:#336666" />
      <ellipse
   id="_359583792"
   class="fil12"
   cx="0.0897521"
   cy="0.231252"
   rx="0.0098940404"
   ry="0.00203428"
   sodipodi:cx="0.0897521"
   sodipodi:cy="0.231252"
   sodipodi:rx="0.0098940404"
   sodipodi:ry="0.00203428"
   style="fill:#669999"
   d="m 0.09964614,0.231252 c 0,0.001123 -0.0044297,0.002034 -0.009894,0.002034 -0.0054643,0 -0.009894,-9.1078e-4 -0.009894,-0.002034 0,-0.001123 0.0044297,-0.002034 0.009894,-0.002034 0.0054643,0 0.009894,9.1078e-4 0.009894,0.002034 z" />
     </g>
     <g
   id="g6572">
      <path
   id="_359583960"
   class="fil40 str2"
   d="m 0.173374,0.245979 c -0.005464,0 -0.009617,0.002519 -0.009617,0.00114 0,-0.001379 0.00443,-0.007028 0.009894,-0.007028 0.005464,0 0.009894,0.005649 0.009894,0.007028 0,0.001379 -0.004707,-0.00114 -0.0101714,-0.00114 z"
   inkscape:connector-curvature="0"
   style="fill:#d0e8e8;stroke:#ffffff;stroke-width:0.00040303" />
      <path
   id="_359584152"
   class="fil41"
   d="m 0.173651,0.24722 c -0.005464,0 -0.009894,-0.001179 -0.009894,0 0,0.001178 0.00443,0.002135 0.009894,0.002135 0.005464,0 0.009894,-9.5626e-4 0.009894,-0.002135 0,-0.001179 -0.00443,0 -0.009894,0 z"
   inkscape:connector-curvature="0"
   style="fill:#336666" />
      <ellipse
   id="_359584344"
   class="fil12"
   cx="0.17365099"
   cy="0.24711899"
   rx="0.0098940404"
   ry="0.00203428"
   sodipodi:cx="0.17365099"
   sodipodi:cy="0.24711899"
   sodipodi:rx="0.0098940404"
   sodipodi:ry="0.00203428"
   style="fill:#669999"
   d="m 0.18354504,0.24711899 c 0,0.001124 -0.00443,0.002034 -0.009894,0.002034 -0.005464,0 -0.009894,-9.1077e-4 -0.009894,-0.002034 0,-0.001123 0.00443,-0.002034 0.009894,-0.002034 0.005464,0 0.009894,9.1078e-4 0.009894,0.002034 z" />
     </g>
     <g
   id="g6577">
      <path
   id="_359584512"
   class="fil40 str2"
   d="m 0.426176,0.185387 c 0.005129,0 0.009027,0.002365 0.009027,0.001071 0,-0.001294 -0.004158,-0.006597 -0.009288,-0.006597 -0.00513,0 -0.009288,0.005303 -0.009288,0.006597 0,0.001294 0.004419,-0.001071 0.009548,-0.001071 z"
   inkscape:connector-curvature="0"
   style="fill:#d0e8e8;stroke:#ffffff;stroke-width:0.00040303" />
      <path
   id="_359584704"
   class="fil41"
   d="m 0.425915,0.186552 c 0.005129,0 0.009288,-0.001106 0.009288,0 0,0.001106 -0.004158,0.002004 -0.009288,0.002004 -0.00513,0 -0.009288,-8.9755e-4 -0.009288,-0.002004 0,-0.001106 0.004158,0 0.009288,0 z"
   inkscape:connector-curvature="0"
   style="fill:#336666" />
      <ellipse
   id="_359584896"
   class="fil12"
   cx="0.425915"
   cy="0.18645801"
   rx="0.0092877802"
   ry="0.00190963"
   sodipodi:cx="0.425915"
   sodipodi:cy="0.18645801"
   sodipodi:rx="0.0092877802"
   sodipodi:ry="0.00190963"
   style="fill:#669999"
   d="m 0.43520278,0.18645801 c 0,0.001055 -0.004158,0.00191 -0.009288,0.00191 -0.00513,0 -0.009288,-8.5497e-4 -0.009288,-0.00191 0,-0.001055 0.004158,-0.00191 0.009288,-0.00191 0.00513,0 0.009288,8.5497e-4 0.009288,0.00191 z" />
     </g>
     <g
   id="g6582">
      <path
   id="_359585064"
   class="fil40 str2"
   d="m 0.100116,0.185387 c -0.0051293,0 -0.0090274,0.002365 -0.0090274,0.001071 0,-0.001294 0.0041583,-0.006597 0.0092876,-0.006597 0.00513,0 0.009288,0.005303 0.009288,0.006597 0,0.001294 -0.004419,-0.001071 -0.009548,-0.001071 z"
   inkscape:connector-curvature="0"
   style="fill:#d0e8e8;stroke:#ffffff;stroke-width:0.00040303" />
      <path
   id="_359585256"
   class="fil41"
   d="m 0.100377,0.186552 c -0.0051293,0 -0.0092876,-0.001106 -0.0092876,0 0,0.001106 0.0041583,0.002004 0.0092876,0.002004 0.00513,0 0.009288,-8.9755e-4 0.009288,-0.002004 0,-0.001106 -0.004158,0 -0.009288,0 z"
   inkscape:connector-curvature="0"
   style="fill:#336666" />
      <ellipse
   id="_359585448"
   class="fil12"
   cx="0.100377"
   cy="0.18645801"
   rx="0.0092877802"
   ry="0.00190963"
   sodipodi:cx="0.100377"
   sodipodi:cy="0.18645801"
   sodipodi:rx="0.0092877802"
   sodipodi:ry="0.00190963"
   style="fill:#669999"
   d="m 0.10966478,0.18645801 c 0,0.001055 -0.004158,0.00191 -0.009288,0.00191 -0.0051295,0 -0.0092878,-8.5497e-4 -0.0092878,-0.00191 0,-0.001055 0.0041583,-0.00191 0.0092878,-0.00191 0.00513,0 0.009288,8.5497e-4 0.009288,0.00191 z" />
     </g>
     <path
   id="_359585040"
   class="fil42"
   d="m 0.215048,0.0698472 c 0,0 -0.0482774,0.0246887 -0.0512953,0.0760956 0.004498,-0.001222 0.0116073,-0.002872 0.0116073,-0.002872 0,0 -0.003897,-0.0440519 0.039688,-0.0732237 z"
   inkscape:connector-curvature="0"
   style="fill:#99cccc" />
     <path
   id="_359585736"
   class="fil43"
   d="m 0.306743,0.0698472 c 0,0 0.0482774,0.0246887 0.0512948,0.0760956 -0.004498,-0.001222 -0.0116073,-0.002872 -0.0116073,-0.002872 0,0 0.003897,-0.0440519 -0.0396874,-0.0732237 z"
   inkscape:connector-curvature="0"
   style="fill:#9966cc" />
     <path
   id="_359585928"
   class="fil44"
   d="m 0.132323,0.200746 c -1.9887e-4,-2.9037e-4 -3.8346e-4,-5.7968e-4 -5.3472e-4,-8.7269e-4 2.9566e-4,-0.003752 6.8916e-4,-0.007464 0.001165,-0.0111414 4.39e-5,-3.4009e-4 8.251e-5,-6.8388e-4 1.2852e-4,-0.001023 1.2324e-4,-9.1712e-4 2.5811e-4,-0.001828 3.9192e-4,-0.00274 6.558e-5,-4.4693e-4 1.2746e-4,-8.9491e-4 1.9569e-4,-0.001341 1.3329e-4,-8.6688e-4 2.7556e-4,-0.001729 4.1837e-4,-0.002591 8.039e-5,-4.8659e-4 1.5814e-4,-9.753e-4 2.4224e-4,-0.00146 1.4333e-4,-8.3461e-4 2.9618e-4,-0.001664 4.4956e-4,-0.002495 9.309e-5,-5.0722e-4 1.8618e-4,-0.001016 2.8297e-4,-0.001521 1.5655e-4,-8.1663e-4 3.1999e-4,-0.001629 4.8606e-4,-0.002442 1.0472e-4,-5.1145e-4 2.0839e-4,-0.001023 3.1629e-4,-0.001533 1.6766e-4,-7.9283e-4 3.4167e-4,-0.001583 5.178e-4,-0.002371 1.1794e-4,-5.2785e-4 2.3641e-4,-0.001055 3.5753e-4,-0.001581 1.7825e-4,-7.6956e-4 3.6019e-4,-0.001535 5.4636e-4,-0.0023 1.3064e-4,-5.3631e-4 2.6234e-4,-0.001072 3.9668e-4,-0.001606 1.9305e-4,-7.6639e-4 3.8928e-4,-0.001531 5.8973e-4,-0.002293 1.3434e-4,-5.1092e-4 2.7186e-4,-0.001019 4.0937e-4,-0.001527 2.0734e-4,-7.6533e-4 4.1784e-4,-0.001529 6.3363e-4,-0.002289 1.4651e-4,-5.1674e-4 2.9725e-4,-0.001031 4.4745e-4,-0.001545 2.1844e-4,-7.484e-4 4.3847e-4,-0.001496 6.6431e-4,-0.002239 1.5021e-4,-4.94e-4 3.0518e-4,-9.8429e-4 4.5909e-4,-0.001476 2.4171e-4,-7.7326e-4 4.8395e-4,-0.001545 7.3359e-4,-0.002312 1.4016e-4,-4.3159e-4 2.8614e-4,-8.6e-4 4.2947e-4,-0.00129 2.6815e-4,-8.05e-4 5.3631e-4,-0.001609 8.1346e-4,-0.002408 1.391e-4,-4.0144e-4 2.8455e-4,-7.9812e-4 4.2629e-4,-0.001198 2.8878e-4,-8.1663e-4 5.781e-4,-0.001633 8.764e-4,-0.002442 1.2905e-4,-3.4855e-4 2.6286e-4,-6.9234e-4 3.935e-4,-0.001039 0.001157,-0.003083 0.002379,-0.006117 0.00367,-0.009092 l 1.4915e-4,-3.4961e-4 c 3.5596e-4,-8.1663e-4 7.2143e-4,-0.001624 0.001088,-0.002432 1.5286e-4,-3.3744e-4 3.0254e-4,-6.7858e-4 4.5698e-4,-0.001015 3.3797e-4,-7.3623e-4 6.8652e-4,-0.001465 0.001033,-0.002193 1.9675e-4,-4.1307e-4 3.898e-4,-8.2932e-4 5.892e-4,-0.00124 3.2475e-4,-6.7118e-4 6.5796e-4,-0.001334 9.9011e-4,-0.001999 2.2901e-4,-4.5803e-4 4.5591e-4,-9.1818e-4 6.881e-4,-0.001373 3.3321e-4,-6.5372e-4 6.7277e-4,-0.001301 0.001013,-0.001948 2.3431e-4,-4.4587e-4 4.6755e-4,-8.9279e-4 7.0503e-4,-0.001336 3.385e-4,-6.3204e-4 6.8229e-4,-0.001258 0.001027,-0.001883 2.5864e-4,-4.6914e-4 5.178e-4,-9.3828e-4 7.7961e-4,-0.001404 3.422e-4,-6.0824e-4 6.8916e-4,-0.001212 0.001037,-0.001814 2.5969e-4,-4.4851e-4 5.2044e-4,-8.9649e-4 7.8331e-4,-0.001342 3.5859e-4,-6.0771e-4 7.2089e-4,-0.001212 0.001086,-0.001814 2.7132e-4,-4.4851e-4 5.4583e-4,-8.9491e-4 8.2086e-4,-0.00134 3.6177e-4,-5.8338e-4 7.2512e-4,-0.001165 0.001093,-0.001743 2.8349e-4,-4.4639e-4 5.6963e-4,-8.8856e-4 8.5629e-4,-0.001331 3.7129e-4,-5.728e-4 7.447e-4,-0.001143 0.001122,-0.00171 2.909e-4,-4.3634e-4 5.8497e-4,-8.6846e-4 8.7851e-4,-0.001301 3.7923e-4,-5.5746e-4 7.5845e-4,-0.001114 0.001142,-0.001666 3.1153e-4,-4.4639e-4 6.2781e-4,-8.875e-4 9.4304e-4,-0.00133 3.7499e-4,-5.2573e-4 7.4787e-4,-0.0010515 0.001128,-0.0015714 3.2263e-4,-4.4163e-4 6.5003e-4,-8.7639e-4 9.7689e-4,-0.0013143 3.861e-4,-5.1833e-4 7.722e-4,-0.0010382 0.001164,-0.0015502 3.2316e-4,-4.2259e-4 6.5267e-4,-8.3831e-4 9.79e-4,-0.0012561 3.9985e-4,-5.1198e-4 7.9759e-4,-0.0010271 0.001202,-0.0015317 2.8878e-4,-3.6018e-4 5.8391e-4,-7.1296e-4 8.7481e-4,-0.00107 0.001575,-0.001931 0.003187,-0.0038113 0.004833,-0.0056397 3.4961e-4,-3.8821e-4 6.9604e-4,-7.8119e-4 0.001048,-0.0011641 4.1995e-4,-4.5644e-4 8.4572e-4,-9.0231e-4 0.00127,-0.0013519 3.6865e-4,-3.9086e-4 7.3518e-4,-7.8595e-4 0.001107,-0.0011715 4.099e-4,-4.2524e-4 8.2509e-4,-8.4043e-4 0.001239,-0.0012593 3.9562e-4,-4.0091e-4 7.9071e-4,-8.0393e-4 0.001191,-0.001199 4.1255e-4,-4.0831e-4 8.3091e-4,-8.0816e-4 0.001247,-0.0012101 4.0567e-4,-3.9086e-4 8.0975e-4,-7.8278e-4 0.001219,-0.0011673 4.1572e-4,-3.9139e-4 8.3514e-4,-7.7537e-4 0.001254,-0.0011604 4.1889e-4,-3.8451e-4 8.3778e-4,-7.6903e-4 0.00126,-0.0011477 4.2312e-4,-3.7869e-4 8.4942e-4,-7.5263e-4 0.001276,-0.001125 4.2048e-4,-3.6706e-4 8.4149e-4,-7.3306e-4 0.001265,-0.0010943 4.3635e-4,-3.7182e-4 8.7534e-4,-7.3888e-4 0.001315,-0.0011038 4.2735e-4,-3.5436e-4 8.5524e-4,-7.0609e-4 0.001286,-0.0010546 4.3211e-4,-3.4908e-4 8.6635e-4,-6.9604e-4 0.001302,-0.0010393 4.5168e-4,-3.5542e-4 9.0548e-4,-7.0714e-4 0.00136,-0.0010562 4.2947e-4,-3.2951e-4 8.6e-4,-6.5637e-4 0.001292,-9.7953e-4 4.5168e-4,-3.3744e-4 9.0601e-4,-6.6907e-4 0.001361,-9.9963e-4 l 5.215e-4,-3.7764e-4 -3.1417e-4,2.3907e-4 c -4.4111e-4,3.3797e-4 -8.8063e-4,6.8017e-4 -0.001319,0.0010245 -4.6491e-4,3.6441e-4 -9.277e-4,7.3253e-4 -0.001389,0.0011038 -4.4534e-4,3.5965e-4 -8.8856e-4,7.2195e-4 -0.00133,0.0010869 -4.3952e-4,3.6494e-4 -8.7639e-4,7.32e-4 -0.001313,0.0011033 -4.4957e-4,3.8081e-4 -8.9755e-4,7.6479e-4 -0.001342,0.0011535 -4.3264e-4,3.7816e-4 -8.6264e-4,7.6003e-4 -0.001292,0.0011445 -4.3582e-4,3.8927e-4 -8.7111e-4,7.796e-4 -0.001303,0.0011763 -4.3159e-4,3.9562e-4 -8.5947e-4,7.9758e-4 -0.001287,0.0012001 -4.2735e-4,4.0249e-4 -8.563e-4,8.0393e-4 -0.00128,0.0012128 -4.1783e-4,4.0249e-4 -8.3038e-4,8.1187e-4 -0.001245,0.0012207 -4.2524e-4,4.2048e-4 -8.5207e-4,8.3831e-4 -0.001274,0.0012651 -4.0831e-4,4.1307e-4 -8.1081e-4,8.3461e-4 -0.001215,0.001253 -4.2312e-4,4.3846e-4 -8.4678e-4,8.7269e-4 -0.001266,0.001317 -3.7922e-4,4.0408e-4 -7.5316e-4,8.161e-4 -0.00113,0.0012255 -4.3317e-4,4.6966e-4 -8.6846e-4,9.3616e-4 -0.001297,0.0014132 -3.5965e-4,4.0038e-4 -7.1296e-4,8.1134e-4 -0.00107,0.001217 -0.001681,0.0019125 -0.003326,0.0038779 -0.004935,0.0058968 -2.9619e-4,3.7393e-4 -5.9766e-4,7.4205e-4 -8.9226e-4,0.0011186 -4.1361e-4,5.2784e-4 -8.1927e-4,0.0010663 -0.001228,0.0016015 -3.3321e-4,4.374e-4 -6.6959e-4,8.7163e-4 -9.9963e-4,0.0013133 -3.9932e-4,5.3578e-4 -7.9336e-4,0.001079 -0.001188,0.0016206 -3.3374e-4,4.5856e-4 -6.6801e-4,9.1342e-4 -9.9752e-4,0.0013752 -3.8768e-4,5.4265e-4 -7.6849e-4,0.0010932 -0.001151,0.0016422 -3.221e-4,4.6332e-4 -6.4526e-4,9.2346e-4 -9.626e-4,0.001391 -3.9245e-4,5.7597e-4 -7.7961e-4,0.001159 -0.001167,0.001741 -2.9936e-4,4.5274e-4 -5.9978e-4,9.0442e-4 -8.965e-4,0.00136 -3.8504e-4,5.9184e-4 -7.6638e-4,0.001189 -0.001146,0.001788 -2.9301e-4,4.6279e-4 -5.8497e-4,9.2452e-4 -8.7428e-4,0.001392 -3.7552e-4,6.0401e-4 -7.4628e-4,0.001212 -0.001115,0.001823 -2.8084e-4,4.6437e-4 -5.6064e-4,9.3087e-4 -8.3831e-4,0.0014 -3.7182e-4,6.2886e-4 -7.4205e-4,0.001261 -0.001109,0.001897 -2.6816e-4,4.6543e-4 -5.3419e-4,9.3351e-4 -7.9865e-4,0.001403 -3.5648e-4,6.2939e-4 -7.0979e-4,0.00126 -0.001059,0.001897 -2.6709e-4,4.8553e-4 -5.3207e-4,9.7688e-4 -7.9547e-4,0.001468 -3.5172e-4,6.5319e-4 -7.0291e-4,0.001308 -0.001048,0.001969 -2.4277e-4,4.6385e-4 -4.8077e-4,9.3087e-4 -7.1984e-4,0.001397 -3.4749e-4,6.7699e-4 -6.9445e-4,0.001353 -0.001035,0.002037 -2.3695e-4,4.7601e-4 -4.6861e-4,9.5731e-4 -7.0238e-4,0.001436 -3.3903e-4,6.9498e-4 -6.7912e-4,0.001388 -0.001011,0.00209 -2.031e-4,4.2894e-4 -4.0091e-4,8.637e-4 -6.0137e-4,0.001296 -3.5384e-4,7.6215e-4 -7.0979e-4,0.001523 -0.001055,0.002293 -1.5708e-4,3.5172e-4 -3.1047e-4,7.0873e-4 -4.6649e-4,0.001062 -3.7341e-4,8.4413e-4 -7.4682e-4,0.001689 -0.00111,0.002542 l -1.5233e-4,3.6494e-4 c -0.001318,0.003113 -0.002565,0.006283 -0.003747,0.009508 -1.3328e-4,3.6283e-4 -2.7027e-4,7.2196e-4 -4.0144e-4,0.001086 -3.0518e-4,8.4678e-4 -6.003e-4,0.0017 -8.9543e-4,0.002554 -1.4439e-4,4.1784e-4 -2.9249e-4,8.3303e-4 -4.3529e-4,0.001252 -2.8297e-4,8.3567e-4 -5.5641e-4,0.001677 -8.3038e-4,0.002518 -1.4598e-4,4.4904e-4 -2.9513e-4,8.9702e-4 -4.3794e-4,0.001348 -2.5546e-4,8.0235e-4 -5.0298e-4,0.00161 -7.4945e-4,0.002418 -1.5656e-4,5.1462e-4 -3.147e-4,0.001028 -4.6861e-4,0.001543 -2.3061e-4,7.7749e-4 -4.5486e-4,0.001559 -6.7859e-4,0.002341 -1.5232e-4,5.3843e-4 -3.0676e-4,0.001075 -4.5591e-4,0.001615 -2.2056e-4,7.9547e-4 -4.3529e-4,0.001593 -6.4686e-4,0.002394 -1.4068e-4,5.3155e-4 -2.8084e-4,0.001063 -4.1783e-4,0.001597 -2.0522e-4,7.9706e-4 -4.0567e-4,0.001596 -6.0242e-4,0.002398 -1.3699e-4,5.5852e-4 -2.7186e-4,0.001118 -4.0462e-4,0.001679 -1.904e-4,8.0023e-4 -3.7658e-4,0.001601 -5.5799e-4,0.002405 -1.2376e-4,5.5059e-4 -2.4488e-4,0.001101 -3.6547e-4,0.001653 -1.7983e-4,8.2509e-4 -3.5701e-4,0.001651 -5.2838e-4,0.00248 -1.1054e-4,5.3261e-4 -2.1579e-4,0.001068 -3.2263e-4,0.001603 -1.6978e-4,8.4995e-4 -3.3691e-4,0.001699 -4.9717e-4,0.002553 -9.838e-5,5.2838e-4 -1.9358e-4,0.00106 -2.8825e-4,0.00159 -1.5656e-4,8.6793e-4 -3.1259e-4,0.001736 -4.5909e-4,0.002609 -8.569e-5,5.0669e-4 -1.6502e-4,0.001018 -2.4753e-4,0.001526 -1.4492e-4,9.0178e-4 -2.909e-4,0.001803 -4.2683e-4,0.002709 -6.928e-5,4.6597e-4 -1.3275e-4,9.351e-4 -1.9992e-4,0.001402 -1.3646e-4,9.5414e-4 -2.745e-4,0.001907 -4.0038e-4,0.002865 -4.602e-5,3.5595e-4 -8.621e-5,7.1402e-4 -1.3064e-4,0.001071 -3.1999e-4,0.002531 -6.0348e-4,0.005079 -8.4625e-4,0.007642 z"
   inkscape:connector-curvature="0"
   style="fill:#99ffff" />
     <rect
   id="_359586120"
   class="fil41"
   x="0.26522601"
   y="0.26218599"
   width="0.0031067799"
   height="0.035457298"
   style="fill:#336666" />
     <rect
   id="_359586264"
   class="fil12"
   x="0.26574299"
   y="0.26218599"
   width="0.0031067799"
   height="0.035457298"
   style="fill:#669999" />
     <polygon
   id="_359586408"
   class="fil41"
   points="0.0763548,0.278868 0.0763548,0.246729 0.0794616,0.247435 0.0794616,0.279646 "
   style="fill:#336666" />
     <polygon
   id="_359586600"
   class="fil12"
   points="0.0768726,0.279021 0.0768726,0.246817 0.0799794,0.247435 0.0799794,0.279759 "
   style="fill:#669999" />
     <polygon
   id="_359586792"
   class="fil41"
   points="0.459853,0.276873 0.459853,0.24428 0.456702,0.244996 0.456702,0.277661 "
   style="fill:#336666" />
     <polygon
   id="_359586984"
   class="fil12"
   points="0.459327,0.277028 0.459327,0.244369 0.456177,0.244996 0.456177,0.277777 "
   style="fill:#669999" />
     <g
   id="g6596">
      <path
   id="_359587248"
   class="fil40 str2"
   d="m 0.268466,0.250605 c 0.005464,0 0.009617,0.002519 0.009617,0.00114 0,-0.001379 -0.00443,-0.007028 -0.009894,-0.007028 -0.005464,0 -0.009894,0.005649 -0.009894,0.007028 0,0.001379 0.004707,-0.00114 0.0101719,-0.00114 z"
   inkscape:connector-curvature="0"
   style="fill:#d0e8e8;stroke:#ffffff;stroke-width:0.00040303" />
      <path
   id="_359587440"
   class="fil41"
   d="m 0.268189,0.251845 c 0.005464,0 0.009894,-0.001179 0.009894,0 0,0.001179 -0.00443,0.002135 -0.009894,0.002135 -0.005464,0 -0.009894,-9.5626e-4 -0.009894,-0.002135 0,-0.001179 0.00443,0 0.009894,0 z"
   inkscape:connector-curvature="0"
   style="fill:#336666" />
      <ellipse
   id="_359587632"
   class="fil12"
   cx="0.26818901"
   cy="0.25174499"
   rx="0.0098940404"
   ry="0.00203428"
   sodipodi:cx="0.26818901"
   sodipodi:cy="0.25174499"
   sodipodi:rx="0.0098940404"
   sodipodi:ry="0.00203428"
   style="fill:#669999"
   d="m 0.27808305,0.25174499 c 0,0.001123 -0.00443,0.002034 -0.009894,0.002034 -0.005464,0 -0.009894,-9.1078e-4 -0.009894,-0.002034 0,-0.001124 0.00443,-0.002034 0.009894,-0.002034 0.005464,0 0.009894,9.1077e-4 0.009894,0.002034 z" />
     </g>
     <rect
   id="_359587224"
   class="fil41"
   transform="matrix(1.05723,0.0967607,0,1.1155,0.158713,0.257998)"
   width="0.00293859"
   height="0.031786099"
   x="0"
   y="0"
   style="fill:#336666" />
     <rect
   id="_359587872"
   class="fil12"
   transform="matrix(1.05723,0.0967607,0,1.1155,0.159231,0.258046)"
   width="0.00293859"
   height="0.031786099"
   x="0"
   y="0"
   style="fill:#669999" />
     <rect
   id="_359588016"
   class="fil41"
   transform="matrix(-1.05723,0.0977222,0,1.12658,0.371991,0.257402)"
   width="0.00293859"
   height="0.031786099"
   x="0"
   y="0"
   style="fill:#336666" />
     <rect
   id="_359588160"
   class="fil12"
   transform="matrix(-1.05723,0.0977222,0,1.12658,0.371473,0.25745)"
   width="0.00293859"
   height="0.031786099"
   x="0"
   y="0"
   style="fill:#669999" />
     <path
   id="_359588304"
   class="fil42"
   d="M 0.1125,0.237605 0.1595387,0.217358 0.174595,0.2208255 0.1593239,0.2450583 c 0,0 -0.0312324,-0.003082 -0.0468239,-0.007453 z"
   inkscape:connector-curvature="0"
   style="fill:#99cccc" />
     <path
   id="_359588496"
   class="fil42"
   d="M 0.410385,0.237605 0.3633463,0.217358 0.34829,0.2208255 0.3635616,0.2450583 c 0,0 0.0312324,-0.003082 0.0468234,-0.007453 z"
   inkscape:connector-curvature="0"
   style="fill:#99cccc" />
    </g>
   </g>
  </g>
 </g>
</svg>
