<?xml version="1.0" encoding="UTF-8" standalone="no"?>
<!-- Creator: CorelDRAW -->

<svg
   xmlns:dc="http://purl.org/dc/elements/1.1/"
   xmlns:cc="http://creativecommons.org/ns#"
   xmlns:rdf="http://www.w3.org/1999/02/22-rdf-syntax-ns#"
   xmlns:svg="http://www.w3.org/2000/svg"
   xmlns="http://www.w3.org/2000/svg"
   xmlns:sodipodi="http://sodipodi.sourceforge.net/DTD/sodipodi-0.dtd"
   xmlns:inkscape="http://www.inkscape.org/namespaces/inkscape"
   xml:space="preserve"
   width="3.36133in"
   height="3.4207699in"
   style="fill-rule:evenodd"
   viewBox=""
   id="svg9709"
   version="1.1"
   inkscape:version="0.48.3.1 r9886"
   sodipodi:docname="player15.svg"><metadata
   id="metadata9774"><rdf:RDF><cc:Work
       rdf:about=""><dc:format>image/svg+xml</dc:format><dc:type
         rdf:resource="http://purl.org/dc/dcmitype/StillImage" /></cc:Work></rdf:RDF></metadata><sodipodi:namedview
   pagecolor="#ffffff"
   bordercolor="#666666"
   borderopacity="1"
   objecttolerance="10"
   gridtolerance="10"
   guidetolerance="10"
   inkscape:pageopacity="0"
   inkscape:pageshadow="2"
   inkscape:window-width="640"
   inkscape:window-height="480"
   id="namedview9772"
   showgrid="false"
   inkscape:zoom="0.9731707"
   inkscape:cx="151.25986"
   inkscape:cy="153.93465"
   inkscape:window-x="0"
   inkscape:window-y="0"
   inkscape:window-maximized="0"
   inkscape:current-layer="svg9709" />
 <defs
   id="defs9711">
  <style
   type="text/css"
   id="style9713">
    .fil12 {fill:#7D7E7E}
    .fil15 {fill:#808989}
    .fil16 {fill:#879999}
    .fil18 {fill:#899595}
    .fil4 {fill:#899999}
    .fil13 {fill:#899B9B}
    .fil17 {fill:#8C9696}
    .fil14 {fill:#8C9B9B}
    .fil8 {fill:#91A5A5}
    .fil10 {fill:#9BB1B1}
    .fil11 {fill:#9FB1B1}
    .fil19 {fill:#A2ADAD}
    .fil7 {fill:#B1C5C5}
    .fil9 {fill:#E7FDFF}
    .fil6 {fill:#EDFFFF}
    .fil5 {fill:white}
    .fil3 {fill:white;fill-opacity:0.501961}
    .fil0 {fill:url(#id0)}
    .fil1 {fill:url(#id1)}
    .fil2 {fill:url(#id2)}
   
  </style>
  <linearGradient
   id="id0"
   gradientUnits="userSpaceOnUse"
   x1="0.088114798"
   y1="0.466775"
   x2="0.42897299"
   y2="0.065609001">
   <stop
   offset="0"
   style="stop-color:#737373"
   id="stop9716" />
   <stop
   offset="0.2"
   style="stop-color:#757878"
   id="stop9718" />
   <stop
   offset="0.678431"
   style="stop-color:#A5BBBD"
   id="stop9720" />
   <stop
   offset="1"
   style="stop-color:#CEEAEC"
   id="stop9722" />
  </linearGradient>
  <linearGradient
   id="id1"
   gradientUnits="userSpaceOnUse"
   x1="0.261897"
   y1="0.520105"
   x2="0.38213301"
   y2="0.38545799">
   <stop
   offset="0"
   style="stop-color:#737373"
   id="stop9725" />
   <stop
   offset="1"
   style="stop-color:#90A2A4"
   id="stop9727" />
  </linearGradient>
  <linearGradient
   id="id2"
   gradientUnits="userSpaceOnUse"
   x1="0.13336"
   y1="0.35558501"
   x2="0.38030201"
   y2="0.113319">
   <stop
   offset="0"
   style="stop-color:#737373"
   id="stop9730" />
   <stop
   offset="1"
   style="stop-color:#C4DEDE"
   id="stop9732" />
  </linearGradient>
 </defs>
 <g
   id="Layer_x0020_1"
   transform="scale(585.24345,584.85599)">
  <metadata
   id="CorelCorpID_0Corel-Layer" />
  <g
   id="_358915968">
   <ellipse
   id="_358917192"
   class="fil0"
   cx="0.258544"
   cy="0.26619199"
   rx="0.258544"
   ry="0.260039"
   sodipodi:cx="0.258544"
   sodipodi:cy="0.26619199"
   sodipodi:rx="0.258544"
   sodipodi:ry="0.260039"
   style="fill:url(#id0)"
   d="m 0.517088,0.26619199 c 0,0.14361557 -0.11575409,0.260039 -0.258544,0.260039 C 0.11575409,0.52623099 0,0.40980756 0,0.26619199 c 0,-0.14361558 0.11575409,-0.260039 0.258544,-0.260039 0.14278991,0 0.258544,0.11642342 0.258544,0.260039 z" />
   <path
   id="_358917456"
   class="fil1"
   d="M 0.155601,0.504805 C 0.1933412,0.4992488 0.1843595,0.4872582 0.2398094,0.475267 0.2952593,0.4632764 0.3297279,0.46628527 0.3447184,0.4437988 0.3597094,0.4213124 0.33853718,0.419817 0.3716999,0.419817 c 0.0331634,0 0.062946,-0.0164954 0.0824321,-0.0224864 0.0194867,-0.005991 0.034305,-0.012036 0.034305,-0.012036 0,0 -0.0706674,0.0869544 -0.0835737,0.0953196 C 0.391957,0.4889802 0.356709,0.481258 0.3312319,0.4827622 0.3057548,0.4842662 0.2577907,0.4992576 0.2487998,0.5007535 0.2398088,0.5022485 0.2031747,0.5202577 0.2031747,0.5202577 L 0.1556006,0.50480483 z"
   inkscape:connector-curvature="0"
   style="fill:url(#id1)" />
   <path
   id="_358917576"
   class="fil2"
   d="M 0.0599547,0.141035 C 0.0899275,0.1020714 2.992e-4,0.25392 0.0441843,0.344382 0.05392793,0.3644573 0.1138191,0.314563 0.1290729,0.3224485 0.1829548,0.3502822 0.1743262,0.4666295 0.2191724,0.4599675 0.2333021,0.4578745 0.2172234,0.3556475 0.2444775,0.3284935 0.2682237,0.30482 0.4183235,0.3731762 0.4494015,0.3560013 0.5136708,0.3204638 0.4826557,0.2369163 0.4687701,0.2113483 0.4373565,0.1534873 0.3605081,0.2509739 0.3163861,0.2078043 0.2935829,0.185499 0.3385376,0.0666863 0.3472837,0.0666863 c 0.009426,0 0.0174378,-0.0054018 0.026864,-0.0205284 0.006634,-0.0106315 0.0508276,0.0210268 0.0508276,0.0210268 0,0 -0.0402506,-0.0405862 -0.101801,-0.0527493 -0.06155,-0.0121632 -0.0776281,-0.00973394 -0.0986555,-0.00605404 -0.0210274,0.00367991 -0.0691175,0.017012 -0.0889397,0.0290026 -0.0198216,0.0119912 -0.11439,0.0810003 -0.124985,0.154904 -0.0105952,0.0739034 0.0493595,-0.051254 0.0493595,-0.051254 z"
   inkscape:connector-curvature="0"
   style="fill:url(#id2)" />
   <path
   id="_358916088"
   class="fil3"
   d="M 0.116402,0.0506998 C 0.121233,0.0473372 0.1728034,0.0212709 0.2156734,0.0172736 0.2585434,0.0132769 0.276344,0.0123703 0.2907099,0.0152707 0.3050752,0.0181711 0.3211357,0.00739488 0.3355465,0.0250046 c 0.0144107,0.0176104 0.0106678,0.0138675 0.00542,0.0251058 -0.005247,0.011239 -0.0146009,0.0092355 0.002248,0.0153537 0.0168485,0.0061176 0.0389636,0 0.0389636,0 0,0 -7.4313e-4,-0.0187344 0.0127428,0 0.0134865,0.0187338 -0.0112384,0.0142387 0.0194867,0.024734 0.030725,0.0104952 0.0194861,-0.0045048 0.0194861,0.0254771 0,0.0299819 0.0372145,0.0257224 0.0350942,0.0379667 -0.002121,0.012245 -0.032846,-0.0124799 -0.0141122,0.0257406 0.0187344,0.0382205 0.003,0.0179907 0.0187344,0.0382205 0.0157341,0.0202292 0.0239727,0.00387 0.0337248,0.0262293 0.008837,0.0202661 0.009254,0.0356919 0.009245,0.0384113 3.2644e-4,-0.005312 5.0753e-4,-0.0106588 5.0753e-4,-0.0160514 0,-0.143619 -0.115758,-0.26004 -0.258544,-0.26004 -0.0276708,0 -0.0543258,0.00438669 -0.0793142,0.0124805 -0.0228032,0.0081932 -0.0440935,0.0190603 -0.0628273,0.0320665 z"
   inkscape:connector-curvature="0"
   style="fill:#ffffff;fill-opacity:0.5019609" />
   <path
   id="_358917552"
   class="fil4"
   d="M 0.251069,0.0103983 C 0.246822,0.0126368 0.245852,0.0135234 0.243358,0.0140606 0.240865,0.01459781 0.241753,0.0151495 0.249715,0.0200093 0.257677,0.024869 0.259497,0.0299807 0.2742376,0.0332614 0.2889784,0.0365428 0.3105624,0.0395541 0.3173087,0.041182 c 0.006746,0.0016286 0.006724,4.6271e-4 0.013191,0.0012264 0.006467,7.6433e-4 0.0131195,0.0015517 0.0124497,-0.0030767 -6.6985e-4,-0.0046289 -0.003128,-0.006478 -0.003128,-0.006478 0,0 -0.0631677,-0.0047943 -0.0775185,-0.0162622 C 0.2479515,0.005123 0.2510694,0.0103982 0.2510694,0.0103982 z"
   inkscape:connector-curvature="0"
   style="fill:#899999" />
   <path
   id="_358917408"
   class="fil5"
   d="M 0.265834,0 C 0.2554005,0.00301188 0.258468,0.00805691 0.262915,0.0115915 0.267362,0.0151267 0.2801868,0.022974 0.2941778,0.0253112 c 0.0139916,0.0023378 0.0169284,8.5457e-4 0.027463,5.3236e-4 0.0105352,-3.2281e-4 0.0270373,0.0098236 0.0199627,2.0168e-4 -0.007075,-0.0096219 0.00212,-0.007358 -0.01684,-0.0143399 C 0.30580289,0.00472345 0.30481149,0.0038489 0.30000449,0.00350671 0.29519748,0.00316392 0.28604439,0.00197624 0.27882319,0.00119314 0.27160207,4.10648e-4 0.26583389,2.3e-8 0.26583389,2.3e-8 z"
   inkscape:connector-curvature="0"
   style="fill:#ffffff" />
   <path
   id="_358916928"
   class="fil6"
   d="m 0.261549,0.00798302 c 6.971e-4,8.3579e-4 0.001563,0.00163827 0.00249,0.00237474 0.004447,0.0035345 0.0167788,0.0127258 0.0307698,0.015063 0.0139916,0.0023372 0.0202807,0.003858 0.0308153,0.0035358 0.008058,-2.471e-4 0.0179332,0.003087 0.0189664,3.6339e-4 l -2.683e-4,-3.7247e-4 c -0.002744,-0.003732 -0.00304,-0.0056749 -0.003481,-0.0070637 -2.677e-4,-4.93e-4 -4.8452e-4,-9.4178e-4 -6.6137e-4,-0.0013512 -0.001077,-0.001396 -0.003758,-0.0026327 -0.012698,-0.005925 -0.0189597,-0.00698189 -0.0199518,-0.00785644 -0.0247588,-0.00819863 -0.004807,-3.428e-4 -0.0139595,-0.00153047 -0.0211807,-0.00231357 -0.007221,-7.825e-4 -0.0129893,-0.00119312 -0.0129893,-0.00119312 -0.004782,0.00138027 -0.006726,0.00318752 -0.007004,0.00508076 z"
   inkscape:connector-curvature="0"
   style="fill:#edffff" />
   <path
   id="_358915752"
   class="fil7"
   d="M 0.284002,0.0222908 C 0.294,0.0235905 0.2954215,0.0241241 0.3009486,0.0245172 0.3051976,0.02482002 0.3299712,0.0292721 0.3396391,0.0279706 0.3411661,0.02776468 0.34049972,0.023897 0.3375361,0.0202365 0.3348531,0.0169218 0.3298771,0.0137658 0.3304231,0.0138439 c 0.002463,3.5309e-4 0.005319,0.0022239 0.007328,0.0039967 0.003444,0.003041 0.004908,0.0073598 0.005389,0.0075488 C 0.3492331,0.0341919 0.3359411,0.0286405 0.3256248,0.0289567 0.3150902,0.0292789 0.3088012,0.0277581 0.2948095,0.0254209 0.2910465,0.02479224 0.2874045,0.0236675 0.2840024,0.0222909 z"
   inkscape:connector-curvature="0"
   style="fill:#b1c5c5" />
   <path
   id="_358916136"
   class="fil8"
   d="m 0.258018,0.00345703 c -0.008054,0.00304943 -0.004749,0.00871767 -4.5423e-4,0.0121311 0.004295,0.003414 0.0159685,0.0131134 0.0299595,0.0154506 0.013991,0.0023378 0.0219407,0.0019344 0.0307638,0.0031088 0.008822,0.0011743 0.0271693,0.004188 0.0266321,-0.0036411 -0.00762,0.0021718 -0.0144519,-0.0012234 -0.0214096,-0.0015093 -0.006958,-2.8586e-4 -0.0177588,0.0012289 -0.0317504,-0.0011083 -0.013991,-0.0023372 -0.0270282,-0.0120893 -0.0307698,-0.015063 -0.003742,-0.00297372 -0.005078,-0.00667543 -0.002971,-0.00936874 z"
   inkscape:connector-curvature="0"
   style="fill:#91a5a5" />
   <path
   id="_358917888"
   class="fil5"
   d="m 0.258795,0.00548594 c 0,0 9.9568e-4,-0.00213187 0.004018,-0.00380891 C 0.26583443,0 0.26971056,-2.9616e-4 0.27279451,7.21321e-4 c 0.003084,0.001016879 0.008337,0.001260349 0.010637,0.001606169 0.0023,3.4583e-4 0.0166195,0.00102475 0.0183741,0.00136149 0.001754,3.3735e-4 0.005072,0.00135786 0.005072,0.00135786 0,0 -0.0363345,-0.00387492 -0.0407297,-0.0019635 -0.004395,0.00191202 -0.007353,0.0024026 -0.007353,0.0024026 z"
   inkscape:connector-curvature="0"
   style="fill:#ffffff" />
   <path
   id="_358918080"
   class="fil4"
   d="M 0.478107,0.159377 C 0.4561233,0.1403888 0.4252953,0.1264056 0.3994366,0.1307227 0.3735779,0.13503914 0.3294615,0.13487925 0.369075,0.1596023 0.4086879,0.184326 0.4017538,0.1855573 0.4307352,0.1875595 0.4597166,0.18956177 0.478107,0.159377 0.478107,0.159377 z"
   inkscape:connector-curvature="0"
   style="fill:#899999" />
   <path
   id="_358918272"
   class="fil5"
   d="M 0.438461,0.150158 C 0.4243803,0.1379966 0.4046363,0.1290403 0.3880743,0.1318057 0.3715129,0.13457047 0.3432571,0.13446751 0.3686282,0.1503021 0.3939993,0.1661373 0.3895587,0.1669259 0.4081206,0.168208 0.4266824,0.16949076 0.438461,0.1501579 0.438461,0.1501579 z"
   inkscape:connector-curvature="0"
   style="fill:#ffffff" />
   <path
   id="_358918464"
   class="fil6"
   d="M 0.465901,0.151917 C 0.4485971,0.1369715 0.4243325,0.1259651 0.4039791,0.1293627 0.3836258,0.13276098 0.348901,0.1326344 0.3800809,0.1520944 c 0.0311799,0.01946 0.0257218,0.0204297 0.0485334,0.0220055 0.0228111,0.001576 0.0372866,-0.022183 0.0372866,-0.022183 z"
   inkscape:connector-curvature="0"
   style="fill:#edffff" />
   <path
   id="_358864960"
   class="fil4"
   d="m 0.066165,0.105278 c -2.1258e-4,0.002088 -1.2476e-4,0.002655 -5.3236e-4,0.003693 -4.0821e-4,0.001038 7.87e-6,8.479e-4 0.0037041,-8.7455e-4 0.0036963,-0.001723 0.0059971,-0.001148 0.0107593,-0.005721 0.0047616,-0.0045726 0.0110815,-0.0117029 0.0133066,-0.0137645 0.0022251,-0.0020622 0.0017957,-0.0023366 0.0036387,-0.004506 0.0018436,-0.0021694 0.0037399,-0.0044012 0.0018926,-0.005277 -0.0018472,-8.7637e-4 -0.0031154,-4.288e-4 -0.0031154,-4.288e-4 0,0 -0.017032,0.0218378 -0.0246801,0.0242876 -0.0076487,0.002449 -0.0049736,0.002591 -0.0049736,0.002591 z"
   inkscape:connector-curvature="0"
   style="fill:#899999" />
   <path
   id="_359677312"
   class="fil5"
   d="M 0.0659524,0.0973855 C 0.0645237,0.1019127 0.0671031,0.1020175 0.0694664,0.1012538 0.0718296,0.10049008 0.0777904,0.0977199 0.0820269,0.0931914 0.086264,0.088663 0.0864348,0.0872349 0.0888665,0.0833212 0.0912988,0.0794081 0.0989862,0.0758548 0.093771,0.0761025 0.0885558,0.0763496 0.0916052,0.0735497 0.0844749,0.0787631 0.0773446,0.0839765 0.0767862,0.0841261 0.0754986,0.0857934 0.0742104,0.0874607 0.0715625,0.0905053 0.0695306,0.0929449 0.067498,0.0953844 0.0659524,0.0973855 0.0659524,0.0973855 z"
   inkscape:connector-curvature="0"
   style="fill:#ffffff" />
   <path
   id="_359407984"
   class="fil6"
   d="m 0.0678221,0.100878 c 4.7301e-4,-5.148e-5 9.7448e-4,-1.7322e-4 0.0014669,-3.3189e-4 0.0023632,-7.6372e-4 0.0086934,-0.0030294 0.0129305,-0.0075579 0.0042371,-0.0045278 0.0063127,-0.0064495 0.0087443,-0.0103632 0.0018605,-0.0029937 0.0054641,-0.0057821 0.0047222,-0.0068172 l -2.0047e-4,7.26e-6 c -0.0020222,9.57e-5 -0.0028017,-2.6648e-4 -0.003414,-4.4212e-4 -2.4407e-4,-2.18e-5 -4.6029e-4,-5.148e-5 -6.5228e-4,-8.6e-5 -7.6857e-4,5.451e-5 -0.0018678,7.3102e-4 -0.0052298,0.0031893 -0.0071303,0.0052134 -0.0076887,0.0053624 -0.0089769,0.0070297 -0.0012876,0.0016673 -0.0039355,0.0047125 -0.0059674,0.0071521 -0.0020326,0.0024395 -0.0035782,0.00444 -0.0035782,0.00444 -6.547e-4,0.0020749 -4.6756e-4,0.0032202 1.5504e-4,0.0037798 z"
   inkscape:connector-curvature="0"
   style="fill:#edffff" />
   <path
   id="_359408176"
   class="fil7"
   d="M 0.0784645,0.0961651 C 0.0813571,0.0928401 0.0818955,0.0924513 0.0833763,0.0905344 0.0845149,0.0890609 0.0921309,0.0811184 0.0939969,0.0772835 0.09429124,0.07667785 0.0927214,0.0759844 0.0906719,0.0761776 0.0888156,0.07635263 0.0864627,0.0774004 0.0866232,0.0772205 0.08734755,0.07640954 0.08872,0.0758221 0.0898519,0.0755199 c 0.0019399,-5.1843e-4 0.003867,-6.06e-6 0.0040518,-1.3566e-4 0.0046798,-8.782e-5 -5.578e-4,0.003408 -0.0029398,0.0072405 -0.0024317,0.0039137 -0.0045072,0.0058354 -0.0087443,0.0103632 -0.0011398,0.001218 -0.0024305,0.0022718 -0.003755,0.0031772 z"
   inkscape:connector-curvature="0"
   style="fill:#b1c5c5" />
   <path
   id="_359408368"
   class="fil8"
   d="M 0.0653195,0.101068 C 0.06448068,0.104738 0.0673442,0.104907 0.0696262,0.104169 0.0719083,0.10343193 0.0782645,0.101529 0.0825016,0.0970006 0.0867387,0.0924722 0.0885151,0.0894809 0.0910782,0.0865526 0.0936407,0.0836243 0.0991781,0.0776738 0.0961977,0.075975 0.0951439,0.0792752 0.0922549,0.0809407 0.0904671,0.0834051 0.0886792,0.0858689 0.086617,0.0901677 0.0823799,0.0946962 0.0781428,0.0992246 0.0714377,0.1016109 0.0694494,0.1022535 0.0674611,0.10289609 0.0657901,0.10248728 0.0653195,0.1010685 z"
   inkscape:connector-curvature="0"
   style="fill:#91a5a5" />
   <path
   id="_359408560"
   class="fil4"
   d="M 0.383481,0.0374192 C 0.378412,0.033153 0.3708702,0.0291915 0.3639919,0.0284338 0.3571139,0.02767553 0.3456378,0.0251791 0.3550969,0.0313488 0.3645569,0.0375185 0.3627089,0.0373271 0.3701829,0.03927 0.3776569,0.0412129 0.3834811,0.0374191 0.3834811,0.0374191 z"
   inkscape:connector-curvature="0"
   style="fill:#899999" />
   <path
   id="_359408752"
   class="fil5"
   d="M 0.37348,0.0337254 C 0.370234,0.0309933 0.365403,0.0284563 0.3609976,0.0279705 0.3565926,0.02748477 0.349242,0.0258859 0.3553006,0.0298377 c 0.006059,0.0039512 0.004876,0.0038289 0.009662,0.0050735 0.004787,0.001244 0.008517,-0.0011859 0.008517,-0.0011859 z"
   inkscape:connector-curvature="0"
   style="fill:#ffffff" />
   <path
   id="_359408944"
   class="fil6"
   d="M 0.38056,0.0355429 C 0.376571,0.0321852 0.370634,0.0290673 0.3652202,0.0284708 0.3598062,0.02787363 0.3507737,0.0259089 0.3582192,0.030765 0.3656642,0.0356217 0.3642112,0.0354709 0.3700935,0.0370001 0.3759765,0.0385294 0.3805603,0.0355429 0.3805603,0.0355429 z"
   inkscape:connector-curvature="0"
   style="fill:#edffff" />
   <path
   id="_359409136"
   class="fil9"
   d="M 0.183427,0.102354 C 0.173471,0.1205609 0.181086,0.1304075 0.189139,0.1349953 0.197192,0.1395833 0.2185595,0.1468018 0.2369511,0.1387263 0.2553421,0.1306523 0.2576424,0.1238989 0.2698443,0.1124824 0.2820456,0.101066 0.3095789,0.1104784 0.2936074,0.0929321 0.2776359,0.0753853 0.2902974,0.0719453 0.2623591,0.0731123 0.2344206,0.07428 0.2325565,0.07303478 0.2266024,0.0769897 0.2206474,0.0809446 0.2088854,0.087101 0.1997287,0.0923543 0.1905717,0.0976077 0.1834265,0.1023535 0.1834265,0.1023535 z"
   inkscape:connector-curvature="0"
   style="fill:#e7fdff" />
   <path
   id="_359409328"
   class="fil4"
   d="M 0.1793,0.115609 C 0.172428,0.1309833 0.180534,0.141808 0.188048,0.1460893 0.195563,0.1503703 0.2163087,0.1630504 0.2340789,0.1552483 0.2518492,0.1474453 0.2606232,0.1387251 0.2716005,0.1330635 0.2825778,0.1274015 0.3058407,0.117043 0.2992464,0.0981789 0.2921994,0.1109586 0.2818008,0.1091877 0.273633,0.1152381 0.265465,0.1212881 0.2542826,0.1355309 0.2365123,0.1433328 0.2187414,0.1511348 0.1963973,0.1396508 0.1898509,0.1359218 0.1833049,0.1321918 0.1789499,0.1243255 0.1792999,0.115609 z"
   inkscape:connector-curvature="0"
   style="fill:#899999" />
   <path
   id="_359409520"
   class="fil10"
   d="M 0.184672,0.127119 C 0.186156,0.12856 0.187815,0.129746 0.189494,0.130702 0.197547,0.13529 0.2193935,0.1464476 0.2377846,0.138373 0.2561763,0.130299 0.2648146,0.1278729 0.2770165,0.1164565 0.2863485,0.1077235 0.3006609,0.106341 0.29973,0.0983229 l -6.1231e-4,-6.8559e-4 c -0.006194,-0.0068056 -0.008081,-0.0114873 -0.009701,-0.0146027 -7.0558e-4,-9.9326e-4 -0.001317,-0.0019254 -0.00185,-0.0027975 -0.002378,-0.0024947 -0.006525,-0.0029689 -0.019698,-0.002419 -0.0279385,0.0011671 -0.0298026,-7.813e-5 -0.0357573,0.0038767 -0.005954,0.0039549 -0.0177164,0.0101113 -0.0268731,0.0153646 -0.009157,0.0052534 -0.0163022,0.0099992 -0.0163022,0.0099992 -0.004563,0.008345 -0.005434,0.0149298 -0.004264,0.0200608 z"
   inkscape:connector-curvature="0"
   style="fill:#9bb1b1" />
   <path
   id="_359409712"
   class="fil11"
   d="M 0.222531,0.141215 C 0.2353798,0.134497 0.237482,0.134434 0.2443288,0.1298858 0.2495908,0.1263908 0.2824046,0.1128956 0.2928071,0.0998409 0.2944501,0.0977793 0.2906041,0.0885365 0.2842061,0.0821354 0.2784131,0.0763394 0.270034,0.073253 0.270742,0.0729035 0.273933,0.0713337 0.278789,0.07325599 0.282566,0.0757797 0.289042,0.0801101 0.2941883,0.0897071 0.2949054,0.0897071 0.3090696,0.1061407 0.2889644,0.1052758 0.2770158,0.1164561 0.2648138,0.1278725 0.2561755,0.1302981 0.2377839,0.1383726 0.2328379,0.1405446 0.2276418,0.1413236 0.2225313,0.1412146 z"
   inkscape:connector-curvature="0"
   style="fill:#9fb1b1" />
   <path
   id="_359409904"
   class="fil12"
   d="M 0.233282,0.512814 C 0.237529,0.510576 0.238498,0.509689 0.240992,0.509152 0.243486,0.50861479 0.242597,0.508063 0.234635,0.503203 0.226673,0.498343 0.224854,0.493232 0.210113,0.4899503 0.1953722,0.4866693 0.1737876,0.4836583 0.1670419,0.4820303 0.1602959,0.4804013 0.1603179,0.48156759 0.1538503,0.4808033 0.1473843,0.48003958 0.1407308,0.4792513 0.1414006,0.4838803 c 6.7045e-4,0.004629 0.003129,0.006478 0.003129,0.006478 0,0 0.0631671,0.004794 0.0775185,0.0162622 0.0143514,0.0114679 0.0112335,0.006193 0.0112335,0.006193 z"
   inkscape:connector-curvature="0"
   style="fill:#7d7e7e" />
   <path
   id="_359410096"
   class="fil13"
   d="M 0.218516,0.523212 C 0.2289501,0.5202 0.225883,0.515155 0.221436,0.5116199 0.216989,0.5080849 0.2041636,0.500238 0.1901726,0.4979002 0.1761816,0.4955632 0.1732448,0.49704624 0.1627096,0.49736844 0.152175,0.49769065 0.1356723,0.48754444 0.1427469,0.49716676 c 0.007075,0.009622 -0.00212,0.007357 0.0168406,0.0143393 0.0189597,0.006982 0.0199518,0.007857 0.0247588,0.008199 0.004806,3.4219e-4 0.0139595,0.00153 0.0211807,0.002313 0.007221,7.831e-4 0.0129893,0.001194 0.0129893,0.001194 z"
   inkscape:connector-curvature="0"
   style="fill:#899b9b" />
   <path
   id="_359410288"
   class="fil14"
   d="M 0.200348,0.500921 C 0.190351,0.499621 0.1889291,0.499088 0.1834014,0.498694 0.1791534,0.49839178 0.1543788,0.49394 0.1447109,0.495241 c -0.001527,2.0592e-4 -8.6002e-4,0.004074 0.002103,0.007734 0.002684,0.003314 0.00766,0.006471 0.007113,0.006393 C 0.1514649,0.50901491 0.1486079,0.507144 0.1465989,0.505371 0.1431549,0.502331 0.1416909,0.498011 0.1412109,0.497823 0.1351169,0.48902 0.1484099,0.494572 0.1587256,0.494256 c 0.0105352,-3.222e-4 0.0168242,0.001198 0.0308153,0.003536 0.003763,6.2866e-4 0.007405,0.001753 0.0108071,0.00313 z"
   inkscape:connector-curvature="0"
   style="fill:#8c9b9b" />
   <path
   id="_359410480"
   class="fil15"
   d="M 0.226332,0.519755 C 0.234386,0.516706 0.231081,0.511037 0.22678623,0.5076233 0.22249123,0.5042103 0.21081833,0.4945105 0.19682733,0.4921727 c -0.0139916,-0.002337 -0.0219407,-0.001934 -0.0307638,-0.003108 -0.008823,-0.001174 -0.0271699,-0.004188 -0.0266327,0.003641 0.00762,-0.002172 0.0144519,0.001223 0.0214102,0.001509 0.006958,2.8587e-4 0.0177588,-0.001229 0.0317498,0.001108 0.0139916,0.002337 0.0270282,0.0120893 0.0307698,0.015063 0.003742,0.002974 0.005079,0.006675 0.002971,0.009369 z"
   inkscape:connector-curvature="0"
   style="fill:#808989" />
   <path
   id="_359410672"
   class="fil4"
   d="M 0.462199,0.397292 C 0.47098147,0.3776442 0.46062311,0.3638095 0.4510194,0.3583381 0.44141567,0.35286609 0.4149029,0.336662 0.3921924,0.3466334 0.3694813,0.35660415 0.3582683,0.3677492 0.3442392,0.3749855 0.3302106,0.38222115 0.3004801,0.3954588 0.308907,0.4195677 0.31791417,0.4032352 0.3312033,0.4054985 0.3416416,0.3977663 0.3520805,0.39003341 0.3663719,0.3718319 0.3890825,0.3618606 0.411793,0.3518896 0.4403486,0.3665666 0.448715,0.3713326 0.457081,0.3760986 0.4626467,0.3861522 0.4621991,0.3972918 z"
   inkscape:connector-curvature="0"
   style="fill:#899999" />
   <path
   id="_359410864"
   class="fil16"
   d="M 0.455336,0.382582 C 0.453438,0.38074 0.451318,0.379226 0.449174,0.378003 0.4388823,0.37214 0.4109614,0.3578804 0.3874575,0.3682 0.3639536,0.3785196 0.3529133,0.3816193 0.3373197,0.3962099 0.3253921,0.4073701 0.3071016,0.4091374 0.3082917,0.4193849 l 7.825e-4,8.7576e-4 c 0.007916,0.008698 0.0103275,0.0146803 0.0123976,0.0186624 9.018e-4,0.001269 0.001682,0.002461 0.002364,0.003575 0.003039,0.003188 0.008339,0.003794 0.0251743,0.003092 0.0357047,-0.001492 0.0380873,9.933e-5 0.0456972,-0.004955 0.00761,-0.005055 0.0226421,-0.0129227 0.0343444,-0.0196363 0.0117023,-0.006714 0.0208342,-0.0127791 0.0208342,-0.0127791 0.005831,-0.0106642 0.006944,-0.0190803 0.00545,-0.0256382 z"
   inkscape:connector-curvature="0"
   style="fill:#879999" />
   <path
   id="_359411056"
   class="fil11"
   d="M 0.406951,0.364568 C 0.3905301,0.373154 0.3878435,0.373234 0.3790931,0.379046 0.3723681,0.383513 0.3304325,0.4007602 0.3171379,0.417444 c -0.002099,0.002635 0.002816,0.0144471 0.0109925,0.0226275 0.007403,0.007408 0.0181118,0.0113522 0.017207,0.011798 C 0.3412594,0.4538765 0.3350529,0.45141951 0.3302259,0.4481935 0.3219499,0.4426595 0.315373,0.4303948 0.3144567,0.4303948 0.2963545,0.4093922 0.3220497,0.4104975 0.3373198,0.3962097 0.3529134,0.3816191 0.3639537,0.3785194 0.3874576,0.3681998 c 0.006322,-0.002776 0.012962,-0.003771 0.0194933,-0.003632 z"
   inkscape:connector-curvature="0"
   style="fill:#9fb1b1" />
   <path
   id="_359411248"
   class="fil17"
   d="M 0.124358,0.402394 C 0.1437726,0.40203364 0.1510997,0.3882685 0.1518864,0.3783268 0.15267253,0.36838512 0.15574134,0.3405175 0.1388898,0.3257925 0.1220383,0.3110668 0.108636,0.3061823 0.0973467,0.2974985 0.0860581,0.28881535 0.0638466,0.2696091 0.0473876,0.2857356 c 0.0167927,0.001094 0.0200396,0.0128155 0.0303574,0.0183765 0.0103178,0.00556 0.0306639,0.0102536 0.0475154,0.0249793 0.0168521,0.0147251 0.0158134,0.0436756 0.015129,0.0523357 -6.8499e-4,0.008661 -0.006762,0.017061 -0.0160315,0.0209669 z"
   inkscape:connector-curvature="0"
   style="fill:#8c9696" />
   <path
   id="_359411440"
   class="fil18"
   d="M 0.13374,0.391147 C 0.13451704,0.38889 0.134941,0.386579 0.135117,0.384358 0.13595945,0.3737041 0.1369,0.3454331 0.1194598,0.3301933 0.102019,0.3149534 0.0952546,0.3071255 0.0773589,0.2999837 0.0636701,0.2945217 0.0552135,0.2802602 0.0473001,0.2851611 l -4.1547e-4,9.7509e-4 c -0.0040681,0.0098 -0.0080297,0.0140637 -0.010488,0.0172809 -6.9104e-4,0.001223 -0.0013645,0.002318 -0.0020138,0.003302 -0.0014384,0.003704 9.811e-5,0.008265 0.0071272,0.0217457 0.0149086,0.0285901 0.0145228,0.031146 0.0215689,0.035423 0.0070461,0.004278 0.0192353,0.013538 0.0292061,0.0205217 0.0099708,0.006984 0.0184256,0.0121159 0.0184256,0.0121159 0.0109458,6.7348e-4 0.0182463,-0.001644 0.0230291,-0.005379 z"
   inkscape:connector-curvature="0"
   style="fill:#899595" />
   <path
   id="_359411632"
   class="fil19"
   d="M 0.129901,0.344722 C 0.1165919,0.3346029 0.1154963,0.3324389 0.1073946,0.3275204 0.10116735,0.32374056 0.0710019,0.2961031 0.0522778,0.2916425 0.0493216,0.29093813 0.0415585,0.2994815 0.0380124,0.3092965 0.0348007,0.3181835 0.0356849,0.3284422 0.0349739,0.3278735 0.0317712,0.3253125 0.0313982,0.3193015 0.0321819,0.3141223 0.0335282,0.3052413 0.0410237,0.2951668 0.0406724,0.2944182 c 0.0102124,-0.0228377 0.019162,-0.001428 0.036687,0.005566 0.0178956,0.007142 0.0246601,0.0149698 0.0421009,0.0302096 0.004691,0.004099 0.00805,0.00914 0.0104407,0.0145282 z"
   inkscape:connector-curvature="0"
   style="fill:#a2adad" />
  </g>
 </g>
</svg>
