<?xml version="1.0" encoding="UTF-8"?>
<!DOCTYPE svg PUBLIC "-//W3C//DTD SVG 1.1//EN" "http://www.w3.org/Graphics/SVG/1.1/DTD/svg11.dtd">
<!-- Creator: CorelDRAW -->
<svg xmlns="http://www.w3.org/2000/svg" xml:space="preserve" width="3.36221in" height="3.42077in" style="shape-rendering:geometricPrecision; text-rendering:geometricPrecision; image-rendering:optimizeQuality; fill-rule:evenodd; clip-rule:evenodd"
viewBox="0 0 2.02505 2.06032"
 xmlns:xlink="http://www.w3.org/1999/xlink">
 <defs>
  <style type="text/css">
   <![CDATA[
    .fil17 {fill:#513B22}
    .fil20 {fill:#644217}
    .fil21 {fill:#7D4A07}
    .fil7 {fill:#804B05}
    .fil19 {fill:#814C07}
    .fil14 {fill:#824A04}
    .fil18 {fill:#874A00}
    .fil11 {fill:#905100}
    .fil16 {fill:#935706}
    .fil15 {fill:#985300}
    .fil10 {fill:#A46008}
    .fil1 {fill:#A65E00}
    .fil13 {fill:#D57D07}
    .fil9 {fill:#D67F0A}
    .fil8 {fill:#F39110}
    .fil12 {fill:#FFB858}
    .fil5 {fill:#F39110;fill-opacity:0.501961}
    .fil4 {fill:url(#id0)}
    .fil6 {fill:url(#id1)}
    .fil0 {fill:url(#id2)}
    .fil2 {fill:url(#id3)}
    .fil3 {fill:url(#id4)}
   ]]>
  </style>
  <linearGradient id="id0" gradientUnits="userSpaceOnUse" x1="0.313443" y1="1.03422" x2="1.3504" y2="0.0169236">
   <stop offset="0" style="stop-color:#353535"/>
   <stop offset="1" style="stop-color:#BE6B00"/>
  </linearGradient>
  <linearGradient id="id1" gradientUnits="userSpaceOnUse" x1="0.667197" y1="1.58016" x2="1.35263" y2="0.400627">
   <stop offset="0" style="stop-color:#353535"/>
   <stop offset="1" style="stop-color:#8E5000"/>
  </linearGradient>
  <linearGradient id="id2" gradientUnits="userSpaceOnUse" x1="0.34499" y1="1.82753" x2="1.67953" y2="0.256877">
   <stop offset="0" style="stop-color:#353535"/>
   <stop offset="0.2" style="stop-color:#44362A"/>
   <stop offset="0.678431" style="stop-color:#A25C00"/>
   <stop offset="1" style="stop-color:#C97300"/>
  </linearGradient>
  <linearGradient id="id3" gradientUnits="userSpaceOnUse" xlink:href="#id0" x1="0.805412" y1="1.89769" x2="1.47822" y2="0.928084">
  </linearGradient>
  <linearGradient id="id4" gradientUnits="userSpaceOnUse" xlink:href="#id1" x1="1.02539" y1="2.03633" x2="1.49614" y2="1.50916">
  </linearGradient>
 </defs>
 <g id="Layer_x0020_1">
  <metadata id="CorelCorpID_0Corel-Layer"/>
  <g id="_350343248">
   <g>
    <ellipse id="_350343392" class="fil0" cx="1.01226" cy="1.0422" rx="1.01226" ry="1.01811"/>
    <path id="_350343512" class="fil1" d="M0.261494 1.71032c0.256346,-0.167882 0.0744476,-0.208938 0.315039,-0.191338 0.240591,0.0176018 0.258193,0.0352367 0.381434,-0.129095 0.123241,-0.164332 0.187788,-0.134952 0.352085,-0.20539 0.164299,-0.0704378 0.154043,-0.123241 0.276539,-0.123241 0.122496,0 0.175297,0 0.269193,0 0.0938942,0 0.169264,-0.0757613 0.169264,-0.0757613 0,0 -0.00553449,0.185092 -0.0180973,0.240947 -0.0125629,0.0558523 -0.17537,-0.000886846 -0.297864,-0.000886846 -0.122496,0 -0.082185,0.0117448 -0.328631,0.123241 -0.246448,0.111494 -0.28754,0.0821826 -0.387288,0.170187 -0.0997512,0.088004 0.0175638,0.11146 -0.170189,0.152552 -0.187753,0.0410937 -0.170189,0.0117827 -0.258191,0.0528385 -0.088004,0.0410581 -0.195881,0.0894955 -0.195881,0.0894955l-0.107413 -0.103548z"/>
    <path id="_350343704" class="fil2" d="M0.260038 1.72353c0.256346,-0.167882 0.0744476,-0.208938 0.315039,-0.191338 0.240591,0.0176018 0.258193,0.0352367 0.381434,-0.129095 0.123241,-0.164334 0.187788,-0.134952 0.352087,-0.20539 0.164296,-0.0704378 0.154041,-0.123241 0.276537,-0.123241 0.122496,0 0.175299,0 0.269193,0 0.0938942,0 0.169267,-0.0757613 0.169267,-0.0757613 0,0 -0.00553686,0.185092 -0.0180997,0.240947 -0.0125605,0.0558523 -0.175368,-0.000889217 -0.297864,-0.000889217 -0.122496,0 -0.082185,0.0117471 -0.328631,0.123243 -0.246446,0.111494 -0.287537,0.0821826 -0.387288,0.170187 -0.0997488,0.088004 0.0175662,0.11146 -0.170187,0.152552 -0.187755,0.0410937 -0.170189,0.0117827 -0.258193,0.0528385 -0.088004,0.0410557 -0.195879,0.0894955 -0.195879,0.0894955l-0.107415 -0.103548z"/>
    <path id="_350343896" class="fil3" d="M0.609216 1.97643c0.147759,-0.0217538 0.112594,-0.0686997 0.329693,-0.115648 0.217102,-0.0469459 0.352052,-0.0351656 0.410745,-0.123205 0.0586931,-0.0880396 -0.0242009,-0.0938942 0.105641,-0.0938942 0.12984,0 0.246446,-0.0645832 0.322738,-0.0880396 0.0762948,-0.0234564 0.134314,-0.0471238 0.134314,-0.0471238 0,0 -0.276682,0.340447 -0.327213,0.373198 -0.0505312,0.032754 -0.188533,0.00252063 -0.288284,0.00841081 -0.0997488,0.00589017 -0.287537,0.0645832 -0.322738,0.0704402 -0.0352035,0.0058546 -0.178635,0.0763636 -0.178635,0.0763636l-0.186261 -0.0605023z"/>
    <path id="_350344088" class="fil4" d="M0.234737 0.552187c0.117351,-0.152554 0.164296,-0.170153 0.310994,-0.234701 0.146697,-0.0645477 0.240591,-0.129098 0.381434,-0.123241 0.140842,0.0058546 0.332038,0.0668525 0.432532,0.0668525 0.0369061,0 0.0682753,-0.0211491 0.105179,-0.0803734 0.025977,-0.0416248 0.199002,0.0823273 0.199002,0.0823273 0,0 -0.157591,-0.158904 -0.398571,-0.206526 -0.240983,-0.0476217 -0.303934,-0.0381107 -0.386259,-0.0237053 -0.0823273,0.0144077 -0.270614,0.0666059 -0.34822,0.113554 -0.0776061,0.0469483 -0.447862,0.317133 -0.489344,0.606482 -0.0414826,0.289349 0.193254,-0.200669 0.193254,-0.200669z"/>
    <path id="_350344280" class="fil5" d="M0.455739 0.198502c0.0189178,-0.0131604 0.220827,-0.115219 0.388673,-0.130867 0.167846,-0.0156526 0.237537,-0.0192 0.293785,-0.00784645 0.0562436,0.0113583 0.119124,-0.0308357 0.175546,0.038113 0.0564214,0.0689463 0.0417624,0.0542897 0.0212226,0.0982952 -0.0205516,0.0440008 -0.0571684,0.0361615 0.00879495,0.0601111 0.065968,0.0239543 0.152556,0 0.152556,0 0,0 -0.00291189,-0.0733474 0.0498886,0 0.0528053,0.0733497 -0.0440008,0.0557456 0.0762948,0.0968393 0.120296,0.0410937 0.0762948,-0.017635 0.0762948,0.0997488 0,0.117389 0.145706,0.100709 0.137399,0.148651 -0.00830173,0.0479395 -0.128597,-0.0488643 -0.0552524,0.10078 0.0733497,0.149637 0.0117448,0.0704355 0.0733497,0.149637 0.0616026,0.0792043 0.0938586,0.0151546 0.13204,0.102696 0.0345965,0.079349 0.0362326,0.139742 0.0361971,0.150384 0.0012781,-0.0207911 0.00198473,-0.0417268 0.00198473,-0.0628427 0,-0.562303 -0.453221,-1.01811 -1.01226,-1.01811 -0.108337,0 -0.212703,0.0171749 -0.310534,0.0488643 -0.0892821,0.0320782 -0.172639,0.0746231 -0.245986,0.125546z"/>
    <path id="_350344472" class="fil1" d="M0.0704378 1.19032c0.129098,-0.246446 -0.0410913,-0.398998 0.357942,-0.393143 0.399036,0.0058546 0.346233,-0.0997844 0.633772,-0.123241 0.287537,-0.0234564 0.399069,-0.0117092 0.598566,-0.0410557 0.1995,-0.0293465 0.222779,-0.129133 0.260678,-0.0331429 0.021327,0.0539363 0.0424761,0.108513 0.0496444,0.13307 0.00557006,0.0190909 0.00894197,0.0119938 -0.0422295,0.0254435 -0.116959,0.0308001 -0.0986841,0.044781 -0.227035,0.044781 -0.128351,0 0.0117448,-0.0058546 -0.240591,-0.0058546 -0.252338,0 -0.290449,-0.0147254 -0.375544,0.105606 -0.0850945,0.120331 -3.55687e-005,0.164332 -0.375577,0.164332 -0.375544,0 -0.305103,-0.111494 -0.42249,0.0469483 -0.117386,0.158442 -0.211351,0.324763 -0.211351,0.324763 0,0 -0.0597933,-0.176364 -0.00578584,-0.248507z"/>
    <path id="_350344664" class="fil6" d="M0.0821494 1.20941c0.129095,-0.246446 -0.0410913,-0.398998 0.357942,-0.393143 0.399033,0.00585698 0.34623,-0.0997844 0.63377,-0.123241 0.28754,-0.0234564 0.399069,-0.0117092 0.598569,-0.0410557 0.1995,-0.0293465 0.222779,-0.129131 0.260676,-0.0331429 0.021327,0.0539363 0.0424761,0.108513 0.0496444,0.13307 0.00557006,0.0190909 0.00894197,0.0119938 -0.0422271,0.0254435 -0.116962,0.0308001 -0.0986865,0.0447833 -0.227037,0.0447833 -0.128351,0 0.0117471,-0.00585698 -0.240591,-0.00585698 -0.252336,0 -0.290447,-0.0147254 -0.375541,0.105606 -0.0850945,0.120331 -3.55687e-005,0.164332 -0.375579,0.164332 -0.375541,0 -0.305103,-0.111494 -0.42249,0.0469483 -0.117386,0.158442 -0.211351,0.324763 -0.211351,0.324763 0,0 -0.0597933,-0.176364 -0.00578347,-0.248507z"/>
   </g>
   <g>
    <g>
     <path id="_350344976" class="fil7" d="M0.982993 0.0407143c-0.0166295,0.00876175 -0.0204235,0.0122356 -0.0301883,0.0143365 -0.00976479,0.00210329 -0.0062838,0.00426587 0.0248886,0.0232927 0.0311724,0.0190269 0.0382956,0.0390378 0.0960094,0.0518852 0.0577137,0.012845 0.142223,0.0246349 0.168633,0.0310088 0.0264109,0.00637628 0.0263279,0.00181163 0.0516481,0.00480414 0.0253178,0.00299014 0.0513659,0.00607513 0.0487433,-0.0120483 -0.00262497,-0.0181211 -0.0122499,-0.0253628 -0.0122499,-0.0253628 0,0 -0.247314,-0.0187708 -0.303503,-0.0636703 -0.056189,-0.0448995 -0.0439819,-0.024246 -0.0439819,-0.024246z"/>
     <g>
      <path id="_350345240" class="fil8" d="M1.0408 0c-0.0408518,0.0117922 -0.0288438,0.031547 -0.0114318,0.0453856 0.0174121,0.0138386 0.0676255,0.0445628 0.122404,0.0537158 0.0547781,0.00915064 0.0662763,0.00334583 0.107524,0.00208195 0.0412454,-0.0012615 0.105857,0.0384616 0.0781586,0.000789625 -0.0276985,-0.037672 0.00829936,-0.0288059 -0.0659349,-0.0561416 -0.0742318,-0.0273357 -0.0781159,-0.0307622 -0.0969365,-0.0321019 -0.0188206,-0.00133975 -0.0546548,-0.00599214 -0.0829272,-0.00905579 -0.0282724,-0.00306365 -0.0508561,-0.00467372 -0.0508561,-0.00467372z"/>
      <path id="_350345432" class="fil9" d="M1.02402 0.0312554c0.0027293,0.00327232 0.00612256,0.00641422 0.00975056,0.00929765 0.0174121,0.013841 0.0656906,0.0498246 0.120471,0.0589776 0.0547781,0.00915064 0.0794012,0.0151048 0.120649,0.013841 0.0315494,-0.000965097 0.0702102,0.0120886 0.0742579,0.00142512l-0.00105283 -0.00146069c-0.0107394,-0.0146092 -0.0119013,-0.0222186 -0.0136299,-0.0276558 -0.00104809,-0.00192782 -0.001897,-0.00368492 -0.00258703,-0.00528788 -0.00422082,-0.00546809 -0.0147136,-0.0103078 -0.0497155,-0.0231979 -0.0742342,-0.0273357 -0.0781159,-0.0307622 -0.0969365,-0.0321019 -0.0188206,-0.00133975 -0.0546572,-0.00599214 -0.0829296,-0.00905579 -0.0282724,-0.00306365 -0.0508561,-0.00467372 -0.0508561,-0.00467372 -0.018721,0.00540407 -0.0263351,0.0124799 -0.0274211,0.0198924z"/>
      <path id="_350345624" class="fil10" d="M1.11193 0.0872737c0.0391421,0.00509106 0.0447075,0.00717776 0.0663498,0.00871907 0.0166319,0.00118325 0.11363,0.0186143 0.151482,0.0135185 0.00597554,-0.000803852 0.00336717,-0.015949 -0.00823534,-0.0302784 -0.010507,-0.0129778 -0.0299891,-0.0253344 -0.0278479,-0.0250285 0.00963911,0.00138244 0.0208243,0.00870721 0.0286897,0.0156478 0.0134829,0.0119037 0.0192166,0.0288154 0.021097,0.0295528 0.0238595,0.0344661 -0.0281846,0.0127312 -0.068574,0.0139666 -0.0412478,0.00126387 -0.0658708,-0.00469032 -0.120649,-0.013841 -0.0147349,-0.00246372 -0.0289932,-0.00686713 -0.0423125,-0.012257z"/>
      <path id="_350345816" class="fil11" d="M1.0102 0.0135374c-0.0315328,0.0119392 -0.0185953,0.0341293 -0.00177843,0.047496 0.0168145,0.0133643 0.0625179,0.0513422 0.117296,0.0604928 0.0547805,0.00915064 0.0859031,0.00757139 0.120447,0.0121692 0.0345443,0.00459784 0.106376,0.0163972 0.104273,-0.0142559 -0.029835,0.00850329 -0.0565827,-0.00478754 -0.0838259,-0.00590677 -0.0272432,-0.0011216 -0.0695297,0.00481126 -0.124308,-0.00433938 -0.0547805,-0.00915301 -0.105822,-0.0473348 -0.120471,-0.0589776 -0.0146496,-0.0116428 -0.0198853,-0.0261335 -0.0116333,-0.0366784z"/>
     </g>
    </g>
    <path id="_350344952" class="fil12" d="M1.01324 0.0214787c0,0 0.00389833,-0.00834441 0.0157308,-0.0149128 0.0118325,-0.00656598 0.0270061,-0.00772315 0.0390805,-0.00374183 0.0120744,0.00398369 0.0326449,0.00493456 0.0416486,0.00628854 0.00900362,0.00135635 0.0650693,0.00401452 0.0719365,0.00533293 0.0068695,0.00131841 0.0198592,0.00531633 0.0198592,0.00531633 0,0 -0.142256,-0.0151736 -0.159464,-0.00768758 -0.0172081,0.00748365 -0.0287917,0.00940436 -0.0287917,0.00940436z"/>
   </g>
   <g>
    <path id="_350346200" class="fil7" d="M1.81084 0.529999c-0.0560539,-0.0484161 -0.134661,-0.0840725 -0.200598,-0.0730652 -0.0659349,0.0110073 -0.178424,0.0105995 -0.0774188,0.0736414 0.101008,0.0630396 0.0833279,0.0661815 0.157228,0.0712868 0.0738975,0.00510529 0.120789,-0.071863 0.120789,-0.071863z"/>
    <path id="_350346392" class="fil12" d="M1.70975 0.506493c-0.035903,-0.0310088 -0.0862493,-0.0538462 -0.128479,-0.0467965 -0.0422295,0.00705208 -0.114277,0.00678888 -0.0495851,0.0471664 0.0646923,0.0403752 0.0533696,0.042386 0.1007,0.045656 0.0473301,0.00326995 0.0773643,-0.0460259 0.0773643,-0.0460259z"/>
    <path id="_350346584" class="fil9" d="M1.77971 0.510977c-0.0441218,-0.0381107 -0.105995,-0.0661743 -0.157892,-0.0575098 -0.0518994,0.00866453 -0.140442,0.00834204 -0.0609386,0.0579627 0.0795055,0.0496207 0.0655886,0.0520915 0.123755,0.0561108 0.0581643,0.00401689 0.0950751,-0.0565637 0.0950751,-0.0565637z"/>
   </g>
   <g>
    <path id="_350346824" class="fil7" d="M0.25761 0.364529c-0.000524045,0.00515509 -0.000305891,0.00655649 -0.00131367,0.00911744 -0.00100778,0.00256332 1.897e-005,0.00209381 0.00914352,-0.00215783 0.00912455,-0.00425401 0.0148061,-0.00283601 0.0265627,-0.0141231 0.0117543,-0.0112895 0.0273547,-0.0288913 0.0328489,-0.0339799 0.00549418,-0.00509106 0.00443423,-0.00576924 0.00898228,-0.0111235 0.00455042,-0.00535664 0.00923363,-0.010865 0.00467372,-0.0130276 -0.00456228,-0.00216258 -0.00769232,-0.00105995 -0.00769232,-0.00105995 0,0 -0.0420446,0.0539103 -0.0609268,0.0599593 -0.0188799,0.00604668 -0.0122783,0.00639525 -0.0122783,0.00639525z"/>
    <g>
     <path id="_350347088" class="fil8" d="M0.257086 0.345047c-0.00352604,0.0111757 0.00284075,0.0114341 0.00867402,0.00954901 0.00583563,-0.00188514 0.0205492,-0.00872381 0.0310088,-0.0199042 0.0104596,-0.0111781 0.0108816,-0.0147041 0.0168856,-0.0243645 0.00600399,-0.00966045 0.0249811,-0.0184317 0.0121052,-0.0178223 -0.0128735,0.000611781 -0.00534479,-0.0063004 -0.0229465,0.00657072 -0.0176041,0.0128687 -0.0189818,0.0132387 -0.0221617,0.0173528 -0.00317984,0.00411648 -0.00971499,0.0116333 -0.0147325,0.0176563 -0.00501756,0.00602296 -0.00883289,0.0109623 -0.00883289,0.0109623z"/>
     <path id="_350347280" class="fil9" d="M0.2617 0.353667c0.00116902,-0.000125676 0.00240681,-0.000426824 0.00362326,-0.00081808 0.00583326,-0.00188514 0.0214621,-0.00747891 0.0319193,-0.018657 0.0104596,-0.0111781 0.0155838,-0.0159229 0.0215878,-0.0255834 0.0045931,-0.00739117 0.0134876,-0.0142749 0.011657,-0.0168311l-0.00049559 1.897e-005c-0.00499147,0.000237125 -0.00691455,-0.000656835 -0.00842741,-0.00109077 -0.000602296,-5.45386e-005 -0.00113583,-0.000128047 -0.00161008,-0.000213412 -0.001897,0.000135161 -0.0046097,0.00180452 -0.0129091,0.00787253 -0.0176041,0.0128711 -0.0189818,0.0132387 -0.0221617,0.0173551 -0.00317984,0.00411648 -0.00971499,0.0116333 -0.0147325,0.0176563 -0.00501756,0.00602296 -0.00883289,0.0109623 -0.00883289,0.0109623 -0.00161482,0.00512189 -0.00115243,0.00794841 0.000381771,0.00932848z"/>
     <path id="_359962744" class="fil10" d="M0.287974 0.342033c0.00714219,-0.00820688 0.00847009,-0.00916723 0.0121265,-0.0139002 0.00280993,-0.00363749 0.0216115,-0.0232429 0.0262165,-0.0327113 0.000727972,-0.00149388 -0.00314664,-0.00320592 -0.00820688,-0.0027293 -0.00458125,0.000431567 -0.0103908,0.0030186 -0.0099948,0.0025728 0.00178792,-0.00200133 0.00517643,-0.00345016 0.00796976,-0.0041971 0.00478992,-0.00128047 0.00954663,-1.42275e-005 0.0100043,-0.000334346 0.0115527,-0.000218155 -0.00138006,0.00841318 -0.00725838,0.0178744 -0.00600399,0.00966045 -0.0111283,0.0144053 -0.0215878,0.0255834 -0.0028123,0.00300674 -0.00599925,0.005608 -0.0092692,0.00784171z"/>
     <path id="_359962936" class="fil11" d="M0.255523 0.354136c-0.0020701,0.00906053 0.00499859,0.00947787 0.0106327,0.00765675 0.00563408,-0.00182112 0.0213246,-0.00651855 0.0317842,-0.0176966 0.0104596,-0.0111781 0.0148464,-0.0185645 0.0211729,-0.025792 0.00632648,-0.00722993 0.0199967,-0.0219198 0.0126387,-0.0261122 -0.00260126,0.00814523 -0.00973396,0.012257 -0.0141469,0.0183416 -0.00441526,0.00608224 -0.00950632,0.0166936 -0.0199659,0.027874 -0.0104572,0.0111781 -0.0270109,0.0170706 -0.0319193,0.018657 -0.00490848,0.00158636 -0.00903445,0.000576213 -0.0101964,-0.00292849z"/>
    </g>
   </g>
   <g>
    <path id="_359963152" class="fil7" d="M1.50141 0.146505c-0.0198426,-0.0167031 -0.0493717,-0.032211 -0.0763019,-0.0351798 -0.0269302,-0.0029688 -0.071863,-0.0127431 -0.0348265,0.0114152 0.0370341,0.0241559 0.0298042,0.0234066 0.0590654,0.0310135 0.0292612,0.00760696 0.0520631,-0.0072489 0.0520631,-0.0072489z"/>
    <path id="_359963344" class="fil12" d="M1.46226 0.132043c-0.0127099,-0.0106967 -0.0316229,-0.0206298 -0.048869,-0.0225316 -0.0172484,-0.00190174 -0.0460259,-0.00815946 -0.0223063,0.00731055 0.0237196,0.0154724 0.0190885,0.014991 0.0378308,0.0198639 0.01874,0.00487291 0.0333445,-0.0046429 0.0333445,-0.0046429z"/>
    <path id="_359963536" class="fil9" d="M1.48998 0.139161c-0.0156194,-0.0131462 -0.0388623,-0.0253557 -0.0600589,-0.0276914 -0.0211966,-0.00233568 -0.0565637,-0.010028 -0.0274116,0.00898465 0.0291497,0.0190126 0.0234587,0.0184222 0.0464906,0.024412 0.0230319,0.00598739 0.0409799,-0.00570522 0.0409799,-0.00570522z"/>
   </g>
   <g>
    <path id="_359963776" class="fil13" d="M0.547091 0.357311c-0.024578,0.044947 -0.00577873,0.0692546 0.0140994,0.0805797 0.0198805,0.0113251 0.0726312,0.029145 0.118033,0.00921229 0.0453999,-0.0199327 0.051079,-0.0366025 0.0812009,-0.0647872 0.0301219,-0.0281846 0.0980913,-0.00494879 0.0586646,-0.0482643 -0.0394291,-0.0433155 -0.00817368,-0.051807 -0.0771414,-0.0489259 -0.06897,0.00288106 -0.0735726,-0.000192071 -0.088272,0.00957035 -0.0146994,0.00976479 -0.0437376,0.0249621 -0.0663427,0.0379304 -0.0226051,0.0129683 -0.0402424,0.0246847 -0.0402424,0.0246847z"/>
    <path id="_359963968" class="fil14" d="M0.536902 0.390034c-0.0169639,0.0379518 0.00304468,0.0646757 0.0215973,0.0752444 0.0185503,0.010571 0.0697644,0.0418715 0.113632,0.0226098 0.043868,-0.0192593 0.0655294,-0.0407878 0.092628,-0.0547663 0.0270986,-0.0139761 0.0845278,-0.0395476 0.0682492,-0.0861165 -0.0173978,0.031547 -0.0430689,0.0271768 -0.0632316,0.0421133 -0.0201651,0.0149365 -0.0477687,0.0500949 -0.0916392,0.0693566 -0.043868,0.0192593 -0.099028,-0.00909135 -0.115188,-0.0182965 -0.0161624,-0.00920755 -0.0269113,-0.028628 -0.0260481,-0.0501447z"/>
    <path id="_359964160" class="fil15" d="M0.550162 0.418449c0.00366595,0.00355687 0.00776109,0.00648298 0.0119037,0.00884475 0.0198782,0.0113251 0.0738121,0.0388695 0.119212,0.0189368 0.0454022,-0.0199351 0.0667268,-0.0259225 0.0968488,-0.0541047 0.0230414,-0.0215594 0.0583706,-0.0249716 0.0560728,-0.0447667l-0.00151048 -0.00169307c-0.0152922,-0.0168003 -0.0199493,-0.0283554 -0.0239496,-0.0360477 -0.00174049,-0.00245187 -0.00325098,-0.00475435 -0.00456465,-0.00690744 -0.0058712,-0.00615812 -0.0161079,-0.00732952 -0.0486271,-0.0059708 -0.06897,0.00288106 -0.0735726,-0.000192071 -0.088272,0.00957035 -0.0146994,0.00976479 -0.0437376,0.0249621 -0.0663427,0.0379304 -0.0226051,0.0129683 -0.0402424,0.0246847 -0.0402424,0.0246847 -0.0112658,0.020599 -0.0134141,0.0368563 -0.0105283,0.0495235z"/>
    <path id="_359964352" class="fil16" d="M0.643625 0.453247c0.0317202,-0.0165869 0.0369084,-0.016741 0.0538107,-0.0279688 0.0129921,-0.00862659 0.0939962,-0.0419426 0.119677,-0.0741702 0.00405483,-0.00508869 -0.00543964,-0.0279072 -0.0212345,-0.0437092 -0.014301,-0.0143081 -0.0349854,-0.0219269 -0.0332377,-0.02279 0.00787728,-0.00387462 0.0198663,0.000870247 0.02919,0.00710188 0.0159869,0.0106896 0.0286897,0.0343807 0.030461,0.0343807 0.0349664,0.0405696 -0.0146685,0.0384331 -0.0441644,0.0660344 -0.0301219,0.0281823 -0.0514465,0.0341696 -0.0968488,0.0541047 -0.0122119,0.00536139 -0.025038,0.00728447 -0.037653,0.00701652z"/>
   </g>
   <g>
    <path id="_359964592" class="fil17" d="M0.913349 2.00779c0.0166295,-0.00876412 0.0204259,-0.0122356 0.0301907,-0.0143389 0.00976242,-0.00210329 0.0062838,-0.0042635 -0.0248886,-0.0232904 -0.0311748,-0.0190269 -0.038298,-0.0390402 -0.0960117,-0.0518876 -0.0577137,-0.012845 -0.14222,-0.0246349 -0.168631,-0.0310088 -0.0264109,-0.00637628 -0.0263303,-0.00181163 -0.0516481,-0.00480414 -0.0253202,-0.00299014 -0.0513659,-0.00607513 -0.0487433,0.0120483 0.0026226,0.0181234 0.0122475,0.0253628 0.0122475,0.0253628 0,0 0.247316,0.0187708 0.303503,0.0636703 0.056189,0.0448995 0.0439819,0.0242484 0.0439819,0.0242484z"/>
    <g>
     <path id="_359964856" class="fil18" d="M0.855541 2.0485c0.0408494,-0.0117922 0.0288415,-0.0315447 0.0114294,-0.0453856 -0.0174121,-0.0138386 -0.0676232,-0.0445628 -0.122401,-0.0537158 -0.0547805,-0.00915064 -0.0662787,-0.00334346 -0.107524,-0.00208195 -0.0412478,0.0012615 -0.105857,-0.0384616 -0.0781586,-0.000789625 0.0276985,0.037672 -0.00829936,0.0288059 0.0659325,0.0561416 0.0742342,0.0273357 0.0781159,0.0307622 0.0969365,0.0321019 0.0188206,0.00133975 0.0546572,0.00599214 0.0829296,0.00905579 0.0282724,0.00306602 0.0508561,0.00467372 0.0508561,0.00467372z"/>
     <path id="_359965048" class="fil19" d="M0.78441 1.96122c-0.0391445,-0.00508869 -0.0447098,-0.00717776 -0.0663498,-0.00871907 -0.0166343,-0.00118325 -0.11363,-0.0186143 -0.151482,-0.0135185 -0.00597791,0.000806223 -0.00336954,0.015949 0.00823534,0.0302808 0.0105046,0.0129755 0.0299868,0.0253344 0.0278479,0.0250261 -0.00964148,-0.00138244 -0.0208243,-0.00870484 -0.0286897,-0.0156478 -0.0134829,-0.0119037 -0.0192166,-0.0288154 -0.0210993,-0.0295528 -0.0238571,-0.0344661 0.028187,-0.0127288 0.0685764,-0.0139666 0.0412454,-0.0012615 0.0658708,0.00469032 0.120649,0.0138433 0.0147349,0.00246135 0.0289932,0.00686476 0.0423125,0.0122546z"/>
     <path id="_359965240" class="fil20" d="M0.886144 2.03496c0.0315328,-0.0119392 0.0185929,-0.0341293 0.00177843,-0.047496 -0.0168169,-0.0133643 -0.0625179,-0.0513398 -0.117298,-0.0604928 -0.0547781,-0.00915064 -0.0859031,-0.00757139 -0.120447,-0.0121692 -0.0345419,-0.00459784 -0.106374,-0.0163972 -0.104271,0.0142559 0.029835,-0.00850329 0.0565827,0.00478992 0.0838259,0.00590914 0.0272409,0.00111923 0.0695297,-0.00481363 0.124308,0.00433938 0.0547781,0.00915064 0.105822,0.0473324 0.120471,0.0589752 0.0146496,0.0116428 0.0198829,0.0261335 0.0116333,0.0366784z"/>
    </g>
   </g>
   <g>
    <path id="_359965456" class="fil14" d="M1.78859 1.59135c0.0195225,-0.0436736 -0.00350233,-0.0744239 -0.0248507,-0.086586 -0.021346,-0.0121621 -0.0802785,-0.0481813 -0.130758,-0.0260173 -0.0504814,0.022164 -0.0754056,0.0469364 -0.106587,0.0630206 -0.0311842,0.0160842 -0.0972685,0.0455089 -0.0785356,0.0990967 0.0200204,-0.0363038 0.049559,-0.031272 0.0727617,-0.0484611 0.0232026,-0.0171868 0.0549678,-0.057645 0.105449,-0.079809 0.0504791,-0.022164 0.113953,0.0104619 0.132548,0.0210543 0.0185977,0.0105947 0.0309661,0.0329413 0.0299725,0.0577019z"/>
    <path id="_359965648" class="fil21" d="M1.77333 1.55866c-0.00421845,-0.00409514 -0.00893011,-0.00745994 -0.0136963,-0.0101774 -0.0228778,-0.0130324 -0.084938,-0.0447288 -0.137181,-0.0217917 -0.0522433,0.0229394 -0.0767833,0.0298279 -0.111444,0.0622594 -0.0265129,0.024808 -0.0671679,0.0287348 -0.064524,0.0515129l0.00174049 0.00194679c0.0175946,0.0193328 0.022956,0.0326307 0.0275562,0.0414826 0.0020037,0.00282178 0.00374183,0.00546809 0.00525468,0.00794604 0.00675568,0.00708765 0.0185337,0.00843452 0.0559566,0.00687187 0.0793632,-0.003315 0.0846582,0.000222897 0.101575,-0.0110121 0.0169141,-0.011235 0.0503273,-0.0287229 0.0763375,-0.0436475 0.0260126,-0.0149222 0.0463104,-0.0284051 0.0463104,-0.0284051 0.0129612,-0.023703 0.0154344,-0.0424097 0.0121147,-0.0569858z"/>
    <path id="_359965840" class="fil16" d="M1.66579 1.51862c-0.0365006,0.0190838 -0.0424737,0.0192616 -0.0619227,0.0321802 -0.0149483,0.00993078 -0.108162,0.0482667 -0.137712,0.0853506 -0.00466424,0.0058546 0.00626009,0.0321114 0.0244357,0.0502941 0.0164564,0.0164659 0.040259,0.0252348 0.0382458,0.026226 -0.0090629,0.00446031 -0.0228588,-0.00100067 -0.0335887,-0.00817131 -0.0183961,-0.0122997 -0.0330149,-0.0395619 -0.0350517,-0.0395619 -0.0402377,-0.0466827 0.0168785,-0.0442261 0.0508205,-0.0759866 0.0346605,-0.0324315 0.0592005,-0.03932 0.111444,-0.0622594 0.014052,-0.00616761 0.0288106,-0.00838235 0.0433298,-0.00807172z"/>
   </g>
  </g>
 </g>
</svg>
