<?xml version="1.0" encoding="UTF-8"?>
<!DOCTYPE svg PUBLIC "-//W3C//DTD SVG 1.1//EN" "http://www.w3.org/Graphics/SVG/1.1/DTD/svg11.dtd">
<!-- Creator: CorelDRAW -->
<svg xmlns="http://www.w3.org/2000/svg" xml:space="preserve" width="3.21092in" height="3.17123in" style="shape-rendering:geometricPrecision; text-rendering:geometricPrecision; image-rendering:optimizeQuality; fill-rule:evenodd; clip-rule:evenodd"
viewBox="0 0 0.257006 0.25383"
 xmlns:xlink="http://www.w3.org/1999/xlink">
 <defs>
  <style type="text/css">
   <![CDATA[
    .str0 {stroke:gray;stroke-width:0.000240124}
    .fil2 {fill:url(#id0)}
    .fil4 {fill:url(#id1)}
    .fil3 {fill:url(#id2)}
    .fil0 {fill:url(#id3)}
    .fil1 {fill:url(#id4)}
   ]]>
  </style>
  <linearGradient id="id0" gradientUnits="userSpaceOnUse" x1="0.0231143" y1="0.237766" x2="0.126404" y2="0.123804">
   <stop offset="0" style="stop-color:#FFCC41"/>
   <stop offset="1" style="stop-color:yellow"/>
  </linearGradient>
  <linearGradient id="id1" gradientUnits="userSpaceOnUse" x1="0.0281024" y1="0.219213" x2="0.0518432" y2="0.191768">
   <stop offset="0" style="stop-color:red"/>
   <stop offset="1" style="stop-color:#FF6600"/>
  </linearGradient>
  <linearGradient id="id2" gradientUnits="userSpaceOnUse" x1="0.00325145" y1="0.209039" x2="0.0801952" y2="0.141975">
   <stop offset="0" style="stop-color:#FF6600"/>
   <stop offset="1" style="stop-color:#FEBA00"/>
  </linearGradient>
  <radialGradient id="id3" gradientUnits="userSpaceOnUse" cx="0.123297" cy="0.130533" r="0.1712" fx="0.123297" fy="0.130533">
   <stop offset="0" style="stop-color:black"/>
   <stop offset="0.701961" style="stop-color:gray"/>
   <stop offset="1" style="stop-color:white"/>
  </radialGradient>
  <radialGradient id="id4" gradientUnits="userSpaceOnUse" cx="0.123297" cy="0.130533" r="0.1712" fx="0.123297" fy="0.130533">
   <stop offset="0" style="stop-color:#CC3399"/>
   <stop offset="1" style="stop-color:#000066"/>
  </radialGradient>
 </defs>
 <g id="Layer_x0020_1">
  <metadata id="CorelCorpID_0Corel-Layer"/>
  <g id="_356458392">
   <circle id="_356471840" class="fil0 str0" cx="0.123297" cy="0.130533" r="0.123177"/>
   <circle id="_356472032" class="fil1" cx="0.123297" cy="0.130533" r="0.117237"/>
  </g>
  <g id="_350343296">
   <path id="_359966056" class="fil2" d="M0.123908 0.179463l-0.0152993 0.0201556c0,0 -0.0429488,0.0713043 -0.0850746,0.0376853 -0.042127,-0.0336193 -0.00584428,-0.0685744 0.014697,-0.0822867 0.0205407,-0.0137123 0.0387385,-0.0372536 0.0446949,-0.0487811 0.00595615,-0.0115279 -0.00724375,0.015316 -0.00844468,0.0270011 -0.00120188,0.0116854 0.0441353,-0.0424147 0.0509363,-0.0566419 0.00680005,-0.0142278 -0.0212923,0.0380086 -0.011422,0.0361897 0.00987062,-0.00181889 0.0466651,-0.0573654 0.0595921,-0.0673255 0.0129279,-0.00995917 -0.0248809,0.0324914 -0.00486362,0.0188201 0.020017,-0.0136713 0.0882825,-0.0642799 0.0882825,-0.0642799 0,0 -0.104547,0.0855649 -0.0884728,0.0822104 0.0160745,-0.00335386 0.0703321,-0.030746 0.0703321,-0.030746 0,0 -0.109555,0.0685643 -0.0874386,0.0615802 0.0221166,-0.00698408 0.0530205,-0.00938028 0.0530205,-0.00938028 0,0 -0.0890665,0.0337794 -0.0743194,0.0336895 0.0147468,-8.918e-005 0.040615,0.000539492 0.040615,0.000539492 0,0 -0.0435517,0.00917293 -0.0503517,0.0234004 -0.00680131,0.0142272 0.00905854,-0.0122955 0.0358929,-0.012795 0.0268347,-0.000499471 -0.0100625,-0.00357035 -0.0323767,0.0309644z"/>
   <path id="_359966248" class="fil3" d="M0.094533 0.19281l-0.0107823 0.0142055c0,0 -0.0302698,0.0502547 -0.0599605,0.0265608 -0.0296906,-0.0236948 -0.00411898,-0.0483315 0.0103584,-0.0579953 0.0144774,-0.00966421 0.0273026,-0.0262564 0.0315007,-0.0343812 0.00419808,-0.0081242 -0.00510469,0.0107949 -0.00595205,0.0190309 -0.000846737,0.00823576 0.0311068,-0.0298942 0.0358995,-0.0399208 0.00479271,-0.0100282 -0.0150065,0.026788 -0.0080492,0.0255058 0.00695635,-0.00128255 0.0328885,-0.0404304 0.042,-0.0474501 0.00911148,-0.00702001 -0.017536,0.0228994 -0.00342791,0.0132642 0.0141075,-0.00963553 0.0622205,-0.0453044 0.0622205,-0.0453044 0,0 -0.0736847,0.0603049 -0.0623551,0.0579415 0.0113296,-0.00236406 0.0495699,-0.0216695 0.0495699,-0.0216695 0,0 -0.0772138,0.0483236 -0.0616262,0.0434013 0.0155876,-0.00492223 0.0373677,-0.00661161 0.0373677,-0.00661161 0,0 -0.0627733,0.0238076 -0.0523802,0.0237446 0.0103937,-6.33398e-005 0.0286258,0.000380039 0.0286258,0.000380039 0,0 -0.0306943,0.00646476 -0.0354873,0.0164923 -0.00479271,0.0100279 0.00638409,-0.00866527 0.0252972,-0.00901789 0.0189128,-0.000351678 -0.0120361,0.00761874 -0.022819,0.0218239z"/>
   <path id="_359966440" class="fil4" d="M0.0594342 0.16675c1.10293e-005,0.000885812 0.00913921,0.00589029 -0.0123544,0.0153714 -0.0667192,0.0294307 -0.0123699,0.0621247 0.0104334,0.0472084 0.0130253,-0.00852094 0.0291757,-0.0340258 0.0301227,-0.0460115 -0.00718135,0.015639 -0.0227169,0.0446527 -0.0405668,0.0456923 -0.0353112,0.00205744 -0.0338786,-0.0306694 -0.00905382,-0.038372 0.0087346,-0.00270943 0.0307419,-0.0177207 0.021419,-0.0238886z"/>
  </g>
 </g>
</svg>
