<?xml version="1.0" encoding="iso-8859-1"?>
<!-- Generator: Adobe Illustrator 9.0, SVG Export Plug-In  -->
<!DOCTYPE svg PUBLIC "-//W3C//DTD SVG 20000303 Stylable//EN"   "http://www.w3.org/TR/2000/03/WD-SVG-20000303/DTD/svg-20000303-stylable.dtd" [
	<!ENTITY st0 "fill:url(#aigrd3);">
	<!ENTITY st1 "opacity:0.1;fill:#0000CF;">
	<!ENTITY st2 "fill-rule:nonzero;clip-rule:nonzero;stroke:#FFFFFF;stroke-width:0;stroke-miterlimit:4;">
	<!ENTITY st3 "fill:url(#aigrd17);">
	<!ENTITY st4 "fill:url(#aigrd18);">
	<!ENTITY st5 "fill:url(#aigrd19);">
	<!ENTITY st6 "fill:url(#aigrd20);">
	<!ENTITY st7 "fill:url(#aigrd21);">
	<!ENTITY st8 "fill:url(#aigrd22);">
	<!ENTITY st9 "fill:url(#aigrd23);">
	<!ENTITY st10 "fill:url(#aigrd24);">
	<!ENTITY st11 "fill:url(#aigrd25);">
	<!ENTITY st12 "fill:url(#aigrd26);">
	<!ENTITY st13 "fill:url(#aigrd27);">
	<!ENTITY st14 "fill:url(#aigrd28);">
	<!ENTITY st15 "fill:url(#aigrd29);">
	<!ENTITY st16 "fill:url(#aigrd30);">
	<!ENTITY st17 "fill:url(#aigrd31);">
	<!ENTITY st18 "fill:url(#aigrd32);">
	<!ENTITY st19 "fill:url(#aigrd33);">
	<!ENTITY st20 "fill:url(#aigrd34);">
	<!ENTITY st21 "fill:url(#aigrd35);">
	<!ENTITY st22 "fill:url(#aigrd36);">
	<!ENTITY st23 "fill:url(#aigrd37);">
	<!ENTITY st24 "fill:url(#aigrd38);">
	<!ENTITY st25 "fill:url(#aigrd39);">
	<!ENTITY st26 "opacity:0.2;">
	<!ENTITY st27 "fill:none;">
	<!ENTITY st28 "fill-rule:evenodd;clip-rule:evenodd;fill:url(#aigrd1);">
	<!ENTITY st29 "fill-rule:evenodd;clip-rule:evenodd;fill:url(#aigrd2);">
	<!ENTITY st30 "fill-rule:evenodd;clip-rule:evenodd;fill:url(#aigrd4);">
	<!ENTITY st31 "fill-rule:evenodd;clip-rule:evenodd;fill:url(#aigrd5);">
	<!ENTITY st32 "fill-rule:evenodd;clip-rule:evenodd;fill:url(#aigrd6);">
	<!ENTITY st33 "fill-rule:evenodd;clip-rule:evenodd;fill:url(#aigrd7);">
	<!ENTITY st34 "fill-rule:evenodd;clip-rule:evenodd;fill:url(#aigrd8);">
	<!ENTITY st35 "fill-rule:evenodd;clip-rule:evenodd;fill:url(#aigrd9);">
	<!ENTITY st36 "fill-rule:evenodd;clip-rule:evenodd;fill:url(#aigrd10);">
	<!ENTITY st37 "fill-rule:evenodd;clip-rule:evenodd;fill:url(#aigrd11);">
	<!ENTITY st38 "fill-rule:evenodd;clip-rule:evenodd;fill:url(#aigrd12);">
	<!ENTITY st39 "fill-rule:evenodd;clip-rule:evenodd;fill:url(#aigrd13);">
	<!ENTITY st40 "fill-rule:evenodd;clip-rule:evenodd;fill:url(#aigrd14);">
	<!ENTITY st41 "fill-rule:evenodd;clip-rule:evenodd;fill:url(#aigrd15);">
	<!ENTITY st42 "fill-rule:evenodd;clip-rule:evenodd;fill:url(#aigrd16);">
	<!ENTITY st43 "fill:none;stroke:none;">
	<!ENTITY st44 "stroke:none;">
]>
<svg  width="144pt" height="144pt" viewBox="0 0 144 144" xml:space="preserve">
	<g id="Layer_x0020_2" style="&st2;">
		<path style="&st43;" d="M144,144H0V0h144v144z"/>
		<g style="&st44;">
			<path style="&st26;" d="M142.206,125.076l-6.779-6.777l1.724-1.723c0.438-0.439,0.521-1.121,0.198-1.648l-12.145-20.006c1.35-2.393,2.521-4.91,3.488-7.537c0.065-0.176,0.054-0.373-0.031-0.539c-0.087-0.168-0.237-0.291-0.42-0.342l-6.338-1.744
				c-0.034-0.01-0.067-0.006-0.102-0.01c1.771-4.832,2.739-10.049,2.739-15.49c0-24.561-19.973-44.716-44.599-44.716c-5.521,0-10.817,1.036-15.716,2.909c0.021-0.091,0.029-0.185,0.008-0.281l-1.416-6.458c-0.041-0.189-0.162-0.353-0.331-0.446
				c-0.171-0.092-0.372-0.108-0.554-0.043c-2.619,0.947-5.128,2.094-7.514,3.416c-0.033-0.025-0.061-0.057-0.096-0.078L34.496,10.56c-0.533-0.349-1.237-0.276-1.688,0.174l-2.474,2.473l-6.988-6.989c-0.126-0.126-0.297-0.197-0.476-0.197
				c-0.178,0-0.35,0.071-0.475,0.197l-5.028,5.028c-0.263,0.263-0.263,0.688,0,0.951l6.989,6.988l-1.936,1.936c-0.438,0.438-0.52,1.117-0.199,1.647L34.57,43.105c0.001,0.001,0.002,0.002,0.002,0.002c-2.059,3.534-3.705,7.314-4.895,11.268l-22.74,4.729
				c-0.623,0.13-1.07,0.68-1.07,1.316v14.689c0,0.619,0.424,1.158,1.025,1.305l22.088,5.4c1.132,4.598,2.874,8.959,5.137,12.99l-12.787,19.5c-0.348,0.533-0.275,1.238,0.174,1.689l10.388,10.385c0.438,0.439,1.118,0.52,1.647,0.199l19.934-12.1
				c3.765,2.193,7.826,3.93,12.11,5.133l4.628,22.252c0.129,0.625,0.68,1.072,1.316,1.072h14.688c0.619,0,1.157-0.426,1.304-1.025l5.398-22.08c4.54-1.199,8.873-3,12.893-5.328l19.267,12.633c0.532,0.35,1.236,0.277,1.688-0.174l2.684-2.684l6.778,6.777
				c0.265,0.264,0.688,0.264,0.951,0l5.028-5.027c0.262-0.262,0.262-0.688,0-0.951z M35.463,66.205c0.013-0.162,0.025-0.325,0.038-0.487c-0.013,0.162-0.026,0.324-0.038,0.487z M35.354,68.992c0.004-0.534,0.017-1.068,0.041-1.6c-0.022,0.531-0.039,1.064-0.041,1.6z
				"/>
			<g>
				<g>
					<radialGradient id="aigrd1" cx="71.7549" cy="-65.269" r="81.756" fx="71.7549" fy="-65.269" gradientTransform="matrix(1.0203 0 0 0.9713 -32.3161 104.4569)" gradientUnits="userSpaceOnUse">
						<stop  offset="0" style="stop-color:#FFFFFF"/>
						<stop  offset="0.1685" style="stop-color:#D4FFFF"/>
						<stop  offset="0.7921" style="stop-color:#51A8FF"/>
					</radialGradient>
					<path style="&st28;" d="M74.877,109.07c24.625,0,44.598-20.152,44.598-44.876c0-24.562-19.973-44.716-44.598-44.716c-24.453,0-44.597,20.154-44.597,44.716c0,24.724,20.144,44.876,44.597,44.876z"/>
					<radialGradient id="aigrd2" cx="103.0068" cy="-11.7397" r="57.6951" fx="103.0068" fy="-11.7397" gradientTransform="matrix(1.0203 0 0 0.9713 -32.3161 104.4569)" gradientUnits="userSpaceOnUse">
						<stop  offset="0" style="stop-color:#FFFFFF"/>
						<stop  offset="0.3034" style="stop-color:#CCF0FF"/>
						<stop  offset="1" style="stop-color:#1D6CE9"/>
					</radialGradient>
					<path style="&st29;" d="M74.877,106.873c23.416,0,42.411-19.162,42.411-42.672c0-23.36-18.995-42.527-42.411-42.527c-23.251,0-42.41,19.167-42.41,42.527c0,23.51,19.159,42.672,42.41,42.672z"/>
					<path style="&st1;" d="M52.627,64.953c-0.389-0.37-0.131-1.984-0.131-1.984s-5.815-3.096-12.148-4.956c-0.783-0.231-0.388-1.859,0.386-2.479l-0.259-1.738c-0.127-0.865,1.295-5.08,2.716-5.451c1.421-0.372-0.13,2.479-0.13,2.479l-1.422,0.868
						c0,0,1.682,1.982,2.069,1.982c0.386,0,1.034-0.994,1.034-0.994l-1.809-1.234l1.678-0.748l0.105-0.652l0.284-0.092l2.78-4.266c1.923-0.799,4.285-1.785,4.586-1.932c0.518-0.245,4.136-2.353,4.783-2.848c0.646-0.497,2.068-0.373,2.583-0.373
						c0.519,0,1.293-0.247,1.423-1.613c0.13-1.361,0.646-1.611,1.035-1.238c0.387,0.371-0.389,0.99,0.516,1.238c0.906,0.25,1.679,0.871,2.326,0.25c0.474-0.455-0.158-0.973-0.584-1.363h7.176l0.775-2.234l-1.679-0.246l-6.206-0.619v-0.744l-0.494,0.084
						c0.672-3.74,4.662-3.123,1.659-5.289c-0.185-0.131-2.812,4.195-3.479,4.111c-1.212-0.16-2.779-0.174-3.114,0.226c-0.438,0.526,0.993-1.813,2.228-2.522c-1.969,0.587-8.189,2.742-14.764,9.837c-6.286,6.781-8.791,15.917-8.791,16.237
						c0,0.619,1.295,0.868,1.424,1.613c0.129,0.74-2.455,3.221-2.455,4.459c0,0.572-0.609,8.211,1.549,14.504c2.523,7.346,7.906,13.479,8.532,13.883l1.292-0.619c0,0-2.972-5.332-3.101-5.828c-0.13-0.496,3.36-7.684,5.04-7.436s1.292,0.744,2.326,0.123
						c1.033-0.617,1.68-5.704,2.842-6.195c1.166-0.497,2.458-1.115,2.33-2.356c-0.131-1.241-4.525-3.47-4.912-3.843z M61.932,30.371c-0.191,0-0.402,0.078-0.617,0.203c0.506-0.151,0.745-0.203,0.617-0.203z M74.471,32.849l0.125-1.859l-1.936,0.125l0.259,1.734
						h1.552z M80.673,28.512l-3.489-1.242l0.647,1.986l2.842-0.744z M67.619,33.097c0.389,0,8.144-5.205,7.366-5.329c-0.773-0.123-0.904,0-2.972-0.249c-2.068-0.249-4.268,2.977-4.783,3.471c-0.516,0.498-0.344,2.107,0.389,2.107z M88.695,79.313
						c0,0-0.877,0.236,0.123,0.596c1.001,0.359,5.004-5.852,5.004-5.852l-3.378,2.148l-1.749,3.107z M112.838,60.317l-0.653-1.281c-0.773-4.419-2.547-10.077-6.351-15.923c-5.723-8.785-21.645-13.855-21.645-13.855l-0.875,1.072l-0.501-0.832l-1.25-0.48v1.076
						l1.126,0.956l-0.75,0.358l-2.88,0.237l-6.504,3.585l0.624,2.868l-0.752,0.24l-0.373,0.594l2.127,3.226l0.123,1.076l-1.749,0.358v2.149l-1,0.238l0.126,1.672l-8.51,5.977l0.25,3.342c0.626,0.838,5.507,5.856,5.507,5.856s5.627,0.234,6.88-0.479
						c1.251-0.718,0.374,0.713,0.75,1.073s0.501,2.866,0.875,3.108c0.374,0.239,0,1.669,0.5,2.149c0.501,0.477,0.501,6.213,0.501,6.213s3.004,5.137,3.004,6.451s-0.127,1.195,2.252,1.074c2.377-0.119,2.875-1.074,3.376-1.432c0.503-0.359,0.503-1.195,1.004-1.912
						c0.5-0.717,1.373-3.465,2.499-4.42c1.128-0.957,4.128-1.676,4.379-3.346c0.25-1.674,1.376-2.99,1.376-2.99l5.41-5.793l-0.154,0.779l-0.127,2.983l1.627-0.595l-0.123-3.227l-0.586-0.629l0.083-0.088c0,0-0.374-0.716-0.874-0.716
						c-0.499,0-3.503,0.716-4.004,0.597c-0.5-0.119-2.628-5.854-3.004-6.092c-0.374-0.238-2.75-4.182-2.75-4.182s5.503,6.691,6.38,9.317c0.508,1.53,2.416,0.106,3.972-1.489l0.407,1.014l1.001-0.24l-0.124-1.195h1.126v1.793l-0.376,0.955l-0.129,1.55l1.003,0.96
						l0.501-0.836l1.625-1.555l1.878-0.956l0.5,0.956l0.252,1.315l-0.503,1.432l-1.001,0.837l-0.501,2.152v1.072l-1.126-0.717l-0.123-2.267l-1.626,0.119l-0.75,2.028l1.124,1.674l2.628,0.357l2.127-2.031l0.249-3.939l0.946-1.264
						c0.617,1.603,1.057,3.283,1.057,4.848c0,1.715,0.773-1.189,0.117-6.42l0.382-0.511z M81.312,48.133l-6.754-0.24l2.876-2.389h1.502l2.376,1.67v0.959z M89.57,47.297v1.074h-2.878l0.252,0.717l-1.756,0.241l-0.12,0.595l-1.253-0.237l-2.252-0.479l0.376-0.594
						l0.374-0.721l1.25-1.313l0.501,0.954l1.878-0.118l1.002-1.076l3.874,0.715l-1.248,0.242z M89.819,45.742l-1.502,0.238l-0.247-1.074l1.871-0.238l0.254-1.075l1.377,1.435l-1.753,0.715z M103.204,70.473l1.004-1.316l-1.004-0.356l-0.75,0.956l-0.874,1.313
						l0.75,0.358l0.874-0.954z M97.076,82.895l-0.877,0.719l0.125,1.793h1.128v-1.555l0.999-1.313v-2.748l-0.625-0.125l-0.75,3.229z M107.586,74.773l-0.254-1.91h-1.622l-0.127,1.43l-1.504-0.236l-0.372-1.555l-0.75-0.475l-0.877,1.074l-0.874-0.238l-0.252,0.834
						l1.002,0.24v7.766l3.542,0.863c-0.083,0.145-0.145,0.264-0.166,0.328c-0.25,0.838,1.001,1.197,1.876,0.838c0.324-0.133,1.354-1.184,2-2.746c0.902-2.17,1.69-5.037,1.849-6.051l0.405-0.879l-2.503,0.955l-1.373-0.238z"/>
					<radialGradient id="aigrd3" cx="66.0166" cy="39.6133" r="47.6854" fx="66.0166" fy="39.6133" gradientUnits="userSpaceOnUse">
						<stop  offset="0.2978" style="stop-color:#68C0FF"/>
						<stop  offset="0.4282" style="stop-color:#65BCFE"/>
						<stop  offset="0.5458" style="stop-color:#5DB1FA"/>
						<stop  offset="0.6585" style="stop-color:#509FF3"/>
						<stop  offset="0.7681" style="stop-color:#3D85EA"/>
						<stop  offset="0.8756" style="stop-color:#2464DE"/>
						<stop  offset="0.98" style="stop-color:#063CCF"/>
						<stop  offset="1" style="stop-color:#0033CC"/>
					</radialGradient>
					<path style="&st0;" d="M60.789,26.361c-0.211,0-0.439,0.086-0.674,0.221c0.552-0.163,0.812-0.221,0.674-0.221z M74.443,29.037l0.139-2.007l-2.109,0.134l0.281,1.873h1.689z M50.653,63.717c-0.423-0.4-0.14-2.145-0.14-2.145s-6.336-3.344-13.234-5.354
						c-0.851-0.25-0.42-2.008,0.42-2.676l-0.279-1.879c-0.141-0.936,1.408-5.486,2.957-5.887c1.549-0.404-0.142,2.676-0.142,2.676l-1.549,0.938c0,0,1.831,2.142,2.254,2.142s1.126-1.073,1.126-1.073l-1.972-1.335l1.831-0.806l0.115-0.707l0.307-0.096l3.029-4.609
						c2.093-0.861,4.668-1.929,4.995-2.086c0.562-0.266,4.505-2.54,5.208-3.076c0.705-0.537,2.251-0.402,2.813-0.402c0.566,0,1.41-0.269,1.551-1.743c0.142-1.472,0.705-1.741,1.127-1.339c0.421,0.402-0.424,1.071,0.563,1.339c0.986,0.271,1.828,0.938,2.533,0.271
						c0.516-0.492-0.174-1.05-0.638-1.473h7.815l0.848-2.414l-1.83-0.267l-6.76-0.668v-0.804l-0.539,0.091c0.732-4.039,5.08-3.373,1.809-5.712c-0.2-0.144-3.062,4.531-3.791,4.441c-1.318-0.176-3.025-0.189-3.389,0.242c-0.479,0.568,1.08-1.959,2.424-2.725
						c-2.145,0.635-8.917,2.963-16.078,10.625c-6.846,7.325-9.573,17.193-9.573,17.539c0,0.668,1.407,0.937,1.549,1.742c0.141,0.799-2.674,3.479-2.674,4.816c0,0.619-0.664,8.87,1.688,15.668c2.747,7.934,8.609,14.559,9.293,14.994l1.405-0.668
						c0,0-3.237-5.758-3.377-6.295c-0.141-0.535,3.66-8.301,5.49-8.031c1.828,0.264,1.406,0.803,2.534,0.133c1.126-0.668,1.829-6.16,3.095-6.692c1.268-0.538,2.676-1.208,2.537-2.546c-0.143-1.342-4.928-3.748-5.351-4.15z M81.199,24.354l-3.8-1.342l0.705,2.145
						l3.095-0.803z M66.982,29.307c0.423,0,8.87-5.622,8.022-5.758c-0.843-0.133-0.983,0-3.237-0.268c-2.252-0.27-4.646,3.213-5.209,3.749c-0.561,0.537-0.371,2.276,0.424,2.276z M105.739,69.676l1.093-1.42l-1.093-0.385l-0.817,1.033l-0.951,1.416l0.814,0.39
						l0.954-1.034z M110.509,74.326l-0.275-2.066h-1.768l-0.136,1.545l-1.639-0.254l-0.406-1.681l-0.816-0.514l-0.954,1.161l-0.952-0.258l-0.275,0.9l1.091,0.262v8.387l3.856,0.932c-0.089,0.156-0.156,0.285-0.178,0.355c-0.275,0.904,1.089,1.295,2.04,0.904
						c0.354-0.145,1.479-1.281,2.183-2.963c0.979-2.346,1.839-5.443,2.011-6.539l0.441-0.947l-2.725,1.033l-1.498-0.258z M116.231,58.709l-0.71-1.385c-0.846-4.771-2.774-10.884-6.917-17.197C102.371,30.636,85.03,25.16,85.03,25.16l-0.954,1.158l-0.546-0.899
						l-1.361-0.521v1.162l1.227,1.035l-0.817,0.387l-3.134,0.256l-7.087,3.872l0.681,3.097l-0.817,0.261l-0.408,0.644l2.318,3.481l0.134,1.165l-1.907,0.385v2.322l-1.088,0.258l0.137,1.807l-9.268,6.455l0.272,3.61c0.682,0.903,5.997,6.325,5.997,6.325
						s6.13,0.254,7.491-0.518c1.363-0.773,0.41,0.771,0.819,1.161c0.408,0.39,0.544,3.095,0.952,3.356c0.409,0.257,0,1.805,0.546,2.322c0.544,0.514,0.544,6.713,0.544,6.713S82.032,80,82.032,81.42s-0.137,1.291,2.454,1.164c2.588-0.131,3.133-1.164,3.675-1.547
						c0.548-0.391,0.548-1.293,1.092-2.068c0.547-0.775,1.496-3.742,2.726-4.773c1.227-1.035,4.496-1.809,4.769-3.613c0.271-1.808,1.498-3.229,1.498-3.229l5.892-6.26l-0.166,0.842l-0.139,3.223l1.771-0.642l-0.134-3.486l-0.638-0.677l0.091-0.098
						c0,0-0.407-0.771-0.951-0.771c-0.547,0-3.817,0.771-4.36,0.645c-0.546-0.13-2.863-6.324-3.272-6.58c-0.408-0.26-2.996-4.518-2.996-4.518s5.994,7.228,6.947,10.063c0.553,1.652,2.633,0.114,4.326-1.61l0.445,1.096l1.091-0.26l-0.139-1.289h1.227v1.936
						l-0.407,1.032l-0.141,1.675l1.09,1.035l0.549-0.901l1.767-1.679l2.044-1.034l0.547,1.034l0.272,1.421l-0.546,1.546L111.324,64l-0.545,2.324v1.158l-1.225-0.774l-0.137-2.45l-1.769,0.131l-0.817,2.19l1.225,1.81l2.859,0.386l2.317-2.195l0.273-4.255l1.028-1.367
						c0.673,1.732,1.15,3.549,1.15,5.238c0,1.852,0.845-1.283,0.128-6.935l0.418-0.552z M81.896,45.548l-7.355-0.261l3.131-2.58h1.637l2.588,1.805v1.036z M90.888,44.643v1.162h-3.133l0.273,0.775l-1.907,0.261l-0.137,0.644l-1.363-0.258l-2.452-0.518l0.409-0.645
						l0.41-0.777l1.359-1.418l0.546,1.033l2.044-0.129l1.091-1.163l4.221,0.774l-1.361,0.258z M91.161,42.965l-1.635,0.258l-0.273-1.162l2.043-0.256l0.274-1.162l1.5,1.551l-1.909,0.771z M99.064,83.096l-0.956,0.777l0.137,1.934h1.228v-1.674l1.09-1.422v-2.967
						l-0.683-0.133l-0.815,3.484z M89.936,79.229c0,0-0.953,0.254,0.135,0.643c1.091,0.389,5.452-6.32,5.452-6.32l-3.681,2.32l-1.906,3.357z M82.52,103.959l-0.813-0.779l-1.637-0.262l-0.271,0.783l-2.179-0.26l-0.137-1.039h-1.634l-1.771,1.039h-3.132l-0.271-0.781
						l-5.039-0.521l-0.816,0.779l-2.042-0.516l-0.272-1.822l-0.953-0.133l-1.089,1.955l-3.677-0.133c0.656,0.314,6.149,3.604,14.568,4.295c11.166,0.904,16.479-1.822,16.479-1.822l-0.409-0.391l-4.903-0.393z"/>
					<path style="&st27;" d="M39.319,49.174c-0.005-0.193-0.021-0.385-0.021-0.58c0-0.611,0.042-1.218,0.102-1.818c-1.091,1.5-1.945,4.281-1.838,4.99l0.279,1.895c-0.843,0.674-1.271,2.448-0.42,2.699c1.457,0.428,2.883,0.916,4.234,1.42
						c-1.281-2.412-2.078-4.999-2.293-7.696c-0.309-0.343-0.535-0.608-0.535-0.608l0.491-0.301z"/>
					<path d="M39.363,50.083c-0.023-0.302-0.033-0.604-0.044-0.909"/>
					<path d="M95.663,73.834"/>
					<path d="M71.908,23.148c-0.26-0.031-0.523-0.008-0.785,0.053c0.277-0.018,0.557-0.033,0.833-0.047c-0.017-0.002-0.029-0.004-0.048-0.006z"/>
					<radialGradient id="aigrd4" cx="105.8242" cy="-54.6064" r="73.3326" fx="105.8242" fy="-54.6064" gradientTransform="matrix(1.0203 0 0 0.9713 -32.3161 104.4569)" gradientUnits="userSpaceOnUse">
						<stop  offset="0" style="stop-color:#FFFFFF"/>
						<stop  offset="0.3034" style="stop-color:#CCF0FF"/>
						<stop  offset="1" style="stop-color:#1DB0FF"/>
					</radialGradient>
					<path style="&st30;" d="M39.319,49.174l1.058-0.646c0,0,1.689-3.104,0.143-2.697c-0.383,0.1-0.763,0.454-1.119,0.945c-0.06,0.601-0.102,1.207-0.102,1.818c0,0.195,0.016,0.387,0.021,0.58z"/>
					<radialGradient id="aigrd5" cx="101.376" cy="-73.4111" r="121.76" fx="101.376" fy="-73.4111" gradientTransform="matrix(1.0203 0 0 0.9713 -32.3161 104.4569)" gradientUnits="userSpaceOnUse">
						<stop  offset="0" style="stop-color:#FFFFFF"/>
						<stop  offset="0.3034" style="stop-color:#CCF0FF"/>
						<stop  offset="1" style="stop-color:#1D6CE9"/>
					</radialGradient>
					<path style="&st31;" d="M77.813,42.736l-3.133,2.601l7.357,0.263v-1.045l-2.59-1.818h-1.635z"/>
					<radialGradient id="aigrd6" cx="101.374" cy="-73.4106" r="121.7756" fx="101.374" fy="-73.4106" gradientTransform="matrix(1.0203 0 0 0.9713 -32.3161 104.4569)" gradientUnits="userSpaceOnUse">
						<stop  offset="0" style="stop-color:#FFFFFF"/>
						<stop  offset="0.3034" style="stop-color:#CCF0FF"/>
						<stop  offset="1" style="stop-color:#1D6CE9"/>
					</radialGradient>
					<path style="&st32;" d="M91.436,41.826l-2.04,0.258l0.271,1.171l1.635-0.26l1.907-0.778l-1.5-1.562l-0.273,1.171z"/>
					<radialGradient id="aigrd7" cx="71.1182" cy="33.1523" r="120.4767" fx="71.1182" fy="33.1523" gradientUnits="userSpaceOnUse">
						<stop  offset="0" style="stop-color:#FFFFFF"/>
						<stop  offset="0.3034" style="stop-color:#CCF0FF"/>
						<stop  offset="1" style="stop-color:#1D6CE9"/>
					</radialGradient>
					<path style="&st33;" d="M77.813,65.637c-0.41-0.264-0.546-2.994-0.954-3.387c-0.407-0.391,0.544-1.951-0.817-1.169c-1.363,0.778-7.492,0.522-7.492,0.522s-5.315-5.467-5.997-6.377l-0.272-3.642l9.267-6.507l-0.136-1.823l1.088-0.26v-2.34l1.906-0.39
						l-0.134-1.174l-2.317-3.512l0.409-0.648l0.816-0.262l-0.681-3.122l7.085-3.903l3.135-0.26l0.817-0.391l-1.229-1.043v-1.17l1.367,0.521l0.544,0.908l0.954-1.167c0,0,10.813,3.445,18.432,9.606c-5.498-6.098-14.478-10.395-24.881-11.352l2.618,0.932l-3.097,0.81
						l-0.598-1.833c-1.097-0.076-2.207-0.117-3.331-0.117c-0.793,0-1.577,0.025-2.36,0.064c2.206,0.263,2.354,0.131,3.191,0.265c0.848,0.137-7.6,5.804-8.024,5.804c-0.796,0-0.983-1.752-0.422-2.293c0.496-0.479,2.426-3.273,4.422-3.729
						c-14.56,0.978-26.661,8.561-30.523,18.563c1.041-1.562,2.229-3.12,3.578-4.576c7.163-7.728,13.937-10.073,16.078-10.714c0.234-0.133,0.465-0.221,0.674-0.221c0.139,0-0.121,0.058-0.674,0.221c-1.342,0.773-2.902,3.322-2.423,2.748
						c0.362-0.434,2.071-0.42,3.39-0.244c0.729,0.092,3.59-4.621,3.789-4.477c3.27,2.357-1.074,1.686-1.807,5.76l0.537-0.094v0.811l6.762,0.674l1.828,0.27l-0.845,2.434H63.67c0.463,0.427,1.153,0.988,0.638,1.484c-0.704,0.674-1.548,0-2.532-0.271
						c-0.987-0.27-0.142-0.945-0.562-1.35c-0.423-0.406-0.987-0.135-1.128,1.35c-0.143,1.488-0.985,1.757-1.549,1.757c-0.565,0-2.111-0.137-2.816,0.405c-0.703,0.539-4.645,2.834-5.207,3.102c-0.327,0.16-2.901,1.236-4.996,2.103l-3.029,4.648l-0.307,0.098
						l-0.115,0.712l-1.83,0.813l1.971,1.348c0,0-0.703,1.079-1.125,1.079c-0.275,0-1.143-0.909-1.719-1.549c0.215,2.697,1.012,5.284,2.293,7.696c5.051,1.88,8.998,3.979,8.998,3.979s-0.282,1.757,0.141,2.161c0.422,0.405,5.209,2.831,5.35,4.186
						c0.086,0.819-0.404,1.386-1.081,1.83c5.54,2.687,12.164,4.259,19.253,4.259c1.554,0,3.079-0.084,4.581-0.227c-0.021-1.686-0.114-5.585-0.54-5.99c-0.544-0.521-0.135-2.08-0.544-2.34z M74.725,26.93l-0.139,2.021h-1.691l-0.279-1.888l2.109-0.134z"/>
					<radialGradient id="aigrd8" cx="101.374" cy="-73.4126" r="121.7766" fx="101.374" fy="-73.4126" gradientTransform="matrix(1.0203 0 0 0.9713 -32.3161 104.4569)" gradientUnits="userSpaceOnUse">
						<stop  offset="0" style="stop-color:#FFFFFF"/>
						<stop  offset="0.3034" style="stop-color:#CCF0FF"/>
						<stop  offset="1" style="stop-color:#1D6CE9"/>
					</radialGradient>
					<path style="&st34;" d="M87.08,44.818l-2.044,0.129l-0.546-1.041l-1.361,1.431l-0.41,0.784l-0.411,0.648l2.455,0.522l1.364,0.259l0.132-0.648l1.91-0.262l-0.271-0.783h3.133v-1.17l1.361-0.264l-4.223-0.777l-1.089,1.172z"/>
					<radialGradient id="aigrd9" cx="101.375" cy="-73.4136" r="121.7797" fx="101.375" fy="-73.4136" gradientTransform="matrix(1.0203 0 0 0.9713 -32.3161 104.4569)" gradientUnits="userSpaceOnUse">
						<stop  offset="0" style="stop-color:#FFFFFF"/>
						<stop  offset="0.3034" style="stop-color:#CCF0FF"/>
						<stop  offset="1" style="stop-color:#1D6CE9"/>
					</radialGradient>
					<path style="&st35;" d="M106.289,58.479l-1.088,0.262l-0.445-1.104c-1.692,1.738-3.771,3.287-4.324,1.623c-0.955-2.861-6.947-10.148-6.947-10.148s2.586,4.294,2.996,4.553c0.407,0.26,2.725,6.506,3.269,6.635c0.547,0.131,3.817-0.647,4.363-0.647
						c0.545,0,0.952,0.778,0.952,0.778l-0.091,0.098l0.178,0.191c0.837-1.133,1.556-2.316,2.155-3.543h-1.149l0.132,1.303z"/>
					<radialGradient id="aigrd10" cx="101.3594" cy="-73.4209" r="121.8263" fx="101.3594" fy="-73.4209" gradientTransform="matrix(1.0203 0 0 0.9713 -32.3161 104.4569)" gradientUnits="userSpaceOnUse">
						<stop  offset="0" style="stop-color:#FFFFFF"/>
						<stop  offset="0.3034" style="stop-color:#CCF0FF"/>
						<stop  offset="1" style="stop-color:#1D6CE9"/>
					</radialGradient>
					<path style="&st36;" d="M99.616,66.268c1.702-1.301,3.22-2.73,4.519-4.267l0.145-0.728l-4.663,4.994z"/>
					<radialGradient id="aigrd11" cx="103.7432" cy="-67.2583" r="35.6921" fx="103.7432" fy="-67.2583" gradientTransform="matrix(1.0203 0 0 0.9713 -32.3161 104.4569)" gradientUnits="userSpaceOnUse">
						<stop  offset="0" style="stop-color:#FFFFFF"/>
						<stop  offset="0.1685" style="stop-color:#D4FFFF"/>
						<stop  offset="0.7921" style="stop-color:#51A8FF"/>
					</radialGradient>
					<path style="&st37;" d="M66.701,26.93c-0.562,0.541-0.374,2.293,0.422,2.293c0.425,0,8.872-5.667,8.024-5.804c-0.837-0.134-0.985-0.002-3.191-0.265c-0.276,0.014-0.556,0.029-0.833,0.047c-1.996,0.455-3.926,3.25-4.422,3.729z"/>
					<radialGradient id="aigrd12" cx="103.6875" cy="-67.2666" r="35.6984" fx="103.6875" fy="-67.2666" gradientTransform="matrix(1.0203 0 0 0.9713 -32.3161 104.4569)" gradientUnits="userSpaceOnUse">
						<stop  offset="0" style="stop-color:#FFFFFF"/>
						<stop  offset="0.1685" style="stop-color:#D4FFFF"/>
						<stop  offset="0.7921" style="stop-color:#51A8FF"/>
					</radialGradient>
					<path style="&st38;" d="M74.586,28.951l0.139-2.021l-2.109,0.134l0.279,1.888h1.691z"/>
					<radialGradient id="aigrd13" cx="67.8799" cy="36.6299" r="43.8219" fx="67.8799" fy="36.6299" gradientUnits="userSpaceOnUse">
						<stop  offset="0" style="stop-color:#FFFFFF"/>
						<stop  offset="0.1685" style="stop-color:#D4FFFF"/>
						<stop  offset="0.7921" style="stop-color:#51A8FF"/>
					</radialGradient>
					<path style="&st39;" d="M103.604,34.65c-7.619-6.161-18.432-9.606-18.432-9.606l-0.954,1.167l-0.544-0.908l-1.367-0.521v1.17l1.229,1.043l-0.817,0.391l-3.135,0.26l-7.085,3.903l0.681,3.122l-0.816,0.262l-0.409,0.648l2.317,3.512l0.134,1.174l-1.906,0.39v2.34
						l-1.088,0.26l0.136,1.823l-9.267,6.507l0.272,3.642c0.682,0.91,5.997,6.377,5.997,6.377s6.129,0.256,7.492-0.522c1.361-0.782,0.41,0.778,0.817,1.169c0.408,0.393,0.544,3.123,0.954,3.387c0.409,0.26,0,1.818,0.544,2.34c0.426,0.405,0.519,4.305,0.54,5.99
						c8.107-0.777,15.341-3.584,20.719-7.699l4.663-4.994l-0.145,0.728c0.355-0.42,0.696-0.848,1.017-1.282l-0.178-0.191l0.091-0.098c0,0-0.407-0.778-0.952-0.778c-0.546,0-3.816,0.778-4.363,0.647c-0.544-0.129-2.861-6.375-3.269-6.635
						c-0.41-0.259-2.996-4.553-2.996-4.553s5.992,7.287,6.947,10.148c0.553,1.664,2.632,0.115,4.324-1.623l0.445,1.104l1.088-0.262l-0.132-1.303h1.149c1.31-2.684,2.03-5.572,2.03-8.582c0-5.135-2.113-9.925-5.732-13.943z M82.038,45.6l-7.357-0.263l3.133-2.601
						h1.635l2.59,1.818V45.6z M91.03,44.688v1.17h-3.133l0.271,0.783l-1.91,0.262l-0.132,0.648l-1.364-0.259l-2.455-0.522l0.411-0.648l0.41-0.784l1.361-1.431l0.546,1.041l2.044-0.129l1.089-1.172l4.223,0.777l-1.361,0.264z M91.302,42.995l-1.635,0.26l-0.271-1.171
						l2.04-0.258l0.273-1.171l1.5,1.562l-1.907,0.778z"/>
					<radialGradient id="aigrd14" cx="103.6865" cy="-67.2573" r="35.7246" fx="103.6865" fy="-67.2573" gradientTransform="matrix(1.0203 0 0 0.9713 -32.3161 104.4569)" gradientUnits="userSpaceOnUse">
						<stop  offset="0" style="stop-color:#FFFFFF"/>
						<stop  offset="0.7022" style="stop-color:#D4FFFF"/>
						<stop  offset="0.7446" style="stop-color:#CEFCFF"/>
						<stop  offset="0.8012" style="stop-color:#BDF3FF"/>
						<stop  offset="0.8659" style="stop-color:#A1E5FF"/>
						<stop  offset="0.9361" style="stop-color:#7BD2FF"/>
						<stop  offset="1" style="stop-color:#51BDFF"/>
					</radialGradient>
					<path style="&st40;" d="M56.145,68.104c-0.141-1.354-4.928-3.78-5.35-4.186c-0.423-0.404-0.141-2.161-0.141-2.161s-3.947-2.099-8.998-3.979c2.65,4.991,7.383,9.234,13.407,12.155c0.677-0.444,1.167-1.011,1.081-1.83z"/>
					<radialGradient id="aigrd15" cx="98.2012" cy="-69.8291" r="43.9302" fx="98.2012" fy="-69.8291" gradientTransform="matrix(1.0203 0 0 0.9713 -32.3161 104.4569)" gradientUnits="userSpaceOnUse">
						<stop  offset="0" style="stop-color:#FFFFFF"/>
						<stop  offset="0.1685" style="stop-color:#D4FFFF"/>
						<stop  offset="0.7921" style="stop-color:#51A8FF"/>
					</radialGradient>
					<path style="&st41;" d="M40.52,45.83c1.547-0.407-0.143,2.697-0.143,2.697l-1.058,0.646c0.011,0.305,0.021,0.607,0.044,0.909c0.576,0.64,1.443,1.549,1.719,1.549c0.422,0,1.125-1.079,1.125-1.079l-1.971-1.348l1.83-0.813l0.115-0.712l0.307-0.098l3.029-4.648
						c2.095-0.866,4.669-1.942,4.996-2.103c0.563-0.268,4.504-2.563,5.207-3.102c0.705-0.542,2.251-0.405,2.816-0.405c0.563,0,1.406-0.269,1.549-1.757c0.141-1.484,0.705-1.756,1.128-1.35c0.42,0.404-0.426,1.08,0.562,1.35c0.984,0.271,1.828,0.945,2.532,0.271
						c0.516-0.496-0.175-1.058-0.638-1.484h7.817l0.845-2.434l-1.828-0.27l-6.762-0.674v-0.811l-0.537,0.094c0.732-4.074,5.076-3.402,1.807-5.76c-0.199-0.145-3.061,4.568-3.789,4.477c-1.318-0.176-3.027-0.189-3.39,0.244c-0.479,0.574,1.081-1.975,2.423-2.748
						c-2.142,0.641-8.915,2.986-16.078,10.714c-1.35,1.456-2.537,3.015-3.578,4.576c-0.623,1.614-1.03,3.289-1.199,5.011c0.356-0.491,0.736-0.846,1.119-0.945z"/>
					<radialGradient id="aigrd16" cx="103.6855" cy="-67.2534" r="35.7347" fx="103.6855" fy="-67.2534" gradientTransform="matrix(1.0203 0 0 0.9713 -32.3161 104.4569)" gradientUnits="userSpaceOnUse">
						<stop  offset="0" style="stop-color:#FFFFFF"/>
						<stop  offset="0.1685" style="stop-color:#D4FFFF"/>
						<stop  offset="0.7921" style="stop-color:#51A8FF"/>
					</radialGradient>
					<path style="&st42;" d="M81.342,24.23l-2.618-0.932c-0.356-0.033-0.713-0.066-1.076-0.092l0.598,1.833l3.097-0.81z"/>
					<path d="M60.93,26.254c-0.209,0-0.439,0.088-0.674,0.221c0.553-0.163,0.813-0.221,0.674-0.221z"/>
				</g>
				<g>
					<g>
						<linearGradient id="aigrd17" gradientUnits="userSpaceOnUse" x1="128.4834" y1="114.6621" x2="121.406" y2="121.7395">
							<stop  offset="0" style="stop-color:#FFFFFF"/>
							<stop  offset="1" style="stop-color:#8C8CA4"/>
						</linearGradient>
						<path style="&st3;" d="M136.665,120.486l-5.028,5.027l-14.006-14.004l5.028-5.031l14.006,14.008z"/>
						<linearGradient id="aigrd18" gradientUnits="userSpaceOnUse" x1="104.7617" y1="98.666" x2="138.2566" y2="124.5975">
							<stop  offset="0" style="stop-color:#FFFFFF"/>
							<stop  offset="1" style="stop-color:#545477"/>
						</linearGradient>
						<path style="&st4;" d="M122.659,105.809c-0.181,0-0.351,0.07-0.476,0.195l-5.028,5.031c-0.263,0.26-0.263,0.686,0,0.949l14.005,14.004c0.266,0.264,0.688,0.264,0.952,0l5.028-5.027c0.261-0.262,0.261-0.688,0-0.951l-14.007-14.006
							c-0.127-0.125-0.297-0.195-0.475-0.195z M122.659,107.432c0.854,0.855,12.199,12.199,13.055,13.055c-0.699,0.697-3.378,3.379-4.077,4.078c-0.856-0.857-12.199-12.201-13.057-13.055c0.699-0.699,3.38-3.381,4.079-4.078z"/>
					</g>
					<g>
						<linearGradient id="aigrd19" gradientUnits="userSpaceOnUse" x1="23.6309" y1="9.8096" x2="16.5545" y2="16.8859">
							<stop  offset="0" style="stop-color:#FFFFFF"/>
							<stop  offset="1" style="stop-color:#8C8CA4"/>
						</linearGradient>
						<path style="&st5;" d="M31.813,15.633l-5.028,5.028L12.777,6.656l5.027-5.028l14.008,14.005z"/>
						<linearGradient id="aigrd20" gradientUnits="userSpaceOnUse" x1="-0.0938" y1="-6.1885" x2="33.4041" y2="19.7453">
							<stop  offset="0" style="stop-color:#FFFFFF"/>
							<stop  offset="1" style="stop-color:#545477"/>
						</linearGradient>
						<path style="&st6;" d="M17.805,0.955c-0.178,0-0.349,0.071-0.475,0.197L12.303,6.18c-0.263,0.263-0.263,0.688,0,0.951l14.006,14.005c0.263,0.262,0.688,0.262,0.95,0l5.028-5.027c0.264-0.263,0.264-0.688,0-0.951L18.281,1.152
							c-0.127-0.126-0.297-0.197-0.477-0.197z M17.805,2.578c0.856,0.856,12.201,12.2,13.057,13.055c-0.698,0.699-3.38,3.381-4.077,4.078c-0.856-0.855-12.2-12.199-13.056-13.055c0.697-0.698,3.379-3.38,4.076-4.078z"/>
					</g>
					<linearGradient id="aigrd21" gradientUnits="userSpaceOnUse" x1="-28.083" y1="1.5566" x2="122.4775" y2="179.003">
						<stop  offset="0" style="stop-color:#FFFFFF"/>
						<stop  offset="1" style="stop-color:#8C8CA4"/>
					</linearGradient>
					<path style="&st7;" d="M81.149,136.525H66.461l-4.827-23.215l25.166,0.102l-5.65,23.113z"/>
					<linearGradient id="aigrd22" gradientUnits="userSpaceOnUse" x1="40.3945" y1="96.7637" x2="89.7144" y2="134.9468">
						<stop  offset="0" style="stop-color:#FFFFFF"/>
						<stop  offset="1" style="stop-color:#545477"/>
					</linearGradient>
					<path style="&st8;" d="M60.593,112.459c-0.257,0.314-0.357,0.729-0.274,1.127l4.826,23.211c0.129,0.625,0.68,1.072,1.316,1.072h14.688c0.62,0,1.158-0.424,1.305-1.023l5.651-23.111c0.097-0.4,0.006-0.824-0.247-1.148c-0.254-0.324-0.642-0.516-1.055-0.518
						l-25.165-0.102c-0.404-0.002-0.789,0.18-1.046,0.492z M63.287,114.662c2.686,0.01,19.048,0.076,21.801,0.088c-0.665,2.719-4.571,18.697-4.993,20.432c-1.672,0-10.812,0-12.54,0c-0.375-1.805-3.712-17.848-4.268-20.52z"/>
					<linearGradient id="aigrd23" gradientUnits="userSpaceOnUse" x1="16.2939" y1="53.1104" x2="151.1777" y2="213.9856">
						<stop  offset="0" style="stop-color:#FFFFFF"/>
						<stop  offset="0.178" style="stop-color:#FBFBFC"/>
						<stop  offset="0.367" style="stop-color:#EEEEF2"/>
						<stop  offset="0.5612" style="stop-color:#D9D9E1"/>
						<stop  offset="0.7589" style="stop-color:#BBBBC9"/>
						<stop  offset="0.9575" style="stop-color:#9595AB"/>
						<stop  offset="1" style="stop-color:#8C8CA4"/>
					</linearGradient>
					<path style="&st9;" d="M78.541,135.184l-9.769,0.006l-2.929-23.168l16.466,0.336l-3.769,22.826z"/>
					<linearGradient id="aigrd24" gradientUnits="userSpaceOnUse" x1="-32.7295" y1="5.502" x2="117.8273" y2="182.9439">
						<stop  offset="0" style="stop-color:#FFFFFF"/>
						<stop  offset="1" style="stop-color:#8C8CA4"/>
					</linearGradient>
					<path style="&st10;" d="M2.146,70.043V55.354l23.213-4.826l-0.103,25.164l-23.11-5.648z"/>
					<linearGradient id="aigrd25" gradientUnits="userSpaceOnUse" x1="-17.4727" y1="36.0361" x2="33.1882" y2="75.2575">
						<stop  offset="0" style="stop-color:#FFFFFF"/>
						<stop  offset="1" style="stop-color:#545477"/>
					</linearGradient>
					<path style="&st11;" d="M25.086,49.211L1.872,54.037c-0.624,0.131-1.071,0.68-1.071,1.316v14.689c0,0.619,0.424,1.158,1.025,1.305l23.111,5.65c0.4,0.098,0.821,0.008,1.146-0.246c0.324-0.256,0.516-0.643,0.517-1.055l0.104-25.165
						c0.001-0.405-0.181-0.79-0.493-1.046c-0.314-0.258-0.729-0.357-1.125-0.275z M24.009,52.181c-0.011,2.686-0.078,19.047-0.089,21.802c-2.719-0.666-18.697-4.572-20.43-4.995c0-1.673,0-10.812,0-12.54c1.805-0.375,17.848-3.711,20.519-4.267z"/>
					<linearGradient id="aigrd26" gradientUnits="userSpaceOnUse" x1="11.6523" y1="57.0117" x2="146.5186" y2="217.8661">
						<stop  offset="0" style="stop-color:#FFFFFF"/>
						<stop  offset="0.178" style="stop-color:#FBFBFC"/>
						<stop  offset="0.367" style="stop-color:#EEEEF2"/>
						<stop  offset="0.5612" style="stop-color:#D9D9E1"/>
						<stop  offset="0.7589" style="stop-color:#BBBBC9"/>
						<stop  offset="0.9575" style="stop-color:#9595AB"/>
						<stop  offset="1" style="stop-color:#8C8CA4"/>
					</linearGradient>
					<path style="&st12;" d="M3.488,67.435l-0.008-9.77l23.167-2.929l-0.337,16.467L3.488,67.435z"/>
					<linearGradient id="aigrd27" gradientUnits="userSpaceOnUse" x1="-45.7183" y1="16.5156" x2="104.8478" y2="193.9686">
						<stop  offset="0" style="stop-color:#FFFFFF"/>
						<stop  offset="1" style="stop-color:#8C8CA4"/>
					</linearGradient>
					<path style="&st13;" d="M27.775,120.363l-10.387-10.385l13.002-19.83l17.723,17.867l-20.338,12.348z"/>
					<linearGradient id="aigrd28" gradientUnits="userSpaceOnUse" x1="4.2324" y1="86.0156" x2="46.406" y2="118.6661">
						<stop  offset="0" style="stop-color:#FFFFFF"/>
						<stop  offset="1" style="stop-color:#545477"/>
					</linearGradient>
					<path style="&st14;" d="M30.256,88.811c-0.403,0.041-0.768,0.262-0.989,0.6l-13.002,19.83c-0.349,0.531-0.276,1.236,0.174,1.688l10.388,10.385c0.438,0.439,1.118,0.521,1.647,0.199l20.337-12.346c0.352-0.215,0.586-0.578,0.637-0.986
						c0.05-0.408-0.09-0.818-0.381-1.111L31.346,89.203c-0.286-0.289-0.687-0.434-1.09-0.393z M30.605,92.275c1.891,1.904,13.412,13.521,15.352,15.477c-2.393,1.451-16.453,9.988-17.977,10.914c-1.183-1.182-7.645-7.646-8.867-8.867
						c1.012-1.541,9.996-15.244,11.492-17.523z"/>
					<linearGradient id="aigrd29" gradientUnits="userSpaceOnUse" x1="-0.7148" y1="67.3779" x2="134.1636" y2="228.2469">
						<stop  offset="0" style="stop-color:#FFFFFF"/>
						<stop  offset="0.178" style="stop-color:#FBFBFC"/>
						<stop  offset="0.367" style="stop-color:#EEEEF2"/>
						<stop  offset="0.5612" style="stop-color:#D9D9E1"/>
						<stop  offset="0.7589" style="stop-color:#BBBBC9"/>
						<stop  offset="0.9575" style="stop-color:#9595AB"/>
						<stop  offset="1" style="stop-color:#8C8CA4"/>
					</linearGradient>
					<path style="&st15;" d="M26.881,117.57l-6.914-6.902l14.311-18.453l11.407,11.881L26.881,117.57z"/>
					<linearGradient id="aigrd30" gradientUnits="userSpaceOnUse" x1="4.0088" y1="-25.6621" x2="154.5634" y2="151.7773">
						<stop  offset="0" style="stop-color:#FFFFFF"/>
						<stop  offset="1" style="stop-color:#8C8CA4"/>
					</linearGradient>
					<path style="&st16;" d="M131.135,110.557l-10.388,10.389l-19.828-13.002l17.867-17.721l12.349,20.334z"/>
					<linearGradient id="aigrd31" gradientUnits="userSpaceOnUse" x1="89.7988" y1="83.6094" x2="132.9068" y2="116.9833">
						<stop  offset="0" style="stop-color:#FFFFFF"/>
						<stop  offset="1" style="stop-color:#545477"/>
					</linearGradient>
					<path style="&st17;" d="M117.84,89.266L99.973,106.99c-0.287,0.285-0.432,0.684-0.39,1.088c0.04,0.404,0.259,0.768,0.6,0.988l19.828,13.002c0.532,0.35,1.237,0.277,1.688-0.174l10.385-10.385c0.438-0.439,0.521-1.121,0.198-1.648l-12.347-20.338
						c-0.213-0.352-0.575-0.588-0.985-0.637c-0.409-0.049-0.817,0.09-1.11,0.379z M118.523,92.377c1.452,2.393,9.989,16.453,10.913,17.977c-1.182,1.184-7.645,7.645-8.865,8.867c-1.542-1.012-15.245-9.994-17.527-11.49c1.908-1.893,13.521-13.414,15.479-15.354z"/>
					<linearGradient id="aigrd32" gradientUnits="userSpaceOnUse" x1="48.4219" y1="26.1885" x2="183.2913" y2="187.0467">
						<stop  offset="0" style="stop-color:#FFFFFF"/>
						<stop  offset="0.178" style="stop-color:#FBFBFC"/>
						<stop  offset="0.367" style="stop-color:#EEEEF2"/>
						<stop  offset="0.5612" style="stop-color:#D9D9E1"/>
						<stop  offset="0.7589" style="stop-color:#BBBBC9"/>
						<stop  offset="0.9575" style="stop-color:#9595AB"/>
						<stop  offset="1" style="stop-color:#8C8CA4"/>
					</linearGradient>
					<path style="&st18;" d="M128.34,111.451l-6.9,6.914l-18.453-14.309l11.882-11.408l13.472,18.803z"/>
					<linearGradient id="aigrd33" gradientUnits="userSpaceOnUse" x1="-2.0176" y1="-20.5537" x2="148.5382" y2="156.8871">
						<stop  offset="0" style="stop-color:#FFFFFF"/>
						<stop  offset="1" style="stop-color:#8C8CA4"/>
					</linearGradient>
					<path style="&st19;" d="M18.307,17.005L28.693,6.619L48.521,19.62L30.654,37.342L18.307,17.005z"/>
					<linearGradient id="aigrd34" gradientUnits="userSpaceOnUse" x1="2.0205" y1="-0.6567" x2="45.127" y2="32.716">
						<stop  offset="0" style="stop-color:#FFFFFF"/>
						<stop  offset="1" style="stop-color:#545477"/>
					</linearGradient>
					<path style="&st20;" d="M27.742,5.668L17.355,16.055c-0.438,0.438-0.52,1.117-0.198,1.648l12.347,20.336c0.215,0.352,0.578,0.588,0.986,0.637c0.409,0.05,0.818-0.09,1.11-0.379l17.866-17.723c0.289-0.285,0.432-0.686,0.391-1.089
						c-0.04-0.403-0.26-0.767-0.6-0.989L29.43,5.494c-0.532-0.349-1.237-0.276-1.688,0.174z M28.869,8.342c1.543,1.011,15.245,9.996,17.527,11.492c-1.907,1.892-13.523,13.412-15.479,15.352c-1.453-2.391-9.989-16.452-10.915-17.977
						c1.183-1.182,7.646-7.645,8.866-8.867z"/>
					<linearGradient id="aigrd35" gradientUnits="userSpaceOnUse" x1="42.2881" y1="31.3262" x2="177.1685" y2="192.1976">
						<stop  offset="0" style="stop-color:#FFFFFF"/>
						<stop  offset="0.178" style="stop-color:#FBFBFC"/>
						<stop  offset="0.367" style="stop-color:#EEEEF2"/>
						<stop  offset="0.5612" style="stop-color:#D9D9E1"/>
						<stop  offset="0.7589" style="stop-color:#BBBBC9"/>
						<stop  offset="0.9575" style="stop-color:#9595AB"/>
						<stop  offset="1" style="stop-color:#8C8CA4"/>
					</linearGradient>
					<path style="&st21;" d="M21.1,16.11l6.902-6.914l18.452,14.311l-11.88,11.407L21.1,16.11z"/>
					<linearGradient id="aigrd36" gradientUnits="userSpaceOnUse" x1="-9.1904" y1="-14.3975" x2="141.2382" y2="162.8934">
						<stop  offset="0" style="stop-color:#FFFFFF"/>
						<stop  offset="1" style="stop-color:#8C8CA4"/>
					</linearGradient>
					<path style="&st22;" d="M74.615,109.285c-24.857,0-45.008-20.15-45.008-45.008c0-19.181,12.004-35.549,28.904-42.027l-1.415-6.459C37.254,22.963,23.07,41.961,23.07,64.277c0,28.469,23.077,51.543,51.545,51.543c22.207,0,41.132-14.043,48.382-33.732
						l-6.34-1.746c-6.47,16.922-22.847,28.943-42.042,28.943z"/>
					<path style="&st27;" d="M74.53,113.131c-26.937,0-48.771-21.836-48.771-48.771c0-20.781,13.004-38.515,31.313-45.539c-0.187-0.854-0.363-1.662-0.462-2.107C36.926,24.17,23.742,43.172,23.742,64.277c0,28.051,22.82,50.871,50.873,50.871
						c20.982,0,39.952-13.082,47.47-32.615c-0.426-0.117-1.225-0.338-2.07-0.57c-7.063,18.232-24.76,31.168-45.484,31.168z"/>
					<linearGradient id="aigrd37" gradientUnits="userSpaceOnUse" x1="35.3623" y1="37.1309" x2="170.0874" y2="197.817">
						<stop  offset="0" style="stop-color:#FFFFFF"/>
						<stop  offset="0.178" style="stop-color:#FBFBFC"/>
						<stop  offset="0.367" style="stop-color:#EEEEF2"/>
						<stop  offset="0.5612" style="stop-color:#D9D9E1"/>
						<stop  offset="0.7589" style="stop-color:#BBBBC9"/>
						<stop  offset="0.9575" style="stop-color:#9595AB"/>
						<stop  offset="1" style="stop-color:#8C8CA4"/>
					</linearGradient>
					<path style="&st23;" d="M74.615,109.955c-25.188,0-45.68-20.49-45.68-45.678c0-18.592,11.556-35.556,28.801-42.427c-0.102-0.468-0.393-1.796-0.664-3.03c-18.31,7.024-31.313,24.758-31.313,45.539c0,26.936,21.835,48.771,48.771,48.771
						c20.725,0,38.422-12.936,45.484-31.168c-1.196-0.328-2.491-0.686-2.97-0.818c-6.869,17.252-23.83,28.811-42.43,28.811z"/>
					<linearGradient id="aigrd38" gradientUnits="userSpaceOnUse" x1="-39.4014" y1="-8.939" x2="120.3301" y2="114.7241">
						<stop  offset="0" style="stop-color:#FFFFFF"/>
						<stop  offset="1" style="stop-color:#545477"/>
					</linearGradient>
					<path style="&st24;" d="M123.595,81.781c-0.087-0.17-0.237-0.291-0.419-0.344l-6.339-1.742c-0.313-0.088-0.627,0.066-0.77,0.348l4.24,1.168c-0.093,0.252-0.195,0.5-0.293,0.752c0.846,0.232,1.645,0.453,2.07,0.57c-7.518,19.533-26.487,32.615-47.47,32.615
						c-28.053,0-50.873-22.82-50.873-50.871c0-21.105,13.184-40.107,32.868-47.564c0.099,0.445,0.275,1.254,0.462,2.107c0.293-0.113,0.585-0.23,0.882-0.338l0.944,4.307c0.214-0.154,0.329-0.416,0.27-0.684l-1.415-6.457c-0.042-0.189-0.163-0.353-0.331-0.446
						c-0.171-0.093-0.372-0.108-0.555-0.043C36.25,22.61,22.398,42.35,22.398,64.277c0,28.793,23.424,52.217,52.217,52.217c21.79,0,41.485-13.736,49.012-34.176c0.064-0.176,0.053-0.371-0.032-0.537z"/>
					<linearGradient id="aigrd39" gradientUnits="userSpaceOnUse" x1="-25.2842" y1="-0.6992" x2="115.9417" y2="108.6369">
						<stop  offset="0" style="stop-color:#FFFFFF"/>
						<stop  offset="1" style="stop-color:#545477"/>
					</linearGradient>
					<path style="&st25;" d="M57.072,18.82c0.271,1.234,0.563,2.563,0.664,3.03c-17.245,6.871-28.801,23.835-28.801,42.427c0,25.188,20.492,45.678,45.68,45.678c18.6,0,35.561-11.559,42.43-28.811c0.479,0.133,1.773,0.49,2.97,0.818c0.098-0.252,0.2-0.5,0.293-0.752
						l-4.24-1.168c-0.012,0.02-0.028,0.035-0.038,0.059c-6.521,17.053-23.163,28.51-41.414,28.51c-24.447,0-44.335-19.887-44.335-44.334c0-18.234,11.442-34.871,28.473-41.4c0.055-0.021,0.099-0.055,0.146-0.088l-0.944-4.307c-0.297,0.107-0.589,0.225-0.882,0.338z"
						/>
				</g>
			</g>
		</g>
	</g>
</svg>

