<?xml version="1.0" encoding="utf-8"?>
<!-- Generator: Adobe Illustrator 15.0.2, SVG Export Plug-In . SVG Version: 6.00 Build 0)  -->
<!DOCTYPE svg PUBLIC "-//W3C//DTD SVG 1.1//EN" "http://www.w3.org/Graphics/SVG/1.1/DTD/svg11.dtd">
<svg version="1.1" id="Layer_x5F_www.ABC-color.com"
	 xmlns="http://www.w3.org/2000/svg" xmlns:xlink="http://www.w3.org/1999/xlink" x="0px" y="0px" width="822px" height="567px"
	 viewBox="0 0 822 567" enable-background="new 0 0 822 567" xml:space="preserve">
<rect display="none" fill="#FFFFFF" width="822" height="567"/>
<text id="image_1_" transform="matrix(1 0 0 1 16 549)" font-family="'MyriadPro-Regular'" font-size="12">www . ABC - color . com</text>
<g id="XMLID_3_">
	<g>
		<path fill="#EBD8BD" d="M725,488l12,9c-2,29-31,1-31,1c-67,10-74,34-74,34c-23,1-15-20-15-20c-25-30,16-16,16-16l70-17
			c7-11,16-23,27-5C733,478.8,725,488,725,488z"/>
		<path fill="#EBD5E4" d="M581,385c0,6.6-5.6,12-12.5,12s-12.5-5.4-12.5-12s5.6-12,12.5-12S581,378.4,581,385z"/>
		<path fill="#FAF7CD" d="M556,385c0,6.6,5.6,12,12.5,12s12.5-5.4,12.5-12s-5.6-12-12.5-12S556,378.4,556,385z M586.7,418.5
			c0,0-16,14.4-18,0l-1.3,0.2c-8.5,8-10.2,0.8-10-6.9H557c0,0-17.3,9.3-9.7-19c0,0-1.6-5.8-8.6-9.399c-0.2-0.101-0.4-0.2-0.5-0.301
			l1.8-0.1c0,0,7.7-31.7,29.7-27.3c17.1,12.7,37.2,33.1,34.3,57.1c0,0-7.4,13.7-17,5.4L586.7,418.5z"/>
		<path fill="#EBD8BD" d="M522.1,146.5c0.7-7.3,29-8.5,29-8.5c1.7,0.3,11.101,2.8,18.101,8.8c5.1,4.3,8.899,10.3,7.7,18.4
			c-0.7,5.1-3.4,11-9,17.9c-0.7,0.9-1.5,1.8-2.301,2.7c0,0-2.6,1.5-7.199,3.1l0,0c-0.2,0.1-0.301,0.1-0.5,0.2
			c-9.4,3.2-26.7,6.7-47-0.8l-4.4-15.7l15.7-25.1C522.2,147.1,522.2,146.8,522.1,146.5z"/>
		<path fill="#60983A" d="M531.8,125.8c1.7,6.9,1.7,12.9-0.2,13.4c-1.899,0.5-4.8-4.8-6.5-11.7c-1.699-6.9-1.699-12.9,0.2-13.4
			C527.1,113.7,530,118.9,531.8,125.8z"/>
		<path fill="#FAF7CD" d="M551.1,138c0,0-28.3,1.2-29,8.5c-1.1-4.3-11.899-9.7-11.899-9.7c-1.7-0.7-3.3-1.1-4.9-1.4
			c0.101-2.2,1.3-31.9,22.5-28.8C527.8,106.5,547.9,109.1,551.1,138z M531.6,139.2c1.9-0.5,1.9-6.5,0.2-13.4
			c-1.7-6.9-4.7-12.1-6.5-11.7c-1.899,0.5-1.899,6.4-0.2,13.4C526.8,134.4,529.7,139.6,531.6,139.2z"/>
		<path fill="#C7833F" d="M540,383l-1.8,0.1c-2.7-1.3-6.101-2.199-10.4-2.3c9.9-11.399,15.4-25.3,18.3-39.3l1.301,0.3
			c0,0,10.399,5.101,22.399,14C547.7,351.3,540,383,540,383z"/>
		<path fill="#EEE42F" d="M541.8,276.7l-29.1-6v-0.1c2.3-0.7,3.8-2.7,3.7-4.9c-0.101-2.7-2.801-4.8-5.9-4.7l29.6-21.5L541.8,276.7z"
			/>
		<path fill="#DC9543" d="M465.8,226.4c10.7-3.8,25.4-14.6,45-38.1c20.3,7.4,37.601,4,47,0.8l0.4,1.2c-0.4,0.9-1.3,2.8-2.3,5.3
			c-28.7,60.8-89,31.9-90,31.4l0,0L465.8,226.4z"/>
		<path fill="#C53D3E" d="M510.5,261.1c3.1-0.2,5.8,1.9,5.9,4.7c0.1,2.2-1.5,4.2-3.7,4.9c-0.5,0.2-1.101,0.3-1.7,0.3
			c-3.1,0.2-5.8-1.9-5.9-4.7C505,263.5,507.4,261.2,510.5,261.1z"/>
		<path fill="#FAF7CD" d="M519,521.6c0,0-4.4,9.4-23.9,0c0,0-7.8-3.199-17.3-9.199c-7.399-27,24.5-28.5,31.7-28.5
			c1.9,1.8,4.3,3.5,7.5,4.3c0,0,27.7-7.5,23.3,18.2c0,0-4.399,10.699-9.399,6.899C531,513.5,529.7,525.4,519,521.6z"/>
		<path fill="#C53D3E" d="M505.3,135.4c1.601,0.3,3.2,0.7,4.9,1.4c0,0,10.8,5.4,11.899,9.7c0,0.3,0,0.6,0.101,1l-15.7,25.1
			c0,0-26.4-0.6-27-3.8c-0.3-1.6-4.4-3.3-6.3-6.9l0,0c-1.9-3.6-1.601-9.1,6.899-18.2c0,0,1.4-1.3,3.9-2.9c4.5-2.9,12.3-6.8,21.1-5.4
			l0,0C505.1,135.3,505.2,135.4,505.3,135.4z"/>
		<path fill="#EEE42F" d="M512.7,270.7L474.5,287v-40.4l36,14.5c-3.1,0.1-5.5,2.5-5.4,5.2c0.101,2.7,2.801,4.8,5.9,4.7
			C511.6,270.9,512.2,270.8,512.7,270.7L512.7,270.7z"/>
		<path fill="#EBD8BD" d="M434.1,185.4c5.5-9.6,13.801-16.6,13.801-16.6c9.3-9.9,24.6-7,25.199-6.9l0,0c1.9,3.6,6,5.4,6.301,6.9
			c0.6,3.1,27,3.8,27,3.8l4.399,15.7c-19.7,23.5-34.399,34.3-45,38.1c-0.899,0.3-1.8,0.6-2.7,0.8c-5.3,1.4-9.399,0.9-12.6-0.6
			c-0.4-0.2-0.7-0.3-1-0.5c-10.5-5.1-16.1-11-18.5-17.1c-1-2.3-1.4-4.7-1.5-7.1C429.2,196.2,431.3,190.4,434.1,185.4z"/>
		<path fill="#FAF7CD" d="M474.5,287l38.3-16.3l29.101,6l-1.601-37.1l-29.6,21.5l-36-14.5V287H474.5z M546.8,285.2L500,332
			l-41.2-52.9c10.2-26.1,4.9-49.3,4.2-51.8c0.9-0.2,1.8-0.5,2.7-0.8l0.2,0.6l0,0c0.899,0.5,61.3,29.4,90-31.4
			c-5.5,13.4-17.101,47.1-11.2,78.9C544.8,274.5,545.8,278.5,546.8,285.2z"/>
		
			<ellipse transform="matrix(-0.4667 -0.8844 0.8844 -0.4667 544.5291 621.3604)" fill="#60983A" cx="459.601" cy="146.508" rx="12.9" ry="3.5"/>
		<path fill="#FAF7CD" d="M465.6,157.9c1.7-0.9,0.4-6.7-3-13c-3.3-6.3-7.399-10.7-9.1-9.8s-0.4,6.7,3,13
			C459.8,154.4,463.9,158.8,465.6,157.9z M483.9,140.7c-2.5,1.6-3.9,2.9-3.9,2.9c-8.5,9.1-8.8,14.6-6.9,18.2
			c-0.5-0.1-15.899-3-25.199,6.9c0,0-21.4-17,1.899-39C449.8,129.8,472.1,115.8,483.9,140.7z"/>
		<path fill="#DC952E" d="M434.1,185.4c-2.899,5-5,10.8-4.699,16.6H428c-4.3-3.9-8.3-8.4-11.8-13L434.1,185.4z"/>
		<path fill="#DC9543" d="M401.3,513.1c1.101-0.3,1.5-0.5-0.5-0.3C400.3,512.9,400.5,513,401.3,513.1c-1.3,0.4-3.6,1-3.6,1
			s-57.9,7.5-67.3-3.1c0,0-23.301-31.5-22.601-45.9c-3.3-31,4.4-43.399,4.4-43.399c8.2-47.2,91.8-87.4,91.8-87.4
			c31.8-15.399,47.5-36.1,54.9-55.1L500,332l46.8-46.8c1.9,12.6,3.8,34.5-0.7,56.2c-2.899,14-8.399,28-18.3,39.3
			c0,0-42.1,54.7-23.899,92.5c0,0,1,6.1,5.699,10.8c-7.199,0-39.1,1.5-31.699,28.5c-0.301-0.2-0.601-0.4-0.9-0.6
			c1.2,1.899,2.6,6.199-10.1,6.699C466.8,518.5,408.6,514.4,401.3,513.1z"/>
		<path fill="#DC9543" d="M447.9,168.8c0,0-8.301,7-13.801,16.6l-18,3.5c-12.899-16.7-20.6-35.1-21.1-35.6
			c-0.5-3.8-6.1-38.7-45.8-61.3l0,0c22-9.4,39-8.8,76.7,15.1c0,0,29.6-49.1,78.6-28.9c8.5-28.8,29-59.4,30.2-59.1
			c0,0,5,38.4,9.399,47.2c4.4,8.8,19.5,27,19.5,27c8.301,14.3,8,39.3,7.4,52.8l-1.8,0.6c-7-5.9-16.4-8.5-18.101-8.8
			c-3.199-28.9-23.3-31.4-23.3-31.4c-21.2-3-22.399,26.6-22.5,28.8c-0.1,0-0.2,0-0.3-0.1l0,0c-8.7-1.3-16.6,2.5-21.1,5.4
			c-11.8-24.9-34.101-10.9-34.101-10.9C426.5,151.8,447.9,168.8,447.9,168.8z"/>
		<path fill="#FAF7CD" d="M224,56.9c1.9-5.7,43.4,15.1,43.4,15.1c-8.2-22,34.6,8.2,34.6,8.2l-1.3-6.9c4,1.7,7.8,3.4,11.5,5.2L312,80
			l-15,47h-71.3c-34.4-26.2-60.6-62.2-30-42.5c0,0,38.1,21.1,24.5,10.1c-96.5-78.5,19.7-15.1,22-13.9C241.4,80,222.2,62.4,224,56.9z
			"/>
		<path fill="#D88A3A" d="M307.7,465c0,0-58.5,0.6-52.2-47.2c0,0,12-82.399,22-119.5c0,0,13.8-137.1-22.6-153.5
			c-9.7-4.3-19.7-10.8-29.1-17.9H297l15-47l0.3-1.6C433.9,138,378.2,263,378.2,263c-20.8,34-58.5,88.1-58.5,88.1
			c-28.3,44.7-7.5,70.4-7.5,70.4S304.4,434.1,307.7,465z"/>
	</g>
	<g>
		<path fill="none" stroke="#000000" stroke-width="0.25" d="M473.1,161.9c-0.5-0.1-15.899-3-25.199,6.9c0,0-21.4-17,1.899-39
			c0,0,22.3-14,34.101,10.9"/>
		<path fill="none" stroke="#000000" stroke-width="0.25" d="M505.3,135.5c0,0,0,0,0-0.1c0.101-2.2,1.3-31.9,22.5-28.8
			c0,0,20.101,2.5,23.3,31.4c0,0-28.3,1.2-29,8.5c0,0.3,0,0.6,0.101,1"/>
		<path fill="none" stroke="#000000" stroke-width="0.25" d="M466,227L466,227c0.9,0.5,61.3,29.4,90-31.4c0.9-1.9,1.8-3.9,2.6-5.9"
			/>
		<path fill="none" stroke="#000000" stroke-width="0.25" d="M395.1,153.4c0.5,0.5,8.2,18.9,21.101,35.6c3.6,4.6,7.5,9.1,11.8,13"/>
		<path fill="none" stroke="#000000" stroke-width="0.25" d="M395.1,153.4c0,0.2,0,0.4,0,0.4C395,153.4,395,153.3,395.1,153.4z"/>
		<path fill="none" stroke="#000000" stroke-width="0.25" d="M349.2,92.1L349.2,92.1c39.8,22.6,45.399,57.5,45.899,61.3"/>
		<path fill="none" stroke="#000000" stroke-width="0.25" d="M403.9,121.6C386.6,99.9,350.3,92.3,349.2,92"/>
		<path fill="none" stroke="#000000" stroke-width="0.25" d="M349.2,92.1c22-9.4,39-8.8,76.7,15.1c0,0,29.6-49.1,78.6-28.9
			c8.5-28.8,29-59.4,30.2-59.1c0,0-8.8,44-5,61"/>
		<path fill="none" stroke="#000000" stroke-width="0.25" d="M534.7,19.1c0,0,5,38.4,9.399,47.2c4.4,8.8,19.5,27,19.5,27
			c8.301,14.3,8,39.3,7.4,52.8c0,0.3,0,0.6,0,0.9"/>
		
			<ellipse transform="matrix(-0.4667 -0.8844 0.8844 -0.4667 544.5291 621.3604)" fill="none" stroke="#000000" stroke-width="0.25" cx="459.601" cy="146.508" rx="12.9" ry="3.5"/>
		<path fill="none" stroke="#000000" stroke-width="0.25" d="M531.8,125.8c1.7,6.9,1.7,12.9-0.2,13.4c-1.899,0.5-4.8-4.8-6.5-11.7
			c-1.699-6.9-1.699-12.9,0.2-13.4C527.1,113.7,530,118.9,531.8,125.8z"/>
		<path fill="none" stroke="#000000" stroke-width="0.25" d="M558.6,189.6L558.6,189.6c-0.1,0.2-0.199,0.4-0.3,0.7
			c-0.399,0.9-1.3,2.8-2.3,5.3c-5.5,13.4-17.1,47.1-11.2,78.9c0,0,1,4.1,2,10.8c1.9,12.601,3.8,34.5-0.7,56.2
			c-2.899,14-8.399,28-18.3,39.3c0,0-42.1,54.7-23.899,92.5c0,0,1,6.101,5.699,10.8c1.9,1.801,4.301,3.5,7.5,4.301
			c0,0,27.7-7.5,23.301,18.199c0,0-4.4,10.7-9.4,6.9c0,0,0.6-15.1-15.1-13.2"/>
		<path fill="none" stroke="#000000" stroke-width="0.25" d="M531,513.5c0,0-1.3,12-12,8.2c0,0-4.4-13.8-10.7-12.601"/>
		<path fill="none" stroke="#000000" stroke-width="0.25" d="M519,521.6c0,0-4.4,9.4-23.9,0c0,0-7.8-3.199-17.3-9.199
			c-0.3-0.2-0.6-0.4-0.899-0.601c-15.601-10.1-35-27.7-31.5-51.2c0,0,3.8-35.199,27-65.399"/>
		<path fill="none" stroke="#000000" stroke-width="0.25" d="M459.3,416c0,0,1.3-52.2-36.5-42.1"/>
		<path fill="none" stroke="#000000" stroke-width="0.25" d="M242.3,80.8L242.3,80.8c-0.9-0.8-20.1-18.4-18.2-23.9
			C226,51.2,267.5,72,267.5,72c-8.2-22,34.6,8.2,34.6,8.2l-1.3-6.9c4,1.7,7.8,3.4,11.5,5.2c121.601,59.7,65.9,184.7,65.9,184.7
			c-20.8,34-58.5,88.1-58.5,88.1c-28.3,44.7-7.5,70.4-7.5,70.4c8.2-47.2,91.8-87.4,91.8-87.4c31.8-15.399,47.5-36.1,54.9-55.1
			c10.199-26.1,4.899-49.3,4.199-51.8c0-0.2-0.1-0.2-0.1-0.2"/>
		<path fill="none" stroke="#000000" stroke-width="0.25" d="M476.2,511c0,0,0.3,0.3,0.7,0.9c1.199,1.899,2.6,6.199-10.101,6.699
			c0,0-58.2-4.1-65.5-5.399c-0.8-0.101-1-0.2-0.5-0.3c2-0.301,1.601,0,0.5,0.3c-1.3,0.399-3.6,1-3.6,1s-57.9,7.5-67.3-3.101
			c0,0-23.301-31.5-22.601-45.899c0,0-58.5,0.6-52.2-47.2c0,0,12-82.4,22-119.5c0,0,13.8-137.1-22.6-153.5
			c-9.7-4.3-19.7-10.8-29.1-17.9c-34.4-26.2-60.6-62.2-30-42.5c0,0,38.1,21.1,24.5,10.1c-96.5-78.5,19.7-15.1,22-13.9"/>
		<path fill="none" stroke="#000000" stroke-width="0.25" d="M400.8,512.8c0,0-32.7-29.6-17-55.3"/>
		<path fill="none" stroke="#000000" stroke-width="0.25" d="M547.3,341.7c0,0,10.4,5.1,22.4,14c17.1,12.7,37.2,33.1,34.3,57.1
			c0,0-7.4,13.7-17,5.4c-0.9-0.8-1.8-1.7-2.7-2.9c-6.6-8.399,5.3-13.2,5.3-13.2"/>
		<path fill="none" stroke="#000000" stroke-width="0.25" d="M586.7,418.5c0,0-16,14.4-18,0c-0.5-3.5-0.101-8.7,1.5-16.2"/>
		<path fill="none" stroke="#000000" stroke-width="0.25" d="M557,411.8c0,0-17.3,9.3-9.7-19c0,0-1.6-5.8-8.6-9.399
			c-0.2-0.101-0.4-0.2-0.5-0.301c-2.7-1.3-6.101-2.199-10.4-2.3"/>
		<path fill="none" stroke="#000000" stroke-width="0.25" d="M558.6,399.6c0,0-1.199,6.2-1.3,12.101c-0.1,7.7,1.5,14.899,10,6.899"
			/>
		<path fill="none" stroke="#000000" stroke-width="0.25" d="M447.9,168.8c0,0-8.301,7-13.801,16.6c-2.899,5-5,10.8-4.699,16.6
			c0.1,2.4,0.5,4.7,1.5,7.1c2.399,6.1,8,12,18.5,17.1c0.3,0.2,0.699,0.3,1,0.5c3.199,1.5,7.3,2,12.6,0.6c0.9-0.2,1.8-0.5,2.7-0.8
			c10.7-3.8,25.399-14.6,45-38.1l-4.4-15.7c0,0-26.399-0.6-27-3.8c-0.3-1.6-4.399-3.3-6.3-6.9l0,0c-1.9-3.6-1.6-9.1,6.9-18.2
			c0,0,1.399-1.3,3.899-2.9c4.5-2.9,12.3-6.8,21.101-5.4l0,0c0.1,0,0.199,0,0.3,0.1c1.6,0.3,3.2,0.7,4.899,1.4
			c0,0,10.801,5.4,11.9,9.7c0.1,0.3,0.1,0.7,0.1,1L506.4,172.8"/>
		<path fill="none" stroke="#000000" stroke-width="0.25" d="M551.1,138c1.7,0.3,11.101,2.8,18.101,8.8c5.1,4.3,8.899,10.3,7.7,18.4
			c-0.7,5.1-3.4,11-9,17.9c-0.7,0.9-1.5,1.8-2.301,2.7c0,0-2.6,1.5-7.199,3.1l0,0c-0.2,0.1-0.301,0.1-0.5,0.2
			c-9.4,3.2-26.7,6.7-47-0.8c0,0,6,6.6,5.199,13.7c-0.5,4.2-4.8,9.6-10,12"/>
		<polyline fill="none" stroke="#000000" stroke-width="0.25" points="547.3,154.4 569.2,146.8 571,146.1 625.3,127.3 		"/>
		<polyline fill="none" stroke="#000000" stroke-width="0.25" points="547.9,166.9 576.9,165.1 630.3,161.9 		"/>
		<polyline fill="none" stroke="#000000" stroke-width="0.25" points="547.9,180.1 567.9,183 625.3,191.5 		"/>
		<polyline fill="none" stroke="#000000" stroke-width="0.25" points="464.3,179.5 434.1,185.4 416.2,189 397,192.7 		"/>
		<polyline fill="none" stroke="#000000" stroke-width="0.25" points="468.7,194 430.9,209.1 402.6,220.4 		"/>
		<polyline fill="none" stroke="#000000" stroke-width="0.25" points="476.2,204.7 449.4,226.2 415.9,253.1 		"/>
		<path fill="none" stroke="#000000" stroke-width="0.25" d="M516,202c0,0,7.2,4.1,16,1"/>
		<polygon fill="none" stroke="#000000" stroke-width="0.25" points="510.5,261.1 474.5,246.6 474.5,287 512.7,270.7 541.8,276.7 
			540.1,239.6 		"/>
		<path fill="none" stroke="#000000" stroke-width="0.25" d="M510.5,261.1c3.1-0.2,5.8,1.9,5.9,4.7c0.1,2.2-1.5,4.2-3.7,4.9
			c-0.5,0.2-1.101,0.3-1.7,0.3c-3.1,0.2-5.8-1.9-5.9-4.7C505,263.5,507.4,261.2,510.5,261.1z"/>
		<path fill="none" stroke="#000000" stroke-width="0.25" d="M633,496c0,0-41-14-16,16c0,0-8,21,15,20c0,0,7-24,74-34
			c0,0,29,28,31-1l-12-9c0,0,8-9.2,5-14c-11-18-20-6-27,5L633,496"/>
		<path fill="none" stroke="#000000" stroke-width="0.25" d="M629,509c0,0-8-5-12,3"/>
		<path fill="none" stroke="#000000" stroke-width="0.25" d="M713,486c0,0,8-2,12,2"/>
		<polyline fill="none" stroke="#000000" stroke-width="0.25" points="458,278 458.8,279.1 500,332 546.8,285.2 547,285 		"/>
		<polyline fill="none" stroke="#000000" stroke-width="0.25" points="225,127 225.7,127 297,127 312,80 		"/>
		<path fill="none" stroke="#000000" stroke-width="0.25" d="M581,385c0,6.6-5.6,12-12.5,12s-12.5-5.4-12.5-12s5.6-12,12.5-12
			S581,378.4,581,385z"/>
		<path fill="none" stroke="#000000" stroke-width="0.25" d="M540,383c0,0,7.7-31.7,29.7-27.3c0.399,0.1,0.899,0.2,1.3,0.3"/>
		<path fill="none" stroke="#000000" stroke-width="0.25" d="M511,484c0,0-0.5,0-1.4,0c-7.199,0-39.1,1.5-31.699,28.5
			c0,0.2,0.1,0.4,0.199,0.6"/>
		<path fill="none" stroke="#000000" stroke-width="0.25" d="M312.1,421.6c0,0-7.699,12.4-4.399,43.4"/>
	</g>
</g>
</svg>
