<?xml version="1.0" encoding="UTF-8" standalone="no"?>
<!-- Created with Inkscape (http://www.inkscape.org/) -->

<svg
   xmlns:dc="http://purl.org/dc/elements/1.1/"
   xmlns:cc="http://creativecommons.org/ns#"
   xmlns:rdf="http://www.w3.org/1999/02/22-rdf-syntax-ns#"
   xmlns:svg="http://www.w3.org/2000/svg"
   xmlns="http://www.w3.org/2000/svg"
   xmlns:sodipodi="http://sodipodi.sourceforge.net/DTD/sodipodi-0.dtd"
   xmlns:inkscape="http://www.inkscape.org/namespaces/inkscape"
   width="420.81284"
   height="278.16464"
   id="svg2"
   version="1.1"
   inkscape:version="0.48.0 r9654"
   sodipodi:docname="New document 1">
  <title
     id="title3837">Happy Panda</title>
  <defs
     id="defs4" />
  <sodipodi:namedview
     id="base"
     pagecolor="#ffffff"
     bordercolor="#666666"
     borderopacity="1.0"
     inkscape:pageopacity="0.0"
     inkscape:pageshadow="2"
     inkscape:zoom="1"
     inkscape:cx="179.45903"
     inkscape:cy="74.016592"
     inkscape:document-units="px"
     inkscape:current-layer="g3801"
     showgrid="false"
     fit-margin-top="0"
     fit-margin-left="0"
     fit-margin-right="0"
     fit-margin-bottom="0"
     inkscape:window-width="1013"
     inkscape:window-height="759"
     inkscape:window-x="0"
     inkscape:window-y="1"
     inkscape:window-maximized="0" />
  <metadata
     id="metadata7">
    <rdf:RDF>
      <cc:Work
         rdf:about="">
        <dc:format>image/svg+xml</dc:format>
        <dc:type
           rdf:resource="http://purl.org/dc/dcmitype/StillImage" />
        <dc:title>Happy Panda</dc:title>
        <dc:date>19/10/2010</dc:date>
        <dc:creator>
          <cc:Agent>
            <dc:title>Steve</dc:title>
          </cc:Agent>
        </dc:creator>
        <dc:description>Happy Panda Face</dc:description>
        <cc:license
           rdf:resource="http://creativecommons.org/licenses/publicdomain/" />
      </cc:Work>
      <cc:License
         rdf:about="http://creativecommons.org/licenses/publicdomain/">
        <cc:permits
           rdf:resource="http://creativecommons.org/ns#Reproduction" />
        <cc:permits
           rdf:resource="http://creativecommons.org/ns#Distribution" />
        <cc:permits
           rdf:resource="http://creativecommons.org/ns#DerivativeWorks" />
      </cc:License>
    </rdf:RDF>
  </metadata>
  <g
     inkscape:label="Layer 1"
     inkscape:groupmode="layer"
     id="layer1"
     transform="translate(-127.51463,-104.82728)">
    <g
       id="g3801"
       transform="matrix(-1,0,0,1,686.8421,0)">
      <path
         style="fill:#000000;stroke:#000000;stroke-width:0.72291636px;stroke-linecap:butt;stroke-linejoin:miter;stroke-opacity:1"
         d="M 175.63596,230.97396 C 106.56327,180.64082 139.26486,82.37881 236.69957,109.99211 349.51098,160.19037 310.50165,306.7809 175.63596,230.97396 z"
         id="path3777"
         inkscape:connector-curvature="0"
         sodipodi:nodetypes="ccc" />
      <path
         sodipodi:nodetypes="ccc"
         inkscape:connector-curvature="0"
         id="path3775"
         d="M 427.19453,147.96031 C 495.72628,89.23973 595.27788,140.55784 545.5135,231.7471 468.18957,333.81646 317.67745,266.94142 427.19453,147.96031 z"
         style="fill:#000000;stroke:#000000;stroke-width:0.76171291px;stroke-linecap:butt;stroke-linejoin:miter;stroke-opacity:1" />
      <path
         style="fill:#ffffff;stroke:#000000;stroke-width:0.48402828px;stroke-linecap:butt;stroke-linejoin:miter;stroke-opacity:1"
         d="m 424.20576,179.93985 c 45.71122,-35.54824 112.11295,-4.4813 78.9197,50.72281 -51.57568,61.79071 -151.96847,21.30593 -78.9197,-50.72281 z"
         id="path3797"
         inkscape:connector-curvature="0"
         sodipodi:nodetypes="ccc" />
      <path
         style="fill:#ffffff;stroke:#000000;stroke-width:0.48402828px;stroke-linecap:butt;stroke-linejoin:miter;stroke-opacity:1"
         d="m 424.20576,179.93985 c 45.71122,-35.54824 112.11295,-4.4813 78.9197,50.72281 -51.57568,61.79071 -151.96847,21.30593 -78.9197,-50.72281 z"
         id="path3799"
         inkscape:connector-curvature="0"
         sodipodi:nodetypes="ccc" />
      <path
         sodipodi:nodetypes="ccc"
         inkscape:connector-curvature="0"
         id="path3775-4"
         d="m 230.12411,239.16615 c -57.48699,-6.95982 -82.74386,-75.78158 -20.29931,-91.59181 80.13306,-7.53896 122.88665,91.90881 20.29931,91.59181 z"
         style="fill:#ffffff;stroke:#000000;stroke-width:0.48402828px;stroke-linecap:butt;stroke-linejoin:miter;stroke-opacity:1" />
      <path
         sodipodi:nodetypes="ccc"
         inkscape:connector-curvature="0"
         id="path2985"
         d="m 188,262.36218 c -2.39615,-184.343643 303.53597,-153.66614 303,-9 2.28952,173.39178 -311.51491,161.14612 -303,9 z"
         style="fill:#ffffff;fill-opacity:1;stroke:#000000;stroke-width:6.0999999;stroke-linecap:butt;stroke-linejoin:miter;stroke-miterlimit:4;stroke-opacity:1;stroke-dasharray:none" />
      <path
         style="fill:#000000;stroke:#000000;stroke-width:2.0293889px;stroke-linecap:butt;stroke-linejoin:miter;stroke-opacity:1"
         d="m 220.38857,201.75034 c -24.19612,82.32551 78.02476,87.44014 97.73419,43.34033 26.3985,-74.72664 -67.03585,-97.25274 -97.73419,-43.34033 z"
         id="path3757"
         inkscape:connector-curvature="0"
         sodipodi:nodetypes="ccc" />
      <path
         sodipodi:nodetypes="ccc"
         inkscape:connector-curvature="0"
         id="path3755"
         d="m 353.0826,213.17825 c -13.15669,88.08215 93.57715,78.82011 107.62201,30.67803 16.5417,-80.58204 -83.60501,-90.47019 -107.62201,-30.67803 z"
         style="fill:#000000;stroke:#000000;stroke-width:2.11553502px;stroke-linecap:butt;stroke-linejoin:miter;stroke-opacity:1" />
      <path
         sodipodi:type="arc"
         style="fill:#ffffff;fill-opacity:1;fill-rule:nonzero;stroke:none"
         id="path3761"
         sodipodi:cx="309"
         sodipodi:cy="243.86218"
         sodipodi:rx="28"
         sodipodi:ry="26.5"
         d="m 295.47773,220.65734 c 13.5411,-7.06806 30.57245,-2.4087 38.04059,10.40698 7.46815,12.81568 2.54505,28.93464 -10.99605,36.0027 -13.5411,7.06807 -30.57245,2.40871 -38.04059,-10.40697 -7.45228,-12.78846 -2.56745,-28.8727 10.92243,-35.96414"
         sodipodi:start="4.2083819"
         sodipodi:end="10.488562"
         sodipodi:open="true"
         transform="matrix(0.96429227,0,0,0.98113556,-11.966309,-6.8996777)" />
      <path
         transform="matrix(0.95192431,0,0,1,96.201755,-8)"
         sodipodi:open="true"
         sodipodi:end="10.488562"
         sodipodi:start="4.2083819"
         d="m 295.47773,220.65734 c 13.5411,-7.06806 30.57245,-2.4087 38.04059,10.40698 7.46815,12.81568 2.54505,28.93464 -10.99605,36.0027 -13.5411,7.06807 -30.57245,2.40871 -38.04059,-10.40697 -7.45228,-12.78846 -2.56745,-28.8727 10.92243,-35.96414"
         sodipodi:ry="26.5"
         sodipodi:rx="28"
         sodipodi:cy="243.86218"
         sodipodi:cx="309"
         id="path3759"
         style="fill:#ffffff;fill-opacity:1;fill-rule:nonzero;stroke:none"
         sodipodi:type="arc" />
      <path
         style="fill:#000000;stroke:#000000;stroke-width:1.31121957px;stroke-linecap:butt;stroke-linejoin:miter;stroke-opacity:1"
         d="m 295.74609,220.12647 c -26.08291,15.51748 -12.30466,26.91348 12.34256,23.08927 -41.89661,31.14824 -50.48036,-26.55136 -12.34256,-23.08927 z"
         id="path3765"
         inkscape:connector-curvature="0"
         sodipodi:nodetypes="ccc" />
      <path
         sodipodi:nodetypes="ccc"
         inkscape:connector-curvature="0"
         id="path3763"
         d="m 367.99962,245.36484 c 28.34429,9.68937 31.97798,-6.49796 15.4872,-21.77753 51.43839,12.04843 1.12257,50.71915 -15.4872,21.77753 z"
         style="fill:#000000;stroke:#000000;stroke-width:1.28920364px;stroke-linecap:butt;stroke-linejoin:miter;stroke-opacity:1" />
      <path
         sodipodi:nodetypes="ccc"
         inkscape:connector-curvature="0"
         id="path3767"
         d="m 312,281.36218 c -5.06919,-9.31993 38.62168,-15.99327 48,-6 3.50762,9.27502 -43.66391,19.55193 -48,6 z"
         style="fill:#000000;stroke:#000000;stroke-width:1px;stroke-linecap:butt;stroke-linejoin:miter;stroke-opacity:1" />
      <g
         id="g3819"
         transform="translate(21,12)">
        <path
           style="fill:#000000;stroke:#000000;stroke-width:1px;stroke-linecap:butt;stroke-linejoin:miter;stroke-opacity:1"
           d="m 231,286.36218 c 14.17522,101.36221 111.99362,53.4273 126,32 -37.71791,8.95991 -93.16264,12.24813 -126,-32 z"
           id="path3769"
           inkscape:connector-curvature="0"
           sodipodi:nodetypes="ccc" />
        <path
           style="fill:#000000;stroke:#000000;stroke-width:1px;stroke-linecap:butt;stroke-linejoin:miter;stroke-opacity:1"
           d="m 266.33638,333.2848 c -20.13885,13.92569 33.74021,35.95268 45.77239,8.72572 z"
           id="path3771"
           inkscape:connector-curvature="0"
           sodipodi:nodetypes="ccc" />
        <path
           style="fill:#ff00ff;stroke:#000000;stroke-width:1px;stroke-linecap:butt;stroke-linejoin:miter;stroke-opacity:1"
           d="m 268,331.86218 c 0.73875,21.84915 35.68615,21.11421 37.5,6 1.04723,-10.49158 -12.91278,-9.37806 -14,-5 -4.45542,3.59882 -7.86734,6.81482 -11,-1.5 -5.17728,-8.60568 -12.98965,-2.16765 -12.5,0.5 z"
           id="path3773"
           inkscape:connector-curvature="0"
           sodipodi:nodetypes="ccccc" />
      </g>
    </g>
  </g>
</svg>
