<?xml version="1.0" encoding="utf-8"?>
<!-- Generator: Adobe Illustrator 15.0.2, SVG Export Plug-In . SVG Version: 6.00 Build 0)  -->
<!DOCTYPE svg PUBLIC "-//W3C//DTD SVG 1.1//EN" "http://www.w3.org/Graphics/SVG/1.1/DTD/svg11.dtd">
<svg version="1.1" id="Layer_x5F_www.ABC-color.com"
	 xmlns="http://www.w3.org/2000/svg" xmlns:xlink="http://www.w3.org/1999/xlink" x="0px" y="0px" width="822px" height="567px"
	 viewBox="0 0 822 567" enable-background="new 0 0 822 567" xml:space="preserve">
<rect fill="#FFFFFF" width="822" height="567"/>
<polyline fill="none" stroke="#000000" points="16.4,539.9 17.7,547.9 19.6,540 21.4,547.9 22.8,539.9 "/>
<polyline fill="none" stroke="#000000" points="24.2,540 25.5,547.8 27.3,539.9 28.8,547.8 30.5,539.9 "/>
<polyline fill="none" stroke="#000000" points="31.8,539.9 33.1,547.6 34.9,539.9 36.5,547.6 37.9,539.9 "/>
<line fill="none" stroke="#000000" x1="51.4" y1="536.6" x2="51.4" y2="548.2"/>
<line fill="none" stroke="#000000" x1="62.1" y1="544" x2="64" y2="544"/>
<polyline fill="none" stroke="#000000" points="77.4,536.5 77.4,548.3 80.2,548.3 "/>
<path fill="none" stroke="#000000" d="M69.4,546.8c-0.3,0.8-0.9,1.3-1.4,1.3c-1.1,0-1.9-1.8-1.9-4c0-2.199,0.9-4,1.9-4
	c0.7,0,1.2,0.7,1.6,1.7"/>
<path fill="none" stroke="#000000" d="M72.5,548.3c-0.9,0-1.7-1.899-1.7-3.8c0-2.2,0.9-4,1.9-4s1.9,1.8,1.9,4s-0.6,3.7-1.4,3.7"/>
<path fill="none" stroke="#000000" d="M60.3,546.6c-0.4,0.801-0.9,1.301-1.4,1.301c-1.1,0-1.9-1.801-1.9-4c0-2.2,0.9-4,1.9-4
	c0.7,0,1.2,0.699,1.6,1.699"/>
<path fill="none" stroke="#000000" d="M51.4,541.8c0.3-0.6,1.3-0.6,1.8-0.6c0.7,0,1.7,1,1.7,3.3c0,1.3,0,2.3-0.9,2.9
	c-0.2,0.199-0.8,0.399-1.1,0.399"/>
<path fill="none" stroke="#000000" stroke-width="1.0581" d="M45.1,540.5c0,0,3.6-3.2,3.3,2.4c0,0-0.1,3.5,0.1,4.399
	c0.1,0.4,0.9,0.4,0.9,0.4"/>
<path fill="none" stroke="#000000" d="M40.9,547.9c0.7,0,0.7-1.101,0-1.101C40.2,546.8,40.2,547.9,40.9,547.9L40.9,547.9z"/>
<path fill="none" stroke="#000000" d="M82.2,548.5c-0.8,0-1.2-2.2-1.2-4c0-2.2,0.9-4,1.9-4s1.9,1.8,1.9,4s-0.9,4-1.9,4"/>
<line fill="none" stroke="#000000" x1="86.7" y1="539.9" x2="86.7" y2="548.7"/>
<path fill="none" stroke="#000000" d="M90.1,541.1c0,0-2.2-2.3-3.4,1.4"/>
<line fill="none" stroke="#000000" x1="107.9" y1="540.3" x2="107.9" y2="548.8"/>
<path fill="none" stroke="#000000" d="M111.6,548.8v-6c0,0-1.5-3.899-3.7,0"/>
<path fill="none" stroke="#000000" d="M115,548.8v-6.1c0,0-1-3.601-3.5-0.2"/>
<path fill="none" stroke="#000000" d="M99.3,546.9c-0.3,0.8-0.9,1.3-1.4,1.3c-1.1,0-1.9-1.8-1.9-4s0.9-4,1.9-4
	c0.7,0,1.2,0.7,1.6,1.7"/>
<path fill="none" stroke="#000000" d="M102.9,548.1c-1.1-0.5-2.2-7.699,0.9-7.899c1.1-0.101,1.9,1.8,1.9,4s-0.9,4-1.9,4"/>
<path fill="none" stroke="#000000" d="M92.4,548.6c0.7,0,0.7-1.1,0-1.1C91.7,547.5,91.7,548.6,92.4,548.6L92.4,548.6z"/>
<path fill="none" stroke="#000000" d="M48.4,544.4c-0.3-0.601-0.6-1.4-1.7-1.4c-0.7,0-1.6,0.1-1.6,2.4c0,1.3,0.5,1.8,0.9,2
	c0.2,0.1,0.8,0.399,1.1,0.399"/>
<path fill="#555555" d="M644.4,461.6c3-0.199,7,1.2,5,8l0.1,0.801v0.1l-1.2,0.2c-4.5-0.601-8.3-1.101-12-1.4
	C637.4,466.9,641,461.6,644.4,461.6z"/>
<path fill="#777777" d="M625.9,468.6c3-9.3,8.6-10.8,10.5,0.601C632.8,468.9,629.5,468.7,625.9,468.6z"/>
<path fill="#555555" d="M614.4,459.6c4.899-2.6,12.199,0.801,11.5,9c-4.301-0.1-8.9-0.1-14.5,0c-0.101-4.1,0.3-6.699,2-9H614.4z"/>
<path fill="#555555" d="M557.4,465c2.199,2.1,4.3,3,4,7.7v1h1c-6.5,0.6-13.2-0.7-19.5-2.8l0.1-0.4c0.4-2.5,0.5-4.4,0.3-6h0.4
	C544.8,464.5,551,459.8,557.4,465z"/>
<path fill="#777777" d="M535.5,458.6c0.4,0.4,1,0.2,1.7,0.301c2.8,0.199,5.6,1,6.1,5.5c0.2,1.5,0.101,3.5-0.3,6l-0.1,0.399
	c-3.601-1.2-7.101-2.6-10.4-4l0.2-0.399c0-1.9,0.1-4.101,0.1-6.2h0.101C533,460.3,535.4,458.6,535.5,458.6z"/>
<path fill="#444444" d="M532.8,460.3c0.101,2.101,0,4.3-0.1,6.2l-0.2,0.4c-0.1,0-0.2-0.101-0.3-0.101c-0.101-0.1-0.3-0.1-0.4-0.2
	c-3-1.3-5.8-2.699-8.5-3.899c-0.5-5.101,0.8-8.601,4-10l0.5-0.2l0.5,0.2C531.8,452,532.7,455.9,532.8,460.3z"/>
<path fill="#555555" d="M272.4,481.6c-1.5-8.399,19.3-11.1,17,0l0.2,1.301l-1.2-0.301c-5,0-10,0-15,0l-1.3,0.2L272.4,481.6z"/>
<linearGradient id="SVGID_1_" gradientUnits="userSpaceOnUse" x1="49.4272" y1="265.2285" x2="720.5439" y2="265.2285" gradientTransform="matrix(1 0 0 -1 8.3398 543.04)">
	<stop  offset="0" style="stop-color:#7B7977"/>
	<stop  offset="0.0073" style="stop-color:#797775"/>
	<stop  offset="0.1069" style="stop-color:#64625E"/>
	<stop  offset="0.2138" style="stop-color:#56534E"/>
	<stop  offset="0.3331" style="stop-color:#4D4A44"/>
	<stop  offset="0.4888" style="stop-color:#4A4741"/>
	<stop  offset="0.6944" style="stop-color:#48443E"/>
	<stop  offset="0.852" style="stop-color:#413C34"/>
	<stop  offset="0.9936" style="stop-color:#352E24"/>
	<stop  offset="1" style="stop-color:#342D23"/>
</linearGradient>
<path fill="url(#SVGID_1_)" d="M255.4,463.6c-5.3-1.8-8.6,1.4-12.7,0.5c-1.3-0.3-2.8-1-4.3-2.5c-4.7,0.601-6.7,4-8,8
	c-2.4,1.801-4.4,0.4-7.2,0.2c-0.5-1.2-0.3-3.1-0.1-4.5c19.7-18,44.6-34.1,40.6-62c-0.8-5.6-2.9-10.5-4-16
	c-3.7-18.7-2.9-40.3-3.1-55.899c-5.8-2.101-12.1-1.801-16.9,2.199c-0.6,2.5-1.4,5.2-3.3,7c-0.1,0.2-0.3,0.4-0.4,0.601
	c-3.1,5-6.8,9.6-10.8,13.7c-12.4,12.6-28.9,20.3-47.1,20.399c-14.8,32.601-28.2,63.9-65,67c-12.8,1.101-24.9-1.2-39,0.601
	c-0.7-0.601-1.7-1-3-1c-0.3-0.4-0.6-0.7-1-1.101c-0.5-9.3-8.1-17.1-7.8-26.2c-0.3-1-0.6-2-1.3-2.699c-1.4-15.2-7.1-38,1.1-53.5
	c10.5-20,43.3-30,31.9-67.5c-1.9-6.4-10.2-14.7-10.9-23.3c-0.4-5,1.8-10.1,9.4-14.8c0.3-0.3,0.7-0.6,1.1-1c0.2-19.1-1-37.8-4.5-56.5
	c11.6,4.4,13.6,19.3,18,29.4c0.5,0.2,0.8,0.5,1.2,0.8c0.1-0.2,0.2-0.4,0.4-0.6c-2.9-12.9,6.1-23.2,13.9-34.1
	c14-19.5,29.5-36.9,51.4-45.6c2.7-1,5.3-1.9,8-3c15.8-6.5,28-18.8,43-25c13.7-5.7,29.9-9.8,44-15c6.2-2.3,13.4-5.1,21-6
	c38-4.6,90.5,4.1,132-2c26.6-3.9,50.8-20.2,82-23c26.2-2.4,70.2-1.4,90,6.6c14.9,6,28.3,14.4,42,24c24.5,17.1,48.9,28.3,64.5,50.5
	c3.5,5,6.8,9.9,9.9,14.9c12.3,20.2,20.1,41.8,18.199,74.3c-0.3,5-0.8,10.2-1.6,15.7c-1.9,13.7-6.2,22.9-19.2,23.8
	c-7.3,4.4-10.7,18.3-12.8,27.2c-2.7,11.5,5.1,19.1,8.6,35c6.101,28.2-3.399,52.899-12.6,74c-5.2,11.899-11.3,21.6-12.4,33
	c-0.6,6.399,2.301,12.899-5,17.6c-7.899,2.2-16,4.601-24.199,2.5l-0.101-0.8c2-6.8-2-8.2-5-8c-3.399-0.1-6.899,5.3-8,7.6l0,0
	c-1.8-11.399-7.5-9.899-10.5-0.6l0,0c0.7-8.2-6.6-11.6-11.5-9h-1c0.101-0.2,0.3-0.4,0.4-0.6c9.6-14.2,22.3-14.101,27.3-29.7
	c2.4-7.4,3.5-13,2.8-21.2c-0.6-8.8-6.7-15.8-10.5-23.5c-0.2,0.1-0.399,0.2-0.7,0.3c-8.5,17.3-35.899,67-50.1,77.9
	c-5.6,4.3-12.7,6.5-18,10c-1.2,0.1-2.4,0.3-3.3,0.7v-1c0.3-4.7-1.8-5.601-4-7.7c-6.3-5.2-12.601-0.5-13.7-0.5h-0.4
	c-0.6-4.5-3.399-5.3-6.1-5.5c-0.7-0.101-1.3,0.1-1.7-0.3c-0.1,0-2.5,1.699-2.7,1.699h-0.1c-0.1-4.399-1-8.3-4.4-7.699l-0.5-0.2
	l-0.5,0.2c9.601-11.5,21.5-16.601,30.2-31.801c8.8-15.3,21-27.899,19.5-49.5c1.7-3.199,4.3-6.3,3.8-10.199
	c-0.8,0.199-1.8,0.199-2.3,0.699c-39.8,13-81.8,37.301-124.7,30.801c-1.3-0.2-2.5-0.4-3.8-0.7c-10.6-2.101-20-7.601-32-7
	c-24.8-10.8-51.6-15.7-77.2-24.8c-1.1,0.1-2,0.5-2.5,0.5c-3.3,4.5-4.3,10.199-5.5,15.5c-0.6,5.199-1,10.3-1.5,15.5
	c2.5,11.899,1.5,32-1.699,49.3c-4.801,25.6-9.5,54.6-41.3,41.7l1.2,0.3l-0.2-1.3c2.3-11.101-18.5-8.4-17,0l-0.3,1.199l1.3-0.199
	c-0.8,0.699-2.5,1.3-4.7,0.3l0.1-0.2l1.3,0.4l-0.7-1.5c-1.7-9.4-11.3-6.2-17.8-5.4c0.1-0.9,0.2-1.5,0.2-1.5c-0.2-2-0.3-4-3.3-4.2
	c0.8-1.5,2.3-2.3,3.9-3.1s3.2-1.5,4.1-2.9L255.4,463.6z M127.9,289.1c13.9,26.801,32.8-19.8,8.1-15.899
	C129.6,274.2,124.5,282.1,127.9,289.1z"/>
<path fill="#555555" d="M248.7,482.3c1.8-0.8,2.6-4.1,2.8-6c6.5-0.899,16.2-4.1,17.8,5.4l0.7,1.5l-1.3-0.4l-0.4-0.1
	c-6.6,0-13.1,0-19.7,0v-0.4H248.7z"/>
<path fill="#777777" d="M248.4,470.6c3,0.2,3.2,2.2,3.3,4.2c0,0,0,0.601-0.2,1.5c-0.3,2-1,5.2-2.8,6v0.3c-0.4,0-0.9,0-1.3,0
	c-2.7-2-2.2-7.1-4-10C244,473,248.4,470.6,248.4,470.6z"/>
<path fill="#777777" d="M242.7,464.1c4,0.9,7.4-2.3,12.7-0.5l1,1c-0.9,1.4-2.5,2.2-4.1,2.9c-1.6,0.8-3.1,1.5-3.9,3.1
	c0,0-4.3,2.301-5,2c-0.9-0.399-2-0.6-3.2-0.8l0,0C241.9,470,242.7,464.1,242.7,464.1z"/>
<path fill="#555555" d="M238.4,461.6c1.6,1.5,3,2.2,4.3,2.5c0,0-0.8,5.801-2.5,7.7l0,0c-3-0.3-6.6-0.1-8.8-1.2l-1.8-0.199l0.8-0.801
	C231.7,465.6,233.7,462.3,238.4,461.6z"/>
<path fill="#0066CC" d="M130.4,289.6c-4-16.5,21-8.2,9,4c-2,0-2.3,0.7-6,0C132,293.3,130.7,290.9,130.4,289.6z"/>
<path fill="#009999" d="M130.4,289.6c0.3,1.301,1.7,3.7,3,4c3.7,0.7,4,0,6,0C151.4,281.5,126.4,273.1,130.4,289.6z M136,273.2
	c24.8-3.9,5.8,42.7-8.1,15.899C124.5,282.1,129.6,274.2,136,273.2z"/>
<path fill="none" stroke="#000000" d="M649.5,470.4L649.5,470.4l-1.1,0.3c-4.5-0.601-8.301-1.101-12-1.4"/>
<path fill="none" stroke="#000000" d="M636.4,469.2c-3.5-0.3-6.9-0.5-10.5-0.601"/>
<path fill="none" stroke="#000000" d="M625.9,468.6c-4.301-0.1-8.9-0.1-14.5,0c-0.101-4.1,0.3-6.699,2-9"/>
<path fill="none" stroke="#000000" d="M240.2,471.8c-3-0.3-6.6-0.1-8.8-1.2l-1.8-0.199l0.8-0.801"/>
<path fill="none" stroke="#000000" d="M243.4,472.6c-0.9-0.399-2-0.6-3.2-0.8l0,0c1.7-1.8,2.5-7.7,2.5-7.7"/>
<path fill="none" stroke="#000000" d="M248.7,482.6c-0.4,0-0.9,0-1.3,0c-2.7-2-2.2-7.1-4-10c0.7,0.301,5-2,5-2"/>
<path fill="none" stroke="#000000" d="M288.4,482.6c-5,0-10,0-15,0"/>
<path fill="none" stroke="#000000" d="M268.8,482.8l-0.4-0.1c-6.6,0-13.1,0-19.7,0v-0.3c1.8-0.801,2.6-4.101,2.8-6"/>
<path fill="none" stroke="#000000" d="M561.4,473.6h1c-6.5,0.601-13.2-0.699-19.5-2.8"/>
<path fill="none" stroke="#000000" d="M543.3,464.5c0.2,1.5,0.101,3.5-0.3,6l-0.1,0.4c-3.601-1.2-7.101-2.601-10.4-4"/>
<path fill="none" stroke="#000000" d="M532.8,460.3c0.101,2.101,0,4.3-0.1,6.2l-0.2,0.4c-0.1,0-0.2-0.101-0.3-0.101
	c-0.101-0.1-0.3-0.1-0.4-0.2c-3-1.3-5.8-2.699-8.5-3.899c-0.5-5.101,0.8-8.601,4-10"/>
<path fill="none" stroke="#000000" d="M133.4,293.6c3.7,0.7,4,0,6,0c12-12.2-13-20.5-9-4C130.7,290.9,132,293.3,133.4,293.6z"/>
<path fill="none" stroke="#000000" d="M561.4,473.6v-1c0.3-4.699-1.801-5.6-4-7.699c-6.301-5.2-12.601-0.5-13.7-0.5h-0.4
	c-0.6-4.5-3.399-5.301-6.1-5.5c-0.7-0.101-1.3,0.1-1.7-0.301c-0.1,0-2.5,1.7-2.7,1.7h-0.1c-0.101-4.399-1-8.3-4.4-7.7l-0.5-0.199
	l-0.5,0.199c9.601-11.5,21.5-16.6,30.2-31.8c8.8-15.3,21-27.899,19.5-49.5c1.7-3.2,4.3-6.3,3.8-10.2c-0.8,0.2-1.8,0.2-2.3,0.7
	c-39.8,13-81.8,37.3-124.7,30.8c-1.3-0.199-2.5-0.399-3.8-0.699c-10.6-2.101-20-7.601-32-7c-24.8-10.801-51.6-15.7-77.2-24.801
	c-1.1,0.101-2,0.5-2.5,0.5c-3.3,4.5-4.3,10.2-5.5,15.5c-0.6,5.2-1,10.301-1.5,15.5c2.5,11.9,1.5,32-1.7,49.301
	c-4.8,25.6-9.5,54.6-41.3,41.699l1.2,0.301l-0.2-1.301c2.3-11.1-18.5-8.399-17,0l-0.3,1.2l1.3-0.2c-0.8,0.7-2.5,1.301-4.7,0.301
	l0.1-0.2l1.3,0.399l-0.7-1.5c-1.7-9.399-11.3-6.199-17.8-5.399c0.1-0.9,0.2-1.5,0.2-1.5c-0.2-2-0.3-4-3.3-4.2
	c0.8-1.5,2.3-2.3,3.9-3.1c1.6-0.801,3.2-1.5,4.1-2.9l-1-1c-5.3-1.8-8.6,1.4-12.7,0.5c-1.3-0.3-2.8-1-4.3-2.5c-4.7,0.6-6.7,4-8,8
	c-2.4,1.8-4.4,0.4-7.2,0.2c-0.5-1.2-0.3-3.101-0.1-4.5c19.7-18,44.6-34.101,40.6-62c-0.8-5.601-2.9-10.5-4-16
	c-3.7-18.7-2.9-40.3-3.1-55.9c-5.8-2.1-12.1-1.8-16.9,2.2c-0.6,2.5-1.4,5.2-3.3,7c-0.1,0.2-0.3,0.4-0.4,0.6
	c-3.1,5-6.8,9.601-10.8,13.7c-12.4,12.601-28.9,20.3-47.1,20.4c-14.8,32.6-28.2,63.899-65,67c-12.8,1.1-24.9-1.2-39,0.6
	c-0.7-0.6-1.7-1-3-1c-0.3-0.399-0.6-0.7-1-1.1c-0.5-9.3-8.1-17.101-7.8-26.2c-0.3-1-0.6-2-1.3-2.7c-1.4-15.2-7.1-38,1.1-53.5
	c10.5-20,43.3-30,31.9-67.5c-1.9-6.399-10.2-14.7-10.9-23.3c-0.4-5,1.8-10.1,9.4-14.8c0.3-0.3,0.7-0.6,1.1-1
	c0.2-19.1-1-37.8-4.5-56.5c11.6,4.4,13.6,19.3,18,29.4c0.5,0.2,0.8,0.5,1.2,0.8c0.1-0.2,0.2-0.4,0.4-0.6
	c-2.9-12.9,6.1-23.2,13.9-34.1c14-19.5,29.5-36.9,51.4-45.6c2.7-1,5.3-1.9,8-3c15.8-6.5,28-18.8,43-25c13.7-5.7,29.9-9.8,44-15
	c6.2-2.3,13.4-5.1,21-6c38-4.6,90.5,4.1,132-2c26.6-3.9,50.8-20.2,82-23c26.2-2.4,70.2-1.4,90,6.6c14.9,6,28.3,14.4,42,24
	c24.5,17.1,48.9,28.3,64.5,50.5c3.5,5,6.8,9.9,9.9,14.9c12.3,20.2,20.1,41.8,18.199,74.3c-0.3,5-0.8,10.2-1.6,15.7
	c-1.9,13.7-6.2,22.9-19.2,23.8c-7.3,4.4-10.7,18.3-12.8,27.2c-2.7,11.5,5.1,19.101,8.6,35c6.101,28.2-3.399,52.9-12.6,74
	c-5.2,11.9-11.3,21.601-12.4,33c-0.6,6.4,2.301,12.9-5,17.601c-7.899,2.2-16,4.6-24.199,2.5l-0.101-0.8c2-6.801-2-8.2-5-8
	c-3.399-0.101-6.899,5.3-8,7.6l0,0c-1.8-11.4-7.5-9.9-10.5-0.6l0,0c0.7-8.2-6.6-11.601-11.5-9h-1c0.101-0.2,0.3-0.4,0.4-0.601
	c9.6-14.2,22.3-14.1,27.3-29.7c2.4-7.399,3.5-13,2.8-21.199c-0.6-8.801-6.7-15.801-10.5-23.5c-0.2,0.1-0.399,0.199-0.7,0.3
	c-8.5,17.3-35.899,67-50.1,77.899c-5.6,4.301-12.7,6.5-18,10C563.4,473,562.3,473.2,561.4,473.6z"/>
<path fill="none" stroke="#000000" d="M127.9,289.1c13.9,26.801,32.8-19.8,8.1-15.899C129.6,274.2,124.5,282.1,127.9,289.1z"/>
<path fill="none" stroke="#000000" stroke-linecap="round" d="M331.9,392.1c-5.301-4.399-8.801-12.1-15.5-14.5"/>
<path fill="none" stroke="#000000" stroke-linecap="round" d="M333.4,376.6c-7.301-1.8-12.301-8.6-18-13"/>
<path fill="none" stroke="#000000" stroke-linecap="round" d="M338.9,361.1c-8.4-8.199-17.301-15.3-24.5-24.5"/>
<path fill="none" stroke="#000000" stroke-linecap="round" d="M581.4,361.6c-0.2-8.399-0.5-17.399,4.8-24.199
	c-1-16.101,9.8-28.101,22.2-36.801"/>
<path fill="none" stroke="#000000" stroke-linecap="round" d="M633.9,385.1c0.8-18.8,8.199-36.699,13.5-54.5"/>
<path fill="none" stroke="#000000" stroke-linecap="round" d="M644.4,408.6c7.399,1.301,12.199-4.899,18-8"/>
<path fill="none" stroke="#000000" stroke-linecap="round" d="M708.4,281.6c10.5-15.6,13.399-36.7,9-55"/>
<path fill="none" stroke="#000000" stroke-linecap="round" d="M108.9,226.1c3.4,9.6-3.3,15.9-8.5,22.5"/>
<path fill="none" stroke="#000000" stroke-linecap="round" d="M62.9,415.1c15.4,0.7,79.9,13.301,77.5-15.5c0-0.3,0-0.699,0-1"/>
<path fill="none" stroke="#000000" stroke-linecap="round" d="M144.4,398.6c-1.3,0-2.7,0-4,0l-3.2-0.5"/>
<path fill="none" stroke="#000000" stroke-linecap="round" d="M236.9,341.1c-0.1-0.199-0.2-0.399-0.4-0.699
	c1.6-21.9-0.9-49.2-5.9-80.101c-5.2-31.7-9.3-76.1-46.2-76.8"/>
<path fill="none" stroke="#000000" stroke-linecap="round" d="M240.2,334.1c-0.1-0.199-0.1-0.3-0.2-0.5
	c-0.7-37.5,6.1-77.399,0.6-114.2c-1.9-12.5-8.3-29.1-10.7-39.3"/>
<path fill="none" stroke="#000000" stroke-linecap="round" d="M621.4,345.6c13.399-8,24.899-16.699,37.8-31.199
	C677.1,294.3,696.1,286.8,699.4,261.6"/>
<path fill="none" stroke="#000000" stroke-linecap="round" d="M175.4,244.6c-5.8-14.7,5.9-30.1,16.2-39.8
	c12.3,0.9,10,18.6,11.8,27.8"/>
<path fill="none" stroke="#000000" stroke-linecap="round" d="M123.4,296.6c-0.2-0.1-0.5-0.199-0.7-0.3
	c-8.4-11.899-5.3-34.8,12.7-34.7"/>
<path fill="none" stroke="#000000" stroke-linecap="round" d="M166.4,280.6c-18.6,27-8.1,63.6,18,82"/>
<path fill="none" stroke="#000000" stroke-linecap="round" d="M94.4,387.6c0-5.6,8-9.3,11.8-4.8c0.2,0.9,0.6,1.4,1,2
	c0,1.3,0.4,2.3,1.2,2.8"/>
<path fill="none" stroke="#000000" stroke-linecap="round" d="M84.4,388.6c-0.8-0.899-0.8-2.5-1.3-3.699c-0.6-0.7-1.3-1.4-1.9-2.101
	c-3.3-0.899-6.7-0.1-8.5,3c0,1.7-0.8,2.5-1.2,3.8"/>
<path fill="none" stroke="#000000" stroke-linecap="round" d="M577.4,399.6c3,0,6,0,9,0"/>
<path fill="none" stroke="#000000" stroke-linecap="round" d="M267.4,413.6c0.4-0.899,1-1.6,2-2"/>
<path fill="none" stroke="#000000" stroke-linecap="round" d="M292.4,425.6c1.9-0.5,2.7-1.6,4-2"/>
<path fill="none" stroke="#000000" stroke-linecap="round" d="M276.3,342.5c6.8,39.3,30.8,101.1-19.5,122.5"/>
</svg>
