<?xml version="1.0" encoding="utf-8"?>
<!-- Generator: Adobe Illustrator 15.0.2, SVG Export Plug-In . SVG Version: 6.00 Build 0)  -->
<!DOCTYPE svg PUBLIC "-//W3C//DTD SVG 1.1//EN" "http://www.w3.org/Graphics/SVG/1.1/DTD/svg11.dtd">
<svg version="1.1" id="Layer_x5F_www.ABC-color.com"
	 xmlns="http://www.w3.org/2000/svg" xmlns:xlink="http://www.w3.org/1999/xlink" x="0px" y="0px" width="822px" height="567px"
	 viewBox="0 0 822 567" enable-background="new 0 0 822 567" xml:space="preserve">
<rect display="none" fill="#FFFFFF" width="822" height="567"/>
<polyline fill="none" stroke="#000000" points="16.4,539.9 17.7,547.9 19.6,540 21.4,547.9 22.8,539.9 "/>
<polyline fill="none" stroke="#000000" points="24.2,540 25.5,547.8 27.3,539.9 28.8,547.8 30.5,539.9 "/>
<polyline fill="none" stroke="#000000" points="31.8,539.9 33.1,547.6 34.9,539.9 36.5,547.6 37.9,539.9 "/>
<line fill="none" stroke="#000000" x1="51.4" y1="536.6" x2="51.4" y2="548.2"/>
<line fill="none" stroke="#000000" x1="62.1" y1="544" x2="64" y2="544"/>
<polyline fill="none" stroke="#000000" points="77.4,536.5 77.4,548.3 80.2,548.3 "/>
<path fill="none" stroke="#000000" d="M69.4,546.8c-0.3,0.8-0.9,1.3-1.4,1.3c-1.1,0-1.9-1.8-1.9-4c0-2.199,0.9-4,1.9-4
	c0.7,0,1.2,0.7,1.6,1.7"/>
<path fill="none" stroke="#000000" d="M72.5,548.3c-0.9,0-1.7-1.899-1.7-3.8c0-2.2,0.9-4,1.9-4s1.9,1.8,1.9,4s-0.6,3.7-1.4,3.7"/>
<path fill="none" stroke="#000000" d="M60.3,546.6c-0.4,0.801-0.9,1.301-1.4,1.301c-1.1,0-1.9-1.801-1.9-4c0-2.2,0.9-4,1.9-4
	c0.7,0,1.2,0.699,1.6,1.699"/>
<path fill="none" stroke="#000000" d="M51.4,541.8c0.3-0.6,1.3-0.6,1.8-0.6c0.7,0,1.7,1,1.7,3.3c0,1.3,0,2.3-0.9,2.9
	c-0.2,0.199-0.8,0.399-1.1,0.399"/>
<path fill="none" stroke="#000000" stroke-width="1.0581" d="M45.1,540.5c0,0,3.6-3.2,3.3,2.4c0,0-0.1,3.5,0.1,4.399
	c0.1,0.4,0.9,0.4,0.9,0.4"/>
<path fill="none" stroke="#000000" d="M40.9,547.9c0.7,0,0.7-1.101,0-1.101C40.2,546.8,40.2,547.9,40.9,547.9L40.9,547.9z"/>
<path fill="none" stroke="#000000" d="M82.2,548.5c-0.8,0-1.2-2.2-1.2-4c0-2.2,0.9-4,1.9-4s1.9,1.8,1.9,4s-0.9,4-1.9,4"/>
<line fill="none" stroke="#000000" x1="86.7" y1="539.9" x2="86.7" y2="548.7"/>
<path fill="none" stroke="#000000" d="M90.1,541.1c0,0-2.2-2.3-3.4,1.4"/>
<line fill="none" stroke="#000000" x1="107.9" y1="540.3" x2="107.9" y2="548.8"/>
<path fill="none" stroke="#000000" d="M111.6,548.8v-6c0,0-1.5-3.899-3.7,0"/>
<path fill="none" stroke="#000000" d="M115,548.8v-6.1c0,0-1-3.601-3.5-0.2"/>
<path fill="none" stroke="#000000" d="M99.3,546.9c-0.3,0.8-0.9,1.3-1.4,1.3c-1.1,0-1.9-1.8-1.9-4s0.9-4,1.9-4
	c0.7,0,1.2,0.7,1.6,1.7"/>
<path fill="none" stroke="#000000" d="M102.9,548.1c-1.1-0.5-2.2-7.699,0.9-7.899c1.1-0.101,1.9,1.8,1.9,4s-0.9,4-1.9,4"/>
<path fill="none" stroke="#000000" d="M92.4,548.6c0.7,0,0.7-1.1,0-1.1C91.7,547.5,91.7,548.6,92.4,548.6L92.4,548.6z"/>
<path fill="none" stroke="#000000" d="M48.4,544.4c-0.3-0.601-0.6-1.4-1.7-1.4c-0.7,0-1.6,0.1-1.6,2.4c0,1.3,0.5,1.8,0.9,2
	c0.2,0.1,0.8,0.399,1.1,0.399"/>
<g id="XMLID_1_">
	<g>
		<path fill="#FFCC33" d="M778.2,227.5c7.5,14.8,7.8,33,6.3,46c-1.5,13.5-7.2,22.5-15.8,28c-10.9,6.9-26.4,8.1-44.2,5
			c-2.8-1.5-6-0.9-9-1c-0.2,26.3,3.1,68.7,0,98c-4,37.6-11.7,76.4-12,113c19.5-1.4,34.8,28.5,12,36c11.8-31.6-40.3-14.1-14,4
			c-5.8-0.1-12.1,0.8-17-3c-10.9,11.4-30.8,10.5-42,0c-4.6,2.4-14.3-1-19.5-1.8c13.9,1.7,13.3-21.601,0.5-21.2
			c-3.2,0.1-7.6,2-8.9,7.4l-2.399-0.7c-0.101-11.7,10.7-21.601,22.3-20.7c2.7-13.3,17.3-7.8,25.8-11.3
			c4-48.601-24.7-92.4-42.1-136.4c-0.2-0.1-0.5-0.2-0.7-0.3c-10.2,5-20.2,10.8-30.7,15.3c-0.1,0.2-0.2,0.5-0.3,0.7
			c-59.2,26.7-131.2,34.6-189-1c-1,0.1-2,0.1-2.9,0.3c-23.199,39.7-31.1,86.9-31.8,132.4c11.3,2,18.9,9.3,19.7,18.3
			c1.9,20.9-30,30.8-44,13c-11.4,4.3-24.8,1.9-34-6c-10.1,3.7-22.8,4.1-31-4c-7.2-10.6-5.5-27,5-35c1.5-1.2,3.4-1.9,5-3
			c8.9-2.6,18.2,0.2,25.9,4.7c3-27,5.399-55.601,5.6-83.2c-0.8-22.4-13.1-42.1-18.5-63.5c51.9-35.3,92.2-85.8,131-134
			c68.8-1.7,151.5,1.5,227,12c52.5,7.3,65.3,56,102,51c18.9-2.6,18.4-22.2,15-37c-10.3-44.8-55.6-42.6-87.2-82.7
			c-0.399-0.3-0.6-0.8-0.8-1.3c-0.2-1.7,1.5-3.3,3-5C705.1,196.9,759.6,191.1,778.2,227.5z M668,557c6.5,1.5,10.1-7.1,8.2-12.5
			c-5.601-9.4-23.5-7.8-24.601,4C652.2,555.7,662.2,560.9,668,557z M350,538c4.8,20.5,34.7,7.5,23.3-6.5c-4.8-5.8-14.899-4.8-21.8,1
			C351.9,534.6,350.5,536.1,350,538z M307.5,535.5c7.9,15.4,30.3,6.1,25.7-7C329.3,517.4,304.8,517.7,307.5,535.5z M274.5,526.5
			c6.8,13.1,23,7.4,22-3C295.4,512.7,273.5,511.2,274.5,526.5z"/>
		<path fill="#CC9933" d="M701.5,556.5c-26.3-18.1,25.8-35.6,14-4c-0.1,0.2-0.2,0.5-0.3,0.7C711.1,555.5,706.5,557,701.5,556.5z
			 M711.5,552.3c1.4-1.5,1.2-4,0.7-5.8c-1.3-1-3.101-1-4.7-0.7c-1.6,1.4-0.8,3.8-1,5.7C708.2,552.9,709.8,552.9,711.5,552.3z"/>
		<path fill="#666666" d="M712.2,546.5c0.5,1.8,0.7,4.3-0.7,5.8c-1.7,0.601-3.3,0.7-5-0.8c0.2-1.9-0.6-4.3,1-5.7
			C709.1,545.4,710.9,545.5,712.2,546.5z"/>
		<path fill="#CC9933" d="M706.2,121.5c1.1,7.9-2.9,13.8-7.601,19.6c-4.899,6-10.699,11.9-12.1,19.4c-1.5,1.7-3.2,3.3-3,5
			c-16-3.6-36.1-0.8-47.7-15c-0.7-5.7-1.1-11.6-1.1-17.5c0.1-22,5.399-44.5,17.8-62.2c1.7-1.3,3.9-1.4,6-1.3
			C679,81.7,690,104.6,706.2,121.5z"/>
		<path fill="#CC9933" d="M676.2,544.5c1.899,5.4-1.8,14-8.2,12.5c2.6-1.8,3.5-5.7,1.5-8.2c-1.6-0.399-3.4-0.399-4.7,0.7
			c-1,2.9-0.2,6.7,3.2,7.5c-5.8,3.9-15.8-1.3-16.4-8.5C652.7,536.7,670.6,535.1,676.2,544.5z"/>
		<path fill="#666666" d="M669.5,548.8c2,2.5,1.1,6.4-1.5,8.2c-3.4-0.8-4.2-4.6-3.2-7.5C666.1,548.5,667.9,548.4,669.5,548.8z"/>
		<path fill="#FFCC66" d="M618.2,368.8c17.399,44,46.1,87.8,42.1,136.4c-8.5,3.5-23.1-2-25.8,11.3c-11.6-0.9-22.4,9-22.3,20.7
			c-6.5,0.399-13.7-1.3-18.7-5.7c10.5,2.1,21.7-4.8,17.7-15c-5.101-12.9-23.101-5.2-23.101,5.4h-0.3c-0.6-13.5,2.8-24.801,27.8-23.4
			c14.801-9.9,16.9-29.4,14.801-40c-5.101-25.8-39.301-31.6-43.801-59c-0.8-5,0.601-9.8,0-15c0.101-0.2,0.2-0.5,0.301-0.7
			c10.5-4.5,20.5-10.3,30.699-15.3C617.7,368.6,618,368.7,618.2,368.8z"/>
		<path fill="#CC9933" d="M623.5,530.5c12.8-0.4,13.3,22.9-0.5,21.2c-0.2,0-0.4-0.101-0.6-0.101c-3.5-0.6-5.301-2.699-7.9-7.1
			c-0.4-2.6-0.3-4.8,0.1-6.6C615.9,532.5,620.3,530.6,623.5,530.5z M624.5,547.2c1.3-1.3,1.6-4.3-0.1-5.4c-0.9-0.3-1.9-0.2-2.9,0
			c-1.1,1.3-0.9,3.101-1,4.7C621.8,547.4,623.2,547.4,624.5,547.2z"/>
		<path fill="#666666" d="M624.4,541.8c1.699,1.101,1.399,4.101,0.1,5.4c-1.3,0.2-2.7,0.3-4-0.7c0.1-1.6-0.1-3.4,1-4.7
			C622.5,541.6,623.5,541.5,624.4,541.8z"/>
		<path fill="#CC9933" d="M611.2,516.5c4,10.2-7.3,17.1-17.7,15c-3.9-3.2-5.4-6.5-5.4-9.6C588.1,511.3,606.1,503.6,611.2,516.5z
			 M593.5,524.5c2.2,3.3,9.4,2.8,9-2c-0.9-3-5.4-3.9-7.7-1.8C594,521.9,593.7,523.2,593.5,524.5z"/>
		<path fill="#666666" d="M602.5,522.5c0.4,4.8-6.8,5.3-9,2c0.2-1.3,0.5-2.6,1.3-3.8C597.1,518.6,601.6,519.5,602.5,522.5z"/>
		<path fill="#CC9933" d="M436.3,162.5c2.8,19,3.5,40.6-8.5,59c-0.1,0.7-0.2,1.3-0.3,2c-38.8,48.2-79.1,98.7-131,134
			c-8.2,5.7-20,8.2-25,17c-21.6,18.8-38.6,45.5-66,56.8c-7.5-0.899-11.6-10.1-15.8-17c-18-29.8-37.2-64.899-52.8-102.2
			c-23-54.899-38.3-114.7-30.4-169.6c0.2-1.5,0.5-3,0.8-4.5c12.8-67.9,95.6-140.1,159.3-78.3c1.9,3.3,5.2,5.4,7.2,8.5
			c0.6,0.2,1.2,0.2,1.8,0.3c28.7-8,53.2-20.1,82-17C393.4,55.3,415.7,87.7,427.7,124.8C431.6,137.1,434.5,150,436.3,162.5z
			 M376.5,143.5c2.8-27.3-9.9-57.8-35-61c-20.5-2.6-36.5,11.8-38,41c-17.2-15.5-41-4.2-54.9,10.4c-3.2-4.6-7.3-9.6-13.1-11.4
			c4.3-14.4,2.9-30-12-34c-19.4-5.2-58.8,17.5-63,43c-3,17.8,6,45.4,31.8,44.7l0.5,0.3c-9.6,12.6-14.8,32.3-7.7,44.5
			c-2.1,1.9-3.9,4.5-3.5,7.5c-0.3-0.1-0.7-0.1-1-0.2c-36.9,1.4-6.6,40.6,3,54.2c3.8,11.1,4.9,23.7,12,29.8c12.8,11,38.1,5.7,50,2
			c25.9-8,56.4-45.1,60-65.8c1.4-8-1.199-16-3.199-23.8c-0.301-0.4-0.601-0.7-0.801-1.2c-0.1-0.6-0.199-1.1-0.5-1.5
			c-1.5-13.8,6.4-26,18.5-32.5c16.801-9.5,34.801-5.2,46.801-18C372.9,164.5,375.6,152.2,376.5,143.5z"/>
		<path fill="#FFCC66" d="M341.5,82.5c25.1,3.2,37.8,33.8,35,61c-0.9,8.7-3.6,21-10.2,28c-12,12.8-30,8.5-46.8,18
			c8.4-17.9,4.2-47-15.7-54.3c-0.7-3.8-0.1-7.8-0.3-11.7C305,94.3,321,79.9,341.5,82.5z"/>
		<path fill="#CC9933" d="M373.3,531.5c11.4,14-18.5,27-23.3,6.5c0.5-1.9,1.9-3.4,1.5-5.5C358.3,526.7,368.5,525.7,373.3,531.5z
			 M364.5,546.4c4-0.9,5.4-7.2,1.9-9.601c-1.301-0.3-2.601-0.3-3.9,0c-1.9,1.7-2.2,4.3-2,6.7C361.8,545,363.2,546,364.5,546.4z"/>
		<path fill="#666666" d="M366.4,536.8c3.5,2.4,2.1,8.7-1.9,9.601c-1.3-0.4-2.7-1.4-4-2.9c-0.2-2.4,0.1-5,2-6.7
			C363.8,536.5,365.2,536.5,366.4,536.8z"/>
		<path fill="#CC9933" d="M333.2,528.5c4.6,13.1-17.9,22.4-25.7,7C304.8,517.7,329.3,517.4,333.2,528.5z M320.5,540.5
			c4.6-0.9,4.3-10.5-1-10c-3.9,0.7-2.9,5.2-3,8C317.8,540,319.2,540.3,320.5,540.5z"/>
		<path fill="#666666" d="M319.5,530.5c5.3-0.5,5.6,9,1,10c-1.3-0.2-2.7-0.5-4-2C316.6,535.7,315.6,531.2,319.5,530.5z"/>
		<path fill="#FFCC33" d="M303.8,135.2c19.9,7.3,24.101,36.4,15.7,54.3c-12.1,6.5-20,18.8-18.5,32.5c0.3,0.4,0.4,1,0.5,1.5
			c0.2,0.5,0.5,0.8,0.8,1.2c2,7.8,4.601,15.8,3.2,23.8c-3.6,20.6-34.1,57.8-60,65.8c-11.9,3.7-37.2,9-50-2
			c-7.1-6.1-8.2-18.7-12-29.8c10.5,4,20.3-2.7,28.5-8.5c-2.7-5-4-10.5-6.5-15.5c17.9-0.7,44.4-10.4,45.7-31
			c-8.5-13.5-24.9-16.3-39.7-15c9.6-11.1,22-46.2,1-47.8c-7-0.5-14.1,4.4-19.8,11.8l-0.5-0.3c3.7-6.2,4.9-14.2,9.2-19.7
			c1.5-18.3,16.4-31.4,34-34c5.8,1.8,9.9,6.8,13.1,11.4c13.9-14.6,37.7-25.9,54.9-10.4C303.7,127.4,303.1,131.4,303.8,135.2z
			 M245.5,215.5c14.7,31.5,54.5-27.7,38.9-47C260.3,159.1,243.5,194.8,245.5,215.5z"/>
		<path fill="#FFCC66" d="M296.5,357.5c5.4,21.4,17.7,41.1,18.5,63.5c-8.9,26.4-22.3,52.1-31.5,78.5c-1.6,1.1-3.5,1.8-5,3
			c-10.5,8-12.2,24.4-5,35c-9.4,6.5-23.6,4.7-32-3c-8,1.8-21.6,5.8-25-5c12.5,0.3,15.5-24.5,3-28c-0.3,0-0.7,0-1,0
			c4.9-6.7,14.5-5.1,21.7-7.3c2.4-41.4,15.3-81.3,31.3-119.7C276.5,365.7,288.3,363.2,296.5,357.5z M256.5,533.5
			c5.1,0.1,10.4-3.7,10.9-9c-4.5-23.4-41.9,0.8-18.9,8.7c1.6,0.6,3.4,0.2,5,0.3C254.5,533.5,255.5,533.5,256.5,533.5z"/>
		<path fill="#CC9933" d="M296.5,523.5c1,10.4-15.2,16.1-22,3C273.5,511.2,295.4,512.7,296.5,523.5z M285.5,530.2
			c3.4-2.101,0.9-8.3-3-6.4c-1.6,1.4-0.8,3.8-1,5.7C282.8,530.4,284.2,530.4,285.5,530.2z"/>
		<path fill="#666666" d="M282.5,523.8c3.9-1.899,6.4,4.3,3,6.4c-1.3,0.2-2.7,0.3-4-0.7C281.7,527.6,280.9,525.2,282.5,523.8z"/>
		<path fill="#CCFFFF" d="M284.4,168.5c15.6,19.3-24.2,78.5-38.9,47C243.5,194.8,260.3,159.1,284.4,168.5z M278.2,191.2
			c-0.6-2.7-0.7-6-3.7-7.4c-14.9-2.3-25.7,15.2-24,28.7c1.2,2.4,3.3,4.5,6,4.9c8.4-1.1,17.3-8.3,18.7-16.6
			c-3.6-0.6-7.4-1.1-10.8-1.9C268.2,195.4,273.4,193.2,278.2,191.2z"/>
		<path fill="#000099" d="M274.5,183.8c3,1.4,3.1,4.7,3.7,7.4c-4.8,2-10,4.2-13.8,7.7c3.4,0.7,7.2,1.2,10.8,1.9
			c-1.4,8.3-10.3,15.6-18.7,16.6c-2.8-0.4-4.8-2.5-6-4.9C248.8,199,259.6,181.5,274.5,183.8z"/>
		<path fill="#CC9933" d="M267.4,524.5c-0.5,5.3-5.8,9.1-10.9,9c0.5-4.3,2.8-11.2-1.9-13.7c-3.2,3.9-1.4,9.101-1.1,13.7
			c-1.6-0.1-3.4,0.3-5-0.3C225.5,525.3,262.9,501.1,267.4,524.5z"/>
		<path fill="#666666" d="M254.6,519.8c4.7,2.5,2.4,9.4,1.9,13.7c-1,0-2,0-3,0C253.2,528.9,251.4,523.7,254.6,519.8z"/>
		<path fill="#FFCC66" d="M223.5,88.5c14.9,4,16.3,19.6,12,34c-17.6,2.6-32.5,15.8-34,34c-4.3,5.5-5.5,13.5-9.2,19.7
			c-25.8,0.7-34.7-26.9-31.8-44.7C164.7,106,204.1,83.3,223.5,88.5z"/>
		<path fill="#666666" d="M251.2,227.5c-1.3,20.6-27.8,30.3-45.7,31c-12.4-4.5-24.6-15.6-24-30c-0.4-3,1.4-5.6,3.5-7.5
			c7.4-5.8,17.4-7.3,26.5-8.5C226.3,211.2,242.7,214,251.2,227.5z"/>
		<path fill="#CC9933" d="M221.2,516.5c0.6-1.8,0.3-3.9,0-5.7c-2.1-0.7-4.5-0.1-6.7-0.3c-0.6-3.4,1.4-6.1,3-8.7
			c0.3-0.1,0.7-0.2,1-0.3c0.3,0,0.7,0,1,0c12.5,3.5,9.5,28.3-3,28c-1.7-3.1-0.3-6.9-2-10C216,516.7,219.3,518.3,221.2,516.5z"/>
		<path fill="#666666" d="M221.2,510.8c0.3,1.9,0.6,3.9,0,5.7c-1.9,1.7-5.2,0.2-6.7,3c-2.4,0.4-3.4,3-5.5,4.2
			c-3.3-4.101-0.8-13.9,5.5-13.2C216.7,510.7,219.1,510.1,221.2,510.8z"/>
		<path fill="#000099" d="M210.5,177.7c3.1,1.1,5.5,4.3,4.9,7.7c-3.2,3-8.6,5.1-12,8.5c2.8,1.5,6.7-0.1,9.8,0.9
			c-2.2,8.5-11.6,18.8-21.7,16.4c-2.4-1.1-2.9-3.7-4-5.7C187.5,193,196.7,177.5,210.5,177.7z"/>
		<path fill="#CCFFFF" d="M212.5,164.7c21,1.5,8.6,36.7-1,47.8c-9.1,1.2-19.1,2.7-26.5,8.5c-7-12.1-1.8-31.9,7.7-44.5
			C198.4,169.1,205.5,164.2,212.5,164.7z M215.4,185.4c0.6-3.4-1.8-6.6-4.9-7.7c-13.8-0.2-23,15.2-23,27.8c1.1,2,1.6,4.6,4,5.7
			c10,2.4,19.5-7.9,21.7-16.4c-3.1-1-7,0.6-9.8-0.9C206.8,190.5,212.2,188.5,215.4,185.4z"/>
		<path fill="#FFCC33" d="M205.5,258.5c2.5,5,3.8,10.5,6.5,15.5c-8.3,5.8-18,12.5-28.5,8.5c-9.6-13.6-39.9-52.8-3-54.2
			c0.3,0.1,0.7,0.1,1,0.2C180.9,242.9,193.1,254,205.5,258.5z"/>
	</g>
	<g>
		<path fill="none" stroke="#000000" stroke-width="0.5" d="M205.5,258.5c-12.4-4.5-24.6-15.6-24-30"/>
		<path fill="none" stroke="#000000" stroke-width="0.5" d="M211.5,212.5c-9.1,1.2-19.1,2.7-26.5,8.5"/>
		<path fill="none" stroke="#000000" stroke-width="0.5" d="M210.5,177.7c-13.8-0.2-23,15.2-23,27.8c1.1,2,1.6,4.6,4,5.7
			c10,2.4,19.5-7.9,21.7-16.4c-3.1-1-7,0.6-9.8-0.9c3.4-3.4,8.9-5.5,12-8.5C216,182,213.6,178.8,210.5,177.7z"/>
		<path fill="none" stroke="#000000" stroke-width="0.5" d="M183.5,282.5c10.5,4,20.3-2.7,28.5-8.5c-2.7-5-4-10.5-6.5-15.5
			c17.9-0.7,44.4-10.4,45.7-31c-8.5-13.5-24.9-16.3-39.7-15c9.6-11.1,22-46.2,1-47.8c-7-0.5-14.1,4.4-19.8,11.8"/>
		<path fill="none" stroke="#000000" stroke-width="0.5" d="M303.5,123.5c0.2,3.9-0.4,7.9,0.3,11.7c19.9,7.3,24.101,36.4,15.7,54.3"
			/>
		<path fill="none" stroke="#000000" stroke-width="0.5" d="M192.3,176.2c3.7-6.2,4.9-14.2,9.2-19.7c1.5-18.3,16.4-31.4,34-34"/>
		<path fill="none" stroke="#000000" stroke-width="0.5" d="M245.5,215.5c-2-20.7,14.8-56.4,38.9-47
			C300,187.8,260.2,247,245.5,215.5z"/>
		<path fill="none" stroke="#000000" stroke-width="0.5" d="M278.2,191.2c-4.8,2-10,4.2-13.8,7.7c3.4,0.7,7.2,1.2,10.8,1.9
			c-1.4,8.3-10.3,15.6-18.7,16.6c-2.8-0.4-4.8-2.5-6-4.9c-1.7-13.5,9.1-31,24-28.7C277.5,185.2,277.5,188.5,278.2,191.2z"/>
		<path fill="none" stroke="#000000" stroke-width="0.5" d="M715.5,552.5c-0.1,0.2-0.2,0.5-0.3,0.7c-4.101,2.3-8.7,3.8-13.7,3.3"/>
		<path fill="none" stroke="#000000" stroke-width="0.5" d="M706.5,551.5c1.7,1.4,3.3,1.4,5,0.8c1.4-1.5,1.2-4,0.7-5.8
			c-1.3-1-3.101-1-4.7-0.7C705.9,547.2,706.7,549.6,706.5,551.5z"/>
		<path fill="none" stroke="#000000" stroke-width="0.5" d="M669.5,548.8c-1.6-0.399-3.4-0.399-4.7,0.7c-1,2.9-0.2,6.7,3.2,7.5
			C670.6,555.2,671.5,551.3,669.5,548.8z"/>
		<path fill="none" stroke="#000000" stroke-width="0.5" d="M623,551.7c-0.2,0-0.4-0.101-0.6-0.101c-3.5-0.6-5.301-2.699-7.9-7.1
			c-0.4-2.6-0.3-4.8,0.1-6.6"/>
		<path fill="none" stroke="#000000" stroke-width="0.5" d="M624.4,541.8c-0.9-0.3-1.9-0.2-2.9,0c-1.1,1.3-0.9,3.101-1,4.7
			c1.3,0.9,2.7,0.9,4,0.7C625.8,545.9,626.1,542.9,624.4,541.8z"/>
		<path fill="none" stroke="#000000" stroke-width="0.5" d="M593.5,531.5c-3.9-3.2-5.4-6.5-5.4-9.6"/>
		<path fill="none" stroke="#000000" stroke-width="0.5" d="M593.5,524.5c2.2,3.3,9.4,2.8,9-2c-0.9-3-5.4-3.9-7.7-1.8
			C594,521.9,593.7,523.2,593.5,524.5z"/>
		<path fill="none" stroke="#000000" stroke-width="0.5" d="M366.4,536.8c-1.301-0.3-2.601-0.3-3.9,0c-1.9,1.7-2.2,4.3-2,6.7
			c1.3,1.5,2.7,2.5,4,2.9C368.5,545.5,369.9,539.2,366.4,536.8z"/>
		<path fill="none" stroke="#000000" stroke-width="0.5" d="M319.5,530.5c-3.9,0.7-2.9,5.2-3,8c1.3,1.5,2.7,1.8,4,2
			C325.1,539.5,324.8,530,319.5,530.5z"/>
		<path fill="none" stroke="#000000" stroke-width="0.5" d="M282.5,523.8c-1.6,1.4-0.8,3.8-1,5.7c1.3,0.9,2.7,0.9,4,0.7
			C288.9,528.1,286.4,521.9,282.5,523.8z"/>
		<path fill="none" stroke="#000000" stroke-width="0.5" d="M253.5,533.5c-0.3-4.6-2.1-9.8,1.1-13.7c4.7,2.5,2.4,9.4,1.9,13.7"/>
		<path fill="none" stroke="#000000" stroke-width="0.5" d="M214.5,510.5c-0.6-3.4,1.4-6.1,3-8.7c0.3-0.1,0.7-0.2,1-0.3"/>
		<path fill="none" stroke="#000000" stroke-width="0.5" d="M216.5,529.5c-1.7-3.1-0.3-6.9-2-10"/>
		<path fill="none" stroke="#000000" stroke-width="0.5" d="M214.5,510.5c2.2,0.2,4.6-0.4,6.7,0.3c0.3,1.9,0.6,3.9,0,5.7
			c-1.9,1.7-5.2,0.2-6.7,3c-2.4,0.4-3.4,3-5.5,4.2C205.8,519.6,208.2,509.8,214.5,510.5z"/>
		<path fill="none" stroke="#000000" stroke-width="0.5" d="M271.5,374.5c-21.6,18.8-38.6,45.5-66,56.8
			c-7.5-0.899-11.6-10.1-15.8-17c-18-29.8-37.2-64.899-52.8-102.2c-23-54.899-38.3-114.7-30.4-169.6c0.2-1.5,0.5-3,0.8-4.5
			c12.8-67.9,95.6-140.1,159.3-78.3c1.9,3.3,5.2,5.4,7.2,8.5c0.6,0.2,1.2,0.2,1.8,0.3c28.7-8,53.2-20.1,82-17
			C393.4,55.3,415.7,87.7,427.7,124.8c4,12.4,6.8,25.2,8.7,37.7c2.8,19,3.5,40.6-8.5,59c-0.101,0.7-0.2,1.3-0.301,2"/>
		<path fill="none" stroke="#000000" stroke-width="0.5" d="M235.5,122.5c4.3-14.4,2.9-30-12-34c-19.4-5.2-58.8,17.5-63,43
			c-3,17.8,6,45.4,31.8,44.7l0.5,0.3c-9.6,12.6-14.8,32.3-7.7,44.5c-2.1,1.9-3.9,4.5-3.5,7.5c-0.3-0.1-0.7-0.1-1-0.2
			c-36.9,1.4-6.6,40.6,3,54.2c3.8,11.1,4.9,23.7,12,29.8c12.8,11,38.1,5.7,50,2c25.9-8,56.4-45.1,60-65.8c1.4-8-1.199-16-3.199-23.8
			c-0.301-0.4-0.601-0.7-0.801-1.2c-0.1-0.6-0.199-1.1-0.5-1.5c-1.5-13.8,6.4-26,18.5-32.5c16.801-9.5,34.801-5.2,46.801-18
			c6.6-7.1,9.3-19.3,10.199-28c2.801-27.3-9.899-57.8-35-61c-20.5-2.6-36.5,11.8-38,41c-17.2-15.5-41-4.2-54.899,10.4
			C245.4,129.3,241.3,124.3,235.5,122.5z"/>
		<path fill="none" stroke="#000000" stroke-width="0.5" d="M612.2,537.2c-6.5,0.399-13.7-1.3-18.7-5.7c10.5,2.1,21.7-4.8,17.7-15
			c-5.101-12.9-23.101-5.2-23.101,5.4h-0.3c-0.6-13.5,2.8-24.801,27.8-23.4c14.801-9.9,16.9-29.4,14.801-40
			c-5.101-25.8-39.301-31.6-43.801-59c-0.8-5,0.601-9.8,0-15"/>
		<path fill="none" stroke="#000000" stroke-width="0.5" d="M256.5,533.5c5.1,0.1,10.4-3.7,10.9-9c-4.5-23.4-41.9,0.8-18.9,8.7
			c1.6,0.6,3.4,0.2,5,0.3C254.5,533.5,255.5,533.5,256.5,533.5z"/>
		<path fill="none" stroke="#000000" stroke-width="0.5" d="M315,421c-8.9,26.4-22.3,52.1-31.5,78.5"/>
		<path fill="none" stroke="#000000" stroke-width="0.5" d="M273.5,537.5c-9.4,6.5-23.6,4.7-32-3c-8,1.8-21.6,5.8-25-5
			c12.5,0.3,15.5-24.5,3-28c-0.3,0-0.7,0-1,0c4.9-6.7,14.5-5.1,21.7-7.3c2.4-41.4,15.3-81.3,31.3-119.7c5-8.8,16.8-11.3,25-17"/>
		<path fill="none" stroke="#000000" stroke-width="0.5" d="M668,557c6.5,1.5,10.1-7.1,8.2-12.5c-5.601-9.4-23.5-7.8-24.601,4
			C652.2,555.7,662.2,560.9,668,557z"/>
		<path fill="none" stroke="#000000" stroke-width="0.5" d="M686.5,160.5c18.6,36.4,73.1,30.6,91.7,67c7.5,14.8,7.8,33,6.3,46
			c-1.5,13.5-7.2,22.5-15.8,28c-10.9,6.9-26.4,8.1-44.2,5c-2.8-1.5-6-0.9-9-1c-0.2,26.3,3.1,68.7,0,98c-4,37.6-11.7,76.4-12,113
			c19.5-1.4,34.8,28.5,12,36c11.8-31.6-40.3-14.1-14,4c-5.8-0.1-12.1,0.8-17-3c-10.9,11.4-30.8,10.5-42,0c-4.6,2.4-14.3-1-19.5-1.8
			c13.9,1.7,13.3-21.601,0.5-21.2c-3.2,0.1-7.6,2-8.9,7.4l-2.399-0.7c-0.101-11.7,10.7-21.601,22.3-20.7
			c2.7-13.3,17.3-7.8,25.8-11.3c4-48.601-24.7-92.4-42.1-136.4c-0.2-0.1-0.5-0.2-0.7-0.3c-10.2,5-20.2,10.8-30.7,15.3
			c-0.1,0.2-0.2,0.5-0.3,0.7c-59.2,26.7-131.2,34.6-189-1c-1,0.1-2,0.1-2.9,0.3c-23.199,39.7-31.1,86.9-31.8,132.4
			c11.3,2,18.9,9.3,19.7,18.3c1.9,20.9-30,30.8-44,13c-11.4,4.3-24.8,1.9-34-6c-10.1,3.7-22.8,4.1-31-4c-7.2-10.6-5.5-27,5-35
			c1.5-1.2,3.4-1.9,5-3c8.9-2.6,18.2,0.2,25.9,4.7c3-27,5.399-55.601,5.6-83.2c-0.8-22.4-13.1-42.1-18.5-63.5
			c51.9-35.3,92.2-85.8,131-134c68.8-1.7,151.5,1.5,227,12c52.5,7.3,65.3,56,102,51c18.9-2.6,18.4-22.2,15-37
			c-10.3-44.8-55.6-42.6-87.2-82.7c-0.399-0.3-0.6-0.8-0.8-1.3"/>
		<path fill="none" stroke="#000000" stroke-width="0.5" d="M350,538c4.8,20.5,34.7,7.5,23.3-6.5c-4.8-5.8-14.899-4.8-21.8,1
			C351.9,534.6,350.5,536.1,350,538z"/>
		<path fill="none" stroke="#000000" stroke-width="0.5" d="M333.2,528.5c-3.9-11.1-28.4-10.8-25.7,7
			C315.4,550.9,337.8,541.6,333.2,528.5z"/>
		<path fill="none" stroke="#000000" stroke-width="0.5" d="M296.5,523.5c-1.1-10.8-23-12.3-22,3
			C281.3,539.6,297.5,533.9,296.5,523.5z"/>
		<path fill="none" stroke="#000000" stroke-width="0.5" d="M683.5,165.5c-16-3.6-36.1-0.8-47.7-15c-0.7-5.7-1.1-11.6-1.1-17.5
			c0.1-22,5.399-44.5,17.8-62.2c1.7-1.3,3.9-1.4,6-1.3c20.5,12.2,31.5,35.1,47.7,52c1.1,7.9-2.9,13.8-7.601,19.6
			c-4.899,6-10.699,11.9-12.1,19.4C685,162.2,683.3,163.8,683.5,165.5z"/>
	</g>
</g>
<path fill="none" stroke="#000000" stroke-width="0.5" stroke-linecap="round" d="M264.9,159.1c12.8-12.3,34.3-6.9,38,11"/>
<path fill="none" stroke="#000000" stroke-width="0.5" stroke-linecap="round" d="M642.9,554.1c-9.801-10.3-4.601-29,9-33"/>
<path fill="none" stroke="#000000" stroke-width="0.5" stroke-linecap="round" d="M684.9,554.1c11.1-9.6,5.399-29-8-33"/>
<path fill="none" stroke="#000000" stroke-width="0.5" stroke-linecap="round" d="M703.9,517.1c-4.5-0.399-8.7,0.301-13,1"/>
<path fill="none" stroke="#000000" stroke-width="0.5" stroke-linecap="round" d="M304.9,542.1c-9.101-12.3-0.7-30,14-33"/>
<path fill="none" stroke="#000000" stroke-width="0.5" stroke-linecap="round" d="M338.9,548.1c4.6-2.3,8.6-5.199,11.5-9.5"/>
<path fill="none" stroke="#000000" stroke-width="0.5" stroke-linecap="round" d="M351.9,533.1c1.6-5.8-0.301-12.8-5-17"/>
<path fill="none" stroke="#000000" stroke-width="0.5" stroke-linecap="round" d="M397.9,384.1c2.6-4.1,7-7.3,9-12"/>
<path fill="none" stroke="#000000" stroke-width="0.5" stroke-linecap="round" d="M617.9,369.1c-1.4-16.899,3.199-33.1,11-48"/>
<path fill="none" stroke="#000000" stroke-width="0.5" stroke-linecap="round" d="M634.9,517.1c2.1-0.3,4.1,0.301,6,1"/>
<path fill="none" stroke="#000000" stroke-width="0.5" stroke-linecap="round" d="M615.9,499.1c3.1,1.4,6.8,1.5,10,3"/>
<path fill="none" stroke="#000000" stroke-width="0.5" stroke-linecap="round" d="M241.9,535.1c-6-9.3-5.4-22.5,2-31"/>
<path fill="none" stroke="#000000" stroke-width="0.5" stroke-linecap="round" d="M278.9,503.1c-2.5-2.399-5.9-3.8-9-5"/>
<path fill="none" stroke="#000000" stroke-width="0.5" stroke-linecap="round" d="M212.4,274.6c8.2,9.7,31.2,15.9,41.5,13.5
	c15.6-3.6,27.6-28.1,29.9-44c-0.7-1.7-0.9-3.3-0.9-5"/>
<path fill="none" stroke="#000000" stroke-width="0.5" stroke-linecap="round" d="M201.9,157.1c8.2-4.1,25.4-15,28,2"/>
<path fill="none" stroke="#000000" stroke-width="0.5" stroke-linecap="round" d="M185.9,166.1c-0.3-0.2-0.7-0.5-1-0.7
	c-35.5-25.1,4.4-72.6,38-68c0.9,1.1,1.6,2.4,1.9,3.7c-4.1,14.1-14.8,25.9-26.9,34"/>
<path fill="none" stroke="#000000" stroke-width="0.5" stroke-linecap="round" d="M347.9,140.1c-13.101,46.9-50-28.4-16-40.8
	c27.199-9.9,38.399,23.7,36,44.8c-2.2,19.3-11.2,27.9-30,29"/>
<path fill="none" stroke="#000000" stroke-width="0.5" stroke-linecap="round" d="M191.9,138.1c-9.7,0.1-5.7-12.8,0-16"/>
<path fill="none" stroke="#000000" stroke-width="0.5" stroke-linecap="round" d="M272.9,229.1c4.3-3.1,9.6-2,14,0"/>
</svg>
