<?xml version="1.0" encoding="utf-8"?>
<!-- Generator: Adobe Illustrator 15.0.2, SVG Export Plug-In . SVG Version: 6.00 Build 0)  -->
<!DOCTYPE svg PUBLIC "-//W3C//DTD SVG 1.1//EN" "http://www.w3.org/Graphics/SVG/1.1/DTD/svg11.dtd">
<svg version="1.1" id="Layer_x5F_www.ABC-color.com"
	 xmlns="http://www.w3.org/2000/svg" xmlns:xlink="http://www.w3.org/1999/xlink" x="0px" y="0px" width="822px" height="567px"
	 viewBox="0 0 822 567" enable-background="new 0 0 822 567" xml:space="preserve">
<rect display="none" fill="#FFFFFF" width="822" height="567"/>
<polyline fill="none" stroke="#000000" points="16.4,539.9 17.7,547.9 19.6,540 21.4,547.9 22.8,539.9 "/>
<polyline fill="none" stroke="#000000" points="24.2,540 25.5,547.8 27.3,539.9 28.8,547.8 30.5,539.9 "/>
<polyline fill="none" stroke="#000000" points="31.8,539.9 33.1,547.6 34.9,539.9 36.5,547.6 37.9,539.9 "/>
<line fill="none" stroke="#000000" x1="51.4" y1="536.6" x2="51.4" y2="548.2"/>
<line fill="none" stroke="#000000" x1="62.1" y1="544" x2="64" y2="544"/>
<polyline fill="none" stroke="#000000" points="77.4,536.5 77.4,548.3 80.2,548.3 "/>
<path fill="none" stroke="#000000" d="M69.4,546.8c-0.3,0.8-0.9,1.3-1.4,1.3c-1.1,0-1.9-1.8-1.9-4c0-2.199,0.9-4,1.9-4
	c0.7,0,1.2,0.7,1.6,1.7"/>
<path fill="none" stroke="#000000" d="M72.5,548.3c-0.9,0-1.7-1.899-1.7-3.8c0-2.2,0.9-4,1.9-4s1.9,1.8,1.9,4s-0.6,3.7-1.4,3.7"/>
<path fill="none" stroke="#000000" d="M60.3,546.6c-0.4,0.801-0.9,1.301-1.4,1.301c-1.1,0-1.9-1.801-1.9-4c0-2.2,0.9-4,1.9-4
	c0.7,0,1.2,0.699,1.6,1.699"/>
<path fill="none" stroke="#000000" d="M51.4,541.8c0.3-0.6,1.3-0.6,1.8-0.6c0.7,0,1.7,1,1.7,3.3c0,1.3,0,2.3-0.9,2.9
	c-0.2,0.199-0.8,0.399-1.1,0.399"/>
<path fill="none" stroke="#000000" stroke-width="1.0581" d="M45.1,540.5c0,0,3.6-3.2,3.3,2.4c0,0-0.1,3.5,0.1,4.399
	c0.1,0.4,0.9,0.4,0.9,0.4"/>
<path fill="none" stroke="#000000" d="M40.9,547.9c0.7,0,0.7-1.101,0-1.101C40.2,546.8,40.2,547.9,40.9,547.9L40.9,547.9z"/>
<path fill="none" stroke="#000000" d="M82.2,548.5c-0.8,0-1.2-2.2-1.2-4c0-2.2,0.9-4,1.9-4s1.9,1.8,1.9,4s-0.9,4-1.9,4"/>
<line fill="none" stroke="#000000" x1="86.7" y1="539.9" x2="86.7" y2="548.7"/>
<path fill="none" stroke="#000000" d="M90.1,541.1c0,0-2.2-2.3-3.4,1.4"/>
<line fill="none" stroke="#000000" x1="107.9" y1="540.3" x2="107.9" y2="548.8"/>
<path fill="none" stroke="#000000" d="M111.6,548.8v-6c0,0-1.5-3.899-3.7,0"/>
<path fill="none" stroke="#000000" d="M115,548.8v-6.1c0,0-1-3.601-3.5-0.2"/>
<path fill="none" stroke="#000000" d="M99.3,546.9c-0.3,0.8-0.9,1.3-1.4,1.3c-1.1,0-1.9-1.8-1.9-4s0.9-4,1.9-4
	c0.7,0,1.2,0.7,1.6,1.7"/>
<path fill="none" stroke="#000000" d="M102.9,548.1c-1.1-0.5-2.2-7.699,0.9-7.899c1.1-0.101,1.9,1.8,1.9,4s-0.9,4-1.9,4"/>
<path fill="none" stroke="#000000" d="M92.4,548.6c0.7,0,0.7-1.1,0-1.1C91.7,547.5,91.7,548.6,92.4,548.6L92.4,548.6z"/>
<path fill="none" stroke="#000000" d="M48.4,544.4c-0.3-0.601-0.6-1.4-1.7-1.4c-0.7,0-1.6,0.1-1.6,2.4c0,1.3,0.5,1.8,0.9,2
	c0.2,0.1,0.8,0.399,1.1,0.399"/>
<g id="XMLID_2_">
	<g>
		<path fill="#7F5782" d="M644.5,226.5c0,0,71.3-43.3,60-3c0,0-1.8,42.6-15,44.5c0,0-3-22.8-47-14l0,0c4.2-3.7,6.7-8.9,6.7-14.7
			C649.2,234.5,647.4,230,644.5,226.5L644.5,226.5z"/>
		<path fill="#654768" d="M689.5,268c0,0-43.4,0.3-53.3-10.1c2.3-1,4.399-2.3,6.2-3.9l0,0C686.5,245.2,689.5,268,689.5,268z"/>
		<path fill="#714777" d="M644.4,226.6c3,3.5,4.8,7.9,4.8,12.7c0,5.8-2.601,11-6.7,14.7c-1.8,1.6-3.9,3-6.2,3.9c-1,0.4-2,0.8-3,1
			c-1.899,0.5-3.899,0.8-6,0.8c-1.6,0-3.1-0.2-4.6-0.5c-2.7-0.5-5.101-1.5-7.3-2.8c-2-1.2-3.801-2.7-5.301-4.4
			c-3-3.5-4.8-7.9-4.8-12.7c0-4.3,1.5-8.4,3.9-11.7c0.899-1.3,2.1-2.4,3.3-3.5c3-2.5,6.6-4.3,10.7-5c1.3-0.2,2.7-0.4,4.1-0.4
			C634.2,218.8,640.4,221.8,644.4,226.6z"/>
		<path fill="#8D8D7F" d="M633.2,258.9c22.5,47.6,12.8,110,3.8,146.1c-4.4,17.8-8.6,29.2-8.6,29.2c-85,101.5-142.2,7.2-159.7-29.2
			c-3-6.3-4.9-10.8-5.5-12.4c6.3,0.301,16.8-0.199,23.8-6.3c0.7,2,3.3,9.5,8,18.7c15.1,29.7,51.4,77.4,111.3,17.9
			c0,0,3.8-6.2,8.2-17.9c9.6-25.2,22.4-75.9,7.8-145.5l0.101-0.3c1.5,0.3,3,0.5,4.6,0.5C629.3,259.7,631.3,259.4,633.2,258.9z"/>
		<path fill="#75756C" d="M623,218.5l0.1,0.7c-4.1,0.7-7.8,2.5-10.699,5l-0.9-0.6c0,0-15.8-24.5-4.5-50.3
			C607,173.2,620.5,203.4,623,218.5z"/>
		<path fill="#654768" d="M610,252c1.5,1.7,3.3,3.2,5.3,4.4c-5.7,8.3-21.899,16.9-23.1,17.5c0.399-0.3-6.9,3.6-24.101,0.5
			c-23.3-4.4-20-19.5-20-19.5c0.601-0.4,1.301-1,1.9-1.7c8.4-5.4,32.1-2.8,32.1-2.8C596.1,248.1,609.2,251.8,610,252z"/>
		<path fill="#7F5782" d="M609,227.5L609,227.5c-2.4,3.4-3.8,7.4-3.8,11.7c0,4.8,1.8,9.3,4.8,12.7c-0.8-0.2-13.9-3.9-28-1.5
			c0,0-23.8-2.6-32.1,2.8c8.199-9.3,16.3-43,16.3-43C578,188.1,609,228,609,227.5z"/>
		<path fill="#8D8D7F" d="M532.2,88.3c0,0,19.5,71.1-101.3,84.9c0,0-8.7,17.5-25.4,31.7c-17.2,14.6-42.9,25.6-76.3,10
			c-20.8-9.7-44.6-29.7-71.2-65.6c0,0-1.3-8.2,6.3-9.4l58,5.4c-2-0.5-66.9-18.1-71.2-24.3c0,0-11.3-5-11.3-15.7
			c0,0,2.8-31.5-0.4-37.1l0,0c1.9,3.1,5.4,4.4,9.6,2.3c9-4.5,3.9-2.7,12-9c1.2-0.9,1.7-2,1.7-3.1h0.6c0,0,4.1,16.8,32.4,14.3
			c0,0,46.399-13.4,83-4.9C389.6,70.3,399.6,74.7,407.3,82l0,0c13.8-8.6,48.8-28.4,79.5-26.8C505.5,55.9,522.5,64.6,532.2,88.3z
			 M512.1,126.7c0,0,25.2-83.6-99.399-17c0,0-17,32.7,14.5,43.4c0,0,66.6,0.7,84.8-27.6L512.1,126.7z M393.1,111.6
			c0.5-11.3-8.1-20.8-19.199-21.3c-11-0.5-20.4,8.2-20.9,19.3c1.9,1,3.7,2,5.6,3.2c1.2,0.8,2.5,1.6,3.7,2.5
			c3.4,2.5,6.601,5.2,9.3,8.1c1.801,1.9,3.4,3.8,4.9,5.8l1.4,1.2C387.6,129.4,392.7,121.8,393.1,111.6z"/>
		<path fill="#DB73BD" d="M519.5,364c5.2,12.8-25.5,9.5-25.5,9.5c-1,5.8-3.6,10-6.9,12.8c-7.1,6.101-17.6,6.601-23.8,6.3
			c-3.2-0.199-5.3-0.6-5.3-0.6c-9.9-0.4-17.1,1.6-22.2,4.5c-11.5,6.5-13,17.5-13,17.5c-9.399,8.2-32.7,10-47.8,10.2
			c-8.1,0.1-13.9-0.2-13.9-0.2c-4.899-1.7-9.6-2.6-14.1-3.1c-17.5-1.9-30.7,3.6-30.7,3.6c-34,1.3-55.7-1.7-55.7-1.7
			c2.3-5.3,5-11.399,7.9-18c12.6-28.899,28.9-67,36.2-84.1l0.8,0.1c0,0,3.8-2.5,7.5,3.5c0,0,8.3-3.5,15.7,5.8c0,0,18.3-8,26,0.7
			c0,0,18.8-17,31.8-2.5c0,0,15.2-22.7,29.5-11c0,0,11.8-20.2,27-15c0,0,2-16,16-12l1-0.1c16.3,16.3,41.1,50.8,46,60.6
			C509,357,519.2,363.2,519.5,364z M493,347.3c0-2.899-2.3-5.3-5.3-5.3s-5.3,2.3-5.3,5.3s2.3,5.3,5.3,5.3S493,350.2,493,347.3z
			 M489.5,369.5c0-3.3-2.7-6-6-6s-6,2.7-6,6s2.7,6,6,6S489.5,372.8,489.5,369.5z M466,338.8c0-3.2-2.6-5.8-5.8-5.8s-5.8,2.6-5.8,5.8
			s2.6,5.8,5.8,5.8S466,341.9,466,338.8z M462.5,307.3c0-2.3-1.9-4.3-4.3-4.3c-2.4,0-4.3,1.9-4.3,4.3c0,2.4,1.899,4.3,4.3,4.3
			C460.6,311.6,462.5,309.6,462.5,307.3z M457,373.8c0-2.6-2.1-4.8-4.8-4.8s-4.8,2.1-4.8,4.8s2.1,4.8,4.8,4.8S457,376.4,457,373.8z
			 M450,355c0-2.8-2.2-5-5-5s-5,2.2-5,5s2.2,5,5,5S450,357.8,450,355z M450,323.3c0-2.899-2.3-5.3-5.3-5.3s-5.3,2.3-5.3,5.3
			s2.3,5.3,5.3,5.3S450,326.2,450,323.3z M430,336.3c0-2.3-1.9-4.3-4.3-4.3c-2.4,0-4.3,1.9-4.3,4.3c0,2.4,1.899,4.3,4.3,4.3
			C428.1,340.6,430,338.6,430,336.3z M428.5,366.8c0-3.5-2.8-6.3-6.3-6.3s-6.3,2.8-6.3,6.3s2.8,6.3,6.3,6.3S428.5,370.2,428.5,366.8
			z M417.5,396c0-2.8-2.2-5-5-5s-5,2.2-5,5s2.2,5,5,5S417.5,398.8,417.5,396z M414.5,335.5c0-3.3-2.7-6-6-6s-6,2.7-6,6s2.7,6,6,6
			S414.5,338.8,414.5,335.5z M406.5,376.5c0-2.8-2.2-5-5-5s-5,2.2-5,5s2.2,5,5,5S406.5,379.3,406.5,376.5z M405,413.5
			c0-2.2-1.8-4-4-4s-4,1.8-4,4s1.8,4,4,4S405,415.7,405,413.5z M390.5,395.8c0-2.899-2.4-5.3-5.3-5.3c-2.9,0-5.3,2.3-5.3,5.3
			s2.399,5.3,5.3,5.3C388.1,401.1,390.5,398.7,390.5,395.8z M389,354.3c0-2.899-2.4-5.3-5.3-5.3c-2.9,0-5.3,2.3-5.3,5.3
			s2.399,5.3,5.3,5.3C386.6,359.6,389,357.2,389,354.3z M373.5,383.3c0-2.6-2.1-4.8-4.8-4.8s-4.8,2.1-4.8,4.8s2.1,4.8,4.8,4.8
			S373.5,385.9,373.5,383.3z M373.5,341c0-3.3-2.7-6-6-6s-6,2.7-6,6s2.7,6,6,6S373.5,344.3,373.5,341z M361.5,409c0-2.8-2.2-5-5-5
			s-5,2.2-5,5s2.2,5,5,5S361.5,411.8,361.5,409z M355,354.3c0-3.5-2.8-6.3-6.3-6.3s-6.3,2.8-6.3,6.3s2.8,6.3,6.3,6.3
			S355,357.7,355,354.3z M341,382.8c0-3.7-3-6.8-6.8-6.8s-6.8,3-6.8,6.8s3,6.8,6.8,6.8S341,386.5,341,382.8z M326,410.3
			c0-2.3-1.9-4.3-4.3-4.3c-2.4,0-4.3,1.9-4.3,4.3c0,2.4,1.899,4.3,4.3,4.3C324.1,414.6,326,412.6,326,410.3z M324.5,344.3
			c0-4-3.3-7.3-7.3-7.3s-7.3,3.3-7.3,7.3s3.3,7.3,7.3,7.3S324.5,348.3,324.5,344.3z M311.5,361c0-2.8-2.2-5-5-5s-5,2.2-5,5
			s2.2,5,5,5S311.5,363.8,311.5,361z M306.5,388.8c0-3.7-3-6.8-6.8-6.8c-3.8,0-6.8,3-6.8,6.8s3,6.8,6.8,6.8
			C303.5,395.6,306.5,392.5,306.5,388.8z M289.5,416.3c0-2.3-1.9-4.3-4.3-4.3c-2.4,0-4.3,1.9-4.3,4.3c0,2.4,1.9,4.3,4.3,4.3
			C287.6,420.6,289.5,418.6,289.5,416.3z"/>
		<path fill="#8D8D7F" d="M412.7,109.7c124.5-66.7,99.399,17,99.399,17l-0.1-1.2c-18.2,28.3-84.8,27.6-84.8,27.6
			C395.7,142.4,412.7,109.7,412.7,109.7z"/>
		<circle fill="#DBC573" cx="487.8" cy="347.3" r="5.3"/>
		<path fill="#DBC573" d="M483.5,363.5c3.3,0,6,2.7,6,6s-2.7,6-6,6s-6-2.7-6-6S480.2,363.5,483.5,363.5z"/>
		<path fill="#75756C" d="M486.9,55L486.9,55c-30.7-1.5-65.7,18.2-79.5,26.9l0,0c-7.7-7.3-17.7-11.7-28.601-14.2v-0.1
			C378.8,67.5,466.2-22.4,486.9,55z"/>
		<path fill="#DBC573" d="M460.3,333c3.2,0,5.8,2.6,5.8,5.8s-2.6,5.8-5.8,5.8s-5.8-2.6-5.8-5.8S457.1,333,460.3,333z"/>
		<circle fill="#DBC573" cx="458.3" cy="307.3" r="4.3"/>
		<path fill="#DBC573" d="M460,290.4l-1,0.1c-14-4-16,12-16,12c-15.2-5.2-27,15-27,15c-14.3-11.7-29.5,11-29.5,11
			c-13-14.5-31.8,2.5-31.8,2.5c-7.7-8.7-26-0.7-26-0.7c-7.3-9.3-15.7-5.8-15.7-5.8c-3.7-6-7.5-3.5-7.5-3.5l-0.8-0.1
			c2.3-5.4,3.7-8.7,3.8-8.9l0,0c7.5-6.1,7,6.5,7,6.5c10.7-6.3,15.8,3.5,16.5,2.8c10.7-10.3,22.3-1.3,22.3-1.3
			c8.7-13.3,30.7-6.5,30.7-6.5c4-16,23.3-11.2,23.3-11.2C414.2,287,436,291.4,436,291.4c3.8-10.7,8.3-12.5,14.7-7.5l0,0
			c1.7,1.3-1.5-2.3,1.3-0.5C454.3,285,457,287.4,460,290.4z"/>
		<path fill="#DBC573" d="M452.3,369c2.601,0,4.8,2.1,4.8,4.8s-2.1,4.8-4.8,4.8s-4.8-2.1-4.8-4.8S449.6,369,452.3,369z"/>
		<circle fill="#DBC573" cx="445" cy="355" r="5"/>
		<circle fill="#DBC573" cx="444.8" cy="323.3" r="5.3"/>
		<path fill="#DB73BD" d="M450.7,284c-6.4-5.1-10.9-3.2-14.7,7.5c0,0-21.8-4.4-27.7,10.9c0,0-19.3-4.801-23.3,11.199
			c0,0-22-6.8-30.7,6.5c0,0-11.7-9-22.3,1.301c-0.7,0.699-5.8-9.101-16.5-2.801c0,0,0.5-12.6-7-6.5l0,0c0,0-0.2,0.101-0.3,0.301
			l-0.4-0.5c4.7-3.301,6.9-15.9,6.9-15.9l0.1-0.7l1.8-20.1l0.101-0.7c3.7,0.7,5.399,0.7,5.399,0.7c93-3.5,74-35,74-35
			c-3-25-74.899-2.1-72.5-6.5c8.4-15.9,6.2-18.2,5.601-18.5l0.1-0.1c33.4,15.6,59.101,4.6,76.3-10
			C419.4,210.3,450.2,283.3,450.7,284z M439,273.5c0-2.8-2.2-5-5-5s-5,2.2-5,5s2.2,5,5,5S439,276.3,439,273.5z M423.5,258
			c0-3.3-2.5-6-5.5-6s-5.5,2.7-5.5,6s2.5,6,5.5,6S423.5,261.3,423.5,258z M419,284c0-3.9-3.1-7-7-7s-7,3.1-7,7c0,3.9,3.1,7,7,7
			S419,287.9,419,284z M416.5,231c0-3.9-2.3-7-5.3-7c-2.9,0-5.3,3.1-5.3,7s2.399,7,5.3,7C414.2,238,416.5,234.9,416.5,231z
			 M408.5,263.8c0-2.4-1.9-4.3-4.3-4.3c-2.4,0-4.3,1.9-4.3,4.3c0,2.4,1.899,4.3,4.3,4.3C406.6,268.1,408.5,266.1,408.5,263.8z
			 M401.5,224.5c0-2.2-1.8-4-4-4s-4,1.8-4,4s1.8,4,4,4S401.5,226.7,401.5,224.5z M397.5,274.8c0-2.4-1.9-4.3-4.3-4.3
			c-2.4,0-4.3,1.9-4.3,4.3c0,2.4,1.899,4.3,4.3,4.3C395.6,279.1,397.5,277.1,397.5,274.8z M382,290.3c0-2.6-2.1-4.8-4.8-4.8
			s-4.8,2.1-4.8,4.8s2.1,4.8,4.8,4.8S382,292.9,382,290.3z M364.5,283.5c0-2.2-1.8-4-4-4s-4,1.8-4,4s1.8,4,4,4
			S364.5,285.7,364.5,283.5z M357.5,306c0-3-2.5-5.5-5.5-5.5s-5.5,2.5-5.5,5.5s2.5,5.5,5.5,5.5S357.5,309,357.5,306z M343.5,288.8
			c0-3.2-2.6-5.8-5.8-5.8s-5.8,2.6-5.8,5.8s2.6,5.8,5.8,5.8S343.5,291.9,343.5,288.8z M332,304c0-1.7-1.3-3-3-3s-3,1.3-3,3
			s1.3,3,3,3S332,305.7,332,304z"/>
		<circle fill="#DBC573" cx="434" cy="273.5" r="5"/>
		<path fill="#8D8D7F" d="M435.8,396.5l0.3,0.5c-0.899,2.7-1.8,5.3-2.699,7.8c-6.101,17.3-11.601,28.9-16.101,36.5l0.3,0.2l4.5,37.4
			c0,0,0.301,1.699,0.801,3.8c3.199,13.2-0.801,14.7-17.301,17.2c-0.6,0.1-6.199,1.899-7,2c-27.5,3-55.5,1.5-55.5,1.5
			c0-0.2,0-0.301,0-0.5c-0.3-21.2,15.2-21,15.2-21c5.3,0.5,24.3-8,24.3-8c-2.399-0.5,7.601-16.5,7.601-16.5
			C377.8,453.9,375,425,375,425v-0.7c15.1-0.3,38.4-2,47.8-10.2C422.8,414.1,424.3,403,435.8,396.5z"/>
		<circle fill="#DBC573" cx="425.8" cy="336.3" r="4.3"/>
		<circle fill="#DBC573" cx="422.3" cy="366.8" r="6.3"/>
		<path fill="#DBC573" d="M418,252c3,0,5.5,2.7,5.5,6s-2.5,6-5.5,6s-5.5-2.7-5.5-6S415,252,418,252z"/>
		<path fill="#DBC573" d="M412,277c3.9,0,7,3.1,7,7c0,3.9-3.1,7-7,7s-7-3.1-7-7C405,280.1,408.1,277,412,277z"/>
		<circle fill="#DBC573" cx="412.5" cy="396" r="5"/>
		<path fill="#DBC573" d="M411.3,224c2.9,0,5.3,3.1,5.3,7s-2.3,7-5.3,7c-2.899,0-5.3-3.1-5.3-7S408.4,224,411.3,224z"/>
		<path fill="#DBC573" d="M408.5,329.5c3.3,0,6,2.7,6,6s-2.7,6-6,6s-6-2.7-6-6S405.2,329.5,408.5,329.5z"/>
		<path fill="#DBC573" d="M404.3,259.5c2.4,0,4.3,1.9,4.3,4.3c0,2.4-1.899,4.3-4.3,4.3c-2.399,0-4.3-1.9-4.3-4.3
			C400,261.4,401.9,259.5,404.3,259.5z"/>
		<circle fill="#DBC573" cx="401.5" cy="376.5" r="5"/>
		<circle fill="#DBC573" cx="401" cy="413.5" r="4"/>
		<circle fill="#DBC573" cx="397.5" cy="224.5" r="4"/>
		<path fill="#DBC573" d="M393.3,270.5c2.4,0,4.3,1.9,4.3,4.3c0,2.4-1.899,4.3-4.3,4.3c-2.399,0-4.3-1.9-4.3-4.3
			C389,272.4,390.9,270.5,393.3,270.5z"/>
		<path fill="#8D8D7F" d="M396,240c0,0,19,31.5-74,35c0,0-1.6-0.1-5.4-0.7c-5.5-1-15.5-3.1-31.6-8c-8.8-2.7-19.4-6.1-32.1-10.7
			c0,0-22-4.1-33.5-11.7c-4.2-2.8-6.9-6-6.8-9.7c0,0,0.5-2.6,1.5-6.2c2-8,5.9-20.8,9.8-20.8c0,0-5.7-6.7-10.3-12.8
			c-3.5-4.6-6.4-8.8-5.7-9.4c0,0-1.2-4.4,4.1-2.7c3.1,1,8.4,4,17.4,11.2c0,0,31,23.1,36,33.8c0,0,25.9,8.7,58,6.2
			C321.1,237.9,393,215,396,240z"/>
		<path fill="#A9AFC2" d="M373.9,90.3c11.1,0.5,19.699,10,19.199,21.3c-0.399,10.2-5.6,17.8-15.3,18.9l-1.399-1.2
			c-1.5-2-3.101-4-4.9-5.8c6.5,0,11.9-4.6,12.1-10.5c0.301-6.1-5-11.2-11.8-11.5s-12.5,4.4-12.7,10.5l-0.6,0.9
			c-1.8-1.2-3.7-2.2-5.6-3.2C353.5,98.5,362.9,89.9,373.9,90.3z"/>
		<circle fill="#DBC573" cx="385.3" cy="395.8" r="5.3"/>
		<circle fill="#DBC573" cx="383.8" cy="354.3" r="5.3"/>
		<path fill="#738DDB" d="M371.8,101.4c6.8,0.3,12,5.4,11.8,11.5c-0.199,5.9-5.6,10.5-12.1,10.5c-2.8-2.9-5.9-5.6-9.3-8.1
			c-1.2-0.9-2.4-1.7-3.7-2.5l0.6-0.9C359.4,105.8,365.1,101.1,371.8,101.4z M374.4,112.4c0-1.8-1.4-3.3-3-3.3c-1.7,0-3,1.5-3,3.3
			c0,1.8,1.3,3.3,3,3.3C373,115.7,374.4,114.2,374.4,112.4z"/>
		<path fill="#75756C" d="M390.1,457.5c0,0-10,16-7.6,16.5c0,0-19,8.5-24.3,8c0,0-15.5-0.2-15.2,21h-1.1l-14.301-3.4
			c0,0-4.6-31,30.801-35.8l1.199-1.1c-1.199-1.4-4-5.601-4-15c0-1.9,0.101-2.8,0.101-3.101c0.2,0.4,0.3,0.7,0.3,0.7
			s-0.2-1.399-0.3-0.7C354,441.2,346.2,425.4,347.1,421c4.5,0.5,9.2,1.4,14.101,3.1c0,0,5.8,0.301,13.899,0.2v0.7
			C375,425,377.8,453.9,390.1,457.5z"/>
		<path fill="#DBC573" d="M377.3,285.5c2.601,0,4.8,2.1,4.8,4.8s-2.1,4.8-4.8,4.8s-4.8-2.1-4.8-4.8S374.6,285.5,377.3,285.5z"/>
		<path fill="#281E5B" d="M371.4,109.2c1.6,0,3,1.5,3,3.3s-1.4,3.3-3,3.3c-1.7,0-3-1.5-3-3.3C368.4,110.6,369.7,109.2,371.4,109.2z"
			/>
		<path fill="#DBC573" d="M368.8,378.5c2.601,0,4.8,2.1,4.8,4.8s-2.1,4.8-4.8,4.8s-4.8-2.1-4.8-4.8S366.1,378.5,368.8,378.5z"/>
		<path fill="#DBC573" d="M367.5,335c3.3,0,6,2.7,6,6s-2.7,6-6,6s-6-2.7-6-6S364.2,335,367.5,335z"/>
		<circle fill="#DBC573" cx="360.5" cy="283.5" r="4"/>
		<circle fill="#DBC573" cx="356.5" cy="409" r="5"/>
		<circle fill="#DBC573" cx="352" cy="306" r="5.5"/>
		<circle fill="#DBC573" cx="348.8" cy="354.3" r="6.3"/>
		<path fill="#DBC573" d="M337.8,283c3.2,0,5.8,2.6,5.8,5.8s-2.6,5.8-5.8,5.8s-5.8-2.6-5.8-5.8S334.6,283,337.8,283z"/>
		<circle fill="#DBC573" cx="334.3" cy="382.8" r="6.8"/>
		<path fill="#DBC573" d="M329,301c1.7,0,3,1.3,3,3s-1.3,3-3,3s-3-1.3-3-3S327.3,301,329,301z"/>
		<path fill="#DBC573" d="M321.8,406c2.4,0,4.3,1.9,4.3,4.3c0,2.4-1.899,4.3-4.3,4.3c-2.399,0-4.3-1.899-4.3-4.3
			C317.5,407.9,319.4,406,321.8,406z"/>
		<path fill="#DBC573" d="M317.3,337c4,0,7.3,3.3,7.3,7.3s-3.3,7.3-7.3,7.3s-7.3-3.3-7.3-7.3S313.3,337,317.3,337z"/>
		<path fill="#75756C" d="M316.6,274.3l-0.1,0.7l-1.8,20.1L314.1,295c0,0-31.2,6.9-51.899,4.6c-12.8-1.399-30.7-5.3-30.7-5.3
			c-8.6-2.1-18.3-0.7-21.7-2.7c-0.5-0.3-21.2-4.699-21.3-6c-0.7-6.7,20.2-0.899,20.4-2.2c0.2-1.4-20.6-3.5-18.5-7.9
			c2.1-4.5,18.9,1.8,18.8,1.1c-0.1-1.4-18.6-6.4-18.8-11c0-0.7,0.4-1.4,1.4-2.1c1.5-1,18.3,8.2,19,6.5c1.1-2.6-21.4-8.5-19.8-15.6
			c0.6-2.5,11.4,2.9,19.4,7.2c4.7,2.6,8.4,4.7,8.4,4.7c1.2,0.5-0.8-6.1-2.3-11.8c-1.1-4.3-2-8-1-8c1.2,0.1,2.4,0.5,3.5,1.2
			c7.6,4.8,12.8,22.4,15.5,22.7c38,4.3,50.5-4,50.5-4l0.1-0.2C301.1,271.1,311.1,273.3,316.6,274.3z"/>
		<circle fill="#DBC573" cx="306.5" cy="361" r="5"/>
		<circle fill="#DBC573" cx="299.8" cy="388.8" r="6.8"/>
		<path fill="#DBC573" d="M285.3,412c2.4,0,4.3,1.9,4.3,4.3c0,2.4-1.9,4.3-4.3,4.3c-2.4,0-4.3-1.899-4.3-4.3
			C281,413.9,282.9,412,285.3,412z"/>
		<path fill="#342E2E" d="M262.7,58.4c0,1.1-0.5,2.2-1.7,3.1c-8.1,6.3-3,4.5-12,9c-4.2,2.1-7.7,0.8-9.6-2.3c-1-1.6-1.5-3.7-1.5-6
			c0-6.8,5.8-12.3,12.9-12.3C256.3,49.9,262.6,54.4,262.7,58.4z"/>
	</g>
	<g>
		<path fill="none" stroke="#000000" stroke-width="2" d="M355.7,444.6C354,441.2,346.2,425.4,347.1,421"/>
		<path fill="none" stroke="#000000" stroke-width="2" d="M355.7,444.6c0.2,0.4,0.3,0.7,0.3,0.7S355.8,443.9,355.7,444.6z"/>
		<path fill="none" stroke="#000000" stroke-width="2" d="M343,503h-1.1l-14.301-3.4c0,0-4.6-31,30.801-35.8l1.199-1.1
			c-1.199-1.4-4-5.601-4-15c0-1.9,0.101-2.8,0.101-3.101"/>
		<path fill="none" stroke="#000000" stroke-width="2" d="M435.8,396.5l0.3,0.5c-0.899,2.7-1.8,5.3-2.699,7.8
			c-6.101,17.3-11.601,28.9-16.101,36.5l0.3,0.2l4.5,37.4c0,0,0.301,1.699,0.801,3.8c3.199,13.2-0.801,14.7-17.301,17.2
			c-0.6,0.1-6.199,1.899-7,2c-27.5,3-55.5,1.5-55.5,1.5c0-0.2,0-0.301,0-0.5c-0.3-21.2,15.2-21,15.2-21c5.3,0.5,24.3-8,24.3-8
			c-2.399-0.5,7.601-16.5,7.601-16.5C377.8,453.9,375,425,375,425v-0.7"/>
		<path fill="none" stroke="#000000" stroke-width="2" d="M633.2,258.9c22.5,47.6,12.8,110,3.8,146.1c-4.4,17.8-8.6,29.2-8.6,29.2
			c-85,101.5-142.2,7.2-159.7-29.2c-3-6.3-4.9-10.8-5.5-12.4"/>
		<path fill="none" stroke="#000000" stroke-width="2" d="M487.1,386.3c0.7,2,3.301,9.5,8,18.7c15.101,29.7,51.4,77.4,111.301,17.9
			c0,0,3.8-6.2,8.199-17.9c9.601-25.2,22.4-75.9,7.801-145.5l0.1-0.3"/>
		<path fill="none" stroke="#000000" stroke-width="2" d="M612.4,224.1l-0.9-0.6c0,0-15.8-24.5-4.5-50.3c0,0,13.4,30.2,16,45.3
			l0.1,0.7"/>
		<path fill="none" stroke="#000000" stroke-width="2" d="M689.5,268c0,0-43.4,0.3-53.3-10.1"/>
		<path fill="none" stroke="#000000" stroke-width="2" d="M644.4,226.6L644.4,226.6c0.1-0.1,71.399-43.3,60.1-3.1
			c0,0-1.8,42.6-15,44.5c0,0-3-22.8-47-14l0,0"/>
		<path fill="none" stroke="#000000" stroke-width="2" d="M609.1,227.6c0.9-1.3,2.101-2.4,3.301-3.5c3-2.5,6.6-4.3,10.699-5
			c1.301-0.2,2.7-0.4,4.101-0.4c7,0,13.2,3,17.2,7.8c3,3.5,4.8,7.9,4.8,12.7c0,5.8-2.601,11-6.7,14.7c-1.8,1.6-3.9,3-6.2,3.9
			c-1,0.4-2,0.8-3,1c-1.899,0.5-3.899,0.8-6,0.8c-1.6,0-3.1-0.2-4.6-0.5c-2.7-0.5-5.101-1.5-7.3-2.8"/>
		<path fill="none" stroke="#000000" stroke-width="2" d="M610,252c1.5,1.7,3.3,3.2,5.3,4.4c-5.7,8.3-21.899,16.9-23.1,17.5
			c0.399-0.3-6.9,3.6-24.101,0.5c-23.3-4.4-20-19.5-20-19.5c0.601-0.4,1.301-1,1.9-1.7"/>
		<path fill="none" stroke="#000000" stroke-width="2" d="M549.9,253.3c8.199-9.3,16.3-43,16.3-43C578,188.1,609,228,609,227.5
			l0.1,0.1c-2.5,3.3-3.899,7.3-3.899,11.7c0,4.8,1.8,9.3,4.8,12.7c-0.8-0.2-13.9-3.9-28-1.5C582,250.5,558.2,247.9,549.9,253.3z"/>
		<path fill="none" stroke="#000000" stroke-width="2" d="M239.4,68.2c-1-1.6-1.5-3.7-1.5-6c0-6.8,5.8-12.3,12.9-12.3
			c5.5,0,11.9,4.5,11.9,8.4"/>
		<path fill="none" stroke="#000000" stroke-width="2" d="M378.7,67.6L378.7,67.6c0-0.1,87.399-90,108.2-12.7l0,0"/>
		<path fill="none" stroke="#000000" stroke-width="2" d="M358.5,112.8l0.6-0.9c0.301-6.1,5.9-10.8,12.7-10.5
			c6.8,0.3,12,5.4,11.8,11.5c-0.199,5.9-5.6,10.5-12.1,10.5"/>
		<path fill="none" stroke="#000000" stroke-width="2" d="M371.4,109.2c-1.7,0-3,1.5-3,3.3s1.3,3.3,3,3.3c1.6,0,3-1.5,3-3.3
			C374.4,110.6,373,109.2,371.4,109.2z"/>
		<path fill="none" stroke="#000000" stroke-width="2" d="M371.5,123.4c1.8,1.9,3.4,3.8,4.9,5.8l1.399,1.2
			c9.7-1.1,14.9-8.6,15.3-18.9c0.5-11.3-8.1-20.8-19.199-21.3c-11-0.5-20.4,8.2-20.9,19.3c1.9,1,3.7,2,5.6,3.2
			c1.2,0.8,2.5,1.6,3.7,2.5C365.6,117.8,368.8,120.5,371.5,123.4z"/>
		<path fill="none" stroke="#000000" stroke-width="2" d="M329.2,214.9c-20.8-9.7-44.6-29.7-71.2-65.6c0,0-1.3-8.2,6.3-9.4l58,5.4
			c-2-0.5-66.9-18.1-71.2-24.3c0,0-11.3-5-11.3-15.7c0,0,2.8-31.5-0.4-37.1l0,0c1.9,3.1,5.4,4.4,9.6,2.3c9-4.5,3.9-2.7,12-9
			c1.2-0.9,1.7-2,1.7-3.1h0.6c0,0,4.1,16.8,32.4,14.3c0,0,46.399-13.4,83-4.9C389.6,70.3,399.6,74.7,407.3,82l0,0
			c13.8-8.6,48.8-28.4,79.5-26.8c18.601,0.9,35.601,9.6,45.3,33.3c0,0,19.5,71.1-101.3,84.9c0,0-8.7,17.5-25.399,31.7"/>
		<path fill="none" stroke="#000000" stroke-width="2" d="M512.1,126.7c0,0,25.2-83.6-99.399-17c0,0-17,32.7,14.5,43.4
			c0,0,66.6,0.7,84.8-27.6L512.1,126.7z"/>
		<path fill="none" stroke="#000000" stroke-width="2" d="M323.5,233.5c8.4-15.9,6.2-18.2,5.6-18.5l0.101-0.1
			c33.399,15.6,59.1,4.6,76.3-10c13.9,5.4,44.7,78.3,45.1,79.1"/>
		<path fill="none" stroke="#000000" stroke-width="2" d="M308.5,312c0,0-0.2,0.1-0.3,0.3l-0.4-0.5c4.7-3.3,6.9-15.899,6.9-15.899
			l0.1-0.7"/>
		<circle fill="none" stroke="#000000" stroke-width="2" cx="434" cy="273.5" r="5"/>
		<path fill="none" stroke="#000000" stroke-width="2" d="M418,252c-3,0-5.5,2.7-5.5,6s2.5,6,5.5,6s5.5-2.7,5.5-6S421,252,418,252z"
			/>
		<path fill="none" stroke="#000000" stroke-width="2" d="M412,277c-3.9,0-7,3.1-7,7c0,3.9,3.1,7,7,7s7-3.1,7-7
			C419,280.1,415.9,277,412,277z"/>
		<path fill="none" stroke="#000000" stroke-width="2" d="M411.3,224c-2.899,0-5.3,3.1-5.3,7s2.4,7,5.3,7c2.9,0,5.3-3.1,5.3-7
			S414.2,224,411.3,224z"/>
		<path fill="none" stroke="#000000" stroke-width="2" d="M404.3,259.5c-2.399,0-4.3,1.9-4.3,4.3c0,2.4,1.9,4.3,4.3,4.3
			c2.4,0,4.3-1.9,4.3-4.3C408.6,261.4,406.6,259.5,404.3,259.5z"/>
		<circle fill="none" stroke="#000000" stroke-width="2" cx="397.5" cy="224.5" r="4"/>
		<path fill="none" stroke="#000000" stroke-width="2" d="M393.3,270.5c-2.399,0-4.3,1.9-4.3,4.3c0,2.4,1.9,4.3,4.3,4.3
			c2.4,0,4.3-1.9,4.3-4.3C397.6,272.4,395.6,270.5,393.3,270.5z"/>
		<path fill="none" stroke="#000000" stroke-width="2" d="M377.3,285.5c-2.6,0-4.8,2.1-4.8,4.8s2.1,4.8,4.8,4.8s4.8-2.1,4.8-4.8
			S379.9,285.5,377.3,285.5z"/>
		<circle fill="none" stroke="#000000" stroke-width="2" cx="360.5" cy="283.5" r="4"/>
		<circle fill="none" stroke="#000000" stroke-width="2" cx="352" cy="306" r="5.5"/>
		<path fill="none" stroke="#000000" stroke-width="2" d="M337.8,283c-3.2,0-5.8,2.6-5.8,5.8s2.6,5.8,5.8,5.8s5.8-2.6,5.8-5.8
			C343.5,285.6,340.9,283,337.8,283z"/>
		<path fill="none" stroke="#000000" stroke-width="2" d="M329,301c-1.7,0-3,1.3-3,3s1.3,3,3,3s3-1.3,3-3S330.7,301,329,301z"/>
		<path fill="none" stroke="#000000" stroke-width="2" d="M460,290.4c16.3,16.3,41.1,50.8,46,60.6c3,6,13.2,12.2,13.5,13
			c5.2,12.8-25.5,9.5-25.5,9.5c-1,5.8-3.6,10-6.9,12.8c-7.1,6.101-17.6,6.601-23.8,6.3c-3.2-0.199-5.3-0.6-5.3-0.6
			c-9.9-0.4-17.1,1.6-22.2,4.5c-11.5,6.5-13,17.5-13,17.5c-9.399,8.2-32.7,10-47.8,10.2c-8.1,0.1-13.9-0.2-13.9-0.2
			c-4.899-1.7-9.6-2.6-14.1-3.1c-17.5-1.9-30.7,3.6-30.7,3.6c-34,1.3-55.7-1.7-55.7-1.7c2.3-5.3,5-11.399,7.9-18
			c12.6-28.899,28.9-67,36.2-84.1"/>
		<circle fill="none" stroke="#000000" stroke-width="2" cx="487.8" cy="347.3" r="5.3"/>
		<path fill="none" stroke="#000000" stroke-width="2" d="M483.5,363.5c-3.3,0-6,2.7-6,6s2.7,6,6,6s6-2.7,6-6
			S486.8,363.5,483.5,363.5z"/>
		<path fill="none" stroke="#000000" stroke-width="2" d="M460.3,333c-3.2,0-5.8,2.6-5.8,5.8s2.6,5.8,5.8,5.8s5.8-2.6,5.8-5.8
			S463.4,333,460.3,333z"/>
		<circle fill="none" stroke="#000000" stroke-width="2" cx="458.3" cy="307.3" r="4.3"/>
		<path fill="none" stroke="#000000" stroke-width="2" d="M452.3,369c-2.6,0-4.8,2.1-4.8,4.8s2.1,4.8,4.8,4.8s4.8-2.1,4.8-4.8
			S454.9,369,452.3,369z"/>
		<circle fill="none" stroke="#000000" stroke-width="2" cx="445" cy="355" r="5"/>
		<circle fill="none" stroke="#000000" stroke-width="2" cx="444.8" cy="323.3" r="5.3"/>
		<circle fill="none" stroke="#000000" stroke-width="2" cx="425.8" cy="336.3" r="4.3"/>
		<circle fill="none" stroke="#000000" stroke-width="2" cx="422.3" cy="366.8" r="6.3"/>
		<circle fill="none" stroke="#000000" stroke-width="2" cx="412.5" cy="396" r="5"/>
		<path fill="none" stroke="#000000" stroke-width="2" d="M408.5,329.5c-3.3,0-6,2.7-6,6s2.7,6,6,6s6-2.7,6-6
			S411.8,329.5,408.5,329.5z"/>
		<circle fill="none" stroke="#000000" stroke-width="2" cx="401.5" cy="376.5" r="5"/>
		<circle fill="none" stroke="#000000" stroke-width="2" cx="401" cy="413.5" r="4"/>
		<circle fill="none" stroke="#000000" stroke-width="2" cx="385.3" cy="395.8" r="5.3"/>
		<circle fill="none" stroke="#000000" stroke-width="2" cx="383.8" cy="354.3" r="5.3"/>
		<path fill="none" stroke="#000000" stroke-width="2" d="M368.8,378.5c-2.6,0-4.8,2.1-4.8,4.8s2.1,4.8,4.8,4.8s4.8-2.1,4.8-4.8
			S371.4,378.5,368.8,378.5z"/>
		<path fill="none" stroke="#000000" stroke-width="2" d="M367.5,335c-3.3,0-6,2.7-6,6s2.7,6,6,6s6-2.7,6-6S370.8,335,367.5,335z"/>
		<circle fill="none" stroke="#000000" stroke-width="2" cx="356.5" cy="409" r="5"/>
		<circle fill="none" stroke="#000000" stroke-width="2" cx="348.8" cy="354.3" r="6.3"/>
		<circle fill="none" stroke="#000000" stroke-width="2" cx="334.3" cy="382.8" r="6.8"/>
		<path fill="none" stroke="#000000" stroke-width="2" d="M321.8,406c-2.399,0-4.3,1.9-4.3,4.3c0,2.4,1.9,4.3,4.3,4.3
			c2.4,0,4.3-1.899,4.3-4.3C326.1,407.9,324.1,406,321.8,406z"/>
		<path fill="none" stroke="#000000" stroke-width="2" d="M317.3,337c-4,0-7.3,3.3-7.3,7.3s3.3,7.3,7.3,7.3s7.3-3.3,7.3-7.3
			S321.3,337,317.3,337z"/>
		<circle fill="none" stroke="#000000" stroke-width="2" cx="306.5" cy="361" r="5"/>
		<circle fill="none" stroke="#000000" stroke-width="2" cx="299.8" cy="388.8" r="6.8"/>
		<path fill="none" stroke="#000000" stroke-width="2" d="M285.3,412c-2.4,0-4.3,1.9-4.3,4.3c0,2.4,1.9,4.3,4.3,4.3
			c2.4,0,4.3-1.899,4.3-4.3C289.6,413.9,287.6,412,285.3,412z"/>
		<path fill="none" stroke="#000000" stroke-width="2" d="M460,290.4l-1,0.1c-14-4-16,12-16,12c-15.2-5.2-27,15-27,15
			c-14.3-11.7-29.5,11-29.5,11c-13-14.5-31.8,2.5-31.8,2.5c-7.7-8.7-26-0.7-26-0.7c-7.3-9.3-15.7-5.8-15.7-5.8
			c-3.7-6-7.5-3.5-7.5-3.5l-0.8-0.1c2.3-5.4,3.7-8.7,3.8-8.9l0,0c7.5-6.1,7,6.5,7,6.5c10.7-6.3,15.8,3.5,16.5,2.8
			c10.7-10.3,22.3-1.3,22.3-1.3c8.7-13.3,30.7-6.5,30.7-6.5c4-16,23.3-11.2,23.3-11.2C414.2,287,436,291.4,436,291.4
			c3.8-10.7,8.3-12.5,14.7-7.5l0,0c1.7,1.3-1.5-2.3,1.3-0.5C454.3,285,457,287.4,460,290.4z"/>
		<path fill="none" stroke="#000000" stroke-width="2" d="M316.6,274.3l-0.1,0.7l-1.8,20.1L314.1,295c0,0-31.2,6.9-51.899,4.6
			c-12.8-1.399-30.7-5.3-30.7-5.3c-8.6-2.1-18.3-0.7-21.7-2.7c-0.5-0.3-21.2-4.699-21.3-6c-0.7-6.7,20.2-0.899,20.4-2.2
			c0.2-1.4-20.6-3.5-18.5-7.9c2.1-4.5,18.9,1.8,18.8,1.1c-0.1-1.4-18.6-6.4-18.8-11c0-0.7,0.4-1.4,1.4-2.1c1.5-1,18.3,8.2,19,6.5
			c1.1-2.6-21.4-8.5-19.8-15.6c0.6-2.5,11.4,2.9,19.4,7.2c4.7,2.6,8.4,4.7,8.4,4.7c1.2,0.5-0.8-6.1-2.3-11.8c-1.1-4.3-2-8-1-8
			c1.2,0.1,2.4,0.5,3.5,1.2c7.6,4.8,12.8,22.4,15.5,22.7c38,4.3,50.5-4,50.5-4l0.1-0.2"/>
		<path fill="none" stroke="#000000" stroke-width="2" d="M285.1,266.3c-8.8-2.7-19.4-6.1-32.1-10.7c0,0-22-4.1-33.5-11.7
			c-4.2-2.8-6.9-6-6.8-9.7c0,0,0.5-2.6,1.5-6.2c2-8,5.9-20.8,9.8-20.8c0,0-5.7-6.7-10.3-12.8c-3.5-4.6-6.4-8.8-5.7-9.4
			c0,0-1.2-4.4,4.1-2.7c3.1,1,8.4,4,17.4,11.2c0,0,31,23.1,36,33.8c0,0,25.9,8.7,58,6.2c-2.4,4.4,69.5-18.5,72.5,6.5
			c0,0,19,31.5-74,35c0,0-1.6-0.1-5.4-0.7C311.1,273.3,301.1,271.1,285.1,266.3z"/>
	</g>
</g>
<path fill="none" stroke="#1F1D21" d="M330.7,136.5c0,0-13.3,6.2-6.2,17.1"/>
<path fill="none" stroke="#1F1D21" stroke-width="2" d="M403.5,456.4c0,0,3.6,1.8,13-13.801"/>
<path fill="none" stroke="#1F1D21" d="M367.8,487.8c0,0-10-1.8-11.5,16.5"/>
<path fill="none" stroke="#1F1D21" stroke-width="2" d="M359.6,463.7c0,0,1.801-0.601,3.2,2.3c1.5,2.8-1.5-2.8-1.5-2.8"/>
<path fill="none" stroke="#1F1D21" d="M347.3,478c0,0-9,1.7-9.8,22.6"/>
<path fill="none" stroke="#1F1D21" stroke-width="2" d="M378.2,131.4c3.8,5.1,6.1,8.1,7.899,13.5"/>
<path fill="none" stroke="#1F1D21" stroke-width="2" d="M340.7,104.4c3.899,0.9,10.2,4.9,14.1,6.6"/>
<path fill="none" stroke="#1F1D21" d="M228.3,221.4c0,0-9.7-9.3-8-8.3"/>
<path fill="none" stroke="#1F1D21" d="M224,230.4c0,0-8.4-6-8.8-7.6"/>
<line fill="none" stroke="#1F1D21" x1="606.8" y1="232.3" x2="595.8" y2="224.8"/>
<line fill="none" stroke="#1F1D21" x1="606.5" y1="239" x2="594.8" y2="238.8"/>
<line fill="none" stroke="#1F1D21" x1="647.9" y1="234.5" x2="663.3" y2="227.8"/>
<line fill="none" stroke="#1F1D21" x1="650.3" y1="241.3" x2="658.3" y2="242.3"/>
</svg>
