<?xml version="1.0" encoding="utf-8"?>
<!-- Generator: Adobe Illustrator 15.0.2, SVG Export Plug-In . SVG Version: 6.00 Build 0)  -->
<!DOCTYPE svg PUBLIC "-//W3C//DTD SVG 1.1//EN" "http://www.w3.org/Graphics/SVG/1.1/DTD/svg11.dtd">
<svg version="1.1" id="Layer_x5F_www.ABC-color.com"
	 xmlns="http://www.w3.org/2000/svg" xmlns:xlink="http://www.w3.org/1999/xlink" x="0px" y="0px" width="822px" height="567px"
	 viewBox="0 0 822 567" enable-background="new 0 0 822 567" xml:space="preserve">
<rect display="none" fill="#FFFFFF" width="822" height="567"/>
<polyline fill="none" stroke="#000000" points="16.4,539.9 17.7,547.9 19.6,540 21.4,547.9 22.8,539.9 "/>
<polyline fill="none" stroke="#000000" points="24.2,540 25.5,547.8 27.3,539.9 28.8,547.8 30.5,539.9 "/>
<polyline fill="none" stroke="#000000" points="31.8,539.9 33.1,547.6 34.9,539.9 36.5,547.6 37.9,539.9 "/>
<line fill="none" stroke="#000000" x1="51.4" y1="536.6" x2="51.4" y2="548.2"/>
<line fill="none" stroke="#000000" x1="62.1" y1="544" x2="64" y2="544"/>
<polyline fill="none" stroke="#000000" points="77.4,536.5 77.4,548.3 80.2,548.3 "/>
<path fill="none" stroke="#000000" d="M69.4,546.8c-0.3,0.8-0.9,1.3-1.4,1.3c-1.1,0-1.9-1.8-1.9-4c0-2.199,0.9-4,1.9-4
	c0.7,0,1.2,0.7,1.6,1.7"/>
<path fill="none" stroke="#000000" d="M72.5,548.3c-0.9,0-1.7-1.899-1.7-3.8c0-2.2,0.9-4,1.9-4s1.9,1.8,1.9,4s-0.6,3.7-1.4,3.7"/>
<path fill="none" stroke="#000000" d="M60.3,546.6c-0.4,0.801-0.9,1.301-1.4,1.301c-1.1,0-1.9-1.801-1.9-4c0-2.2,0.9-4,1.9-4
	c0.7,0,1.2,0.699,1.6,1.699"/>
<path fill="none" stroke="#000000" d="M51.4,541.8c0.3-0.6,1.3-0.6,1.8-0.6c0.7,0,1.7,1,1.7,3.3c0,1.3,0,2.3-0.9,2.9
	c-0.2,0.199-0.8,0.399-1.1,0.399"/>
<path fill="none" stroke="#000000" stroke-width="1.0581" d="M45.1,540.5c0,0,3.6-3.2,3.3,2.4c0,0-0.1,3.5,0.1,4.399
	c0.1,0.4,0.9,0.4,0.9,0.4"/>
<path fill="none" stroke="#000000" d="M40.9,547.9c0.7,0,0.7-1.101,0-1.101C40.2,546.8,40.2,547.9,40.9,547.9L40.9,547.9z"/>
<path fill="none" stroke="#000000" d="M82.2,548.5c-0.8,0-1.2-2.2-1.2-4c0-2.2,0.9-4,1.9-4s1.9,1.8,1.9,4s-0.9,4-1.9,4"/>
<line fill="none" stroke="#000000" x1="86.7" y1="539.9" x2="86.7" y2="548.7"/>
<path fill="none" stroke="#000000" d="M90.1,541.1c0,0-2.2-2.3-3.4,1.4"/>
<line fill="none" stroke="#000000" x1="107.9" y1="540.3" x2="107.9" y2="548.8"/>
<path fill="none" stroke="#000000" d="M111.6,548.8v-6c0,0-1.5-3.899-3.7,0"/>
<path fill="none" stroke="#000000" d="M115,548.8v-6.1c0,0-1-3.601-3.5-0.2"/>
<path fill="none" stroke="#000000" d="M99.3,546.9c-0.3,0.8-0.9,1.3-1.4,1.3c-1.1,0-1.9-1.8-1.9-4s0.9-4,1.9-4
	c0.7,0,1.2,0.7,1.6,1.7"/>
<path fill="none" stroke="#000000" d="M102.9,548.1c-1.1-0.5-2.2-7.699,0.9-7.899c1.1-0.101,1.9,1.8,1.9,4s-0.9,4-1.9,4"/>
<path fill="none" stroke="#000000" d="M92.4,548.6c0.7,0,0.7-1.1,0-1.1C91.7,547.5,91.7,548.6,92.4,548.6L92.4,548.6z"/>
<path fill="none" stroke="#000000" d="M48.4,544.4c-0.3-0.601-0.6-1.4-1.7-1.4c-0.7,0-1.6,0.1-1.6,2.4c0,1.3,0.5,1.8,0.9,2
	c0.2,0.1,0.8,0.399,1.1,0.399"/>
<g id="XMLID_1_">
	<g>
		<path fill="#FBF1EC" d="M109.6,315.7C95.8,315.1,92.2,304,92.2,304c-3.7-0.8-6.7-1.9-9.1-3.1c-4.4-2.2-6.9-4.9-8-7.801
			c-1.1-2.699-1.1-5.5-0.5-8.199c1.6-7,7.1-13,7.1-13C93.6,259.1,99,250,99,250c10-31.2,49.2-48.9,49.2-48.9
			c5.6-5.2,14.7-8.6,24.7-10.9c0.2-0.2,0.3-0.4,0.5-0.7c0.2-0.3,0.4-0.6,0.6-1c3.3-6.1,7.5-27.3-11.8-98.8c0,0-13.3-50.6-6.1-60
			c3.9-5.1,8-6.6,12-5.6c-3.7-0.6-7.5,1-11.1,5.8c-7.2,9.4,6.1,60,6.1,60c21.5,79.9,13.8,96.9,10.7,100.4c21.7-5,47.1-4.5,47.1-4.5
			c0.3-7.6,1.7-16.7,3.6-26.2h-0.2c0.2-0.9,0.2-2.1,0.1-3.6c6.1-28.6,16.2-59.1,16.2-59.1c23.2-63,84-75.2,84-75.2
			c41,15.8,0.4,132.4,0.4,132.4c0,31.2-42.4,47.9-42.4,47.9c15.9,17.7,2.5,52.3,2.5,52.3c42.4-20.6,80.1-3.4,80.1-3.4
			c14.899-13.5,68.3-16.3,68.3-16.3c155.4,0.5,246.3,97.3,246.3,97.3c25.2,25.199,16.9,67.899,13.2,82
			c6.3-16.9,28.1-25.301,28.1-25.301l3.7,0.301c0,0,0,1.5,0,1.899c0-1.899,3.3-6.1,3.3-6.1l3.7,3.8c0-2.3,4.7-6.8,4.7-6.8l3.3,4.5
			l2.8-5.5c2.301-1.9,6.5,6.399,6.5,6.399l4.2-4.5c4.7,2.9,2.3,14.5,2.3,14.5l5.101-4.5c3.3,2.9-3.3,22.2-3.3,22.2l5.6-2.899
			c0,3.199-9.8,18.699-9.8,18.699l8.399-2.6c0,6.8-15.399,19.6-15.399,19.6h6.1c0,3.5-29.399,18.301-29.399,18.301l5.1,0.6
			c-11.2,10-61.1,11.6-61.1,11.6c-15.4,0-19.601,16.101-19.601,16.101c7,19.3-17.3,22.8-17.3,22.8c-12.1,1.3-111.5,11.3-111.5,11.3
			c-62.5,11.3-60.6-0.6-60.6-0.6c-17.7,6.8-27.5-2.9-27.5-2.9c-4.9,1.8-6.601-0.7-7.2-2.3l0.1-0.1l0.601-0.101
			c-0.101-0.5-0.2-0.8-0.2-0.8s-2.3-18.3,13.5-22.5c0,0,8-4.399,22.8-6.8c-12.2-0.3-97.9-2.3-98.4,1.3c0,0-41,9-28,24.4
			c0,0,3,2.5,7.7,3.7c-5.2-1.101-8.5-3.9-8.5-3.9c-13.1-15.4,28-24.4,28-24.4c0.4-3.6,86-1.6,98.3-1.3c1,0,1.5,0,1.5,0l-0.399-0.2
			l-13.601-6.199c0,0-6.1-0.601-8.399-0.601s-6.101-4.8-6.101-4.8l-4.699,2.3l-4.2-2.899c0,0-5.101-1.301-8.9-1.301
			c-3.7,0-10.3-3.899-10.3-3.899s-0.5,1.899-2.8,1.899s-10.7-5.5-10.7-5.5s-3.3,1-4.7,1.301C384.4,472.4,375.1,467,375.1,467
			s-1.899-2.3-4.2,0.601c-2.3,2.899-14.5-5.101-14.5-5.101s-1.399,1-3.699,2.601c-2.301,1.6-9.301-4.801-9.301-4.801
			s0.5,1.9-2.8,3.2c-2.3,0.9-2.5-3.3-2.399-5.7c-6.2,9-7.8,20.2-7.8,20.2c-0.5,9.3-27.101,37.601-27.101,37.601
			C290.7,526.5,259.9,528.8,259.9,528.8c-40.6,5.5-38.2-5.1-38.2-5.1c-8.5,5-20.5-2.8-22.5-4.3c0.2,0,0.4,0,0.5,0
			c1.9-0.3,4.7-11.2,17.3-14.4c0,0,15-4,18.2-4c0,0,49.4-7,41.9-51c-1.4,1.3-6.5-2.3-6.5-2.3s1.4,3.5-0.5,5.1
			c-1.9,1.601-10.3-2.3-10.3-2.3s5.1,3.9,1.4,3.9c-3.6,0-9.4-3.601-9.8-3.8c0.3,0.199,3.6,2.899,0,3.5c-3.7,0.6-7-4.5-7-4.5
			s4.2,21.5-2.3,27.699c0,0-3.3,12.5-25.6,19.9c0,0-38.5,9.3-22.9,20.6c0,0,1.9,0.9,3.7,1.4c-2-0.3-4.6-1.5-4.6-1.5
			c-15.6-11.3,22.9-20.6,22.9-20.6c22.4-7.4,25.6-19.9,25.6-19.9c6.5-6.1,2.3-27.7,2.3-27.7s-4.2,4.8-5.6,3.9c-1.4-1-6.1-9-6.1-9
			s0,4.2-2.3,4.2c-2.3,0-7.5-7.7-7.5-7.7s0.9,3.2-2.3,3.2c-3.2,0-6.1-9.301-6.1-9.301l-2.3,2.9c-3.7,0-3.7-9.7-3.7-9.7l-3.7,3.2
			c-1.4-6.1-11.7-9-11.7-9l5.1,5.1c-39.2-5.1-50.4-58.8-50.4-58.8l0.2-0.3c-32.3-12.899-24.8-37.899-24-40.399
			C118.2,325.4,112,321.5,109.6,315.7z M692.9,414c-0.5,1.4-1,2.8-1.2,4.3C691.8,417.8,692.3,416.3,692.9,414z M365.1,424.6
			l0.2,0.101C364.7,422.8,365.1,424.6,365.1,424.6z M329.6,39.7c3-20.3-34,1.5-34,1.5c-43.4,22.8-41.1,129.6-41.1,129.6
			c2.7,9.7,2.1,18,0.3,24.4c38.8-9.5,53-40.9,53-40.9C321.3,133,329.6,39.7,329.6,39.7z M226,233.5c0.5-0.8,2-1,3.5-0.9
			c-2-0.7-4-2-4-2c-5.9-7.8-11.3-12.6-16-15.4c-10.1-6.2-16.7-3.5-16.7-3.5c-2.3,0.5-4.4,1.2-6.2,2.1c-2.4,1.1-4.5,2.5-6.1,4.1
			c-4.6,4.1-6.9,9.4-8,13.7c-1.3,4.8-1.1,8.4-1.1,8.4l-3.5,3c1.4,1,4.9-1.5,4.9-1.5c38.2,11.3,52.8-7.5,54.1-9.4L226,233.5z
			 M179.4,286.5c0,0,1.1-4.5-1.8-9.2c-3.7-5.7-13.5-11.5-39.2-9.2c0,0-11.6,0.2-30.3,14.7c0,0-2,0.5-3.3,2.4l-0.3-0.2
			c0,0-8.2-11.4-21.9-12.9c0,0-5.5,6-7.1,13c-0.6,2.7-0.6,5.5,0.5,8.2c1.2,2.9,3.6,5.601,8,7.8c2.4,1.2,5.4,2.2,9.1,3.101
			c0,0,10.4-4.2,11.2-10.5c0-0.2,0.1-0.5,0.1-0.8c0,0,10.3,11.3,30.8,9.6c0,0,11,1.2,22.2-0.8c7.8-1.4,15.6-4.3,19.8-10.4
			C178,290,178.8,288.4,179.4,286.5z"/>
		<path fill="#F8E5DC" d="M460.1,492.3c-14.899,2.4-22.8,6.8-22.8,6.8c-15.899,4.2-13.5,22.5-13.5,22.5s0,0.4,0.2,0.801l-0.6,0.1
			l-0.101,0.1c-0.1-0.1-0.1-0.3-0.1-0.399l-0.601,0.1c-6.5,7.1-46.8,1.2-46.8,1.2c-4.5,1.6-8.1,1.7-10.899,1.1c0,0,0,0-0.101,0
			c-5.2-1.399-7.6-5-7.6-5c-0.2,0.101-0.3,0.2-0.5,0.3c-0.2-0.3-0.3-0.399-0.3-0.399c-5.301,3-10.301,3.2-14.2,2.399
			c-0.2,0-0.4-0.1-0.5-0.1c-4.7-1.2-7.7-3.7-7.7-3.7C320.9,502.7,362,493.7,362,493.7C362.2,490,447.9,492,460.1,492.3z"/>
		<path fill="#E2E2E2" d="M295.6,41.2c0,0,37.1-21.8,34-1.5c0,0-8.399,93.3-21.899,114.5c0,0-14.2,31.4-53,40.9
			c1.8-6.4,2.4-14.7-0.3-24.4C254.5,170.8,252.2,64,295.6,41.2z"/>
		<path fill="#F8E5DC" d="M277.3,449.9c7.5,44-41.9,51-41.9,51c-3.3,0-18.2,4-18.2,4c-12.6,3.199-15.4,14.1-17.3,14.399
			c-0.2,0-0.3,0-0.5,0c-0.2-0.1-0.3-0.2-0.3-0.2c-0.4,0.101-0.9,0-1.5-0.1c-1.8-0.5-3.7-1.4-3.7-1.4c-15.6-11.3,22.9-20.6,22.9-20.6
			c22.4-7.4,25.6-19.9,25.6-19.9c6.5-6.1,2.3-27.699,2.3-27.699s3.3,5.199,7,4.5c3.6-0.601,0.3-3.301,0-3.5
			c0.4,0.199,6.2,3.8,9.8,3.8c3.7,0-1.4-3.9-1.4-3.9s8.4,3.9,10.3,2.3c1.9-1.6,0.5-5.1,0.5-5.1S275.9,451.2,277.3,449.9z"/>
		<path fill="#CCD8E1" d="M226.9,232c-1.3,1.9-15.9,20.7-54.1,9.4c0,0-3.5,2.5-4.9,1.5l3.5-3c0,0-0.1-3.7,1.1-8.4
			c3.3,6,10.6,10.2,19.1,10.2c11.6,0,21-7.8,21-17.5c0-3.3-1.1-6.4-3-9c4.7,2.9,10.1,7.6,16,15.4c0,0,2,1.3,4,2
			c-1.5,0-3,0.1-3.5,0.9L226.9,232z"/>
		<path fill="#F8E5DC" d="M224.3,159.7h0.2c-1.9,9.5-3.3,18.6-3.6,26.2c0,0-25.4-0.5-47.1,4.5c3.1-3.4,10.8-20.5-10.7-100.4
			c0,0-13.3-50.6-6.1-60c3.6-4.8,7.4-6.4,11.1-5.8c17.8,4.6,34.8,58.8,35.2,65.9c0.5,8.5,22.6,59.1,20.2,69.3h0.2
			c0.2-1.1,0.5-2.3,0.7-3.5C224.5,157.5,224.5,158.8,224.3,159.7z"/>
		<path fill="#EEC5DD" d="M209.6,215.1c1.9,2.6,3,5.7,3,9c0,9.7-9.4,17.5-21,17.5c-8.5,0-15.8-4.2-19.1-10.2c1.1-4.3,3.4-9.5,8-13.7
			c-1.3,1.8-2,4-2,6.4c0,5.9,4.5,10.6,10,10.6s10-4.8,10-10.6c0-5.9-4.5-10.6-10-10.6c-0.6,0-1.3,0.1-1.9,0.2
			c1.8-0.9,3.9-1.6,6.2-2.1C192.9,211.6,199.5,208.9,209.6,215.1z"/>
		<path fill="#DB6EA8" d="M198.6,224.2c0,5.9-4.5,10.6-10,10.6s-10-4.8-10-10.6c0-2.4,0.7-4.6,2-6.4c1.7-1.5,3.7-2.9,6.1-4.1
			c0.6-0.1,1.2-0.2,1.9-0.2C194.1,213.5,198.6,218.3,198.6,224.2z"/>
		<path fill="#DFDADA" d="M177.5,277.4c3,4.6,1.8,9.2,1.8,9.2c-0.5,1.801-1.4,3.4-2.4,4.9c-4.2,6-12,9-19.8,10.4
			c-11.1,2-22.2,0.8-22.2,0.8c-20.5,1.6-30.8-9.601-30.8-9.601c0,0.301,0,0.5-0.1,0.801c-1.2-4.2-0.5-6.801,0.5-8.4
			c1.3-2,3.3-2.4,3.3-2.4c18.7-14.5,30.3-14.7,30.3-14.7C164,265.9,173.9,271.7,177.5,277.4z"/>
		<path fill="#DFDADA" d="M104.4,285.1l0.3,0.2c-1.1,1.601-1.8,4.2-0.5,8.4C103.4,300,93,304.2,93,304.2c-3.7-0.8-6.7-1.9-9.1-3.101
			c-4.4-2.199-6.9-4.899-8-7.8c-1.1-2.7-1.1-5.5-0.5-8.2c1.6-7,7.1-13,7.1-13C96.2,273.7,104.4,285.1,104.4,285.1z"/>
	</g>
	<g>
		<path fill="none" stroke="#000000" stroke-width="1.3078" d="M365.3,424.7c-0.6-1.9-0.2-0.101-0.2-0.101L365.3,424.7z"/>
		<path fill="none" stroke="#000000" stroke-width="1.3078" d="M691.6,418.3c0.2-0.5,0.601-2,1.2-4.3
			C692.3,415.3,691.9,416.8,691.6,418.3z"/>
		<path fill="none" stroke="#000000" stroke-width="1.3078" d="M341.4,521.7c-5.2-1.101-8.5-3.9-8.5-3.9
			c-13.101-15.399,28-24.399,28-24.399c0.399-3.601,86-1.601,98.3-1.301c1,0,1.5,0,1.5,0l-0.4-0.199l-13.6-6.2
			c0,0-6.101-0.601-8.4-0.601s-6.1-4.8-6.1-4.8l-4.7,2.3l-4.2-2.899c0,0-5.1-1.3-8.899-1.3c-3.7,0-10.301-3.9-10.301-3.9
			s-0.5,1.9-2.8,1.9s-10.7-5.5-10.7-5.5s-3.3,1-4.699,1.3c-1.4,0.3-10.7-5.101-10.7-5.101s-1.9-2.3-4.2,0.601
			c-2.3,2.899-14.5-5.101-14.5-5.101s-1.4,1-3.7,2.601c-2.3,1.6-9.3-4.8-9.3-4.8s0.5,1.899-2.8,3.199c-2.3,0.9-2.5-3.3-2.4-5.699
			c-6.2,9-7.8,20.199-7.8,20.199C330,487.4,303.4,515.7,303.4,515.7C290.8,526.6,260,528.9,260,528.9
			c-40.6,5.5-38.2-5.101-38.2-5.101c-8.5,5-20.5-2.8-22.5-4.3c-0.2-0.1-0.3-0.2-0.3-0.2c-0.4,0.101-0.9,0-1.5-0.1
			c-2-0.3-4.6-1.5-4.6-1.5c-15.6-11.3,22.9-20.601,22.9-20.601c22.4-7.399,25.6-19.899,25.6-19.899c6.5-6.101,2.3-27.7,2.3-27.7
			s-4.2,4.8-5.6,3.9c-1.4-1-6.1-9-6.1-9s0,4.199-2.3,4.199c-2.3,0-7.5-7.699-7.5-7.699s0.9,3.199-2.3,3.199c-3.2,0-6.1-9.3-6.1-9.3
			l-2.3,2.9c-3.7,0-3.7-9.7-3.7-9.7l-3.7,3.2c-1.4-6.101-11.7-9-11.7-9l5.1,5.1c-39.2-5.1-50.4-58.8-50.4-58.8l0.2-0.3
			c-32.3-12.899-24.8-37.899-24-40.399c-5.3-2.301-11.4-6.201-13.9-12C95.8,315.1,92.2,304,92.2,304c-3.7-0.8-6.7-1.9-9.1-3.1
			c-4.4-2.2-6.9-4.9-8-7.801c-1.1-2.699-1.1-5.5-0.5-8.199c1.6-7,7.1-13,7.1-13C93.6,259.1,99,250,99,250
			c10-31.2,49.2-48.9,49.2-48.9c5.6-5.2,14.7-8.6,24.7-10.9c0.2-0.2,0.3-0.4,0.5-0.7c0.2-0.3,0.4-0.6,0.6-1
			c3.3-6.1,7.5-27.3-11.8-98.8c0,0-13.3-50.6-6.1-60c3.9-5.1,8-6.6,12-5.6c17.8,4.6,34.8,58.8,35.2,65.9
			c0.5,8.5,22.6,59.1,20.2,69.3h0.2c0.2-1.1,0.5-2.3,0.7-3.5c6.1-28.6,16.2-59.1,16.2-59.1c23.2-63,84-75.2,84-75.2
			c41,15.8,0.4,132.4,0.4,132.4c0,31.2-42.4,47.9-42.4,47.9c15.9,17.7,2.5,52.3,2.5,52.3c42.4-20.6,80.1-3.4,80.1-3.4
			c14.899-13.5,68.3-16.3,68.3-16.3c155.4,0.5,246.3,97.3,246.3,97.3c25.2,25.2,16.9,67.899,13.2,82c6.3-16.9,28.1-25.3,28.1-25.3
			l3.7,0.3c0,0,0,1.5,0,1.899c0-1.899,3.3-6.1,3.3-6.1l3.7,3.8c0-2.3,4.7-6.8,4.7-6.8l3.3,4.5l2.8-5.5c2.301-1.9,6.5,6.4,6.5,6.4
			l4.2-4.5c4.7,2.899,2.3,14.5,2.3,14.5l5.101-4.5c3.3,2.899-3.3,22.199-3.3,22.199l5.6-2.899c0,3.2-9.8,18.7-9.8,18.7l8.399-2.601
			c0,6.8-15.399,19.601-15.399,19.601h6.1c0,3.5-29.399,18.3-29.399,18.3l5.1,0.6c-11.2,10-61.1,11.601-61.1,11.601
			c-15.4,0-19.601,16.1-19.601,16.1c7,19.3-17.3,22.8-17.3,22.8c-12.1,1.3-111.5,11.3-111.5,11.3c-62.5,11.301-60.6-0.6-60.6-0.6
			c-17.7,6.8-27.5-2.9-27.5-2.9c-4.9,1.801-6.601-0.699-7.2-2.3c-0.101-0.1-0.101-0.3-0.101-0.399l-0.6,0.1
			c-6.5,7.1-46.8,1.2-46.8,1.2c-4.5,1.6-8.101,1.7-10.9,1.1"/>
		<path fill="none" stroke="#000000" stroke-width="1.3078" d="M364.6,524.6c-4.6-0.899-7.3-3.6-8.1-4.699
			c-0.2-0.301-0.3-0.4-0.3-0.4c-5.3,3-10.3,3.2-14.2,2.4"/>
		<path fill="none" stroke="#000000" stroke-width="0.5" d="M186.7,213.7c1.8-0.9,3.9-1.6,6.2-2.1c0,0,6.5-2.7,16.7,3.5"/>
		<path fill="none" stroke="#000000" stroke-width="0.5" d="M172.6,231.5c1.1-4.3,3.4-9.5,8-13.7"/>
		<path fill="none" stroke="#000000" stroke-width="0.5" d="M224.4,156.1c0.1,1.5,0.1,2.7-0.1,3.6h0.2c-1.9,9.5-3.3,18.6-3.6,26.2
			c0,0-25.4-0.5-47.1,4.5c3.1-3.4,10.8-20.5-10.7-100.4c0,0-13.3-50.6-6.1-60c3.6-4.8,7.4-6.4,11.1-5.8c18.1,3,35.6,58.9,36,66.1
			C204.5,98.1,222.9,140.8,224.4,156.1z"/>
		<path fill="none" stroke="#000000" stroke-width="0.5" d="M226.9,232c-1.3,1.9-15.9,20.7-54.1,9.4c0,0-3.5,2.5-4.9,1.5l3.5-3
			c0,0-0.1-3.7,1.1-8.4c3.3,6,10.6,10.2,19.1,10.2c11.6,0,21-7.8,21-17.5c0-3.3-1.1-6.4-3-9c4.7,2.9,10.1,7.6,16,15.4c0,0,2,1.3,4,2
			c-1.5,0-3,0.1-3.5,0.9L226.9,232l0.1-0.1"/>
		<path fill="none" stroke="#000000" stroke-width="0.5" d="M186.7,213.7c0.6-0.1,1.2-0.2,1.9-0.2c5.5,0,10,4.8,10,10.6
			c0,5.9-4.5,10.6-10,10.6s-10-4.8-10-10.6c0-2.4,0.7-4.6,2-6.4C182.3,216.2,184.3,214.9,186.7,213.7z"/>
		<path fill="none" stroke="#000000" stroke-width="0.5" d="M423.2,522.6c-6.8,6.9-46.8,1.101-46.8,1.101
			c-4.9,1.7-8.801,1.7-11.801,0.899c0,0,0,0-0.1,0c-5.2-1.399-7.6-5-7.6-5c-0.2,0.101-0.301,0.2-0.5,0.301
			c-5.5,2.899-10.601,2.899-14.5,2c-0.2,0-0.4-0.101-0.5-0.101c-4.7-1.2-7.7-3.7-7.7-3.7c-13.101-15.399,28-24.399,28-24.399
			c0.399-3.601,86.2-1.601,98.399-1.3c-14.899,2.399-22.8,6.8-22.8,6.8c-15.899,4.2-13.5,22.5-13.5,22.5s0,0.399,0.2,0.8
			L423.2,522.6C423.3,522.6,423.3,522.6,423.2,522.6z"/>
		<path fill="none" stroke="#000000" stroke-width="0.5" d="M197.6,519.1c-1.8-0.5-3.7-1.399-3.7-1.399
			c-15.6-11.3,22.9-20.601,22.9-20.601c22.4-7.399,25.6-19.899,25.6-19.899c6.5-6.101,2.3-27.7,2.3-27.7s3.3,5.2,7,4.5
			c3.6-0.6,0.3-3.3,0-3.5c0.4,0.2,6.2,3.8,9.8,3.8c3.7,0-1.4-3.899-1.4-3.899s8.4,3.899,10.3,2.3c1.9-1.601,0.5-5.101,0.5-5.101
			s5.1,3.5,6.5,2.3c7.5,44-41.9,51-41.9,51c-3.3,0-18.2,4-18.2,4c-12.6,3.2-15.4,14.101-17.3,14.4c-0.2,0-0.3,0-0.5,0
			C198.9,519.4,198.2,519.2,197.6,519.1z"/>
		<path fill="none" stroke="#000000" stroke-width="0.5" d="M104.2,293.7C103.4,300,93,304.2,93,304.2c-3.7-0.8-6.7-1.9-9.1-3.101
			c-4.4-2.199-6.9-4.899-8-7.8c-1.1-2.7-1.1-5.5-0.5-8.2c1.6-7,7.1-13,7.1-13c13.7,1.5,21.9,12.9,21.9,12.9l0.3,0.2"/>
		<path fill="none" stroke="#000000" stroke-width="0.5" d="M104.8,285.3c1.3-2,3.3-2.4,3.3-2.4c18.7-14.5,30.3-14.7,30.3-14.7
			c25.7-2.3,35.5,3.5,39.2,9.2c3,4.6,1.8,9.2,1.8,9.2c-0.5,1.801-1.4,3.4-2.4,4.9c-4.2,6-12,9-19.8,10.4c-11.1,2-22.2,0.8-22.2,0.8
			c-20.5,1.6-30.8-9.601-30.8-9.601c0,0.301,0,0.5-0.1,0.801C103,289.5,103.7,286.9,104.8,285.3z"/>
		<path fill="none" stroke="#000000" stroke-width="0.5" d="M295.6,41.2c0,0,37.1-21.8,34-1.5c0,0-8.399,93.3-21.899,114.5
			c0,0-14.2,31.4-53,40.9c1.8-6.4,2.4-14.7-0.3-24.4C254.5,170.8,252.2,64,295.6,41.2z"/>
		<path fill="none" stroke="#000000" stroke-width="1.3078" d="M109.4,315.7c0.1,0,0.1,0,0.2,0c0.5,0,0.9,0,1.4,0
			c5.4-0.101,12.3-3.9,20.8-7.2"/>
		<path fill="none" stroke="#000000" stroke-width="1.3078" d="M132.2,330.7c0,0-3.7-0.8-8.3-2.7"/>
	</g>
</g>
<path fill="none" stroke="#000000" stroke-linecap="round" stroke-linejoin="round" d="M109.6,315.7c5.4-0.101,13.8-3.9,22.2-7.2"/>
<path fill="none" stroke="#000000" stroke-linecap="round" stroke-linejoin="round" d="M132.2,330.7c0,0-3.7-0.8-8.3-2.7"/>
<path fill="none" stroke="#000000" stroke-linecap="round" stroke-linejoin="round" d="M221.8,523.7c0,0,1.4-12.5,20-11.3"/>
<path fill="none" stroke="#000000" stroke-linecap="round" stroke-linejoin="round" d="M370.1,403.1c2.801-1.3-0.5-14.5-6.5-16.399"
	/>
<path fill="none" stroke="#000000" stroke-linecap="round" stroke-linejoin="round" d="M368.7,426.5c0,0,0.5-7.1-2.3-10
	c0,0,6.1,0.3,5.6-0.3c-0.5-0.601-2.3-5.101-3.7-6.4"/>
<path fill="none" stroke="#000000" stroke-linecap="round" stroke-linejoin="round" d="M357.5,433c0,0,6.1,1.3,7,0.3
	c1-1,1.9-4.5,1-7.7"/>
<path fill="none" stroke="#000000" stroke-linecap="round" stroke-linejoin="round" d="M356.1,442.6c0.9-1.3,4.7-7.1,1.4-9.6"/>
<path fill="none" stroke="#000000" stroke-linecap="round" stroke-linejoin="round" d="M349.1,448.4l1.4,0.6c0,0,3.3-3.8,0.9-7.7
	c0,0,3.699,2.601,4.699,1.3"/>
<path fill="none" stroke="#000000" stroke-linecap="round" stroke-linejoin="round" d="M337.4,459.2c2.8-4.4,6.6-8.5,11.699-10.8"/>
<path fill="none" stroke="#000000" stroke-linecap="round" stroke-linejoin="round" d="M334.2,517.5c0,0,5.1-12.5,15.399-14.2"/>
<path fill="none" stroke="#000000" stroke-linecap="round" stroke-linejoin="round" d="M356.8,518.8c0,0,1.601-7.3,9.601-8"/>
<path fill="none" stroke="#000000" stroke-linecap="round" stroke-linejoin="round" d="M375.5,523.5c0,0-0.3-7.6,9.1-10.8"/>
<path fill="none" stroke="#000000" stroke-linecap="round" stroke-linejoin="round" d="M430.3,524.9c0,0-1.899-19.301,22.4-21.5"/>
<path fill="none" stroke="#000000" stroke-linecap="round" stroke-linejoin="round" d="M457.9,527.8c0,0,1.3-15.399,14.3-17"/>
<path fill="none" stroke="#000000" stroke-width="0.5" stroke-linecap="round" stroke-linejoin="round" d="M136.5,278.9
	c0,0,49-5.8,84.4,3.4"/>
<path fill="none" stroke="#000000" stroke-width="0.5" stroke-linecap="round" stroke-linejoin="round" d="M138.8,286
	c0,0,59.2,3.8,70,19.9"/>
<path fill="none" stroke="#000000" stroke-width="0.5" stroke-linecap="round" stroke-linejoin="round" d="M133.6,292.8
	c0,0,57.4,19.3,57.9,34.7"/>
<path fill="none" stroke="#000000" stroke-width="0.5" stroke-linecap="round" stroke-linejoin="round" d="M81.6,283.4
	c0,0-43.8,8.9-42.9,18.2"/>
<path fill="none" stroke="#000000" stroke-width="0.5" stroke-linecap="round" stroke-linejoin="round" d="M79.8,291
	c0,0-39.2,17-38.3,26.6"/>
<path fill="none" stroke="#000000" stroke-width="0.5" stroke-linecap="round" stroke-linejoin="round" d="M83.3,300.8
	c0,0-31.4,15.3-29.1,26"/>
<path fill="none" stroke="#000000" stroke-linecap="round" stroke-linejoin="round" d="M536.1,482.1c0,0-98.3-92.6,1.5-117"/>
<path fill="none" stroke="#000000" stroke-linecap="round" stroke-linejoin="round" d="M460.6,492.1c0,0,65.801-16.899,75.601-10"/>
<path fill="none" stroke="#000000" stroke-linecap="round" stroke-linejoin="round" d="M373.9,411.1c0,0-6-7-3.801-8
	c2.801-1.3-0.5-14.5-6.5-16.399"/>
</svg>
