<?xml version="1.0" encoding="utf-8"?>
<!-- Generator: Adobe Illustrator 15.0.2, SVG Export Plug-In . SVG Version: 6.00 Build 0)  -->
<!DOCTYPE svg PUBLIC "-//W3C//DTD SVG 1.1//EN" "http://www.w3.org/Graphics/SVG/1.1/DTD/svg11.dtd">
<svg version="1.1" id="layer_x5F_www.ABC-color.com"
	 xmlns="http://www.w3.org/2000/svg" xmlns:xlink="http://www.w3.org/1999/xlink" x="0px" y="0px" width="822px" height="567px"
	 viewBox="0 0 822 567" enable-background="new 0 0 822 567" xml:space="preserve">
<rect display="none" fill="#FFFFFF" width="822" height="567"/>
<polyline fill="none" stroke="#000000" points="666.7,541.4 668.1,549.4 669.9,541.5 671.7,549.4 673.2,541.4 "/>
<polyline fill="none" stroke="#000000" points="674.5,541.5 675.8,549.3 677.6,541.4 679.1,549.3 680.8,541.4 "/>
<polyline fill="none" stroke="#000000" points="682.1,541.4 683.4,549.1 685.2,541.4 686.8,549.1 688.2,541.4 "/>
<line fill="none" stroke="#000000" x1="701.7" y1="538.1" x2="701.7" y2="549.7"/>
<line fill="none" stroke="#000000" x1="712.4" y1="545.5" x2="714.3" y2="545.5"/>
<polyline fill="none" stroke="#000000" points="727.7,538 727.7,549.8 730.5,549.8 "/>
<path fill="none" stroke="#000000" d="M719.7,548.3c-0.3,0.8-0.9,1.3-1.4,1.3c-1.1,0-1.899-1.8-1.899-4c0-2.199,0.899-4,1.899-4
	c0.7,0,1.2,0.7,1.601,1.7"/>
<path fill="none" stroke="#000000" d="M722.8,549.8c-0.899,0-1.7-1.899-1.7-3.8c0-2.2,0.9-4,1.9-4s1.9,1.8,1.9,4s-0.601,3.7-1.4,3.7
	"/>
<path fill="none" stroke="#000000" d="M710.6,548.1C710.2,548.9,709.7,549.4,709.2,549.4c-1.101,0-1.9-1.801-1.9-4
	c0-2.2,0.9-4,1.9-4c0.7,0,1.2,0.699,1.6,1.699"/>
<path fill="none" stroke="#000000" d="M701.7,543.3c0.3-0.6,1.3-0.6,1.8-0.6c0.7,0,1.7,1,1.7,3.3c0,1.3,0,2.3-0.9,2.9
	c-0.2,0.199-0.8,0.399-1.1,0.399"/>
<path fill="none" stroke="#000000" stroke-width="1.0581" d="M695.4,542c0,0,3.6-3.2,3.3,2.4c0,0-0.101,3.5,0.1,4.399
	c0.101,0.4,0.9,0.4,0.9,0.4"/>
<path fill="none" stroke="#000000" d="M691.3,549.4c0.7,0,0.7-1.101,0-1.101S690.6,549.4,691.3,549.4L691.3,549.4z"/>
<path fill="none" stroke="#000000" d="M732.5,550c-0.8,0-1.2-2.2-1.2-4c0-2.2,0.9-4,1.9-4s1.899,1.8,1.899,4s-0.899,4-1.899,4"/>
<line fill="none" stroke="#000000" x1="737.1" y1="541.4" x2="737" y2="550.2"/>
<path fill="none" stroke="#000000" d="M740.4,542.7c0,0-2.2-2.3-3.4,1.399"/>
<line fill="none" stroke="#000000" x1="758.2" y1="541.8" x2="758.2" y2="550.3"/>
<path fill="none" stroke="#000000" d="M761.9,550.3v-6c0,0-1.5-3.899-3.7,0"/>
<path fill="none" stroke="#000000" d="M765.4,550.3v-6.1c0,0-1-3.601-3.5-0.2"/>
<path fill="none" stroke="#000000" d="M749.6,548.5c-0.3,0.8-0.899,1.3-1.399,1.3c-1.101,0-1.9-1.8-1.9-4s0.9-4,1.9-4
	c0.7,0,1.2,0.7,1.6,1.7"/>
<path fill="none" stroke="#000000" d="M753.2,549.6c-1.101-0.5-2.2-7.699,0.899-7.899c1.101-0.101,1.9,1.8,1.9,4s-0.9,4-1.9,4"/>
<path fill="none" stroke="#000000" d="M742.7,550.2c0.7,0,0.7-1.101,0-1.101S742,550.2,742.7,550.2L742.7,550.2z"/>
<path fill="none" stroke="#000000" d="M698.7,545.9c-0.3-0.601-0.601-1.4-1.7-1.4c-0.7,0-1.6,0.1-1.6,2.4c0,1.3,0.5,1.8,0.899,2
	c0.2,0.1,0.8,0.399,1.101,0.399"/>
<g id="XMLID_3_">
	<g>
		<path fill="#F3E6E2" d="M350.2,259.3c1.399-2.6,6-10.4,17.1-20c0,0,0.101,37.2,37.7,20.1c0,0,7.3,4.7,18.4,7.5l-0.101,0.4
			c-0.5,6.3,0.5,17.9,0.5,17.9c0.2,7.1,0.8,15.1,0.8,15.1c-4.199,18.8-23,3-23,3c-20.6-30.2-31-32-31-32c-5.1-5.2-11.199-6-16.699-5
			l-0.301-2C353.7,264.3,352.5,262.3,350.2,259.3z"/>
		<path fill="#A67D30" d="M756.6,477.9c0,0,11.9,8.1,7.9,11.1c-5.6,4.1-10.1,11.9-10.1,11.9C726.4,541.1,678.9,527.6,666.3,523.1
			C705.4,495.5,663.9,452.9,663.9,452.9C731.2,422.6,756.6,477.9,756.6,477.9z"/>
		<path fill="#CC9F89" d="M676.7,79.3l-43,7l27-22l-0.2-0.8c10.4-2.5,21.5-4.2,33.3-5c9.5-0.6,28.9,6.8,37.9,15.8c0,0,9,1,18,23
			c4.399,10.8-25.7-3.4-57.3,21.9l-36.7,7.1l28-30l-29,8L676.7,79.3z"/>
		<path fill="#BD8F41" d="M663.9,452.9c0,0,41.5,42.6,2.399,70.199C665.9,523.4,665.4,523.7,665,524
			C665,524,626.5,491.5,663.9,452.9z"/>
		<path fill="#C32927" d="M513.7,38.1c23.6,12.2,13,38,12.7,38.8l0,0l-0.5-0.1c0.199-0.8,0.3-1.7,0.3-2.6c0-5.8-4.3-10.5-9.5-10.5
			c-1.8,0-3.5,0.6-4.9,1.5l-0.1-0.2C511.7,65.1,518.7,44.1,513.7,38.1z"/>
		<path fill="#CC6025" d="M526.2,74.3c0,0.9-0.101,1.8-0.3,2.6c-1.101,4.5-4.801,7.9-9.2,7.9c-0.3,0-0.7,0-1,0
			c-1.8-0.2-3.5-1-4.8-2.1c-1.7-1.4-2.9-3.5-3.4-5.8c-0.2-0.8-0.3-1.6-0.3-2.5c0-3.8,1.8-7.2,4.6-9c1.4-0.9,3.101-1.5,4.9-1.5
			C522,63.8,526.2,68.5,526.2,74.3z"/>
		<path fill="#CC6029" d="M654.7,104.3l29-8l-28,30l36.7-7.1c-6.301,5-12.601,11.5-18.7,20.1c-56.5,79.3,9,331-152,354
			c6.1-14.3-6.7-48.5-13.7-65.3c-1-31.4,0-36.7,0.7-33c0,0.1,0,0.2,0,0.3c0,0-28.7-288.1,151.8-331.8l0,0l0.2,0.8l-27,22l43-7
			L654.7,104.3z"/>
		<path fill="#CB7591" d="M467.7,145.4c-1.101-0.9-6.2-5-13.601-9.8l0.101-0.2c0,0,27.2-52,53.3-58.8c0.5,2.4,1.8,4.4,3.4,5.8
			C499.9,97.1,473.5,132.7,467.7,145.4z"/>
		<path fill="#45703C" d="M450.7,188.3c3.3,1.1,3.899,8.6,1.2,16.9c-1.2,3.8-2.9,7.1-4.601,9.4c-2.8-1.4-5.899-2.7-9-3.5
			c0-2.8,0.5-6.2,1.7-9.7C442.5,193.1,447.3,187.3,450.7,188.3z"/>
		<path fill="#CC6029" d="M352,281c-0.8,0.5-41.7,24.7-13.3-7.8c0,0,2.399-1.9,6.1-3.8c2.601-1.3,5.8-2.6,9.3-3.2
			c5.5-1,11.5-0.1,16.7,5c0,0,10.4,1.8,31,32c0,0,18.8,15.8,23-3c0,0-0.6-8-0.8-15.101c0,0-1-11.6-0.5-17.899l0.1-0.4
			c7.5,1.9,16.7,2.8,26.601,0.9l0.1,0.5c0.9,0.7,29.7,22.6,39.5,64c0,0,13.9,32.3,19,62.7c-0.7-3.7-1.6,1.6-0.7,33
			c-2.5-5.9-4.3-9.7-4.3-9.7s-29-80-82.3-45c-10.7-2.5-9.7-32-9.7-32s-38-9-43.899-40.4c-4.601,9-7.801,13.9-9.9,16
			c-8.2,8.3,0-26.1,0.1-25.899C358,291,324,315,352,281z"/>
		<path fill="#F3E6E2" d="M451.9,205.2c2.6-8.3,2.1-15.8-1.2-16.9c-3.3-1-8.101,4.8-10.8,13.1c-1.101,3.5-1.7,6.9-1.7,9.7
			c-4-1.1-8.101-1.6-11.8-0.8c0,0,7.5-37.7,28.3-27.7c0,0,18.2,11.3,5,39.6c0,0-5.4-4.2-12.5-7.7C449,212.3,450.7,209,451.9,205.2z"
			/>
		<path fill="#CC6029" d="M423.7,543.3c-122,33-91,6-91,6l58-31c-4.101-13.3-6.5-25.7-7.601-37.1c-1.6-17.3-0.3-32.5,2.7-45.601
			c9.5-41.6,35.601-62.3,35.601-62.3c53.3-35,82.3,45,82.3,45s1.8,3.8,4.3,9.7c7.1,16.8,19.9,51.1,13.7,65.3c0,0-6.7,51.7-56.7,45.7
			c0,0-29.3-6.1-27.2-46.6H437C436.1,515.5,423.7,543.3,423.7,543.3z"/>
		<path fill="#CB7591" d="M401.8,51.5c0.9-0.2,1.7-0.5,2.4-0.9c9.399,18.2,5.899,63.4,5.5,68.4c-3.601-0.2-7.2-0.1-10.8,0.4
			C398.9,119.4,406.2,71.7,401.8,51.5z"/>
		<path fill="#CC6025" d="M404.2,50.6c-0.8,0.4-1.601,0.7-2.4,0.9c-0.6,0.1-1.3,0.2-1.899,0.2c-1.9,0-3.601-0.6-5-1.5
			c-0.101-0.1-0.101-0.1-0.2-0.1c-2.3-1.6-3.8-4.3-3.8-7.3c0-1.9,0.6-3.6,1.5-5c1.6-2.4,4.3-4,7.5-4c4.5,0,8.199,3.3,8.899,7.6l0,0
			c0.101,0.4,0.101,0.9,0.101,1.4C408.9,46.1,407,49.1,404.2,50.6z"/>
		<path fill="#CC6029" d="M426.4,210.3c3.699-0.8,7.8-0.4,11.8,0.8c3.1,0.9,6.2,2.1,9,3.5c7.1,3.5,12.5,7.7,12.5,7.7
			c13.2-28.3-5-39.6-5-39.6C434,172.6,426.4,210.3,426.4,210.3z M400,216c0,0,9.9,5.5,17-5.7c0,0-5.1-16.6-21.4-8.8
			C395.6,201.5,391.1,210,400,216z M374.1,186.2c3,0.7,6.2,1.7,9.2,3c3.8,1.7,7.3,3.9,9.601,6.9c0,0,18.1-33.9-4.301-39.4
			c0,0-21.3-2.8-29,27.4C359.6,184.2,366.4,184.4,374.1,186.2z M379.7,225.3v0.2c-1,22.3,20.8,14.8,20.8,14.8l0.4-0.3
			c-3.601-5.2-3.301-12.5-2.4-17.6h-0.3C398.1,222.3,387.8,227.2,379.7,225.3z M336.4,227.5C320.4,214,329.6,198,329.6,198
			c4-12.3,15.601-12.2,20.801-14.8c2.5-42.2,20-62.6,20-62.6c-4.9-23.1,15.3-57,24.199-70.5c0.101,0,0.101,0.1,0.2,0.1
			c1.4,1,3.101,1.5,5,1.5c0.7,0,1.3-0.1,1.9-0.2c4.399,20.2-2.9,67.9-2.9,67.9c3.5-0.6,7.2-0.7,10.8-0.4
			c16.5,1.1,33.101,9.6,44.301,16.7c7.5,4.7,12.5,8.9,13.6,9.8c5.9-12.7,32.3-48.3,43.3-62.9c1.4,1.2,3,1.9,4.8,2.1
			c-0.8,52.1-20.1,82.8-20.1,82.8c2.8,42-24.8,60-24.8,60c14.3,16.5,2,30.3,2,30.3c-7.7,5.5-15.5,8.6-22.8,10
			c-9.9,1.9-19.101,1-26.601-0.9c-11.1-2.8-18.399-7.5-18.399-7.5c-37.601,17.1-37.7-20.1-37.7-20.1
			C359.1,239.8,336.4,227.5,336.4,227.5z"/>
		<path fill="#C32927" d="M417,210.3c-7.1,11.2-17,5.7-17,5.7c-8.9-6-4.4-14.5-4.4-14.5C411.9,193.8,417,210.3,417,210.3z"/>
		<path fill="#C32927" d="M396.5,13.8c-1.7-8.3-1.2-8.2,1.8-5.2c13.2,13.2,10.9,30.1,10.4,32.8c-0.7-4.3-4.4-7.6-8.9-7.6
			c-3.1,0-5.899,1.6-7.5,4l-0.399-0.1C392,37.6,397.9,20.6,396.5,13.8z"/>
		<path fill="#F3E6E2" d="M393,196.1c-2.3-3-5.8-5.3-9.6-6.9c1.8-2.2,3.5-5.1,4.899-8.5c3.2-8.1,3.2-15.7,0-16.9
			c-3.2-1.3-8.5,4.2-11.7,12.3c-1.5,3.7-2.3,7.3-2.399,10.2c-7.7-1.8-14.5-2-14.5-2c7.8-30.3,29-27.4,29-27.4
			C411.1,162.2,393,196.1,393,196.1z"/>
		<path fill="#45703C" d="M383.4,189.2c-3-1.3-6.2-2.3-9.2-3c0.1-2.9,0.899-6.5,2.399-10.2c3.2-8.1,8.5-13.6,11.7-12.3
			c3.2,1.3,3.2,8.9,0,16.9C386.9,184.1,385.1,187,383.4,189.2z"/>
		<path fill="#C32927" d="M379.6,225.5v-0.2c8.101,2,18.4-3,18.4-3h0.3c-0.899,5.2-1.2,12.5,2.4,17.6l-0.4,0.3
			C400.4,240.3,378.6,247.8,379.6,225.5z"/>
		<path fill="#F3E6E2" d="M352.5,339.5c2-6,4.9-15.9,5.4-22.7c2.1-2.1,5.3-7,9.899-16c5.9,31.4,43.9,40.4,43.9,40.4s-1,29.5,9.7,32
			c0,0-26.101,20.7-35.601,62.3c-1.8-3.8-13.3-29-22.399-52.8C356.6,365,351,348,351.9,341.5C352.1,340.9,352.3,340.3,352.5,339.5z"
			/>
		<path fill="#CC6029" d="M291.7,512.3c27-10,44-15,44-15c-62-105,26-114,26-114l1.7-0.5c9.1,23.8,20.6,49,22.399,52.8
			c-3,13.101-4.3,28.301-2.7,45.601l-1.399,0.1c-3,2-1,11-23,36c-12.4,14-75,20-91,18C257.8,534,280.4,516.5,291.7,512.3z"/>
		<path fill="#45703C" d="M295.5,251.9c0,0,44.9,59,33.9,57.5C306.3,306.3,275.7,278.3,269,274.8c-4.4-2.3,1.2,33.2,4.8,58.2
			c2,13.5,3.4,24,2.4,23.6c-27.4-9.899-44.3-60.699-44.3-60.699c-5-34.601,9.2-55.2,9.2-55.2L252,229c48.9-26.9,86.8,15.3,98.2,30.3
			c2.3,3,3.5,5,3.5,5l0.3,2c-3.5,0.6-6.7,1.9-9.3,3.2l-0.101-0.2C344.7,269.3,321.1,265.9,295.5,251.9z"/>
		<path fill="#A67D30" d="M338.7,273.2c-28.4,32.5,12.5,8.2,13.3,7.8c-28,34,6,10,6,10c0-0.2-8.3,34.2-0.1,25.9
			c-0.5,6.8-3.4,16.6-5.4,22.699c-0.3,0.5-0.5,1.2-0.6,2c-0.7,2.101-1.2,3.5-1.2,3.5c-4.5,8.801-1.9,18.301-1.9,18.301l-18-4.7
			c-31.5,0.899-55.1-23.7-57-25.601c-3.7-25-9.2-60.5-4.8-58.2c6.7,3.5,37.3,31.6,60.4,34.6C340.3,311,295.5,252,295.5,252
			c25.6,14,49.2,17.4,49.2,17.4l0.1,0.2C341.1,271.3,338.7,273.2,338.7,273.2z"/>
		<path fill="#45703C" d="M252,229l-10.8,11.6C228,218,216,206,216,206s-15-12,2-10C238.9,198.5,252,229,252,229z"/>
		<path fill="#BD8F41" d="M158,533c-39.2-27.5,3.5-68.2,3.5-68.2c37.4,38.601-2.2,69-2.2,69c-0.2-0.1-0.4-0.3-0.6-0.399
			C158.4,533.2,158.2,533.1,158,533z"/>
		<path fill="#A67D30" d="M158,533c0.2,0.1,0.4,0.3,0.6,0.4l-1.4,1.6c1.1,0-49.8,30.1-86.2-22.2c0,0-4.5-7.8-10.1-11.899
			c-4-3,7.9-11.101,7.9-11.101s25.4-55.3,92.7-25C161.5,464.8,118.8,505.4,158,533z"/>
	</g>
	<g>
		<path fill="none" stroke="#000000" stroke-width="0.25" d="M511.4,81.9c-0.2,0.2-0.301,0.4-0.5,0.6
			c-11,14.5-37.4,50.1-43.301,62.9v0.1"/>
		<path fill="none" stroke="#000000" stroke-width="0.25" d="M350.4,183.3c-5.101,2.5-16.801,2.5-20.801,14.8c0,0-9.3,16,6.801,29.5
			c0,0,22.8,12.3,30.899,11.8c0,0,0.101,37.2,37.7,20.1c0,0,7.3,4.7,18.4,7.5c7.5,1.9,16.699,2.8,26.6,0.9c7.4-1.4,15.2-4.5,22.8-10
			c0,0,12.3-13.8-2-30.3c0,0,27.5-18,24.8-60c0,0,19.2-30.7,20.101-82.8c0-0.1,0-0.3,0-0.5"/>
		<path fill="none" stroke="#000000" stroke-width="0.25" d="M394.8,49.9c-0.1,0.1-0.1,0.1-0.1,0.2c-8.9,13.5-29.2,47.4-24.2,70.5
			c0,0-17.5,20.4-20,62.6"/>
		<path fill="none" stroke="#000000" stroke-width="0.25" d="M467.9,145.6c0,0-0.101-0.1-0.2-0.2c-1.101-0.9-6.2-5-13.601-9.8
			c-11.199-7.1-27.8-15.6-44.3-16.7c-3.6-0.2-7.2-0.1-10.8,0.4c0,0,7.3-47.7,2.9-67.9c-0.101-0.3-0.101-0.5-0.2-0.8"/>
		<path fill="none" stroke="#000000" stroke-width="0.25" d="M438.3,211.1c-4-1.1-8.1-1.6-11.8-0.8c0,0,7.5-37.7,28.3-27.7
			c0,0,18.2,11.3,5,39.6c0,0-5.399-4.2-12.5-7.7C444.5,213.3,441.4,212,438.3,211.1z"/>
		<path fill="none" stroke="#000000" stroke-width="0.25" d="M454.1,135.5c0,0,27.2-52,53.301-58.8c0.199-0.1,0.399-0.1,0.6-0.2"/>
		<path fill="none" stroke="#000000" stroke-width="0.25" d="M409.6,119.4c0,0,0-0.1,0-0.4c0.4-5,4-50.2-5.5-68.4
			c-0.1-0.2-0.199-0.4-0.3-0.6"/>
		<path fill="none" stroke="#000000" stroke-width="0.25" d="M468.4,187c0,0,2.5-14,26.5-20"/>
		<path fill="none" stroke="#000000" stroke-width="0.25" d="M460.4,181.5c0,0,0.8-18.5,24.5-25.8"/>
		<path fill="none" stroke="#000000" stroke-width="0.25" d="M452.4,178c0,0-7.5-13.3,21-31.5"/>
		<path fill="none" stroke="#000000" stroke-width="0.25" d="M400,216c0,0,9.9,5.5,17-5.7c0,0-5.1-16.6-21.4-8.8
			C395.6,201.5,391.1,210,400,216z"/>
		<path fill="none" stroke="#000000" stroke-width="0.25" d="M400,216c0,0-0.9,2.6-1.6,6.3c-0.9,5.2-1.2,12.5,2.399,17.6
			c0.101,0.2,0.3,0.4,0.4,0.6c0,0,18.3,11.7,18.899-6.5"/>
		<path fill="none" stroke="#000000" stroke-width="0.25" d="M398.1,222.3c0,0-10.3,5-18.399,3c-2.3-0.6-4.4-1.7-6.101-3.6
			c0,0-6.699-8.7,2.301-12.4"/>
		<path fill="none" stroke="#000000" stroke-width="0.25" d="M400.4,240.3c0,0-21.801,7.5-20.801-14.8"/>
		<path fill="none" stroke="#000000" stroke-width="0.25" d="M447.2,214.7C447.2,214.7,447.3,214.6,447.2,214.7
			c1.8-2.4,3.5-5.7,4.7-9.5c2.6-8.3,2.1-15.8-1.2-16.9c-3.3-1-8.101,4.8-10.8,13.1c-1.101,3.5-1.7,6.9-1.7,9.7c0,0.1,0,0.2,0,0.3"/>
		<path fill="none" stroke="#000000" stroke-width="0.25" d="M503.7,418.3c0,0-29-80-82.3-45c0,0-26.101,20.7-35.601,62.3
			c-3,13.101-4.3,28.301-2.7,45.601c1.101,11.5,3.5,23.8,7.601,37.1l-58,31c0,0-31,27,91-6"/>
		<path fill="none" stroke="#000000" stroke-width="0.25" d="M423.7,543.3c0,0,12.399-27.8,13.3-50.899c0.1-1.5,0.1-2.9,0-4.4"/>
		<path fill="none" stroke="#000000" stroke-width="0.25" d="M386,436c0,0-0.1-0.2-0.2-0.5c-1.8-3.8-13.3-29-22.399-52.8
			C356.6,365,351,348,351.9,341.5c0.1-0.8,0.3-1.5,0.6-2c0-0.1,0.1-0.1,0.1-0.2"/>
		<path fill="none" stroke="#000000" stroke-width="0.25" d="M361.7,383.3c0,0-88,9-26,114c0,0-17,5-44,15
			c-11.3,4.2-33.9,21.8-24,23c16,2,78.6-4,91-18c22-25,20-34,23-36"/>
		<path fill="none" stroke="#000000" stroke-width="0.25" d="M457,322c0,0-2.8,18.1-45.3,19.3c0,0-38-9-43.9-40.399"/>
		<path fill="none" stroke="#000000" stroke-width="0.25" d="M411.7,341.3c0,0-1,29.5,9.7,32"/>
		<path fill="none" stroke="#000000" stroke-width="0.25" d="M352,281L352,281c-0.8,0.5-41.7,24.7-13.3-7.8c0,0,2.399-1.9,6.1-3.8
			c2.601-1.3,5.8-2.6,9.3-3.2c5.5-1,11.5-0.1,16.7,5c0,0,10.4,1.8,31,32c0,0,18.8,15.8,23-3c0,0-0.6-8-0.8-15.101
			c0,0-1-11.6-0.5-17.899"/>
		<path fill="none" stroke="#000000" stroke-width="0.25" d="M367.8,300.9c-4.6,9-7.8,13.899-9.899,16c-8.2,8.3,0-26.101,0.1-25.9
			c0,0-34,24-6-10"/>
		<path fill="none" stroke="#000000" stroke-width="0.25" d="M349.7,260.3c0,0,0.1-0.3,0.5-1c1.399-2.6,6-10.4,17.1-20"/>
		<path fill="none" stroke="#000000" stroke-width="0.25" d="M383.4,189.2c3.8,1.7,7.3,3.9,9.6,6.9c0,0,18.1-33.9-4.3-39.4
			c0,0-21.3-2.8-29,27.4c0,0,6.8,0.2,14.5,2C377.2,187,380.4,187.9,383.4,189.2z"/>
		<path fill="none" stroke="#000000" stroke-width="0.25" d="M379,154.6c0,0,7-12.4-7.8-32.3"/>
		<path fill="none" stroke="#000000" stroke-width="0.25" d="M388.4,153.4c0,0,7.899-16.7-9.801-34.2"/>
		<path fill="none" stroke="#000000" stroke-width="0.25" d="M395.8,155.1c0,0,12.8-8.2-3.899-37.7"/>
		<path fill="none" stroke="#000000" stroke-width="0.25" d="M374.1,186.3L374.1,186.3c0.101-3,0.9-6.6,2.4-10.3
			c3.2-8.1,8.5-13.6,11.7-12.3c3.2,1.3,3.2,8.9,0,16.9c-1.4,3.4-3.101,6.4-4.9,8.5c-0.1,0.1-0.1,0.2-0.2,0.3"/>
		<path fill="none" stroke="#000000" stroke-width="0.25" d="M508.7,395.3c0-0.1,0-0.2,0-0.3c-5-30.4-19-62.7-19-62.7
			c-9.8-41.3-38.7-63.3-39.5-64l0,0"/>
		<path fill="none" stroke="#000000" stroke-width="0.25" d="M508,429c0-0.3,0-0.7,0-1c-1-31.4,0-36.7,0.7-33"/>
		<path fill="none" stroke="#000000" stroke-width="0.25" d="M508.7,395.3c0,0-28.7-288.1,151.8-331.8l0,0c10.4-2.5,21.5-4.2,33.3-5
			c9.5-0.6,28.9,6.8,37.9,15.8c0,0,9,1,18,23c4.399,10.8-25.7-3.4-57.3,21.9c-6.301,5-12.601,11.5-18.7,20.1
			c-56.5,79.3,9,331-152,354c0,0-6.7,51.7-56.7,45.7c0,0-29.3-6.1-27.2-46.6c0.8-13.9,5.2-31.9,15.9-55.101"/>
		<polyline fill="none" stroke="#000000" stroke-width="0.25" points="660.7,64.3 633.7,86.3 676.7,79.3 654.7,104.3 683.7,96.3 
			655.7,126.3 692.4,119.1 693,119 		"/>
		<path fill="none" stroke="#000000" stroke-width="0.25" d="M161.5,464.8c0,0-42.7,40.7-3.5,68.2c0.2,0.1,0.4,0.3,0.6,0.4
			c0.2,0.1,0.4,0.3,0.6,0.399C159.2,533.8,198.9,503.3,161.5,464.8z"/>
		<path fill="none" stroke="#000000" stroke-width="0.25" d="M157,535c0.1,0,0.2-0.1,0.2-0.1c1.1,0-49.8,30.1-86.2-22.2
			c0,0-4.5-7.8-10.1-11.9c-4-3,7.9-11.1,7.9-11.1s25.4-55.3,92.7-25"/>
		<path fill="none" stroke="#000000" stroke-width="0.25" d="M408.8,41.4c0.101,0.4,0.101,0.9,0.101,1.4c0,3.4-1.9,6.3-4.601,7.9
			c-0.8,0.4-1.6,0.7-2.399,0.9c-0.601,0.1-1.301,0.2-1.9,0.2c-1.9,0-3.6-0.6-5-1.5"/>
		<path fill="none" stroke="#000000" stroke-width="0.25" d="M394.9,50.2c-0.101-0.1-0.101-0.1-0.2-0.1c-2.3-1.6-3.8-4.3-3.8-7.3
			c0-1.9,0.6-3.6,1.5-5c1.6-2.4,4.3-4,7.5-4c4.5,0,8.199,3.3,8.899,7.6"/>
		<path fill="none" stroke="#000000" stroke-width="0.25" d="M511.8,65.3c1.4-0.9,3.101-1.5,4.9-1.5c5.3,0,9.5,4.7,9.5,10.5
			c0,0.9-0.101,1.8-0.3,2.6c-1.101,4.5-4.801,7.9-9.2,7.9c-0.3,0-0.7,0-1,0c-1.8-0.2-3.5-1-4.8-2.1c-1.7-1.4-2.9-3.5-3.4-5.8
			c-0.2-0.8-0.3-1.6-0.3-2.5C507.2,70.4,509,67.1,511.8,65.3z"/>
		<path fill="none" stroke="#000000" stroke-width="0.25" d="M392,37.6c0,0,5.9-16.9,4.5-23.8c-1.7-8.3-1.2-8.2,1.8-5.2
			c13.2,13.2,10.9,30.1,10.4,32.8l0,0c0,0.2-0.101,0.3-0.101,0.4"/>
		<path fill="none" stroke="#000000" stroke-width="0.25" d="M526.4,76.9L526.4,76.9"/>
		<path fill="none" stroke="#000000" stroke-width="0.25" d="M511.7,65.1c0,0,7-21,2-27c23.6,12.2,13,38,12.7,38.8"/>
		<path fill="none" stroke="#000000" stroke-width="0.25" d="M273.7,332.8c0,0,0,0,0.1,0.101c1.8,1.899,25.5,26.5,57,25.6l18,4.7
			c0,0-2.6-9.5,1.9-18.3c0,0,0.5-1.301,1.2-3.5c0.199-0.601,0.399-1.301,0.6-2c2-6,4.9-15.9,5.4-22.7c0-0.7,0.1-1.3,0.1-1.9"/>
		<path fill="none" stroke="#000000" stroke-width="0.25" d="M344.7,269.3c0,0-23.601-3.4-49.2-17.4c0,0,44.9,59,33.9,57.5
			C306.3,306.3,275.7,278.3,269,274.8c-4.4-2.3,1.2,33.2,4.8,58.2c2,13.5,3.4,24,2.4,23.6c-27.4-9.899-44.3-60.699-44.3-60.699"/>
		<path fill="none" stroke="#000000" stroke-width="0.25" d="M353.7,264.3c0,0-1.2-1.9-3.5-5c-11.4-15-49.3-57.2-98.2-30.3
			c0,0-13.1-30.5-34-33c-17-2-2,10-2,10s12,12,25.2,34.6c0,0-14.2,20.6-9.2,55.2"/>
		<path fill="none" stroke="#000000" stroke-width="0.25" d="M503.7,418.3c0,0,1.8,3.8,4.3,9.7c7.1,16.8,19.9,51.1,13.7,65.3"/>
		<line fill="none" stroke="#000000" stroke-width="0.25" x1="241.2" y1="240.6" x2="252" y2="229"/>
		<line fill="none" stroke="#000000" stroke-width="0.25" x1="269" y1="274.8" x2="260" y2="258"/>
		<line fill="none" stroke="#000000" stroke-width="0.25" x1="295.5" y1="251.9" x2="278" y2="243"/>
		<path fill="none" stroke="#000000" stroke-width="0.25" d="M663.9,452.9c0,0,41.5,42.6,2.399,70.199
			C665.9,523.4,665.4,523.7,665,524C665,524,626.5,491.5,663.9,452.9z"/>
		<path fill="none" stroke="#000000" stroke-width="0.25" d="M663.2,521.9c0,0,1.1,0.5,3.1,1.199
			c12.601,4.5,60.101,18,88.101-22.199c0,0,4.5-7.801,10.1-11.9c4-3-7.9-11.1-7.9-11.1S731.2,422.6,663.9,452.9"/>
	</g>
</g>
</svg>
