<?xml version="1.0" encoding="UTF-8"?>
<!DOCTYPE svg PUBLIC "-//W3C//DTD SVG 1.1//EN" "http://www.w3.org/Graphics/SVG/1.1/DTD/svg11.dtd">
<!-- Creator: CorelDRAW -->
<svg xmlns="http://www.w3.org/2000/svg" xml:space="preserve" width="1278px" height="1341px" style="shape-rendering:geometricPrecision; text-rendering:geometricPrecision; image-rendering:optimizeQuality; fill-rule:evenodd; clip-rule:evenodd"
viewBox="0 0 382.079 400.893"
 xmlns:xlink="http://www.w3.org/1999/xlink">
 <defs>
  <style type="text/css">
   <![CDATA[
    .fil17 {fill:none}
    .fil15 {fill:#366A2A}
    .fil21 {fill:#4B8E33}
    .fil20 {fill:#58A73B}
    .fil31 {fill:#6D1255}
    .fil7 {fill:#72E1F0}
    .fil5 {fill:#74C358}
    .fil12 {fill:#C0FAFF}
    .fil34 {fill:#D273D9}
    .fil32 {fill:#FEDBFF}
    .fil22 {fill:#FFFFCC}
    .fil33 {fill:white}
    .fil18 {fill:#204928;fill-rule:nonzero}
    .fil2 {fill:#999999;fill-rule:nonzero}
    .fil1 {fill:#B3B3B3;fill-rule:nonzero}
    .fil29 {fill:url(#id0)}
    .fil26 {fill:url(#id1)}
    .fil27 {fill:url(#id2)}
    .fil30 {fill:url(#id3)}
    .fil23 {fill:url(#id4)}
    .fil14 {fill:url(#id5)}
    .fil13 {fill:url(#id6)}
    .fil28 {fill:url(#id7)}
    .fil10 {fill:url(#id8)}
    .fil11 {fill:url(#id9)}
    .fil19 {fill:url(#id10)}
    .fil4 {fill:url(#id11)}
    .fil16 {fill:url(#id12)}
    .fil6 {fill:url(#id13)}
    .fil9 {fill:url(#id14)}
    .fil25 {fill:url(#id15)}
    .fil24 {fill:url(#id16)}
    .fil8 {fill:url(#id17)}
    .fil3 {fill:url(#id18)}
    .fil0 {fill:url(#id19)}
   ]]>
  </style>
  <linearGradient id="id0" gradientUnits="userSpaceOnUse" x1="288.225" y1="187.074" x2="244.389" y2="218.785">
   <stop offset="0" style="stop-color:#881273"/>
   <stop offset="1" style="stop-color:#6D1255"/>
  </linearGradient>
  <linearGradient id="id1" gradientUnits="userSpaceOnUse" x1="307.488" y1="17.8546" x2="307.488" y2="73.3953">
   <stop offset="0" style="stop-color:#F199F2"/>
   <stop offset="1" style="stop-color:#6D1255"/>
  </linearGradient>
  <linearGradient id="id2" gradientUnits="userSpaceOnUse" x1="307.488" y1="204.932" x2="307.488" y2="158.398">
   <stop offset="0" style="stop-color:#6D1255"/>
   <stop offset="1" style="stop-color:black"/>
  </linearGradient>
  <linearGradient id="id3" gradientUnits="userSpaceOnUse" x1="249.787" y1="118.188" x2="282.824" y2="19.5247">
   <stop offset="0" style="stop-color:#881273"/>
   <stop offset="1" style="stop-color:#F199F2"/>
  </linearGradient>
  <linearGradient id="id4" gradientUnits="userSpaceOnUse" xlink:href="#id2" x1="198.854" y1="64.6491" x2="240.629" y2="72.1689">
  </linearGradient>
  <linearGradient id="id5" gradientUnits="userSpaceOnUse" x1="94.4718" y1="219.543" x2="92.4787" y2="199.501">
   <stop offset="0" style="stop-color:black"/>
   <stop offset="1" style="stop-color:#191919"/>
  </linearGradient>
  <linearGradient id="id6" gradientUnits="userSpaceOnUse" x1="91.0731" y1="219.166" x2="101.377" y2="191.638">
   <stop offset="0" style="stop-color:#80CC65"/>
   <stop offset="1" style="stop-color:#58A73B"/>
  </linearGradient>
  <linearGradient id="id7" gradientUnits="userSpaceOnUse" x1="237.763" y1="140.213" x2="294.851" y2="12.2933">
   <stop offset="0" style="stop-color:#881273"/>
   <stop offset="1" style="stop-color:#D273D9"/>
  </linearGradient>
  <linearGradient id="id8" gradientUnits="userSpaceOnUse" xlink:href="#id6" x1="148.235" y1="211.365" x2="132.328" y2="187.266">
  </linearGradient>
  <linearGradient id="id9" gradientUnits="userSpaceOnUse" xlink:href="#id5" x1="141.156" y1="212.498" x2="139.301" y2="196.45">
  </linearGradient>
  <linearGradient id="id10" gradientUnits="userSpaceOnUse" xlink:href="#id6" x1="124.206" y1="257.975" x2="123.477" y2="251.138">
  </linearGradient>
  <linearGradient id="id11" gradientUnits="userSpaceOnUse" x1="93.0404" y1="348.27" x2="135.257" y2="333.638">
   <stop offset="0" style="stop-color:#80CC65"/>
   <stop offset="1" style="stop-color:#90D47B"/>
  </linearGradient>
  <linearGradient id="id12" gradientUnits="userSpaceOnUse" xlink:href="#id6" x1="122.271" y1="239.532" x2="123.141" y2="247.683">
  </linearGradient>
  <linearGradient id="id13" gradientUnits="userSpaceOnUse" x1="105.408" y1="311.902" x2="108.557" y2="331.989">
   <stop offset="0" style="stop-color:#366A2A"/>
   <stop offset="1" style="stop-color:#80CC65"/>
  </linearGradient>
  <linearGradient id="id14" gradientUnits="userSpaceOnUse" x1="161.256" y1="158.375" x2="121.413" y2="163.21">
   <stop offset="0" style="stop-color:#A4DB91"/>
   <stop offset="1" style="stop-color:#80CC65"/>
  </linearGradient>
  <linearGradient id="id15" gradientUnits="userSpaceOnUse" x1="289.766" y1="8.0296" x2="268.378" y2="4.55102">
   <stop offset="0" style="stop-color:#FBCAFC"/>
   <stop offset="1" style="stop-color:#F199F2"/>
  </linearGradient>
  <linearGradient id="id16" gradientUnits="userSpaceOnUse" xlink:href="#id15" x1="348.87" y1="87.018" x2="327.932" y2="83.6129">
  </linearGradient>
  <linearGradient id="id17" gradientUnits="userSpaceOnUse" xlink:href="#id11" x1="119.838" y1="194.096" x2="153.499" y2="189.749">
  </linearGradient>
  <radialGradient id="id18" gradientUnits="userSpaceOnUse" cx="139.85" cy="261.043" r="185.744" fx="139.85" fy="261.043">
   <stop offset="0" style="stop-color:black"/>
   <stop offset="0.701961" style="stop-color:#313131"/>
   <stop offset="1" style="stop-color:#626262"/>
  </radialGradient>
  <radialGradient id="id19" gradientUnits="userSpaceOnUse" cx="253.582" cy="134.087" r="21.8616" fx="253.582" fy="134.087">
   <stop offset="0" style="stop-color:#5095D6"/>
   <stop offset="0.321569" style="stop-color:#366B9B"/>
   <stop offset="0.619608" style="stop-color:#284C71"/>
   <stop offset="1" style="stop-color:#0A141F"/>
  </radialGradient>
 </defs>
 <g id="Layer_x0020_1">
  <metadata id="CorelCorpID_0Corel-Layer"/>
  <g id="_330989416">
   <rect id="_330978088" class="fil0" x="7.60735" y="128.798" width="264.49" height="264.49" rx="47.187" ry="47.187"/>
   <path id="_330988936" class="fil1" d="M51.6872 399.135l176.327 0c14.0209,0 26.7643,-5.65101 36.0005,-14.7548 8.89447,-8.76704 14.5395,-20.7401 14.9454,-33.9555l-4.83555 -5.15714c-0.403139,11.1848 -7.84109,26.4748 -15.386,33.9117 -7.88769,7.77437 -18.7636,12.6 -30.7243,12.6l-176.327 0c-11.9607,0 -22.8367,-4.82567 -30.7243,-12.6 -7.54491,-7.43689 -14.9829,-22.7269 -15.386,-33.9117l-4.83555 5.15714c0.405963,13.2153 6.05097,25.1884 14.9454,33.9555 9.23619,9.10381 21.9795,14.7548 36.0005,14.7548z"/>
   <path id="_330989008" class="fil2" d="M51.6872 122.637l176.327 0c14.0209,0 26.7643,5.65136 36.0005,14.7552 8.89447,8.76668 14.5395,20.7398 14.9454,33.9555l-4.83555 5.15714c-0.403139,-11.1852 -7.84109,-26.4748 -15.386,-33.912 -7.88769,-7.77437 -18.7636,-12.6 -30.7243,-12.6l-176.327 0c-11.9607,0 -22.8367,4.82567 -30.7243,12.6 -7.54491,7.43724 -14.9829,22.7269 -15.386,33.912l-4.83555 -5.15714c0.405963,-13.2157 6.05097,-25.1888 14.9454,-33.9555 9.23619,-9.10381 21.9795,-14.7552 36.0005,-14.7552z"/>
   <path id="_330989776" class="fil3" d="M229.801 121.193l-179.902 0c-27.4452,0 -49.8996,22.4543 -49.8996,49.8996l0 179.902c0,27.4452 22.4543,49.8996 49.8996,49.8996l179.902 0c27.4452,0 49.8999,-22.4543 49.8999,-49.8996l0 -179.902c0,-27.4452 -22.4547,-49.8996 -49.8999,-49.8996zm-4.89168 7.60528l-170.116 0c-25.9548,0 -47.1881,21.2333 -47.1881,47.186l0 170.116c0,25.9548 21.2333,47.1881 47.1881,47.1881l170.116 0c25.9527,0 47.186,-21.2333 47.186,-47.1881l0 -170.116c0,-25.9527 -21.2333,-47.186 -47.186,-47.186z"/>
   <g>
    <path id="_326297904" class="fil4" d="M47.3219 391.78c0,0 34.8458,-54.4107 53.9899,-59.2604 2.3154,-0.589176 4.17648,-0.662249 7.00233,-2.14702 2.55721,-4.03774 4.83308,-3.56471 2.95223,-21.9047 -1.88084,-18.3396 17.9863,-8.7681 17.9863,-8.7681 0,0 0.335361,20.6847 6.72204,28.7535 2.82303,0.701081 8.30212,1.90132 10.5046,2.87704 23.8233,10.5515 34.4966,60.4497 34.4966,60.4497l-15.7623 0c0.157796,0 -10.3055,-36.4001 -19.0739,-37.2688 -0.236871,18.7213 1.90944,24.3747 2.56816,37.2688l-52.6096 0c0,0 -0.710965,-17.1969 -0.237224,-25.2541 0.474094,-8.05678 -23.2243,10.5766 -26.7784,25.2541 -12.0861,0 -21.7607,0 -21.7607,0z"/>
    <path id="_326301864" class="fil5" d="M169.461 391.78l-4.24708 0c0,0 -9.51577,-34.109 -19.0739,-37.2688 -0.236871,18.7213 1.90944,24.3747 2.56816,37.2688l-5.95565 0c-0.872291,-12.2438 -0.894884,-32.7602 0.093901,-39.9602 0.988785,-7.20002 14.8332,-2.48661 26.6146,39.9602z"/>
    <path id="_326299536" class="fil5" d="M99.0525 391.78l-2.95435 0c0,0 -0.710965,-17.1969 -0.237224,-25.2541 0.474094,-8.05678 -23.2243,10.5766 -26.7784,25.2541l-6.77464 0c9.01838,-16.2516 30.1909,-40.2264 34.2008,-31.9479 4.01021,8.27847 1.76576,15.9649 2.5438,31.9479z"/>
    <path id="_326293392" class="fil6" d="M75.5038 353.763c9.02262,-10.429 18.5451,-19.4036 25.808,-21.2435 2.3154,-0.589176 4.17648,-0.662249 7.00233,-2.14702 2.55721,-4.03774 4.83308,-3.56471 2.95223,-21.9047 -1.88084,-18.3396 17.9863,-8.7681 17.9863,-8.7681 0,0 -1.16282,18.3788 5.22351,26.4476 0.365014,0.770271 1.758,2.85268 3.98479,3.00624 -3.06626,2.95929 -3.47363,2.67689 -12.7148,4.85144 -9.24148,2.1742 -34.1083,6.35632 -42.8464,13.8395 -2.08806,1.788 -4.67246,3.83617 -7.39594,5.91859z"/>
    <path id="_326291304" class="fil7" d="M47.3219 391.78c0,0 34.8458,-54.4107 53.9899,-59.2604 2.3154,-0.589176 4.17648,-0.662249 7.00233,-2.14702 2.55721,-4.03774 4.83308,-3.56471 2.95223,-21.9047 -0.979607,-9.55037 3.9389,-11.5308 8.87824,-11.2364 -4.27991,0.278879 -9.34245,-0.0713083 -7.97029,13.3103 1.37251,13.3816 -0.453973,15.8523 -3.01154,19.8897 -2.82586,1.48477 -3.79805,1.49889 -6.11345,2.08806 -19.1438,4.84967 -53.9899,59.2604 -53.9899,59.2604l-1.73752 0zm50.0302 0l-1.2539 0c0,0 -0.519633,-20.7369 -0.237224,-25.2541 0.0388313,-0.621653 0.468799,1.84837 0.654836,6.66344 0.0571878,1.49183 -0.625536,8.62442 0.836284,18.5906z"/>
    <path id="_326293128" class="fil8" d="M94.8612 71.1501l0.000353011 -0.000353011c30.3643,-3.68509 58.2229,18.143 61.908,48.5073 5.48509,45.1915 4.36287,85.7733 16.4546,135.574 3.6932,30.4289 -18.1741,58.2268 -48.5839,61.9175 -30.3643,3.68509 -58.1466,-18.1522 -61.8317,-48.5165 -1.42899,-50.368 -9.04839,-92.8342 -16.4546,-135.574 -3.68544,-30.3643 18.143,-58.2229 48.5073,-61.908z"/>
    <path id="_326294496" class="fil9" d="M94.8584 71.1505l-0.000353011 0c-4.2672,0.517868 -8.36637,1.51336 -12.2495,2.92576 42.7024,-15.2296 56.5309,21.2393 59.6981,47.3364 1.30755,18.6514 2.56392,37.2639 4.42464,56.3487 1.57019,16.1068 -1.45617,13.9002 8.42462,28.1265 3.32007,4.77977 5.46815,27.5942 5.94365,31.0855 2.47602,18.1758 -0.951719,22.6496 -0.627301,27.2684 0.171211,2.42907 1.00043,4.86414 1.22636,5.80421 3.16792,26.102 -18.4861,43.5807 -49.5201,47.1782 35.2665,3.77299 65.3597,-26.4222 61.0424,-61.993 -10.6616,-49.2476 -13.4215,-92.3036 -16.4546,-135.574 -3.68509,-30.3643 -31.5437,-52.1924 -61.908,-48.5069z"/>
    <path id="_326294520" class="fil5" d="M94.8612 71.1501l0.000353011 -0.000353011c4.2672,-0.517868 8.48533,-0.531635 12.5933,-0.0889589 -23.7467,8.63925 -39.4257,32.8851 -36.2582,58.9822 3.19228,18.423 6.42445,36.7954 9.18324,55.7716 2.32846,16.0147 -5.64359,14.4082 -11.8347,30.5853 -2.0803,5.43567 1.29167,28.1011 1.66515,31.6048 1.94368,18.2408 10.4272,21.9841 11.2169,26.5468 0.415141,2.39942 0.192038,4.96193 0.197686,5.92883 3.16792,26.102 24.2897,37.673 55.283,33.7426 -33.3398,12.0995 -69.7826,-10.0202 -74.0996,-45.5911 -1.42899,-50.368 -9.04839,-92.8342 -16.4546,-135.574 -3.68544,-30.3643 18.143,-58.2229 48.5073,-61.908z"/>
    <g>
     <path id="_326294664" class="fil10" d="M162.434 183.573c-9.21077,-3.60601 -44.1575,-2.99036 -40.7806,32.4665 2.39907,25.193 44.7085,7.72318 40.7806,-32.4665z"/>
     <path id="_326294016" class="fil11" d="M162.434 185.724c-8.62654,-1.85578 -37.0341,8.53193 -38.6915,30.5538 -1.65033,21.9305 38.5619,3.68967 38.6915,-30.5538z"/>
     <path id="_326168248" class="fil12" d="M142.715 192.882c-2.59675,1.31991 -10.8505,7.59257 -10.9451,10.459 -0.094254,2.85516 11.5251,-6.43716 10.9451,-10.459z"/>
     <g>
      <path id="_326293440" class="fil13" d="M71.4071 196.149c8.18527,-6.00967 42.2466,-14.9281 46.4189,20.4189 2.96459,25.115 -41.7874,19.6733 -46.4189,-20.4189z"/>
      <path id="_326293296" class="fil14" d="M71.859 198.238c7.98618,-4.15106 37.7517,-1.80036 43.9887,19.1307 6.21088,20.8446 -36.6666,14.0834 -43.9887,-19.1307z"/>
      <path id="_326293608" class="fil12" d="M92.5102 199.818c2.79867,0.574349 12.1309,4.41723 12.8253,7.17496 0.691196,2.74643 -12.5436,-3.1118 -12.8253,-7.17496z"/>
     </g>
    </g>
    <path id="_326167888" class="fil15" d="M104.419 70.8215c-12.8704,2.43472 -26.8207,6.22288 -40.7612,25.3197 -15.1004,20.6854 -11.463,46.5036 -7.16825,79.6627 4.29438,33.1594 2.13219,24.6628 1.31956,29.7363 -3.14992,-25.014 -7.33522,-48.7064 -11.4552,-72.4821 -3.68544,-30.3643 18.143,-58.2229 48.5073,-61.908l0.000353011 -0.000353011c3.22299,-0.391137 6.41669,-0.491745 9.55743,-0.328301z"/>
    <g>
     <path id="_326293632" class="fil16" d="M150.842 243.627c8.81328,-1.21754 8.44085,-7.60563 8.44085,-7.60563 -0.473741,0.163797 2.60099,-6.42092 -38.0712,-0.997963 -40.6726,5.42296 -35.73,11.1943 -35.73,11.1943 0,0 0.980313,6.30408 9.79395,5.08619 26.1906,-3.61837 29.3755,-4.05857 55.5665,-7.67694z"/>
     <path id="_326166976" class="fil17" d="M85.4129 245.573c0,0 0.980313,6.30372 9.79395,5.08619 8.81363,-1.21754 36.7001,-5.0703 36.7001,-5.0703m27.3072 -10.2123c0,0 0.37278,6.38774 -8.44085,7.60563 -8.81363,1.21754 -36.7001,5.0703 -36.7001,5.0703"/>
     <path id="_326293152" class="fil18" d="M95.138 250.014l18.9931 -2.08489 17.8341 -2.46402 18.7393 -3.12803c6.06226,-0.965486 7.45172,-2.68924 9.07345,-6.98715 0.000706023,0.0194156 0.402433,6.9868 -8.93578,8.27706 -6.22853,1.43323 -12.4571,2.86645 -18.6856,4.29968 -5.63724,1.86355 -11.5742,2.70654 -17.8345,2.46402l-19.0464 0.91324c-9.33821,1.29026 -10.2857,-5.06289 -10.2889,-5.08195 1.87308,3.46692 3.41856,4.66257 10.1512,3.79205z"/>
     <path id="_326293656" class="fil19" d="M135.945 250.725c3.91984,-0.541519 4.73141,5.7855 4.73141,5.7855 -0.225221,-0.0670722 -9.74276,5.7615 -16.1552,6.84348 -6.41245,1.08233 -16.6681,-2.30869 -16.6681,-2.30869 0,0 -0.541166,-6.36444 3.37867,-6.90596 11.6483,-1.60938 13.0646,-1.80495 24.7133,-3.41433z"/>
    </g>
    <g>
     <g>
      <path id="_326293728" class="fil20" d="M127.675 229.657c-1.05727,-0.227339 -4.53867,1.04562 -4.742,3.74474 -0.202276,2.68783 4.72612,0.452208 4.742,-3.74474z"/>
      <path id="_326169112" class="fil21" d="M125.659 231.137c-0.0130614,-1.52148 -2.643,0.773095 -2.59499,2.35353 0.0698963,2.31364 2.60805,-0.832048 2.59499,-2.35353z"/>
     </g>
     <g>
      <path id="_326293776" class="fil20" d="M114.762 231.441c0.978901,-0.508689 4.62692,-0.220632 5.39119,2.3447 0.761093,2.55474 -4.49383,1.72587 -5.39119,-2.3447z"/>
      <path id="_326167840" class="fil21" d="M117.03 232.329c-0.306767,-1.48088 2.72878,0.031065 3.01436,1.57867 0.418318,2.26563 -2.70724,-0.0977841 -3.01436,-1.57867z"/>
     </g>
    </g>
    <path id="_326167288" class="fil20" d="M172.843 253.638c0.126025,0.530576 0.25205,1.06045 0.381252,1.59314 3.6932,30.4289 -18.1741,58.2268 -48.5839,61.9175 -30.3643,3.68509 -58.1466,-18.1522 -61.8317,-48.5165 -0.0176506,-0.618123 -0.0367132,-1.23483 -0.0561288,-1.85084 5.64395,28.1145 32.7178,51.839 61.6404,48.3287 28.8954,-3.50717 49.5804,-32.8579 48.4501,-61.472z"/>
    <path id="_326293752" class="fil22" d="M96.6573 70.9648c-31.6443,3.97456 -52.6435,32.1745 -49.0308,61.939 7.40583,42.7391 15.7369,85.1192 17.1655,135.487 3.61272,29.7652 28.4457,53.478 61.6386,48.5069 -30.946,4.7713 -59.851,-17.1917 -63.6222,-48.2662 -1.42899,-50.368 -9.04839,-92.8342 -16.4546,-135.574 -3.77546,-31.1074 19.1555,-59.3285 50.3034,-62.0933z"/>
   </g>
   <g>
    <polygon id="_330783824" class="fil23" points="176.063,66.2461 201.592,61.7629 263.421,70.5723 237.891,75.0555 "/>
    <polygon id="_329267936" class="fil24" points="320.253,78.6693 294.722,83.1525 356.549,91.9616 382.079,87.4783 "/>
    <polygon id="_328350304" class="fil25" points="237.891,4.48324 263.421,0 320.253,8.09737 294.722,12.5806 "/>
    <polygon id="_329755832" class="fil26" points="294.722,12.5806 320.253,8.09737 320.253,78.6693 294.722,83.1525 "/>
    <polygon id="_326294880" class="fil27" points="294.722,148.621 320.253,144.137 320.253,214.709 294.722,219.193 "/>
    <polygon id="_330988552" class="fil28" points="237.891,4.48324 294.722,12.5806 294.722,83.1525 356.549,91.9616 356.549,156.832 294.722,148.023 294.722,218.595 237.891,210.498 237.891,139.926 176.063,131.117 176.063,66.2461 237.891,75.0555 "/>
    <path id="_326298408" class="fil29" d="M294.722 200.085l0 18.5098 -56.8313 -8.09737 0 -23.2331c17.2262,7.62187 36.4707,12.1648 56.8313,12.8207z"/>
    <path id="_328494800" class="fil30" d="M237.891 4.48324l56.8313 8.09737 0 70.5719 61.8268 8.80905 0 5.24469c-11.6109,-1.59385 -23.6694,-2.44143 -36.0463,-2.44143 -52.2806,0 -98.9501,14.9917 -129.612,38.4645l-14.8282 -2.11277 0 -64.8704 61.8285 8.8094 0 -70.5723z"/>
    <polygon id="_326295192" class="fil31" points="356.549,91.9616 382.079,87.4783 382.079,152.348 356.549,156.832 "/>
    <polygon id="_327612584" class="fil32" points="237.891,6.08803 294.722,14.1529 294.722,12.5806 237.891,4.48324 "/>
    <polygon id="_315984272" class="fil33" points="320.253,9.70216 294.722,14.1529 294.722,12.5806 320.253,8.09737 "/>
    <polygon id="_330644160" class="fil32" points="294.722,84.7573 356.549,93.5339 356.549,91.9616 294.722,83.1525 "/>
    <polygon id="_330979264" class="fil33" points="382.079,89.0831 356.549,93.5339 356.549,91.9616 382.079,87.4783 "/>
    <polygon id="_329365176" class="fil34" points="176.063,67.8509 237.889,76.6275 237.889,75.0552 176.063,66.2461 "/>
   </g>
  </g>
 </g>
</svg>
