<?xml version="1.0" standalone="no"?>
<!DOCTYPE svg PUBLIC "-//W3C//DTD SVG 20010904//EN" "http://www.w3.org/TR/2001/REC-SVG-20010904/DTD/svg10.dtd">
<!-- Created using Karbon, part of Calligra: http://www.calligra.org/karbon -->
<svg xmlns="http://www.w3.org/2000/svg" xmlns:xlink="http://www.w3.org/1999/xlink" width="204.8pt" height="204.8pt">
<defs>
  <filter id="filter0" filterUnits="objectBoundingBox" primitiveUnits="objectBoundingBox" x="-0.10000000000" y="-0.10000000000" width="1.20000000000" height="1.20000000000">
   <feGaussianBlur result="" in="" x="0.00000000000" y="0.00000000000" width="1.00000000000" height="1.00000000000" stdDeviation="0.01273148148"/>
  </filter>
  <filter id="filter1" filterUnits="objectBoundingBox" primitiveUnits="objectBoundingBox" x="-0.10000000000" y="-0.10000000000" width="1.20000000000" height="1.20000000000">
   <feGaussianBlur result="" in="" x="0.00000000000" y="0.00000000000" width="1.00000000000" height="1.00000000000" stdDeviation="0.02500000000"/>
  </filter>
  <radialGradient id="gradient0" gradientTransform="translate(-16, -16)" gradientUnits="objectBoundingBox" cx="0.64814814815" cy="0.64814814815" fx="0.64814814815" fy="0.30092592593" r="0.35355339059" spreadMethod="pad">
   <stop stop-color="#fff290" offset="0.00000000000" stop-opacity="1.00000000000"/>
   <stop stop-color="#fed611" offset="0.59999990463" stop-opacity="1.00000000000"/>
   <stop stop-color="#f9c820" offset="0.83999991417" stop-opacity="1.00000000000"/>
   <stop stop-color="#f4a222" offset="0.91999995708" stop-opacity="1.00000000000"/>
   <stop stop-color="#d98b15" offset="1.00000000000" stop-opacity="1.00000000000"/>
  </radialGradient>
  <filter id="filter2" filterUnits="objectBoundingBox" primitiveUnits="objectBoundingBox" x="-0.10000000000" y="-0.10000000000" width="1.20000000000" height="1.20000000000">
   <feGaussianBlur result="" in="" x="0.00000000000" y="0.00000000000" width="1.00000000000" height="1.00000000000" stdDeviation="0.02, 0.0333333"/>
  </filter>
  <radialGradient id="gradient1" gradientTransform="matrix(1.68858 0 0 1.01315 -116.138 10.7017)" gradientUnits="objectBoundingBox" cx="0.64000000000" cy="-0.02222220917" fx="0.64000000000" fy="-0.02222220917" r="0.42874645857" spreadMethod="pad">
   <stop stop-color="#ffffff" offset="0.00000000000" stop-opacity="1.00000000000"/>
   <stop stop-color="#ffffff" offset="1.00000000000" stop-opacity="0.00000000000"/>
  </radialGradient>
  <clipPath id="clippath0" clipPathUnits="userSpaceOnUse">
   <path d="M200 100C200 155.228 155.228 200 100 200C44.7715 200 1.36e-05 155.228 1.36e-05 100C1.36e-05 44.7715 44.7715 2.6e-06 100 2.6e-06C155.228 2.6e-06 200 44.7715 200 100Z"/>
  </clipPath>
  <filter id="filter3" filterUnits="objectBoundingBox" primitiveUnits="objectBoundingBox" x="-0.10000000000" y="-0.10000000000" width="1.20000000000" height="1.20000000000">
   <feGaussianBlur result="" in="" x="0.00000000000" y="0.00000000000" width="1.00000000000" height="1.00000000000" stdDeviation="0.0187497, 0.01875"/>
  </filter>
  <filter id="filter4" filterUnits="objectBoundingBox" primitiveUnits="objectBoundingBox" x="-0.10000000000" y="-0.10000000000" width="1.20000000000" height="1.20000000000">
   <feGaussianBlur result="" in="" x="0.00000000000" y="0.00000000000" width="1.00000000000" height="1.00000000000" stdDeviation="0.0374994, 0.0375"/>
  </filter>
  <clipPath id="clippath1" clipPathUnits="userSpaceOnUse">
   <path d="M200.002 100C200.002 155.228 155.23 200 100.002 200C44.7732 200 0.00162741 155.228 0.00162741 100C0.00162741 44.7715 44.7732 -1.07e-05 100.002 -1.07e-05C155.23 -1.07e-05 200.002 44.7715 200.002 100Z"/>
  </clipPath>
  <radialGradient id="gradient2" gradientTransform="matrix(1.44476 0.116021 -0.261047 1.44476 -28.8598 -55.2545)" gradientUnits="objectBoundingBox" cx="0.64814814815" cy="0.64814814815" fx="0.64814814815" fy="0.64814814815" r="0.35355339059" spreadMethod="pad">
   <stop stop-color="#ffffff" offset="0.00000000000" stop-opacity="1.00000000000"/>
   <stop stop-color="#ffffff" offset="1.00000000000" stop-opacity="0.00000000000"/>
  </radialGradient>
  <filter id="filter5" filterUnits="objectBoundingBox" primitiveUnits="objectBoundingBox" x="-0.31875732000" y="-0.36402777000" width="1.63751460000" height="1.72805550000">
   <feGaussianBlur result="" in="" x="0.00000000000" y="0.00000000000" width="1.00000000000" height="1.00000000000" stdDeviation="0.18132598380"/>
  </filter>
  <radialGradient id="gradient3" gradientTransform="matrix(1.44476 0.116021 -0.261047 1.44476 -28.8598 -55.2545)" gradientUnits="objectBoundingBox" cx="0.64814814815" cy="0.64814814815" fx="0.64814814815" fy="0.64814814815" r="0.35355339059" spreadMethod="pad">
   <stop stop-color="#ffffff" offset="0.00000000000" stop-opacity="1.00000000000"/>
   <stop stop-color="#ffffff" offset="1.00000000000" stop-opacity="0.00000000000"/>
  </radialGradient>
  <filter id="filter6" filterUnits="objectBoundingBox" primitiveUnits="objectBoundingBox" x="-0.31875732000" y="-0.36402777000" width="1.63751460000" height="1.72805550000">
   <feGaussianBlur result="" in="" x="0.00000000000" y="0.00000000000" width="1.00000000000" height="1.00000000000" stdDeviation="0.18132598380"/>
  </filter>
  <filter id="filter7" filterUnits="objectBoundingBox" primitiveUnits="objectBoundingBox" x="-0.07880483600" y="-0.14015447000" width="1.15760970000" height="1.28030890000">
   <feGaussianBlur result="" in="" x="0.00000000000" y="0.00000000000" width="1.00000000000" height="1.00000000000" stdDeviation="0.0410442, 0.0729971"/>
  </filter>
  <radialGradient id="gradient4" gradientTransform="matrix(1.97744 0 0 1.11186 -195.767 -415.314)" gradientUnits="objectBoundingBox" cx="3.38188915069" cy="21.44666569604" fx="3.38188915069" fy="21.44666569604" r="0.22040100251" spreadMethod="pad">
   <stop stop-color="#170c03" offset="0.00000000000" stop-opacity="1.00000000000"/>
   <stop stop-color="#4e330c" offset="1.00000000000" stop-opacity="1.00000000000"/>
  </radialGradient>
  <radialGradient id="gradient5" gradientTransform="matrix(1.63616 0 0 0.862996 -168.226 -322.325)" gradientUnits="objectBoundingBox" cx="7.74660633484" cy="123.21474309249" fx="7.74660633484" fy="123.21474309249" r="0.56572338927" spreadMethod="pad">
   <stop stop-color="#ffffff" offset="0.00000000000" stop-opacity="1.00000000000"/>
   <stop stop-color="#ffffff" offset="1.00000000000" stop-opacity="0.00000000000"/>
  </radialGradient>
  <radialGradient id="gradient6" gradientTransform="matrix(1.90248 0 0 1.1758 -192.572 -111.86)" gradientUnits="objectBoundingBox" cx="5.94993614495" cy="8.80203282289" fx="5.94993614495" fy="8.37715034801" r="0.42530778266" spreadMethod="pad">
   <stop stop-color="#382509" offset="0.00000000000" stop-opacity="1.00000000000"/>
   <stop stop-color="#382509" offset="1.00000000000" stop-opacity="0.00000000000"/>
  </radialGradient>
  <filter id="filter8" filterUnits="objectBoundingBox" primitiveUnits="objectBoundingBox" x="-0.10000000000" y="-0.10000000000" width="1.20000000000" height="1.20000000000">
   <feGaussianBlur result="" in="" x="0.00000000000" y="0.00000000000" width="1.00000000000" height="1.00000000000" stdDeviation="0.0245053, 0.0400996"/>
  </filter>
  <radialGradient id="gradient7" gradientTransform="matrix(1.059 3.65835e-08 -2.48219e-08 0.718527 -59.006 -75.0975)" gradientUnits="objectBoundingBox" cx="0.83610450810" cy="2.03439651685" fx="0.83610450810" fy="2.03439651685" r="0.43226136404" spreadMethod="pad">
   <stop stop-color="#fffcca" offset="0.00000000000" stop-opacity="1.00000000000"/>
   <stop stop-color="#ffd81b" offset="0.29983425140" stop-opacity="1.00000000000"/>
   <stop stop-color="#f9d93b" offset="0.74958562851" stop-opacity="1.00000000000"/>
   <stop stop-color="#f49b23" offset="1.00000000000" stop-opacity="1.00000000000"/>
  </radialGradient>
  <filter id="filter9" filterUnits="objectBoundingBox" primitiveUnits="objectBoundingBox" x="-0.10000000000" y="-0.10000000000" width="1.20000000000" height="1.20000000000">
   <feGaussianBlur result="" in="" x="0.00000000000" y="0.00000000000" width="1.00000000000" height="1.00000000000" stdDeviation="0.00874643, 0.0150449"/>
  </filter>
  <radialGradient id="gradient8" gradientTransform="matrix(1 0 0 0.611111 -56 -56.2222)" gradientUnits="objectBoundingBox" cx="0.88888888889" cy="2.34710750000" fx="0.88888888889" fy="2.34710750000" r="0.42664091683" spreadMethod="pad">
   <stop stop-color="#000000" offset="0.00000000000" stop-opacity="1.00000000000"/>
   <stop stop-color="#512608" offset="1.00000000000" stop-opacity="1.00000000000"/>
  </radialGradient>
  <linearGradient id="gradient9" gradientTransform="translate(-56, -117.906)" gradientUnits="objectBoundingBox" x1="1.04166666667" y1="1.96541666667" x2="1.04166666667" y2="1.07118825333" spreadMethod="pad">
   <stop stop-color="#ffffff" offset="0.00000000000" stop-opacity="1.00000000000"/>
   <stop stop-color="#000000" offset="1.00000000000" stop-opacity="1.00000000000"/>
  </linearGradient>
  <linearGradient id="gradient10" gradientTransform="matrix(0.981818 0 0 1 -72.4227 -184)" gradientUnits="objectBoundingBox" x1="0.67471922066" y1="6.83333333333" x2="1.20290150235" y2="6.83333333333" spreadMethod="reflect">
   <stop stop-color="#e0e0e0" offset="0.00000000000" stop-opacity="1.00000000000"/>
   <stop stop-color="#ffffff" offset="1.00000000000" stop-opacity="1.00000000000"/>
  </linearGradient>
  <linearGradient id="gradient11" gradientTransform="matrix(0.981818 0 0 1 -53.6727 -120)" gradientUnits="objectBoundingBox" x1="0.49901109028" y1="6.83333333333" x2="0.88964590278" y2="6.83333333333" spreadMethod="reflect">
   <stop stop-color="#e0e0e0" offset="0.00000000000" stop-opacity="1.00000000000"/>
   <stop stop-color="#ffffff" offset="1.00000000000" stop-opacity="1.00000000000"/>
  </linearGradient>
  <radialGradient id="gradient12" gradientTransform="matrix(1.58319 -1.51774e-08 0 0.581354 -126.103 -52.2652)" gradientUnits="objectBoundingBox" cx="0.83610450810" cy="1.87020292135" fx="0.83610450810" fy="2.30203204094" r="0.43226138098" spreadMethod="pad">
   <stop stop-color="#ffffff" offset="0.00000000000" stop-opacity="0.00000000000"/>
   <stop stop-color="#ffffff" offset="0.49999997020" stop-opacity="0.00000000000"/>
   <stop stop-color="#000000" offset="1.00000000000" stop-opacity="1.00000000000"/>
  </radialGradient>
  <filter id="filter10" filterUnits="objectBoundingBox" primitiveUnits="objectBoundingBox" x="-0.10000000000" y="-0.10000000000" width="1.20000000000" height="1.20000000000">
   <feGaussianBlur result="" in="" x="0.00000000000" y="0.00000000000" width="1.00000000000" height="1.00000000000" stdDeviation="0.0131196, 0.0225674"/>
  </filter>
  <linearGradient id="gradient13" gradientTransform="matrix(0.981818 0 0 1 -53.6727 -120)" gradientUnits="objectBoundingBox" x1="0.88888888889" y1="6.83333333333" x2="0.29527399306" y2="6.83333333333" spreadMethod="reflect">
   <stop stop-color="#fffeee" offset="0.00000000000" stop-opacity="1.00000000000"/>
   <stop stop-color="#fffeee" offset="0.31999999285" stop-opacity="0.79069199664"/>
   <stop stop-color="#fffeee" offset="1.00000000000" stop-opacity="0.00000000000"/>
  </linearGradient>
  <linearGradient id="gradient14" gradientTransform="matrix(0.981818 0 0 1 -72.4227 -184)" gradientUnits="objectBoundingBox" x1="1.20187793427" y1="6.83333333333" x2="0.39924370892" y2="6.83333333333" spreadMethod="reflect">
   <stop stop-color="#fffeee" offset="0.00000000000" stop-opacity="1.00000000000"/>
   <stop stop-color="#fffeee" offset="0.31999999285" stop-opacity="0.79069199664"/>
   <stop stop-color="#fffeee" offset="1.00000000000" stop-opacity="0.00000000000"/>
  </linearGradient>
  <linearGradient id="gradient15" gradientTransform="translate(-56, -120)" gradientUnits="objectBoundingBox" x1="1.15972222222" y1="1.21522340909" x2="1.15972222222" y2="2.90390045455" spreadMethod="pad">
   <stop stop-color="#000000" offset="0.00000000000" stop-opacity="1.00000000000"/>
   <stop stop-color="#000000" offset="1.00000000000" stop-opacity="0.00000000000"/>
  </linearGradient>
  <filter id="filter11" filterUnits="objectBoundingBox" primitiveUnits="objectBoundingBox" x="-0.10000000000" y="-0.10000000000" width="1.20000000000" height="1.20000000000">
   <feGaussianBlur result="" in="" x="0.00000000000" y="0.00000000000" width="1.00000000000" height="1.00000000000" stdDeviation="0.0155943, 0.0255179"/>
  </filter>
  <clipPath id="clippath2" clipPathUnits="userSpaceOnUse">
   <path d="M72 0C47.4087 0 23.6429 0.62629 1.09687 1.80469C0.370779 5.98022 0 10.2799 0 14.6667C0 55.1467 32.256 88 72 88C111.744 88 144 55.1467 144 14.6667C144 10.2799 143.629 5.98022 142.903 1.80469C120.357 0.62629 96.5913 0 72 0Z"/>
  </clipPath>
 </defs>
<g id="layer1">
  <g id="g4354" transform="translate(-1.59999, -5.6)" fill="none">
   <path id="path3245" transform="matrix(1.96732 0 0 1.96732 23.3648 27.0046)" fill="#000000" filter="url(#filter0)" d="M108 54C108 83.8234 83.8234 108 54 108C24.1766 108 3.55271e-15 83.8234 0 54C-3.55271e-15 24.1766 24.1766 3.55271e-15 54 0C83.8234 -7.10543e-15 108 24.1766 108 54Z"/>
   <path id="path3276" transform="matrix(2 0 0 2 21.6 21.6)" fill="#ffbf00" filter="url(#filter1)" d="M108 54C108 83.8234 83.8234 108 54 108C24.1766 108 3.55271e-15 83.8234 0 54C-3.55271e-15 24.1766 24.1766 3.55271e-15 54 0C83.8234 -7.10543e-15 108 24.1766 108 54Z"/>
   <path id="path2385" transform="matrix(2 0 0 2 21.6 21.6)" fill="url(#gradient0)" d="M108 54C108 83.8234 83.8234 108 54 108C24.1766 108 3.55271e-15 83.8234 0 54C-3.55271e-15 24.1766 24.1766 3.55271e-15 54 0C83.8234 -7.10543e-15 108 24.1766 108 54Z"/>
   <g id="g3331" transform="translate(28.975, 28.975)" fill="none" filter="url(#filter2)">
    <path id="path3299" transform="translate(0.625, 0.625)" fill="url(#gradient1)" clip-path="url(#clippath0)" d="M100 1.77636e-14C44.8 1.77636e-14 1e-06 44.8 0 100C0 100.468 0.024839 100.94 0.03125 101.406C27.9203 113.089 62.5182 120 100 120C137.482 120 172.08 113.089 199.969 101.406C199.975 100.94 200 100.468 200 100C200 44.8 155.2 -1e-06 100 1.77636e-14Z"/>
   </g>
   <g id="g3399" transform="translate(9.59803, 9.6)" fill="none" filter="url(#filter3)">
    <path id="path3362" transform="translate(20.0003, 20)" fill="#ffffff" filter="url(#filter4)" clip-path="url(#clippath1)" d="M100.002 0C44.8016 0 0.00162711 44.8 0.00162711 100C0.00162711 100.353 -0.00203389 100.71 0.00162711 101.063C0.587666 54.0224 45.166 16 100.002 16C154.837 16 199.416 54.0224 200.002 101.063C200.005 100.71 200.002 100.353 200.002 100C200.002 44.8 155.202 1e-06 100.002 0ZM1.15788 115.094C8.44474 163.137 49.9343 200 100.002 200C150.069 200 191.559 163.137 198.845 115.094C191.507 156.36 150.027 188 100.002 188C49.9766 188 8.49638 156.36 1.15788 115.094Z"/>
   </g>
   <path id="path3418" transform="matrix(0.201249 0.0859706 -0.128956 0.301874 54.6961 66.6564)" fill="url(#gradient2)" filter="url(#filter5)" d="M108 54C108 83.8234 83.8234 108 54 108C24.1766 108 3.55271e-15 83.8234 0 54C-3.55271e-15 24.1766 24.1766 3.55271e-15 54 0C83.8234 -7.10543e-15 108 24.1766 108 54Z"/>
   <path id="path3470" transform="matrix(-0.201249 0.0859706 0.128956 0.301874 204.504 66.6564)" fill="url(#gradient3)" filter="url(#filter6)" d="M108 54C108 83.8234 83.8234 108 54 108C24.1766 108 3.55271e-15 83.8234 0 54C-3.55271e-15 24.1766 24.1766 3.55271e-15 54 0C83.8234 -7.10543e-15 108 24.1766 108 54Z"/>
  </g>
  <g id="g3783" transform="translate(85.2989, 76.46)" fill="none">
   <g id="g3744" transform="" fill="none">
    <path id="path3716" transform="matrix(0.966592 0 0 0.887576 2.41002 3.62501)" fill="#ffffff" filter="url(#filter7)" d="M15.8196 2.68301e-11C7.08717 2.68301e-11 1.90948e-05 7.1533 1.90948e-05 15.9806C1.90948e-05 16.5849 -0.00285191 17.2029 0.0618141 17.7898C0.929429 11.3985 7.67552 6.43246 15.8196 6.43246C23.9636 6.43244 30.7097 11.3985 31.5773 17.7898C31.642 17.2029 31.6391 16.5849 31.6391 15.9806C31.6391 7.15331 24.5519 -1.6e-05 15.8196 2.68301e-11Z"/>
    <path id="path2927" transform="translate(1.88151, 0.625)" fill="url(#gradient4)" d="M15.8196 2.68443e-11C7.08717 2.68443e-11 1.90948e-05 7.1533 1.90948e-05 15.9806C1.90948e-05 16.5849 -0.00285191 17.2029 0.0618141 17.7898C0.929429 11.3985 7.67552 6.43246 15.8196 6.43246C23.9636 6.43244 30.7097 11.3985 31.5773 17.7898C31.642 17.2029 31.6391 16.5849 31.6391 15.9806C31.6391 7.15331 24.5519 -1.6e-05 15.8196 2.68443e-11Z"/>
    <path id="path3706" transform="translate(10.8573, 1.625)" fill="url(#gradient5)" d="M6.84375 7.16227e-12C4.02568 1.00001e-06 1.53844 0.906191 0 2.25C0.611664 2.5316 1.27369 2.76404 1.96875 2.96875C3.35103 2.47592 5.0284 2.1875 6.84375 2.1875C8.71712 2.1875 10.4375 2.50934 11.8438 3.03125C12.5397 2.83712 13.1965 2.61436 13.8125 2.34375C12.2852 0.942261 9.73257 -2.99999e-06 6.84375 7.16227e-12Z"/>
    <path id="path3777" transform="translate(8.70108, 8.62418)" fill="url(#gradient6)" opacity="0.04954954000" d="M17.7984 5.50082C17.7991 8.53871 13.8146 11.0016 8.89919 11.0016C3.98378 11.0016 -0.000736782 8.53871 1.02191e-07 5.50082C-0.000736782 2.46294 3.98378 0 8.89919 0C13.8146 0 17.7991 2.46294 17.7984 5.50082Z"/>
   </g>
  </g>
  <g id="g3193" transform="translate(36.1454, 101.515)" fill="none">
   <path id="path3200" transform="matrix(0.986267 0 0 1 20.0364 14.4)" fill="#ffffff" filter="url(#filter8)" opacity="0.99549549000" d="M72.8182 0C47.9474 0 23.9115 0.63341 1.10934 1.8252C0.37499 6.04818 0 10.3967 0 14.8333C0 55.7733 32.6225 89 72.8182 89C113.014 89 145.636 55.7733 145.636 14.8333C145.636 10.3967 145.261 6.04818 144.527 1.8252C121.725 0.63341 97.689 0 72.8182 0Z"/>
   <path id="path3202" transform="translate(15.3091, 8.9)" fill="url(#gradient7)" filter="url(#filter9)" d="M76.5455 0C50.4016 0 25.1355 0.63342 1.16613 1.8252C0.39419 6.04819 0 10.3967 0 14.8333C0 55.7733 34.2924 89 76.5455 89C118.799 89 153.091 55.7733 153.091 14.8333C153.091 10.3967 152.697 6.04819 151.925 1.8252C127.955 0.63342 102.689 0 76.5455 0Z"/>
   <path id="path3771" transform="translate(19.8546, 10.4)" fill="url(#gradient8)" d="M72 0C47.4087 0 23.6429 0.62629 1.09688 1.80469C0.37078 5.98022 0 10.2799 0 14.6667C0 55.1467 32.256 88 72 88C111.744 88 144 55.1467 144 14.6667C144 10.2799 143.629 5.98022 142.903 1.80469C120.357 0.62629 96.5913 0 72 0Z"/>
   <path id="path3443" transform="translate(19.8546, 16.3912)" fill="url(#gradient9)" d="M72 0C64.655 0 57.3707 0.02802 50.1562 0.09375C46.5489 0.12694 42.947 0.16943 39.375 0.21875C35.8158 0.26756 32.2409 0.34173 28.7188 0.40625C25.184 0.47141 21.6519 0.54429 18.1562 0.625C14.6734 0.70506 11.1921 0.77972 7.75 0.875C5.27093 0.94385 2.8619 1.0483 0.40625 1.125C0.158962 3.60764 0 6.13879 0 8.6875C0 12.7016 0.327287 16.6292 0.9375 20.4688L143.062 20.4688C143.673 16.6292 144 12.7016 144 8.6875C144 6.13879 143.841 3.60764 143.594 1.125C141.138 1.0483 138.729 0.94385 136.25 0.875C132.808 0.77972 129.327 0.70506 125.844 0.625C125.831 0.62471 125.825 0.62528 125.812 0.625C118.834 0.46465 111.756 0.31655 104.625 0.21875C104.613 0.21857 104.606 0.21892 104.594 0.21875C93.8784 0.07196 83.0176 0 72 0ZM15.8438 54.5312C19.0496 58.5969 22.6836 62.3055 26.6563 65.5938C27.1436 65.811 27.6341 66.0378 28.125 66.25C28.5505 66.4339 28.9761 66.6026 29.4063 66.7812C30.3759 67.1839 31.351 67.5931 32.3438 67.9688C32.6475 68.0837 32.9754 68.1689 33.2812 68.2812C34.0208 68.553 34.7796 68.8372 35.5312 69.0938C36.2847 69.3506 37.0474 69.6024 37.8125 69.8438C38.4922 70.0581 39.1551 70.2669 39.8438 70.4688C40.2672 70.593 40.6982 70.7243 41.125 70.8438C42.1993 71.1446 43.2804 71.3863 44.375 71.6562C44.5664 71.7035 44.7455 71.7975 44.9375 71.8438C45.4351 71.9637 45.9359 72.074 46.4375 72.1875C47.6228 72.4555 48.7934 72.7062 50 72.9375C50.3839 73.0111 50.7703 73.0552 51.1563 73.125C51.9765 73.2735 52.7956 73.4313 53.625 73.5625C53.972 73.6174 54.339 73.6669 54.6875 73.7188C56.087 73.927 57.4829 74.1231 58.9062 74.2812C60.0971 74.4136 61.3248 74.5286 62.5313 74.625C62.5808 74.6289 62.6067 74.6211 62.6562 74.625C63.2033 74.668 63.7625 74.6832 64.3125 74.7188C64.5363 74.7332 64.7444 74.7681 64.9688 74.7812C65.8331 74.8321 66.6911 74.8741 67.5625 74.9062C69.028 74.9603 70.5161 75 72 75C73.4839 75 74.972 74.9603 76.4375 74.9062C77.3089 74.8741 78.1669 74.8321 79.0312 74.7812C79.2574 74.7679 79.4618 74.7333 79.6875 74.7188C80.2336 74.6835 80.8006 74.6676 81.3438 74.625C81.3927 74.6211 81.4198 74.6289 81.4688 74.625C82.6752 74.5286 83.9029 74.4136 85.0938 74.2812C86.5171 74.1231 87.913 73.927 89.3125 73.7188C90.4876 73.5439 91.6866 73.3343 92.8438 73.125C93.2346 73.0542 93.6113 73.0121 94 72.9375C95.2066 72.7062 96.3772 72.4555 97.5625 72.1875C98.2565 72.0305 98.9386 71.8255 99.625 71.6562C100.72 71.3863 101.801 71.1446 102.875 70.8438C103.299 70.7252 103.736 70.592 104.156 70.4688C104.847 70.2661 105.506 70.059 106.188 69.8438C106.953 69.6024 107.715 69.3506 108.469 69.0938C109.22 68.8372 109.979 68.553 110.719 68.2812C111.027 68.1679 111.35 68.0847 111.656 67.9688C112.649 67.5931 113.624 67.1839 114.594 66.7812C115.024 66.6025 115.449 66.434 115.875 66.25C116.368 66.0368 116.857 65.8108 117.344 65.5938C121.316 62.3055 124.95 58.5969 128.156 54.5312Z"/>
   <path id="path3758" transform="translate(38.6046, 74.4)" fill="url(#gradient10)" d="M0 0C13.1727 14.7426 32.1518 24 53.25 24C74.3482 24 93.3273 14.7426 106.5 0Z"/>
   <path id="path3206" transform="translate(19.8546, 10.4)" fill="url(#gradient11)" d="M72 0C47.4087 0 23.6397 0.6341 1.09375 1.8125C0.36766 5.98803 0 10.2695 0 14.6562C0 17.8194 0.2429 20.942 0.625 24L143.375 24C143.757 20.942 144 17.8194 144 14.6562C144 10.2695 143.632 5.98803 142.906 1.8125C120.36 0.6341 96.5913 0 72 0Z"/>
   <path id="path3208" transform="translate(15.3091, 8.9)" fill="url(#gradient12)" filter="url(#filter10)" opacity="0.21171169000" d="M76.5455 0C50.4016 0 25.1355 0.63342 1.16613 1.8252C0.39419 6.04819 0 10.3967 0 14.8333C0 55.7733 34.2924 89 76.5455 89C118.799 89 153.091 55.7733 153.091 14.8333C153.091 10.3967 152.697 6.04819 151.925 1.8252C127.955 0.63342 102.689 0 76.5455 0Z"/>
   <path id="path3773" transform="translate(19.8546, 10.4)" fill="url(#gradient13)" d="M72 0C65.8522 0 59.7572 0.04787 53.7188 0.125C50.6994 0.16393 47.6773 0.19213 44.6875 0.25C41.7085 0.30728 38.7293 0.39305 35.7812 0.46875C32.8226 0.54521 29.8634 0.62406 26.9375 0.71875C24.0224 0.81271 21.0998 0.91944 18.2188 1.03125C12.4356 1.25641 6.73025 1.5179 1.09375 1.8125C0.7307 3.90027 0.46471 6.01104 0.28125 8.15625C0.18991 9.22657 0.10831 10.2915 0.0625 11.375C0.01551 12.4705 0 13.5491 0 14.6562C0 15.775 0.045 16.8935 0.09375 18C0.10845 18.3337 0.10593 18.6675 0.125 19C0.14258 19.2723 0.16701 19.541 0.1875 19.8125C0.29381 21.2214 0.45198 22.6153 0.625 24L143.375 24C143.548 22.6153 143.706 21.2214 143.812 19.8125C143.831 19.5409 143.859 19.2724 143.875 19C143.896 18.6675 143.889 18.3336 143.906 18C143.955 16.8935 144 15.775 144 14.6562C144 12.4629 143.902 10.3015 143.719 8.15625C143.536 6.0156 143.269 3.90026 142.906 1.8125C137.27 1.5179 131.564 1.25641 125.781 1.03125C122.9 0.91944 119.978 0.81271 117.062 0.71875C117.052 0.71842 117.042 0.71908 117.031 0.71875C111.19 0.53061 105.281 0.36475 99.3125 0.25C99.3022 0.2498 99.2916 0.2502 99.2813 0.25C90.3125 0.07777 81.2218 0 72 0Z"/>
   <path id="path3210" transform="translate(38.6046, 74.4)" fill="url(#gradient14)" d="M0 0C0.80483 0.90075 1.62134 1.76606 2.46875 2.625C2.56168 2.71921 2.65657 2.81255 2.75 2.90625C3.5488 3.70737 4.38416 4.48727 5.21875 5.25C6.08281 6.03931 6.97408 6.81588 7.875 7.5625C8.0858 7.73722 8.28723 7.92142 8.5 8.09375C9.22788 8.68329 9.96838 9.25146 10.7188 9.8125C10.9691 9.99969 11.216 10.191 11.4688 10.375C12.1765 10.89 12.8985 11.3858 13.625 11.875C14.0188 12.1402 14.4133 12.3988 14.8125 12.6562C15.3774 13.0206 15.9558 13.3701 16.5312 13.7188C16.8874 13.9345 17.2337 14.1654 17.5938 14.375C18.4053 14.8475 19.2315 15.3092 20.0625 15.75C20.3167 15.8849 20.5877 15.9931 20.8438 16.125C21.4628 16.4438 22.0897 16.7615 22.7188 17.0625C23.3494 17.3639 23.9846 17.6544 24.625 17.9375C25.1939 18.189 25.7673 18.4506 26.3438 18.6875C26.6982 18.8333 27.049 18.9848 27.4062 19.125C28.3055 19.4779 29.2088 19.777 30.125 20.0938C30.2852 20.1491 30.433 20.227 30.5938 20.2812C31.0103 20.4219 31.4239 20.5544 31.8438 20.6875C32.8359 21.002 33.8338 21.2911 34.8438 21.5625C35.1651 21.6489 35.4894 21.7306 35.8125 21.8125C36.4991 21.9867 37.1808 22.1585 37.875 22.3125C38.1654 22.3769 38.4583 22.4392 38.75 22.5C39.9214 22.7443 41.0899 22.9707 42.2812 23.1562C43.278 23.3115 44.3027 23.4494 45.3125 23.5625C45.354 23.5671 45.396 23.5579 45.4375 23.5625C45.8954 23.613 46.3521 23.6458 46.8125 23.6875C46.9999 23.7044 47.1872 23.7345 47.375 23.75C48.0985 23.8097 48.8019 23.8685 49.5312 23.9062C50.7579 23.9696 52.008 24 53.25 24C54.492 24 55.7421 23.9696 56.9688 23.9062C57.6981 23.8685 58.4015 23.8097 59.125 23.75C59.3143 23.7344 59.4986 23.7046 59.6875 23.6875C60.1446 23.6462 60.6079 23.6125 61.0625 23.5625C61.1034 23.558 61.1466 23.5671 61.1875 23.5625C62.1973 23.4494 63.222 23.3115 64.2188 23.1562C65.4101 22.9707 66.5786 22.7443 67.75 22.5C68.7336 22.2948 69.719 22.0581 70.6875 21.8125C71.0147 21.7295 71.3309 21.6501 71.6562 21.5625C72.6662 21.2911 73.6641 21.002 74.6562 20.6875C75.2371 20.5034 75.8005 20.2924 76.375 20.0938C77.2912 19.777 78.1945 19.4779 79.0938 19.125C79.4483 18.9859 79.8044 18.8321 80.1562 18.6875C80.7343 18.4497 81.3045 18.19 81.875 17.9375C82.5154 17.6544 83.1506 17.3639 83.7812 17.0625C84.4103 16.7615 85.0372 16.4438 85.6562 16.125C85.9147 15.992 86.1809 15.8861 86.4375 15.75C87.2685 15.3092 88.0947 14.8475 88.9062 14.375C89.2665 14.1652 89.6124 13.9347 89.9688 13.7188C90.5471 13.3684 91.1198 13.0224 91.6875 12.6562C92.0843 12.4003 92.4835 12.1386 92.875 11.875C93.6015 11.3858 94.3235 10.89 95.0312 10.375C95.2851 10.1903 95.5298 10.0005 95.7812 9.8125C96.5316 9.25146 97.2721 8.68329 98 8.09375C98.2121 7.92196 98.4149 7.73666 98.625 7.5625C99.5291 6.81316 100.414 6.04234 101.281 5.25C102.116 4.48727 102.951 3.70737 103.75 2.90625C103.844 2.8125 103.938 2.71927 104.031 2.625C104.877 1.76732 105.696 0.89936 106.5 0Z"/>
   <path id="path3212" transform="translate(19.8546, 10.4)" fill="none" stroke="url(#gradient15)" stroke-width="3.00000000000" stroke-linecap="round" stroke-linejoin="round" filter="url(#filter11)" clip-path="url(#clippath2)" d="M72 0C47.4087 0 23.6429 0.62629 1.09687 1.80469C0.370779 5.98022 0 10.2799 0 14.6667C0 55.1467 32.256 88 72 88C111.744 88 144 55.1467 144 14.6667C144 10.2799 143.629 5.98022 142.903 1.80469C120.357 0.62629 96.5913 0 72 0Z"/>
  </g>
 </g>
</svg>
