<?xml version="1.0" encoding="iso-8859-1"?>
<!-- Generator: Adobe Illustrator 16.0.0, SVG Export Plug-In . SVG Version: 6.00 Build 0)  -->
<!DOCTYPE svg PUBLIC "-//W3C//DTD SVG 1.1//EN" "http://www.w3.org/Graphics/SVG/1.1/DTD/svg11.dtd">
<svg version="1.1" id="Layer_1" xmlns="http://www.w3.org/2000/svg" xmlns:xlink="http://www.w3.org/1999/xlink" x="0px" y="0px"
	 width="298.301px" height="298.301px" viewBox="0 0 298.301 298.301" style="enable-background:new 0 0 298.301 298.301;"
	 xml:space="preserve">
<g>
	<radialGradient id="SVGID_1_" cx="118.1221" cy="101.1973" r="141.7634" gradientUnits="userSpaceOnUse">
		<stop  offset="0" style="stop-color:#5E5F5F"/>
		<stop  offset="1" style="stop-color:#000002"/>
	</radialGradient>
	<path style="fill-rule:evenodd;clip-rule:evenodd;fill:url(#SVGID_1_);" d="M239.866,8.111H58.438
		c-27.681,0-50.326,22.645-50.326,50.323v181.429c0,27.681,22.646,50.326,50.326,50.326h181.429
		c27.679,0,50.324-22.646,50.324-50.326V58.435C290.19,30.756,267.545,8.111,239.866,8.111z"/>
	<g>
		<path style="fill-rule:evenodd;clip-rule:evenodd;fill:#B3B3B3;" d="M55.124,296.426h188.053c14.953,0,28.544-6.027,38.395-15.736
			c9.486-9.35,15.507-22.119,15.939-36.213l-5.157-5.5c-0.43,11.929-8.363,28.235-16.409,36.166
			c-8.412,8.292-20.012,13.438-32.768,13.438H55.124c-12.756,0-24.354-5.146-32.767-13.438c-8.047-7.931-15.98-24.237-16.41-36.166
			l-5.156,5.5c0.433,14.094,6.453,26.863,15.938,36.213C26.58,290.398,40.172,296.426,55.124,296.426z"/>
		<path style="fill-rule:evenodd;clip-rule:evenodd;fill:#999999;" d="M55.124,1.541h188.053c14.953,0,28.544,6.026,38.395,15.736
			c9.486,9.35,15.507,22.118,15.939,36.213l-5.157,5.5c-0.43-11.929-8.363-28.235-16.409-36.167
			c-8.412-8.291-20.012-13.438-32.768-13.438H55.124c-12.756,0-24.354,5.146-32.767,13.438c-8.047,7.932-15.98,24.238-16.41,36.167
			l-5.156-5.5c0.433-14.095,6.453-26.863,15.938-36.213C26.58,7.567,40.172,1.541,55.124,1.541z"/>
		<radialGradient id="SVGID_2_" cx="149.1504" cy="149.1504" r="210.9285" gradientUnits="userSpaceOnUse">
			<stop  offset="0" style="stop-color:#000002"/>
			<stop  offset="0.2046" style="stop-color:#040406"/>
			<stop  offset="0.4167" style="stop-color:#111112"/>
			<stop  offset="0.6322" style="stop-color:#252527"/>
			<stop  offset="0.8486" style="stop-color:#424243"/>
			<stop  offset="1" style="stop-color:#5B5B5B"/>
		</radialGradient>
		<path style="fill-rule:evenodd;clip-rule:evenodd;fill:url(#SVGID_2_);" d="M245.083,0H53.218C23.947,0,0,23.947,0,53.218v191.865
			c0,29.271,23.947,53.218,53.218,53.218h191.865c29.271,0,53.218-23.947,53.218-53.218V53.218C298.301,23.947,274.354,0,245.083,0
			L245.083,0z M239.866,8.111c27.679,0,50.323,22.645,50.323,50.323v181.429c0,27.681-22.645,50.326-50.323,50.326H58.438
			c-27.681,0-50.326-22.646-50.326-50.326V58.435c0-27.679,22.646-50.323,50.326-50.323H239.866z"/>
	</g>
	<linearGradient id="SVGID_3_" gradientUnits="userSpaceOnUse" x1="138.9326" y1="293.8535" x2="138.9326" y2="270.8146">
		<stop  offset="0" style="stop-color:#000002"/>
		<stop  offset="1" style="stop-color:#414042"/>
	</linearGradient>
	<path style="fill-rule:evenodd;clip-rule:evenodd;fill:url(#SVGID_3_);" d="M43.812,254.037L23.32,273.98
		c9.085,8.875,21.489,14.366,35.117,14.366h181.429c5.101,0,10.03-0.771,14.679-2.198l-65.869-32.111H43.812z"/>
	<linearGradient id="SVGID_4_" gradientUnits="userSpaceOnUse" x1="266.5859" y1="149.1504" x2="246.0044" y2="149.1504">
		<stop  offset="0" style="stop-color:#542F0F"/>
		<stop  offset="1" style="stop-color:#C9952B"/>
	</linearGradient>
	<rect x="246.412" y="15.345" style="fill-rule:evenodd;clip-rule:evenodd;fill:url(#SVGID_4_);" width="11.691" height="267.611"/>
	
		<rect x="38.757" y="45.212" style="fill-rule:evenodd;clip-rule:evenodd;fill:#996633;stroke:#663300;stroke-width:1.9998;stroke-miterlimit:2.6131;" width="154.974" height="213.307"/>
	<linearGradient id="SVGID_5_" gradientUnits="userSpaceOnUse" x1="258.9404" y1="149.3691" x2="184.5133" y2="148.07">
		<stop  offset="0" style="stop-color:#542F0F"/>
		<stop  offset="0.43" style="stop-color:#7F4A1E"/>
		<stop  offset="1" style="stop-color:#C9952B"/>
	</linearGradient>
	<polygon style="fill-rule:evenodd;clip-rule:evenodd;fill:url(#SVGID_5_);" points="246.412,15.345 193.73,45.212 193.73,258.519 
		246.412,282.956 	"/>
	<radialGradient id="SVGID_6_" cx="112.6924" cy="153.9082" r="124.6146" gradientUnits="userSpaceOnUse">
		<stop  offset="0" style="stop-color:#FFFFFF"/>
		<stop  offset="0.12" style="stop-color:#A8DEEA"/>
		<stop  offset="0.25" style="stop-color:#6BCBDC"/>
		<stop  offset="0.39" style="stop-color:#6B8FC9"/>
		<stop  offset="0.56" style="stop-color:#5E2D91"/>
		<stop  offset="0.71" style="stop-color:#213B81"/>
		<stop  offset="0.8716" style="stop-color:#5D3E98"/>
		<stop  offset="1" style="stop-color:#0A123C"/>
	</radialGradient>
	<rect x="43.812" y="49.694" style="fill-rule:evenodd;clip-rule:evenodd;fill:url(#SVGID_6_);" width="144.864" height="204.343"/>
	<g>
		<path style="fill-rule:evenodd;clip-rule:evenodd;fill:#00CCFF;" d="M159.332,171.606c-1.935,3.487-3.985,6.116-6.722,9.016
			c-4.341,4.328-8.296,6.955-13.865,9.43c-5.736,2.349-10.448,3.308-16.632,3.49c-6.51,0.004-11.447-0.951-17.554-3.283
			c-5.005-2.081-8.536-4.349-12.521-8.09c-3.697-3.674-6.044-6.993-8.285-11.747c-2.077-4.75-3.031-8.654-3.334-13.855
			c-0.157-5.356,0.503-9.4,2.324-14.427c1.977-4.977,4.168-8.418,7.823-12.27c3.677-3.649,6.984-5.879,11.682-7.956
			c4.841-1.978,8.803-2.799,14.012-2.949c5.488-0.003,9.647,0.791,14.791,2.756c4.056,1.686,6.919,3.518,10.146,6.546
			c2.998,2.979,4.902,5.663,6.719,9.517c1.688,3.852,2.466,7.02,2.713,11.237c0.129,4.349-0.402,7.633-1.879,11.713
			c-1.604,4.043-3.381,6.841-6.348,9.97c-2.983,2.965-5.666,4.778-9.479,6.467c-3.93,1.607-7.141,2.277-11.369,2.402
			c-4.453,0.006-7.83-0.635-12.004-2.225c-3.1-1.285-5.281-2.679-7.748-4.99c-2.292-2.272-3.751-4.324-5.141-7.265
			c-1.294-2.944-1.892-5.37-2.083-8.595c-0.102-3.332,0.301-5.846,1.43-8.973c1.227-3.099,2.584-5.246,4.854-7.645
			c2.283-2.273,4.337-3.667,7.255-4.963c3.007-1.234,5.467-1.753,8.703-1.853c3.41-0.009,5.996,0.476,9.192,1.689
			c2.13,0.879,3.633,1.836,5.329,3.42c1.581,1.564,2.584,2.968,3.547,4.993c0.895,2.032,1.311,3.701,1.446,5.926
			c0.074,2.302-0.2,4.043-0.976,6.204c-0.844,2.146-1.78,3.634-3.347,5.297c-1.576,1.576-2.992,2.545-5.008,3.446
			c-2.076,0.859-3.776,1.226-6.013,1.301c-2.359,0.014-4.147-0.312-6.361-1.141c-1.154-0.473-1.972-0.986-2.893-1.839
			c-0.863-0.848-1.413-1.608-1.941-2.706c-0.495-1.108-0.729-2.021-0.81-3.236c-0.049-1.268,0.094-2.225,0.512-3.418
			c0.458-1.188,0.965-2.018,1.817-2.946c0.882-0.898,1.625-1.428,2.733-1.977c0.736-0.354,0.805-0.424-0.053-0.132
			c-1.166,0.433-2.007,0.995-2.927,1.854c-0.937,0.936-1.495,1.787-2.016,3.021c-0.481,1.254-0.659,2.271-0.644,3.62
			c0.055,1.309,0.281,2.291,0.786,3.495c0.544,1.199,1.12,2.033,2.034,2.969c0.982,0.949,1.857,1.524,3.104,2.062
			c2.309,0.92,4.185,1.296,6.665,1.328c2.373-0.038,4.178-0.396,6.396-1.271c2.173-0.931,3.699-1.943,5.41-3.605
			c1.717-1.77,2.745-3.359,3.688-5.662c0.871-2.334,1.191-4.217,1.143-6.715c-0.117-2.423-0.547-4.24-1.495-6.463
			c-1.02-2.216-2.095-3.758-3.797-5.481c-1.829-1.75-3.458-2.811-5.77-3.795c-3.39-1.33-6.137-1.873-9.767-1.905
			c-3.467,0.069-6.105,0.6-9.339,1.889c-3.161,1.366-5.387,2.848-7.872,5.276c-2.49,2.579-3.983,4.897-5.345,8.249
			c-1.259,3.396-1.72,6.131-1.641,9.763c0.179,3.521,0.808,6.163,2.191,9.389c1.489,3.221,3.058,5.463,5.537,7.963
			c2.667,2.542,5.035,4.081,8.402,5.508c4.455,1.738,8.062,2.447,12.829,2.481c4.548-0.1,8.009-0.798,12.247-2.494
			c2.947-1.266,5.169-2.581,7.704-4.579c0.926-0.752,1.758-1.501,2.603-2.348c3.253-3.382,5.208-6.415,6.982-10.804
			c1.641-4.442,2.245-8.027,2.136-12.774c-0.238-4.604-1.063-8.069-2.878-12.284c-1.951-4.212-4.01-7.154-7.255-10.42
			c-3.494-3.326-6.602-5.344-11.009-7.208c-5.511-2.145-9.972-3.024-15.864-3.061c-5.622,0.126-9.9,0.987-15.136,3.086
			c-5.112,2.222-8.713,4.622-12.729,8.558c-4.016,4.177-6.428,7.92-8.617,13.34c-2.025,5.486-2.771,9.906-2.634,15.768
			c0.296,5.688,1.314,9.963,3.557,15.17c2.413,5.204,4.954,8.836,8.967,12.872c4.316,4.106,8.16,6.602,13.605,8.903
			c6.561,2.552,11.874,3.598,18.891,3.64c6.69-0.151,11.781-1.177,18.015-3.678c6.083-2.646,10.364-5.499,15.142-10.185
			c4.775-4.97,7.642-9.42,10.245-15.866c2.406-6.524,3.292-11.782,3.128-18.753c-0.354-6.764-1.566-11.849-4.236-18.041
			c-2.871-6.19-5.897-10.512-10.671-15.312c-5.142-4.889-9.709-7.851-16.193-10.59c-7.607-2.958-13.769-4.169-21.903-4.216
			c-7.754,0.178-13.657,1.369-20.878,4.269c-7.047,3.065-12.01,6.376-17.541,11.805c-5.527,5.755-8.85,10.916-11.861,18.38
			c-2.786,7.56-3.807,13.644-3.616,21.717c0.412,7.832,1.82,13.727,4.912,20.895c3.33,7.172,6.834,12.174,12.368,17.734
			c5.958,5.661,11.251,9.093,18.765,12.264c8.647,3.357,15.648,4.734,24.895,4.784c8.811-0.205,15.518-1.561,23.722-4.858
			c8.003-3.484,13.636-7.244,19.918-13.413c6.275-6.536,10.043-12.395,13.461-20.872c3.159-8.58,4.318-15.491,4.099-24.655
			c-0.471-8.894-2.07-15.58-5.584-23.721c-3.782-8.142-7.767-13.824-14.051-20.135c-6.766-6.427-12.782-10.323-21.313-13.922
			c-9.679-3.756-17.513-5.292-27.86-5.346c-9.856,0.23-17.362,1.749-26.539,5.441c-8.947,3.897-15.25,8.107-22.273,15.005
			c-7.015,7.312-11.225,13.859-15.045,23.34c-3.531,9.593-4.824,17.319-4.576,27.564c0.526,9.944,2.317,17.422,6.248,26.522
			c4.23,9.105,8.688,15.457,15.716,22.516c7.567,7.187,14.301,11.544,23.843,15.568c10.697,4.151,19.363,5.85,30.803,5.908
			c10.896-0.255,19.188-1.936,29.335-6.017c9.892-4.309,16.85-8.957,24.614-16.583c4.791-4.993,8.396-9.663,11.449-14.976v-9.148
			c-3.693,8.173-7.924,14.271-14.449,21.004c-7.348,7.145-13.942,11.481-23.283,15.506c-9.584,3.81-17.417,5.348-27.702,5.559
			c-10.794-0.09-18.963-1.732-29.058-5.676c-8.93-3.789-15.217-7.889-22.299-14.637c-6.551-6.601-10.699-12.547-14.641-21.057
			c-3.645-8.468-5.299-15.428-5.781-24.679c-0.223-9.5,0.989-16.657,4.268-25.555c3.544-8.785,7.453-14.847,13.957-21.626
			c6.525-6.409,12.389-10.313,20.705-13.938c8.557-3.443,15.554-4.854,24.747-5.075c9.669,0.043,16.991,1.484,26.04,4.987
			c7.911,3.33,13.484,6.935,19.766,12.888c5.816,5.829,9.507,11.083,13.015,18.609c3.247,7.497,4.73,13.662,5.175,21.859
			c0.216,8.426-0.844,14.78-3.737,22.675c-3.132,7.806-6.591,13.197-12.354,19.224c-5.789,5.707-10.99,9.184-18.375,12.417
			c-7.604,3.075-13.82,4.34-21.994,4.548c-8.605-0.027-15.113-1.297-23.17-4.403c-6.93-2.906-11.816-6.057-17.32-11.26
			c-5.103-5.102-8.339-9.697-11.42-16.288c-2.853-6.567-4.159-11.969-4.557-19.152c-0.195-7.391,0.727-12.961,3.258-19.888
			c2.743-6.853,5.771-11.581,10.822-16.874c5.078-5.014,9.636-8.067,16.114-10.91c6.672-2.705,12.128-3.82,19.301-4.008
			c7.55,0.018,13.272,1.128,20.342,3.85c5.958,2.493,10.165,5.2,14.898,9.669c4.39,4.385,7.178,8.337,9.83,14.002
			c2.459,5.65,3.586,10.297,3.931,16.478c0.172,6.36-0.619,11.158-2.794,17.121C161.146,168.041,160.344,169.764,159.332,171.606
			L159.332,171.606z M188.676,112.709v7.865c-4.352-9.574-8.958-16.323-16.245-23.826c-7.974-7.778-15.056-12.53-25.166-16.968
			c-11.344-4.599-20.516-6.55-32.712-6.796c-11.664,0.099-20.534,1.797-31.453,6.04c-10.659,4.497-18.145,9.437-26.548,17.558
			c-5.374,5.512-9.36,10.675-12.74,16.628v-2.915c3.149-5.192,6.855-9.881,11.633-14.865c8.492-8.35,16.13-13.438,26.958-18.158
			c4.173-1.72,8.023-2.989,12.39-4.095c6.866-1.634,12.694-2.364,19.743-2.488c12.534,0.068,22.018,1.928,33.739,6.479
			c10.552,4.453,17.992,9.269,26.359,17.217C180.599,100.375,184.889,105.907,188.676,112.709L188.676,112.709z M43.812,197.816
			v-2.421c4.114,7.497,8.765,13.563,15.277,20.132c9.043,8.623,17.069,13.88,28.468,18.72c12.613,4.919,22.813,7.006,36.279,7.114
			c12.889-0.297,22.711-2.133,34.671-6.881c9.683-4.127,16.729-7.105,0.134,0.338c-11.938,4.967-21.857,6.882-34.799,7.285
			c-13.584-0.005-23.883-2.058-36.635-6.953c-11.557-4.838-19.689-10.122-28.877-18.809
			C52.241,210.249,47.754,204.579,43.812,197.816z"/>
		<path style="fill-rule:evenodd;clip-rule:evenodd;fill:#00CCFF;" d="M94.833,104.369c-0.049,0.021-0.188,0.083-0.224,0.09
			c-7.145,2.9-12.1,6.407-17.816,11.781c-5.648,5.772-9.001,11.004-12.122,18.563c-2.876,7.646-3.915,13.836-3.77,22.042
			c0.376,7.961,1.804,13.957,4.914,21.268c3.352,7.309,6.915,12.407,12.524,18.091c6.041,5.789,11.427,9.289,19.07,12.551
			c8.778,3.447,15.9,4.853,25.311,4.938c8.973-0.177,15.807-1.552,24.18-4.886c8.177-3.529,13.93-7.363,20.362-13.643
			c6.434-6.663,10.289-12.646,13.809-21.309c3.255-8.768,4.445-15.842,4.244-25.223c-0.459-9.1-2.09-15.945-5.667-24.286
			c-3.85-8.336-7.92-14.153-14.337-20.625c-6.906-6.589-13.059-10.581-21.781-14.282c-9.871-3.855-17.874-5.429-28.442-5.506
			c-10.078,0.217-17.746,1.764-27.143,5.521c-9.17,3.976-15.624,8.281-22.83,15.336c-7.206,7.482-11.529,14.197-15.463,23.914
			c-3.637,9.834-4.969,17.767-4.73,28.28c0.524,10.198,2.357,17.87,6.375,27.213c4.324,9.338,8.888,15.852,16.085,23.098
			c7.746,7.375,14.638,11.843,24.415,15.98c10.935,4.259,19.795,5.998,31.495,6.072c11.151-0.248,19.646-1.966,30.037-6.133
			c10.142-4.404,17.28-9.172,25.247-16.981c4.078-4.242,7.322-8.262,10.1-12.617v-2.736c-2.982,5.038-6.497,9.532-11.094,14.319
			c-7.817,7.674-14.825,12.352-24.782,16.685c-10.21,4.103-18.557,5.791-29.519,6.043c-11.507-0.062-20.223-1.773-30.981-5.952
			c-9.604-4.055-16.374-8.439-23.989-15.677c-7.072-7.105-11.556-13.5-15.812-22.665c-3.952-9.164-5.755-16.689-6.281-26.699
			c-0.244-10.317,1.056-18.093,4.614-27.75c3.849-9.542,8.088-16.135,15.151-23.49c7.071-6.942,13.41-11.176,22.417-15.097
			c9.234-3.71,16.783-5.239,26.698-5.469c10.405,0.059,18.288,1.602,28.018,5.381c8.587,3.626,14.641,7.544,21.448,14.014
			c6.326,6.355,10.335,12.069,14.141,20.267c3.535,8.198,5.149,14.929,5.62,23.883c0.219,9.23-0.943,16.189-4.127,24.828
			c-3.446,8.538-7.234,14.439-13.555,21.02c-6.328,6.211-11.997,10.001-20.052,13.507c-8.263,3.317-15.011,4.689-23.879,4.893
			c-9.306-0.054-16.357-1.428-25.055-4.81c-7.567-3.197-12.909-6.648-18.905-12.351c-5.574-5.605-9.118-10.644-12.468-17.867
			c-3.114-7.231-4.549-13.174-4.959-21.063c-0.185-8.146,0.826-14.297,3.641-21.906c3.057-7.535,6.378-12.759,11.958-18.547
			c5.624-5.405,10.61-8.928,17.687-11.914C94.656,104.432,94.835,104.368,94.833,104.369L94.833,104.369z M188.676,108.743v2.859
			c-3.697-6.474-7.903-11.836-13.663-17.625c-8.424-8.005-15.911-12.858-26.532-17.343c-11.795-4.582-21.34-6.46-33.949-6.53
			c-12.016,0.277-21.16,2.121-32.348,6.616c-10.908,4.745-18.596,9.87-27.158,18.274c-4.56,4.747-8.149,9.232-11.214,14.135v-2.656
			c2.85-4.278,6.151-8.299,10.207-12.526c8.708-8.553,16.524-13.764,27.62-18.596c11.369-4.571,20.669-6.445,32.881-6.729
			c12.811,0.067,22.511,1.979,34.494,6.633c10.809,4.562,18.424,9.504,26.997,17.65c0.861,0.844,1.699,1.699,2.525,2.579
			C182.626,99.956,185.84,104.118,188.676,108.743L188.676,108.743z M43.812,201.851v-2.647c3.821,6.379,8.191,11.836,14.011,17.685
			c9.237,8.78,17.443,14.112,29.088,19.03c12.836,4.986,23.221,7.046,36.938,7.124c13.076-0.301,23.036-2.291,35.208-7.179
			c11.877-5.167,20.258-10.727,29.575-19.868l0.044-0.044v1.651c-9.119,8.836-17.459,14.321-29.154,19.431
			c-12.325,4.973-22.413,7.006-35.663,7.327c-13.9-0.061-24.427-2.135-37.439-7.175c-11.822-4.979-20.155-10.385-29.538-19.287
			C51.553,212.553,47.419,207.528,43.812,201.851L43.812,201.851z M188.676,85.217v0.935c-0.936-1.006-1.907-2.016-2.92-3.036
			c-13.838-13.041-17.161-12.85-31.617-21.119c12.687,5.007,21.903,11.275,32.037,20.669
			C187.037,83.521,187.869,84.371,188.676,85.217z"/>
	</g>
	<radialGradient id="SVGID_7_" cx="116.2441" cy="160.3105" r="105.8541" gradientUnits="userSpaceOnUse">
		<stop  offset="0" style="stop-color:#233B8F"/>
		<stop  offset="1" style="stop-color:#6B8FC9"/>
	</radialGradient>
	<path style="fill-rule:evenodd;clip-rule:evenodd;fill:url(#SVGID_7_);" d="M122.425,105.972c4.284,0.617,7.757,1.707,11.778,3.409
		c6.108,2.81,10.354,5.906,15.103,10.766c4.691,5.086,7.571,9.657,10.272,16.097c2.654,6.855,3.706,12.445,3.854,19.827
		c-0.049,6.119-0.886,10.763-3.016,16.482c-2.179,5.39-4.552,9.213-8.408,13.509c-3.918,4.123-7.444,6.718-12.538,9.153
		c-5.308,2.347-9.632,3.298-15.414,3.426c-5.797-0.056-10.141-0.963-15.492-3.244c-5.156-2.387-8.739-4.963-12.734-9.065
		c-3.955-4.294-6.391-8.132-8.663-13.559c-2.237-5.779-3.134-10.484-3.258-16.702c0.038-4.958,0.71-8.719,2.435-13.351
		c1.766-4.371,3.683-7.47,6.807-10.953c3.177-3.346,6.037-5.454,10.166-7.433c4.31-1.906,7.818-2.684,12.512-2.789
		c4.709,0.043,8.238,0.775,12.583,2.626c4.188,1.936,7.1,4.022,10.345,7.352c3.213,3.484,5.193,6.594,7.04,10.997
		c1.818,4.688,2.552,8.507,2.655,13.551c-0.027,3.787-0.535,6.653-1.85,10.192c-1.346,3.339-2.809,5.712-5.193,8.372
		c-2.426,2.563-4.615,4.18-7.771,5.694c-3.3,1.464-5.985,2.063-9.58,2.146c-3.607-0.029-6.313-0.586-9.644-2.001
		c-3.21-1.479-5.442-3.074-7.932-5.62c-2.462-2.665-3.983-5.045-5.401-8.413c-1.396-3.588-1.964-6.51-2.048-10.371
		c0.015-2.601,0.361-4.574,1.26-7.006c0.925-2.303,1.925-3.93,3.564-5.768c1.673-1.771,3.177-2.888,5.354-3.938
		c2.278-1.016,4.136-1.435,6.618-1.498c2.496,0.016,4.37,0.396,6.676,1.368c2.223,1.019,3.771,2.116,5.496,3.872
		c1.707,1.838,2.766,3.479,3.752,5.803c0.975,2.479,1.377,4.497,1.445,7.166c-0.003,1.408-0.186,2.479-0.666,3.796
		c-0.498,1.254-1.037,2.144-1.923,3.146c-0.91,0.973-1.73,1.591-2.916,2.171c-1.252,0.566-2.269,0.807-3.636,0.853
		c-1.379,0.001-2.417-0.194-3.695-0.715c-1.26-0.563-2.094-1.131-3.095-2.074c-0.655-0.632-0.754-0.676-0.111,0.109
		c0.909,1.051,1.815,1.708,3.05,2.327c1.32,0.606,2.401,0.848,3.852,0.893c1.454-0.003,2.546-0.229,3.893-0.795
		c1.291-0.59,2.184-1.229,3.186-2.252c0.981-1.061,1.583-2.007,2.148-3.351c0.553-1.421,0.773-2.577,0.805-4.108
		c-0.019-2.807-0.405-4.936-1.382-7.562c-1.005-2.485-2.099-4.239-3.88-6.219c-1.816-1.91-3.453-3.105-5.817-4.231
		c-2.474-1.088-4.486-1.524-7.181-1.578c-2.694,0.032-4.714,0.461-7.199,1.529c-2.382,1.111-4.029,2.304-5.872,4.207
		c-1.809,1.977-2.917,3.736-3.951,6.23c-1.011,2.64-1.411,4.786-1.458,7.623c0.047,4.111,0.62,7.227,2.066,11.063
		c1.481,3.623,3.087,6.187,5.696,9.067c2.657,2.773,5.05,4.515,8.497,6.144c3.601,1.572,6.533,2.202,10.449,2.271
		c3.918-0.057,6.849-0.685,10.459-2.246c3.458-1.621,5.853-3.36,8.524-6.132c2.623-2.879,4.233-5.444,5.73-9.073
		c1.464-3.845,2.042-6.966,2.103-11.094c-0.07-5.399-0.828-9.487-2.734-14.523c-1.951-4.75-4.061-8.111-7.488-11.885
		c-2.469-2.59-4.693-4.395-7.729-6.25c-1.132-0.669-2.222-1.24-3.414-1.786c-4.717-2.049-8.555-2.874-13.68-2.956
		c-5.123,0.081-8.964,0.903-13.68,2.951c-4.521,2.126-7.659,4.406-11.148,8.033c-3.43,3.771-5.543,7.137-7.496,11.886
		c-1.913,5.034-2.671,9.129-2.746,14.53c0.092,6.678,1.026,11.734,3.389,17.957c2.416,5.869,5.021,10.024,9.259,14.686
		c4.31,4.48,8.183,7.296,13.765,9.923c5.823,2.529,10.561,3.546,16.887,3.646c6.327-0.101,11.063-1.117,16.887-3.646
		c5.583-2.628,9.455-5.441,13.765-9.923c4.237-4.661,6.844-8.816,9.259-14.686c2.361-6.22,3.299-11.283,3.39-17.957
		c-0.112-7.949-1.226-13.973-4.04-21.38c-2.877-6.986-5.979-11.931-11.024-17.478c-5.13-5.331-9.734-8.679-16.379-11.803
		c-6.929-3.007-12.559-4.214-20.085-4.332c-7.522,0.122-13.156,1.331-20.079,4.342c-6.64,3.127-11.245,6.475-16.37,11.807
		c-5.039,5.546-8.141,10.492-11.011,17.475c-2.809,7.407-3.92,13.424-4.027,21.369c0.132,9.217,1.425,16.2,4.69,24.787
		c3.335,8.096,6.934,13.829,12.782,20.255c5.943,6.174,11.284,10.053,18.98,13.67c8.021,3.479,14.55,4.877,23.263,5.01
		c8.715-0.144,15.233-1.545,23.253-5.034c7.687-3.621,13.024-7.506,18.954-13.681c5.837-6.428,9.428-12.155,12.75-20.248
		c3.252-8.581,4.538-15.554,4.66-24.759c-0.154-10.476-1.624-18.41-5.34-28.17c-3.792-9.197-7.883-15.709-14.53-23.009
		c-6.753-7.012-12.816-11.413-21.562-15.519c-9.111-3.948-16.52-5.532-26.414-5.681c-9.891,0.165-17.293,1.759-26.395,5.722
		c-8.729,4.116-14.783,8.524-21.517,15.539c-6.625,7.299-10.702,13.81-14.473,22.998c-3.69,9.744-5.147,17.668-5.283,28.119
		c0.173,11.725,1.822,20.602,5.981,31.522c4.244,10.288,8.824,17.575,16.263,25.738c7.552,7.839,14.34,12.764,24.118,17.353
		c10.189,4.412,18.469,6.18,29.533,6.344c11.059-0.187,19.333-1.97,29.508-6.402c9.758-4.604,16.528-9.535,24.056-17.38
		c4.576-5.043,8.063-9.749,11.056-15.032v-11.975c-3.869,9.21-8.102,15.85-14.856,23.274c-7.009,7.286-13.314,11.862-22.396,16.139
		c-9.438,4.102-17.108,5.739-27.366,5.909c-10.254-0.156-17.926-1.805-27.372-5.896c-9.085-4.264-15.388-8.851-22.409-16.134
		c-6.938-7.61-11.201-14.407-15.166-24.001c-3.893-10.201-5.43-18.501-5.601-29.459c0.118-9.689,1.465-17.027,4.877-26.066
		c3.478-8.5,7.244-14.526,13.364-21.286c6.197-6.473,11.776-10.545,19.816-14.352c8.362-3.657,15.166-5.128,24.262-5.296
		c9.104,0.121,15.92,1.57,24.311,5.188c8.081,3.774,13.685,7.837,19.935,14.299c6.179,6.757,9.979,12.791,13.516,21.315
		c3.477,9.075,4.854,16.447,5.019,26.198c-0.094,8.482-1.263,14.912-4.24,22.828c-3.039,7.451-6.331,12.732-11.686,18.66
		c-5.426,5.68-10.311,9.256-17.354,12.599c-7.331,3.215-13.293,4.512-21.271,4.666c-7.989-0.1-13.964-1.362-21.33-4.529
		c-7.096-3.308-12.014-6.864-17.503-12.531c-5.429-5.927-8.769-11.219-11.877-18.698c-3.058-7.959-4.273-14.439-4.423-22.994
		c0.075-7.291,1.077-12.823,3.633-19.629c2.609-6.41,5.438-10.955,10.039-16.056c4.666-4.891,8.867-7.97,14.926-10.85
		c6.309-2.771,11.441-3.892,18.307-4.027C118.11,105.512,120.165,105.655,122.425,105.972L122.425,105.972z M188.676,111.732v12.059
		l-0.238-0.638c-4.399-10.749-9.131-18.373-16.854-26.917c-7.839-8.2-14.873-13.381-25.031-18.211
		c-10.599-4.655-19.202-6.57-30.724-6.814c-11.565,0.123-20.221,1.893-30.887,6.431c-10.301,4.755-17.477,9.851-25.466,18.006
		c-6.914,7.459-11.548,14.214-15.664,22.98v-8.065c3.442-6.287,7.458-11.785,12.827-17.7c8.322-8.67,15.801-14.118,26.586-19.206
		c11.244-4.896,20.385-6.867,32.604-7.072c12.228,0.183,21.373,2.135,32.632,7.011c10.81,5.073,18.304,10.511,26.653,19.175
		C180.86,99.077,185.063,104.909,188.676,111.732L188.676,111.732z M43.812,203.741v-5.521c4.333,9.754,9.313,17.334,16.802,25.745
		c8.85,9.396,16.851,15.271,28.417,20.815c12.053,5.336,21.875,7.452,35.026,7.717c10.472-0.095,18.521-1.468,28.47-4.846
		c2.274-0.813,4.437-1.681,6.644-2.669c11.643-5.467,19.728-11.315,28.713-20.642c0.268-0.293,0.531-0.586,0.793-0.878v2.012
		c-9.025,9.395-17.19,15.31-28.923,20.861c-11.665,5.094-21.272,7.286-33.647,7.701h-4.319c-12.267-0.395-21.836-2.596-33.46-7.622
		c-11.832-5.545-20.044-11.519-29.188-21.003c-3.424-3.694-6.265-7.233-9.15-11.382C47.609,210.508,45.613,207.194,43.812,203.741
		L43.812,203.741z M188.676,83.803v0.704c-0.916-1.081-1.867-2.167-2.858-3.266c-8.081-8.519-13.938-14.729,0.284-0.28
		C186.99,81.914,187.848,82.86,188.676,83.803z"/>
	<radialGradient id="SVGID_8_" cx="116.2441" cy="151.8652" r="108.5558" gradientUnits="userSpaceOnUse">
		<stop  offset="0" style="stop-color:#2D287F"/>
		<stop  offset="1" style="stop-color:#6B8FC9"/>
	</radialGradient>
	<path style="fill-rule:evenodd;clip-rule:evenodd;fill:url(#SVGID_8_);" d="M81.254,201.286c0.04,0.043,0.16,0.165,0.181,0.198
		c5.817,6.346,11.353,10.136,19.069,13.97c8.09,3.601,14.702,5.001,23.553,5.211c8.839-0.084,15.47-1.51,23.641-5.004
		c7.831-3.637,13.264-7.582,19.329-13.835c5.965-6.506,9.628-12.336,13.044-20.559c3.346-8.72,4.663-15.818,4.822-25.197
		c-0.117-10.65-1.607-18.725-5.353-28.67c-3.831-9.381-7.993-16.02-14.745-23.481c-6.869-7.177-13.057-11.674-21.973-15.894
		c-9.303-4.063-16.873-5.688-26.994-5.869c-10.118,0.143-17.697,1.769-27.022,5.799c-8.938,4.189-15.142,8.695-22.05,15.858
		c-6.793,7.449-10.971,14.105-14.848,23.499c-3.797,9.958-5.295,18.063-5.455,28.758c0.152,11.968,1.832,21.039,6.059,32.2
		c4.321,10.528,8.995,17.976,16.589,26.343c7.72,8.041,14.666,13.086,24.676,17.805c10.438,4.542,18.933,6.361,30.28,6.549
		c11.344-0.172,19.841-2,30.288-6.531c10.015-4.705,16.962-9.76,24.696-17.795c3.851-4.232,6.95-8.233,9.635-12.521v-2.872
		c-2.914,5.007-6.307,9.528-10.69,14.356c-7.581,7.895-14.396,12.856-24.22,17.487c-10.247,4.458-18.575,6.254-29.709,6.438
		c-11.137-0.169-19.476-1.949-29.728-6.395c-9.842-4.623-16.669-9.574-24.267-17.466c-7.482-8.217-12.09-15.544-16.355-25.895
		c-4.18-10.985-5.842-19.916-6.012-31.704c0.14-10.521,1.604-18.492,5.32-28.298c3.8-9.25,7.897-15.8,14.568-23.146
		c6.783-7.063,12.875-11.503,21.663-15.645c9.17-3.988,16.621-5.598,26.581-5.762c9.967,0.152,17.428,1.741,26.601,5.719
		c8.805,4.137,14.915,8.564,21.71,15.623c6.691,7.352,10.814,13.901,14.629,23.158c3.736,9.825,5.229,17.812,5.378,28.35
		c-0.125,9.273-1.411,16.306-4.688,24.942c-3.352,8.154-6.963,13.938-12.843,20.408c-5.984,6.225-11.36,10.155-19.106,13.799
		c-8.093,3.512-14.674,4.952-23.451,5.086c-8.802-0.153-15.393-1.524-23.469-5.044c-7.712-3.726-13.275-7.543-19.15-13.779
		C81.389,201.447,81.252,201.285,81.254,201.286L81.254,201.286z M188.676,107.426v3.156c-3.526-6.49-7.636-12.127-13.167-18.202
		c-8.399-8.724-15.944-14.2-26.823-19.311c-11.334-4.912-20.547-6.884-32.857-7.071c-12.307,0.203-21.513,2.185-32.839,7.111
		C72.125,78.23,64.593,83.712,56.21,92.44c-5.14,5.658-9.047,10.936-12.398,16.875v-3.159c3.138-5.188,6.69-9.848,11.247-14.847
		c8.545-8.889,16.221-14.479,27.29-19.688c11.548-5.017,20.938-7.041,33.479-7.24c12.548,0.198,21.943,2.207,33.489,7.222
		c11.076,5.211,18.765,10.789,27.312,19.679C181.565,96.711,185.39,101.796,188.676,107.426L188.676,107.426z M43.812,208.435V205.1
		c3.961,7.462,8.571,13.856,14.863,20.769c9.201,9.558,17.47,15.568,29.385,21.165c8.682,3.764,16.229,5.955,24.594,7.004h-9.088
		c-5.256-1.255-10.462-3.055-16.146-5.517c-12.122-5.689-20.53-11.801-29.896-21.522C51.854,220.773,47.526,214.958,43.812,208.435
		L43.812,208.435z M144.415,254.037h-9.037c8.396-1.05,15.962-3.245,24.664-7.03c11.595-5.464,19.733-11.3,28.634-20.431v2.216
		c-8.624,8.657-16.697,14.337-28.006,19.674C154.949,250.959,149.711,252.775,144.415,254.037L144.415,254.037z M188.676,79.916
		c-0.235-0.261-0.472-0.521-0.711-0.784c-10.166-10.527-19.285-17.156-32.432-23.304c-6.432-2.774-12.297-4.773-18.246-6.134h-6.833
		c4.199,0.659,8.379,1.626,12.948,2.963c4.059,1.257,7.724,2.642,11.611,4.379c12.961,6.092,21.949,12.655,31.967,23.063
		c0.578,0.635,1.143,1.266,1.695,1.894V79.916L188.676,79.916z M94.737,49.694c-6.063,1.378-12.017,3.415-18.55,6.279
		c-13.101,6.226-22.193,12.824-32.265,23.384l-0.111,0.124v1.361c0.252-0.281,0.506-0.563,0.763-0.845
		c10.02-10.406,19.052-16.915,32.043-23.026c8.623-3.742,16.223-6.042,24.412-7.277H94.737z"/>
	<g>
		<linearGradient id="SVGID_9_" gradientUnits="userSpaceOnUse" x1="172.9248" y1="235.6602" x2="176.4458" y2="260.713">
			<stop  offset="0" style="stop-color:#FCF6AC"/>
			<stop  offset="1" style="stop-color:#F9F188"/>
		</linearGradient>
		<path style="fill-rule:evenodd;clip-rule:evenodd;fill:url(#SVGID_9_);" d="M170.66,222.419
			c14.448-1.635,11.045,2.105,12.284,4.476c2.794,5.345-2.578,17.363-9.028,30.481C173.303,252.6,146.807,225.118,170.66,222.419z"
			/>
		<linearGradient id="SVGID_10_" gradientUnits="userSpaceOnUse" x1="171.8076" y1="237.9521" x2="169.4607" y2="257.0666">
			<stop  offset="0" style="stop-color:#FFDD82"/>
			<stop  offset="1" style="stop-color:#F9F185"/>
		</linearGradient>
		<path style="fill-rule:evenodd;clip-rule:evenodd;fill:url(#SVGID_10_);" d="M166.307,232.578l-0.637-2.179
			c0,0-3.592-6.985,5.594-7.706c9.187-0.72,9.118,3.685,8.334,5.818s-0.081,4.699,0.618,5.765c0.699,1.066-1.01-1.373-2.3-2.143
			c-1.289-0.769-0.096,5.352,0.834,6.632s-2.107-3.62-3.069-2.878c-0.963,0.743,1.435,6.399,1.104,7.821s-0.999-3.524-1.726-1.427
			s-2.715,9.487-2.715,9.487s2.056-11.795,0.537-10.562s-4.674,6.347-4.674,6.347s4.744-11.109,2.944-9.273
			c-1.799,1.837-5.217,3.968-5.217,3.968s6.553-7.731,4.792-6.777s-4.944,2.581-4.944,2.581s4.105-3.346,3.176-4.625
			c-0.93-1.28,0.421,1.311-2.741,3.067C163.057,238.251,166.942,234.756,166.307,232.578z"/>
		<linearGradient id="SVGID_11_" gradientUnits="userSpaceOnUse" x1="163.6641" y1="183.2891" x2="177.1765" y2="252.8044">
			<stop  offset="0" style="stop-color:#F48885"/>
			<stop  offset="1" style="stop-color:#FFDD82"/>
		</linearGradient>
		<path style="fill-rule:evenodd;clip-rule:evenodd;fill:url(#SVGID_11_);" d="M176.787,229.739
			c-0.155-0.058-2.584,0.282-0.561-1.929c6.282-6.861-8.682-5.029-9.984-2.362c-0.744,1.523,0.93,4.403,2.85,5.268
			c-1.491-1.565-3.879-4.632-1.01-6.015c5.673-2.735,11.115-0.46,8.213,1.878C175.273,227.401,174.123,230.017,176.787,229.739z"/>
	</g>
	<path style="fill-rule:evenodd;clip-rule:evenodd;fill:#003333;" d="M204.446,195.787c-1.933,13.107-10.151,24.302-22.114,29.643
		c-3.341-0.959-6.854-1.3-10.91-0.791c-4.056,0.508-7.734,1.77-10.735,3.523c-12.911-2.223-23.28-11.106-28.388-23.331
		L204.446,195.787z"/>
	<path style="fill-rule:evenodd;clip-rule:evenodd;fill:#FFFFFF;" d="M204.121,195.828c-1.932,13.107-9.808,24.113-21.771,29.454
		c-3.341-0.96-7.197-1.111-11.252-0.604c-4.057,0.509-7.735,1.771-10.736,3.524c-12.911-2.223-23.279-11.106-28.387-23.332
		L204.121,195.828z"/>
	<radialGradient id="SVGID_12_" cx="171.6992" cy="228.3652" r="9.6314" gradientUnits="userSpaceOnUse">
		<stop  offset="0" style="stop-color:#95CBCC"/>
		<stop  offset="1" style="stop-color:#1D5F60"/>
	</radialGradient>
	<path style="fill-rule:evenodd;clip-rule:evenodd;fill:url(#SVGID_12_);" d="M204.75,195.584
		c-1.932,13.107-10.437,24.357-22.4,29.698c-3.341-0.96-7.217-1.274-11.272-0.766c-4.056,0.508-7.735,1.77-10.735,3.524
		c-12.912-2.223-23.931-11.025-29.038-23.25L204.75,195.584z"/>
	<path style="fill-rule:evenodd;clip-rule:evenodd;fill:#FFFFFF;" d="M167.779,203.481c21.394-2.682,41.048-6.159,41.584-1.881
		c0.537,4.279,2.357,13.895-39,19.078c-41.357,5.185-42.787-4.306-43.324-8.584C126.504,207.816,146.387,206.163,167.779,203.481z"
		/>
	<linearGradient id="SVGID_13_" gradientUnits="userSpaceOnUse" x1="132.2725" y1="215.5498" x2="206.462" y2="207.7522">
		<stop  offset="0" style="stop-color:#000002"/>
		<stop  offset="0.51" style="stop-color:#1D5F60"/>
		<stop  offset="1" style="stop-color:#000002"/>
	</linearGradient>
	<path style="fill-rule:evenodd;clip-rule:evenodd;fill:url(#SVGID_13_);" d="M167.758,203.31
		c21.393-2.682,41.069-5.987,41.605-1.709c0.537,4.279,2.336,13.722-39.021,18.906s-42.787-4.306-43.324-8.584
		C126.481,207.645,146.365,205.991,167.758,203.31z"/>
	<linearGradient id="SVGID_14_" gradientUnits="userSpaceOnUse" x1="86.0332" y1="210.041" x2="248.9104" y2="192.9219">
		<stop  offset="0" style="stop-color:#95CBCC"/>
		<stop  offset="0.25" style="stop-color:#5E9696"/>
		<stop  offset="0.55" style="stop-color:#288988"/>
		<stop  offset="0.9" style="stop-color:#021313"/>
		<stop  offset="1" style="stop-color:#95CBCC"/>
	</linearGradient>
	<path style="fill-rule:evenodd;clip-rule:evenodd;fill:url(#SVGID_14_);" d="M165.579,185.926
		c39.6-4.964,76.023-11.083,77.016-3.163c0.993,7.921,4.325,25.4-72.233,34.997c-76.557,9.597-79.204-7.97-80.197-15.89
		C89.172,193.949,125.979,190.89,165.579,185.926z"/>
	
		<radialGradient id="SVGID_15_" cx="111.4863" cy="192.6758" r="131.7112" fx="242.4874" fy="206.3341" gradientUnits="userSpaceOnUse">
		<stop  offset="0" style="stop-color:#FFFFFF"/>
		<stop  offset="0.4872" style="stop-color:#95CBCC"/>
		<stop  offset="1" style="stop-color:#021313"/>
	</radialGradient>
	<path style="fill-rule:evenodd;clip-rule:evenodd;fill:url(#SVGID_15_);" d="M164.469,177.073
		c42.093-5.276,77.071-2.729,78.126,5.689c1.056,8.419-32.212,19.521-74.304,24.797c-42.093,5.275-77.071,2.729-78.127-5.689
		C89.109,193.451,122.377,182.35,164.469,177.073z"/>
	<radialGradient id="SVGID_16_" cx="127.1523" cy="194.2803" r="71.197" gradientUnits="userSpaceOnUse">
		<stop  offset="0" style="stop-color:#FFFFFF"/>
		<stop  offset="1" style="stop-color:#288988"/>
	</radialGradient>
	
		<path style="fill-rule:evenodd;clip-rule:evenodd;fill:url(#SVGID_16_);stroke:#99CCCC;stroke-width:0.216;stroke-miterlimit:2.6131;" d="
		M164.891,180.434c32.814-4.113,60.082-2.128,60.904,4.436c0.822,6.563-25.111,15.217-57.926,19.33s-60.082,2.127-60.905-4.436
		C106.142,193.201,132.076,184.547,164.891,180.434z"/>
	
		<ellipse transform="matrix(-0.1244 -0.9922 0.9922 -0.1244 -1.2576 377.6577)" style="fill-rule:evenodd;clip-rule:evenodd;fill:#669999;stroke:#99CCCC;stroke-width:0.216;stroke-miterlimit:2.6131;" cx="166.012" cy="189.384" rx="7.951" ry="39.758"/>
	<path style="fill-rule:evenodd;clip-rule:evenodd;fill:#1E1438;" d="M160.396,144.578c0.319-0.04,0.64-0.074,0.959-0.104
		c0.1-0.01,0.198-0.016,0.298-0.023c0.218-0.018,0.435-0.035,0.651-0.049c0.131-0.008,0.261-0.013,0.391-0.019
		c0.188-0.009,0.374-0.018,0.561-0.023c0.139-0.004,0.277-0.005,0.416-0.007c0.179-0.002,0.357-0.005,0.536-0.004
		c0.138,0,0.275,0.004,0.413,0.006c0.179,0.003,0.357,0.007,0.535,0.013c0.143,0.006,0.286,0.013,0.429,0.021
		c0.171,0.008,0.341,0.018,0.512,0.028c0.144,0.01,0.287,0.021,0.431,0.033c0.173,0.014,0.346,0.029,0.518,0.047
		c0.14,0.014,0.28,0.029,0.42,0.045c0.172,0.02,0.345,0.04,0.517,0.063c0.142,0.019,0.283,0.038,0.424,0.059
		c0.17,0.024,0.34,0.051,0.509,0.079c0.142,0.022,0.283,0.046,0.424,0.071c0.169,0.029,0.338,0.062,0.506,0.095
		c0.141,0.027,0.281,0.054,0.42,0.083c0.172,0.036,0.344,0.075,0.516,0.113c0.135,0.031,0.27,0.061,0.404,0.093
		c0.173,0.042,0.346,0.087,0.518,0.131c0.134,0.035,0.269,0.068,0.401,0.105c0.186,0.05,0.37,0.104,0.555,0.158
		c0.116,0.033,0.232,0.065,0.348,0.101c0.208,0.063,0.415,0.131,0.622,0.198c0.097,0.031,0.192,0.061,0.288,0.093
		c0.296,0.099,0.591,0.203,0.884,0.311c0.105,0.039,0.209,0.081,0.313,0.12c0.194,0.074,0.389,0.147,0.582,0.225
		c0.121,0.049,0.241,0.101,0.362,0.15c0.174,0.072,0.347,0.143,0.519,0.218c0.135,0.058,0.269,0.12,0.403,0.18
		c0.157,0.071,0.314,0.141,0.472,0.214c0.14,0.065,0.278,0.133,0.417,0.2c0.15,0.072,0.3,0.145,0.449,0.219
		c0.142,0.071,0.282,0.144,0.423,0.217c0.146,0.075,0.292,0.151,0.438,0.229c0.142,0.075,0.283,0.152,0.424,0.23
		c0.145,0.079,0.288,0.159,0.432,0.241c0.138,0.078,0.274,0.157,0.411,0.237c0.145,0.085,0.29,0.17,0.434,0.257
		c0.139,0.084,0.277,0.169,0.416,0.255c0.138,0.085,0.275,0.172,0.412,0.26c0.141,0.09,0.281,0.181,0.422,0.272
		c0.137,0.09,0.271,0.181,0.407,0.271c0.138,0.093,0.275,0.186,0.412,0.28s0.272,0.191,0.407,0.288
		c0.137,0.096,0.271,0.192,0.407,0.291c0.133,0.097,0.265,0.196,0.396,0.295c0.136,0.102,0.271,0.202,0.406,0.306
		c0.13,0.101,0.26,0.203,0.39,0.305c0.135,0.106,0.271,0.213,0.405,0.321c0.122,0.098,0.243,0.199,0.364,0.3
		c0.14,0.115,0.279,0.229,0.418,0.347c0.117,0.098,0.231,0.2,0.348,0.3c0.544,0.472,1.081,0.958,1.609,1.462
		c0.097,0.093,0.195,0.185,0.293,0.279c0.136,0.132,0.27,0.267,0.404,0.4c0.11,0.11,0.221,0.219,0.33,0.33
		c0.133,0.134,0.264,0.271,0.395,0.407c0.111,0.115,0.223,0.229,0.332,0.347c0.129,0.137,0.257,0.276,0.385,0.415
		c0.107,0.117,0.215,0.233,0.322,0.353c0.132,0.146,0.262,0.294,0.393,0.441c0.101,0.115,0.201,0.23,0.303,0.346
		c0.13,0.151,0.259,0.304,0.388,0.456c0.1,0.118,0.198,0.236,0.297,0.355c0.128,0.154,0.255,0.31,0.381,0.467
		c0.097,0.119,0.192,0.238,0.288,0.358c0.127,0.162,0.254,0.324,0.381,0.488c0.093,0.119,0.185,0.24,0.276,0.361
		c0.123,0.162,0.245,0.324,0.367,0.488c0.093,0.126,0.185,0.253,0.277,0.379c0.123,0.17,0.245,0.339,0.367,0.51
		c0.085,0.121,0.169,0.242,0.253,0.363c0.122,0.175,0.245,0.351,0.365,0.528c0.084,0.124,0.166,0.249,0.25,0.374
		c0.121,0.182,0.241,0.362,0.36,0.545c0.073,0.112,0.144,0.226,0.216,0.339c0.127,0.198,0.255,0.397,0.381,0.6
		c0.057,0.092,0.112,0.185,0.169,0.277c0.136,0.222,0.271,0.442,0.405,0.667l0.056,0.096c0.483,0.817,0.948,1.654,1.397,2.508
		c0.05,0.096,0.102,0.191,0.151,0.287c0.116,0.225,0.229,0.451,0.344,0.678c0.056,0.111,0.112,0.222,0.167,0.333
		c0.11,0.222,0.217,0.445,0.324,0.67c0.058,0.119,0.115,0.238,0.172,0.358c0.101,0.214,0.199,0.43,0.297,0.646
		c0.063,0.137,0.126,0.274,0.188,0.412c0.093,0.207,0.184,0.417,0.274,0.626c0.063,0.144,0.124,0.287,0.187,0.433
		c0.09,0.213,0.179,0.427,0.268,0.642c0.059,0.143,0.116,0.285,0.174,0.429c0.086,0.214,0.171,0.429,0.255,0.645
		c0.059,0.15,0.116,0.301,0.174,0.452c0.082,0.215,0.163,0.432,0.242,0.648c0.055,0.147,0.108,0.297,0.162,0.445
		c0.079,0.223,0.159,0.446,0.236,0.67c0.05,0.145,0.099,0.289,0.147,0.435c0.078,0.229,0.155,0.46,0.23,0.691
		c0.047,0.144,0.092,0.287,0.138,0.432c0.074,0.235,0.149,0.471,0.222,0.708c0.042,0.138,0.082,0.277,0.123,0.415
		c0.072,0.245,0.146,0.49,0.216,0.737c0.036,0.127,0.07,0.255,0.105,0.383c0.072,0.26,0.145,0.52,0.214,0.781
		c0.025,0.098,0.049,0.195,0.074,0.293c0.272,1.051,0.521,2.114,0.744,3.193c-1.507,4.089-17.356,9.116-37.079,11.588
		c-19.723,2.473-36.323,1.513-38.792-2.077c-0.051-1.101-0.072-2.193-0.067-3.278c0-0.101-0.001-0.202,0-0.303
		c0.003-0.271,0.009-0.54,0.015-0.81c0.002-0.133,0.004-0.265,0.008-0.397c0.007-0.256,0.017-0.512,0.027-0.768
		c0.006-0.144,0.01-0.289,0.017-0.433c0.011-0.247,0.025-0.494,0.04-0.741c0.008-0.15,0.017-0.302,0.026-0.451
		c0.016-0.244,0.034-0.485,0.053-0.728c0.012-0.152,0.023-0.305,0.036-0.457c0.02-0.236,0.041-0.473,0.064-0.708
		c0.014-0.157,0.029-0.314,0.045-0.472c0.024-0.229,0.049-0.459,0.076-0.688c0.018-0.16,0.037-0.32,0.057-0.48
		c0.027-0.229,0.057-0.459,0.088-0.688c0.02-0.153,0.041-0.306,0.063-0.458c0.032-0.23,0.066-0.46,0.101-0.688
		c0.024-0.155,0.05-0.311,0.074-0.465c0.036-0.226,0.073-0.451,0.111-0.675c0.025-0.149,0.053-0.297,0.079-0.445
		c0.043-0.233,0.085-0.467,0.129-0.698c0.025-0.131,0.053-0.261,0.078-0.391c0.049-0.243,0.098-0.487,0.148-0.729
		c0.026-0.122,0.054-0.242,0.08-0.364c0.055-0.247,0.109-0.495,0.166-0.741c0.025-0.105,0.051-0.211,0.076-0.316
		c0.225-0.938,0.469-1.863,0.735-2.774l0.03-0.106c0.074-0.25,0.15-0.498,0.228-0.746c0.032-0.104,0.063-0.209,0.096-0.312
		c0.071-0.227,0.146-0.45,0.221-0.675c0.042-0.127,0.083-0.255,0.126-0.382c0.069-0.206,0.143-0.411,0.215-0.616
		c0.05-0.142,0.099-0.283,0.149-0.424c0.073-0.202,0.148-0.402,0.224-0.604c0.052-0.138,0.104-0.275,0.156-0.413
		c0.075-0.196,0.152-0.391,0.229-0.585c0.058-0.146,0.116-0.291,0.175-0.436c0.078-0.189,0.156-0.377,0.235-0.564
		c0.06-0.141,0.118-0.279,0.179-0.419c0.082-0.189,0.166-0.378,0.25-0.565c0.063-0.141,0.125-0.28,0.189-0.42
		c0.084-0.183,0.168-0.364,0.254-0.546c0.065-0.14,0.133-0.278,0.2-0.417c0.087-0.181,0.175-0.359,0.264-0.538
		c0.068-0.138,0.138-0.273,0.208-0.409c0.09-0.176,0.179-0.352,0.271-0.525c0.074-0.142,0.15-0.281,0.226-0.421
		c0.09-0.167,0.18-0.333,0.271-0.498c0.077-0.14,0.157-0.278,0.236-0.417c0.093-0.165,0.186-0.33,0.281-0.493
		c0.078-0.134,0.159-0.267,0.238-0.4c0.098-0.163,0.194-0.327,0.294-0.488c0.07-0.115,0.144-0.229,0.215-0.343
		c0.388-0.618,0.787-1.223,1.198-1.814c0.088-0.125,0.174-0.252,0.263-0.376c0.104-0.147,0.213-0.293,0.319-0.438
		c0.093-0.127,0.185-0.256,0.279-0.381c0.104-0.139,0.209-0.274,0.313-0.411c0.101-0.131,0.201-0.262,0.303-0.392
		c0.104-0.134,0.212-0.265,0.318-0.396c0.104-0.129,0.206-0.257,0.312-0.384c0.106-0.129,0.214-0.255,0.321-0.383
		c0.108-0.127,0.216-0.254,0.324-0.379c0.109-0.126,0.22-0.25,0.33-0.373c0.109-0.122,0.218-0.244,0.328-0.364
		c0.112-0.124,0.227-0.246,0.342-0.368c0.11-0.119,0.223-0.236,0.335-0.354s0.226-0.233,0.34-0.35
		c0.118-0.119,0.237-0.238,0.356-0.356c0.113-0.111,0.227-0.222,0.34-0.331c0.119-0.114,0.239-0.228,0.359-0.34
		c0.117-0.11,0.234-0.22,0.354-0.328c0.122-0.111,0.245-0.221,0.368-0.33c0.118-0.105,0.236-0.211,0.356-0.313
		c0.126-0.109,0.254-0.217,0.381-0.323c0.118-0.1,0.235-0.199,0.354-0.297c0.134-0.109,0.27-0.216,0.405-0.323
		c0.115-0.092,0.229-0.185,0.346-0.274c0.148-0.115,0.299-0.227,0.449-0.339c0.104-0.078,0.208-0.158,0.313-0.234
		c0.168-0.123,0.339-0.242,0.509-0.361c0.092-0.064,0.182-0.131,0.273-0.194c0.258-0.177,0.519-0.351,0.78-0.52
		c0.085-0.055,0.171-0.106,0.256-0.16c0.185-0.117,0.368-0.233,0.554-0.347c0.104-0.063,0.209-0.122,0.313-0.184
		c0.166-0.098,0.331-0.195,0.498-0.29c0.121-0.068,0.242-0.134,0.364-0.2c0.155-0.086,0.312-0.172,0.469-0.255
		c0.122-0.064,0.246-0.126,0.369-0.189c0.156-0.08,0.313-0.16,0.471-0.237c0.128-0.063,0.258-0.123,0.388-0.185
		c0.154-0.073,0.31-0.146,0.466-0.217c0.131-0.059,0.262-0.116,0.394-0.173c0.157-0.069,0.314-0.137,0.473-0.202
		c0.133-0.055,0.265-0.108,0.396-0.161c0.162-0.064,0.323-0.127,0.485-0.188c0.132-0.051,0.264-0.1,0.396-0.147
		c0.162-0.06,0.325-0.116,0.489-0.173c0.137-0.047,0.273-0.094,0.41-0.139c0.162-0.053,0.325-0.104,0.488-0.154
		c0.137-0.042,0.273-0.084,0.41-0.125c0.171-0.05,0.344-0.097,0.516-0.145c0.133-0.036,0.266-0.073,0.398-0.107
		c0.173-0.046,0.348-0.087,0.521-0.128c0.135-0.033,0.269-0.066,0.404-0.097c0.182-0.041,0.365-0.078,0.549-0.116
		c0.128-0.025,0.255-0.054,0.383-0.078c0.214-0.041,0.429-0.077,0.645-0.113c0.098-0.017,0.195-0.035,0.294-0.051
		C159.757,144.663,160.076,144.619,160.396,144.578z"/>
	<path style="fill-rule:evenodd;clip-rule:evenodd;fill:#FFFFFF;" d="M163.913,172.64c17.743-2.225,32.367-0.905,37.04,1.843
		c0.759,2.896,2.428,7.394,2.69,8.605c0.528,4.213-15.525,8.886-36.59,11.526s-38.515,2.011-39.042-2.202
		c-0.067-0.533,0.397-7.471,0.441-8.672C131.613,179.824,145.517,174.945,163.913,172.64z"/>
	<radialGradient id="SVGID_17_" cx="168.877" cy="195.8613" r="28.6136" gradientUnits="userSpaceOnUse">
		<stop  offset="0" style="stop-color:#002020"/>
		<stop  offset="1" style="stop-color:#5E9696"/>
	</radialGradient>
	<path style="fill-rule:evenodd;clip-rule:evenodd;fill:url(#SVGID_17_);" d="M163.934,172.802
		c17.743-2.224,32.347-1.067,37.02,1.681c1.159,2.873,2.619,7.546,2.711,8.768c0.527,4.213-15.525,8.887-36.59,11.527
		c-21.064,2.64-38.515,2.011-39.043-2.202c-0.066-0.534,0.378-7.634,0.422-8.835C131.613,179.824,145.537,175.107,163.934,172.802z"
		/>
	<linearGradient id="SVGID_18_" gradientUnits="userSpaceOnUse" x1="163.1992" y1="166.3848" x2="168.3261" y2="208.1395">
		<stop  offset="0" style="stop-color:#5E9696"/>
		<stop  offset="1" style="stop-color:#002020"/>
	</linearGradient>
	<path style="fill-rule:evenodd;clip-rule:evenodd;fill:url(#SVGID_18_);" d="M164.73,179.162
		c17.744-2.225,33.735-0.693,38.408,2.055c0.758,2.896,0.38,1.475,0.643,2.686c0.528,4.213-14.97,7.936-36.034,10.575
		c-21.065,2.641-39.186,2.726-39.714-1.487c-0.066-0.533-0.053-1.562-0.009-2.762C131.185,186.312,146.334,181.468,164.73,179.162z"
		/>
	<linearGradient id="SVGID_19_" gradientUnits="userSpaceOnUse" x1="167.415" y1="200.7139" x2="168.7055" y2="211.2234">
		<stop  offset="0" style="stop-color:#002020"/>
		<stop  offset="1" style="stop-color:#000002"/>
	</linearGradient>
	<path style="fill-rule:evenodd;clip-rule:evenodd;fill:url(#SVGID_19_);" d="M164.813,179.812
		c17.743-2.224,33.734-0.692,38.408,2.055c0.758,2.897,0.379,1.475,0.642,2.686c0.528,4.214-14.969,7.936-36.034,10.576
		c-21.064,2.64-39.186,2.726-39.713-1.487c-0.067-0.534-0.054-1.563-0.01-2.763C131.266,186.962,146.416,182.117,164.813,179.812z"
		/>
	<linearGradient id="SVGID_20_" gradientUnits="userSpaceOnUse" x1="174.293" y1="177.8018" x2="169.649" y2="176.5574">
		<stop  offset="0" style="stop-color:#2E6130"/>
		<stop  offset="1" style="stop-color:#84C661"/>
	</linearGradient>
	<path style="fill-rule:evenodd;clip-rule:evenodd;fill:url(#SVGID_20_);" d="M170.865,182.699
		c-0.128-0.195,5.836-4.945,4.567-6.481s-0.379-3.721,0.45-3.667c0.828,0.054,3.539-0.907,2.309,3.201
		C176.961,179.861,175.461,185.722,170.865,182.699z"/>
	<g>
		<linearGradient id="SVGID_21_" gradientUnits="userSpaceOnUse" x1="160.2979" y1="191.1309" x2="170.458" y2="186.1754">
			<stop  offset="0" style="stop-color:#84C661"/>
			<stop  offset="1" style="stop-color:#97CD78"/>
		</linearGradient>
		<path style="fill-rule:evenodd;clip-rule:evenodd;fill:url(#SVGID_21_);" d="M154.984,195.444c0,0,3.639-7.633,6.046-8.574
			c0.292-0.114,0.532-0.154,0.875-0.394c0.267-0.565,0.569-0.541,0.026-2.892c-0.543-2.352,2.193-1.432,2.193-1.432
			s0.38,2.681,1.341,3.624c0.378,0.045,1.109,0.112,1.411,0.203c3.266,0.982,5.463,7.288,5.463,7.288l-2.047,0.257
			c0.021-0.003-1.93-4.56-3.083-4.529c0.274,2.435,0.645,3.134,0.94,4.798l-6.832,0.856c0,0-0.373-2.222-0.441-3.275
			c-0.07-1.055-2.845,1.751-3.067,3.715C156.24,195.287,154.984,195.444,154.984,195.444z"/>
		<path style="fill-rule:evenodd;clip-rule:evenodd;fill:#7DC05C;" d="M170.845,193.456l-0.552,0.069c0,0-1.791-4.274-3.083-4.529
			c0.274,2.435,0.645,3.134,0.94,4.798l-0.773,0.097c-0.313-1.576-0.65-4.239-0.639-5.19S168.624,188.136,170.845,193.456z"/>
		<path style="fill-rule:evenodd;clip-rule:evenodd;fill:#7DC05C;" d="M161.701,194.602l-0.383,0.049c0,0-0.373-2.222-0.441-3.275
			c-0.07-1.055-2.845,1.751-3.067,3.715l-0.879,0.11c0.906-2.257,3.266-5.716,3.921-4.705
			C161.507,191.505,161.341,192.539,161.701,194.602z"/>
		<linearGradient id="SVGID_22_" gradientUnits="userSpaceOnUse" x1="161.3398" y1="185.9375" x2="165.2503" y2="199.5749">
			<stop  offset="0" style="stop-color:#2E6130"/>
			<stop  offset="1" style="stop-color:#84C661"/>
		</linearGradient>
		<path style="fill-rule:evenodd;clip-rule:evenodd;fill:url(#SVGID_22_);" d="M158.025,190.049
			c1.002-1.501,2.092-2.822,3.005-3.179c0.292-0.114,0.532-0.154,0.875-0.394c0.267-0.565,0.569-0.541,0.026-2.892
			c-0.543-2.352,2.193-1.432,2.193-1.432s0.148,2.405,1.108,3.349c0.061,0.095,0.274,0.343,0.566,0.326
			c-0.351,0.434-0.407,0.404-1.572,0.837s-4.325,1.381-5.339,2.494C158.646,189.426,158.345,189.733,158.025,190.049z"/>
		<path style="fill-rule:evenodd;clip-rule:evenodd;fill:#74E9F0;" d="M154.984,195.444c0,0,3.639-7.633,6.046-8.574
			c0.292-0.114,0.532-0.154,0.875-0.394c0.267-0.565,0.569-0.541,0.026-2.892c-0.282-1.225,0.324-1.562,0.97-1.604
			c-0.551,0.106-1.214,0.143-0.818,1.858c0.396,1.716,0.199,2.066-0.067,2.632c-0.342,0.239-0.469,0.257-0.76,0.371
			c-2.407,0.941-6.046,8.574-6.046,8.574L154.984,195.444L154.984,195.444z M161.48,194.63c-0.352-1.271-0.379-2.208-0.411-2.4
			c-0.103-0.622-0.198-0.937-0.192-0.854c0.036,0.591,0.441,3.275,0.441,3.275L161.48,194.63z"/>
		<linearGradient id="SVGID_23_" gradientUnits="userSpaceOnUse" x1="161.0176" y1="168.4785" x2="165.762" y2="167.2956">
			<stop  offset="0" style="stop-color:#84C661"/>
			<stop  offset="1" style="stop-color:#97CD78"/>
		</linearGradient>
		<path style="fill-rule:evenodd;clip-rule:evenodd;fill:url(#SVGID_23_);" d="M155.938,153.033L155.938,153.033
			c3.884-0.973,7.856,1.408,8.829,5.292c1.447,5.779,1.963,11.067,4.344,17.337c0.975,3.892-1.412,7.857-5.302,8.832
			c-3.883,0.973-7.847-1.411-8.819-5.294c-1.005-6.518-2.686-11.908-4.344-17.338C149.674,157.979,152.056,154.007,155.938,153.033z
			"/>
		<linearGradient id="SVGID_24_" gradientUnits="userSpaceOnUse" x1="170.1631" y1="165.9941" x2="144.7131" y2="172.8134">
			<stop  offset="0" style="stop-color:#A9D58F"/>
			<stop  offset="1" style="stop-color:#84C661"/>
		</linearGradient>
		<path style="fill-rule:evenodd;clip-rule:evenodd;fill:url(#SVGID_24_);" d="M155.938,153.033L155.938,153.033
			c-0.545,0.138-1.062,0.333-1.543,0.58c5.298-2.673,7.688,1.838,8.523,5.175c0.474,2.401,0.939,4.798,1.492,7.246
			c0.466,2.065,0.037,1.828,1.551,3.515c0.51,0.567,1.16,3.494,1.278,3.94c0.617,2.32,0.245,2.956,0.362,3.551
			c0.062,0.313,0.209,0.615,0.254,0.734c0.836,3.338-1.691,5.96-5.662,6.933c4.641-0.084,8.057-4.495,6.917-9.045
			c-2.186-6.221-3.245-11.768-4.344-17.337C163.794,154.442,159.82,152.061,155.938,153.033z"/>
		<path style="fill-rule:evenodd;clip-rule:evenodd;fill:#7DC05C;" d="M155.938,153.033L155.938,153.033
			c0.546-0.137,1.093-0.207,1.634-0.216c-2.943,1.508-4.584,4.912-3.748,8.249c0.715,2.341,1.434,4.674,2.101,7.093
			c0.563,2.042-0.499,1.964-1.04,4.165c-0.182,0.739,0.626,3.628,0.731,4.077c0.55,2.337,1.712,2.685,1.889,3.265
			c0.093,0.305,0.105,0.642,0.122,0.767c0.836,3.338,3.768,4.497,7.729,3.481c-4.133,2.114-9.225-0.165-10.365-4.714
			c-1.005-6.518-2.686-11.908-4.344-17.338C149.674,157.979,152.056,154.007,155.938,153.033z"/>
		<path style="fill-rule:evenodd;clip-rule:evenodd;fill:#3C682D;" d="M157.174,152.836c-1.631,0.525-3.381,1.244-4.881,3.951
			c-1.624,2.932-0.731,6.226,0.366,10.461c1.098,4.236,0.679,3.168,0.655,3.841c-0.816-3.197-1.745-6.206-2.668-9.227
			c-0.973-3.883,1.409-7.855,5.292-8.829l0,0C156.351,152.931,156.764,152.865,157.174,152.836z"/>
		<path style="fill-rule:evenodd;clip-rule:evenodd;fill:#61A53E;" d="M169.035,175.462c0.025,0.067,0.051,0.134,0.076,0.2
			c0.975,3.892-1.412,7.857-5.302,8.832c-3.883,0.973-7.847-1.411-8.819-5.294c-0.012-0.08-0.024-0.16-0.037-0.239
			c1.19,3.559,5.093,6.199,8.791,5.272C167.439,183.308,169.648,179.159,169.035,175.462z"/>
		<path style="fill-rule:evenodd;clip-rule:evenodd;fill:#74E9F0;" d="M156.168,152.98c-4.044,1.031-6.312,5.035-5.358,8.842
			c1.657,5.429,3.43,10.797,4.435,17.314c0.954,3.807,4.564,6.481,8.794,5.296c-3.94,1.123-8.052-1.259-9.048-5.232
			c-1.005-6.518-2.686-11.908-4.344-17.338C149.65,157.885,152.169,153.847,156.168,152.98z"/>
	</g>
	<linearGradient id="SVGID_25_" gradientUnits="userSpaceOnUse" x1="150.5381" y1="186.6504" x2="152.9975" y2="181.8235">
		<stop  offset="0" style="stop-color:#2E6130"/>
		<stop  offset="1" style="stop-color:#84C661"/>
	</linearGradient>
	<path style="fill-rule:evenodd;clip-rule:evenodd;fill:url(#SVGID_25_);" d="M158.439,183.485
		c-0.061-0.225-7.574,1.068-7.877-0.901c-0.304-1.969-2.526-2.758-3.038-2.103c-0.512,0.654-3.031,2.038,0.854,3.854
		C152.266,186.149,157.639,188.928,158.439,183.485z"/>
	<linearGradient id="SVGID_26_" gradientUnits="userSpaceOnUse" x1="162.5381" y1="173.7842" x2="165.984" y2="193.3268">
		<stop  offset="0" style="stop-color:#5E6029"/>
		<stop  offset="1" style="stop-color:#16160B"/>
	</linearGradient>
	<path style="fill-rule:evenodd;clip-rule:evenodd;fill:url(#SVGID_26_);" d="M163.073,172.776c5.139-0.644,9.799,2.03,11.444,5.157
		c0.482,2.932,1.229,7.438,1.415,8.659c0.528,4.213-3.889,7.428-9.989,8.192s-11.401-1.388-11.93-5.601
		c-0.066-0.533-0.667-7.402-0.759-8.586C153.861,177.002,157.745,173.444,163.073,172.776z"/>
	<radialGradient id="SVGID_27_" cx="166.3066" cy="189.2529" r="18.6364" gradientUnits="userSpaceOnUse">
		<stop  offset="0" style="stop-color:#272914"/>
		<stop  offset="0.6206" style="stop-color:#5E6029"/>
	</radialGradient>
	<path style="fill-rule:evenodd;clip-rule:evenodd;fill:url(#SVGID_27_);" d="M163.947,172.8c5.139-0.644,9.8,2.03,11.445,5.157
		c0.481,2.932,1.229,7.438,1.414,8.659c0.528,4.213-3.888,7.428-9.988,8.192c-6.102,0.766-11.402-1.387-11.93-5.601
		c-0.067-0.533-0.667-7.401-0.76-8.586C154.736,177.026,158.619,173.468,163.947,172.8z"/>
	<path style="fill-rule:evenodd;clip-rule:evenodd;fill:#999966;" d="M163.947,172.8c0.49-0.062,0.978-0.092,1.457-0.096
		c-0.338,0.015-0.679,0.042-1.021,0.085c-5.328,0.668-9.455,4.257-10.063,7.853c0.093,1.185,0.692,8.053,0.76,8.586
		c0.465,3.715,4.885,5.796,10.047,5.72c-5.361,0.205-9.76-1.921-10.238-5.739c-0.067-0.533-0.667-7.401-0.759-8.586
		C154.736,177.026,158.619,173.468,163.947,172.8z"/>
	<path style="fill-rule:evenodd;clip-rule:evenodd;fill:#FFFFFF;" d="M168.167,188.68c18.265-2.516,20.433,4.219,35.103-7.032
		c0.764,2.896,0.404,1.683,0.668,2.894c0.527,4.213-15.729,8.912-37.056,11.585c-21.326,2.673-38.288,2.138-38.816-2.075
		c-0.067-0.533-0.112-1.293-0.065-2.494C145.315,199.921,149.901,191.196,168.167,188.68z"/>
	<linearGradient id="SVGID_28_" gradientUnits="userSpaceOnUse" x1="127.5791" y1="196.1123" x2="204.5132" y2="186.666">
		<stop  offset="0" style="stop-color:#1D5F60"/>
		<stop  offset="0.38" style="stop-color:#95CBCC"/>
		<stop  offset="0.51" style="stop-color:#BDDEDE"/>
		<stop  offset="0.64" style="stop-color:#95CBCC"/>
		<stop  offset="1" style="stop-color:#1D5F60"/>
	</linearGradient>
	<path style="fill-rule:evenodd;clip-rule:evenodd;fill:url(#SVGID_28_);" d="M168.188,188.842
		c18.265-2.516,20.434,4.219,35.104-7.031c0.763,2.896,0.402,1.682,0.666,2.893c0.528,4.213-15.729,8.912-37.055,11.586
		c-21.327,2.673-38.289,2.138-38.816-2.075c-0.067-0.534-0.112-1.294-0.066-2.494C145.336,200.084,149.922,191.358,168.188,188.842z
		"/>
	<path style="fill-rule:evenodd;clip-rule:evenodd;fill:#669999;" d="M128.006,192.171l-37.754,9.677l37.809-8.038L128.006,192.171
		L128.006,192.171z M203.506,182.579l39.089,0.184l-38.736,1.418L203.506,182.579L203.506,182.579z M166.379,196.354l3.113-0.407
		l0.2,11.434L166.379,196.354z"/>
	<path style="fill-rule:evenodd;clip-rule:evenodd;fill:#E6E6E6;" d="M128.031,192.575l-37.867,9.295l37.922-7.656L128.031,192.575
		L128.031,192.575z M203.605,183.102l38.989-0.339l-38.638,1.94L203.605,183.102L203.605,183.102z M166.723,196.311l3.113-0.407
		l-0.144,11.478L166.723,196.311z"/>
	<g>
		<path style="fill-rule:evenodd;clip-rule:evenodd;fill:#D0E8E8;stroke:#FFFFFF;stroke-width:0.216;stroke-miterlimit:2.6131;" d="
			M217.786,191.891c1.587-0.198,2.886,0.382,2.835-0.019s-1.543-1.88-3.13-1.681c-1.587,0.198-2.668,2.001-2.618,2.401
			C214.924,192.993,216.199,192.09,217.786,191.891z"/>
		<path style="fill-rule:evenodd;clip-rule:evenodd;fill:#336666;" d="M217.751,192.262c1.587-0.199,2.831-0.703,2.874-0.36
			s-1.209,0.781-2.797,0.979c-1.587,0.199-2.908,0.083-2.951-0.26C214.834,192.279,216.164,192.46,217.751,192.262z"/>
		
			<ellipse transform="matrix(-0.1246 -0.9922 0.9922 -0.1246 54.1537 432.2414)" style="fill-rule:evenodd;clip-rule:evenodd;fill:#669999;" cx="217.747" cy="192.232" rx="0.595" ry="2.897"/>
	</g>
	<g>
		<path style="fill-rule:evenodd;clip-rule:evenodd;fill:#D0E8E8;stroke:#FFFFFF;stroke-width:0.216;stroke-miterlimit:2.6131;" d="
			M193.994,199.555c1.588-0.199,2.885,0.381,2.835-0.02s-1.542-1.88-3.13-1.681c-1.587,0.199-2.668,2.001-2.617,2.401
			C191.132,200.656,192.407,199.754,193.994,199.555z"/>
		<path style="fill-rule:evenodd;clip-rule:evenodd;fill:#336666;" d="M193.959,199.925c1.587-0.199,2.831-0.702,2.874-0.36
			c0.043,0.343-1.209,0.781-2.797,0.98c-1.587,0.199-2.908,0.082-2.951-0.26C191.042,199.942,192.371,200.124,193.959,199.925z"/>
		
			<ellipse transform="matrix(-0.1246 -0.9922 0.9922 -0.1246 19.793 417.2531)" style="fill-rule:evenodd;clip-rule:evenodd;fill:#669999;" cx="193.955" cy="199.896" rx="0.595" ry="2.897"/>
	</g>
	<g>
		<path style="fill-rule:evenodd;clip-rule:evenodd;fill:#D0E8E8;stroke:#FFFFFF;stroke-width:0.216;stroke-miterlimit:2.6131;" d="
			M116.896,204.537c-1.588,0.199-2.702,1.082-2.752,0.682c-0.051-0.4,1.03-2.203,2.617-2.401c1.588-0.199,3.08,1.28,3.13,1.681
			C119.942,204.898,118.483,204.339,116.896,204.537z"/>
		<path style="fill-rule:evenodd;clip-rule:evenodd;fill:#336666;" d="M117.021,204.888c-1.587,0.199-2.916,0.018-2.873,0.36
			c0.043,0.342,1.364,0.459,2.951,0.26s2.839-0.638,2.796-0.98S118.609,204.688,117.021,204.888z"/>
		
			<ellipse transform="matrix(-0.1238 -0.9923 0.9923 -0.1238 -71.7729 346.344)" style="fill-rule:evenodd;clip-rule:evenodd;fill:#669999;" cx="117.018" cy="204.858" rx="0.595" ry="2.896"/>
	</g>
	<g>
		<path style="fill-rule:evenodd;clip-rule:evenodd;fill:#D0E8E8;stroke:#FFFFFF;stroke-width:0.216;stroke-miterlimit:2.6131;" d="
			M141.844,206.092c-1.588,0.198-2.702,1.082-2.752,0.681c-0.051-0.4,1.031-2.202,2.618-2.401s3.079,1.28,3.13,1.682
			C144.89,206.453,143.431,205.893,141.844,206.092z"/>
		<path style="fill-rule:evenodd;clip-rule:evenodd;fill:#336666;" d="M141.969,206.441c-1.587,0.199-2.916,0.019-2.873,0.36
			c0.043,0.343,1.364,0.459,2.951,0.26s2.839-0.638,2.796-0.979C144.8,205.739,143.557,206.243,141.969,206.441z"/>
		
			<ellipse transform="matrix(-0.1246 -0.9922 0.9922 -0.1246 -45.143 372.9992)" style="fill-rule:evenodd;clip-rule:evenodd;fill:#669999;" cx="141.966" cy="206.413" rx="0.595" ry="2.896"/>
	</g>
	<g>
		<path style="fill-rule:evenodd;clip-rule:evenodd;fill:#D0E8E8;stroke:#FFFFFF;stroke-width:0.216;stroke-miterlimit:2.6131;" d="
			M213.066,179.287c1.49-0.187,2.709,0.358,2.661-0.018c-0.047-0.376-1.447-1.765-2.938-1.578c-1.49,0.188-2.505,1.879-2.458,2.255
			S211.577,179.475,213.066,179.287z"/>
		<path style="fill-rule:evenodd;clip-rule:evenodd;fill:#336666;" d="M213.033,179.636c1.49-0.188,2.658-0.66,2.698-0.339
			c0.04,0.322-1.135,0.734-2.625,0.92c-1.489,0.188-2.73,0.078-2.771-0.243S211.544,179.822,213.033,179.636z"/>
		
			<ellipse transform="matrix(-0.1241 -0.9923 0.9923 -0.1241 61.2578 413.2872)" style="fill-rule:evenodd;clip-rule:evenodd;fill:#669999;" cx="213.03" cy="179.608" rx="0.559" ry="2.718"/>
	</g>
	<g>
		<path style="fill-rule:evenodd;clip-rule:evenodd;fill:#D0E8E8;stroke:#FFFFFF;stroke-width:0.216;stroke-miterlimit:2.6131;" d="
			M118.358,191.159c-1.489,0.187-2.535,1.016-2.583,0.64c-0.047-0.376,0.968-2.067,2.458-2.254c1.489-0.188,2.891,1.201,2.938,1.577
			C121.219,191.498,119.849,190.973,118.358,191.159z"/>
		<path style="fill-rule:evenodd;clip-rule:evenodd;fill:#336666;" d="M118.477,191.488c-1.49,0.187-2.737,0.017-2.697,0.338
			s1.28,0.431,2.771,0.244c1.49-0.188,2.665-0.6,2.625-0.921S119.967,191.301,118.477,191.488z"/>
		
			<ellipse transform="matrix(-0.124 -0.9923 0.9923 -0.124 -56.814 332.7675)" style="fill-rule:evenodd;clip-rule:evenodd;fill:#669999;" cx="118.474" cy="191.461" rx="0.559" ry="2.719"/>
	</g>
	<path style="fill-rule:evenodd;clip-rule:evenodd;fill:#2B1F46;" d="M147.535,153.414c0,0-13.123,8.929-12.128,23.971
		c1.262-0.519,3.267-1.257,3.267-1.257S135.938,163.475,147.535,153.414z"/>
	<path style="fill-rule:evenodd;clip-rule:evenodd;fill:#2B1F46;" d="M174.169,150.076c0,0,14.922,5.413,17.671,20.235
		c-1.352-0.191-3.477-0.412-3.477-0.412S187.892,156.962,174.169,150.076z"/>
	<path style="fill-rule:evenodd;clip-rule:evenodd;fill:#2B1F46;" d="M128.273,194.447c-0.068-0.076-0.133-0.154-0.188-0.233
		c-0.051-1.101-0.072-2.193-0.067-3.278c0-0.101-0.001-0.202,0-0.303c0.003-0.271,0.009-0.54,0.015-0.81
		c0.002-0.133,0.004-0.265,0.008-0.397c0.007-0.256,0.017-0.512,0.027-0.768c0.006-0.144,0.01-0.289,0.017-0.433
		c0.011-0.247,0.025-0.494,0.04-0.741c0.008-0.15,0.017-0.302,0.026-0.451c0.016-0.244,0.034-0.485,0.053-0.728
		c0.012-0.152,0.023-0.305,0.036-0.457c0.02-0.236,0.041-0.473,0.064-0.708c0.014-0.157,0.029-0.314,0.045-0.472
		c0.024-0.229,0.049-0.459,0.076-0.688c0.018-0.16,0.037-0.32,0.057-0.48c0.027-0.229,0.057-0.459,0.088-0.688
		c0.02-0.153,0.041-0.306,0.063-0.458c0.032-0.23,0.066-0.46,0.101-0.688c0.024-0.155,0.05-0.311,0.074-0.465
		c0.036-0.226,0.073-0.451,0.111-0.675c0.025-0.149,0.053-0.297,0.079-0.445c0.043-0.233,0.085-0.467,0.129-0.698
		c0.025-0.131,0.053-0.261,0.078-0.391c0.049-0.243,0.098-0.487,0.148-0.729c0.026-0.122,0.054-0.242,0.08-0.364
		c0.055-0.247,0.109-0.495,0.166-0.741c0.025-0.105,0.051-0.211,0.076-0.316c0.225-0.938,0.469-1.863,0.735-2.774l0.03-0.106
		c0.074-0.25,0.15-0.498,0.228-0.746c0.032-0.104,0.063-0.209,0.096-0.312c0.071-0.227,0.146-0.45,0.221-0.675
		c0.042-0.127,0.083-0.255,0.126-0.382c0.069-0.206,0.143-0.411,0.215-0.616c0.05-0.142,0.099-0.283,0.149-0.424
		c0.073-0.202,0.148-0.402,0.224-0.604c0.052-0.138,0.104-0.275,0.156-0.413c0.075-0.196,0.152-0.391,0.229-0.585
		c0.058-0.146,0.116-0.291,0.175-0.436c0.078-0.189,0.156-0.377,0.235-0.564c0.06-0.141,0.118-0.279,0.179-0.419
		c0.082-0.189,0.166-0.378,0.25-0.565c0.063-0.141,0.125-0.28,0.189-0.42c0.084-0.183,0.168-0.364,0.254-0.546
		c0.065-0.14,0.133-0.278,0.2-0.417c0.087-0.181,0.175-0.359,0.264-0.538c0.068-0.138,0.138-0.273,0.208-0.409
		c0.09-0.176,0.179-0.352,0.271-0.525c0.074-0.142,0.15-0.281,0.226-0.421c0.09-0.167,0.18-0.333,0.271-0.498
		c0.077-0.14,0.157-0.278,0.236-0.417c0.093-0.165,0.186-0.33,0.281-0.493c0.078-0.134,0.159-0.267,0.238-0.4
		c0.098-0.163,0.194-0.327,0.294-0.488c0.07-0.115,0.144-0.229,0.215-0.343c0.388-0.618,0.787-1.223,1.198-1.814
		c0.088-0.125,0.174-0.252,0.263-0.376c0.104-0.147,0.213-0.293,0.319-0.438c0.093-0.127,0.185-0.256,0.279-0.381
		c0.104-0.139,0.209-0.274,0.313-0.411c0.101-0.131,0.201-0.262,0.303-0.392c0.104-0.134,0.212-0.265,0.318-0.396
		c0.104-0.129,0.206-0.257,0.312-0.384c0.106-0.129,0.214-0.255,0.321-0.383c0.108-0.127,0.216-0.254,0.324-0.379
		c0.109-0.126,0.22-0.25,0.33-0.373c0.109-0.122,0.218-0.244,0.328-0.364c0.112-0.124,0.227-0.246,0.342-0.368
		c0.11-0.119,0.223-0.236,0.335-0.354s0.226-0.233,0.34-0.35c0.118-0.119,0.237-0.238,0.356-0.356
		c0.113-0.111,0.227-0.222,0.34-0.331c0.119-0.114,0.239-0.228,0.359-0.34l0.138-0.129l-0.083,0.081
		c-0.115,0.114-0.23,0.229-0.346,0.346c-0.121,0.123-0.242,0.246-0.363,0.371c-0.116,0.121-0.231,0.242-0.347,0.364
		c-0.114,0.122-0.228,0.244-0.341,0.368c-0.117,0.127-0.232,0.255-0.348,0.384c-0.112,0.126-0.224,0.252-0.334,0.38
		c-0.112,0.129-0.225,0.258-0.336,0.389c-0.11,0.131-0.22,0.263-0.33,0.396c-0.109,0.133-0.219,0.265-0.327,0.399
		c-0.106,0.132-0.212,0.266-0.317,0.399c-0.107,0.138-0.217,0.274-0.323,0.414c-0.104,0.135-0.205,0.271-0.308,0.408
		c-0.107,0.143-0.214,0.284-0.32,0.428c-0.095,0.132-0.188,0.265-0.283,0.397c-0.108,0.152-0.218,0.304-0.325,0.458
		c-0.09,0.13-0.178,0.262-0.267,0.393c-0.418,0.616-0.824,1.247-1.219,1.893c-0.072,0.119-0.146,0.237-0.219,0.356
		c-0.1,0.169-0.198,0.34-0.298,0.511c-0.081,0.139-0.163,0.277-0.242,0.417c-0.097,0.171-0.191,0.343-0.286,0.515
		c-0.08,0.146-0.161,0.29-0.24,0.436c-0.092,0.172-0.183,0.346-0.273,0.519c-0.077,0.146-0.154,0.292-0.229,0.439
		c-0.093,0.182-0.185,0.365-0.275,0.549c-0.07,0.143-0.142,0.284-0.211,0.427c-0.09,0.187-0.179,0.374-0.268,0.562
		c-0.068,0.145-0.137,0.29-0.204,0.436c-0.086,0.189-0.172,0.38-0.258,0.57c-0.063,0.146-0.128,0.291-0.191,0.438
		c-0.086,0.196-0.17,0.393-0.253,0.591c-0.062,0.146-0.122,0.291-0.181,0.437c-0.081,0.196-0.16,0.393-0.239,0.59
		c-0.06,0.15-0.119,0.303-0.178,0.455c-0.078,0.202-0.156,0.405-0.232,0.61c-0.054,0.144-0.105,0.287-0.158,0.432
		c-0.076,0.209-0.153,0.419-0.227,0.63c-0.052,0.146-0.102,0.295-0.151,0.442c-0.073,0.214-0.147,0.428-0.218,0.644
		c-0.044,0.132-0.085,0.266-0.128,0.398c-0.074,0.234-0.15,0.469-0.223,0.705c-0.033,0.107-0.064,0.217-0.097,0.324
		c-0.078,0.259-0.155,0.519-0.229,0.779l-0.031,0.111c-0.27,0.952-0.517,1.919-0.742,2.898c-0.025,0.11-0.053,0.22-0.077,0.33
		c-0.058,0.257-0.112,0.516-0.167,0.774c-0.027,0.126-0.055,0.253-0.081,0.38c-0.052,0.253-0.101,0.507-0.149,0.762
		c-0.025,0.136-0.053,0.271-0.078,0.407c-0.045,0.242-0.088,0.486-0.13,0.729c-0.026,0.155-0.054,0.311-0.079,0.465
		c-0.039,0.234-0.076,0.47-0.112,0.705c-0.024,0.162-0.05,0.323-0.074,0.486c-0.034,0.238-0.068,0.479-0.101,0.719
		c-0.021,0.159-0.043,0.318-0.063,0.479c-0.031,0.239-0.061,0.479-0.088,0.719c-0.02,0.167-0.039,0.334-0.057,0.502
		c-0.026,0.239-0.051,0.479-0.074,0.719c-0.016,0.165-0.031,0.329-0.046,0.493c-0.022,0.247-0.044,0.493-0.063,0.74
		c-0.013,0.158-0.023,0.318-0.035,0.478c-0.019,0.253-0.036,0.506-0.052,0.76c-0.009,0.156-0.018,0.314-0.026,0.472
		c-0.014,0.258-0.027,0.516-0.038,0.774c-0.007,0.15-0.011,0.302-0.016,0.453c-0.01,0.267-0.02,0.533-0.025,0.802
		c-0.003,0.138-0.005,0.276-0.008,0.414c-0.005,0.282-0.01,0.564-0.012,0.848c0,0.104,0.001,0.21,0.001,0.315
		C128.24,192.943,128.25,193.694,128.273,194.447z"/>
	
		<rect x="169.755" y="207.358" transform="matrix(-0.9922 0.1246 -0.1246 -0.9922 365.5699 402.2384)" style="fill-rule:evenodd;clip-rule:evenodd;fill:#336666;" width="0.909" height="10.379"/>
	
		<rect x="169.906" y="207.339" transform="matrix(-0.9922 0.1246 -0.1246 -0.9922 365.8672 402.1817)" style="fill-rule:evenodd;clip-rule:evenodd;fill:#669999;" width="0.909" height="10.38"/>
	<polygon style="fill-rule:evenodd;clip-rule:evenodd;fill:#336666;" points="113.69,209.842 114.618,209.934 115.791,219.29 
		114.86,219.177 	"/>
	<polygon style="fill-rule:evenodd;clip-rule:evenodd;fill:#669999;" points="113.844,209.849 114.769,209.915 115.945,219.304 
		115.017,219.202 	"/>
	<polygon style="fill-rule:evenodd;clip-rule:evenodd;fill:#336666;" points="224.993,195.168 224.104,195.49 225.293,204.979 
		226.18,204.635 	"/>
	<polygon style="fill-rule:evenodd;clip-rule:evenodd;fill:#669999;" points="224.844,195.213 223.951,195.509 225.145,205.031 
		226.033,204.699 	"/>
	<g>
		<path style="fill-rule:evenodd;clip-rule:evenodd;fill:#D0E8E8;stroke:#FFFFFF;stroke-width:0.216;stroke-miterlimit:2.6131;" d="
			M169.633,203.973c1.587-0.199,2.885,0.382,2.834-0.019c-0.05-0.4-1.542-1.88-3.129-1.682c-1.588,0.199-2.668,2.001-2.618,2.402
			C166.77,205.075,168.045,204.172,169.633,203.973z"/>
		<path style="fill-rule:evenodd;clip-rule:evenodd;fill:#336666;" d="M169.598,204.344c1.587-0.199,2.83-0.703,2.873-0.36
			c0.043,0.342-1.209,0.78-2.796,0.979s-2.909,0.083-2.951-0.26C166.681,204.361,168.01,204.542,169.598,204.344z"/>
		
			<ellipse transform="matrix(-0.1246 -0.9922 0.9922 -0.1246 -11.9893 398.0515)" style="fill-rule:evenodd;clip-rule:evenodd;fill:#669999;" cx="169.594" cy="204.314" rx="0.595" ry="2.896"/>
	</g>
	<polygon style="fill-rule:evenodd;clip-rule:evenodd;fill:#336666;" points="138.022,210.116 138.936,210.086 140.227,220.385 
		139.313,220.415 	"/>
	<polygon style="fill-rule:evenodd;clip-rule:evenodd;fill:#669999;" points="138.175,210.111 139.088,210.081 140.379,220.38 
		139.466,220.41 	"/>
	<polygon style="fill-rule:evenodd;clip-rule:evenodd;fill:#336666;" points="199.95,202.178 199.059,202.375 200.362,212.776 
		201.254,212.579 	"/>
	<polygon style="fill-rule:evenodd;clip-rule:evenodd;fill:#669999;" points="199.802,202.211 198.91,202.407 200.213,212.809 
		201.105,212.612 	"/>
	<path style="fill-rule:evenodd;clip-rule:evenodd;fill:#99CCCC;" d="M123.856,205.875l12.927-7.594l4.499,0.46l-3.554,7.595
		C137.729,206.336,128.545,206.577,123.856,205.875z"/>
	<path style="fill-rule:evenodd;clip-rule:evenodd;fill:#99CCCC;" d="M210.382,195.029l-14.4-4.168l-4.247,1.556l5.317,6.482
		C197.052,198.899,206.012,196.867,210.382,195.029z"/>
</g>
</svg>
