<?xml version="1.0" encoding="UTF-8"?>
<!DOCTYPE svg PUBLIC "-//W3C//DTD SVG 1.1//EN" "http://www.w3.org/Graphics/SVG/1.1/DTD/svg11.dtd">
<!-- Creator: CorelDRAW -->
<svg xmlns="http://www.w3.org/2000/svg" xml:space="preserve" width="1243px" height="1243px" style="shape-rendering:geometricPrecision; text-rendering:geometricPrecision; image-rendering:optimizeQuality; fill-rule:evenodd; clip-rule:evenodd"
viewBox="0 0 207.721 207.721"
 xmlns:xlink="http://www.w3.org/1999/xlink">  
 <metadata
     id="metadata3960">
    <rdf:RDF>
      <cc:Work
         rdf:about="">
        <dc:format>image/svg+xml</dc:format>
        <dc:type
           rdf:resource="http://purl.org/dc/dcmitype/StillImage" />
        <dc:title></dc:title>
        <cc:license
           rdf:resource="http://www.gnu.org/licenses/gpl-3.0.html" />
        <dc:creator>
          <cc:Agent>
            <dc:title>Abhash Bikram Thapa</dc:title>
          </cc:Agent>
        </dc:creator>
        <dc:description>http://pixelpinch.com</dc:description>
      </cc:Work>
    </rdf:RDF>
  </metadata>
 <defs>
  <style type="text/css">
   <![CDATA[
    .str0 {stroke:#99CCCC;stroke-width:0.150411}
    .str1 {stroke:white;stroke-width:0.150411}
    .str4 {stroke:#912783;stroke-width:0.348196}
    .str2 {stroke:#D273D9;stroke-width:0.348196}
    .str3 {stroke:#FF99FF;stroke-width:0.348196}
    .fil29 {fill:none}
    .fil49 {fill:#FEFEFE}
    .fil48 {fill:black}
    .fil1 {fill:#003333}
    .fil9 {fill:#1E1438}
    .fil38 {fill:#2B1F46}
    .fil37 {fill:#336666}
    .fil27 {fill:#3C682D}
    .fil33 {fill:#528C36}
    .fil32 {fill:#61A53E}
    .fil8 {fill:#669999}
    .fil19 {fill:#74E9F0}
    .fil17 {fill:#7DC05C}
    .fil15 {fill:#999966}
    .fil39 {fill:#99CCCC}
    .fil24 {fill:#C1FFFF}
    .fil47 {fill:#CC33FF}
    .fil36 {fill:#D0E8E8}
    .fil35 {fill:#E6E6E6}
    .fil2 {fill:white}
    .fil30 {fill:#224827;fill-rule:nonzero}
    .fil41 {fill:#999999;fill-rule:nonzero}
    .fil40 {fill:#B3B3B3;fill-rule:nonzero}
    .fil34 {fill:url(#id1)}
    .fil5 {fill:url(#id2)}
    .fil4 {fill:url(#id3)}
    .fil43 {fill:url(#id4)}
    .fil13 {fill:url(#id5)}
    .fil22 {fill:url(#id6)}
    .fil11 {fill:url(#id7)}
    .fil45 {fill:url(#id8)}
    .fil25 {fill:url(#id9)}
    .fil44 {fill:url(#id10)}
    .fil26 {fill:url(#id11)}
    .fil46 {fill:url(#id12)}
    .fil23 {fill:url(#id13)}
    .fil16 {fill:url(#id14)}
    .fil18 {fill:url(#id15)}
    .fil31 {fill:url(#id16)}
    .fil21 {fill:url(#id17)}
    .fil28 {fill:url(#id18)}
    .fil20 {fill:url(#id19)}
    .fil12 {fill:url(#id20)}
    .fil42 {fill:url(#id21)}
    .fil10 {fill:url(#id22)}
    .fil14 {fill:url(#id23)}
    .fil0 {fill:url(#id24)}
    .fil7 {fill:url(#id25)}
    .fil6 {fill:url(#id26)}
    .fil3 {fill:url(#id27)}
   ]]>
  </style>
   <clipPath id="id0">
    <path d="M167.03 5.64812l-126.338 0c-19.2753,0 -35.0444,15.7691 -35.0444,35.0429l0 126.338c0,19.2753 15.7691,35.0444 35.0444,35.0444l126.338 0c19.2738,0 35.0429,-15.7691 35.0429,-35.0444l0 -126.338c0,-19.2738 -15.7691,-35.0429 -35.0429,-35.0429z"/>
   </clipPath>
  <linearGradient id="id1" gradientUnits="userSpaceOnUse" x1="104.678" y1="44.031" x2="187.872" y2="85.2725">
   <stop offset="0" style="stop-color:#336666"/>
   <stop offset="0.380392" style="stop-color:#99CCCC"/>
   <stop offset="0.509804" style="stop-color:#BDDFDF"/>
   <stop offset="0.639216" style="stop-color:#99CCCC"/>
   <stop offset="1" style="stop-color:#336666"/>
  </linearGradient>
  <linearGradient id="id2" gradientUnits="userSpaceOnUse" x1="47.3359" y1="46.4411" x2="218.549" y2="132.494">
   <stop offset="0" style="stop-color:#99CCCC"/>
   <stop offset="0.0784314" style="stop-color:#669999"/>
   <stop offset="0.509804" style="stop-color:#99CCCC"/>
   <stop offset="0.929412" style="stop-color:#669999"/>
   <stop offset="1" style="stop-color:#99CCCC"/>
  </linearGradient>
  <linearGradient id="id3" gradientUnits="userSpaceOnUse" x1="93.129" y1="73.9873" x2="171.592" y2="113.529">
   <stop offset="0" style="stop-color:black"/>
   <stop offset="0.509804" style="stop-color:#336666"/>
   <stop offset="1" style="stop-color:black"/>
  </linearGradient>
  <linearGradient id="id4" gradientUnits="userSpaceOnUse" x1="47.2335" y1="189.414" x2="96.0338" y2="112.172">
   <stop offset="0" style="stop-color:#336666"/>
   <stop offset="0.760784" style="stop-color:#98B2B2"/>
   <stop offset="1" style="stop-color:#FEFEFE"/>
  </linearGradient>
  <linearGradient id="id5" gradientUnits="userSpaceOnUse" x1="151.147" y1="50.2476" x2="142.034" y2="71.8425">
   <stop offset="0" style="stop-color:#666633"/>
   <stop offset="1" style="stop-color:#1A1A00"/>
  </linearGradient>
  <linearGradient id="id6" gradientUnits="userSpaceOnUse" x1="164.065" y1="42.079" x2="163.511" y2="37.6073">
   <stop offset="0" style="stop-color:#88CA68"/>
   <stop offset="1" style="stop-color:#61A53E"/>
  </linearGradient>
  <linearGradient id="id7" gradientUnits="userSpaceOnUse" x1="167.662" y1="27.622" x2="144.727" y2="73.8882">
   <stop offset="0" style="stop-color:#669999"/>
   <stop offset="1" style="stop-color:#003333"/>
  </linearGradient>
  <linearGradient id="id8" gradientUnits="userSpaceOnUse" x1="104.166" y1="167.025" x2="110.123" y2="166.887">
   <stop offset="0" style="stop-color:#B648B8"/>
   <stop offset="1" style="stop-color:#D273D9"/>
  </linearGradient>
  <linearGradient id="id9" gradientUnits="userSpaceOnUse" xlink:href="#id6" x1="155.429" y1="39.2096" x2="158.834" y2="36.0221">
  </linearGradient>
  <linearGradient id="id10" gradientUnits="userSpaceOnUse" x1="81.3646" y1="147.462" x2="79.233" y2="135.969">
   <stop offset="0" style="stop-color:#D273D9"/>
   <stop offset="1" style="stop-color:#912783"/>
  </linearGradient>
  <linearGradient id="id11" gradientUnits="userSpaceOnUse" x1="155.899" y1="39.4762" x2="157.01" y2="36.5347">
   <stop offset="0" style="stop-color:black"/>
   <stop offset="1" style="stop-color:#1A1A1A"/>
  </linearGradient>
  <linearGradient id="id12" gradientUnits="userSpaceOnUse" x1="81.845" y1="163.488" x2="66.7725" y2="184.186">
   <stop offset="0" style="stop-color:#9C2E8D"/>
   <stop offset="1" style="stop-color:#72155B"/>
  </linearGradient>
  <linearGradient id="id13" gradientUnits="userSpaceOnUse" xlink:href="#id11" x1="162.985" y1="41.7774" x2="163.853" y2="39.3602">
  </linearGradient>
  <linearGradient id="id14" gradientUnits="userSpaceOnUse" x1="148.59" y1="60.5719" x2="158.175" y2="61.7918">
   <stop offset="0" style="stop-color:#88CA68"/>
   <stop offset="1" style="stop-color:#98D27E"/>
  </linearGradient>
  <linearGradient id="id15" gradientUnits="userSpaceOnUse" x1="152.638" y1="54.3975" x2="151.665" y2="57.4883">
   <stop offset="0" style="stop-color:#3C682D"/>
   <stop offset="1" style="stop-color:#88CA68"/>
  </linearGradient>
  <linearGradient id="id16" gradientUnits="userSpaceOnUse" xlink:href="#id6" x1="157.398" y1="47.0254" x2="157.785" y2="45.9785">
  </linearGradient>
  <linearGradient id="id17" gradientUnits="userSpaceOnUse" x1="169.86" y1="35.608" x2="163.414" y2="33.3317">
   <stop offset="0" style="stop-color:#AADA94"/>
   <stop offset="1" style="stop-color:#88CA68"/>
  </linearGradient>
  <linearGradient id="id18" gradientUnits="userSpaceOnUse" xlink:href="#id6" x1="158.411" y1="44.2983" x2="157.985" y2="45.4499">
  </linearGradient>
  <linearGradient id="id19" gradientUnits="userSpaceOnUse" xlink:href="#id14" x1="161.287" y1="37.6802" x2="166.304" y2="39.4085">
  </linearGradient>
  <linearGradient id="id20" gradientUnits="userSpaceOnUse" x1="169.607" y1="68.8333" x2="163.397" y2="81.3596">
   <stop offset="0" style="stop-color:#003333"/>
   <stop offset="1" style="stop-color:black"/>
  </linearGradient>
  <radialGradient id="id21" gradientUnits="userSpaceOnUse" cx="103.861" cy="103.861" r="103.861" fx="103.861" fy="103.861">
   <stop offset="0" style="stop-color:black"/>
   <stop offset="0.701961" style="stop-color:#313131"/>
   <stop offset="1" style="stop-color:#626262"/>
  </radialGradient>
  <radialGradient id="id22" gradientUnits="userSpaceOnUse" cx="145.162" cy="73.1697" r="42.7827" fx="145.162" fy="73.1697">
   <stop offset="0" style="stop-color:#003333"/>
   <stop offset="1" style="stop-color:#669999"/>
  </radialGradient>
  <radialGradient id="id23" gradientUnits="userSpaceOnUse" cx="149.572" cy="62.4266" r="14.3996" fx="149.572" fy="62.4266">
   <stop offset="0" style="stop-color:#333300"/>
   <stop offset="0.431373" style="stop-color:#666633"/>
   <stop offset="1" style="stop-color:#999966"/>
  </radialGradient>
  <radialGradient id="id24" gradientUnits="userSpaceOnUse" cx="162.788" cy="48.8617" r="98.2126" fx="162.788" fy="48.8617">
   <stop offset="0" style="stop-color:black"/>
   <stop offset="0.729412" style="stop-color:#003333"/>
   <stop offset="1" style="stop-color:#003333"/>
  </radialGradient>
  <radialGradient id="id25" gradientUnits="userSpaceOnUse" cx="148.633" cy="58.7697" r="61.1163" fx="148.633" fy="58.7697">
   <stop offset="0" style="stop-color:#FEFEFE"/>
   <stop offset="1" style="stop-color:#99CCCC"/>
  </radialGradient>
  <radialGradient id="id26" gradientUnits="userSpaceOnUse" xlink:href="#id25" cx="153.072" cy="50.902" r="50.0408" fx="153.072" fy="50.902">
  </radialGradient>
  <radialGradient id="id27" gradientUnits="userSpaceOnUse" cx="126.185" cy="107.745" r="12.9294" fx="126.185" fy="107.745">
   <stop offset="0" style="stop-color:#99CCCC"/>
   <stop offset="1" style="stop-color:#336666"/>
  </radialGradient>
 </defs>
 <g id="Layer_x0020_1">
  <metadata id="CorelCorpID_0Corel-Layer"/>
  <path class="fil0" d="M167.03 5.64812l-126.338 0c-19.2753,0 -35.0444,15.7691 -35.0444,35.0429l0 126.338c0,19.2753 15.7691,35.0444 35.0444,35.0444l126.338 0c19.2738,0 35.0429,-15.7691 35.0429,-35.0444l0 -126.338c0,-19.2738 -15.7691,-35.0429 -35.0429,-35.0429z"/>
  <g style="clip-path:url(#id0)">
   <g id="_322963728">
    <g>
     <path id="_3231240321" class="fil1" d="M180.693 96.598c-10.6693,11.8916 -26.3853,17.6751 -41.9695,15.0794 -2.72004,-3.18923 -6.02592,-5.87097 -10.4419,-8.06003 -4.41601,-2.18906 -8.9548,-3.37004 -13.1397,-3.60395 -11.5015,-10.8314 -16.0113,-26.6674 -13.0072,-42.3587l78.5583 38.9433z"/>
     <path id="_323123864" class="fil2" d="M180.34 96.4225c-10.6693,11.8916 -25.9153,17.7138 -41.4995,15.1181 -2.72004,-3.18903 -6.49571,-5.90946 -10.9117,-8.09852 -4.41601,-2.18906 -8.9548,-3.37024 -13.1399,-3.60415 -11.5015,-10.8312 -16.0113,-26.6672 -13.007,-42.3585l78.5581 38.9431z"/>
     <path id="_323123696" class="fil3" d="M181.135 96.5964c-10.6693,11.8916 -26.7104,17.5399 -42.2946,14.9442 -2.72004,-3.18903 -6.40807,-6.08633 -10.8241,-8.27538 -4.41601,-2.18906 -8.9548,-3.37024 -13.1399,-3.60415 -11.5015,-10.8312 -16.7187,-27.0178 -13.7145,-42.7093l79.973 39.6446z"/>
     <path id="_323123528" class="fil2" d="M138.706 79.9213c23.2938,11.5473 45.3703,21.1369 43.0608,25.7957 -2.30946,4.6588 -6.87983,15.5387 -51.9128,-6.78528 -45.033,-22.3238 -40.1525,-32.8167 -37.843,-37.4755 2.30946,-4.6588 23.4012,6.91773 46.695,18.4651z"/>
     <path id="_323123360" class="fil4" d="M138.799 79.7339c23.2938,11.5473 45.2777,21.3242 42.9681,25.983 -2.30946,4.6588 -6.78706,15.3514 -51.8198,-6.97241 -45.033,-22.324 -40.1527,-32.8169 -37.8432,-37.4757 2.30966,-4.6588 23.4012,6.91773 46.695,18.4651z"/>
     <path id="_323123192" class="fil5" d="M148.182 60.8052c43.1195,21.3754 83.8138,39.4733 79.5387,48.0974 -4.27527,8.62397 -12.5637,28.4171 -95.9245,-12.9067 -83.361,-41.324 -74.3268,-60.7476 -70.0518,-69.3716 4.27527,-8.62397 43.318,12.8055 86.4375,34.1809z"/>
     <path id="_323123096" class="fil6" d="M152.96 51.1661c45.833,22.7204 79.3044,48.5698 74.7603,57.7366 -4.54412,9.1666 -45.3829,-1.82132 -91.2159,-24.5417 -45.833,-22.7206 -79.3044,-48.57 -74.7603,-57.7366 4.54412,-9.1666 45.3829,1.82112 91.2159,24.5417z"/>
     <path id="_323123000" class="fil7 str0" d="M151.147 54.8245c35.73,17.7124 61.8234,37.8638 58.281,45.0099 -3.54256,7.14611 -35.3792,-1.41983 -71.1094,-19.132 -35.73,-17.7122 -61.8234,-37.8636 -58.281,-45.0097 3.54256,-7.14611 35.3792,1.41963 71.1094,19.1318z"/>
     <ellipse id="_323122904" class="fil8 str0" transform="matrix(0.926702 0.459388 -0.459388 0.926702 146.315 64.5704)" rx="46.3535" ry="9.27062"/>
     <path id="_323122736" class="fil9" d="M170.5 15.7837c0.348393,0.172716 0.693037,0.351157 1.03393,0.534138 0.105801,0.0568483 0.209628,0.117052 0.314837,0.175085 0.230552,0.126724 0.461103,0.253449 0.688102,0.384713 0.136199,0.0787586 0.269635,0.160873 0.40465,0.241605 0.19364,0.115671 0.388069,0.230749 0.57934,0.349775 0.142121,0.0884308 0.281873,0.179822 0.422415,0.27003 0.181401,0.116658 0.363198,0.233118 0.542231,0.352736 0.138173,0.0921812 0.27457,0.187126 0.411361,0.281083 0.177256,0.121987 0.354513,0.244172 0.529203,0.369119 0.140344,0.100472 0.278912,0.202917 0.417677,0.305165 0.165808,0.122382 0.331221,0.244764 0.494857,0.369909 0.138173,0.105406 0.274964,0.212786 0.411558,0.320167 0.164229,0.129093 0.327273,0.259371 0.489133,0.39103 0.131659,0.10738 0.262331,0.216142 0.392609,0.325101 0.160281,0.134423 0.319377,0.270227 0.477289,0.407216 0.129685,0.112907 0.258976,0.226406 0.387279,0.34109 0.154359,0.137976 0.307139,0.277333 0.458932,0.417875 0.126922,0.11725 0.253646,0.234697 0.378989,0.35392 0.149819,0.142318 0.297664,0.286808 0.445115,0.431889 0.122974,0.121 0.245948,0.241408 0.367146,0.363987 0.14903,0.150609 0.29569,0.303586 0.442154,0.456761 0.115276,0.120605 0.231341,0.240421 0.345038,0.362606 0.146069,0.156925 0.289374,0.316614 0.433074,0.475907 0.111525,0.124158 0.224433,0.24733 0.334576,0.37287 0.152583,0.173901 0.301809,0.35096 0.451431,0.527821 0.0941551,0.111131 0.189692,0.220879 0.282663,0.333194 0.166992,0.202325 0.330234,0.408203 0.493673,0.614081 0.0756004,0.095142 0.15278,0.188508 0.227591,0.284439 0.231144,0.296875 0.45834,0.597105 0.681785,0.901283 0.0795482,0.108367 0.155938,0.219695 0.234697,0.329247 0.146266,0.203707 0.293322,0.406821 0.436232,0.613686 0.0894177,0.12929 0.175875,0.261542 0.263911,0.392214 0.12633,0.187323 0.253251,0.374054 0.376818,0.563943 0.0965237,0.14824 0.190087,0.299243 0.284834,0.449062 0.111328,0.176072 0.223643,0.351552 0.332405,0.5294 0.0971159,0.158307 0.191074,0.318588 0.286216,0.478474 0.102643,0.172519 0.205483,0.34484 0.305955,0.519136 0.0949446,0.165215 0.187718,0.332207 0.280886,0.499199 0.0967211,0.173308 0.193245,0.34642 0.287992,0.521505 0.0921812,0.170348 0.182388,0.342077 0.272398,0.514004 0.0919838,0.175875 0.18377,0.351946 0.273583,0.5294 0.0862595,0.17015 0.17094,0.340893 0.255225,0.512425 0.0892203,0.181796 0.177651,0.364185 0.264503,0.547363 0.0840882,0.176862 0.167189,0.354513 0.248909,0.532953 0.0817195,0.177651 0.16186,0.356289 0.241408,0.535124 0.0819169,0.18456 0.163242,0.369317 0.24279,0.555258 0.0773769,0.180809 0.153372,0.362408 0.228578,0.544599 0.0765873,0.18456 0.15278,0.369514 0.227196,0.55585 0.0744161,0.185941 0.146661,0.373265 0.218906,0.560588 0.0720474,0.187521 0.14449,0.374844 0.21476,0.563549 0.0688891,0.185744 0.135212,0.373265 0.202127,0.56039 0.0688891,0.192455 0.13837,0.384318 0.204891,0.578156 0.0645466,0.187521 0.12633,0.377015 0.188508,0.565917 0.0653361,0.19739 0.131462,0.393793 0.194627,0.592565 0.0570457,0.180217 0.110933,0.362606 0.1664,0.544007 0.063757,0.208839 0.128698,0.416493 0.189889,0.626911 0.0513214,0.176269 0.0990898,0.354907 0.148832,0.532361 0.233907,0.836539 0.448865,1.68393 0.644479,2.54159 0.0363198,0.158504 0.0740213,0.316021 0.108959,0.475513 0.0487553,0.223051 0.0937603,0.448273 0.140147,0.672903 0.0377015,0.183375 0.0765873,0.366553 0.112512,0.550916 0.0436232,0.223051 0.0838908,0.448075 0.125145,0.672508 0.0347407,0.189692 0.0700735,0.378792 0.10284,0.569076 0.0384911,0.223643 0.0740213,0.448865 0.110144,0.673692 0.0303981,0.189297 0.0613883,0.378397 0.0898125,0.568681 0.0351354,0.234302 0.0677048,0.470183 0.100274,0.705669 0.0250685,0.182783 0.0503345,0.365566 0.0738239,0.549139 0.0305955,0.238052 0.0588222,0.477289 0.0866542,0.716723 0.0213181,0.184757 0.0422415,0.369712 0.0623753,0.555061 0.0254633,0.240421 0.0493475,0.48104 0.0722448,0.722645 0.0173703,0.18377 0.0339511,0.367738 0.0495449,0.552297 0.0213181,0.247527 0.0408597,0.495449 0.059217,0.743963 0.0132251,0.181994 0.0254633,0.364382 0.0371093,0.546968 0.0157912,0.245158 0.0309902,0.490317 0.0438206,0.736265 0.0098695,0.18831 0.0181599,0.377212 0.0264503,0.566115 0.0108565,0.25187 0.0213181,0.503739 0.0294111,0.756596 0.00572431,0.177454 0.00927733,0.3555 0.0134225,0.533348 0.00611909,0.257791 0.0120408,0.515978 0.0150016,0.774953 0.0019739,0.180415 0.00157912,0.361224 0.00217129,0.542231 0.00098695,0.262134 0.00217129,0.524268 -0.00019739,0.787389 -0.00138173,0.161268 -0.00532953,0.32293 -0.00809299,0.484593 -0.00453997,0.284636 -0.00868516,0.56947 -0.0169755,0.855489 -0.00375041,0.130672 -0.0100669,0.261937 -0.0146069,0.392609 -0.0110538,0.312863 -0.0219103,0.625727 -0.0371093,0.939774l-0.0078956 0.13383c-0.0580327,1.14348 -0.14745,2.29486 -0.2647,3.45137 -0.0130277,0.13008 -0.0246738,0.259963 -0.0384911,0.39024 -0.0325694,0.302796 -0.0692839,0.606185 -0.105604,0.909968 -0.0179625,0.148635 -0.0343459,0.296875 -0.0530979,0.445707 -0.0375041,0.296085 -0.0787586,0.592565 -0.120211,0.889045 -0.0221077,0.158504 -0.0434258,0.316811 -0.0665205,0.475315 -0.0412545,0.281873 -0.0858647,0.564338 -0.130475,0.846409 -0.0284242,0.179428 -0.0564536,0.359053 -0.0862595,0.538875 -0.0448075,0.270424 -0.0927733,0.541244 -0.140937,0.81226 -0.0329641,0.186336 -0.0661257,0.372278 -0.100669,0.558811 -0.0509266,0.274372 -0.104222,0.548744 -0.158504,0.823314 -0.0361224,0.182388 -0.0726395,0.364579 -0.110144,0.547165 -0.0558614,0.272398 -0.113697,0.545191 -0.172914,0.817787 -0.0412545,0.189889 -0.083496,0.379976 -0.12633,0.569865 -0.0607961,0.271017 -0.123764,0.542033 -0.187915,0.813247 -0.0438206,0.185349 -0.0892203,0.370501 -0.13462,0.556048 -0.0679022,0.276938 -0.136791,0.554074 -0.208049,0.83121 -0.0457945,0.178243 -0.0931681,0.356289 -0.140344,0.534532 -0.0750082,0.282663 -0.150411,0.565523 -0.228972,0.84858 -0.048558,0.175085 -0.0992872,0.35017 -0.14903,0.525255 -0.0817195,0.28661 -0.163834,0.573023 -0.249106,0.859634 -0.0495449,0.166795 -0.101458,0.333194 -0.152188,0.499792 -0.0900099,0.294901 -0.180217,0.589999 -0.273977,0.8849 -0.0483606,0.151596 -0.0992872,0.303389 -0.14824,0.454787 -0.100472,0.30931 -0.200943,0.618818 -0.305757,0.928128 -0.0386885,0.114684 -0.0803378,0.22917 -0.119816,0.343853 -0.425376,1.23744 -0.883715,2.4733 -1.37818,3.70639 -4.23698,3.10751 -23.5202,-2.39079 -44.9953,-13.0364 -21.4751,-10.6456 -37.5262,-22.6635 -37.6186,-27.9173 0.681785,-1.14013 1.38844,-2.25262 2.11543,-3.34083 0.06731,-0.100866 0.133436,-0.203312 0.20114,-0.303586 0.182783,-0.270819 0.36833,-0.537888 0.553482,-0.805154 0.0907994,-0.131067 0.180809,-0.263121 0.272201,-0.393398 0.178046,-0.253251 0.358263,-0.503739 0.53848,-0.753833 0.101656,-0.141331 0.202917,-0.28365 0.30556,-0.423796 0.176269,-0.241605 0.35471,-0.480053 0.533348,-0.718697 0.108959,-0.145674 0.218116,-0.29194 0.327865,-0.436627 0.177651,-0.233907 0.356881,-0.465051 0.536704,-0.695997 0.113302,-0.145476 0.226406,-0.291348 0.3403,-0.435442 0.177454,-0.224433 0.356289,-0.447089 0.535717,-0.668955 0.120013,-0.148437 0.240026,-0.296282 0.361026,-0.443733 0.176862,-0.21555 0.354513,-0.429126 0.533348,-0.641913 0.125343,-0.149227 0.250883,-0.297664 0.377015,-0.445707 0.181204,-0.212194 0.363198,-0.423204 0.546178,-0.632635 0.122579,-0.140542 0.245751,-0.279702 0.368922,-0.418862 0.185547,-0.209628 0.371883,-0.41827 0.559206,-0.62474 0.127514,-0.140344 0.255818,-0.279307 0.383726,-0.418467 0.186534,-0.202325 0.373265,-0.404255 0.56118,-0.604014 0.124948,-0.132449 0.250883,-0.263318 0.37662,-0.39478 0.197587,-0.206667 0.395372,-0.412743 0.594539,-0.616449 0.112118,-0.114486 0.225419,-0.226999 0.338129,-0.340498 0.21101,-0.212392 0.421823,-0.424981 0.634806,-0.634017 0.106985,-0.105209 0.215155,-0.207852 0.322733,-0.312271 0.2193,-0.212786 0.438798,-0.42577 0.660072,-0.635004 0.0953394,-0.0900099 0.191666,-0.177651 0.2874,-0.266871 0.849369,-0.793705 1.71137,-1.56155 2.5864,-2.30038l0.101853 -0.0872464c0.240618,-0.202325 0.483013,-0.400504 0.725409,-0.598487 0.101261,-0.0829038 0.202127,-0.167189 0.303586,-0.249304 0.222459,-0.18002 0.446694,-0.3555 0.670731,-0.531571 0.126724,-0.100077 0.253251,-0.201338 0.380568,-0.299836 0.207852,-0.161268 0.417283,-0.318785 0.626516,-0.477092 0.144292,-0.108959 0.288189,-0.218906 0.432876,-0.326483 0.207852,-0.154359 0.416888,-0.305955 0.625924,-0.457155 0.144095,-0.104419 0.287795,-0.209233 0.432482,-0.312271 0.206075,-0.146661 0.413137,-0.290953 0.620002,-0.434653 0.155346,-0.107775 0.310889,-0.21555 0.46663,-0.321746 0.203707,-0.138765 0.407808,-0.275162 0.612501,-0.410966 0.152385,-0.101261 0.304968,-0.20193 0.457945,-0.301612 0.208839,-0.136002 0.418072,-0.270227 0.6277,-0.403465 0.156333,-0.0990898 0.312863,-0.19739 0.469591,-0.294901 0.206075,-0.127909 0.41215,-0.254831 0.618818,-0.379778 0.159689,-0.0967211 0.319575,-0.191666 0.479658,-0.28661 0.20726,-0.122974 0.414914,-0.244961 0.622963,-0.364974 0.160281,-0.0923786 0.321154,-0.182981 0.481632,-0.273583 0.207457,-0.117052 0.414519,-0.23371 0.622371,-0.347604 0.168571,-0.0925759 0.337734,-0.182191 0.506898,-0.272793 0.200943,-0.107578 0.401491,-0.21555 0.603027,-0.320364 0.171335,-0.0890229 0.343064,-0.175282 0.514991,-0.262529 0.203509,-0.103432 0.407018,-0.20726 0.61112,-0.307731 0.168374,-0.0831012 0.337734,-0.162847 0.5067,-0.243974 0.206667,-0.0990898 0.413137,-0.199759 0.6202,-0.295888 0.147845,-0.0686917 0.29648,-0.134028 0.444325,-0.20114 0.801009,-0.363987 1.60557,-0.705867 2.41309,-1.02603 0.171335,-0.0679022 0.342472,-0.137976 0.513806,-0.203904 0.204496,-0.0783639 0.40919,-0.15278 0.613883,-0.22838 0.178046,-0.0657309 0.355697,-0.133238 0.533743,-0.196995 0.196403,-0.0700735 0.392806,-0.136397 0.589407,-0.203904 0.188113,-0.0647439 0.376028,-0.130277 0.564536,-0.192455 0.194429,-0.0645466 0.389451,-0.125343 0.584275,-0.187126 0.189494,-0.060204 0.378792,-0.120803 0.568286,-0.178243 0.19285,-0.0588222 0.385898,-0.114289 0.578748,-0.170348 0.192653,-0.0560588 0.385503,-0.11192 0.57855,-0.165413 0.193047,-0.0534927 0.38649,-0.104814 0.579932,-0.155741 0.190481,-0.0501371 0.380963,-0.0998794 0.571642,-0.147648 0.196403,-0.0491501 0.392806,-0.0965237 0.589209,-0.14291 0.190679,-0.0452023 0.380963,-0.0894177 0.571839,-0.132054 0.191468,-0.0426363 0.383332,-0.0842856 0.5748,-0.124553 0.198772,-0.0416493 0.397346,-0.0817195 0.595921,-0.120803 0.187521,-0.0367146 0.375041,-0.0728369 0.562364,-0.107183 0.195614,-0.035925 0.391227,-0.0694813 0.586841,-0.10284 0.191468,-0.032372 0.382937,-0.0645466 0.574208,-0.0945498 0.196601,-0.0307929 0.393004,-0.0584275 0.589407,-0.0864568 0.189297,-0.026845 0.378397,-0.0542823 0.567299,-0.0785612 0.199561,-0.0256607 0.399123,-0.0479658 0.598487,-0.070863 0.184757,-0.0211207 0.369317,-0.0432284 0.553877,-0.0619805 0.207654,-0.0211207 0.415111,-0.0378989 0.622568,-0.0558614 0.176862,-0.0153964 0.353526,-0.032372 0.53019,-0.0453997 0.225814,-0.0165808 0.451234,-0.0286216 0.676851,-0.0414519 0.15732,-0.00907994 0.314837,-0.0203312 0.47196,-0.0274372 0.25108,-0.0114486 0.501963,-0.0175677 0.752648,-0.024279 0.13462,-0.00375041 0.269635,-0.0102643 0.404057,-0.012633 0.377212,-0.00631648 0.75403,-0.00730343 1.13006,-0.00315824 0.121592,0.00138173 0.242592,0.00671126 0.364185,0.00888255 0.262726,0.00552692 0.52565,0.0106591 0.787586,0.0213181 0.145674,0.0059217 0.290756,0.0153964 0.436232,0.0230946 0.231341,0.0118434 0.462682,0.0234894 0.693431,0.0396754 0.166795,0.011646 0.3328,0.026845 0.499397,0.0406624 0.213773,0.0175677 0.427547,0.0351354 0.640926,0.0564536 0.166202,0.0165808 0.331813,0.0363198 0.49762,0.0550718 0.210615,0.0236868 0.421033,0.0477684 0.631056,0.0752056 0.171137,0.0223051 0.341485,0.0473736 0.51203,0.07185 0.204694,0.0294111 0.409387,0.0600066 0.613291,0.0927733 0.170742,0.0276346 0.340893,0.0572431 0.511043,0.0872464 0.203904,0.035925 0.407413,0.0730343 0.610725,0.112315 0.168769,0.0325694 0.33734,0.0669152 0.505713,0.101853 0.204694,0.0424389 0.40919,0.087049 0.613094,0.133238 0.165808,0.0373067 0.331221,0.0759952 0.496436,0.115671 0.202917,0.0487553 0.405044,0.100077 0.607369,0.152385 0.168374,0.0434258 0.336353,0.0876412 0.504134,0.133633 0.198377,0.0542823 0.396162,0.112315 0.593947,0.169953 0.165413,0.048558 0.330826,0.0969185 0.495646,0.147845 0.205286,0.0631648 0.409782,0.130277 0.614278,0.197587 0.157715,0.0517162 0.315429,0.103038 0.472749,0.157122 0.203707,0.0698761 0.406426,0.144292 0.608948,0.218116 0.157122,0.0570457 0.314245,0.113105 0.470775,0.172519 0.210615,0.079943 0.419849,0.165215 0.62928,0.249304 0.145871,0.0586249 0.29194,0.115276 0.437219,0.175875 0.242,0.100472 0.482224,0.208049 0.722842,0.31464 0.109749,0.0487553 0.220287,0.095142 0.329839,0.14449 0.352341,0.159491 0.702906,0.326878 1.0513,0.499594z"/>
     <path id="_323122568" class="fil2" d="M155.353 46.3381c19.3201,9.57737 33.1448,20.6403 36.0136,26.5142 -1.16618,3.41722 -2.48238,9.05014 -3.025,10.4425 -2.27413,4.58754 -21.5254,-1.40186 -44.4621,-12.7721 -22.9367,-11.3703 -40.0615,-23.6209 -37.7876,-28.2084 0.288189,-0.581116 5.37454,-7.24698 6.21838,-8.42441 5.78511,-1.83336 23.0117,2.5185 43.0427,12.4482z"/>
     <path id="_323122400" class="fil10" d="M155.266 46.515c19.3201,9.57737 33.2324,20.4634 36.1013,26.3374 -0.747911,3.6604 -2.39118,9.33102 -3.11264,10.6194 -2.27413,4.58754 -21.5254,-1.40186 -44.4621,-12.7721 -22.9367,-11.3703 -40.0615,-23.6209 -37.7876,-28.2084 0.288189,-0.581116 5.46218,-7.42384 6.30602,-8.60127 5.78511,-1.83336 22.9241,2.69516 42.955,12.6251z"/>
     <path id="_323122232" class="fil11" d="M151.833 53.4404c19.3201,9.57737 34.3782,21.764 37.2471,27.638 -1.16598,3.41722 -0.599276,1.73545 -1.1419,3.12784 -2.27393,4.58735 -20.3333,-1.9887 -43.2701,-13.359 -22.9365,-11.3703 -41.2121,-23.3495 -38.9382,-27.9368 0.288189,-0.581116 0.986358,-1.60577 1.8304,-2.7834 5.78491,-1.83336 24.2417,3.38346 44.2726,13.3134z"/>
     <path id="_323122064" class="fil12" d="M151.482 54.1478c19.3201,9.57737 34.3782,21.764 37.2473,27.6378 -1.16618,3.41741 -0.599276,1.73565 -1.1419,3.12804 -2.27413,4.58735 -20.3333,-1.9887 -43.2701,-13.359 -22.9367,-11.3703 -41.2123,-23.3495 -38.9382,-27.937 0.287992,-0.581116 0.986358,-1.60577 1.8302,-2.7832 5.78511,-1.83336 24.2417,3.38346 44.2726,13.3134z"/>
     <path id="_323121896" class="fil13" d="M154.417 45.9165c5.59561,2.77373 8.5006,8.56535 8.07325,12.8051 -1.4672,3.26799 -3.71646,8.2969 -4.34317,9.64744 -2.27413,4.58735 -8.85452,4.87948 -15.4975,1.58642 -6.64297,-3.29306 -10.5394,-8.98618 -8.26531,-13.5737 0.287992,-0.581116 4.2579,-7.88633 4.9535,-9.13738 3.00447,-3.21173 9.27773,-4.20382 15.0792,-1.32784z"/>
     <path id="_323121728" class="fil14" d="M155.281 46.5225c5.59542,2.77392 8.5006,8.56535 8.07306,12.8051 -1.4672,3.26799 -3.71646,8.2969 -4.34317,9.64764 -2.27413,4.58735 -8.85433,4.87929 -15.4975,1.58623 -6.64297,-3.29306 -10.5392,-8.98618 -8.26531,-13.5735 0.288189,-0.581116 4.2581,-7.88633 4.9537,-9.13758 3.00428,-3.21154 9.27773,-4.20382 15.0792,-1.32784z"/>
     <path id="_323121560" class="fil15" d="M155.281 46.5225c0.534335,0.264897 1.044,0.557627 1.52859,0.873451 -0.349183,-0.210615 -0.710407,-0.409782 -1.08367,-0.594736 -5.80149,-2.87597 -12.34,-2.01535 -15.3443,1.19638 -0.695603,1.25126 -4.66571,8.55627 -4.9537,9.13738 -2.00509,4.04452 1.05229,9.07955 6.29378,12.4405 -5.52712,-3.36412 -8.53436,-8.42994 -6.47341,-12.5876 0.287992,-0.581116 4.2581,-7.88633 4.9537,-9.13738 3.00428,-3.21173 9.27773,-4.20401 15.079,-1.32804z"/>
     <g>
      <path id="_323121392" class="fil16" d="M137.153 60.5415c0,0 8.74122,-5.25117 11.7879,-4.59504 0.368725,0.078956 0.636978,0.199167 1.14072,0.187323 0.644676,-0.391819 0.93326,-0.165413 1.95278,-2.89038 1.01952,-2.72517 3.15785,0.0209233 3.15785,0.0209233 0,0 -1.40246,2.94822 -1.06492,4.53681 0.349973,0.297072 1.04064,0.850751 1.28363,1.14309 2.62904,3.16199 0.640531,10.9656 0.640531,10.9656l-2.22873 -1.10479c0.0223051,0.0110538 1.09433,-5.86939 -0.0846803,-6.60684 -1.34581,2.63062 -1.43858,3.58046 -2.24926,5.44974l-7.43884 -3.68764c0,0 1.10479,-2.48139 1.73664,-3.58737 0.631846,-1.10617 -4.02518,-0.132449 -5.55673,1.6938 -1.70881,-0.847198 -3.07692,-1.52523 -3.07692,-1.52523z"/>
      <path id="_323121224" class="fil17" d="M154.423 69.1027l-0.600461 -0.297664c0,0 1.04538,-5.49001 -0.0846803,-6.60684 -1.34581,2.63062 -1.43858,3.58046 -2.24926,5.44974l-0.842066 -0.41748c0.734883,-1.7923 2.16971,-4.69492 2.81419,-5.64358 0.644676,-0.948854 2.27176,0.688102 0.962277,7.51582z"/>
      <path id="_323121056" class="fil17" d="M144.468 64.1674l-0.417677 -0.207062c0,0 1.10479,-2.48139 1.73664,-3.58737 0.631846,-1.10617 -4.02518,-0.132449 -5.55673,1.6938l-0.957737 -0.474921c2.41428,-1.66577 7.08847,-3.57177 7.07525,-2.11997 -0.0132251,1.45161 -0.869503,2.38112 -1.87975,4.69551z"/>
      <path id="_323120888" class="fil18" d="M143.803 57.1413c2.00686,-0.842263 3.98234,-1.44371 5.13826,-1.1948 0.368725,0.078956 0.636978,0.199167 1.14072,0.187323 0.644676,-0.391819 0.93326,-0.165413 1.95278,-2.89038 1.01952,-2.72517 3.15785,0.0209233 3.15785,0.0209233 0,0 -1.45259,2.51712 -1.11525,4.10571 -0.00236868,0.13462 0.0487553,0.526637 0.352736,0.704485 -0.640926,0.203509 -0.678824,0.135015 -2.13793,-0.205286 -1.45911,-0.3403 -5.26834,-1.49207 -7.02847,-1.04636 -0.420638,0.106393 -0.92951,0.214958 -1.46069,0.31839z"/>
      <path id="_323120720" class="fil19" d="M137.153 60.5415c0,0 8.74122,-5.25117 11.7879,-4.59504 0.368725,0.078956 0.636978,0.199167 1.14072,0.187323 0.644676,-0.391819 0.93326,-0.165413 1.95278,-2.89038 0.530979,-1.41923 1.36515,-1.35429 2.04299,-0.966619 -0.62474,-0.260555 -1.316,-0.66481 -2.05996,1.3235 -0.743963,1.98831 -1.17526,2.20958 -1.81994,2.60121 -0.503739,0.0118434 -0.64211,-0.0542823 -1.01083,-0.133238 -3.04691,-0.656125 -11.7879,4.59504 -11.7879,4.59504l-0.245751 -0.12179zm7.07426 3.50683l-0.177256 -0.088036c0,0 1.37995,-2.96855 1.73664,-3.58737 0.0489527,-0.0852725 -0.0633622,0.294111 -0.374449,0.987937 -0.0965237,0.214958 -0.693037,1.17566 -1.18493,2.68747z"/>
      <path id="_323120552" class="fil20" d="M166.35 18.5371l0 0c4.55181,1.60715 6.96096,6.64652 5.35361,11.1983 -2.39217,6.77443 -5.39546,12.434 -7.17631,20.3231 -1.6107,4.56168 -6.65126,6.95938 -11.2098,5.34967 -4.55181,-1.60735 -6.94951,-6.64237 -5.34216,-11.1942 3.32839,-7.22211 5.22768,-13.7609 7.17631,-20.3233 1.60715,-4.55181 6.64652,-6.96096 11.1983,-5.35361z"/>
      <path id="_323120384" class="fil21" d="M166.349 18.5369l0 0c-0.639741,-0.225814 -1.28896,-0.372475 -1.93719,-0.444917 7.10565,0.839697 6.50479,6.9657 5.12326,10.8778 -1.12236,2.72892 -2.24946,5.44876 -3.32405,8.27775 -0.907007,2.38763 -1.1802,1.86356 -0.780283,4.56761 0.134423,0.908586 -1.16105,4.28514 -1.3385,4.81217 -0.923983,2.74352 -1.72223,3.13574 -2.00015,3.8116 -0.146069,0.3555 -0.199364,0.757978 -0.233315,0.906613 -1.38173,3.91286 -5.66885,4.86665 -10.3091,3.19989 4.72216,3.00546 11.0939,0.845224 12.9766,-4.48687 1.94449,-7.71085 4.57234,-13.9924 7.17651,-20.3233 1.60715,-4.55181 -0.801996,-9.59099 -5.35381,-11.1983z"/>
      <path id="_323120216" class="fil17" d="M166.35 18.5371l0 0c0.639544,0.225814 1.23704,0.519531 1.78697,0.870095 -3.9634,-0.442943 -7.87981,1.88646 -9.26134,5.79853 -0.839895,2.8286 -1.67071,5.65305 -2.61068,8.52962 -0.793311,2.4277 -1.8079,1.64189 -3.81733,3.49519 -0.675074,0.622766 -1.78697,4.06406 -1.97982,4.58557 -1.00373,2.7155 -0.0665205,3.83943 -0.274767,4.53997 -0.109354,0.36833 -0.320561,0.715144 -0.387674,0.852133 -1.38153,3.91286 0.793903,7.02965 5.45191,8.64628 -5.56245,-0.626121 -9.16482,-6.30819 -7.28192,-11.6405 3.32839,-7.22211 5.22768,-13.7609 7.17631,-20.3233 1.60715,-4.55181 6.64652,-6.96096 11.1983,-5.35361z"/>
      <g>
       <path id="_323120048" class="fil22" d="M168.024 39.1699c-1.04952,-1.15552 -6.03421,-3.51789 -8.04207,1.7323 -1.42674,3.73047 5.78037,4.22592 8.04207,-1.7323z"/>
       <path id="_323119880" class="fil23" d="M167.873 39.4741c-1.08979,-0.866937 -5.83465,-1.38943 -7.61255,1.60833 -1.77059,2.98513 5.19392,3.22456 7.61255,-1.60833z"/>
       <path id="_323119712" class="fil24" d="M164.583 39.104c-0.459524,0.00453997 -2.06628,0.313061 -2.28064,0.711789 -0.213379,0.396951 2.08089,-0.102445 2.28064,-0.711789z"/>
       <g>
        <path id="_323119544" class="fil25" d="M154.271 34.5677c1.57873,-0.275951 7.02018,0.850356 5.13234,6.14081 -1.34107,3.7591 -7.28764,-0.147253 -5.13234,-6.14081z"/>
        <path id="_323119376" class="fil26" d="M154.189 34.8948c1.42022,-0.0272398 5.46435,2.39158 4.87909,5.78827 -0.582893,3.38287 -6.1718,-0.578748 -4.87909,-5.78827z"/>
        <path id="_323119232" class="fil24" d="M156.998 36.5657c0.3555,0.277333 1.40561,1.4749 1.31047,1.9135 -0.0947472,0.436824 -1.55543,-1.31916 -1.31047,-1.9135z"/>
       </g>
      </g>
      <path id="_323118944" class="fil27" d="M167.724 19.1605c-1.99048,-0.557824 -4.22869,-0.999978 -7.53833,0.72304 -3.5852,1.86652 -4.88047,5.77208 -6.59757,10.7619 -1.7171,4.98963 -1.42713,3.63671 -1.89771,4.29698 1.30791,-3.75771 2.37677,-7.40114 3.46084,-11.0517 1.60715,-4.55181 6.64652,-6.96096 11.1983,-5.35361l0 0c0.483013,0.170545 0.941748,0.380173 1.37443,0.623358z"/>
      <g>
       <path id="_323118776" class="fil28" d="M162.175 46.849c1.33159,0.445707 1.72677,-0.483803 1.72677,-0.483803 -0.0785612,-0.0098695 0.817787,-0.725409 -5.31335,-2.80965 -6.13113,-2.08404 -5.83682,-0.921614 -5.83682,-0.921614 0,0 -0.303191,0.960105 1.0284,1.40581 3.95688,1.32409 4.43812,1.48516 8.395,2.80926z"/>
       <path id="_323118608" class="fil29" d="M152.788 42.538c0,0 -0.303389,0.960105 1.0282,1.40561 1.33159,0.445707 5.54488,1.85547 5.54488,1.85547m4.57688 0.470183c0,0 -0.394978,0.929312 -1.72657,0.483803 -1.33159,-0.445707 -5.54469,-1.85566 -5.54469,-1.85566"/>
       <path id="_323118512" class="fil30" d="M153.851 43.8476l2.83176 1.0365 2.69437 0.901678 2.86906 0.871082c0.924772,0.288584 1.24218,0.142121 1.77276,-0.351946 -0.00138173,0.00276346 -0.432876,1.01616 -1.84382,0.544007 -0.981029,-0.233907 -1.96225,-0.467814 -2.94348,-0.701722 -0.927733,-0.131659 -1.82625,-0.428731 -2.69437,-0.901678l-2.75714 -1.20586c-1.41094,-0.472157 -1.09966,-1.437 -1.09867,-1.43996 0.0219103,0.621581 0.15653,0.898914 1.16954,1.2479z"/>
       <path id="_323118272" class="fil31" d="M159.572 46.8083c0.592368,0.19818 0.263516,1.1498 0.263516,1.1498 -0.0270424,-0.0252659 -1.78145,0.131857 -2.76386,-0.164623 -0.982608,-0.29648 -2.19517,-1.49483 -2.19517,-1.49483 0,0 0.369712,-0.937998 0.961882,-0.739818 1.75993,0.589012 1.9739,0.660665 3.73363,1.24948z"/>
      </g>
      <g>
       <g>
        <path id="_323118128" class="fil32" d="M159.879 43.2497c-0.133633,-0.106196 -0.715144,-0.17015 -0.933063,0.197193 -0.216932,0.365764 0.636583,0.395175 0.933063,-0.197193z"/>
        <path id="_323117888" class="fil33" d="M159.49 43.3176c0.104814,-0.215945 -0.427744,-0.0757978 -0.531966,0.151003 -0.152188,0.33201 0.427152,0.0651387 0.531966,-0.151003z"/>
       </g>
       <g>
        <path id="_323117744" class="fil32" d="M157.928 42.597c0.174098,-0.00335563 0.669745,0.293124 0.597895,0.70942 -0.0714552,0.414519 -0.756399,-0.0710604 -0.597895,-0.70942z"/>
        <path id="_323117600" class="fil33" d="M158.187 42.8814c0.0604014,-0.230946 0.383529,0.195614 0.315429,0.434456 -0.0994846,0.349775 -0.375831,-0.203509 -0.315429,-0.434456z"/>
       </g>
      </g>
      <path id="_323117312" class="fil32" d="M164.585 49.8066c-0.0193442,0.0838908 -0.0386885,0.167584 -0.0576379,0.25187 -1.6107,4.56168 -6.65126,6.95938 -11.2098,5.34967 -4.55181,-1.60735 -6.94951,-6.64237 -5.34216,-11.1942 0.0408597,-0.0886281 0.0813247,-0.177256 0.12179,-0.265687 -1.17269,4.37101 0.992675,9.62336 5.32835,11.1543 4.33153,1.52958 9.31365,-1.17072 11.1594,-5.29598z"/>
      <path id="_323117072" class="fil19" d="M166.617 18.6368c-4.75315,-1.6561 -9.69896,0.859436 -11.2745,5.32124 -1.94863,6.56243 -3.74113,13.1389 -7.06972,20.361 -1.57557,4.462 0.27378,9.55546 5.31552,11.1794 -4.71012,-1.49464 -7.25764,-6.62619 -5.61279,-11.2844 3.32839,-7.22211 5.22768,-13.7609 7.17631,-20.3233 1.64663,-4.66334 6.8672,-7.04623 11.4652,-5.25393z"/>
     </g>
     <path id="_323116928" class="fil2" d="M148.95 65.2972c20.039,9.63086 17.7349,17.8462 39.9752,16.3017 -1.16085,3.41998 -0.714749,1.95969 -1.25599,3.35287 -2.27393,4.58735 -21.7471,-1.51181 -44.9688,-13.0234 -23.2218,-11.5116 -39.919,-23.3428 -37.6449,-27.9303 0.287992,-0.581116 0.747911,-1.37502 1.59452,-2.55146 11.8404,19.9384 22.2609,14.2198 42.2999,23.8506z"/>
     <path id="_323116760" class="fil34" d="M148.863 65.4741c20.039,9.63086 17.7349,17.8462 39.9752,16.3017 -1.16105,3.41998 -0.714749,1.95969 -1.25599,3.35287 -2.27393,4.58735 -21.7471,-1.51181 -44.9688,-13.0234 -23.2218,-11.5116 -39.919,-23.3428 -37.6449,-27.9303 0.287992,-0.581116 0.747911,-1.37502 1.59452,-2.55146 11.8404,19.9384 22.2609,14.2198 42.2999,23.8506z"/>
     <path id="_323116592" class="fil8" d="M106.248 42.0686l-44.4005 -15.4075 43.3638 17.0912 1.03669 -1.68374zm82.2949 40.6239l39.1776 26.2102 -39.8898 -24.3656 0.712183 -1.84461zm-46.5 -10.8701l3.40162 1.6638 -7.4118 11.6288 4.01018 -13.2926z"/>
     <path id="_323116424" class="fil35" d="M106.005 42.4912l-44.2604 -15.8668 43.2237 17.5505 1.03669 -1.68374zm82.2896 40.7928l39.4263 25.6187 -40.1387 -23.7741 0.712381 -1.84461zm-45.8772 -11.2761l3.40182 1.6638 -7.78605 11.4433 4.38423 -13.1071z"/>
     <g>
      <path id="_322969200" class="fil36 str1" d="M196.7 101.563c1.72815,0.856673 2.64641,2.30433 2.86275,1.8683 0.216142,-0.436035 -0.299243,-2.91723 -2.02739,-3.7739 -1.72835,-0.856673 -4.01491,0.235289 -4.23106,0.671521 -0.21634,0.436035 1.66735,0.37741 3.3957,1.23408z"/>
      <path id="_322969104" class="fil37" d="M196.418 101.911c1.72815,0.856673 3.31398,1.17842 3.12922,1.55109 -0.184757,0.37287 -1.73565,-0.0191468 -3.464,-0.876017 -1.72815,-0.856673 -2.97921,-1.85349 -2.79445,-2.22636 0.184757,-0.37287 1.40107,0.694616 3.12922,1.55129z"/>
      <ellipse id="_322968936" class="fil8" transform="matrix(0.895955 0.444146 -0.444146 0.895955 196.433 101.88)" rx="3.49262" ry="0.718105"/>
     </g>
     <g>
      <path id="_322968792" class="fil36 str1" d="M167.677 93.4267c1.72815,0.85687 2.64641,2.30453 2.86275,1.86849 0.216142,-0.436232 -0.299243,-2.91723 -2.02739,-3.7739 -1.72835,-0.85687 -4.01491,0.235289 -4.23106,0.671324 -0.21634,0.436232 1.66735,0.37741 3.3957,1.23408z"/>
      <path id="_322968624" class="fil37" d="M167.395 93.7755c1.72815,0.856673 3.31398,1.17842 3.12922,1.55129 -0.184757,0.37287 -1.73565,-0.0193442 -3.464,-0.876017 -1.72815,-0.856673 -2.97921,-1.85369 -2.79445,-2.22636 0.184757,-0.37287 1.40107,0.694418 3.12922,1.55109z"/>
      <ellipse id="_322968456" class="fil8" transform="matrix(0.895955 0.444146 -0.444146 0.895955 167.411 93.7439)" rx="3.49262" ry="0.718105"/>
     </g>
     <g>
      <path id="_322968312" class="fil36 str1" d="M86.8445 47.1046c-1.72835,-0.856673 -3.43656,-0.710999 -3.22042,-1.14723 0.21634,-0.436035 2.50291,-1.52819 4.23106,-0.671324 1.72835,0.856673 2.24373,3.33767 2.02739,3.7739 -0.216142,0.436035 -1.30988,-1.09867 -3.03803,-1.95535z"/>
      <path id="_322968144" class="fil37" d="M86.7377 47.5402c-1.72815,-0.856673 -2.94447,-1.92396 -3.12922,-1.55109 -0.184757,0.372672 1.0663,1.36969 2.79445,2.22636 1.72815,0.856673 3.27924,1.24889 3.464,0.876017 0.184757,-0.37287 -1.40107,-0.694418 -3.12922,-1.55129z"/>
      <ellipse id="_322967976" class="fil8" transform="matrix(-0.895955 -0.444146 -0.444146 0.895955 86.7534 47.5086)" rx="3.49262" ry="0.718105"/>
     </g>
     <g>
      <path id="_322967832" class="fil36 str1" d="M110.892 65.2771c-1.72815,-0.85687 -3.43636,-0.711196 -3.22022,-1.14723 0.216142,-0.436035 2.50291,-1.52819 4.23106,-0.671521 1.72815,0.856673 2.24354,3.33787 2.02739,3.7739 -0.216142,0.436232 -1.30988,-1.09848 -3.03823,-1.95515z"/>
      <path id="_322967664" class="fil37" d="M110.785 65.7127c-1.72835,-0.856673 -2.94447,-1.92396 -3.12922,-1.55129 -0.184954,0.37287 1.0663,1.36989 2.79445,2.22656 1.72815,0.856673 3.27904,1.24869 3.464,0.876017 0.184757,-0.37287 -1.40107,-0.694616 -3.12922,-1.55129z"/>
      <ellipse id="_322967496" class="fil8" transform="matrix(-0.895955 -0.444146 -0.444146 0.895955 110.801 65.6811)" rx="3.49262" ry="0.718105"/>
     </g>
     <g>
      <path id="_322967352" class="fil36 str1" d="M200.346 85.7488c1.62215,0.804365 2.48435,2.1634 2.68727,1.75401 0.202917,-0.409387 -0.280886,-2.73859 -1.90324,-3.54276 -1.62235,-0.804167 -3.76877,0.220879 -3.97169,0.630266 -0.203114,0.409387 1.5653,0.354315 3.18765,1.15848z"/>
      <path id="_322967184" class="fil37" d="M200.081 86.0763c1.62215,0.804167 3.11087,1.10617 2.93736,1.45615 -0.173506,0.349973 -1.62926,-0.0181599 -3.25161,-0.822327 -1.62235,-0.804167 -2.79682,-1.73999 -2.62331,-2.08997 0.173506,-0.349973 1.31521,0.651979 2.93756,1.45615z"/>
      <ellipse id="_322967016" class="fil8" transform="matrix(0.841055 0.41693 -0.41693 0.841055 200.096 86.0466)" rx="3.49262" ry="0.718105"/>
     </g>
     <g>
      <path id="_322966872" class="fil36 str1" d="M97.2223 34.6279c-1.62235,-0.804365 -3.22595,-0.667573 -3.02303,-1.07696 0.202917,-0.409387 2.34953,-1.43443 3.97188,-0.630266 1.62215,0.804167 2.10595,3.13317 1.90304,3.54256 -0.202917,0.409584 -1.22974,-1.03117 -2.85189,-1.83533z"/>
      <path id="_322966704" class="fil37" d="M97.122 35.0369c-1.62235,-0.804167 -2.76405,-1.80612 -2.93756,-1.45615 -0.173506,0.349973 1.00097,1.2858 2.62331,2.08997 1.62235,0.804167 3.0783,1.1723 3.2518,0.822327 0.173506,-0.349973 -1.31521,-0.651979 -2.93756,-1.45615z"/>
      <ellipse id="_322966536" class="fil8" transform="matrix(-0.841055 -0.41693 -0.41693 0.841055 97.1368 35.0072)" rx="3.49262" ry="0.718105"/>
     </g>
     <path id="_322966392" class="fil38" d="M151.687 16.1051c0,0 -19.1397,0.239039 -28.1539,16.0247 1.61445,0.318785 4.1215,0.911547 4.1215,0.911547 0,0 5.67378,-14.5437 24.0324,-16.9363z"/>
     <path id="_322966224" class="fil38" d="M180.688 30.4812c0,0 11.3981,15.3775 4.29284,32.1094 -1.23112,-1.09196 -3.22081,-2.72833 -3.22081,-2.72833 0,0 8.13938,-13.3213 -1.07203,-29.3811z"/>
     <path id="_322966056" class="fil38" d="M105 44.5349c-0.0173703,-0.122974 -0.0303981,-0.243579 -0.032372,-0.360039 0.681785,-1.14013 1.38844,-2.25262 2.11543,-3.34083 0.06731,-0.100866 0.133436,-0.203312 0.20114,-0.303586 0.182783,-0.270819 0.36833,-0.537888 0.553482,-0.805154 0.0907994,-0.131067 0.180809,-0.263121 0.272201,-0.393398 0.178046,-0.253251 0.358263,-0.503739 0.53848,-0.753833 0.101656,-0.141331 0.202917,-0.28365 0.30556,-0.423796 0.176269,-0.241605 0.35471,-0.480053 0.533348,-0.718697 0.108959,-0.145674 0.218116,-0.29194 0.327865,-0.436627 0.177651,-0.233907 0.356881,-0.465051 0.536704,-0.695997 0.113302,-0.145476 0.226406,-0.291348 0.3403,-0.435442 0.177454,-0.224433 0.356289,-0.447089 0.535717,-0.668955 0.120013,-0.148437 0.240026,-0.296282 0.361026,-0.443733 0.176862,-0.21555 0.354513,-0.429126 0.533348,-0.641913 0.125343,-0.149227 0.250883,-0.297664 0.377015,-0.445707 0.181204,-0.212194 0.363198,-0.423204 0.546178,-0.632635 0.122579,-0.140542 0.245751,-0.279702 0.368922,-0.418862 0.185547,-0.209628 0.371883,-0.41827 0.559206,-0.62474 0.127514,-0.140344 0.255818,-0.279307 0.383726,-0.418467 0.186534,-0.202325 0.373265,-0.404255 0.56118,-0.604014 0.124948,-0.132449 0.250883,-0.263318 0.37662,-0.39478 0.197587,-0.206667 0.395372,-0.412743 0.594539,-0.616449 0.112118,-0.114486 0.225419,-0.226999 0.338129,-0.340498 0.21101,-0.212392 0.421823,-0.424981 0.634806,-0.634017 0.106985,-0.105209 0.215155,-0.207852 0.322733,-0.312271 0.2193,-0.212786 0.438798,-0.42577 0.660072,-0.635004 0.0953394,-0.0900099 0.191666,-0.177651 0.2874,-0.266871 0.849369,-0.793705 1.71137,-1.56155 2.5864,-2.30038l0.101853 -0.0872464c0.240618,-0.202325 0.483013,-0.400504 0.725409,-0.598487 0.101261,-0.0829038 0.202127,-0.167189 0.303586,-0.249304 0.222459,-0.18002 0.446694,-0.3555 0.670731,-0.531571 0.126724,-0.100077 0.253251,-0.201338 0.380568,-0.299836 0.207852,-0.161268 0.417283,-0.318785 0.626516,-0.477092 0.144292,-0.108959 0.288189,-0.218906 0.432876,-0.326483 0.207852,-0.154359 0.416888,-0.305955 0.625924,-0.457155 0.144095,-0.104419 0.287795,-0.209233 0.432482,-0.312271 0.206075,-0.146661 0.413137,-0.290953 0.620002,-0.434653 0.155346,-0.107775 0.310889,-0.21555 0.46663,-0.321746 0.203707,-0.138765 0.407808,-0.275162 0.612501,-0.410966 0.152385,-0.101261 0.304968,-0.20193 0.457945,-0.301612 0.208839,-0.136002 0.418072,-0.270227 0.6277,-0.403465 0.156333,-0.0990898 0.312863,-0.19739 0.469591,-0.294901 0.206075,-0.127909 0.41215,-0.254831 0.618818,-0.379778 0.159689,-0.0967211 0.319575,-0.191666 0.479658,-0.28661 0.20726,-0.122974 0.414914,-0.244961 0.622963,-0.364974 0.160281,-0.0923786 0.321154,-0.182981 0.481632,-0.273583 0.207457,-0.117052 0.414519,-0.23371 0.622371,-0.347604 0.168571,-0.0925759 0.337734,-0.182191 0.506898,-0.272793 0.200943,-0.107578 0.401491,-0.21555 0.603027,-0.320364 0.171335,-0.0890229 0.343064,-0.175282 0.514991,-0.262529 0.203509,-0.103432 0.407018,-0.20726 0.61112,-0.307731 0.168374,-0.0831012 0.337734,-0.162847 0.5067,-0.243974 0.206667,-0.0990898 0.413137,-0.199759 0.6202,-0.295888 0.147845,-0.0686917 0.29648,-0.134028 0.444325,-0.20114 0.801009,-0.363987 1.60557,-0.705867 2.41309,-1.02603 0.171335,-0.0679022 0.342472,-0.137976 0.513806,-0.203904 0.204496,-0.0783639 0.40919,-0.15278 0.613883,-0.22838 0.178046,-0.0657309 0.355697,-0.133238 0.533743,-0.196995 0.196403,-0.0700735 0.392806,-0.136397 0.589407,-0.203904 0.188113,-0.0647439 0.376028,-0.130277 0.564536,-0.192455 0.194429,-0.0645466 0.389451,-0.125343 0.584275,-0.187126 0.189494,-0.060204 0.378792,-0.120803 0.568286,-0.178243 0.19285,-0.0588222 0.385898,-0.114289 0.578748,-0.170348 0.192653,-0.0560588 0.385503,-0.11192 0.57855,-0.165413 0.193047,-0.0534927 0.38649,-0.104814 0.579932,-0.155741 0.190481,-0.0501371 0.380963,-0.0998794 0.571642,-0.147648 0.196403,-0.0491501 0.392806,-0.0965237 0.589209,-0.14291 0.190679,-0.0452023 0.380963,-0.0894177 0.571839,-0.132054 0.191468,-0.0426363 0.383332,-0.0842856 0.5748,-0.124553 0.198772,-0.0416493 0.397346,-0.0817195 0.595921,-0.120803 0.187521,-0.0367146 0.375041,-0.0728369 0.562364,-0.107183 0.195614,-0.035925 0.391227,-0.0694813 0.586841,-0.10284l0.224433 -0.0377015 -0.136989 0.0264503c-0.192455,0.0377015 -0.385108,0.0769821 -0.577761,0.11725 -0.204101,0.0424389 -0.4084,0.0862595 -0.612501,0.131264 -0.196995,0.044018 -0.394188,0.0890229 -0.590986,0.13541 -0.196008,0.0463867 -0.391819,0.0939577 -0.588025,0.143108 -0.20193,0.0499397 -0.403663,0.101261 -0.605395,0.154359 -0.196206,0.0517162 -0.392017,0.105012 -0.588222,0.159294 -0.198772,0.0548744 -0.397741,0.109946 -0.596315,0.167782 -0.198574,0.0576379 -0.396754,0.117644 -0.595131,0.177848 -0.198377,0.060204 -0.396951,0.120013 -0.594934,0.182783 -0.195219,0.0619805 -0.390043,0.126724 -0.584867,0.191074 -0.200548,0.0663231 -0.401097,0.131659 -0.601448,0.200548 -0.193837,0.0667178 -0.387082,0.136594 -0.580722,0.20568 -0.202325,0.0724422 -0.404452,0.143305 -0.60658,0.218116 -0.183178,0.068297 -0.366159,0.13995 -0.549534,0.210418 -0.210813,0.0805351 -0.421625,0.160083 -0.632043,0.243579 -0.176467,0.0702709 -0.352539,0.144884 -0.529005,0.217129 -0.831407,0.341287 -1.66005,0.70488 -2.48534,1.09137 -0.152188,0.0716526 -0.305362,0.140937 -0.45755,0.213773 -0.213379,0.102248 -0.426363,0.208839 -0.639346,0.314048 -0.173901,0.0860621 -0.348393,0.170742 -0.522097,0.258778 -0.21022,0.106788 -0.420046,0.216734 -0.629674,0.326286 -0.177454,0.0927733 -0.354513,0.183968 -0.531177,0.278517 -0.207654,0.110933 -0.414322,0.225222 -0.621384,0.338919 -0.174493,0.096129 -0.348986,0.191074 -0.522689,0.289176 -0.214366,0.120605 -0.428139,0.244172 -0.641913,0.367738 -0.16561,0.096129 -0.331418,0.191863 -0.496831,0.289571 -0.214563,0.126922 -0.428731,0.256015 -0.642505,0.3857 -0.165215,0.100472 -0.330036,0.200943 -0.494857,0.303191 -0.213379,0.132054 -0.42577,0.266279 -0.638557,0.401491 -0.161465,0.10284 -0.323128,0.20647 -0.484593,0.311284 -0.216142,0.140739 -0.432284,0.282465 -0.647834,0.426165 -0.157912,0.105012 -0.315429,0.211405 -0.472552,0.318193 -0.211405,0.143305 -0.42202,0.2874 -0.632438,0.433863 -0.160676,0.11192 -0.321548,0.225617 -0.481829,0.339511 -0.213576,0.151398 -0.427349,0.303586 -0.640136,0.45834 -0.149424,0.108565 -0.297862,0.218906 -0.446694,0.329049 -0.215945,0.159491 -0.431889,0.318982 -0.646452,0.482027 -0.149622,0.113302 -0.298454,0.22917 -0.447286,0.344051 -0.216142,0.166597 -0.432679,0.332602 -0.647439,0.502555 -0.131462,0.103827 -0.262331,0.210418 -0.393398,0.315627 -0.231539,0.185547 -0.463274,0.370501 -0.693234,0.559798 -0.104814,0.0864568 -0.209233,0.175282 -0.31385,0.262529 -0.250488,0.208444 -0.501173,0.417085 -0.749885,0.629872l-0.105406 0.0917864c-0.904836,0.777717 -1.79645,1.58504 -2.67562,2.41941 -0.0988924,0.0937603 -0.198574,0.186139 -0.297269,0.280491 -0.22917,0.220287 -0.456366,0.443733 -0.683562,0.667573 -0.111131,0.109551 -0.223248,0.217721 -0.333984,0.327865 -0.220485,0.219893 -0.438798,0.443141 -0.657506,0.666191 -0.11646,0.119224 -0.233907,0.23746 -0.349973,0.357671 -0.20647,0.213971 -0.411361,0.430508 -0.616054,0.647242 -0.130277,0.138173 -0.260555,0.275557 -0.39024,0.414717 -0.194627,0.209628 -0.388069,0.421823 -0.581511,0.634017 -0.132646,0.146266 -0.265687,0.29194 -0.397544,0.43939 -0.194429,0.216932 -0.387279,0.43564 -0.579932,0.655532 -0.127711,0.146069 -0.255423,0.292335 -0.382345,0.439588 -0.189889,0.219893 -0.378594,0.441167 -0.566509,0.663823 -0.13087,0.155149 -0.261147,0.310889 -0.391227,0.46742 -0.185547,0.223248 -0.369909,0.447286 -0.553482,0.6731 -0.12554,0.154951 -0.250093,0.309902 -0.374646,0.465643 -0.186336,0.232526 -0.371883,0.466038 -0.556048,0.701524 -0.118434,0.151003 -0.235684,0.303783 -0.353131,0.456168 -0.187126,0.242198 -0.373067,0.484593 -0.557627,0.729554 -0.113894,0.151793 -0.227393,0.30477 -0.340498,0.457748 -0.185744,0.249896 -0.371093,0.499989 -0.554271,0.753241 -0.106591,0.146858 -0.2118,0.296085 -0.317403,0.44393 -0.187323,0.262331 -0.374844,0.524465 -0.559798,0.78956 -0.095142,0.136791 -0.188705,0.275162 -0.283057,0.41215 -0.192653,0.280294 -0.3857,0.559996 -0.575787,0.843448 -0.0704683,0.105209 -0.13916,0.212392 -0.209233,0.317995 -0.497818,0.75028 -0.98695,1.51161 -1.46582,2.2844z"/>
     <rect id="_322965936" class="fil37" transform="matrix(0.895955 0.444146 -0.468622 0.945331 137.401 84.8038)" width="1.0967" height="11.8627"/>
     <rect id="_322965816" class="fil8" transform="matrix(0.895955 0.444146 -0.468622 0.945331 137.565 84.885)" width="1.0967" height="11.8627"/>
     <polygon id="_322965648" class="fil37" points="80.0896,50.3031 80.9615,51.0133 75.9113,61.201 75.0507,60.4679 "/>
     <polygon id="_322965480" class="fil8" points="80.2397,50.4122 81.1253,51.0946 76.0574,61.318 75.1906,60.5974 "/>
     <polygon id="_322965312" class="fil37" points="201.764,109.655 200.655,109.387 195.534,119.719 196.654,119.963 "/>
     <polygon id="_322965144" class="fil8" points="201.584,109.601 200.489,109.305 195.35,119.673 196.464,119.93 "/>
     <g>
      <path id="_322964976" class="fil36 str1" d="M140.242 81.6488c1.72815,0.85687 2.64641,2.30453 2.86275,1.86849 0.216142,-0.436232 -0.299243,-2.91723 -2.02739,-3.7739 -1.72835,-0.85687 -4.01491,0.235289 -4.23106,0.671324 -0.21634,0.436232 1.66735,0.37741 3.3957,1.23408z"/>
      <path id="_322964808" class="fil37" d="M139.96 81.9976c1.72815,0.856673 3.31398,1.17842 3.12922,1.55129 -0.184757,0.37287 -1.73565,-0.0193442 -3.464,-0.876017 -1.72815,-0.856673 -2.97921,-1.85369 -2.79445,-2.22636 0.184757,-0.37287 1.40107,0.694418 3.12922,1.55109z"/>
      <ellipse id="_322964712" class="fil8" transform="matrix(0.895955 0.444146 -0.444146 0.895955 139.975 81.966)" rx="3.49262" ry="0.718105"/>
     </g>
     <rect id="_322964544" class="fil37" transform="matrix(0.855305 0.526146 -0.468622 0.945331 104.371 66.7798)" width="1.0967" height="11.8627"/>
     <rect id="_322964424" class="fil8" transform="matrix(0.855305 0.526146 -0.468622 0.945331 104.527 66.8759)" width="1.0967" height="11.8627"/>
     <rect id="_322964304" class="fil37" transform="matrix(-0.937008 -0.361331 -0.473279 0.954724 171.918 100.03)" width="1.0967" height="11.8627"/>
     <rect id="_322964184" class="fil8" transform="matrix(-0.937008 -0.361331 -0.473279 0.954724 171.747 99.9639)" width="1.0967" height="11.8627"/>
     <path id="_322964016" class="fil39" d="M92.952 53.0841l18.0515 0.971357 4.21823 3.45729 -8.6293 5.26992c0,0 -9.39458,-5.87156 -13.6404,-9.69856z"/>
     <path id="_322963848" class="fil39" d="M187.165 99.788l-11.7027 -13.7786 -5.30565 -1.26389 1.03057 10.0586c0,0 10.3614,3.92175 15.9777,4.9839z"/>
    </g>
   </g>
  </g>
  <path class="fil29" d="M167.03 5.64812l-126.338 0c-19.2753,0 -35.0444,15.7691 -35.0444,35.0429l0 126.338c0,19.2753 15.7691,35.0444 35.0444,35.0444l126.338 0c19.2738,0 35.0429,-15.7691 35.0429,-35.0444l0 -126.338c0,-19.2738 -15.7691,-35.0429 -35.0429,-35.0429z"/>
  <g id="_324023840">
   <path id="_324024176" class="fil40" d="M38.3857 206.416l130.95 0c10.4125,0 19.8766,-4.19691 26.7359,-10.9579 6.60546,-6.51071 10.7978,-15.4025 11.0992,-25.2172l-3.59112 -3.82996c-0.299243,8.30657 -5.8234,19.6616 -11.4265,25.1848 -5.85795,5.77366 -13.9349,9.35747 -22.8175,9.35747l-130.95 0c-8.88255,0 -16.9596,-3.58381 -22.8175,-9.35747 -5.60311,-5.52317 -11.1273,-16.8782 -11.4265,-25.1848l-3.59112 3.82996c0.301415,9.81463 4.49378,18.7065 11.0992,25.2172 6.8593,6.761 16.3234,10.9579 26.7359,10.9579z"/>
   <path id="_324024056" class="fil41" d="M38.3857 1.07282l130.95 0c10.4125,0 19.8766,4.19691 26.7359,10.9579 6.60546,6.51071 10.7978,15.4025 11.0992,25.2172l-3.59112 3.82996c-0.299243,-8.30657 -5.8234,-19.6616 -11.4265,-25.1848 -5.85795,-5.77366 -13.9349,-9.35747 -22.8175,-9.35747l-130.95 0c-8.88255,0 -16.9596,3.58381 -22.8175,9.35747 -5.60311,5.52317 -11.1273,16.8782 -11.4265,25.1848l-3.59112 -3.82996c0.301415,-9.81463 4.49378,-18.7065 11.0992,-25.2172 6.8593,-6.761 16.3234,-10.9579 26.7359,-10.9579z"/>
   <path id="_324023816" class="fil42" d="M170.663 0l-133.605 0c-20.3823,0 -37.0582,16.6759 -37.0582,37.0582l0 133.605c0,20.3823 16.6759,37.0582 37.0582,37.0582l133.605 0c20.3823,0 37.0584,-16.6759 37.0584,-37.0582l0 -133.605c0,-20.3823 -16.6761,-37.0582 -37.0584,-37.0582zm-3.63277 5.64812l-126.338 0c-19.2753,0 -35.0444,15.7691 -35.0444,35.0429l0 126.338c0,19.2753 15.7691,35.0444 35.0444,35.0444l126.338 0c19.2738,0 35.0429,-15.7691 35.0429,-35.0444l0 -126.338c0,-19.2738 -15.7691,-35.0429 -35.0429,-35.0429z"/>
  </g>
  <path class="fil43" d="M115.142 100.013l-109.494 67.0153c-1.10459,2.93322 2.43599,31.1679 30.3635,33.8384 27.3521,0.705472 66.0574,0.0858647 80.485,0.0858647l22.2271 -89.2756c0,0 -9.17153,-11.1099 -23.5816,-11.664z"/>
  <g id="_329284248">
   <g>
    <path id="_327595768" class="fil1" d="M70.1645 142.51c0.719882,-0.119224 12.3821,-5.67003 12.3821,-5.67003l-12.2364 4.3031 -0.145674 1.36693z"/>
    <polygon id="_327593824" class="fil37" points="82.5466,136.84 70.3101,141.143 70.5995,139.728 "/>
   </g>
   <polygon id="_327595888" class="fil44 str2" points="63.7171,131.295 113.135,133.046 101.154,152.137 47.4632,146.806 "/>
   <polygon id="_327595312" class="fil45 str3" points="113.135,133.046 112.613,172.459 101.154,200.867 101.154,152.137 "/>
   <polygon id="_327597736" class="fil46 str4" points="47.4632,146.806 101.154,152.137 101.154,200.867 47.4632,191.683 "/>
   <path id="_327594640" class="fil47" d="M82.4812 175.29c0,0 1.8456,2.31775 0.643689,3.34793 -1.20171,1.02998 -10.9447,5.75116 -10.9447,5.75116 0,0 -4.20618,-1.07282 -1.11585,-2.91841 3.09014,-1.8456 4.54945,-2.87558 4.54945,-2.87558l-8.75583 -0.558022c0,0 -3.1762,-1.8456 0.300428,-3.00447 3.47663,-1.15888 14.6359,-0.472157 15.3228,0.257397zm-6.0198 -10.0807l-0.858449 8.06891 7.12479 -0.600855c0,0 2.36039,-2.23169 -0.601053,-2.83274 -2.96144,-0.601053 -3.7212,0.105604 -3.7212,0.105604 0,0 2.60535,-6.71521 0.888453,-6.28608 -1.7167,0.429126 -2.83255,1.54517 -2.83255,1.54517zm-9.47255 1.56471c0,0 5.57963,1.37324 7.21066,2.40342 1.63103,1.03018 -1.80276,3.86292 -1.80276,3.86292l-7.03893 -3.00447c0,0 -0.0856673,-3.51946 1.63103,-3.26187z"/>
   <path id="_327597568" class="fil48" d="M82.1222 174.931c0,0 1.8456,2.31775 0.643689,3.34793 -1.20171,1.02998 -10.9447,5.75116 -10.9447,5.75116 0,0 -4.20618,-1.07282 -1.11585,-2.91841 3.09014,-1.8456 4.54945,-2.87558 4.54945,-2.87558l-8.75583 -0.558022c0,0 -3.1762,-1.8456 0.300428,-3.00447 3.47663,-1.15888 14.6359,-0.472157 15.3228,0.257397zm-6.0198 -10.0807l-0.858449 8.06891 7.12479 -0.600855c0,0 2.36039,-2.23169 -0.601053,-2.83274 -2.96144,-0.601053 -3.7212,0.105604 -3.7212,0.105604 0,0 2.60535,-6.71521 0.888453,-6.28608 -1.7167,0.429126 -2.83255,1.54517 -2.83255,1.54517zm-9.47255 1.56471c0,0 5.57963,1.37324 7.21066,2.40342 1.63103,1.03018 -1.80276,3.86292 -1.80276,3.86292l-7.03893 -3.00447c0,0 -0.0856673,-3.51946 1.63103,-3.26187z"/>
   <path id="_327595168" class="fil2" d="M84.3014 137.216l-5.05062 2.26584c-2.52916,-0.348788 -10.1766,-2.51889 -4.93337,0.286018l6.17436 0.900099 4.52931 0.457353c0,0 2.00075,-1.16835 0.656717,-1.48279 -1.34423,-0.31464 -1.98416,0.0550718 -1.98416,0.0550718 0,0 3.66613,-3.51512 2.62035,-3.29049 -1.04577,0.22463 -2.01259,0.808904 -2.01259,0.808904zm-7.97278 5.41461c0,0 -1.76072,1.21316 -1.48477,1.75243 0.275951,0.53927 3.75732,3.01079 3.75732,3.01079 0,0 2.56962,-0.561772 1.58465,-1.5278 -0.984779,-0.966224 -1.39555,-1.5053 -1.39555,-1.5053l4.77487 -0.292137c0,0 2.29545,-0.966027 0.872859,-1.5728 -1.42259,-0.60658 -7.49964,-0.247132 -8.10938,0.134817z"/>
   <path id="_327594016" class="fil48" d="M83.9423 137.037l-5.05062 2.26604c-2.52916,-0.348986 -10.1766,-2.51909 -4.93337,0.286018l6.17436 0.899901 4.52931 0.457353c0,0 2.00075,-1.16815 0.656717,-1.48279 -1.34423,-0.31464 -1.98416,0.0552692 -1.98416,0.0552692 0,0 3.66613,-3.51512 2.62035,-3.29049 -1.04577,0.22463 -2.01259,0.808707 -2.01259,0.808707zm-7.97278 5.4148c0,0 -1.76072,1.21316 -1.48477,1.75243 0.275951,0.53927 3.75732,3.01059 3.75732,3.01059 0,0 2.56962,-0.561575 1.58484,-1.5278 -0.984976,-0.966027 -1.39575,-1.5053 -1.39575,-1.5053l4.77487 -0.292137c0,0 2.29545,-0.966027 0.872859,-1.57261 -1.42259,-0.606777 -7.49964,-0.247132 -8.10938,0.134817z"/>
   <g>
    <path id="_327597616" class="fil49" d="M109.96 160.185c0,0 0.635201,0.59671 0.221669,1.47095 -0.413532,0.874241 -3.7664,6.15561 -3.7664,6.15561 0,0 -1.44746,0.733107 -0.383924,-1.11525 1.06334,-1.84836 1.5655,-2.79998 1.5655,-2.79998l-3.01296 2.35901c0,0 -1.09295,0.0386885 0.103432,-1.58465 1.19638,-1.62314 5.03641,-4.64163 5.27268,-4.48569zm-2.07141 -3.20048l-0.295493 4.27113 2.45178 -2.44408c0,0 0.81226,-1.82073 -0.206667,-1.22777 -1.01912,0.592762 -1.28067,1.17289 -1.28067,1.17289 0,0 0.896546,-4.12387 0.305757,-3.39333 -0.590788,0.730343 -0.974712,1.62116 -0.974712,1.62116zm-3.2597 3.6304c0,0 1.92001,-0.997017 2.48139,-0.975896 0.56118,0.0211207 -0.620397,2.46363 -0.620397,2.46363l-2.42217 0.625529c0,0 -0.0296085,-1.7244 0.56118,-2.11326z"/>
    <path id="_327594328" class="fil48" d="M109.837 160.115c0,0 0.635201,0.596908 0.221669,1.47095 -0.413532,0.874241 -3.7664,6.15561 -3.7664,6.15561 0,0 -1.44746,0.733107 -0.383924,-1.11525 1.06334,-1.84836 1.5657,-2.79998 1.5657,-2.79998l-3.01316 2.35901c0,0 -1.09295,0.0386885 0.103432,-1.58445 1.19638,-1.62314 5.03641,-4.64182 5.27268,-4.48589zm-2.07141 -3.20048l-0.295493 4.27113 2.45178 -2.44408c0,0 0.81226,-1.82053 -0.206667,-1.22777 -1.01912,0.59296 -1.28067,1.17289 -1.28067,1.17289 0,0 0.896546,-4.12368 0.305757,-3.39333 -0.590788,0.730343 -0.974712,1.62116 -0.974712,1.62116zm-3.2597 3.6304c0,0 1.92001,-0.997017 2.48139,-0.975896 0.56118,0.0211207 -0.620397,2.46382 -0.620397,2.46382l-2.42217 0.625332c0,0 -0.0296085,-1.7244 0.56118,-2.11326z"/>
   </g>
  </g>
 </g>
</svg>
