<?xml version="1.0" encoding="UTF-8"?>
<!DOCTYPE svg PUBLIC "-//W3C//DTD SVG 1.1//EN" "http://www.w3.org/Graphics/SVG/1.1/DTD/svg11.dtd">
<!-- Creator: CorelDRAW -->
<svg xmlns="http://www.w3.org/2000/svg" xml:space="preserve" width="1243px" height="1243px" style="shape-rendering:geometricPrecision; text-rendering:geometricPrecision; image-rendering:optimizeQuality; fill-rule:evenodd; clip-rule:evenodd"
viewBox="0 0 159.323 159.323"
 xmlns:xlink="http://www.w3.org/1999/xlink">
 <defs>
  <style type="text/css">
   <![CDATA[
    .str0 {stroke:gray;stroke-width:0.267068}
    .fil14 {fill:none}
    .fil28 {fill:black}
    .fil25 {fill:#333333}
    .fil12 {fill:#3C682D}
    .fil24 {fill:#4D4D4D}
    .fil18 {fill:#528C36}
    .fil17 {fill:#61A53E}
    .fil4 {fill:#74E9F0}
    .fil2 {fill:#7DC05C}
    .fil21 {fill:gray}
    .fil9 {fill:#C1FFFF}
    .fil20 {fill:#DDF6A2}
    .fil26 {fill:#E6E6E6}
    .fil27 {fill:white}
    .fil19 {fill:#727376;fill-rule:nonzero}
    .fil15 {fill:#224827;fill-rule:nonzero}
    .fil22 {fill:#FEFEFE;fill-opacity:0.129412}
    .fil23 {fill:#FEFEFE;fill-opacity:0.290196}
    .fil1 {fill:url(#id1)}
    .fil11 {fill:url(#id2)}
    .fil10 {fill:url(#id3)}
    .fil7 {fill:url(#id4)}
    .fil8 {fill:url(#id5)}
    .fil16 {fill:url(#id6)}
    .fil3 {fill:url(#id7)}
    .fil6 {fill:url(#id8)}
    .fil13 {fill:url(#id9)}
    .fil5 {fill:url(#id10)}
    .fil29 {fill:url(#id11)}
    .fil0 {fill:url(#id12)}
   ]]>
  </style>
    <clipPath id="id0">
     <path d="M128.113 4.33213l-96.9016 0c-14.7843,0 -26.8792,12.095 -26.8792,26.878l0 96.9016c0,14.7843 12.095,26.8792 26.8792,26.8792l96.9016 0c14.7831,0 26.878,-12.095 26.878,-26.8792l0 -96.9016c0,-14.7831 -12.095,-26.878 -26.878,-26.878z"/>
    </clipPath>
  <linearGradient id="id1" gradientUnits="userSpaceOnUse" x1="29.2866" y1="141.721" x2="69.7462" y2="105.312">
   <stop offset="0" style="stop-color:#88CA68"/>
   <stop offset="1" style="stop-color:#98D27E"/>
  </linearGradient>
  <linearGradient id="id2" gradientUnits="userSpaceOnUse" x1="14.2032" y1="91.822" x2="13.3747" y2="84.5049">
   <stop offset="0" style="stop-color:black"/>
   <stop offset="1" style="stop-color:#1A1A1A"/>
  </linearGradient>
  <linearGradient id="id3" gradientUnits="userSpaceOnUse" x1="12.7908" y1="91.7042" x2="17.1123" y2="81.5626">
   <stop offset="0" style="stop-color:#88CA68"/>
   <stop offset="1" style="stop-color:#61A53E"/>
  </linearGradient>
  <linearGradient id="id4" gradientUnits="userSpaceOnUse" xlink:href="#id3" x1="36.8034" y1="88.6687" x2="30.3481" y2="80.0774">
  </linearGradient>
  <linearGradient id="id5" gradientUnits="userSpaceOnUse" xlink:href="#id2" x1="33.9567" y1="89.3513" x2="33.1503" y2="83.226">
  </linearGradient>
  <linearGradient id="id6" gradientUnits="userSpaceOnUse" xlink:href="#id3" x1="26.7772" y1="106.133" x2="26.475" y2="103.643">
  </linearGradient>
  <linearGradient id="id7" gradientUnits="userSpaceOnUse" x1="21.9613" y1="126.696" x2="23.161" y2="134.351">
   <stop offset="0" style="stop-color:#3C682D"/>
   <stop offset="1" style="stop-color:#88CA68"/>
  </linearGradient>
  <linearGradient id="id8" gradientUnits="userSpaceOnUse" x1="43.454" y1="68.0711" x2="28.2417" y2="69.9176">
   <stop offset="0" style="stop-color:#AADA94"/>
   <stop offset="1" style="stop-color:#88CA68"/>
  </linearGradient>
  <linearGradient id="id9" gradientUnits="userSpaceOnUse" xlink:href="#id3" x1="25.9625" y1="99.3089" x2="26.3298" y2="102.335">
  </linearGradient>
  <linearGradient id="id10" gradientUnits="userSpaceOnUse" xlink:href="#id1" x1="27.6405" y1="81.7098" x2="40.4924" y2="80.0498">
  </linearGradient>
  <radialGradient id="id11" gradientUnits="userSpaceOnUse" cx="79.6616" cy="79.6615" r="79.6616" fx="79.6616" fy="79.6615">
   <stop offset="0" style="stop-color:black"/>
   <stop offset="0.701961" style="stop-color:#313131"/>
   <stop offset="1" style="stop-color:#626262"/>
  </radialGradient>
  <radialGradient id="id12" gradientUnits="userSpaceOnUse" cx="79.6616" cy="79.6615" r="69.3032" fx="79.6616" fy="79.6615">
   <stop offset="0" style="stop-color:#330099"/>
   <stop offset="0.321569" style="stop-color:#330066"/>
   <stop offset="0.619608" style="stop-color:#330066"/>
   <stop offset="1" style="stop-color:black"/>
  </radialGradient>
 </defs>
 <g id="Layer_x0020_1">
  <metadata id="CorelCorpID_0Corel-Layer"/>
  <g id="_319607376">
   <path id="_256324528" class="fil0" d="M128.113 4.33213l-96.9016 0c-14.7843,0 -26.8792,12.095 -26.8792,26.878l0 96.9016c0,14.7843 12.095,26.8792 26.8792,26.8792l96.9016 0c14.7831,0 26.878,-12.095 26.878,-26.8792l0 -96.9016c0,-14.7831 -12.095,-26.878 -26.878,-26.878z"/>
   <g style="clip-path:url(#id0)">
    <g>
     <path id="_2571154001" class="fil1" d="M3.54198 151.917c0,0 9.71588,-15.5048 17.0251,-17.3564 0.884019,-0.224979 1.59454,-0.252836 2.67356,-0.819675 0.976373,-1.5417 1.84525,-1.36108 1.12717,-8.36328 -0.718237,-7.00221 6.86731,-3.34789 6.86731,-3.34789 0,0 -0.384705,6.78162 2.05373,9.86244 9.05488,13.462 42.8306,-13.4554 43.386,-25.556 0.0946244,-2.06463 -2.04434,-3.08597 -2.76424,-4.08641 -0.719903,-1.00045 -2.13791,-3.55712 -0.635422,-4.06961 2.24812,-0.766836 2.86614,1.1087 3.25947,2.17727 0.393183,1.06857 1.21044,1.94109 2.0943,2.22254 0.884019,0.281451 2.85508,-1.45661 3.05917,-2.01058 0.204086,-0.553818 0.984851,-3.83615 0.773498,-6.68972 -0.211505,-2.85357 1.16184,-4.03433 2.7329,-3.82237 1.57122,0.21211 2.18454,3.56938 1.0389,5.92425 -1.14549,2.35486 -2.2351,5.6493 -1.51187,6.06368 0.723233,0.414531 2.29718,-0.808925 3.44372,-2.29718 1.14655,-1.48825 1.62951,-3.78286 4.12093,-4.17786 2.49157,-0.394849 2.55728,2.24192 1.63496,3.34365 -0.922323,1.10188 -4.41071,2.86281 -5.5247,4.43327 -1.11384,1.57046 -2.46902,4.40692 0.965018,4.28747 3.43388,-0.119454 6.12939,1.19363 5.42705,3.34289 -0.70234,2.14926 -4.52804,0.00121119 -6.50759,-0.480541 -3.0466,-0.741704 -4.55666,0.7196 -5.82735,2.59437 -10.2979,15.1937 -31.1485,29.0031 -43.0216,30.9517 -2.62299,0.430428 -1.02028,8.22052 -0.768804,13.1436l-20.0867 0c0,0 -0.271459,-6.56587 -0.0905366,-9.64215 0.180922,-3.07613 -8.533,2.98862 -9.89014,8.5925 -2.07523,-3.26568 -5.05385,-4.21995 -5.05385,-4.21995z"/>
     <path id="_256758896" class="fil2" d="M19.7044 157.187l-1.12792 0c0,0 -0.271459,-6.56587 -0.0905366,-9.64215 0.180922,-3.07613 -7.38222,1.60528 -8.73921,7.20917l-2.58665 0c3.44327,-6.20494 10.0423,-12.9257 11.5732,-9.76494 1.53095,3.16091 0.674029,6.09548 0.971074,12.1979z"/>
     <path id="_256756592" class="fil3" d="M10.7135 142.672c3.44493,-3.98195 7.08063,-7.40841 9.85366,-8.1109 0.884019,-0.224979 1.59454,-0.252836 2.67356,-0.819675 0.976373,-1.5417 1.84525,-1.36108 1.12717,-8.36328 -0.718237,-7.00221 6.86731,-3.34789 6.86731,-3.34789 0,0 -0.640721,6.42962 1.79771,9.51044 0.139136,0.294168 0.52596,1.18591 1.37622,1.2445 -1.17077,1.12989 -0.984548,1.51293 -4.5129,2.34305 -3.5282,0.830121 -13.0226,2.42693 -16.359,5.28398 -0.797116,0.68281 -1.78394,1.46479 -2.82374,2.25978z"/>
     <path id="_324610272" class="fil4" d="M3.54955 152.198c0,0 9.70831,-15.7855 17.0176,-17.6371 0.884019,-0.224979 1.59454,-0.252836 2.67356,-0.819675 0.976373,-1.5417 1.84525,-1.36108 1.12717,-8.36328 -0.374107,-3.6466 1.504,-4.40253 3.38967,-4.2902 -1.63405,0.106434 -3.56681,-0.0272518 -3.04297,5.08186 0.523841,5.10926 -0.173503,6.05248 -1.14988,7.59418 -1.07902,0.566838 -1.4501,0.572137 -2.33412,0.797116 -7.30924,1.85161 -17.0176,17.6371 -17.0176,17.6371l-0.663431 0zm15.5057 4.9889l-0.478724 0c0,0 -0.198484,-7.91741 -0.0905366,-9.64215 0.0148371,-0.237394 0.178954,0.705671 0.24996,2.54411 0.0218015,0.569715 -0.238908,3.29278 0.319301,7.09804z"/>
     <g>
      <path id="_324596856" class="fil5" d="M18.1041 34.7685l0.000151399 0c11.5934,-1.4071 22.2299,6.92681 23.6369,18.5202 2.0943,17.2543 1.66584,32.7487 6.28246,51.7629 1.41013,11.6179 -6.93892,22.2311 -18.5497,23.6404 -11.5931,1.4071 -22.2007,-6.9306 -23.6075,-18.5238 -0.545642,-19.2309 -3.45493,-35.4446 -6.28246,-51.7627 -1.4071,-11.5934 6.92696,-22.2299 18.5202,-23.6369z"/>
      <path id="_324589680" class="fil6" d="M18.1031 34.7685l0 0.000151399c-1.62936,0.197576 -3.19452,0.577739 -4.67702,1.11702 16.304,-5.81478 21.5839,8.10924 22.7931,18.0733 0.499163,7.12136 0.978795,14.2274 1.68931,21.5143 0.59954,6.14983 -0.556089,5.30729 3.21647,10.739 1.26766,1.82481 2.08794,10.5356 2.26932,11.8686 0.945487,6.93953 -0.363206,8.64761 -0.239362,10.4111 0.065253,0.927319 0.38198,1.85706 0.468126,2.21618 1.20968,9.96584 -7.05792,16.6392 -18.907,18.0129 13.465,1.44056 24.9547,-10.0882 23.3064,-23.6694 -4.07067,-18.803 -5.12456,-35.2419 -6.2823,-51.7627 -1.4071,-11.5932 -12.0438,-19.9273 -23.637,-18.5203z"/>
      <path id="_324600720" class="fil2" d="M18.1041 34.7683l0.000151399 0c1.62921,-0.197727 3.23979,-0.203026 4.80828,-0.0340648 -9.06668,3.29853 -15.053,12.5558 -13.8436,22.5199 1.21876,7.034 2.45297,14.0486 3.50625,21.2938 0.889015,6.11455 -2.15471,5.50124 -4.51851,11.6777 -0.79424,2.07538 0.493107,10.729 0.635725,12.0668 0.742007,6.96451 3.98104,8.39372 4.28263,10.1357 0.158666,0.916116 0.0734285,1.89461 0.0755481,2.26372 1.20953,9.966 9.27395,14.3838 21.1075,12.8832 -12.7295,4.61964 -26.6435,-3.82585 -28.2918,-17.407 -0.545491,-19.2309 -3.45478,-35.4446 -6.28246,-51.7627 -1.40695,-11.5934 6.92711,-22.2299 18.5203,-23.637z"/>
      <g>
       <path id="_324602568" class="fil7" d="M42.941 78.5268c-3.89383,-1.33928 -18.6674,-1.11066 -17.24,12.057 1.01437,9.35616 18.9005,2.86826 17.24,-12.057z"/>
       <path id="_324599832" class="fil8" d="M42.941 79.3255c-3.64675,-0.689169 -15.656,3.16863 -16.3566,11.3468 -0.697647,8.14466 16.3017,1.37031 16.3566,-11.3468z"/>
       <path id="_324611040" class="fil9" d="M34.6047 81.9837c-1.09779,0.49023 -4.58694,2.81966 -4.62691,3.88429 -0.0399694,1.06025 4.87217,-2.39059 4.62691,-3.88429z"/>
       <g>
        <path id="_324607008" class="fil10" d="M4.45961 83.1971c3.46038,-2.23193 17.8598,-5.54378 19.6236,7.58297 1.25328,9.32709 -17.6655,7.30622 -19.6236,-7.58297z"/>
        <path id="_324607104" class="fil11" d="M4.65068 83.9729c3.37605,-1.54155 15.9594,-0.668578 18.596,7.10455 2.62587,7.74103 -15.5007,5.23008 -18.596,-7.10455z"/>
        <path id="_324606696" class="fil9" d="M13.3808 84.5597c1.18318,0.21317 5.12834,1.64041 5.4219,2.66462 0.292352,1.01982 -5.30275,-1.15578 -5.4219,-2.66462z"/>
       </g>
      </g>
      <path id="_324588168" class="fil12" d="M21.7535 34.643c-4.91411,0.92959 -10.2403,2.37591 -15.5629,9.66713 -5.76543,7.89788 -4.37649,17.7555 -2.73684,30.4158 1.63965,12.6604 0.814073,9.41642 0.503705,11.3534 -1.20256,-9.5504 -2.80058,-18.5963 -4.37362,-27.6739 -1.40695,-11.5934 6.92711,-22.2299 18.5203,-23.637l0.000151399 0c1.23057,-0.149279 2.45009,-0.187735 3.64917,-0.125358z"/>
      <g>
       <path id="_324606480" class="fil13" d="M38.0404 100.829c3.72593,-0.452229 3.56848,-2.8245 3.56848,-2.8245 -0.200301,0.060711 1.09961,-2.38454 -16.0945,-0.370625 -17.1942,2.01391 -15.1048,4.15727 -15.1048,4.15727 0,0 0.414379,2.34108 4.14046,1.8887 11.072,-1.34367 12.4182,-1.50718 23.4903,-2.85084z"/>
       <path id="_324605976" class="fil14" d="M10.3805 101.552c0,0 0.414379,2.34108 4.14046,1.8887 3.72578,-0.452078 15.5148,-1.88295 15.5148,-1.88295m11.5439 -3.7924c0,0 0.157758,2.37212 -3.56832,2.8245 -3.72578,0.452078 -15.5148,1.88295 -15.5148,1.88295"/>
       <path id="_324605640" class="fil15" d="M14.4918 103.201l8.0293 -0.774255 7.53937 -0.915056 7.92196 -1.16169c2.56273,-0.358362 3.15016,-0.998628 3.8357,-2.59483 0.000302798,0.00726716 0.170173,2.59483 -3.77756,3.07401 -2.63313,0.532319 -5.26627,1.06449 -7.89925,1.59681 -2.38317,0.692045 -4.89307,1.00499 -7.53937,0.915056l-8.05201 0.339134c-3.94773,0.479027 -4.34818,-1.88023 -4.34954,-1.88734 0.791969,1.2875 1.44526,1.73155 4.29141,1.40816z"/>
       <path id="_324605616" class="fil16" d="M31.7428 103.465c1.65721,-0.200907 2.00028,2.14866 2.00028,2.14866 -0.09523,-0.0249808 -4.11866,2.13957 -6.82961,2.54154 -2.71095,0.401965 -7.04626,-0.857373 -7.04626,-0.857373 0,0 -0.229067,-2.36364 1.42815,-2.56485 4.92425,-0.597572 5.52319,-0.670244 10.4474,-1.26797z"/>
      </g>
      <g>
       <g>
        <path id="_324605304" class="fil17" d="M28.2468 95.6411c-0.44693,-0.0844807 -1.91868,0.388339 -2.00452,1.3906 -0.0855405,0.998174 1.99786,0.168053 2.00452,-1.3906z"/>
        <path id="_324605208" class="fil18" d="M27.3946 96.1906c-0.00560177,-0.565173 -1.11733,0.287053 -1.09704,0.874027 0.0295228,0.85919 1.10249,-0.309006 1.09704,-0.874027z"/>
       </g>
       <g>
        <path id="_324604800" class="fil17" d="M22.7877 96.3037c0.413774,-0.188946 1.95608,-0.0820583 2.27916,0.870696 0.321723,0.948667 -1.89976,0.640872 -2.27916,-0.870696z"/>
        <path id="_324604704" class="fil18" d="M23.7468 96.6333c-0.1299,-0.550033 1.15351,0.0115063 1.27417,0.586217 0.176986,0.841476 -1.14443,-0.0361844 -1.27417,-0.586217z"/>
       </g>
      </g>
      <path id="_324605544" class="fil17" d="M47.878 104.443c0.0481449,0.202572 0.0962898,0.404841 0.145646,0.60817 1.41013,11.6181 -6.93907,22.2313 -18.5497,23.6405 -11.5932,1.4071 -22.2006,-6.9306 -23.6077,-18.5238 -0.00681296,-0.236031 -0.0139287,-0.471457 -0.0213473,-0.706579 2.15486,10.7342 12.4918,19.7922 23.5345,18.4521 11.0325,-1.33897 18.9302,-12.5452 18.4985,-23.4703z"/>
      <path id="_324604776" class="fil4" d="M18.7901 34.6976c-12.0823,1.51762 -20.0997,12.2845 -18.7205,23.6487 2.82768,16.3181 6.00857,32.499 6.55407,51.7299 1.37925,11.3645 10.8606,20.4181 23.5339,18.5202 -11.8155,1.82163 -22.8514,-6.56391 -24.2914,-18.4283 -0.545491,-19.2309 -3.45478,-35.4446 -6.28246,-51.7627 -1.44147,-11.8771 7.31379,-22.652 19.2063,-23.7077z"/>
     </g>
     <path id="_320569568" class="fil17" d="M82.5155 113.426c1.52656,-1.67311 2.689,-3.41026 5.75468,-2.75168 1.57273,0.337771 4.1609,1.47841 5.58102,1.18152 0.534136,-0.111581 0.897342,-0.722476 0.937312,-0.877963 0.189552,-0.739584 0.0567747,-0.321572 0.0290686,-0.287961 -0.158363,0.134291 -0.32899,0.258438 -0.606353,0.392881 -1.23103,0.596967 -6.28624,-1.89597 -7.99251,-1.40044 -3.21405,0.62437 -4.16862,3.41829 -5.59843,5.24416 -1.42981,1.82587 -2.60073,3.93214 -2.11262,3.34107 1.04435,-1.26494 2.4513,-3.13563 4.00784,-4.84159zm7.09441 -5.81706c-3.39967,0.197879 -2.12595,-2.66462 -1.05767,-4.26098 1.07069,-1.59999 4.50988,-3.45508 5.40207,-4.58164 0.291443,-0.368051 0.472971,-0.896888 0.49886,-1.42618 -1.16517,1.92247 -3.88869,3.41284 -5.11381,4.47475 -1.29204,1.11975 -4.54349,4.74727 -2.14714,5.42675 1.35548,0.384251 1.83208,0.700372 2.41769,0.367294zm-4.54515 -5.31547c-0.0797873,-0.0325508 -0.153821,-0.0809985 -0.221345,-0.146857 -0.743369,-0.724142 -0.455408,-2.31898 1.11672,-5.47308 0.899613,-1.80483 1.02921,-3.89989 0.569715,-5.23069 -0.343524,-0.994692 -1.08901,-1.51944 -1.694,-1.40907 -1.41407,0.257984 -0.378195,-0.0343676 0.569563,0.317332 0.947607,0.3517 1.00408,1.32277 0.914299,3.06129 -0.0897796,1.73867 -0.871604,3.30398 -1.61134,5.02554 -0.773044,1.79923 -0.318998,3.70852 0.356393,3.85553zm-7.61038 -0.470548c-0.326719,-0.438149 -0.834814,-1.43905 -1.10446,-2.11459 -0.403327,-1.06267 -1.66448,-2.18333 -3.08884,-1.45949 -0.282511,0.143526 -0.46101,0.344281 -0.611955,0.542009 0.459193,-0.440571 0.741704,-0.732015 1.50112,-0.607262 0.759266,0.124753 1.87795,1.71671 2.25827,2.36955 0.380466,0.652984 0.494621,0.679933 1.04586,1.26978z"/>
    </g>
   </g>
   <path class="fil14" d="M128.113 4.33213l-96.9016 0c-14.7843,0 -26.8792,12.095 -26.8792,26.878l0 96.9016c0,14.7843 12.095,26.8792 26.8792,26.8792l96.9016 0c14.7831,0 26.878,-12.095 26.878,-26.8792l0 -96.9016c0,-14.7831 -12.095,-26.878 -26.878,-26.878z"/>
   <path id="_257308224" class="fil19" d="M30.1617 0.822854l98.9999 0c7.87199,0 15.027,3.21905 20.2127,8.40477 4.99375,4.99375 8.16329,11.8138 8.39114,19.3417l-2.71489 2.9376c-0.226342,-6.37118 -4.40253,-15.0806 -8.63868,-19.3169 -4.42857,-4.42842 -10.535,-7.17722 -17.2503,-7.17722l-98.9999 0c-6.71531,0 -12.8217,2.7488 -17.2503,7.17722 -4.23615,4.2363 -8.41234,12.9457 -8.63868,19.3169l-2.71489 -2.9376c0.227856,-7.52786 3.3974,-14.3479 8.39114,-19.3417 5.18572,-5.18572 12.3407,-8.40477 20.2127,-8.40477z"/>
   <rect id="_257307720" class="fil20" x="29.034" y="155.049" width="101.255" height="0.40257"/>
   <polygon id="_256327408" class="fil21" points="98.8407,5.01282 101.253,5.01282 101.253,35.8343 106.187,35.8343 106.187,37.1178 101.253,37.1178 98.8407,37.1178 93.9069,37.1178 93.9069,35.8343 98.8407,35.8343 "/>
   <g>
    <polygon id="_256601384" class="fil22" points="47.0255,37.1178 141.035,37.1178 154.991,52.479 154.991,111.706 60.0686,111.706 47.0255,99.222 "/>
    <polygon id="_324593832" class="fil23" points="49.8273,60.9125 138.958,60.9125 152.189,75.4765 152.189,109.606 62.1935,109.606 49.8273,97.7696 "/>
    <circle id="_257624496" class="fil14 str0" cx="117.137" cy="62.2494" r="21.7077"/>
    <circle id="_257305920" class="fil24 str0" cx="132.832" cy="47.2526" r="7.13632"/>
    <circle id="_256331416" class="fil25 str0" cx="96.9201" cy="55.795" r="3.04137"/>
    <g>
     <rect id="_256596248" class="fil25" x="50.432" y="40.4599" width="36.305" height="0.994041"/>
     <rect id="_256326184" class="fil25" x="50.432" y="42.6234" width="31.9255" height="0.994041"/>
     <rect id="_256602992" class="fil25" x="50.432" y="44.4986" width="19.7608" height="0.994041"/>
     <rect id="_324592224" class="fil25" x="50.432" y="46.3738" width="35.0333" height="0.994041"/>
     <rect id="_324592368" class="fil25" x="50.432" y="48.249" width="26.5979" height="0.994041"/>
     <rect id="_324592824" class="fil25" x="50.432" y="50.1242" width="15.41" height="0.994041"/>
     <rect id="_324594576" class="fil25" x="50.432" y="51.9993" width="8.92805" height="0.994041"/>
     <rect id="_324595104" class="fil25" x="50.432" y="53.8745" width="21.9807" height="0.994041"/>
    </g>
    <g>
     <rect id="_324596520" class="fil25" transform="matrix(-3.64732E-014 -0.580015 -1.37715 1.53614E-014 148.069 107.051)" width="37.8027" height="1.27433"/>
     <rect id="_324596496" class="fil25" transform="matrix(-3.20734E-014 -0.510047 -1.37715 1.53614E-014 144.25 107.051)" width="37.8027" height="1.27433"/>
     <rect id="_324596784" class="fil25" transform="matrix(-1.98524E-014 -0.315703 -1.37715 1.53614E-014 140.939 107.051)" width="37.8027" height="1.27433"/>
     <rect id="_324596736" class="fil25" transform="matrix(-3.51956E-014 -0.559698 -1.37715 1.53614E-014 137.628 107.051)" width="37.8027" height="1.27433"/>
     <rect id="_324596760" class="fil25" transform="matrix(-2.67211E-014 -0.424932 -1.37715 1.53614E-014 134.318 107.051)" width="37.8027" height="1.27433"/>
     <rect id="_324596280" class="fil25" transform="matrix(-1.54814E-014 -0.246193 -1.37715 1.53614E-014 131.007 107.051)" width="37.8027" height="1.27433"/>
     <rect id="_324596688" class="fil25" transform="matrix(-8.96941E-015 -0.142636 -1.37715 1.53614E-014 127.697 107.051)" width="37.8027" height="1.27433"/>
     <rect id="_324601368" class="fil25" transform="matrix(-2.20825E-014 -0.351167 -1.37715 1.53614E-014 124.386 107.051)" width="37.8027" height="1.27433"/>
    </g>
    <path id="_319947824" class="fil26" d="M65.8191 63.5779c0,0 1.1034,0.27161 1.42603,0.475393 0.32248,0.203632 -0.356545,0.763808 -0.356545,0.763808l-1.39211 -0.59409c0,0 -0.0169567,-0.695982 0.322631,-0.645111zm-1.40907 3.88747c0,0 -0.37335,-0.254653 0.203783,-1.05253 0.577133,-0.797873 0.747003,-1.30703 0.747003,-1.30703l0.797722 -0.203783c0,0 1.25631,1.66357 1.25631,1.83344 0,0.169718 -0.203783,0.8657 -0.747003,0.186675 -0.54322,-0.679025 -0.76396,-0.950635 -0.76396,-0.950635l-1.03542 1.30718c0,0 -0.169718,0.356393 -0.458436,0.186675z"/>
    <path id="_319947632" class="fil26" d="M59.0353 63.7755l-0.169718 1.59575 1.40892 -0.118848c0,0 0.466763,-0.441328 -0.118848,-0.560177 -0.585612,-0.118848 -0.735951,0.0207417 -0.735951,0.0207417 0,0 0.515211,-1.32792 0.175774,-1.24299 -0.339588,0.0847835 -0.560177,0.305523 -0.560177,0.305523zm-1.6722 2.04555c0,0 -0.365023,0.458285 -0.127327,0.662068 0.237697,0.203783 2.16455,1.13731 2.16455,1.13731 0,0 0.831786,-0.21211 0.220588,-0.577133 -0.611047,-0.365023 -0.899765,-0.568655 -0.899765,-0.568655l1.73155 -0.11037c0,0 0.628155,-0.365023 -0.0593484,-0.59409 -0.687503,-0.229218 -2.89445,-0.0934132 -3.03025,0.0508701z"/>
    <path id="_319813272" class="fil26" d="M77.6761 66.2527c0.237697,0.203783 2.1644,1.13731 2.1644,1.13731 0,0 0.831786,-0.21211 0.22074,-0.577133 -0.611198,-0.365023 -0.899765,-0.568655 -0.899765,-0.568655l1.73155 -0.11037c0,0 0.628155,-0.365023 -0.0594998,-0.59409 -0.0460253,-0.0154427 -0.0991664,-0.0290686 -0.157758,-0.0413319 -0.0841779,-0.263434 -1.25116,-1.80907 -1.25116,-1.80907l-0.797873 0.203783c0,0 -0.169718,0.509155 -0.747003,1.30703 -0.577133,0.797873 -0.203632,1.05253 -0.203632,1.05253zm2.02421 -0.834814c-0.365932,-0.00454197 -0.751696,0.00938674 -1.07963,0.0343676l0.549276 -0.693408c0,0 0.156547,0.19258 0.530351,0.65904z"/>
    <path id="_319813080" class="fil26" d="M87.5143 65.8029c0,0 0.376529,0.472819 0.131263,0.68281 -0.245115,0.210142 -2.23223,1.17304 -2.23223,1.17304 0,0 -0.857827,-0.218772 -0.227553,-0.59515 0.630274,-0.376529 0.927925,-0.58652 0.927925,-0.58652l-1.78575 -0.113852c0,0 -0.647837,-0.376378 0.0611652,-0.612712 0.709153,-0.236485 2.98514,-0.0962898 3.12518,0.0523841zm-1.2277 -2.056l-0.175169 1.64571 1.45313 -0.122482c0,0 0.481449,-0.455257 -0.122482,-0.577739 -0.604082,-0.122633 -0.758964,0.0214987 -0.758964,0.0214987 0,0 0.531259,-1.36971 0.181225,-1.28205 -0.350186,0.0875087 -0.577739,0.315061 -0.577739,0.315061zm-1.932 0.319149c0,0 1.13792,0.280088 1.47069,0.49023 0.332624,0.210142 -0.367748,0.787881 -0.367748,0.787881l-1.43557 -0.612863c0,0 -0.0175623,-0.717783 0.332624,-0.665248z"/>
    <path id="_256232696" class="fil27" d="M59.9309 74.4311c0,0 0.376378,0.472668 0.131263,0.68281 -0.245115,0.210142 -2.23223,1.17304 -2.23223,1.17304 0,0 -0.857827,-0.218772 -0.227553,-0.595301 0.630274,-0.376378 0.927925,-0.58652 0.927925,-0.58652l-1.7859 -0.113701c0,0 -0.647685,-0.376529 0.0613166,-0.612863 0.709153,-0.236334 2.98514,-0.0962898 3.12518,0.0525355zm-1.22785 -2.056l-0.175017 1.64571 1.45313 -0.122633c0,0 0.481449,-0.455106 -0.122482,-0.577739 -0.604082,-0.122482 -0.758964,0.0214987 -0.758964,0.0214987 0,0 0.531259,-1.36956 0.181225,-1.28205 -0.350186,0.0875087 -0.57789,0.315213 -0.57789,0.315213zm-1.93185 0.319149c0,0 1.13792,0.280088 1.47054,0.49023 0.332775,0.209991 -0.367597,0.787729 -0.367597,0.787729l-1.43572 -0.612712c0,0 -0.0174109,-0.717783 0.332775,-0.665248z"/>
    <path id="_256232864" class="fil27" d="M72.102 72.2062c0,0 1.10355,0.27161 1.42603,0.475242 0.322631,0.203783 -0.356545,0.76396 -0.356545,0.76396l-1.39196 -0.59409c0,0 -0.0169567,-0.695982 0.32248,-0.645111zm-1.40892 3.88747c0,0 -0.373502,-0.254653 0.203632,-1.05253 0.577285,-0.797873 0.747003,-1.30718 0.747003,-1.30718l0.797873 -0.203632c0,0 1.25616,1.66357 1.25616,1.83329 0,0.16987 -0.203632,0.865851 -0.746852,0.186826 -0.54322,-0.679025 -0.76396,-0.950635 -0.76396,-0.950635l-1.03557 1.30703c0,0 -0.169718,0.356545 -0.458285,0.186826z"/>
    <path id="_324597720" class="fil27" d="M65.3183 72.4037l-0.169718 1.59559 1.40907 -0.118697c0,0 0.466763,-0.44148 -0.118848,-0.560328 -0.585763,-0.118848 -0.735951,0.0208931 -0.735951,0.0208931 0,0 0.515211,-1.32792 0.175774,-1.24314 -0.339588,0.0849349 -0.560328,0.305675 -0.560328,0.305675zm-1.67205 2.04555c0,0 -0.365023,0.458285 -0.127327,0.662068 0.237697,0.203632 2.1644,1.13731 2.1644,1.13731 0,0 0.831786,-0.21211 0.22074,-0.577133 -0.611198,-0.365023 -0.899765,-0.568655 -0.899765,-0.568655l1.73155 -0.11037c0,0 0.628155,-0.365023 -0.0593484,-0.594241 -0.687655,-0.229067 -2.89445,-0.0932618 -3.03025,0.0510215z"/>
    <path id="_324600192" class="fil27" d="M77.1495 72.7474c0,0 -0.365023,0.458436 -0.127327,0.662068 0.102194,0.0876601 0.517179,0.310519 0.956842,0.535801 -0.112187,0.198484 -0.263586,0.440874 -0.464341,0.718389 -0.577133,0.797873 -0.203632,1.05253 -0.203632,1.05253 0.288567,0.169718 0.458285,-0.186675 0.458285,-0.186675l0.957145 -1.20832c0.100529,0.0496589 0.189854,0.093716 0.262677,0.129295 0.123239,0.153064 0.312336,0.38849 0.579556,0.722476 0.54322,0.679025 0.747003,-0.0169567 0.747003,-0.186675 0,-0.132928 -0.769561,-1.18091 -1.104,-1.63011l1.02739 -0.0655558c0,0 0.628155,-0.364872 -0.0594998,-0.59409 -0.687503,-0.229218 -2.8943,-0.0934132 -3.0301,0.0508701z"/>
    <path id="_324595368" class="fil27" d="M83.959 74.8809c0.237697,0.203632 2.16455,1.13731 2.16455,1.13731 0,0 0.831786,-0.21211 0.220588,-0.577133 -0.611047,-0.365023 -0.899765,-0.568655 -0.899765,-0.568655l1.73155 -0.11037c0,0 0.628155,-0.365023 -0.0593484,-0.594241 -0.0460253,-0.0152913 -0.0991664,-0.0289172 -0.157758,-0.0411805 -0.0841779,-0.263434 -1.25131,-1.80907 -1.25131,-1.80907l-0.797873 0.203632c0,0 -0.169718,0.509306 -0.746852,1.30718 -0.577285,0.797873 -0.203783,1.05253 -0.203783,1.05253zm2.02436 -0.834814c-0.366083,-0.00469337 -0.751848,0.00938674 -1.07978,0.0343676l0.549276 -0.693408c0,0 0.156547,0.19258 0.530502,0.65904z"/>
    <path id="_256232528" class="fil27" d="M93.7973 74.4311c0,0 0.376378,0.472668 0.131263,0.68281 -0.245115,0.210142 -2.23223,1.17304 -2.23223,1.17304 0,0 -0.857979,-0.218772 -0.227553,-0.595301 0.630274,-0.376378 0.927925,-0.58652 0.927925,-0.58652l-1.7859 -0.113701c0,0 -0.647837,-0.376529 0.0613166,-0.612863 0.709002,-0.236334 2.98514,-0.0962898 3.12518,0.0525355zm-1.22785 -2.056l-0.175017 1.64571 1.45313 -0.122633c0,0 0.481449,-0.455106 -0.122633,-0.577739 -0.603931,-0.122482 -0.758964,0.0214987 -0.758964,0.0214987 0,0 0.531411,-1.36956 0.181225,-1.28205 -0.350186,0.0875087 -0.577739,0.315213 -0.577739,0.315213zm-1.932 0.319149c0,0 1.13807,0.280088 1.47069,0.49023 0.332624,0.209991 -0.367597,0.787729 -0.367597,0.787729l-1.43572 -0.612712c0,0 -0.0174109,-0.717783 0.332624,-0.665248z"/>
    <path id="_324594096" class="fil27" d="M105.968 72.2062c0,0 1.1034,0.27161 1.42603,0.475242 0.32248,0.203783 -0.356545,0.76396 -0.356545,0.76396l-1.39196 -0.59409c0,0 -0.0169567,-0.695982 0.32248,-0.645111zm-1.40892 3.88747c0,0 -0.373502,-0.254653 0.203632,-1.05253 0.577133,-0.797873 0.747003,-1.30718 0.747003,-1.30718l0.797873 -0.203632c0,0 1.25616,1.66357 1.25616,1.83329 0,0.16987 -0.203783,0.865851 -0.747003,0.186826 -0.54322,-0.679025 -0.763808,-0.950635 -0.763808,-0.950635l-1.03557 1.30703c0,0 -0.169718,0.356545 -0.458285,0.186826z"/>
    <path id="_316208832" class="fil27" d="M99.1847 72.4037l-0.169718 1.59559 1.40892 -0.118697c0,0 0.466915,-0.44148 -0.118848,-0.560328 -0.585612,-0.118848 -0.735799,0.0208931 -0.735799,0.0208931 0,0 0.515211,-1.32792 0.175623,-1.24314 -0.339437,0.0849349 -0.560177,0.305675 -0.560177,0.305675zm-1.6722 2.04555c0,0 -0.364872,0.458285 -0.127175,0.662068 0.237545,0.203632 2.1644,1.13731 2.1644,1.13731 0,0 0.831786,-0.21211 0.220588,-0.577133 -0.611047,-0.365023 -0.899613,-0.568655 -0.899613,-0.568655l1.73155 -0.11037c0,0 0.628003,-0.365023 -0.0594998,-0.594241 -0.687503,-0.229067 -2.8943,-0.0932618 -3.03025,0.0510215z"/>
    <path id="_324594072" class="fil27" d="M111.016 72.7474c0,0 -0.364872,0.458436 -0.127327,0.662068 0.102346,0.0876601 0.517331,0.310519 0.956842,0.535801 -0.112035,0.198484 -0.263586,0.440874 -0.46419,0.718389 -0.577285,0.797873 -0.203783,1.05253 -0.203783,1.05253 0.288567,0.169718 0.458436,-0.186675 0.458436,-0.186675l0.957145 -1.20832c0.100378,0.0496589 0.189854,0.093716 0.262526,0.129295 0.12339,0.153064 0.312488,0.38849 0.579707,0.722476 0.54322,0.679025 0.746852,-0.0169567 0.746852,-0.186675 0,-0.132928 -0.769561,-1.18091 -1.104,-1.63011l1.02739 -0.0655558c0,0 0.628155,-0.364872 -0.0593484,-0.59409 -0.687503,-0.229218 -2.89445,-0.0934132 -3.03025,0.0508701z"/>
    <path id="_251851800" class="fil27" d="M117.825 74.8809c0.237697,0.203632 2.1644,1.13731 2.1644,1.13731 0,0 0.831786,-0.21211 0.22074,-0.577133 -0.611198,-0.365023 -0.899765,-0.568655 -0.899765,-0.568655l1.73155 -0.11037c0,0 0.628155,-0.365023 -0.0593484,-0.594241 -0.0461767,-0.0152913 -0.0991664,-0.0289172 -0.157758,-0.0411805 -0.0841779,-0.263434 -1.25131,-1.80907 -1.25131,-1.80907l-0.797873 0.203632c0,0 -0.169718,0.509306 -0.747003,1.30718 -0.577133,0.797873 -0.203632,1.05253 -0.203632,1.05253zm2.02421 -0.834814c-0.365932,-0.00469337 -0.751696,0.00938674 -1.07963,0.0343676l0.549276 -0.693408c0,0 0.156547,0.19258 0.530351,0.65904z"/>
    <path id="_324603576" class="fil26" d="M86.3128 80.904c0,0 1.10355,0.27161 1.42603,0.475393 0.322631,0.203632 -0.356545,0.763808 -0.356545,0.763808l-1.39196 -0.59409c0,0 -0.0169567,-0.695982 0.32248,-0.645111zm-1.40892 3.88747c0,0 -0.373502,-0.254653 0.203632,-1.05253 0.577285,-0.797873 0.747003,-1.30703 0.747003,-1.30703l0.797873 -0.203783c0,0 1.25616,1.66372 1.25616,1.83344 0,0.169718 -0.203632,0.8657 -0.746852,0.186675 -0.54322,-0.679025 -0.76396,-0.950635 -0.76396,-0.950635l-1.03557 1.30718c0,0 -0.169718,0.356393 -0.458285,0.186675z"/>
    <path id="_324603264" class="fil26" d="M79.529 81.1016l-0.169718 1.59575 1.40907 -0.118848c0,0 0.466763,-0.441328 -0.118848,-0.560177 -0.585763,-0.118848 -0.735951,0.0207417 -0.735951,0.0207417 0,0 0.515211,-1.32792 0.175774,-1.24299 -0.339588,0.0847835 -0.560328,0.305523 -0.560328,0.305523zm-1.67205 2.04555c0,0 -0.365023,0.458285 -0.127327,0.662068 0.237697,0.203783 2.1644,1.13731 2.1644,1.13731 0,0 0.831786,-0.21211 0.22074,-0.577133 -0.611198,-0.365023 -0.899765,-0.568655 -0.899765,-0.568655l1.73155 -0.11037c0,0 0.628155,-0.365023 -0.0593484,-0.59409 -0.687655,-0.229218 -2.89445,-0.0934132 -3.03025,0.0508701z"/>
    <path id="_324603072" class="fil26" d="M98.1697 83.5788c0.237697,0.203783 2.16455,1.13731 2.16455,1.13731 0,0 0.831786,-0.21211 0.220588,-0.577133 -0.611047,-0.365023 -0.899765,-0.568655 -0.899765,-0.568655l1.7317 -0.11037c0,0 0.628003,-0.365023 -0.0594998,-0.59409 -0.0460253,-0.0154427 -0.0991664,-0.0290686 -0.157758,-0.0411805 -0.0841779,-0.263586 -1.25131,-1.80922 -1.25131,-1.80922l-0.797722 0.203783c0,0 -0.16987,0.509155 -0.747003,1.30703 -0.577285,0.797873 -0.203783,1.05253 -0.203783,1.05253zm2.02436 -0.834814c-0.366083,-0.00454197 -0.751696,0.00938674 -1.07978,0.0343676l0.549276 -0.693408c0,0 0.156547,0.192731 0.530502,0.65904z"/>
    <path id="_257111752" class="fil26" d="M108.008 83.129c0,0 0.376378,0.472819 0.131263,0.68281 -0.245115,0.210142 -2.23223,1.17304 -2.23223,1.17304 0,0 -0.857979,-0.218772 -0.227553,-0.59515 0.630274,-0.376529 0.927925,-0.58652 0.927925,-0.58652l-1.7859 -0.113852c0,0 -0.647837,-0.376378 0.0613166,-0.612712 0.709002,-0.236485 2.98514,-0.0962898 3.12518,0.0523841zm-1.22785 -2.056l-0.175017 1.64571 1.45313 -0.122482c0,0 0.481449,-0.455257 -0.122633,-0.577739 -0.603931,-0.122633 -0.758964,0.0214987 -0.758964,0.0214987 0,0 0.531411,-1.36971 0.181225,-1.28205 -0.350035,0.0875087 -0.577739,0.315061 -0.577739,0.315061zm-1.932 0.319149c0,0 1.13807,0.280088 1.47069,0.49023 0.332624,0.210142 -0.367597,0.787881 -0.367597,0.787881l-1.43572 -0.612863c0,0 -0.0174109,-0.717783 0.332624,-0.665248z"/>
    <path id="_257116840" class="fil27" d="M99.1847 92.4131l-0.169718 1.59575 1.40892 -0.118848c0,0 0.466915,-0.441328 -0.118848,-0.560177 -0.585612,-0.118848 -0.735799,0.0208931 -0.735799,0.0208931 0,0 0.515211,-1.32792 0.175623,-1.24314 -0.339437,0.0849349 -0.560177,0.305523 -0.560177,0.305523zm-1.6722 2.0457c0,0 -0.364872,0.458285 -0.127175,0.662068 0.237545,0.203632 2.1644,1.13731 2.1644,1.13731 0,0 0.831786,-0.21211 0.220588,-0.577133 -0.611047,-0.365023 -0.899613,-0.568655 -0.899613,-0.568655l1.73155 -0.11037c0,0 0.628003,-0.365023 -0.0594998,-0.594241 -0.687503,-0.229067 -2.8943,-0.0932618 -3.03025,0.0510215z"/>
    <path id="_324603672" class="fil27" d="M111.016 92.7569c0,0 -0.364872,0.458285 -0.127327,0.662068 0.102346,0.0876601 0.517331,0.310368 0.956842,0.535801 -0.112035,0.198333 -0.263586,0.440874 -0.46419,0.718389 -0.577285,0.797873 -0.203783,1.05253 -0.203783,1.05253 0.288567,0.169718 0.458436,-0.186675 0.458436,-0.186675l0.957145 -1.20832c0.100378,0.0496589 0.189854,0.0935646 0.262526,0.129295 0.12339,0.153064 0.312488,0.388339 0.579707,0.722476 0.54322,0.679025 0.746852,-0.0169567 0.746852,-0.186675 0,-0.132928 -0.769561,-1.18106 -1.104,-1.63011l1.02739 -0.0655558c0,0 0.628155,-0.364872 -0.0593484,-0.59409 -0.687503,-0.229218 -2.89445,-0.0934132 -3.03025,0.0508701z"/>
    <path id="_257118376" class="fil27" d="M117.825 94.8904c0.237697,0.203632 2.1644,1.13731 2.1644,1.13731 0,0 0.831786,-0.21211 0.22074,-0.577133 -0.611198,-0.365023 -0.899765,-0.568655 -0.899765,-0.568655l1.73155 -0.11037c0,0 0.628155,-0.365023 -0.0593484,-0.594241 -0.0461767,-0.0152913 -0.0991664,-0.0289172 -0.157758,-0.0411805 -0.0841779,-0.263434 -1.25131,-1.80907 -1.25131,-1.80907l-0.797873 0.203632c0,0 -0.169718,0.509306 -0.747003,1.30718 -0.577133,0.797873 -0.203632,1.05253 -0.203632,1.05253zm2.02421 -0.834814c-0.365932,-0.00469337 -0.751696,0.00938674 -1.07963,0.0342162l0.549276 -0.693256c0,0 0.156547,0.19258 0.530351,0.65904z"/>
    <path id="_324607536" class="fil26" d="M98.1697 103.588c0.237697,0.203632 2.16455,1.13731 2.16455,1.13731 0,0 0.831786,-0.21211 0.220588,-0.577133 -0.611047,-0.365023 -0.899765,-0.568655 -0.899765,-0.568655l1.7317 -0.11037c0,0 0.628003,-0.365023 -0.0594998,-0.59409 -0.0460253,-0.0154427 -0.0991664,-0.0290686 -0.157758,-0.0413319 -0.0841779,-0.263434 -1.25131,-1.80907 -1.25131,-1.80907l-0.797722 0.203783c0,0 -0.16987,0.509155 -0.747003,1.30703 -0.577285,0.797873 -0.203783,1.05253 -0.203783,1.05253zm2.02436 -0.834814c-0.366083,-0.00469337 -0.751696,0.00938674 -1.07978,0.0343676l0.549276 -0.693408c0,0 0.156547,0.19258 0.530502,0.65904z"/>
    <path id="_324611544" class="fil27" d="M115.095 46.8218c0,0 1.10355,0.27161 1.42603,0.475393 0.322631,0.203632 -0.356545,0.763808 -0.356545,0.763808l-1.39196 -0.59409c0,0 -0.0169567,-0.695982 0.32248,-0.645111zm-1.40892 3.88747c0,0 -0.373502,-0.254653 0.203632,-1.05253 0.577285,-0.797873 0.747003,-1.30703 0.747003,-1.30703l0.797873 -0.203783c0,0 1.25616,1.66357 1.25616,1.83344 0,0.169718 -0.203632,0.8657 -0.746852,0.186675 -0.54322,-0.679025 -0.76396,-0.950635 -0.76396,-0.950635l-1.03557 1.30718c0,0 -0.169718,0.356393 -0.458285,0.186675z"/>
    <path id="_315648704" class="fil27" d="M120.143 47.3631c0,0 -0.365023,0.458436 -0.127327,0.662068 0.102194,0.0876601 0.517179,0.310519 0.956842,0.535801 -0.112187,0.198484 -0.263586,0.441025 -0.464341,0.718389 -0.577133,0.797873 -0.203632,1.05253 -0.203632,1.05253 0.288567,0.16987 0.458285,-0.186675 0.458285,-0.186675l0.957145 -1.20832c0.100529,0.0496589 0.189854,0.093716 0.262677,0.129295 0.123239,0.153064 0.312336,0.38849 0.579556,0.722476 0.54322,0.679025 0.747003,-0.0169567 0.747003,-0.186675 0,-0.132928 -0.769561,-1.18091 -1.104,-1.63011l1.02739 -0.0654044c0,0 0.628155,-0.365023 -0.0594998,-0.594241 -0.687503,-0.229218 -2.8943,-0.0934132 -3.0301,0.0508701z"/>
    <path id="_257315088" class="fil27" d="M126.952 49.4966c0.237697,0.203783 2.16455,1.13731 2.16455,1.13731 0,0 0.831786,-0.21211 0.220588,-0.577133 -0.611047,-0.365023 -0.899765,-0.568655 -0.899765,-0.568655l1.73155 -0.11037c0,0 0.628155,-0.365023 -0.0593484,-0.59409 -0.0460253,-0.0154427 -0.0991664,-0.0290686 -0.157758,-0.0413319 -0.0841779,-0.263434 -1.25131,-1.80907 -1.25131,-1.80907l-0.797873 0.203783c0,0 -0.169718,0.509155 -0.746852,1.30703 -0.577285,0.797873 -0.203783,1.05253 -0.203783,1.05253zm2.02436 -0.834814c-0.366083,-0.00469337 -0.751848,0.00938674 -1.07978,0.0343676l0.549276 -0.693408c0,0 0.156547,0.19258 0.530502,0.65904z"/>
    <path id="_256232240" class="fil28" d="M53.9084 58.2297c0,0 0.376378,0.472668 0.131263,0.68281 -0.245115,0.209991 -2.23223,1.17304 -2.23223,1.17304 0,0 -0.857827,-0.218923 -0.227553,-0.595301 0.630274,-0.376378 0.927925,-0.58652 0.927925,-0.58652l-1.7859 -0.113852c0,0 -0.647685,-0.376378 0.0613166,-0.612712 0.709153,-0.236334 2.98514,-0.0962898 3.12518,0.0525355zm-1.22785 -2.05615l-0.175017 1.64571 1.45313 -0.122482c0,0 0.481449,-0.455257 -0.122482,-0.577739 -0.604082,-0.122633 -0.758964,0.0214987 -0.758964,0.0214987 0,0 0.531259,-1.36956 0.181225,-1.28205 -0.350186,0.0875087 -0.57789,0.315061 -0.57789,0.315061zm-1.93185 0.319149c0,0 1.13792,0.280088 1.47054,0.49023 0.332775,0.210142 -0.367597,0.787881 -0.367597,0.787881l-1.43572 -0.612712c0,0 -0.0174109,-0.717934 0.332775,-0.665399z"/>
    <path id="_257316528" class="fil28" d="M66.0795 56.0046c0,0 1.10355,0.27161 1.42603,0.475393 0.322631,0.203783 -0.356545,0.76396 -0.356545,0.76396l-1.39196 -0.594241c0,0 -0.0169567,-0.695982 0.32248,-0.645111zm-1.40892 3.88747c0,0 -0.373502,-0.254653 0.203632,-1.05253 0.577285,-0.797873 0.747003,-1.30703 0.747003,-1.30703l0.797873 -0.203783c0,0 1.25616,1.66372 1.25616,1.83344 0,0.169718 -0.203632,0.8657 -0.746852,0.186675 -0.54322,-0.679025 -0.76396,-0.950635 -0.76396,-0.950635l-1.03557 1.30718c0,0 -0.169718,0.356545 -0.458285,0.186675z"/>
    <path id="_318134824" class="fil28" d="M59.2957 56.2022l-0.169718 1.59575 1.40907 -0.118848c0,0 0.466763,-0.441328 -0.118848,-0.560177 -0.585763,-0.118848 -0.735951,0.0208931 -0.735951,0.0208931 0,0 0.515211,-1.32807 0.175774,-1.24314 -0.339588,0.0847835 -0.560328,0.305523 -0.560328,0.305523zm-1.67205 2.04555c0,0 -0.365023,0.458436 -0.127327,0.662068 0.237697,0.203783 2.1644,1.13746 2.1644,1.13746 0,0 0.831786,-0.212261 0.22074,-0.577133 -0.611198,-0.365023 -0.899765,-0.568806 -0.899765,-0.568806l1.73155 -0.11037c0,0 0.628155,-0.364872 -0.0593484,-0.59409 -0.687655,-0.229218 -2.89445,-0.0934132 -3.03025,0.0508701z"/>
    <path id="_324607080" class="fil26" d="M65.8191 85.7208c0,0 1.1034,0.27161 1.42603,0.475393 0.32248,0.203632 -0.356545,0.763808 -0.356545,0.763808l-1.39211 -0.59409c0,0 -0.0169567,-0.695982 0.322631,-0.645111zm-1.40907 3.88747c0,0 -0.37335,-0.254653 0.203783,-1.05253 0.577133,-0.797873 0.747003,-1.30703 0.747003,-1.30703l0.797722 -0.203783c0,0 1.25631,1.66357 1.25631,1.83344 0,0.169718 -0.203783,0.8657 -0.747003,0.186675 -0.54322,-0.679025 -0.76396,-0.950635 -0.76396,-0.950635l-1.03542 1.30718c0,0 -0.169718,0.356393 -0.458436,0.186675z"/>
    <path id="_324606552" class="fil27" d="M65.3183 94.5466l-0.169718 1.59559 1.40907 -0.118697c0,0 0.466763,-0.44148 -0.118848,-0.560328 -0.585763,-0.118848 -0.735951,0.0208931 -0.735951,0.0208931 0,0 0.515211,-1.32792 0.175774,-1.24314 -0.339588,0.0849349 -0.560328,0.305675 -0.560328,0.305675zm-1.67205 2.04555c0,0 -0.365023,0.458285 -0.127327,0.662068 0.237697,0.203632 2.1644,1.13731 2.1644,1.13731 0,0 0.831786,-0.21211 0.22074,-0.577133 -0.611198,-0.365023 -0.899765,-0.568655 -0.899765,-0.568655l1.73155 -0.11037c0,0 0.628155,-0.365023 -0.0593484,-0.594241 -0.687655,-0.229067 -2.89445,-0.0932618 -3.03025,0.0510215z"/>
   </g>
   <polygon id="_318134920" class="fil21" points="152.466,143.811 154.159,143.811 141.741,126.467 141.741,112.989 145.202,112.989 145.202,111.706 141.741,111.706 140.049,111.706 136.588,111.706 136.588,112.989 140.049,112.989 140.049,126.401 "/>
   <path id="_256598696" class="fil29" d="M130.899 0l-102.476 0c-15.6333,0 -28.4238,12.7905 -28.4238,28.4238l0 102.476c0,15.6333 12.7905,28.4238 28.4238,28.4238l102.476 0c15.6333,0 28.424,-12.7905 28.424,-28.4238l0 -102.476c0,-15.6333 -12.7906,-28.4238 -28.424,-28.4238zm-2.78635 4.33213l-96.9016 0c-14.7843,0 -26.8792,12.095 -26.8792,26.878l0 96.9016c0,14.7843 12.095,26.8792 26.8792,26.8792l96.9016 0c14.7831,0 26.878,-12.095 26.878,-26.8792l0 -96.9016c0,-14.7831 -12.095,-26.878 -26.878,-26.878z"/>
  </g>
 </g>
</svg>
