<?xml version="1.0" encoding="UTF-8"?>
<!DOCTYPE svg PUBLIC "-//W3C//DTD SVG 1.1//EN" "http://www.w3.org/Graphics/SVG/1.1/DTD/svg11.dtd">
<!-- Creator: CorelDRAW -->
<svg xmlns="http://www.w3.org/2000/svg" xml:space="preserve" width="4.14307in" height="4.14307in" style="shape-rendering:geometricPrecision; text-rendering:geometricPrecision; image-rendering:optimizeQuality; fill-rule:evenodd; clip-rule:evenodd"
viewBox="0 0 0.501622 0.501621"
 xmlns:xlink="http://www.w3.org/1999/xlink">
 <defs>
  <style type="text/css">
   <![CDATA[
    .str0 {stroke:gray;stroke-width:0.000840851}
    .fil14 {fill:none}
    .fil28 {fill:black}
    .fil25 {fill:#333333}
    .fil12 {fill:#3C682D}
    .fil24 {fill:#4D4D4D}
    .fil18 {fill:#528C36}
    .fil17 {fill:#61A53E}
    .fil4 {fill:#74E9F0}
    .fil2 {fill:#7DC05C}
    .fil21 {fill:gray}
    .fil9 {fill:#C1FFFF}
    .fil20 {fill:#DDF6A2}
    .fil26 {fill:#E6E6E6}
    .fil27 {fill:white}
    .fil19 {fill:#727376;fill-rule:nonzero}
    .fil15 {fill:#224827;fill-rule:nonzero}
    .fil22 {fill:#FEFEFE;fill-opacity:0.129412}
    .fil23 {fill:#FEFEFE;fill-opacity:0.290196}
    .fil1 {fill:url(#id0)}
    .fil11 {fill:url(#id1)}
    .fil10 {fill:url(#id2)}
    .fil7 {fill:url(#id3)}
    .fil8 {fill:url(#id4)}
    .fil16 {fill:url(#id5)}
    .fil3 {fill:url(#id6)}
    .fil6 {fill:url(#id7)}
    .fil13 {fill:url(#id8)}
    .fil5 {fill:url(#id9)}
    .fil29 {fill:url(#id10)}
    .fil0 {fill:url(#id11)}
   ]]>
  </style>
  <linearGradient id="id0" gradientUnits="userSpaceOnUse" x1="0.0973766" y1="0.447064" x2="0.226683" y2="0.330706">
   <stop offset="0" style="stop-color:#88CA68"/>
   <stop offset="1" style="stop-color:#98D27E"/>
  </linearGradient>
  <linearGradient id="id1" gradientUnits="userSpaceOnUse" x1="0.0495048" y1="0.298178" x2="0.0465952" y2="0.272478">
   <stop offset="0" style="stop-color:black"/>
   <stop offset="1" style="stop-color:#1A1A1A"/>
  </linearGradient>
  <linearGradient id="id2" gradientUnits="userSpaceOnUse" x1="0.0394304" y1="0.297378" x2="0.0543807" y2="0.262293">
   <stop offset="0" style="stop-color:#88CA68"/>
   <stop offset="1" style="stop-color:#61A53E"/>
  </linearGradient>
  <linearGradient id="id3" gradientUnits="userSpaceOnUse" xlink:href="#id2" x1="0.11935" y1="0.293378" x2="0.097501" y2="0.264299">
  </linearGradient>
  <linearGradient id="id4" gradientUnits="userSpaceOnUse" xlink:href="#id1" x1="0.109904" y1="0.291149" x2="0.106798" y2="0.267553">
  </linearGradient>
  <linearGradient id="id5" gradientUnits="userSpaceOnUse" xlink:href="#id2" x1="0.0844302" y1="0.336714" x2="0.0836389" y2="0.330194">
  </linearGradient>
  <linearGradient id="id6" gradientUnits="userSpaceOnUse" x1="0.0691442" y1="0.398897" x2="0.0729214" y2="0.422997">
   <stop offset="0" style="stop-color:#3C682D"/>
   <stop offset="1" style="stop-color:#88CA68"/>
  </linearGradient>
  <linearGradient id="id7" gradientUnits="userSpaceOnUse" x1="0.118848" y1="0.249873" x2="0.0798093" y2="0.254611">
   <stop offset="0" style="stop-color:#AADA94"/>
   <stop offset="1" style="stop-color:#88CA68"/>
  </linearGradient>
  <linearGradient id="id8" gradientUnits="userSpaceOnUse" xlink:href="#id2" x1="0.0797097" y1="0.309339" x2="0.0809519" y2="0.319572">
  </linearGradient>
  <linearGradient id="id9" gradientUnits="userSpaceOnUse" xlink:href="#id0" x1="0.0655568" y1="0.25925" x2="0.0954041" y2="0.255396">
  </linearGradient>
  <radialGradient id="id10" gradientUnits="userSpaceOnUse" cx="0.250811" cy="0.25081" r="0.250811" fx="0.250811" fy="0.25081">
   <stop offset="0" style="stop-color:black"/>
   <stop offset="0.701961" style="stop-color:#313131"/>
   <stop offset="1" style="stop-color:#626262"/>
  </radialGradient>
  <radialGradient id="id11" gradientUnits="userSpaceOnUse" cx="0.250813" cy="0.250809" r="0.0288916" fx="0.250813" fy="0.250809">
   <stop offset="0" style="stop-color:#330099"/>
   <stop offset="0.321569" style="stop-color:#330066"/>
   <stop offset="0.619608" style="stop-color:#330066"/>
   <stop offset="1" style="stop-color:black"/>
  </radialGradient>
 </defs>
 <g id="Layer_x0020_1">
  <metadata id="CorelCorpID_0Corel-Layer"/>
  <g id="_347017416">
   <rect id="_348826472" class="fil0" x="0.0136432" y="0.0136394" width="0.474342" height="0.474342" rx="0.0846261" ry="0.0846261"/>
   <path id="_347014704" class="fil1" d="M0.0234113 0.460724c0.0110192,-0.0146157 0.0275426,-0.0335697 0.0413433,-0.0370656 0.00278329,-0.000708336 0.00502032,-0.000796044 0.00841756,-0.00258071 0.00307406,-0.00485396 0.00580969,-0.00428529 0.00354883,-0.0263314 -0.00226134,-0.0220461 0.0216214,-0.0105407 0.0216214,-0.0105407 0,0 -0.00121123,0.0213516 0.00646607,0.0310514 0.0285088,0.0423843 0.13485,-0.0423638 0.136599,-0.0804619 0.00029792,-0.00650039 -0.00643651,-0.00971602 -0.00870309,-0.0128659 -0.00226658,-0.00314985 -0.0067311,-0.0111994 -0.0020006,-0.012813 0.00707811,-0.00241435 0.00902389,0.00349067 0.0102623,0.00685503 0.00123792,0.00336436 0.003811,0.00611142 0.00659381,0.00699756 0.00278329,0.000886135 0.00898909,-0.00458607 0.00963165,-0.00633021 0.000642555,-0.00174367 0.00310076,-0.0120779 0.00243532,-0.0210623 -0.000665912,-0.00898433 0.00365799,-0.0127019 0.00860442,-0.0120346 0.00494691,0.000667819 0.00687791,0.011238 0.00327093,0.0186522 -0.00360651,0.00741417 -0.00703712,0.0177866 -0.00476005,0.0190912 0.00227707,0.00130513 0.00723256,-0.00254686 0.0108424,-0.00723256 0.00360984,-0.00468569 0.00513043,-0.0119101 0.0129746,-0.0131538 0.0078446,-0.00124316 0.00805148,0.00705857 0.00514759,0.0105273 -0.00290389,0.00346922 -0.0138869,0.00901341 -0.0173943,0.0139579 -0.00350688,0.00494453 -0.00777358,0.013875 0.00303831,0.0134989 0.0108114,-0.000376095 0.0192981,0.00375809 0.0170868,0.0105249 -0.00221128,0.00676685 -0.0142563,3.81338e-006 -0.0204888,-0.00151296 -0.00959209,-0.00233522 -0.0143464,0.00226563 -0.0183471,0.00816826 -0.0324223,0.0478365 -0.0980697,0.0913148 -0.135451,0.09745 -0.00825836,0.00135518 -0.0032123,0.0258819 -0.00242054,0.0413819l-0.0632421 0c0,0 -0.000854674,-0.0206723 -0.00028505,-0.0303579 0.000395162,-0.00671966 -0.0126895,0.000416135 -0.0221672,0.0113081l-0.0126237 -0.0151215z"/>
   <path id="_346464768" class="fil2" d="M0.0620385 0.494895l-0.00355121 0c0,0 -0.000854674,-0.0206723 -0.00028505,-0.0303579 0.000440446,-0.00748758 -0.01369,-0.000375618 -0.0221,0.0113887l-0.00331574 -0.00397164c0.0104992,-0.013293 0.0226534,-0.0227749 0.0261946,-0.0154637 0.00482011,0.00995197 0.00212215,0.0191913 0.00305738,0.0384046z"/>
   <path id="_346202504" class="fil3" d="M0.0337308 0.449195c0.0108462,-0.012537 0.022293,-0.023325 0.0310238,-0.0255368 0.00278329,-0.000708336 0.00502032,-0.000796044 0.00841756,-0.00258071 0.00307406,-0.00485396 0.00580969,-0.00428529 0.00354883,-0.0263314 -0.00226134,-0.0220461 0.0216214,-0.0105407 0.0216214,-0.0105407 0,0 -0.00201728,0.0202433 0.00566001,0.0299432 0.000438062,0.000926175 0.00165596,0.00373378 0.00433296,0.00391825 -0.00368611,0.00355741 -0.0030998,0.00476339 -0.0142087,0.00737699 -0.0111084,0.0026136 -0.041001,0.00764106 -0.0515054,0.0166364 -0.00250968,0.00214979 -0.00561664,0.00461181 -0.00889042,0.00711482z"/>
   <path id="_346470096" class="fil4" d="M0.0236439 0.461002c0.0110116,-0.0148288 0.0274011,-0.0338709 0.0411106,-0.037344 0.00278329,-0.000708336 0.00502032,-0.000796044 0.00841756,-0.00258071 0.00307406,-0.00485396 0.00580969,-0.00428529 0.00354883,-0.0263314 -0.00117786,-0.0114811 0.00473527,-0.0138612 0.0106722,-0.0135075 -0.00514473,0.000335101 -0.0112299,-8.58011e-005 -0.00958065,0.016 0.00164929,0.0160863 -0.000546267,0.0190559 -0.00362033,0.0239099 -0.00339725,0.00178466 -0.00456557,0.00180135 -0.00734886,0.00250968 -0.0141233,0.00357791 -0.0310886,0.0236768 -0.0420907,0.0386725l-0.00110874 -0.00132849zm0.0363506 0.0338929l-0.00150724 0c0,0 -0.000624918,-0.0249276 -0.00028505,-0.0303579 4.67139e-005,-0.000747423 0.000563427,0.00222177 0.000786987,0.00801001 6.86409e-005,0.00179372 -0.00075219,0.0103672 0.0010053,0.0223478z"/>
   <g>
    <path id="_349366944" class="fil5" d="M0.0570001 0.109466l4.76673e-007 0c0.0365007,-0.0044302 0.0699899,0.0218097 0.0744196,0.0583104 0.00659334,0.0543245 0.00524435,0.103108 0.01978,0.162973 0.00443973,0.0365789 -0.0218473,0.0699942 -0.0584029,0.074431 -0.0365007,0.0044302 -0.0698974,-0.0218206 -0.0743276,-0.0583214 -0.00128606,-0.0453473 -0.00674778,-0.0853668 -0.0131485,-0.124186l0 -0.0767095c0.00974224,-0.019362 0.02867,-0.0337041 0.051679,-0.0364969z"/>
    <path id="_349363320" class="fil6" d="M0.0569967 0.109467l-4.76673e-007 0c-0.00512948,0.000622535 -0.0100573,0.00181946 -0.0147249,0.00351737 0.0513324,-0.0183076 0.0679559,0.0255315 0.0717631,0.0569028 0.00157159,0.0224208 0.00308217,0.0447948 0.00531919,0.0677366 0.00188715,0.019362 -0.00175082,0.0167098 0.0101269,0.0338109 0.0039907,0.00574581 0.00657332,0.0331712 0.00714485,0.0373678 0.00297634,0.0218492 -0.00114401,0.0272271 -0.000754096,0.0327794 0.000205446,0.00291962 0.00120265,0.00584687 0.00147435,0.00697706 0.00380814,0.0313775 -0.0222225,0.0523882 -0.0595283,0.0567131 0.0423938,0.00453506 0.0785685,-0.0317626 0.073379,-0.0745221 -0.0128163,-0.0591999 -0.0161339,-0.110958 -0.01978,-0.162973 -0.00442972,-0.0365007 -0.0379188,-0.0627406 -0.0744196,-0.0583104z"/>
    <path id="_349367856" class="fil2" d="M0.0570001 0.109466l4.76673e-007 0c0.00512948,-0.000622535 0.0102003,-0.000639218 0.0151387,-0.000107251 -0.028546,0.0103853 -0.0473937,0.0395314 -0.043586,0.0709027 0.00383722,0.0221462 0.00772305,0.0442314 0.0110393,0.0670426 0.00279902,0.0192514 -0.00678401,0.0173204 -0.0142263,0.0367667 -0.00250063,0.00653423 0.00155252,0.0337799 0.00200155,0.0379918 0.00233617,0.0219274 0.0125341,0.0264272 0.0134836,0.0319118 0.000499553,0.00288435 0.000231186,0.00596508 0.00023786,0.00712721 0.00380814,0.0313775 0.0291986,0.0452868 0.0664558,0.040562 -0.0400782,0.0145447 -0.0838858,-0.0120455 -0.0890754,-0.054805 -0.00128606,-0.0453473 -0.00674778,-0.0853668 -0.0131485,-0.124186l0 -0.0767095c0.00974224,-0.019362 0.02867,-0.0337041 0.051679,-0.0364969z"/>
    <g>
     <path id="_349364136" class="fil7" d="M0.135198 0.247238c-0.0122591,-0.00421665 -0.0587733,-0.00349687 -0.0542787,0.0379608 0.00319323,0.0294574 0.0595069,0.00903057 0.0542787,-0.0379608z"/>
     <path id="_349367568" class="fil8" d="M0.135198 0.249753c-0.0114816,-0.00216981 -0.0492923,0.00997581 -0.0514978,0.0357247 -0.00219698,0.0256426 0.0513253,0.00431484 0.0514978,-0.0357247z"/>
     <path id="_349366560" class="fil9" d="M0.108951 0.258122c-0.00345635,0.00154347 -0.0144418,0.00887755 -0.0145676,0.0122295 -0.000125842,0.00333814 0.0153398,-0.00752666 0.0145676,-0.0122295z"/>
     <g>
      <path id="_347017248" class="fil10" d="M0.0140409 0.261942c0.0108948,-0.00702663 0.0562302,-0.0174543 0.0617835,0.0238746 0.0039459,0.0293659 -0.0556187,0.0230033 -0.0617835,-0.0238746z"/>
      <path id="_347012472" class="fil11" d="M0.0146424 0.264385c0.0106293,-0.00485348 0.0502475,-0.00210546 0.0585488,0.0223683 0.00826694,0.0243728 -0.0488032,0.0164671 -0.0585488,-0.0223683z"/>
      <path id="_347008344" class="fil9" d="M0.0421288 0.266232c0.0037252,0.000671155 0.0161463,0.00516475 0.0170706,0.00838944 0.000920455,0.00321087 -0.0166955,-0.00363892 -0.0170706,-0.00838944z"/>
     </g>
    </g>
    <path id="_349365240" class="fil12" d="M0.0684898 0.109072c-0.0154718,0.00292677 -0.0322412,0.00748043 -0.0489991,0.0304365 -0.0181522,0.0248661 -0.0137792,0.0559023 -0.00861681,0.0957626 0.00516237,0.0398608 0.00256307,0.0296471 0.00158589,0.0357457 -0.00207734,-0.0164991 -0.00452982,-0.03252 -0.00713865,-0.0483418l0 -0.0767114c0.00974224,-0.019362 0.02867,-0.0337041 0.051679,-0.0364969l4.76673e-007 0c0.0038744,-0.000469999 0.007714,-0.000591074 0.0114892,-0.000394685z"/>
    <g>
     <path id="_347007192" class="fil13" d="M0.119769 0.317456c0.0117304,-0.00142382 0.0112347,-0.00889281 0.0112347,-0.00889281 -0.000630161,0.000191146 0.00346207,-0.00750807 -0.0506727,-0.00116689 -0.0541348,0.0063407 -0.0475567,0.013089 -0.0475567,0.013089 0,0 0.00130513,0.00737079 0.0130356,0.00594697 0.03486,-0.00423095 0.0390991,-0.00474528 0.0739591,-0.00897622z"/>
     <path id="_347005200" class="fil14" d="M0.0326826 0.319731c0,0 0.00130465,0.00737127 0.0130356,0.00594745 0.0117309,-0.00142382 0.048848,-0.00592886 0.048848,-0.00592886m0.0363453 -0.0119402c0,0 0.000496693,0.00746899 -0.0112342,0.00889233 -0.0117309,0.00142382 -0.048848,0.00592886 -0.048848,0.00592886"/>
     <path id="_347002800" class="fil15" d="M0.0456266 0.324924l0.0252799 -0.0024377 0.0237373 -0.00288101 0.0249419 -0.00365751c0.00806864,-0.00112828 0.00991813,-0.00314413 0.0120765,-0.00816969 9.53346e-007,2.28803e-005 0.00053578,0.00816969 -0.0118935,0.00967836 -0.00829029,0.00167598 -0.0165806,0.00335149 -0.0248704,0.00502747 -0.00750331,0.00217887 -0.0154056,0.00316415 -0.0237373,0.00288101l-0.0253514 0.00106775c-0.0124292,0.00150819 -0.01369,-0.0059198 -0.0136943,-0.0059422 0.00249348,0.00405363 0.00455032,0.00545171 0.0135113,0.00443353z"/>
     <path id="_347001960" class="fil16" d="M0.0999406 0.325754c0.00521718,-0.000633021 0.0062978,0.00676494 0.0062978,0.00676494 -0.000300304,-7.8651e-005 -0.0129674,0.00673682 -0.0215027,0.00800191 -0.00853483,0.00126557 -0.0221848,-0.0026994 -0.0221848,-0.0026994 0,0 -0.000720729,-0.00744182 0.00449645,-0.00807484 0.0155038,-0.0018819 0.0173895,-0.00211071 0.0328933,-0.00399261z"/>
    </g>
    <g>
     <g>
      <path id="_347004432" class="fil17" d="M0.0889338 0.301121c-0.00140714,-0.000265983 -0.00604087,0.00122267 -0.00631115,0.00437824 -0.00026932,0.0031427 0.00629017,0.000529107 0.00631115,-0.00437824z"/>
      <path id="_347003928" class="fil18" d="M0.0862506 0.302852c-1.76369e-005,-0.00177942 -0.00351784,0.000903772 -0.00345397,0.00275183 9.29512e-005,0.00270512 0.00347113,-0.000972889 0.00345397,-0.00275183z"/>
     </g>
     <g>
      <path id="_347006472" class="fil17" d="M0.0717459 0.303208c0.00130275,-0.000594888 0.00615861,-0.000258357 0.00717583,0.00274135 0.00101293,0.00298683 -0.00598129,0.00201776 -0.00717583,-0.00274135z"/>
      <path id="_347007840" class="fil18" d="M0.0747656 0.304245c-0.000408985,-0.00173175 0.00363177,3.62271e-005 0.00401168,0.00184568 0.00055723,0.00264935 -0.00360317,-0.000113925 -0.00401168,-0.00184568z"/>
     </g>
    </g>
    <path id="_347004072" class="fil17" d="M0.150742 0.328835c0.000151582,0.000637788 0.000303164,0.00127462 0.000458559,0.00191479 0.00443973,0.0365789 -0.0218473,0.0699942 -0.0584029,0.074431 -0.0365007,0.0044302 -0.0698974,-0.0218206 -0.0743276,-0.0583214 -2.14503e-005,-0.000743133 -4.38539e-005,-0.00148436 -6.72109e-005,-0.00222463 0.00678448,0.0337961 0.0393298,0.062315 0.0740974,0.0580954 0.0347351,-0.00421569 0.0596008,-0.0394981 0.0582418,-0.0738952z"/>
    <path id="_347006496" class="fil4" d="M0.0591599 0.109244c-0.025174,0.00316225 -0.0447396,0.0190793 -0.0538388,0.0398527l0 -0.00315033c0.0100726,-0.0199955 0.0299432,-0.0345812 0.0538388,-0.0367024zm-0.0538388 0.103599c0.00728928,0.041828 0.0141405,0.0846189 0.0155333,0.133727 0.00434249,0.0357805 0.0341941,0.0642855 0.0740954,0.0583099 -0.0372005,0.00573533 -0.0719466,-0.0206661 -0.0764802,-0.0580206 -0.00128606,-0.0453473 -0.00674778,-0.0853668 -0.0131485,-0.124186l0 -0.00983042z"/>
   </g>
   <path id="_346198568" class="fil17" d="M0.259796 0.357116c0.00480629,-0.00526771 0.00846618,-0.0107371 0.0181183,-0.00866353 0.00495168,0.00106346 0.0131004,0.00465471 0.0175716,0.00371995 0.0016817,-0.000351308 0.00282524,-0.00227468 0.00295108,-0.00276423 0.000596794,-0.00232855 0.000178752,-0.00101245 9.15212e-005,-0.000906632 -0.0004986,0.000422809 -0.00103581,0.00081368 -0.00190907,0.00123697 -0.00387583,0.00187952 -0.0197919,-0.00596937 -0.025164,-0.00440922 -0.0101193,0.0019658 -0.0131247,0.0107623 -0.0176264,0.016511 -0.0045017,0.00574867 -0.00818828,0.0123801 -0.00665149,0.0105192 0.00328809,-0.0039826 0.00771781,-0.00987237 0.0126185,-0.0152435zm0.0223364 -0.0183147c-0.0107037,0.000623011 -0.00669344,-0.00838944 -0.00333004,-0.0134155 0.00337103,-0.00503748 0.0141991,-0.0108781 0.0170082,-0.0144251 0.000917595,-0.00115879 0.00148913,-0.00282381 0.00157064,-0.00449026 -0.00366847,0.00605279 -0.0122433,0.0107452 -0.0161006,0.0140885 -0.00406793,0.00352547 -0.0143049,0.0149466 -0.00676017,0.0170859 0.00426765,0.0012098 0.00576822,0.00220509 0.00761199,0.00115641zm-0.0143102 -0.0167355c-0.000251207,-0.000102485 -0.0004843,-0.00025502 -0.000696896,-0.000462373 -0.00234046,-0.00227993 -0.00143383,-0.0073012 0.00351594,-0.0172317 0.00283239,-0.00568242 0.00324042,-0.0122786 0.00179372,-0.0164686 -0.00108157,-0.00313174 -0.00342871,-0.00478389 -0.00533349,-0.00443639 -0.00445212,0.00081225 -0.00119073,-0.000108205 0.00179324,0.000999106 0.00298349,0.00110731 0.00316129,0.00416469 0.00287863,0.00963832 -0.000282667,0.00547411 -0.00274421,0.0104024 -0.00507323,0.0158227 -0.00243389,0.00566478 -0.00100435,0.0116761 0.00112209,0.0121389zm-0.0239609 -0.0014815c-0.00102866,-0.00137949 -0.00262837,-0.00453077 -0.00347733,-0.00665769 -0.00126986,-0.00334577 -0.00524054,-0.0068741 -0.00972508,-0.00459513 -0.000889471,0.000451886 -0.00145147,0.00108395 -0.00192671,0.00170649 0.00144575,-0.00138712 0.00233522,-0.00230471 0.00472621,-0.00191193 0.00239051,0.000392778 0.00591265,0.00540499 0.00711005,0.00746041 0.00119788,0.00205589 0.00155729,0.00214074 0.00329286,0.00399785z"/>
   <path id="_348826352" class="fil19" d="M0.0949627 0.00259072l0.311696 0c0.0247846,0 0.0473117,0.010135 0.0636387,0.026462 0.0157226,0.0157226 0.0257017,0.0371953 0.0264191,0.0608964l-0.0085477 0.00924888c-0.000712626,-0.0200593 -0.0138612,-0.0474804 -0.0271985,-0.0608182 -0.0139432,-0.0139427 -0.0331688,-0.0225971 -0.0543116,-0.0225971l-0.311696 0c-0.0211428,0 -0.0403685,0.00865447 -0.0543116,0.0225971 -0.0133373,0.0133378 -0.0264858,0.0407589 -0.0271985,0.0608182l-0.0085477 -0.00924888c0.000717393,-0.0237011 0.0106965,-0.0451738 0.0264191,-0.0608964 0.016327,-0.016327 0.0388541,-0.026462 0.0636387,-0.026462z"/>
   <rect id="_348826232" class="fil20" x="0.091412" y="0.488163" width="0.318797" height="0.00126747"/>
   <polygon id="_348826064" class="fil21" points="0.311195,0.0157826 0.318791,0.0157826 0.318791,0.112823 0.334324,0.112823 0.334324,0.116863 0.318791,0.116863 0.311195,0.116863 0.295662,0.116863 0.295662,0.112823 0.311195,0.112823 "/>
   <g>
    <polygon id="_348825896" class="fil22" points="0.148057,0.116863 0.444043,0.116863 0.487982,0.165228 0.487982,0.351701 0.189123,0.351701 0.148057,0.312396 "/>
    <polygon id="_348825728" class="fil23" points="0.156879,0.19178 0.437502,0.19178 0.479161,0.237634 0.479161,0.345088 0.195813,0.345088 0.156879,0.307823 "/>
    <circle id="_348825632" class="fil14 str0" cx="0.368801" cy="0.195989" r="0.0683455"/>
    <circle id="_348825536" class="fil24 str0" cx="0.418214" cy="0.148772" r="0.0224684"/>
    <circle id="_348825440" class="fil25 str0" cx="0.305148" cy="0.175668" r="0.00957562"/>
    <g>
     <rect id="_348825320" class="fil25" x="0.158783" y="0.127386" width="0.114305" height="0.00312969"/>
     <rect id="_348825200" class="fil25" x="0.158783" y="0.134198" width="0.100516" height="0.00312969"/>
     <rect id="_348825080" class="fil25" x="0.158783" y="0.140102" width="0.0622161" height="0.00312969"/>
     <rect id="_348824960" class="fil25" x="0.158783" y="0.146006" width="0.110301" height="0.00312969"/>
     <rect id="_348824840" class="fil25" x="0.158783" y="0.15191" width="0.0837422" height="0.00312969"/>
     <rect id="_348824720" class="fil25" x="0.158783" y="0.157814" width="0.0485177" height="0.00312969"/>
     <rect id="_348824600" class="fil25" x="0.158783" y="0.163717" width="0.0281095" height="0.00312969"/>
     <rect id="_348824480" class="fil25" x="0.158783" y="0.169621" width="0.0692051" height="0.00312969"/>
    </g>
    <g>
     <rect id="_348824312" class="fil25" transform="matrix(-3.64732E-014 -0.580015 -1.37715 1.53614E-014 0.466189 0.337046)" width="0.11902" height="0.00401215"/>
     <rect id="_348824192" class="fil25" transform="matrix(-3.20734E-014 -0.510047 -1.37715 1.53614E-014 0.454163 0.337046)" width="0.11902" height="0.00401215"/>
     <rect id="_348824072" class="fil25" transform="matrix(-1.98524E-014 -0.315703 -1.37715 1.53614E-014 0.44374 0.337046)" width="0.11902" height="0.00401215"/>
     <rect id="_348823952" class="fil25" transform="matrix(-3.51956E-014 -0.559698 -1.37715 1.53614E-014 0.433317 0.337046)" width="0.11902" height="0.00401215"/>
     <rect id="_348823832" class="fil25" transform="matrix(-2.67211E-014 -0.424932 -1.37715 1.53614E-014 0.422894 0.337046)" width="0.11902" height="0.00401215"/>
     <rect id="_348823712" class="fil25" transform="matrix(-1.54814E-014 -0.246193 -1.37715 1.53614E-014 0.412471 0.337046)" width="0.11902" height="0.00401215"/>
     <rect id="_348823592" class="fil25" transform="matrix(-8.96941E-015 -0.142636 -1.37715 1.53614E-014 0.402047 0.337046)" width="0.11902" height="0.00401215"/>
     <rect id="_348823400" class="fil25" transform="matrix(-2.20825E-014 -0.351167 -1.37715 1.53614E-014 0.391624 0.337046)" width="0.11902" height="0.00401215"/>
    </g>
    <path id="_348823256" class="fil26" d="M0.207228 0.200172c0,0 0.00347399,0.000855151 0.00448978,0.00149675 0.00101531,0.000641125 -0.00112256,0.00240481 -0.00112256,0.00240481l-0.00438301 -0.00187046c0,0 -5.33873e-005,-0.00219126 0.00101579,-0.0020311zm-0.00443639 0.0122395c0,0 -0.00117548,-0.000801764 0.000641602,-0.00331383 0.00181708,-0.00251207 0.0023519,-0.00411512 0.0023519,-0.00411512l0.00251159 -0.000641602c0,0 0.00395543,0.00523768 0.00395543,0.00577251 0,0.00053435 -0.000641602,0.00272561 -0.0023519,0.000587738 -0.0017103,-0.00213788 -0.00240529,-0.00299303 -0.00240529,-0.00299303l-0.00325996 0.00411559c0,0 -0.00053435,0.00112209 -0.00144337,0.000587738z"/>
    <path id="_348823088" class="fil26" d="M0.18587 0.200794l-0.00053435 0.00502413 0.00443592 -0.000374188c0,0 0.00146958,-0.0013895 -0.000374188,-0.00176369 -0.00184377,-0.000374188 -0.00231711,6.53042e-005 -0.00231711,6.53042e-005 0,0 0.00162212,-0.0041809 0.000553417,-0.00391348 -0.00106918,0.000266937 -0.00176369,0.000961926 -0.00176369,0.000961926zm-0.00526485 0.00644033c0,0 -0.00114926,0.00144289 -0.000400882,0.00208449 0.000748376,0.000641602 0.00681499,0.00358077 0.00681499,0.00358077 0,0 0.00261884,-0.000667819 0.000694512,-0.00181708 -0.00192385,-0.00114926 -0.00283287,-0.00179038 -0.00283287,-0.00179038l0.00545171 -0.000347494c0,0 0.00197772,-0.00114926 -0.000186856,-0.00187046 -0.00216457,-0.000721683 -0.00911303,-0.000294107 -0.00954061,0.000160162z"/>
    <path id="_348822920" class="fil26" d="M0.244559 0.208593c0.000748376,0.000641602 0.00681451,0.00358077 0.00681451,0.00358077 0,0 0.00261884,-0.000667819 0.000694989,-0.00181708 -0.00192433,-0.00114926 -0.00283287,-0.00179038 -0.00283287,-0.00179038l0.00545171 -0.000347494c0,0 0.00197772,-0.00114926 -0.000187332,-0.00187046 -0.000144909,-4.86206e-005 -0.000312221,-9.15212e-005 -0.000496693,-0.000130132 -0.00026503,-0.000829411 -0.00393922,-0.00569576 -0.00393922,-0.00569576l-0.00251207 0.000641602c0,0 -0.00053435,0.00160305 -0.0023519,0.00411512 -0.00181708,0.00251207 -0.000641125,0.00331383 -0.000641125,0.00331383zm0.00637311 -0.00262837c-0.00115212,-1.43002e-005 -0.00236668,2.95537e-005 -0.00339915,0.000108205l0.00172937 -0.00218316c0,0 0.00049288,0.000606328 0.00166978,0.00207496z"/>
    <path id="_348822752" class="fil26" d="M0.275534 0.207177c0,0 0.00118549,0.00148865 0.000413275,0.00214979 -0.000771733,0.000661622 -0.00702806,0.00369326 -0.00702806,0.00369326 0,0 -0.00270083,-0.000688792 -0.000716439,-0.0018738 0.00198439,-0.00118549 0.00292153,-0.00184663 0.00292153,-0.00184663l-0.00562236 -0.000358458c0,0 -0.00203968,-0.00118501 0.000192576,-0.00192909 0.00223274,-0.000744563 0.00939856,-0.000303164 0.00983948,0.000164929zm-0.00386534 -0.00647322l-0.00055151 0.00518143 0.00457511 -0.000385628c0,0 0.00151582,-0.00143335 -0.000385628,-0.00181898 -0.00190192,-0.000386105 -0.00238956,6.76875e-005 -0.00238956,6.76875e-005 0,0 0.00167264,-0.00431246 0.000570577,-0.00403646 -0.00110254,0.000275517 -0.00181898,0.000991956 -0.00181898,0.000991956zm-0.00608282 0.00100483c0,0 0.00358267,0.000881845 0.0046304,0.00154347 0.00104725,0.000661622 -0.00115784,0.00248061 -0.00115784,0.00248061l-0.00451981 -0.00192957c0,0 -5.5294e-005,-0.00225991 0.00104725,-0.0020945z"/>
    <path id="_348822584" class="fil27" d="M0.188689 0.234343c0,0 0.00118501,0.00148817 0.000413275,0.00214979 -0.000771733,0.000661622 -0.00702806,0.00369326 -0.00702806,0.00369326 0,0 -0.00270083,-0.000688792 -0.000716439,-0.00187428 0.00198439,-0.00118501 0.00292153,-0.00184663 0.00292153,-0.00184663l-0.00562283 -0.000357981c0,0 -0.00203921,-0.00118549 0.000193052,-0.00192957 0.00223274,-0.000744086 0.00939856,-0.000303164 0.00983948,0.000165405zm-0.00386582 -0.00647322l-0.000551034 0.00518143 0.00457511 -0.000386105c0,0 0.00151582,-0.00143288 -0.000385628,-0.00181898 -0.00190192,-0.000385628 -0.00238956,6.76875e-005 -0.00238956,6.76875e-005 0,0 0.00167264,-0.00431198 0.000570577,-0.00403646 -0.00110254,0.000275517 -0.00181946,0.000992433 -0.00181946,0.000992433zm-0.00608234 0.00100483c0,0 0.00358267,0.000881845 0.00462992,0.00154347 0.00104773,0.000661145 -0.00115736,0.00248013 -0.00115736,0.00248013l-0.00452029 -0.00192909c0,0 -5.48174e-005,-0.00225991 0.00104773,-0.0020945z"/>
    <path id="_348822416" class="fil27" d="M0.22701 0.227338c0,0 0.00347447,0.000855151 0.00448978,0.00149628 0.00101579,0.000641602 -0.00112256,0.00240529 -0.00112256,0.00240529l-0.00438253 -0.00187046c0,0 -5.33873e-005,-0.00219126 0.00101531,-0.0020311zm-0.00443592 0.0122395c0,0 -0.00117595,-0.000801764 0.000641125,-0.00331383 0.00181755,-0.00251207 0.0023519,-0.00411559 0.0023519,-0.00411559l0.00251207 -0.000641125c0,0 0.00395495,0.00523768 0.00395495,0.00577203 0,0.000534827 -0.000641125,0.00272609 -0.00235143,0.000588214 -0.0017103,-0.00213788 -0.00240529,-0.00299303 -0.00240529,-0.00299303l-0.00326044 0.00411512c0,0 -0.00053435,0.00112256 -0.00144289,0.000588214z"/>
    <path id="_348822248" class="fil27" d="M0.205651 0.22796l-0.00053435 0.00502365 0.00443639 -0.000373711c0,0 0.00146958,-0.00138998 -0.000374188,-0.00176417 -0.00184425,-0.000374188 -0.00231711,6.57808e-005 -0.00231711,6.57808e-005 0,0 0.00162212,-0.0041809 0.000553417,-0.00391396 -0.00106918,0.000267413 -0.00176417,0.000962402 -0.00176417,0.000962402zm-0.00526437 0.00644033c0,0 -0.00114926,0.00144289 -0.000400882,0.00208449 0.000748376,0.000641125 0.00681451,0.00358077 0.00681451,0.00358077 0,0 0.00261884,-0.000667819 0.000694989,-0.00181708 -0.00192433,-0.00114926 -0.00283287,-0.00179038 -0.00283287,-0.00179038l0.00545171 -0.000347494c0,0 0.00197772,-0.00114926 -0.000186856,-0.00187094 -0.00216505,-0.000721206 -0.00911303,-0.00029363 -0.00954061,0.000160639z"/>
    <path id="_348822080" class="fil27" d="M0.242901 0.229042c0,0 -0.00114926,0.00144337 -0.000400882,0.00208449 0.000321754,0.000275994 0.00162831,0.000977656 0.00301257,0.00168694 -0.000353215,0.000624918 -0.000829887,0.00138807 -0.00146196,0.00226181 -0.00181708,0.00251207 -0.000641125,0.00331383 -0.000641125,0.00331383 0.000908538,0.00053435 0.00144289,-0.000587738 0.00144289,-0.000587738l0.00301353 -0.00380433c0.000316511,0.000156349 0.000597748,0.00029506 0.000827027,0.000407079 0.000388012,0.000481916 0.000983376,0.00122314 0.0018247,0.00227468 0.0017103,0.00213788 0.0023519,-5.33873e-005 0.0023519,-0.000587738 0,-0.000418519 -0.00242293,-0.00371805 -0.0034759,-0.00513234l0.0032347 -0.000206399c0,0 0.00197772,-0.00114878 -0.000187332,-0.00187046 -0.00216457,-0.000721683 -0.00911255,-0.000294107 -0.00954013,0.000160162z"/>
    <path id="_348821912" class="fil27" d="M0.264341 0.235759c0.000748376,0.000641125 0.00681499,0.00358077 0.00681499,0.00358077 0,0 0.00261884,-0.000667819 0.000694512,-0.00181708 -0.00192385,-0.00114926 -0.00283287,-0.00179038 -0.00283287,-0.00179038l0.00545171 -0.000347494c0,0 0.00197772,-0.00114926 -0.000186856,-0.00187094 -0.000144909,-4.81439e-005 -0.000312221,-9.10445e-005 -0.000496693,-0.000129655 -0.00026503,-0.000829411 -0.0039397,-0.00569576 -0.0039397,-0.00569576l-0.00251207 0.000641125c0,0 -0.00053435,0.00160353 -0.00235143,0.00411559 -0.00181755,0.00251207 -0.000641602,0.00331383 -0.000641602,0.00331383zm0.00637359 -0.00262837c-0.00115259,-1.47769e-005 -0.00236716,2.95537e-005 -0.00339963,0.000108205l0.00172937 -0.00218316c0,0 0.00049288,0.000606328 0.00167026,0.00207496z"/>
    <path id="_348821744" class="fil27" d="M0.295316 0.234343c0,0 0.00118501,0.00148817 0.000413275,0.00214979 -0.000771733,0.000661622 -0.00702806,0.00369326 -0.00702806,0.00369326 0,0 -0.0027013,-0.000688792 -0.000716439,-0.00187428 0.00198439,-0.00118501 0.00292153,-0.00184663 0.00292153,-0.00184663l-0.00562283 -0.000357981c0,0 -0.00203968,-0.00118549 0.000193052,-0.00192957 0.00223226,-0.000744086 0.00939856,-0.000303164 0.00983948,0.000165405zm-0.00386582 -0.00647322l-0.000551034 0.00518143 0.00457511 -0.000386105c0,0 0.00151582,-0.00143288 -0.000386105,-0.00181898 -0.00190145,-0.000385628 -0.00238956,6.76875e-005 -0.00238956,6.76875e-005 0,0 0.00167312,-0.00431198 0.000570577,-0.00403646 -0.00110254,0.000275517 -0.00181898,0.000992433 -0.00181898,0.000992433zm-0.00608282 0.00100483c0,0 0.00358315,0.000881845 0.0046304,0.00154347 0.00104725,0.000661145 -0.00115736,0.00248013 -0.00115736,0.00248013l-0.00452029 -0.00192909c0,0 -5.48174e-005,-0.00225991 0.00104725,-0.0020945z"/>
    <path id="_348821576" class="fil27" d="M0.333637 0.227338c0,0 0.00347399,0.000855151 0.00448978,0.00149628 0.00101531,0.000641602 -0.00112256,0.00240529 -0.00112256,0.00240529l-0.00438253 -0.00187046c0,0 -5.33873e-005,-0.00219126 0.00101531,-0.0020311zm-0.00443592 0.0122395c0,0 -0.00117595,-0.000801764 0.000641125,-0.00331383 0.00181708,-0.00251207 0.0023519,-0.00411559 0.0023519,-0.00411559l0.00251207 -0.000641125c0,0 0.00395495,0.00523768 0.00395495,0.00577203 0,0.000534827 -0.000641602,0.00272609 -0.0023519,0.000588214 -0.0017103,-0.00213788 -0.00240481,-0.00299303 -0.00240481,-0.00299303l-0.00326044 0.00411512c0,0 -0.00053435,0.00112256 -0.00144289,0.000588214z"/>
    <path id="_348821408" class="fil27" d="M0.312278 0.22796l-0.00053435 0.00502365 0.00443592 -0.000373711c0,0 0.00147006,-0.00138998 -0.000374188,-0.00176417 -0.00184377,-0.000374188 -0.00231663,6.57808e-005 -0.00231663,6.57808e-005 0,0 0.00162212,-0.0041809 0.00055294,-0.00391396 -0.0010687,0.000267413 -0.00176369,0.000962402 -0.00176369,0.000962402zm-0.00526485 0.00644033c0,0 -0.00114878,0.00144289 -0.000400405,0.00208449 0.0007479,0.000641125 0.00681451,0.00358077 0.00681451,0.00358077 0,0 0.00261884,-0.000667819 0.000694512,-0.00181708 -0.00192385,-0.00114926 -0.00283239,-0.00179038 -0.00283239,-0.00179038l0.00545171 -0.000347494c0,0 0.00197724,-0.00114926 -0.000187332,-0.00187094 -0.00216457,-0.000721206 -0.00911255,-0.00029363 -0.00954061,0.000160639z"/>
    <path id="_348821240" class="fil27" d="M0.349528 0.229042c0,0 -0.00114878,0.00144337 -0.000400882,0.00208449 0.000322231,0.000275994 0.00162879,0.000977656 0.00301257,0.00168694 -0.000352738,0.000624918 -0.000829887,0.00138807 -0.00146148,0.00226181 -0.00181755,0.00251207 -0.000641602,0.00331383 -0.000641602,0.00331383 0.000908538,0.00053435 0.00144337,-0.000587738 0.00144337,-0.000587738l0.00301353 -0.00380433c0.000316034,0.000156349 0.000597748,0.00029506 0.000826551,0.000407079 0.000388488,0.000481916 0.000983853,0.00122314 0.00182518,0.00227468 0.0017103,0.00213788 0.00235143,-5.33873e-005 0.00235143,-0.000587738 0,-0.000418519 -0.00242293,-0.00371805 -0.0034759,-0.00513234l0.0032347 -0.000206399c0,0 0.00197772,-0.00114878 -0.000186856,-0.00187046 -0.00216457,-0.000721683 -0.00911303,-0.000294107 -0.00954061,0.000160162z"/>
    <path id="_348821072" class="fil27" d="M0.370968 0.235759c0.000748376,0.000641125 0.00681451,0.00358077 0.00681451,0.00358077 0,0 0.00261884,-0.000667819 0.000694989,-0.00181708 -0.00192433,-0.00114926 -0.00283287,-0.00179038 -0.00283287,-0.00179038l0.00545171 -0.000347494c0,0 0.00197772,-0.00114926 -0.000186856,-0.00187094 -0.000145385,-4.81439e-005 -0.000312221,-9.10445e-005 -0.000496693,-0.000129655 -0.00026503,-0.000829411 -0.0039397,-0.00569576 -0.0039397,-0.00569576l-0.00251207 0.000641125c0,0 -0.00053435,0.00160353 -0.0023519,0.00411559 -0.00181708,0.00251207 -0.000641125,0.00331383 -0.000641125,0.00331383zm0.00637311 -0.00262837c-0.00115212,-1.47769e-005 -0.00236668,2.95537e-005 -0.00339915,0.000108205l0.00172937 -0.00218316c0,0 0.00049288,0.000606328 0.00166978,0.00207496z"/>
    <path id="_348820904" class="fil26" d="M0.271752 0.254722c0,0 0.00347447,0.000855151 0.00448978,0.00149675 0.00101579,0.000641125 -0.00112256,0.00240481 -0.00112256,0.00240481l-0.00438253 -0.00187046c0,0 -5.33873e-005,-0.00219126 0.00101531,-0.0020311zm-0.00443592 0.0122395c0,0 -0.00117595,-0.000801764 0.000641125,-0.00331383 0.00181755,-0.00251207 0.0023519,-0.00411512 0.0023519,-0.00411512l0.00251207 -0.000641602c0,0 0.00395495,0.00523816 0.00395495,0.00577251 0,0.00053435 -0.000641125,0.00272561 -0.00235143,0.000587738 -0.0017103,-0.00213788 -0.00240529,-0.00299303 -0.00240529,-0.00299303l-0.00326044 0.00411559c0,0 -0.00053435,0.00112209 -0.00144289,0.000587738z"/>
    <path id="_348820736" class="fil26" d="M0.250393 0.255345l-0.00053435 0.00502413 0.00443639 -0.000374188c0,0 0.00146958,-0.0013895 -0.000374188,-0.00176369 -0.00184425,-0.000374188 -0.00231711,6.53042e-005 -0.00231711,6.53042e-005 0,0 0.00162212,-0.0041809 0.000553417,-0.00391348 -0.00106918,0.000266937 -0.00176417,0.000961926 -0.00176417,0.000961926zm-0.00526437 0.00644033c0,0 -0.00114926,0.00144289 -0.000400882,0.00208449 0.000748376,0.000641602 0.00681451,0.00358077 0.00681451,0.00358077 0,0 0.00261884,-0.000667819 0.000694989,-0.00181708 -0.00192433,-0.00114926 -0.00283287,-0.00179038 -0.00283287,-0.00179038l0.00545171 -0.000347494c0,0 0.00197772,-0.00114926 -0.000186856,-0.00187046 -0.00216505,-0.000721683 -0.00911303,-0.000294107 -0.00954061,0.000160162z"/>
    <path id="_348820568" class="fil26" d="M0.309083 0.263144c0.000748376,0.000641602 0.00681499,0.00358077 0.00681499,0.00358077 0,0 0.00261884,-0.000667819 0.000694512,-0.00181708 -0.00192385,-0.00114926 -0.00283287,-0.00179038 -0.00283287,-0.00179038l0.00545218 -0.000347494c0,0 0.00197724,-0.00114926 -0.000187332,-0.00187046 -0.000144909,-4.86206e-005 -0.000312221,-9.15212e-005 -0.000496693,-0.000129655 -0.00026503,-0.000829887 -0.0039397,-0.00569624 -0.0039397,-0.00569624l-0.00251159 0.000641602c0,0 -0.000534827,0.00160305 -0.0023519,0.00411512 -0.00181755,0.00251207 -0.000641602,0.00331383 -0.000641602,0.00331383zm0.00637359 -0.00262837c-0.00115259,-1.43002e-005 -0.00236668,2.95537e-005 -0.00339963,0.000108205l0.00172937 -0.00218316c0,0 0.00049288,0.000606804 0.00167026,0.00207496z"/>
    <path id="_348820400" class="fil26" d="M0.340058 0.261728c0,0 0.00118501,0.00148865 0.000413275,0.00214979 -0.000771733,0.000661622 -0.00702806,0.00369326 -0.00702806,0.00369326 0,0 -0.0027013,-0.000688792 -0.000716439,-0.0018738 0.00198439,-0.00118549 0.00292153,-0.00184663 0.00292153,-0.00184663l-0.00562283 -0.000358458c0,0 -0.00203968,-0.00118501 0.000193052,-0.00192909 0.00223226,-0.000744563 0.00939856,-0.000303164 0.00983948,0.000164929zm-0.00386582 -0.00647322l-0.000551034 0.00518143 0.00457511 -0.000385628c0,0 0.00151582,-0.00143335 -0.000386105,-0.00181898 -0.00190145,-0.000386105 -0.00238956,6.76875e-005 -0.00238956,6.76875e-005 0,0 0.00167312,-0.00431246 0.000570577,-0.00403646 -0.00110207,0.000275517 -0.00181898,0.000991956 -0.00181898,0.000991956zm-0.00608282 0.00100483c0,0 0.00358315,0.000881845 0.0046304,0.00154347 0.00104725,0.000661622 -0.00115736,0.00248061 -0.00115736,0.00248061l-0.00452029 -0.00192957c0,0 -5.48174e-005,-0.00225991 0.00104725,-0.0020945z"/>
    <path id="_348820232" class="fil27" d="M0.312278 0.290958l-0.00053435 0.00502413 0.00443592 -0.000374188c0,0 0.00147006,-0.0013895 -0.000374188,-0.00176369 -0.00184377,-0.000374188 -0.00231663,6.57808e-005 -0.00231663,6.57808e-005 0,0 0.00162212,-0.0041809 0.00055294,-0.00391396 -0.0010687,0.000267413 -0.00176369,0.000961926 -0.00176369,0.000961926zm-0.00526485 0.0064408c0,0 -0.00114878,0.00144289 -0.000400405,0.00208449 0.0007479,0.000641125 0.00681451,0.00358077 0.00681451,0.00358077 0,0 0.00261884,-0.000667819 0.000694512,-0.00181708 -0.00192385,-0.00114926 -0.00283239,-0.00179038 -0.00283239,-0.00179038l0.00545171 -0.000347494c0,0 0.00197724,-0.00114926 -0.000187332,-0.00187094 -0.00216457,-0.000721206 -0.00911255,-0.00029363 -0.00954061,0.000160639z"/>
    <path id="_348820064" class="fil27" d="M0.349528 0.292041c0,0 -0.00114878,0.00144289 -0.000400882,0.00208449 0.000322231,0.000275994 0.00162879,0.000977179 0.00301257,0.00168694 -0.000352738,0.000624441 -0.000829887,0.00138807 -0.00146148,0.00226181 -0.00181755,0.00251207 -0.000641602,0.00331383 -0.000641602,0.00331383 0.000908538,0.00053435 0.00144337,-0.000587738 0.00144337,-0.000587738l0.00301353 -0.00380433c0.000316034,0.000156349 0.000597748,0.000294584 0.000826551,0.000407079 0.000388488,0.000481916 0.000983853,0.00122267 0.00182518,0.00227468 0.0017103,0.00213788 0.00235143,-5.33873e-005 0.00235143,-0.000587738 0,-0.000418519 -0.00242293,-0.00371852 -0.0034759,-0.00513234l0.0032347 -0.000206399c0,0 0.00197772,-0.00114878 -0.000186856,-0.00187046 -0.00216457,-0.000721683 -0.00911303,-0.000294107 -0.00954061,0.000160162z"/>
    <path id="_348819896" class="fil27" d="M0.370968 0.298758c0.000748376,0.000641125 0.00681451,0.00358077 0.00681451,0.00358077 0,0 0.00261884,-0.000667819 0.000694989,-0.00181708 -0.00192433,-0.00114926 -0.00283287,-0.00179038 -0.00283287,-0.00179038l0.00545171 -0.000347494c0,0 0.00197772,-0.00114926 -0.000186856,-0.00187094 -0.000145385,-4.81439e-005 -0.000312221,-9.10445e-005 -0.000496693,-0.000129655 -0.00026503,-0.000829411 -0.0039397,-0.00569576 -0.0039397,-0.00569576l-0.00251207 0.000641125c0,0 -0.00053435,0.00160353 -0.0023519,0.00411559 -0.00181708,0.00251207 -0.000641125,0.00331383 -0.000641125,0.00331383zm0.00637311 -0.00262837c-0.00115212,-1.47769e-005 -0.00236668,2.95537e-005 -0.00339915,0.000107728l0.00172937 -0.00218268c0,0 0.00049288,0.000606328 0.00166978,0.00207496z"/>
    <path id="_348819728" class="fil26" d="M0.309083 0.326143c0.000748376,0.000641125 0.00681499,0.00358077 0.00681499,0.00358077 0,0 0.00261884,-0.000667819 0.000694512,-0.00181708 -0.00192385,-0.00114926 -0.00283287,-0.00179038 -0.00283287,-0.00179038l0.00545218 -0.000347494c0,0 0.00197724,-0.00114926 -0.000187332,-0.00187046 -0.000144909,-4.86206e-005 -0.000312221,-9.15212e-005 -0.000496693,-0.000130132 -0.00026503,-0.000829411 -0.0039397,-0.00569576 -0.0039397,-0.00569576l-0.00251159 0.000641602c0,0 -0.000534827,0.00160305 -0.0023519,0.00411512 -0.00181755,0.00251207 -0.000641602,0.00331383 -0.000641602,0.00331383zm0.00637359 -0.00262837c-0.00115259,-1.47769e-005 -0.00236668,2.95537e-005 -0.00339963,0.000108205l0.00172937 -0.00218316c0,0 0.00049288,0.000606328 0.00167026,0.00207496z"/>
    <path id="_348819560" class="fil27" d="M0.362372 0.147416c0,0 0.00347447,0.000855151 0.00448978,0.00149675 0.00101579,0.000641125 -0.00112256,0.00240481 -0.00112256,0.00240481l-0.00438253 -0.00187046c0,0 -5.33873e-005,-0.00219126 0.00101531,-0.0020311zm-0.00443592 0.0122395c0,0 -0.00117595,-0.000801764 0.000641125,-0.00331383 0.00181755,-0.00251207 0.0023519,-0.00411512 0.0023519,-0.00411512l0.00251207 -0.000641602c0,0 0.00395495,0.00523768 0.00395495,0.00577251 0,0.00053435 -0.000641125,0.00272561 -0.00235143,0.000587738 -0.0017103,-0.00213788 -0.00240529,-0.00299303 -0.00240529,-0.00299303l-0.00326044 0.00411559c0,0 -0.00053435,0.00112209 -0.00144289,0.000587738z"/>
    <path id="_348819392" class="fil27" d="M0.378264 0.14912c0,0 -0.00114926,0.00144337 -0.000400882,0.00208449 0.000321754,0.000275994 0.00162831,0.000977656 0.00301257,0.00168694 -0.000353215,0.000624918 -0.000829887,0.00138855 -0.00146196,0.00226181 -0.00181708,0.00251207 -0.000641125,0.00331383 -0.000641125,0.00331383 0.000908538,0.000534827 0.00144289,-0.000587738 0.00144289,-0.000587738l0.00301353 -0.00380433c0.000316511,0.000156349 0.000597748,0.00029506 0.000827027,0.000407079 0.000388012,0.000481916 0.000983376,0.00122314 0.0018247,0.00227468 0.0017103,0.00213788 0.0023519,-5.33873e-005 0.0023519,-0.000587738 0,-0.000418519 -0.00242293,-0.00371805 -0.0034759,-0.00513234l0.0032347 -0.000205923c0,0 0.00197772,-0.00114926 -0.000187332,-0.00187094 -0.00216457,-0.000721683 -0.00911255,-0.000294107 -0.00954013,0.000160162z"/>
    <path id="_348819224" class="fil27" d="M0.399703 0.155838c0.000748376,0.000641602 0.00681499,0.00358077 0.00681499,0.00358077 0,0 0.00261884,-0.000667819 0.000694512,-0.00181708 -0.00192385,-0.00114926 -0.00283287,-0.00179038 -0.00283287,-0.00179038l0.00545171 -0.000347494c0,0 0.00197772,-0.00114926 -0.000186856,-0.00187046 -0.000144909,-4.86206e-005 -0.000312221,-9.15212e-005 -0.000496693,-0.000130132 -0.00026503,-0.000829411 -0.0039397,-0.00569576 -0.0039397,-0.00569576l-0.00251207 0.000641602c0,0 -0.00053435,0.00160305 -0.00235143,0.00411512 -0.00181755,0.00251207 -0.000641602,0.00331383 -0.000641602,0.00331383zm0.00637359 -0.00262837c-0.00115259,-1.47769e-005 -0.00236716,2.95537e-005 -0.00339963,0.000108205l0.00172937 -0.00218316c0,0 0.00049288,0.000606328 0.00167026,0.00207496z"/>
    <path id="_348819056" class="fil28" d="M0.169728 0.183334c0,0 0.00118501,0.00148817 0.000413275,0.00214979 -0.000771733,0.000661145 -0.00702806,0.00369326 -0.00702806,0.00369326 0,0 -0.00270083,-0.000689269 -0.000716439,-0.00187428 0.00198439,-0.00118501 0.00292153,-0.00184663 0.00292153,-0.00184663l-0.00562283 -0.000358458c0,0 -0.00203921,-0.00118501 0.000193052,-0.00192909 0.00223274,-0.000744086 0.00939856,-0.000303164 0.00983948,0.000165405zm-0.00386582 -0.00647369l-0.000551034 0.00518143 0.00457511 -0.000385628c0,0 0.00151582,-0.00143335 -0.000385628,-0.00181898 -0.00190192,-0.000386105 -0.00238956,6.76875e-005 -0.00238956,6.76875e-005 0,0 0.00167264,-0.00431198 0.000570577,-0.00403646 -0.00110254,0.000275517 -0.00181946,0.000991956 -0.00181946,0.000991956zm-0.00608234 0.00100483c0,0 0.00358267,0.000881845 0.00462992,0.00154347 0.00104773,0.000661622 -0.00115736,0.00248061 -0.00115736,0.00248061l-0.00452029 -0.00192909c0,0 -5.48174e-005,-0.00226038 0.00104773,-0.00209498z"/>
    <path id="_348818888" class="fil28" d="M0.208048 0.176328c0,0 0.00347447,0.000855151 0.00448978,0.00149675 0.00101579,0.000641602 -0.00112256,0.00240529 -0.00112256,0.00240529l-0.00438253 -0.00187094c0,0 -5.33873e-005,-0.00219126 0.00101531,-0.0020311zm-0.00443592 0.0122395c0,0 -0.00117595,-0.000801764 0.000641125,-0.00331383 0.00181755,-0.00251207 0.0023519,-0.00411512 0.0023519,-0.00411512l0.00251207 -0.000641602c0,0 0.00395495,0.00523816 0.00395495,0.00577251 0,0.00053435 -0.000641125,0.00272561 -0.00235143,0.000587738 -0.0017103,-0.00213788 -0.00240529,-0.00299303 -0.00240529,-0.00299303l-0.00326044 0.00411559c0,0 -0.00053435,0.00112256 -0.00144289,0.000587738z"/>
    <path id="_348818720" class="fil28" d="M0.18669 0.17695l-0.00053435 0.00502413 0.00443639 -0.000374188c0,0 0.00146958,-0.0013895 -0.000374188,-0.00176369 -0.00184425,-0.000374188 -0.00231711,6.57808e-005 -0.00231711,6.57808e-005 0,0 0.00162212,-0.00418137 0.000553417,-0.00391396 -0.00106918,0.000266937 -0.00176417,0.000961926 -0.00176417,0.000961926zm-0.00526437 0.00644033c0,0 -0.00114926,0.00144337 -0.000400882,0.00208449 0.000748376,0.000641602 0.00681451,0.00358124 0.00681451,0.00358124 0,0 0.00261884,-0.000668295 0.000694989,-0.00181708 -0.00192433,-0.00114926 -0.00283287,-0.00179086 -0.00283287,-0.00179086l0.00545171 -0.000347494c0,0 0.00197772,-0.00114878 -0.000186856,-0.00187046 -0.00216505,-0.000721683 -0.00911303,-0.000294107 -0.00954061,0.000160162z"/>
    <path id="_348818552" class="fil26" d="M0.207228 0.269888c0,0 0.00347399,0.000855151 0.00448978,0.00149675 0.00101531,0.000641125 -0.00112256,0.00240481 -0.00112256,0.00240481l-0.00438301 -0.00187046c0,0 -5.33873e-005,-0.00219126 0.00101579,-0.0020311zm-0.00443639 0.0122395c0,0 -0.00117548,-0.000801764 0.000641602,-0.00331383 0.00181708,-0.00251207 0.0023519,-0.00411512 0.0023519,-0.00411512l0.00251159 -0.000641602c0,0 0.00395543,0.00523768 0.00395543,0.00577251 0,0.00053435 -0.000641602,0.00272561 -0.0023519,0.000587738 -0.0017103,-0.00213788 -0.00240529,-0.00299303 -0.00240529,-0.00299303l-0.00325996 0.00411559c0,0 -0.00053435,0.00112209 -0.00144337,0.000587738z"/>
    <path id="_348818312" class="fil27" d="M0.205651 0.297675l-0.00053435 0.00502365 0.00443639 -0.000373711c0,0 0.00146958,-0.00138998 -0.000374188,-0.00176417 -0.00184425,-0.000374188 -0.00231711,6.57808e-005 -0.00231711,6.57808e-005 0,0 0.00162212,-0.0041809 0.000553417,-0.00391396 -0.00106918,0.000267413 -0.00176417,0.000962402 -0.00176417,0.000962402zm-0.00526437 0.00644033c0,0 -0.00114926,0.00144289 -0.000400882,0.00208449 0.000748376,0.000641125 0.00681451,0.00358077 0.00681451,0.00358077 0,0 0.00261884,-0.000667819 0.000694989,-0.00181708 -0.00192433,-0.00114926 -0.00283287,-0.00179038 -0.00283287,-0.00179038l0.00545171 -0.000347494c0,0 0.00197772,-0.00114926 -0.000186856,-0.00187094 -0.00216505,-0.000721206 -0.00911303,-0.00029363 -0.00954061,0.000160639z"/>
   </g>
   <polygon id="_348818168" class="fil21" points="0.480033,0.452781 0.485361,0.452781 0.446264,0.398176 0.446264,0.355741 0.457161,0.355741 0.457161,0.351701 0.446264,0.351701 0.440936,0.351701 0.430039,0.351701 0.430039,0.355741 0.440936,0.355741 0.440936,0.397966 "/>
   <path id="_348818000" class="fil29" d="M0.41213 0l-0.322639 0c-0.0492208,0 -0.089491,0.0402703 -0.089491,0.089491l0 0.322639c0,0.0492208 0.0402703,0.089491 0.089491,0.089491l0.322639 0c0.0492208,0 0.0894915,-0.0402703 0.0894915,-0.089491l0 -0.322639c0,-0.0492208 -0.0402707,-0.089491 -0.0894915,-0.089491zm-0.00877269 0.0136395l-0.30509 0c-0.0465476,0 -0.084628,0.0380804 -0.084628,0.0846242l0 0.30509c0,0.0465476 0.0380804,0.084628 0.084628,0.084628l0.30509 0c0.0465438,0 0.0846242,-0.0380804 0.0846242,-0.084628l0 -0.30509c0,-0.0465438 -0.0380804,-0.0846242 -0.0846242,-0.0846242z"/>
  </g>
 </g>
</svg>
