<?xml version="1.0" encoding="iso-8859-1"?>
<!-- Generator: Adobe Illustrator 16.0.0, SVG Export Plug-In . SVG Version: 6.00 Build 0)  -->
<!DOCTYPE svg PUBLIC "-//W3C//DTD SVG 1.1//EN" "http://www.w3.org/Graphics/SVG/1.1/DTD/svg11.dtd">
<svg version="1.1" id="Layer_1" xmlns="http://www.w3.org/2000/svg" xmlns:xlink="http://www.w3.org/1999/xlink" x="0px" y="0px"
	 width="298.29px" height="298.289px" viewBox="0 0 298.29 298.289" style="enable-background:new 0 0 298.29 298.289;"
	 xml:space="preserve">
<g>
	<path style="fill-rule:evenodd;clip-rule:evenodd;fill:#B3B3B3;" d="M55.119,296.42h188.053c14.953,0,28.544-6.027,38.394-15.736
		c9.486-9.35,15.507-22.119,15.939-36.213l-5.157-5.501c-0.43,11.929-8.362,28.235-16.409,36.167
		c-8.412,8.292-20.011,13.438-32.767,13.438H55.119c-12.756,0-24.355-5.146-32.767-13.438c-8.047-7.932-15.979-24.238-16.41-36.167
		l-5.157,5.501c0.433,14.094,6.453,26.863,15.939,36.213C26.575,290.393,40.166,296.42,55.119,296.42z"/>
	<radialGradient id="SVGID_1_" cx="149.1445" cy="149.1445" r="210.9288" gradientUnits="userSpaceOnUse">
		<stop  offset="0" style="stop-color:#000002"/>
		<stop  offset="0.2046" style="stop-color:#040406"/>
		<stop  offset="0.4167" style="stop-color:#111112"/>
		<stop  offset="0.6322" style="stop-color:#252527"/>
		<stop  offset="0.8486" style="stop-color:#424243"/>
		<stop  offset="1" style="stop-color:#5B5B5B"/>
	</radialGradient>
	<path style="fill-rule:evenodd;clip-rule:evenodd;fill:url(#SVGID_1_);" d="M245.077-0.006H53.212
		c-29.271,0-53.218,23.947-53.218,53.218v191.865c0,29.27,23.948,53.218,53.218,53.218h191.865
		c29.271,0,53.218-23.948,53.218-53.218V53.212C298.295,23.941,274.348-0.006,245.077-0.006L245.077-0.006z M239.86,8.104
		c27.679,0,50.324,22.646,50.324,50.324v181.429c0,27.681-22.645,50.326-50.324,50.326H58.432
		c-27.681,0-50.326-22.646-50.326-50.326V58.429c0-27.679,22.646-50.324,50.326-50.324H239.86z"/>
	<radialGradient id="SVGID_2_" cx="149.1445" cy="149.1445" r="183.5062" gradientUnits="userSpaceOnUse">
		<stop  offset="0" style="stop-color:#2D287F"/>
		<stop  offset="0.32" style="stop-color:#24044A"/>
		<stop  offset="0.62" style="stop-color:#24044A"/>
		<stop  offset="1" style="stop-color:#000002"/>
	</radialGradient>
	<path style="fill-rule:evenodd;clip-rule:evenodd;fill:url(#SVGID_2_);" d="M239.86,8.104H58.432
		c-27.681,0-50.326,22.646-50.326,50.324v181.429c0,27.681,22.646,50.326,50.326,50.326H239.86
		c27.679,0,50.324-22.646,50.324-50.326V58.429C290.184,30.75,267.539,8.104,239.86,8.104z"/>
	<g style="opacity:0.8;">
		<g>
			
				<ellipse transform="matrix(0.5173 -0.8558 0.8558 0.5173 -55.5968 200.2104)" style="fill-rule:evenodd;clip-rule:evenodd;fill:none;stroke:#FEFEFE;stroke-width:2;stroke-miterlimit:2.6131;" cx="149.675" cy="149.388" rx="76.32" ry="145.348"/>
			
				<ellipse transform="matrix(-0.4407 -0.8977 0.8977 -0.4407 81.5311 349.5779)" style="fill-rule:evenodd;clip-rule:evenodd;fill:none;stroke:#FEFEFE;stroke-width:2;stroke-miterlimit:2.6131;" cx="149.675" cy="149.388" rx="76.32" ry="145.349"/>
		</g>
	</g>
	<path style="fill-rule:evenodd;clip-rule:evenodd;fill:none;" d="M239.86,8.104H58.432c-27.681,0-50.326,22.646-50.326,50.324
		v181.429c0,27.681,22.646,50.326,50.326,50.326H239.86c27.679,0,50.324-22.646,50.324-50.326V58.429
		C290.184,30.75,267.539,8.104,239.86,8.104z"/>
	<g>
		<linearGradient id="SVGID_3_" gradientUnits="userSpaceOnUse" x1="195.6162" y1="86.6045" x2="226.9031" y2="53.0534">
			<stop  offset="0" style="stop-color:#FFCC35"/>
			<stop  offset="1" style="stop-color:#F7EC00"/>
		</linearGradient>
		<path style="fill-rule:evenodd;clip-rule:evenodd;fill:url(#SVGID_3_);" d="M217.538,76.295l-3.776,4.976
			c0,0-10.601,17.6-20.999,9.302c-10.398-8.299-1.442-16.927,3.627-20.311c5.07-3.385,9.562-9.195,11.032-12.041
			c1.47-2.845-1.788,3.78-2.084,6.665c-0.296,2.884,10.894-10.47,12.572-13.98c1.679-3.513-5.255,9.381-2.819,8.933
			c2.436-0.449,11.518-14.159,14.709-16.618c3.191-2.458-6.142,8.02-1.201,4.646c4.941-3.375,21.791-15.866,21.791-15.866
			s-25.805,21.12-21.838,20.292c3.968-0.828,17.36-7.589,17.36-7.589s-27.041,16.923-21.582,15.199s13.086-2.315,13.086-2.315
			s-21.984,8.338-18.344,8.315c3.64-0.021,10.025,0.134,10.025,0.134s-10.75,2.264-12.428,5.775
			c-1.679,3.512,2.236-3.034,8.859-3.158C232.153,68.529,223.046,67.771,217.538,76.295z"/>
		<linearGradient id="SVGID_4_" gradientUnits="userSpaceOnUse" x1="186.0869" y1="92.3398" x2="213.3737" y2="68.6198">
			<stop  offset="0" style="stop-color:#F26122"/>
			<stop  offset="1" style="stop-color:#FDB913"/>
		</linearGradient>
		<path style="fill-rule:evenodd;clip-rule:evenodd;fill:url(#SVGID_4_);" d="M210.288,79.59l-2.661,3.506
			c0,0-7.472,12.404-14.8,6.556c-7.329-5.849-1.017-11.929,2.557-14.314c3.574-2.386,6.739-6.48,7.775-8.486
			c1.036-2.005-1.26,2.665-1.469,4.697c-0.209,2.033,7.678-7.378,8.861-9.854c1.183-2.475-3.704,6.612-1.987,6.296
			c1.717-0.316,8.118-9.979,10.367-11.712s-4.328,5.652-0.846,3.274c3.482-2.379,15.358-11.183,15.358-11.183
			s-18.188,14.885-15.391,14.302c2.796-0.584,12.235-5.349,12.235-5.349s-19.059,11.927-15.211,10.712s9.223-1.632,9.223-1.632
			s-15.494,5.877-12.928,5.861s7.065,0.094,7.065,0.094s-7.576,1.596-8.76,4.07c-1.183,2.476,1.576-2.139,6.245-2.226
			C220.588,74.116,212.949,76.083,210.288,79.59z"/>
		<linearGradient id="SVGID_5_" gradientUnits="userSpaceOnUse" x1="165.8706" y1="120.5723" x2="266.564" y2="4.7378">
			<stop  offset="0" style="stop-color:#ED1C24"/>
			<stop  offset="1" style="stop-color:#F26122"/>
		</linearGradient>
		<path style="fill-rule:evenodd;clip-rule:evenodd;fill:url(#SVGID_5_);" d="M201.625,73.157c0.003,0.219,2.256,1.454-3.049,3.794
			c-16.468,7.265-3.053,15.334,2.575,11.652c3.215-2.104,7.201-8.398,7.435-11.356c-1.772,3.86-5.606,11.021-10.013,11.278
			c-8.716,0.508-8.362-7.57-2.234-9.472C198.494,78.385,203.926,74.68,201.625,73.157z"/>
	</g>
	<g>
		<g>
			<path style="fill-rule:evenodd;clip-rule:evenodd;fill:#88CA68;" d="M214.217,177.543c0,0-4.03-24.261-5.349-34.589
				c-4.144-32.432,34.662-22.259,27.397-5.549c-5.653,13.002-7.35,33.919-3.958,39.572s13.769,23.03,13.003,31.658
				c-0.767,8.629,12.563,15.029,30.087,15.029c5.049,0,10.122,0.038,14.786,0.093v16.1c0,15.7-7.287,29.778-18.643,39.025
				c-13.694-7.564-28.563-20.057-38.103-26.151c-20.352-13.003-44.095-8.479-44.095-8.479c-10.776,0.95-76.031,2.462-68.526-17.128
				c6.096-15.913,30.649-3.225,41.956-2.659c11.306,0.565,22.613-6.218,22.613-6.218c-32.319-22.319-67.913-6.337-79.308-24.419
				C88.359,165.714,174.008,196.26,214.217,177.543z"/>
			<path style="fill-rule:evenodd;clip-rule:evenodd;fill:#61A53E;" d="M271.547,278.878c-13.695-7.56-28.566-20.05-38.108-26.146
				c-20.352-13.003-44.095-8.479-44.095-8.479c-10.776,0.95-76.031,2.462-68.526-17.128c2.201-5.744,6.807-7.761,12.326-7.967
				c-4.019,2.505-8.022,5.458-8.991,7.772c-2.092,4.997,0.814,7.902,3.37,9.297c2.557,1.395,13.363,6.508,34.63,6.275
				c21.266-0.232,39.626-4.416,52.875-0.232c13.248,4.183,29.736,8.974,56.012,24.868c2.788,1.687,5.476,3.051,8.054,4.144
				C276.851,274.07,274.321,276.618,271.547,278.878z"/>
			<path style="fill-rule:evenodd;clip-rule:evenodd;fill:#FEFEFE;" d="M127.633,238.57c-5.744-2.625-8.784-6.31-6.816-11.446
				c1.972-5.146,5.875-7.3,10.634-7.841c-3.399,1.829-7.632,4.278-8.257,5.449C122.128,226.73,118.056,232.323,127.633,238.57z"/>
			<path style="fill-rule:evenodd;clip-rule:evenodd;fill:#224827;" d="M271.549,278.876c-13.695-7.558-28.568-20.048-38.111-26.145
				c-17.575-11.229-37.676-9.388-42.835-8.677c41.104-6.31,48.762,16.917,82.599,32.532c0.217,0.101,0.434,0.198,0.65,0.296
				C273.104,277.569,272.337,278.234,271.549,278.876z"/>
			<path style="fill-rule:evenodd;clip-rule:evenodd;fill:#FEFEFE;" d="M110.36,198.418c-1.665-1.221-3.104-2.721-4.282-4.59
				c-6.517-10.341,0.959-12.742,15.007-12.581c-0.531,0.087-12.826,1.243-14.511,2.664S102.082,188.119,110.36,198.418z"/>
			<path style="fill-rule:evenodd;clip-rule:evenodd;fill:#61A53E;" d="M224.062,233.976c0,0,17.844-7.004,18.87-20.259
				c1.025-13.254,1.122-0.771,3.209,2.131c1.198,1.664,2.905,3.37,4.997,3.95C253.23,220.379,247.304,224.563,224.062,233.976z"/>
			<path style="fill-rule:evenodd;clip-rule:evenodd;fill:#224827;" d="M216.398,123.058c9.759-4.657,24.604,3.453,19.867,14.348
				c-5.653,13.002-7.35,33.919-3.958,39.572s13.769,23.03,13.003,31.658c-0.767,8.629,12.563,15.029,30.087,15.029
				c5.049,0,10.122,0.038,14.786,0.093v1.07c-5.465-0.074-11.691-0.131-17.882-0.131c-17.525,0-30.854-6.4-30.088-15.029
				c0.767-8.629-9.61-26.005-13.002-31.658s-1.696-26.57,3.958-39.572C237.426,128.646,225.868,121.105,216.398,123.058z"/>
			<path style="fill-rule:evenodd;clip-rule:evenodd;fill:#224827;" d="M181.071,177.918c21.75,0,42.259,1.398,42.259,15.994
				c0,14.597-27.482,39.188-49.232,39.188c-21.749,0-43.796-5.325-43.796-19.922C130.302,198.583,159.322,177.918,181.071,177.918z"
				/>
			<path style="fill-rule:evenodd;clip-rule:evenodd;fill:#61A53E;" d="M221.394,121.756c-2.947,1.208-5.773,3.354-6.821,7.16
				c-2.519,9.161-3.498,17.455-0.687,28.4c0.929,3.62-0.342,4.144-2.455,2.979c-1-6.359-2.016-13.053-2.564-17.342
				C206.992,128.269,213.922,122.318,221.394,121.756z"/>
			<path style="fill-rule:evenodd;clip-rule:evenodd;fill:#FEFEFE;" d="M208.694,141.325c-1.119-12.847,4.884-18.476,11.663-19.455
				C217.456,122.375,209.338,125.226,208.694,141.325L208.694,141.325z M221.332,121.762l0.056-0.005l-0.005,0.004L221.332,121.762z
				"/>
		</g>
		<g>
			<g>
				<linearGradient id="SVGID_6_" gradientUnits="userSpaceOnUse" x1="189.5303" y1="228.8174" x2="132.467" y2="100.6511">
					<stop  offset="0" style="stop-color:#363535"/>
					<stop  offset="0.2" style="stop-color:#2E4241"/>
					<stop  offset="0.68" style="stop-color:#21BDC5"/>
					<stop  offset="1" style="stop-color:#67CBDF"/>
				</linearGradient>
				<path style="fill-rule:evenodd;clip-rule:evenodd;fill:url(#SVGID_6_);" d="M116.013,152.588
					c13.042-27.539,46.071-39.23,73.771-26.112c27.7,13.12,39.581,46.081,26.537,73.62c-13.042,27.539-46.07,39.231-73.771,26.112
					C114.85,213.089,102.97,180.127,116.013,152.588z"/>
				<path style="fill-rule:evenodd;clip-rule:evenodd;fill:#00D0D3;" d="M181.563,228.914c-2.29-16.545-8.556-8.542-2.075-19.984
					c6.48-11.44,7.759-11.896,2.54-21.802c-5.22-9.904-2.267-12.398-1.903-22.136s-2.477-10.464,0.381-16.498
					s4.09-8.636,6.281-13.262c2.19-4.625,0.216-10.105,0.216-10.105s8.989,4.591,11.447,6.513c2.458,1.922-4.135,8.618-6.993,14.653
					c-2.858,6.033-1.338,4.322-1.596,19.064c-0.257,14.741-2.66,16.082-0.652,23.049c2.008,6.967,5.901,1.735,3.544,11.943
					c-2.356,10.207-3.39,8.658-3.421,13.951s-0.162,11.737-0.162,11.737L181.563,228.914z"/>
				<linearGradient id="SVGID_7_" gradientUnits="userSpaceOnUse" x1="278.5508" y1="339.168" x2="-14.7714" y2="-189.999">
					<stop  offset="0" style="stop-color:#363535"/>
					<stop  offset="1" style="stop-color:#5BC7D6"/>
				</linearGradient>
				<path style="fill-rule:evenodd;clip-rule:evenodd;fill:url(#SVGID_7_);" d="M182.18,229.294
					c-2.289-16.545-8.556-8.543-2.075-19.983c6.48-11.441,7.76-11.897,2.54-21.803s-2.267-12.399-1.904-22.136
					c0.364-9.737-2.477-10.465,0.381-16.499s4.09-8.636,6.28-13.261c2.191-4.625,0.218-10.106,0.218-10.106
					s8.989,4.592,11.447,6.514s-4.135,8.618-6.994,14.652c-2.858,6.035-1.338,4.323-1.596,19.064
					c-0.257,14.742-2.66,16.082-0.652,23.05c2.008,6.967,5.9,1.735,3.544,11.942c-2.356,10.208-3.39,8.658-3.421,13.952
					c-0.03,5.293-0.161,11.737-0.161,11.737L182.18,229.294z"/>
				<linearGradient id="SVGID_8_" gradientUnits="userSpaceOnUse" x1="232.2422" y1="243.0283" x2="168.362" y2="84.9194">
					<stop  offset="0" style="stop-color:#363535"/>
					<stop  offset="1" style="stop-color:#00AFB1"/>
				</linearGradient>
				<path style="fill-rule:evenodd;clip-rule:evenodd;fill:url(#SVGID_8_);" d="M202.785,217.993
					c2.376-7.787-0.757-7.149,1.995-18.939c2.752-11.791,6.482-18.163,3.514-23.109c-2.967-4.944-5.19-0.998-2.161-7.395
					c3.03-6.396,2.569-13.647,3.193-17.952c0.625-4.306,0.813-7.717,0.813-7.717s10.316,21.573,10.75,24.827
					c0.435,3.253-4.274,9.346-6.312,14.397c-2.037,5.051-3.527,15.671-4.06,17.542c-0.533,1.87-0.405,10.581-0.405,10.581
					L202.785,217.993z"/>
				<linearGradient id="SVGID_9_" gradientUnits="userSpaceOnUse" x1="248.5767" y1="508.4219" x2="27.9613" y2="-132.2917">
					<stop  offset="0" style="stop-color:#363535"/>
					<stop  offset="1" style="stop-color:#5BC7D6"/>
				</linearGradient>
				<path style="fill-rule:evenodd;clip-rule:evenodd;fill:url(#SVGID_9_);" d="M123.887,203.212
					c-4.777-9.341-4.548-12.063-4.306-20.796c0.243-8.732-0.746-14.864,2.828-21.666c3.575-6.802,11.04-14.797,13.385-19.747
					c0.861-1.818,0.551-3.857-1.505-7.057c-1.445-2.251,8.698-7.883,8.698-7.883s-11.504,4.056-19.473,14.815
					c-7.969,10.761-8.969,14.084-10.179,18.476c-1.211,4.392-3.033,14.885-2.531,19.803c0.502,4.919,5.174,29.462,18.46,38.256
					C142.55,226.208,123.887,203.212,123.887,203.212z"/>
				<path style="opacity:0.5;fill-rule:evenodd;clip-rule:evenodd;fill:#54F2F5;" d="M111.621,184.072
					c-0.208-1.238-0.524-13.566,2.621-22.199c3.146-8.634,4.597-12.15,6.468-14.656c1.872-2.506,1.261-6.587,5.974-7.758
					s3.649-0.791,5.337,1.248c1.688,2.038,0.447,3.659,3.166,0.969c2.719-2.691,3.56-7.516,3.56-7.516s-3.681-1.567,1.164-2.457
					c4.846-0.891,1.72,3.468,6.551-1.499c4.831-4.968,0.911-4.17,6.694-1.432c5.783,2.739,8.36-4.828,10.528-3.3
					c2.168,1.527-5.407,5.194,3.676,5.072s3.744,1.065,9.083-0.122c5.339-1.187,2.936-4.27,8.139-4.108
					c4.716,0.146,7.729,1.476,8.253,1.727c-0.995-0.549-2.01-1.072-3.05-1.565c-27.7-13.118-60.729-1.427-73.771,26.112
					c-2.528,5.338-4.116,10.879-4.838,16.438C110.672,174.173,110.823,179.271,111.621,184.072z"/>
				<path style="fill-rule:evenodd;clip-rule:evenodd;fill:#00D0D3;" d="M151.49,226.193c-9.128-12.109-20.614-7.285-11.016-26.805
					c9.599-19.521,3.162-19.385,8.716-34.097c5.553-14.712,8.733-19.932,11.942-30.444s-1.164-13.987,4.449-13.615
					c3.154,0.208,6.336,0.439,7.713,0.659c1.07,0.171,0.8-0.16,0.268,2.674c-1.211,6.48-0.096,5.906-3.09,12.229
					c-2.995,6.323-0.015-0.716-5.902,11.715c-5.887,12.431-7.501,13.965-3.56,20.964c3.942,7,8.095,3.836-0.667,22.337
					c-8.762,18.499-12.611,12.428-7.545,21.907c5.067,9.479,11.068,17.989,11.068,17.989S153.784,230.537,151.49,226.193z"/>
				<linearGradient id="SVGID_10_" gradientUnits="userSpaceOnUse" x1="252.8027" y1="309.8564" x2="40.3103" y2="-5.1764">
					<stop  offset="0" style="stop-color:#363535"/>
					<stop  offset="1" style="stop-color:#00AFB1"/>
				</linearGradient>
				<path style="fill-rule:evenodd;clip-rule:evenodd;fill:url(#SVGID_10_);" d="M152.704,226.063
					c-9.129-12.11-20.614-7.285-11.016-26.806c9.599-19.521,3.163-19.385,8.715-34.097c5.553-14.712,8.734-19.932,11.942-30.444
					c3.209-10.513-1.164-13.986,4.45-13.614c3.154,0.208,6.336,0.439,7.713,0.659c1.07,0.171,0.799-0.161,0.268,2.674
					c-1.212,6.48-0.097,5.906-3.091,12.229c-2.995,6.323-0.014-0.715-5.901,11.716c-5.888,12.43-7.502,13.964-3.56,20.964
					c3.942,6.999,8.094,3.836-0.667,22.336c-8.762,18.5-12.61,12.429-7.545,21.907c5.067,9.479,11.068,17.988,11.068,17.988
					S154.997,230.405,152.704,226.063z"/>
			</g>
			<g>
				<g>
					<path style="fill-rule:evenodd;clip-rule:evenodd;fill:#089FA2;" d="M116.148,154.418c0.044,1.023,0.126,1.291,0.002,1.821
						c-0.124,0.53,0.063,0.409,1.728-0.683c1.665-1.092,2.817-0.976,4.796-3.519c1.979-2.544,4.532-6.432,5.462-7.584
						c0.93-1.152,0.703-1.255,1.441-2.433c0.738-1.177,1.498-2.389,0.543-2.682c-0.954-0.294-1.535,0.011-1.535,0.011
						s-6.695,11.746-10.217,13.467C114.846,154.537,116.148,154.418,116.148,154.418z"/>
					<g>
						<path style="fill-rule:evenodd;clip-rule:evenodd;fill:#54F2F5;" d="M115.492,150.62c-0.373,2.288,0.881,2.156,1.969,1.622
							c1.088-0.535,3.772-2.292,5.502-4.776c1.729-2.485,1.71-3.188,2.611-5.248c0.9-2.062,4.365-4.318,1.863-3.832
							c-2.502,0.485-1.226-1.081-4.304,1.938c-3.079,3.019-3.337,3.13-3.843,4.025c-0.505,0.896-1.571,2.553-2.381,3.874
							C116.098,149.545,115.492,150.62,115.492,150.62z"/>
						<path style="fill-rule:evenodd;clip-rule:evenodd;fill:#2AEFF3;" d="M116.64,152.176c0.225-0.058,0.458-0.152,0.686-0.264
							c1.088-0.535,3.987-2.073,5.716-4.558c1.729-2.485,2.597-3.56,3.497-5.621c0.688-1.577,2.234-3.177,1.803-3.625l-0.097,0.018
							c-0.97,0.188-1.372,0.068-1.68,0.026c-0.12,0.007-0.227,0.008-0.321,0.005c-0.368,0.079-0.852,0.483-2.303,1.907
							c-3.079,3.019-3.338,3.131-3.843,4.026c-0.505,0.896-1.57,2.553-2.381,3.874s-1.417,2.396-1.417,2.396
							C116.129,151.409,116.3,151.949,116.64,152.176z"/>
						<path style="fill-rule:evenodd;clip-rule:evenodd;fill:#0CCBCE;" d="M121.451,149.152c1.164-1.81,1.396-2.035,1.977-3.065
							c0.447-0.791,3.568-5.163,4.201-7.146c0.099-0.313-0.707-0.538-1.684-0.301c-0.885,0.215-1.948,0.886-1.883,0.788
							c0.293-0.443,0.915-0.823,1.44-1.049c0.9-0.386,1.867-0.274,1.947-0.35c2.255-0.371-0.03,1.686-0.912,3.704
							c-0.9,2.062-1.768,3.136-3.497,5.621C122.576,148.022,122.027,148.622,121.451,149.152z"/>
						<path style="fill-rule:evenodd;clip-rule:evenodd;fill:#00B4B7;" d="M115.445,152.443c-0.148,1.832,1.248,1.713,2.298,1.196
							c1.051-0.517,3.988-1.883,5.717-4.367c1.729-2.485,2.377-4.055,3.41-5.649c1.032-1.595,3.29-4.857,1.73-5.47
							c-0.277,1.669-1.556,2.676-2.247,3.992c-0.69,1.315-1.385,3.537-3.114,6.022c-1.729,2.484-4.8,4.108-5.716,4.558
							C116.607,153.177,115.771,153.096,115.445,152.443z"/>
					</g>
				</g>
				<path style="fill-rule:evenodd;clip-rule:evenodd;fill:#B4FDFF;" d="M115.907,152.479c0,0-0.32-0.386-0.368-1.122
					s0.25-1.511,0.728-2.013c0.478-0.502,1.005-1.493,1.282-1.905c0.277-0.411,1.716-3.111,1.941-3.419s0.725-0.854,0.725-0.854
					s-4.067,6.653-4.099,7.677C116.082,151.863,115.907,152.479,115.907,152.479z"/>
			</g>
			<g>
				<path style="fill-rule:evenodd;clip-rule:evenodd;fill:#089FA2;" d="M159.566,125.052c-3.693,1.632-7.283,4.673-8.279,8.178
					c-0.996,3.504-3.641,9.037,1.821,5.531c5.462-3.505,5.205-2.561,7.18-6.082S159.566,125.052,159.566,125.052z"/>
				<path style="fill-rule:evenodd;clip-rule:evenodd;fill:#B4FDFF;" d="M156.05,129.483c-2.366,1.045-4.665,2.993-5.303,5.237
					c-0.638,2.245-2.332,5.788,1.167,3.544c3.499-2.245,3.333-1.641,4.599-3.896C157.777,132.113,156.05,129.483,156.05,129.483z"/>
				<path style="fill-rule:evenodd;clip-rule:evenodd;fill:#2AEFF3;" d="M157.903,126.142c-2.907,1.284-5.733,3.678-6.517,6.437
					c-0.784,2.758-2.866,7.112,1.433,4.354c4.3-2.759,4.097-2.016,5.652-4.787C160.026,129.373,157.903,126.142,157.903,126.142z"/>
			</g>
			<g>
				<path style="fill-rule:evenodd;clip-rule:evenodd;fill:#089FA2;" d="M115.176,197.707c0.242,0.146,0.316,0.168,0.418,0.277
					c0.103,0.109,0.104,0.048,0.107-0.501c0.003-0.549,0.206-0.796-0.076-1.638c-0.282-0.843-0.785-2.021-0.907-2.411
					c-0.123-0.39-0.181-0.354-0.338-0.702c-0.158-0.35-0.32-0.708-0.533-0.534c-0.212,0.174-0.232,0.354-0.232,0.354
					s1.675,3.329,1.533,4.399C115.005,198.023,115.176,197.707,115.176,197.707z"/>
				<g>
					<path style="fill-rule:evenodd;clip-rule:evenodd;fill:#54F2F5;" d="M114.205,197.277c0.468,0.436,0.629,0.127,0.672-0.204
						c0.043-0.331,0.05-1.216-0.256-1.992c-0.307-0.775-0.471-0.879-0.807-1.399c-0.336-0.521-0.325-1.661-0.596-1.013
						c-0.27,0.648-0.435,0.116-0.211,1.284c0.223,1.167,0.209,1.243,0.338,1.496s0.346,0.75,0.526,1.138
						S114.205,197.277,114.205,197.277z"/>
					<path style="fill-rule:evenodd;clip-rule:evenodd;fill:#2AEFF3;" d="M114.737,197.252c0.021-0.062,0.035-0.129,0.044-0.197
						c0.042-0.332,0.132-1.232-0.174-2.009c-0.307-0.775-0.421-1.139-0.757-1.659c-0.256-0.399-0.388-0.998-0.557-0.968
						l-0.011,0.025c-0.105,0.251-0.193,0.325-0.25,0.39c-0.017,0.028-0.033,0.053-0.048,0.074c-0.038,0.097-0.019,0.27,0.086,0.819
						c0.223,1.167,0.209,1.244,0.338,1.497c0.128,0.252,0.347,0.75,0.526,1.137c0.18,0.389,0.334,0.691,0.334,0.691
						C114.482,197.252,114.633,197.295,114.737,197.252z"/>
					<path style="fill-rule:evenodd;clip-rule:evenodd;fill:#0CCBCE;" d="M114.777,195.686c-0.238-0.543-0.254-0.631-0.402-0.921
						c-0.114-0.224-0.641-1.607-1-2.055c-0.057-0.071-0.231,0.08-0.326,0.34c-0.085,0.236-0.093,0.583-0.106,0.553
						c-0.057-0.135-0.049-0.336-0.021-0.49c0.049-0.267,0.222-0.471,0.217-0.501c0.259-0.574,0.382,0.265,0.711,0.775
						c0.336,0.521,0.451,0.884,0.757,1.659C114.689,195.255,114.743,195.473,114.777,195.686z"/>
					<path style="fill-rule:evenodd;clip-rule:evenodd;fill:#00B4B7;" d="M114.616,197.566c0.398,0.313,0.583-0.024,0.625-0.345
						c0.042-0.32,0.177-1.202-0.13-1.979c-0.306-0.776-0.568-1.164-0.777-1.645c-0.208-0.48-0.613-1.496-0.991-1.232
						c0.34,0.318,0.377,0.766,0.574,1.125c0.196,0.359,0.601,0.858,0.907,1.634c0.306,0.776,0.21,1.729,0.174,2.008
						C114.961,197.412,114.815,197.591,114.616,197.566z"/>
				</g>
			</g>
			<g>
				<path style="fill-rule:evenodd;clip-rule:evenodd;fill:#089FA2;" d="M133.455,131.348c-1.286,0.588-2.738,1.681-3.513,2.938
					c-0.774,1.257-2.304,3.242-0.25,1.981s1.848-0.922,2.906-2.187C133.655,132.817,133.455,131.348,133.455,131.348z"/>
				<path style="fill-rule:evenodd;clip-rule:evenodd;fill:#B4FDFF;" d="M131.829,132.939c-0.823,0.376-1.753,1.076-2.25,1.882
					c-0.497,0.805-1.477,2.077-0.161,1.269c1.315-0.808,1.184-0.59,1.861-1.399C131.958,133.881,131.829,132.939,131.829,132.939z"
					/>
				<path style="fill-rule:evenodd;clip-rule:evenodd;fill:#2AEFF3;" d="M132.827,131.74c-1.012,0.462-2.156,1.322-2.765,2.313
					c-0.61,0.988-1.814,2.552-0.197,1.56c1.617-0.993,1.455-0.726,2.288-1.721C132.984,132.896,132.827,131.74,132.827,131.74z"/>
			</g>
			<g>
				<path style="fill-rule:evenodd;clip-rule:evenodd;fill:#21F1F6;" d="M121.575,183.277c1.641,2.26,3.277,1.9,4.298,1.186
					s3.13-2.897,3.208-5.6c0.077-2.701-0.612-3.369-1.297-5.512c-0.686-2.141,2.045-4.947-1.009-4.016
					c-3.054,0.932-2.743-0.807-4.21,2.658c-1.467,3.466-1.726,3.62-1.588,4.572s0.209,2.737,0.321,4.153
					C121.409,182.136,121.575,183.277,121.575,183.277z"/>
				<path style="fill-rule:evenodd;clip-rule:evenodd;fill:#06A3A4;" d="M122.949,184.543c1.474,1.722,3.257,1.359,4.211,0.691
					c0.953-0.667,3.69-2.459,3.764-5.07c0.075-2.61-0.48-4.18-0.537-5.84c-0.056-1.662,0.024-5.087-2.65-5.372
					c1.148,1.593,0.334,2.756,0.599,4.098c0.266,1.342,1.354,3.521,1.279,6.133c-0.075,2.61-2.758,4.666-3.589,5.247
					C125.196,185.012,123.989,185.088,122.949,184.543z"/>
				<path style="fill-rule:evenodd;clip-rule:evenodd;fill:#00C1C1;" d="M124.658,184.553c0.261-0.098,0.501-0.23,0.714-0.38
					c1.022-0.716,3.637-2.729,3.714-5.431c0.077-2.702,0.28-3.893-0.406-6.033c-0.524-1.639,0.132-3.458-0.897-3.807l-0.119,0.035
					c-1.185,0.36-1.862,0.32-2.334,0.338c-0.162,0.028-0.311,0.05-0.447,0.064c-0.44,0.146-0.736,0.622-1.428,2.256
					c-1.467,3.465-1.726,3.62-1.588,4.571c0.138,0.952,0.209,2.737,0.321,4.153s0.277,2.559,0.277,2.559
					C123.216,183.914,123.967,184.399,124.658,184.553z"/>
				<path style="fill-rule:evenodd;clip-rule:evenodd;fill:#0AB7BA;" d="M128.553,180.761c-0.077-1.949,0.037-2.209-0.122-3.304
					c-0.122-0.841,0.127-5.608-0.861-7.626c-0.156-0.318-1.502-0.383-2.648,0.026c-1.039,0.37-1.897,1.212-1.898,1.105
					c-0.008-0.479,0.506-0.958,1.03-1.272c0.9-0.537,2.364-0.61,2.405-0.698c2.814-0.776,1.551,1.619,2.223,3.717
					c0.686,2.141,0.483,3.331,0.406,6.033C129.065,179.469,128.86,180.145,128.553,180.761z"/>
			</g>
			<g>
				<path style="fill-rule:evenodd;clip-rule:evenodd;fill:#345F5E;" d="M211.425,203.742c-0.043-1.023-0.126-1.292-0.002-1.821
					c0.125-0.53-0.063-0.409-1.728,0.683c-1.664,1.092-2.816,0.976-4.796,3.519c-1.979,2.544-4.531,6.431-5.462,7.584
					c-0.93,1.152-0.704,1.255-1.442,2.433c-0.738,1.177-1.498,2.389-0.543,2.682c0.954,0.294,1.535-0.012,1.535-0.012
					s6.695-11.745,10.218-13.465C212.728,203.623,211.425,203.742,211.425,203.742z"/>
				<g>
					<path style="fill-rule:evenodd;clip-rule:evenodd;fill:#01ABAB;" d="M212.083,207.539c0.372-2.286-0.881-2.156-1.969-1.621
						c-1.088,0.535-3.773,2.291-5.502,4.776s-1.711,3.187-2.611,5.248c-0.9,2.062-4.364,4.317-1.862,3.832
						c2.501-0.485,1.225,1.081,4.304-1.938c3.079-3.019,3.337-3.13,3.843-4.025c0.505-0.896,1.571-2.554,2.381-3.874
						C211.477,208.615,212.083,207.539,212.083,207.539z"/>
					<path style="fill-rule:evenodd;clip-rule:evenodd;fill:#0BA0A2;" d="M206.124,209.008c-1.164,1.81-1.396,2.035-1.978,3.065
						c-0.446,0.792-3.568,5.163-4.2,7.146c-0.1,0.313,0.707,0.538,1.684,0.301c0.884-0.215,1.947-0.887,1.882-0.788
						c-0.292,0.442-0.915,0.822-1.44,1.049c-0.901,0.386-1.868,0.273-1.948,0.35c-2.254,0.371,0.031-1.686,0.912-3.704
						c0.9-2.062,1.768-3.136,3.496-5.62C204.998,210.138,205.547,209.538,206.124,209.008z"/>
					<path style="fill-rule:evenodd;clip-rule:evenodd;fill:#237879;" d="M212.129,205.717c0.148-1.832-1.248-1.713-2.298-1.196
						c-1.051,0.518-3.988,1.882-5.717,4.367c-1.729,2.484-2.377,4.056-3.409,5.649c-1.033,1.595-3.29,4.857-1.73,5.47
						c0.277-1.668,1.556-2.676,2.247-3.992c0.691-1.315,1.385-3.537,3.114-6.022c1.729-2.484,4.801-4.108,5.716-4.559
						C210.967,204.983,211.803,205.064,212.129,205.717z"/>
				</g>
			</g>
			<g>
				<path style="fill-rule:evenodd;clip-rule:evenodd;fill:#06A3A4;" d="M211.331,150.91c-1.695-1.98-3.748-1.563-4.845-0.796
					c-1.097,0.768-4.246,2.831-4.333,5.835c-0.086,3.004,0.553,4.81,0.618,6.721s-0.027,5.854,3.05,6.181
					c-1.321-1.833-0.384-3.171-0.69-4.715s-1.557-4.053-1.471-7.057s3.174-5.369,4.13-6.038S210.135,150.284,211.331,150.91z"/>
				<path style="fill-rule:evenodd;clip-rule:evenodd;fill:#0B9B9D;" d="M209.365,150.899c-0.3,0.112-0.576,0.266-0.821,0.438
					c-1.176,0.822-4.185,3.141-4.274,6.249c-0.089,3.109-0.322,4.479,0.467,6.942c0.603,1.885-0.151,3.979,1.033,4.381l0.136-0.041
					c1.363-0.415,2.143-0.369,2.686-0.39c0.186-0.033,0.357-0.057,0.514-0.073c0.506-0.167,0.848-0.716,1.644-2.596
					c1.688-3.987,1.986-4.165,1.828-5.261s-0.241-3.149-0.369-4.779c-0.129-1.63-0.319-2.944-0.319-2.944
					C211.024,151.634,210.16,151.076,209.365,150.899z"/>
				<path style="fill-rule:evenodd;clip-rule:evenodd;fill:#0AB7BA;" d="M204.883,155.263c0.089,2.243-0.042,2.542,0.141,3.802
					c0.14,0.968-0.146,6.454,0.991,8.775c0.18,0.366,1.728,0.44,3.048-0.03c1.195-0.427,2.182-1.395,2.184-1.272
					c0.008,0.551-0.583,1.103-1.186,1.464c-1.035,0.619-2.719,0.703-2.767,0.804c-3.239,0.894-1.785-1.863-2.558-4.276
					c-0.789-2.464-0.556-3.833-0.467-6.942C204.294,156.75,204.529,155.971,204.883,155.263z"/>
			</g>
		</g>
	</g>
	<g>
		<linearGradient id="SVGID_11_" gradientUnits="userSpaceOnUse" x1="59.8926" y1="89.4961" x2="22.901" y2="45.4112">
			<stop  offset="0" style="stop-color:#969697"/>
			<stop  offset="0.2" style="stop-color:#989A9A"/>
			<stop  offset="0.68" style="stop-color:#BAC8C8"/>
			<stop  offset="1" style="stop-color:#D6E8E9"/>
		</linearGradient>
		<path style="fill-rule:evenodd;clip-rule:evenodd;fill:url(#SVGID_11_);" d="M43.6,92.907c12.501,0,22.696-10.255,22.696-22.828
			S56.101,47.251,43.6,47.251c-12.501,0-22.697,10.255-22.697,22.828S31.099,92.907,43.6,92.907z"/>
		<linearGradient id="SVGID_12_" gradientUnits="userSpaceOnUse" x1="87.4458" y1="142.7314" x2="-15.9916" y2="23.7403">
			<stop  offset="0" style="stop-color:#969697"/>
			<stop  offset="1" style="stop-color:#ABB8B8"/>
		</linearGradient>
		<path style="fill-rule:evenodd;clip-rule:evenodd;fill:url(#SVGID_12_);" d="M52.636,91.027c-3.313-0.488-2.524-1.541-7.392-2.594
			c-4.868-1.052-7.894-0.788-9.21-2.762c-1.316-1.975,0.543-2.105-2.369-2.105c-2.911,0-5.526-1.448-7.236-1.975
			c-1.71-0.525-3.012-1.057-3.012-1.057s6.204,7.634,7.337,8.368s4.228,0.057,6.464,0.188s6.447,1.448,7.236,1.579
			c0.79,0.132,4.006,1.713,4.006,1.713L52.636,91.027z"/>
		<linearGradient id="SVGID_13_" gradientUnits="userSpaceOnUse" x1="60.3052" y1="83.3496" x2="-3.6466" y2="19.3979">
			<stop  offset="0" style="stop-color:#969697"/>
			<stop  offset="1" style="stop-color:#CFE1E0"/>
		</linearGradient>
		<path style="fill-rule:evenodd;clip-rule:evenodd;fill:url(#SVGID_13_);" d="M61.033,59.093
			c-2.631-3.421,5.237,9.909,1.384,17.852c-0.855,1.762-6.113-2.618-7.452-1.926c-4.73,2.443-3.973,12.657-7.909,12.072
			c-1.241-0.184,0.171-9.158-2.222-11.542c-2.084-2.078-15.262,3.923-17.99,2.415c-5.642-3.12-2.919-10.454-1.701-12.698
			c2.758-5.08,9.504,3.479,13.378-0.312c2.001-1.958-1.945-12.389-2.713-12.389c-0.827,0-1.531-0.474-2.358-1.802
			c-0.582-0.934-4.462,1.846-4.462,1.846s3.534-3.563,8.937-4.631c5.404-1.067,6.815-0.854,8.661-0.531
			c1.846,0.323,6.068,1.493,7.808,2.546c1.74,1.053,10.042,7.111,10.972,13.599C66.296,70.08,61.033,59.093,61.033,59.093z"/>
		<path style="opacity:0.5;fill-rule:evenodd;clip-rule:evenodd;fill:#FFFFFF;" d="M56.078,51.162
			c-0.424-0.295-4.951-2.583-8.715-2.935c-3.763-0.351-5.326-0.431-6.587-0.176s-2.671-0.691-3.937,0.854
			c-1.265,1.546-0.937,1.218-0.476,2.204c0.461,0.987,1.282,0.812-0.197,1.348c-1.479,0.537-3.42,0-3.42,0s0.065-1.645-1.119,0
			c-1.184,1.646,0.986,1.25-1.711,2.172c-2.697,0.921-1.711-0.396-1.711,2.236s-3.267,2.258-3.081,3.333
			c0.187,1.075,2.883-1.096,1.239,2.26s-0.263,1.579-1.645,3.355c-1.381,1.775-2.104,0.34-2.96,2.303
			c-0.776,1.778-0.813,3.133-0.812,3.372c-0.029-0.467-0.044-0.936-0.044-1.409c0-12.608,10.162-22.828,22.697-22.828
			c2.429,0,4.769,0.385,6.963,1.096C52.564,49.066,54.433,50.021,56.078,51.162z"/>
		<path style="fill-rule:evenodd;clip-rule:evenodd;fill:#A8B3B3;" d="M44.255,47.624c0.373,0.196,0.458,0.274,0.677,0.321
			c0.219,0.048,0.141,0.096-0.558,0.522s-0.859,0.876-2.153,1.163c-1.294,0.288-3.189,0.553-3.781,0.696
			c-0.592,0.143-0.59,0.04-1.158,0.107s-1.152,0.136-1.093-0.271c0.059-0.406,0.275-0.568,0.275-0.568s5.545-0.421,6.805-1.428
			S44.255,47.624,44.255,47.624z"/>
		<path style="fill-rule:evenodd;clip-rule:evenodd;fill:#FFFFFF;" d="M42.959,46.711c0.916,0.265,0.646,0.708,0.256,1.018
			c-0.391,0.311-1.516,1-2.745,1.205c-1.228,0.205-1.486,0.075-2.411,0.047s-2.374,0.862-1.752,0.018s-0.186-0.646,1.479-1.259
			c1.665-0.613,1.751-0.69,2.173-0.72c0.422-0.03,1.226-0.135,1.86-0.203S42.959,46.711,42.959,46.711z"/>
		<path style="fill-rule:evenodd;clip-rule:evenodd;fill:#EAF8F8;" d="M43.335,47.412c-0.061,0.073-0.137,0.145-0.218,0.209
			c-0.391,0.311-1.473,1.117-2.701,1.322c-1.229,0.205-1.78,0.339-2.706,0.311c-0.708-0.022-1.574,0.271-1.665,0.031l0.023-0.032
			c0.241-0.328,0.267-0.498,0.306-0.62c0.023-0.043,0.042-0.083,0.058-0.119c0.095-0.122,0.33-0.23,1.115-0.52
			c1.664-0.613,1.751-0.69,2.173-0.72c0.422-0.03,1.226-0.135,1.859-0.203c0.634-0.069,1.14-0.105,1.14-0.105
			C43.141,47.088,43.312,47.246,43.335,47.412z"/>
		<path style="fill-rule:evenodd;clip-rule:evenodd;fill:#C3D0D0;" d="M41.365,48.668c-0.878,0.114-1.002,0.161-1.488,0.195
			c-0.373,0.027-2.548,0.418-3.396,0.304c-0.134-0.019-0.076-0.357,0.185-0.679c0.235-0.291,0.672-0.568,0.625-0.562
			c-0.216,0.031-0.467,0.195-0.644,0.351c-0.302,0.268-0.431,0.646-0.473,0.663c-0.535,0.772,0.632,0.285,1.537,0.313
			c0.925,0.028,1.477-0.105,2.706-0.311C40.746,48.888,41.066,48.789,41.365,48.668z"/>
		<path style="fill-rule:evenodd;clip-rule:evenodd;fill:#AEBBBB;" d="M43.646,47.015c0.708,0.268,0.417,0.766,0.04,1.065
			s-1.402,1.151-2.63,1.356c-1.229,0.205-1.926,0.17-2.701,0.272c-0.774,0.104-2.385,0.368-2.338-0.319
			c0.669,0.19,1.269-0.107,1.88-0.133c0.611-0.024,1.559,0.108,2.787-0.098c1.229-0.205,2.373-1.061,2.701-1.322
			C43.713,47.576,43.831,47.251,43.646,47.015z"/>
		<path style="fill-rule:evenodd;clip-rule:evenodd;fill:#FFFFFF;" d="M43.578,47.193c0,0-0.088-0.188-0.353-0.335
			s-0.605-0.173-0.876-0.084c-0.271,0.09-0.731,0.111-0.934,0.142c-0.202,0.03-1.459,0.09-1.613,0.119
			c-0.154,0.029-0.445,0.119-0.445,0.119s3.189-0.34,3.575-0.172C43.318,47.15,43.578,47.193,43.578,47.193z"/>
		<path style="fill-rule:evenodd;clip-rule:evenodd;fill:#A8B3B3;" d="M24.325,60.703c1.93-1.667,4.636-2.895,6.906-2.516
			c2.27,0.379,6.143,0.365,2.666,2.535c-3.478,2.17-2.869,2.278-5.413,2.454C25.939,63.353,24.325,60.703,24.325,60.703z"/>
		<path style="fill-rule:evenodd;clip-rule:evenodd;fill:#FFFFFF;" d="M27.805,59.894c1.236-1.067,2.969-1.854,4.423-1.611
			c1.454,0.243,3.935,0.233,1.708,1.624c-2.228,1.39-1.837,1.459-3.467,1.572C28.839,61.591,27.805,59.894,27.805,59.894z"/>
		<path style="fill-rule:evenodd;clip-rule:evenodd;fill:#EAF8F8;" d="M25.396,60.048c1.519-1.313,3.649-2.278,5.436-1.98
			c1.787,0.299,4.835,0.287,2.098,1.996c-2.737,1.708-2.258,1.794-4.261,1.932C26.667,62.134,25.396,60.048,25.396,60.048z"/>
		<path style="fill-rule:evenodd;clip-rule:evenodd;fill:#A8B3B3;" d="M60.488,55.953c0.019,0.184,0.011,0.233,0.047,0.324
			c0.036,0.092,0,0.075-0.325-0.076c-0.324-0.151-0.526-0.101-0.944-0.503c-0.418-0.401-0.973-1.027-1.168-1.208
			c-0.195-0.181-0.158-0.205-0.32-0.396c-0.162-0.19-0.328-0.387-0.166-0.463c0.162-0.077,0.273-0.038,0.273-0.038
			s1.495,1.917,2.167,2.133C60.723,55.941,60.488,55.953,60.488,55.953z"/>
		<path style="fill-rule:evenodd;clip-rule:evenodd;fill:#FFFFFF;" d="M60.506,55.261c0.125,0.397-0.101,0.406-0.308,0.34
			c-0.208-0.067-0.731-0.311-1.103-0.708c-0.372-0.397-0.387-0.522-0.601-0.866c-0.214-0.344-0.888-0.656-0.431-0.634
			c0.458,0.021,0.19-0.225,0.816,0.233c0.626,0.457,0.675,0.471,0.788,0.617c0.113,0.146,0.346,0.413,0.524,0.628
			C60.371,55.085,60.506,55.261,60.506,55.261z"/>
		<path style="fill-rule:evenodd;clip-rule:evenodd;fill:#EAF8F8;" d="M60.342,55.567c-0.041-0.005-0.085-0.016-0.128-0.029
			c-0.208-0.067-0.764-0.266-1.135-0.663c-0.372-0.397-0.554-0.566-0.768-0.91c-0.164-0.263-0.479-0.508-0.415-0.599l0.018,0.001
			c0.177,0.008,0.246-0.023,0.3-0.039c0.021-0.002,0.041-0.004,0.057-0.008c0.067,0.005,0.164,0.064,0.459,0.28
			c0.626,0.458,0.675,0.471,0.788,0.617c0.113,0.146,0.346,0.413,0.524,0.628c0.178,0.214,0.314,0.39,0.314,0.39
			C60.414,55.418,60.397,55.518,60.342,55.567z"/>
		<path style="fill-rule:evenodd;clip-rule:evenodd;fill:#C3D0D0;" d="M59.408,55.153c-0.254-0.292-0.301-0.326-0.431-0.494
			c-0.1-0.129-0.769-0.827-0.933-1.163c-0.025-0.054,0.112-0.114,0.292-0.098c0.163,0.016,0.369,0.107,0.355,0.092
			c-0.063-0.071-0.184-0.122-0.283-0.149c-0.17-0.045-0.34,0-0.356-0.012c-0.411-0.008,0.049,0.3,0.258,0.636
			c0.213,0.344,0.396,0.513,0.768,0.91C59.179,54.981,59.292,55.074,59.408,55.153z"/>
		<path style="fill-rule:evenodd;clip-rule:evenodd;fill:#AEBBBB;" d="M60.562,55.584c0.074,0.322-0.178,0.337-0.378,0.272
			c-0.201-0.065-0.758-0.232-1.13-0.63c-0.372-0.397-0.528-0.66-0.752-0.917c-0.226-0.257-0.711-0.779-0.45-0.929
			c0.092,0.29,0.346,0.437,0.503,0.652c0.157,0.217,0.338,0.594,0.71,0.991s0.96,0.607,1.135,0.664
			C60.374,55.744,60.521,55.709,60.562,55.584z"/>
		<path style="fill-rule:evenodd;clip-rule:evenodd;fill:#A8B3B3;" d="M32.631,49.996c0.445-0.374,1.107-0.722,1.711-0.789
			c0.604-0.066,1.611-0.285,0.781,0.257c-0.831,0.541-0.668,0.524-1.324,0.695C33.143,50.329,32.631,49.996,32.631,49.996z"/>
		<path style="fill-rule:evenodd;clip-rule:evenodd;fill:#FFFFFF;" d="M33.51,49.672c0.285-0.239,0.709-0.462,1.096-0.505
			s1.032-0.183,0.5,0.164s-0.428,0.336-0.848,0.445S33.51,49.672,33.51,49.672z"/>
		<path style="fill-rule:evenodd;clip-rule:evenodd;fill:#EAF8F8;" d="M32.888,49.832c0.35-0.295,0.871-0.569,1.346-0.621
			c0.476-0.053,1.269-0.225,0.615,0.201c-0.654,0.427-0.526,0.413-1.043,0.548C33.291,50.094,32.888,49.832,32.888,49.832z"/>
		<path style="fill-rule:evenodd;clip-rule:evenodd;fill:#E6F5F6;" d="M50.194,55.697c0.874,1.598,0.206,2.462-0.501,2.865
			c-0.707,0.402-2.583,1.036-4.197,0.327c-1.615-0.709-1.817-1.302-2.888-2.304c-1.071-1.002-3.488-0.176-2.086-1.716
			c1.402-1.541,0.291-1.843,2.744-1.74s2.616-0.007,3.139,0.341c0.523,0.347,1.556,0.887,2.359,1.349
			C49.566,55.28,50.194,55.697,50.194,55.697z"/>
		<path style="fill-rule:evenodd;clip-rule:evenodd;fill:#A8B3B3;" d="M50.556,56.86c0.604,1.35-0.108,2.3-0.768,2.676
			s-2.481,1.489-4.041,0.804c-1.56-0.685-2.33-1.45-3.294-1.947c-0.963-0.497-3.006-1.406-2.427-3.063
			c0.619,1.122,1.531,0.967,2.249,1.498c0.717,0.531,1.699,1.781,3.258,2.466c1.561,0.686,3.522-0.323,4.097-0.65
			S50.587,57.626,50.556,56.86z"/>
		<path style="fill-rule:evenodd;clip-rule:evenodd;fill:#B4C3C3;" d="M50.084,57.871c-0.13,0.127-0.276,0.23-0.423,0.314
			c-0.707,0.402-2.625,1.382-4.239,0.674c-1.614-0.709-2.373-0.922-3.444-1.925c-0.82-0.767-2.076-0.888-1.994-1.592l0.054-0.06
			c0.544-0.598,0.709-1.009,0.852-1.282c0.062-0.087,0.116-0.169,0.163-0.246c0.208-0.219,0.573-0.26,1.729-0.212
			c2.453,0.103,2.616-0.007,3.139,0.34c0.522,0.348,1.555,0.888,2.359,1.35c0.804,0.461,1.431,0.878,1.431,0.878
			C50.111,56.843,50.187,57.42,50.084,57.871z"/>
		<path style="fill-rule:evenodd;clip-rule:evenodd;fill:#B7C3C3;" d="M46.761,59.108c-1.128-0.59-1.313-0.596-1.914-0.995
			c-0.462-0.307-3.342-1.491-4.256-2.637c-0.144-0.182,0.194-0.992,0.755-1.555c0.508-0.509,1.244-0.78,1.182-0.811
			c-0.28-0.138-0.707,0.031-1.038,0.253c-0.569,0.38-1.02,1.223-1.083,1.223c-1.243,1.442,0.522,1.366,1.571,2.348
			c1.071,1.003,1.83,1.216,3.444,1.925C45.856,59.05,46.313,59.118,46.761,59.108z"/>
		<path style="fill-rule:evenodd;clip-rule:evenodd;fill:#A0A1A1;" d="M45.817,91.73c-0.373-0.197-0.458-0.274-0.677-0.322
			c-0.219-0.047-0.141-0.095,0.558-0.521c0.699-0.427,0.859-0.876,2.153-1.164s3.189-0.552,3.781-0.695
			c0.592-0.143,0.59-0.04,1.158-0.107c0.568-0.067,1.152-0.136,1.093,0.271c-0.059,0.406-0.275,0.568-0.275,0.568
			s-5.545,0.421-6.805,1.428C45.543,92.193,45.817,91.73,45.817,91.73z"/>
		<path style="fill-rule:evenodd;clip-rule:evenodd;fill:#A8B4B4;" d="M47.114,92.643c-0.916-0.264-0.647-0.707-0.257-1.018
			c0.391-0.31,1.517-0.999,2.745-1.204c1.229-0.205,1.486-0.075,2.411-0.047c0.925,0.028,2.374-0.862,1.752-0.018
			s0.186,0.646-1.479,1.259s-1.751,0.689-2.173,0.72s-1.226,0.135-1.859,0.203C47.62,92.606,47.114,92.643,47.114,92.643z"/>
		<path style="fill-rule:evenodd;clip-rule:evenodd;fill:#AAB4B4;" d="M48.708,90.687c0.878-0.114,1.003-0.161,1.488-0.196
			c0.373-0.026,2.547-0.417,3.396-0.303c0.134,0.019,0.075,0.357-0.185,0.679c-0.235,0.291-0.672,0.568-0.624,0.562
			c0.216-0.031,0.467-0.195,0.643-0.351c0.302-0.268,0.431-0.646,0.473-0.663c0.535-0.772-0.632-0.285-1.538-0.313
			c-0.925-0.028-1.477,0.105-2.706,0.311C49.327,90.467,49.007,90.565,48.708,90.687z"/>
		<path style="fill-rule:evenodd;clip-rule:evenodd;fill:#A2A8A8;" d="M46.427,92.34c-0.707-0.269-0.417-0.766-0.04-1.065
			c0.377-0.3,1.402-1.151,2.63-1.356c1.228-0.205,1.926-0.17,2.701-0.272c0.774-0.104,2.385-0.368,2.338,0.319
			c-0.669-0.19-1.269,0.107-1.88,0.133c-0.61,0.025-1.559-0.108-2.787,0.097c-1.228,0.205-2.373,1.062-2.701,1.322
			C46.36,91.778,46.243,92.104,46.427,92.34z"/>
		<path style="fill-rule:evenodd;clip-rule:evenodd;fill:#A8B3B3;" d="M25.721,81.589c-0.771-1.725,0.138-2.939,0.981-3.42
			c0.843-0.48,3.17-1.902,5.164-1.027c1.994,0.875,2.978,1.854,4.21,2.489c1.231,0.635,3.841,1.797,3.102,3.913
			c-0.791-1.434-1.958-1.234-2.874-1.914c-0.916-0.679-2.17-2.276-4.165-3.151c-1.994-0.875-4.5,0.413-5.235,0.831
			C26.17,79.729,25.682,80.611,25.721,81.589z"/>
		<path style="fill-rule:evenodd;clip-rule:evenodd;fill:#A7B3B3;" d="M26.324,80.298c0.167-0.162,0.353-0.295,0.541-0.402
			c0.903-0.515,3.354-1.767,5.418-0.86c2.063,0.905,3.032,1.178,4.401,2.459c1.047,0.979,2.652,1.135,2.548,2.034l-0.069,0.077
			c-0.695,0.763-0.907,1.288-1.088,1.638c-0.079,0.111-0.148,0.217-0.208,0.314c-0.267,0.279-0.732,0.333-2.21,0.271
			c-3.134-0.131-3.344,0.01-4.012-0.435c-0.668-0.443-1.988-1.134-3.015-1.724s-1.829-1.122-1.829-1.122
			C26.29,81.611,26.192,80.873,26.324,80.298z"/>
		<path style="fill-rule:evenodd;clip-rule:evenodd;fill:#B7C3C3;" d="M30.571,78.716c1.441,0.754,1.677,0.761,2.445,1.271
			c0.59,0.392,4.272,1.906,5.439,3.37c0.185,0.231-0.247,1.269-0.965,1.986c-0.65,0.65-1.59,0.997-1.511,1.036
			c0.358,0.177,0.903-0.039,1.327-0.322c0.727-0.486,1.304-1.563,1.385-1.563c1.589-1.843-0.667-1.746-2.007-3
			c-1.369-1.281-2.338-1.554-4.401-2.459C31.728,78.791,31.145,78.704,30.571,78.716z"/>
		<path style="fill-rule:evenodd;clip-rule:evenodd;fill:#AAB1B1;" d="M55.379,82.037c-1.704-0.032-2.348-1.24-2.417-2.113
			c-0.069-0.873-0.338-3.319,1.141-4.612c1.479-1.292,2.656-1.722,3.647-2.483c0.991-0.763,2.941-2.448,4.386-1.033
			c-1.474,0.097-1.759,1.126-2.665,1.613c-0.906,0.488-2.691,0.9-4.171,2.193s-1.389,3.834-1.328,4.595
			C54.032,80.956,54.566,81.693,55.379,82.037z"/>
		<path style="fill-rule:evenodd;clip-rule:evenodd;fill:#A8B0B0;" d="M54.556,81.05c-0.068-0.198-0.105-0.401-0.121-0.597
			c-0.074-0.935-0.157-3.417,1.374-4.755c1.531-1.338,2.125-2.024,3.696-2.652c1.202-0.479,1.944-1.731,2.639-1.301l0.037,0.086
			c0.357,0.86,0.705,1.234,0.92,1.517c0.061,0.107,0.12,0.203,0.177,0.29c0.126,0.325-0.009,0.726-0.625,1.909
			c-1.309,2.51-1.275,2.734-1.894,3.109s-1.688,1.188-2.564,1.802c-0.875,0.613-1.618,1.063-1.618,1.063
			C55.617,81.581,54.976,81.377,54.556,81.05z"/>
		<path style="fill-rule:evenodd;clip-rule:evenodd;fill:#B9C0C0;" d="M54.893,76.974c1.168-0.888,1.264-1.078,1.976-1.51
			c0.546-0.332,3.195-2.758,4.838-3.15c0.26-0.062,0.941,0.688,1.252,1.551c0.282,0.779,0.204,1.681,0.267,1.63
			c0.281-0.225,0.314-0.752,0.245-1.206c-0.118-0.78-0.776-1.665-0.745-1.73c-0.897-2.005-1.682-0.125-3.221,0.488
			c-1.571,0.628-2.165,1.314-3.696,2.652C55.397,76.059,55.103,76.501,54.893,76.974z"/>
	</g>
</g>
</svg>
