<?xml version="1.0" encoding="UTF-8"?>
<!DOCTYPE svg PUBLIC "-//W3C//DTD SVG 1.1//EN" "http://www.w3.org/Graphics/SVG/1.1/DTD/svg11.dtd">
<!-- Creator: CorelDRAW -->
<svg xmlns="http://www.w3.org/2000/svg" xml:space="preserve" width="1243px" height="1243px" style="shape-rendering:geometricPrecision; text-rendering:geometricPrecision; image-rendering:optimizeQuality; fill-rule:evenodd; clip-rule:evenodd"
viewBox="0 0 3077.73 3077.72"
 xmlns:xlink="http://www.w3.org/1999/xlink">
  <metadata
     id="metadata3960">
    <rdf:RDF>
      <cc:Work
         rdf:about="">
        <dc:format>image/svg+xml</dc:format>
        <dc:type
           rdf:resource="http://purl.org/dc/dcmitype/StillImage" />
        <dc:title></dc:title>
        <cc:license
           rdf:resource="http://www.gnu.org/licenses/gpl-3.0.html" />
        <dc:creator>
          <cc:Agent>
            <dc:title>Abhash Bikram Thapa</dc:title>
          </cc:Agent>
        </dc:creator>
        <dc:description>http://pixelpinch.com</dc:description>
      </cc:Work>
    </rdf:RDF>
  </metadata>
 <defs>
  <style type="text/css">
   <![CDATA[
    .str0 {stroke:#FEFEFE;stroke-width:5.15908}
    .fil1 {fill:none}
    .fil33 {fill:#00B4B7}
    .fil37 {fill:#00C1C1}
    .fil23 {fill:#00D0D3}
    .fil40 {fill:#01ABAB}
    .fil36 {fill:#06A3A4}
    .fil29 {fill:#089FA2}
    .fil38 {fill:#0AB7BA}
    .fil43 {fill:#0B9B9D}
    .fil41 {fill:#0BA0A2}
    .fil32 {fill:#0CCBCE}
    .fil35 {fill:#21F1F6}
    .fil42 {fill:#237879}
    .fil31 {fill:#2AEFF3}
    .fil39 {fill:#345F5E}
    .fil30 {fill:#54F2F5}
    .fil14 {fill:#A0A1A1}
    .fil17 {fill:#A2A8A8}
    .fil18 {fill:#A7B3B3}
    .fil20 {fill:#A8B0B0}
    .fil6 {fill:#A8B3B3}
    .fil15 {fill:#A8B4B4}
    .fil19 {fill:#AAB1B1}
    .fil16 {fill:#AAB4B4}
    .fil10 {fill:#AEBBBB}
    .fil12 {fill:#B4C3C3}
    .fil34 {fill:#B4FDFF}
    .fil13 {fill:#B7C3C3}
    .fil21 {fill:#B9C0C0}
    .fil9 {fill:#C3D0D0}
    .fil11 {fill:#E6F5F6}
    .fil8 {fill:#EAF8F8}
    .fil7 {fill:white}
    .fil48 {fill:#999999;fill-rule:nonzero}
    .fil47 {fill:#B3B3B3;fill-rule:nonzero}
    .fil27 {fill:#54F2F5;fill-opacity:0.501961}
    .fil5 {fill:white;fill-opacity:0.501961}
    .fil26 {fill:url(#id1)}
    .fil28 {fill:url(#id2)}
    .fil22 {fill:url(#id3)}
    .fil2 {fill:url(#id4)}
    .fil24 {fill:url(#id5)}
    .fil25 {fill:url(#id6)}
    .fil3 {fill:url(#id7)}
    .fil4 {fill:url(#id8)}
    .fil44 {fill:url(#id9)}
    .fil46 {fill:url(#id10)}
    .fil45 {fill:url(#id11)}
    .fil49 {fill:url(#id12)}
    .fil0 {fill:url(#id13)}
   ]]>
  </style>
   <clipPath id="id0">
    <path d="M2474.82 83.686l-1871.9 0c-285.595,0 -519.24,233.645 -519.24,519.216l0 1871.9c0,285.595 233.645,519.24 519.24,519.24l1871.9 0c285.572,0 519.216,-233.645 519.216,-519.24l0 -1871.9c0,-285.572 -233.645,-519.216 -519.216,-519.216z"/>
   </clipPath>
  <linearGradient id="id1" gradientUnits="userSpaceOnUse" x1="166.989" y1="1473.38" x2="638.843" y2="1010.47">
   <stop offset="0" style="stop-color:#444444"/>
   <stop offset="1" style="stop-color:#00EDF1"/>
  </linearGradient>
  <linearGradient id="id2" gradientUnits="userSpaceOnUse" x1="327.962" y1="1721.8" x2="639.861" y2="1185.07">
   <stop offset="0" style="stop-color:#444444"/>
   <stop offset="1" style="stop-color:#00B1B4"/>
  </linearGradient>
  <linearGradient id="id3" gradientUnits="userSpaceOnUse" x1="181.346" y1="1834.36" x2="788.609" y2="1119.66">
   <stop offset="0" style="stop-color:#444444"/>
   <stop offset="0.2" style="stop-color:#3F4D4C"/>
   <stop offset="0.678431" style="stop-color:#00CBCE"/>
   <stop offset="1" style="stop-color:#00FAFF"/>
  </linearGradient>
  <linearGradient id="id4" gradientUnits="userSpaceOnUse" x1="1435.46" y1="514.347" x2="1744.19" y2="150.991">
   <stop offset="0" style="stop-color:#9A9A9A"/>
   <stop offset="0.2" style="stop-color:#9B9D9D"/>
   <stop offset="0.678431" style="stop-color:#BBC9CA"/>
   <stop offset="1" style="stop-color:#D6E8E9"/>
  </linearGradient>
  <linearGradient id="id5" gradientUnits="userSpaceOnUse" xlink:href="#id1" x1="390.856" y1="1866.29" x2="697.006" y2="1425.08">
  </linearGradient>
  <linearGradient id="id6" gradientUnits="userSpaceOnUse" xlink:href="#id2" x1="490.952" y1="1929.37" x2="705.16" y2="1689.49">
  </linearGradient>
  <linearGradient id="id7" gradientUnits="userSpaceOnUse" x1="1592.86" y1="562.65" x2="1701.76" y2="440.695">
   <stop offset="0" style="stop-color:#9A9A9A"/>
   <stop offset="1" style="stop-color:#ADB9BA"/>
  </linearGradient>
  <linearGradient id="id8" gradientUnits="userSpaceOnUse" x1="1476.44" y1="413.636" x2="1700.1" y2="194.206">
   <stop offset="0" style="stop-color:#9A9A9A"/>
   <stop offset="1" style="stop-color:#CFE0E0"/>
  </linearGradient>
  <linearGradient id="id9" gradientUnits="userSpaceOnUse" x1="1275.84" y1="2422.79" x2="2160.97" y2="1446.2">
   <stop offset="0" style="stop-color:#FFCC41"/>
   <stop offset="1" style="stop-color:yellow"/>
  </linearGradient>
  <linearGradient id="id10" gradientUnits="userSpaceOnUse" x1="1318.58" y1="2263.79" x2="1522.03" y2="2028.61">
   <stop offset="0" style="stop-color:red"/>
   <stop offset="1" style="stop-color:#FF6600"/>
  </linearGradient>
  <linearGradient id="id11" gradientUnits="userSpaceOnUse" x1="1105.62" y1="2176.61" x2="1764.99" y2="1601.92">
   <stop offset="0" style="stop-color:#FF6600"/>
   <stop offset="1" style="stop-color:#FEBA00"/>
  </linearGradient>
  <radialGradient id="id12" gradientUnits="userSpaceOnUse" cx="1538.86" cy="1538.86" r="1538.86" fx="1538.86" fy="1538.86">
   <stop offset="0" style="stop-color:black"/>
   <stop offset="0.701961" style="stop-color:#313131"/>
   <stop offset="1" style="stop-color:#626262"/>
  </radialGradient>
  <radialGradient id="id13" gradientUnits="userSpaceOnUse" cx="1538.86" cy="1538.86" r="1338.76" fx="1538.86" fy="1538.86">
   <stop offset="0" style="stop-color:#330099"/>
   <stop offset="0.321569" style="stop-color:#330066"/>
   <stop offset="0.619608" style="stop-color:#330066"/>
   <stop offset="1" style="stop-color:black"/>
  </radialGradient>
 </defs>
 <g id="Layer_x0020_1">
  <metadata id="CorelCorpID_0Corel-Layer"/>
  <path class="fil0" d="M2474.82 83.686l-1871.9 0c-285.595,0 -519.24,233.645 -519.24,519.216l0 1871.9c0,285.595 233.645,519.24 519.24,519.24l1871.9 0c285.572,0 519.216,-233.645 519.216,-519.24l0 -1871.9c0,-285.572 -233.645,-519.216 -519.216,-519.216z"/>
  <g style="clip-path:url(#id0)">
   <g id="_252360536">
    <ellipse id="_256230800" class="fil1 str0" transform="matrix(0.966633 -0.584248 0.584248 0.966633 910.488 1479.68)" rx="1518.8" ry="797.497"/>
    <g>
     <ellipse id="_256230704" class="fil2" cx="1589.82" cy="332.669" rx="234.176" ry="235.53"/>
     <path id="_256230536" class="fil3" d="M1496.58 548.793c34.1833,-5.03332 26.0469,-15.8926 76.272,-26.7547 50.2221,-10.8592 81.4428,-8.13345 95.0219,-28.5007 13.5762,-20.3673 -5.60071,-21.7214 24.4384,-21.7214 30.0362,0 57.0131,-14.942 74.6605,-20.3673 17.6503,-5.42815 31.0744,-10.9031 31.0744,-10.9031 0,0 -64.0089,78.7608 -75.6987,86.3357 -11.6898,7.57777 -43.6153,0.58493 -66.6908,1.94782 -23.0755,1.35996 -66.5183,14.9391 -74.6634,16.2932 -8.14223,1.35411 -41.3253,17.6678 -41.3253,17.6678l-43.0889 -13.9974z"/>
     <path id="_256230368" class="fil4" d="M1409.95 219.308c27.1466,-35.2918 -54.0329,102.246 -14.284,184.183 8.82367,18.1826 63.0701,-27.0092 76.8861,-19.8672 48.8036,25.2105 40.989,130.592 81.6065,124.558 12.7983,-1.89517 -1.76356,-94.4867 22.9205,-119.083 21.5079,-21.4406 157.46,40.4713 185.61,24.9151 58.2123,-32.1887 30.121,-107.861 17.545,-131.019 -28.4539,-52.4068 -98.0606,35.8913 -138.023,-3.20834 -20.6539,-20.2035 20.0631,-127.819 27.986,-127.819 8.53706,0 15.7931,-4.89294 24.3331,-18.592 6.00723,-9.63088 46.0369,19.0453 46.0369,19.0453 0,0 -36.4587,-36.7629 -92.2055,-47.78 -55.7497,-11.0172 -70.3145,-8.8149 -89.3598,-5.48372 -19.0453,3.3341 -62.6022,15.41 -80.5566,26.2692 -17.9515,10.8622 -103.609,73.3678 -113.204,140.304 -9.59578,66.9394 44.7091,-46.423 44.7091,-46.423z"/>
     <path id="_256230200" class="fil5" d="M1461.08 137.488c4.37528,-3.04749 51.0849,-26.6553 89.9155,-30.276 38.8306,-3.62072 54.9513,-4.44254 67.963,-1.81328 13.0118,2.62634 27.559,-7.13615 40.6117,8.8149 13.0527,15.951 9.66305,12.5614 4.91049,22.7392 -4.75548,10.1807 -13.2253,8.36743 2.03556,13.9067 15.2608,5.54221 35.2888,0 35.2888,0 0,0 -0.67267,-16.9688 11.5436,0 12.2163,16.9688 -10.1807,12.8977 17.6503,22.4028 27.8281,9.50804 17.6503,-4.07989 17.6503,23.0755 0,27.1583 33.7066,23.2978 31.7851,34.391 -1.9215,11.0903 -29.7495,-11.3067 -12.7807,23.3124 16.9688,34.6191 2.717,16.2962 16.9688,34.6191 14.2489,18.3229 21.7126,3.50373 30.5451,23.7569 8.00477,18.3551 8.38205,32.3291 8.37328,34.7916 0.29539,-4.81105 0.45917,-9.65427 0.45917,-14.5384 0,-130.086 -104.849,-235.531 -234.174,-235.531 -25.0643,0 -49.2073,3.97168 -71.8411,11.3038 -20.6539,7.41984 -39.9361,17.2642 -56.9049,29.0447z"/>
     <path id="_256230032" class="fil6" d="M1583.05 100.985c-3.84884,2.02678 -4.72624,2.82814 -6.98407,3.31655 -2.26076,0.485492 -1.45355,0.985607 5.75571,5.38721 7.21219,4.4016 8.86169,9.03132 22.2127,12.0028 13.351,2.97145 32.9023,5.70014 39.0119,7.17417 6.1096,1.47402 6.08912,0.418225 11.9472,1.11137 5.85808,0.693142 11.8829,1.40676 11.2775,-2.78719 -0.608327,-4.19102 -2.83399,-5.86685 -2.83399,-5.86685 0,0 -57.2149,-4.34311 -70.2121,-14.7285 -13.0001,-10.3884 -10.1749,-5.60948 -10.1749,-5.60948z"/>
     <path id="_256229864" class="fil7" d="M1596.42 91.565c-9.44955,2.7287 -6.67113,7.29993 -2.64388,10.4995 4.03017,3.20249 15.644,10.3094 28.3165,12.4268 12.6725,2.11745 15.3339,0.775032 24.8771,0.482567 9.54021,-0.292465 24.4881,8.89679 18.0802,0.181328 -6.40791,-8.71546 1.91857,-6.66235 -15.2521,-12.9884 -17.1735,-6.3231 -18.0714,-7.11568 -22.4262,-7.42569 -4.35481,-0.310013 -12.6462,-1.38628 -19.1857,-2.09405 -6.53952,-0.707766 -11.7659,-1.08212 -11.7659,-1.08212z"/>
     <path id="_256229696" class="fil8" d="M1592.54 98.7976c0.631725,0.75456 1.41846,1.4828 2.25491,2.14962 4.03017,3.20249 15.1994,11.526 27.8719,13.6435 12.6725,2.11745 18.3668,3.49496 27.9099,3.20249 7.29993,-0.225198 16.2435,2.79597 17.1794,0.330486l-0.242746 -0.339259c-2.48595,-3.3809 -2.75502,-5.13861 -3.15277,-6.39621 -0.242746,-0.447472 -0.438698,-0.853998 -0.599553,-1.22543 -0.976833,-1.26345 -3.40429,-2.38359 -11.5027,-5.36673 -17.1706,-6.3231 -18.0714,-7.11568 -22.4233,-7.42569 -4.35481,-0.310013 -12.6462,-1.38628 -19.1857,-2.09405 -6.53952,-0.71069 -11.7659,-1.08212 -11.7659,-1.08212 -4.33141,1.25175 -6.09205,2.88663 -6.34357,4.6034z"/>
     <path id="_256229528" class="fil9" d="M1612.88 111.757c9.05472,1.17571 10.3416,1.65828 15.3486,2.01508 3.84884,0.274917 26.2868,4.30801 35.0432,3.12938 1.38336,-0.187178 0.780882,-3.69091 -1.90395,-7.00746 -2.43038,-3.00069 -6.93727,-5.861 -6.44301,-5.78788 2.23151,0.318787 4.8169,2.01216 6.63896,3.61779 3.11768,2.75502 4.44547,6.6682 4.87832,6.83783 5.52174,7.9726 -6.51905,2.94512 -15.8633,3.23174 -9.54314,0.292465 -15.2374,-1.08505 -27.9099,-3.20249 -3.41014,-0.570307 -6.70915,-1.58809 -9.78881,-2.83399z"/>
     <path id="_256229360" class="fil10" d="M1589.35 94.6973c-7.297,2.76087 -4.30216,7.89656 -0.412376,10.9879 3.88979,3.09136 14.4624,11.877 27.1349,13.9945 12.6725,2.11745 19.873,1.75187 27.8661,2.81644 7.99015,1.06165 24.608,3.79327 24.1225,-3.29901 -6.90218,1.96829 -13.0907,-1.10844 -19.3934,-1.36581 -6.30262,-0.260294 -16.0856,1.11137 -28.7581,-1.00608 -12.6725,-2.11745 -24.4793,-10.9499 -27.869,-13.6435 -3.38967,-2.6936 -4.60048,-6.04525 -2.69068,-8.48441z"/>
     <path id="_256229192" class="fil7" d="M1590.05 96.5339c0,0 0.903717,-1.93027 3.64119,-3.44816 2.73455,-1.52082 6.24705,-1.78696 9.0401,-0.865697 2.79304,0.921265 7.55145,1.14061 9.6338,1.45355 2.08235,0.312938 15.0532,0.927114 16.6413,1.2342 1.59101,0.304164 4.59463,1.22835 4.59463,1.22835 0,0 -32.9082,-3.50958 -36.8886,-1.77819 -3.98045,1.73139 -6.66235,2.17594 -6.66235,2.17594z"/>
     <path id="_256229024" class="fil6" d="M1788.69 235.923c-19.911,-17.1999 -47.8327,-29.8665 -71.2562,-25.9563 -23.4206,3.91026 -63.3772,3.76695 -27.5005,26.1581 35.8796,22.3941 29.6004,23.5113 55.8491,25.3246 26.2517,1.81328 42.9076,-25.5264 42.9076,-25.5264z"/>
     <path id="_256228856" class="fil7" d="M1752.78 227.573c-12.7544,-11.0172 -30.6357,-19.1272 -45.6363,-16.6237 -15.0035,2.5035 -40.5942,2.40991 -17.6152,16.7524 22.9819,14.3425 18.9576,15.059 35.7714,16.2201 16.8109,1.16109 27.48,-16.3488 27.48,-16.3488z"/>
     <path id="_256228688" class="fil8" d="M1777.63 229.164c-15.6732,-13.5382 -37.652,-23.5054 -56.086,-20.4287 -18.4341,3.07966 -49.8858,2.96267 -21.6453,20.5895 28.2404,17.6269 23.2978,18.5043 43.9604,19.9315 20.6597,1.42723 33.7709,-20.0924 33.7709,-20.0924z"/>
     <path id="_256228520" class="fil6" d="M1415.57 186.92c-0.193027,1.89225 -0.114061,2.40699 -0.482567,3.3458 -0.368506,0.941738 0.0058493,0.769183 3.35457,-0.79258 3.34873,-1.55884 5.43108,-1.03825 9.74494,-5.18248 4.31386,-4.14131 10.0374,-10.5989 12.0525,-12.4649 2.01508,-1.86885 1.62611,-2.11745 3.29608,-4.08281 1.66998,-1.96537 3.38675,-3.9863 1.71385,-4.77888 -1.6729,-0.795505 -2.82229,-0.388979 -2.82229,-0.388979 0,0 -15.4246,19.7794 -22.3531,21.9992 -6.9285,2.21689 -4.50396,2.34557 -4.50396,2.34557z"/>
     <path id="_256228352" class="fil7" d="M1415.38 179.772c-1.2927,4.10036 1.04118,4.19687 3.18202,3.50373 2.14084,-0.693142 7.53975,-3.19957 11.3769,-7.30285 3.83714,-4.10036 3.99215,-5.39306 6.19441,-8.94066 2.20519,-3.54468 9.16586,-6.76179 4.44254,-6.53659 -4.72331,0.222273 -1.95952,-2.3134 -8.42007,2.40991 -6.45763,4.72039 -6.96359,4.85785 -8.13053,6.36696 -1.16694,1.50912 -3.56515,4.26707 -5.40475,6.4781 -1.83961,2.20811 -3.24051,4.02139 -3.24051,4.02139z"/>
     <path id="_256228184" class="fil8" d="M1417.08 182.934c0.426999,-0.0438698 0.883245,-0.155006 1.32779,-0.298314 2.14084,-0.693142 7.87608,-2.74332 11.7132,-6.84661 3.83714,-4.10036 5.71769,-5.84053 7.91995,-9.3852 1.6846,-2.71115 4.94851,-5.23805 4.27584,-6.17686l-0.181328 0.00877395c-1.83083,0.0848149 -2.53567,-0.242746 -3.09136,-0.400677 -0.222273,-0.0204726 -0.418225,-0.0467944 -0.590779,-0.0789656 -0.696067,0.0497191 -1.69045,0.663896 -4.73793,2.88956 -6.45763,4.72039 -6.96359,4.85785 -8.13053,6.36696 -1.16694,1.50912 -3.56515,4.26707 -5.40475,6.4781 -1.83961,2.20811 -3.24051,4.02139 -3.24051,4.02139 -0.593704,1.88055 -0.424074,2.91588 0.140383,3.42184z"/>
     <path id="_256228016" class="fil9" d="M1426.71 178.667c2.62049,-3.01239 3.10598,-3.36335 4.44839,-5.10059 1.0324,-1.33364 7.92873,-8.52828 9.61918,-11.9998 0.266143,-0.549834 -1.15524,-1.17863 -3.01239,-1.00316 -1.67875,0.157931 -3.81082,1.10844 -3.66459,0.944662 0.655122,-0.734087 1.8981,-1.26637 2.92173,-1.54129 1.75772,-0.467944 3.50373,-0.00292465 3.67044,-0.122835 4.24074,-0.0789656 -0.505965,3.08843 -2.66143,6.55999 -2.20226,3.54468 -4.08281,5.28484 -7.91995,9.3852 -1.0324,1.10259 -2.20226,2.05895 -3.40137,2.87786z"/>
     <path id="_256227848" class="fil10" d="M1414.81 183.107c-0.760409,3.32533 1.83376,3.47741 3.90148,2.81059 2.06773,-0.669745 7.82344,-2.39236 11.6606,-6.49272 3.83714,-4.10329 5.44862,-6.81151 7.76787,-9.46417 2.32217,-2.65266 7.33795,-8.04279 4.6385,-9.58116 -0.953436,2.98899 -3.571,4.49811 -5.19126,6.72962 -1.62026,2.23151 -3.48618,6.12714 -7.32333,10.2275 -3.84007,4.10036 -9.91164,6.2646 -11.7132,6.84661 -1.80158,0.582006 -3.31363,0.210575 -3.74063,-1.07627z"/>
     <path id="_256227680" class="fil6" d="M1702.98 125.459c-4.5917,-3.86346 -11.4237,-7.45201 -17.6532,-8.1393 -6.22951,-0.687293 -16.6237,-2.94805 -8.05741,2.64096 8.56923,5.58901 6.89633,5.41353 13.664,7.17417 6.77057,1.76064 12.0466,-1.67582 12.0466,-1.67582z"/>
     <path id="_256227512" class="fil7" d="M1693.92 122.113c-2.93927,-2.47425 -7.31455,-4.77303 -11.3038,-5.21173 -3.98922,-0.441622 -10.6487,-1.88932 -5.16201,1.69045 5.48957,3.57977 4.41622,3.46864 8.75348,4.59463 4.33433,1.12599 7.7123,-1.07335 7.7123,-1.07335z"/>
     <path id="_256227344" class="fil8" d="M1700.34 123.76c-3.61194,-3.04164 -8.99038,-5.86685 -13.8921,-6.40791 -4.90464,-0.538136 -13.0849,-2.31925 -6.34357,2.07943 6.74424,4.39867 5.42815,4.26122 10.7569,5.6475 5.32871,1.38628 9.47879,-1.31902 9.47879,-1.31902z"/>
     <path id="_256227176" class="fil11" d="M1521.78 184.273c-9.0167,16.4892 -2.12037,25.4094 5.17371,29.5624 7.29408,4.15593 26.6494,10.6954 43.3082,3.3809 16.6559,-7.31455 18.7412,-13.43 29.7905,-23.7686 11.0523,-10.3416 35.9908,-1.81621 21.5254,-17.7088 -14.4682,-15.8926 -2.99777,-19.0102 -28.3048,-17.9515 -25.3041,1.0558 -26.9916,-0.0701916 -32.3847,3.51251 -5.39306,3.57977 -16.0476,9.15708 -24.3419,13.9155 -8.29431,4.75841 -14.7666,9.05764 -14.7666,9.05764z"/>
     <path id="_256227008" class="fil6" d="M1518.05 196.279c-6.22366,13.9243 1.11722,23.7306 7.92288,27.6058 6.80859,3.87809 25.5995,15.3632 41.6938,8.29723 16.0944,-7.06596 24.0436,-14.9654 33.9844,-20.0953 9.94381,-5.12691 31.013,-14.5092 25.0409,-31.595 -6.38159,11.5758 -15.8019,9.97013 -23.1983,15.4509 -7.39937,5.4808 -17.5274,18.3785 -33.6218,25.4474 -16.0973,7.06596 -36.3359,-3.33703 -42.2641,-6.715 -5.92827,-3.37797 -9.87362,-10.5024 -9.55776,-18.3961z"/>
     <path id="_256226840" class="fil12" d="M1522.91 206.703c1.34534,1.30732 2.84569,2.38067 4.3665,3.24636 7.29408,4.15593 27.0823,14.2606 43.7382,6.94897 16.6588,-7.31455 24.4823,-9.51096 35.5345,-19.8525 8.45517,-7.90826 21.4172,-9.16293 20.572,-16.4248l-0.552759 -0.620026c-5.60948,-6.16516 -7.3204,-10.4059 -8.78565,-13.2253 -0.640499,-0.900792 -1.19326,-1.74602 -1.67582,-2.53567 -2.15547,-2.25783 -5.91072,-2.68775 -17.8433,-2.19056 -25.3041,1.0558 -26.9916,-0.0701916 -32.3847,3.51251 -5.39306,3.57977 -16.0476,9.15708 -24.3419,13.9155 -8.29431,4.75841 -14.7666,9.05764 -14.7666,9.05764 -4.13253,7.5573 -4.91926,13.5207 -3.86054,18.1679z"/>
     <path id="_256226672" class="fil13" d="M1557.2 219.472c11.6372,-6.0862 13.5411,-6.14177 19.7414,-10.2626 4.76718,-3.16447 34.4875,-15.3895 43.9107,-27.211 1.48572,-1.86885 -1.99754,-10.2392 -7.79127,-16.0388 -5.24682,-5.24975 -12.8363,-8.04571 -12.1958,-8.36158 2.88956,-1.42138 7.29115,0.318787 10.7101,2.60586 5.86685,3.92196 10.5258,12.614 11.178,12.614 12.8275,14.8865 -5.38428,14.1027 -16.2055,24.2278 -11.0523,10.3416 -18.8757,12.538 -35.5345,19.8525 -4.48057,1.96537 -9.18633,2.67021 -13.8131,2.57369z"/>
     <path id="_256188248" class="fil14" d="M1566.94 556.046c3.84592,-2.02678 4.72331,-2.83106 6.98407,-3.31655 2.25783,-0.485492 1.45355,-0.985607 -5.75864,-5.38721 -7.21219,-4.4016 -8.85877,-9.03132 -22.2098,-12.0057 -13.351,-2.97145 -32.9023,-5.69722 -39.0119,-7.17417 -6.1096,-1.47402 -6.09205,-0.418225 -11.9472,-1.10844 -5.85808,-0.693142 -11.8829,-1.40676 -11.2775,2.78719 0.608327,4.19102 2.83399,5.86685 2.83399,5.86685 0,0 57.212,4.34018 70.2121,14.7285 12.9971,10.3884 10.1749,5.60948 10.1749,5.60948z"/>
     <path id="_256188080" class="fil15" d="M1553.57 565.464c9.44955,-2.72577 6.67405,-7.297 2.64388,-10.4995 -4.02724,-3.19957 -15.644,-10.3094 -28.3165,-12.4239 -12.6725,-2.11745 -15.331,-0.775032 -24.8742,-0.482567 -9.54314,0.292465 -24.4881,-8.89679 -18.0802,-0.184253 6.40791,8.71546 -1.9215,6.66528 15.2521,12.9884 17.1735,6.3231 18.0714,7.11568 22.4262,7.42569 4.35188,0.310013 12.6433,1.38628 19.1828,2.09697 6.54244,0.707766 11.7659,1.0792 11.7659,1.0792z"/>
     <path id="_256187912" class="fil16" d="M1537.11 545.275c-9.05472,-1.17863 -10.3445,-1.6612 -15.3515,-2.01801 -3.84592,-0.271993 -26.2868,-4.30509 -35.0432,-3.12645 -1.38336,0.187178 -0.777957,3.69091 1.90687,7.00454 2.43038,3.00362 6.93727,5.861 6.44008,5.79081 -2.22858,-0.318787 -4.8169,-2.01508 -6.63603,-3.62072 -3.11768,-2.7521 -4.44547,-6.66528 -4.88124,-6.83491 -5.51882,-7.97552 6.52197,-2.94512 15.8633,-3.23174 9.54314,-0.292465 15.2404,1.08505 27.9129,3.20249 3.40722,0.567382 6.70622,1.58809 9.78881,2.83399z"/>
     <path id="_256187744" class="fil17" d="M1560.65 562.334c7.29408,-2.7638 4.30216,-7.89656 0.412376,-10.9879 -3.89271,-3.09136 -14.4653,-11.877 -27.1378,-13.9945 -12.6725,-2.11745 -19.873,-1.75187 -27.8631,-2.81644 -7.99015,-1.06457 -24.608,-3.79327 -24.1225,3.29901 6.90218,-1.96829 13.0907,1.10844 19.3934,1.36581 6.2997,0.260294 16.0827,-1.11429 28.7552,1.00316 12.6725,2.11745 24.4823,10.9499 27.8719,13.6435 3.38675,2.6936 4.59755,6.04818 2.69068,8.48734z"/>
     <path id="_256187576" class="fil6" d="M1774.28 451.414c7.95505,-17.7965 -1.42723,-30.3286 -10.1281,-35.283 -8.69791,-4.95728 -32.7122,-19.6332 -53.2813,-10.6019 -20.572,9.03132 -30.7264,19.1243 -43.434,25.6784 -12.7076,6.55414 -39.6349,18.5452 -32.0015,40.3807 8.15685,-14.7929 20.1947,-12.7427 29.6501,-19.7472 9.45247,-7.00161 22.397,-23.4879 42.969,-32.5192 20.5691,-9.03132 46.4347,4.26122 54.0125,8.578 7.57777,4.31678 12.6169,13.4241 12.2133,23.5142z"/>
     <path id="_256187408" class="fil18" d="M1768.07 438.089c-1.71969,-1.66705 -3.63827,-3.03871 -5.58023,-4.14715 -9.32379,-5.31117 -34.6132,-18.2264 -55.9018,-8.87924 -21.2885,9.34718 -31.2879,12.1548 -45.4111,25.3684 -10.8037,10.1105 -27.3689,11.7103 -26.2926,20.9931l0.707766 0.79258c7.17124,7.87608 9.35596,13.2955 11.2307,16.9045 0.815978,1.14939 1.52374,2.22858 2.14084,3.23759 2.7521,2.88663 7.55145,3.43646 22.8006,2.79889 32.3408,-1.35119 34.4992,0.0906642 41.3926,-4.48641 6.89048,-4.58 20.5077,-11.7045 31.1066,-17.7848 10.5989,-6.08327 18.8698,-11.5758 18.8698,-11.5758 5.28192,-9.66012 6.29092,-17.2818 4.93681,-23.2217z"/>
     <path id="_256187240" class="fil13" d="M1724.24 421.773c-14.8718,7.77665 -17.3052,7.84976 -25.231,13.1141 -6.09205,4.04479 -44.0745,19.6683 -56.1153,34.7799 -1.90102,2.38359 2.5503,13.0849 9.95551,20.493 6.70622,6.70915 16.4044,10.2831 15.5855,10.6867 -3.69383,1.81913 -9.31501,-0.406526 -13.6874,-3.32825 -7.49588,-5.01285 -13.4534,-16.1236 -14.284,-16.1236 -16.3956,-19.0219 6.87878,-18.0217 20.7095,-30.9633 14.1231,-13.2136 24.1225,-16.0212 45.4111,-25.3684 5.72647,-2.5152 11.7425,-3.41599 17.6561,-3.29023z"/>
     <path id="_256187072" class="fil19" d="M1468.28 456.035c17.583,-0.327561 24.222,-12.7953 24.9326,-21.8003 0.713615,-9.005 3.49203,-34.2447 -11.7717,-47.5841 -15.2638,-13.3364 -27.4011,-17.7614 -37.6256,-25.6258 -10.2246,-7.86439 -30.3433,-25.2602 -45.2502,-10.6545 15.2082,0.991457 18.1504,11.6079 27.4946,16.6442 9.34718,5.03625 27.7725,9.28869 43.0362,22.6251 15.2638,13.3364 14.3249,39.5588 13.7049,47.4027 -0.620026,7.84391 -6.12714,15.4539 -14.5209,18.9927z"/>
     <path id="_256186904" class="fil20" d="M1476.78 445.848c0.704841,-2.04433 1.08797,-4.13838 1.24883,-6.15054 0.763334,-9.64842 1.61441,-35.2567 -14.1816,-49.0581 -15.796,-13.8044 -21.9232,-20.8937 -38.1316,-27.363 -12.4005,-4.94851 -20.0602,-17.8638 -27.2256,-13.4271l-0.37728 0.883245c-3.68506,8.87632 -7.27361,12.7398 -9.49927,15.6527 -0.625875,1.10844 -1.23713,2.0999 -1.82498,2.99192 -1.30147,3.35457 0.0906642,7.48711 6.4547,19.6946 13.506,25.8978 13.1551,28.2112 19.5367,32.0863 6.38159,3.87224 17.4221,12.2601 26.4535,18.5862 9.03132,6.32602 16.691,10.9733 16.691,10.9733 9.91164,0.611252 16.5243,-1.48865 20.8557,-4.86954z"/>
     <path id="_256186736" class="fil21" d="M1473.3 403.798c-12.0525,-9.16586 -13.0469,-11.1254 -20.3848,-15.5796 -5.63873,-3.42477 -32.9608,-28.4569 -49.9209,-32.4987 -2.67898,-0.637574 -9.70984,7.10105 -12.9211,15.992 -2.91003,8.04864 -2.10867,17.3403 -2.7521,16.8255 -2.90125,-2.31925 -3.23759,-7.76495 -2.52982,-12.4532 1.21958,-8.04571 8.01062,-17.1706 7.69183,-17.8491 9.25067,-20.6861 17.3549,-1.2927 33.2299,5.0421 16.2084,6.46933 22.3356,13.5587 38.1316,27.363 4.24952,3.71138 7.29115,8.27676 9.4554,13.158z"/>
    </g>
    <ellipse id="_256186640" class="fil1 str0" transform="matrix(1.0139 0.497727 -0.497727 1.0139 910.488 1479.68)" rx="1518.8" ry="797.497"/>
    <g>
     <g>
      <ellipse id="_256186544" class="fil22" cx="484.977" cy="1477.01" rx="460.616" ry="463.28"/>
      <path id="_256186376" class="fil23" d="M143.349 1781.03c116.65,-76.3948 33.8792,-95.0745 143.358,-87.0669 109.478,8.01062 117.486,16.0329 173.566,-58.7445 56.0773,-74.7775 85.4495,-61.406 160.212,-93.4601 74.7599,-32.0512 70.0951,-56.0773 125.836,-56.0773 55.738,0 79.7669,0 122.493,0 42.7233,0 77.0207,-34.4758 77.0207,-34.4758 0,0 -2.51812,84.2241 -8.23582,109.639 -5.71477,25.4152 -79.7991,-0.403602 -135.54,-0.403602 -55.738,0 -37.3946,5.34626 -149.537,56.0802 -112.143,50.7339 -130.843,37.3975 -176.231,77.4418 -45.3906,40.0443 7.99307,50.7193 -77.4448,69.4166 -85.4349,18.7002 -77.4418,5.36088 -117.486,24.0436 -40.0443,18.6827 -89.1317,40.7228 -89.1317,40.7228l-48.8797 -47.1161z"/>
      <path id="_256186208" class="fil24" d="M142.688 1787.04c116.647,-76.3948 33.8762,-95.0775 143.355,-87.0669 109.478,8.00769 117.489,16.0329 173.566,-58.7445 56.0802,-74.7775 85.4524,-61.406 160.212,-93.4601 74.7628,-32.0512 70.098,-56.0802 125.836,-56.0802 55.7409,0 79.7669,0 122.493,0 42.7262,0 77.0236,-34.4729 77.0236,-34.4729 0,0 -2.52105,84.2241 -8.23582,109.639 -5.71477,25.4152 -79.7991,-0.403602 -135.54,-0.403602 -55.7409,0 -37.3975,5.34626 -149.54,56.0802 -112.143,50.7339 -130.84,37.3975 -176.231,77.4418 -45.3906,40.0443 7.99307,50.7193 -77.4418,69.4166 -85.4349,18.6973 -77.4418,5.36088 -117.486,24.0436 -40.0472,18.6827 -89.1346,40.7228 -89.1346,40.7228l-48.8768 -47.1161z"/>
      <path id="_256186040" class="fil25" d="M301.575 1902.12c67.2377,-9.89702 51.237,-31.2616 150.026,-52.6232 98.7889,-21.3616 160.198,-16.0008 186.903,-56.0626 26.7079,-40.0619 -11.0113,-42.7262 48.0725,-42.7262 59.0809,0 112.143,-29.3869 146.858,-40.0619 34.7156,-10.6721 61.1164,-21.4435 61.1164,-21.4435 0,0 -125.9,154.919 -148.894,169.823 -22.9936,14.904 -85.7888,1.14646 -131.179,3.82544 -45.3906,2.6819 -130.84,29.3869 -146.858,32.0512 -16.0183,2.66436 -81.2848,34.7507 -81.2848,34.7507l-84.7593 -27.5327z"/>
      <path id="_256185872" class="fil26" d="M131.176 1254.03c53.3983,-69.4166 74.7599,-77.4243 141.512,-106.797 66.7522,-29.3723 109.478,-58.7445 173.566,-56.0802 64.0908,2.66436 151.09,30.4222 196.82,30.4222 16.7933,0 31.0656,-9.62503 47.859,-36.5728 11.8214,-18.943 90.556,37.4589 90.556,37.4589 0,0 -71.7124,-72.3061 -181.366,-93.9749 -109.657,-21.6717 -138.301,-17.3432 -175.763,-10.7861 -37.4619,6.55414 -123.139,30.3082 -158.455,51.6698 -35.3122,21.3616 -203.793,144.308 -222.668,275.973 -18.8757,131.665 87.9384,-91.3134 87.9384,-91.3134z"/>
      <path id="_256185704" class="fil27" d="M231.741 1093.09c8.60725,-5.99261 100.485,-52.4302 176.859,-59.5517 76.3773,-7.12152 108.089,-8.73593 133.683,-3.56807 25.5936,5.16493 54.2084,-14.0325 79.881,17.3403 25.6755,31.3757 19.0044,24.7075 9.6572,44.7296 -9.35011,20.0222 -26.0148,16.4541 4.00385,27.3513 30.0186,10.9002 69.4166,0 69.4166,0 0,0 -1.32487,-33.3761 22.7041,0 24.026,33.3761 -20.0222,25.3684 34.7156,44.0657 54.7378,18.7002 34.7156,-8.02524 34.7156,45.3906 0,53.4158 66.3018,45.8264 62.5232,67.6413 -3.77865,21.815 -58.5164,-22.2361 -25.1403,45.8585 33.3761,68.0917 5.34334,32.0512 33.3761,68.0917 28.0299,36.0405 42.7087,6.89633 60.084,46.7301 15.7434,36.1048 16.4863,63.5878 16.4687,68.4339 0.582006,-9.46417 0.903717,-18.9898 0.903717,-28.5972 0,-255.869 -206.232,-463.282 -460.615,-463.282 -49.2979,0 -96.7855,7.81759 -141.305,22.2361 -40.6263,14.5969 -78.5561,33.9581 -111.932,57.1301z"/>
      <path id="_256185536" class="fil23" d="M56.4136 1544.41c58.7445,-112.143 -18.6973,-181.559 162.877,-178.895 181.577,2.66436 157.548,-45.4081 288.391,-56.0802 130.84,-10.6721 181.592,-5.32871 272.37,-18.6827 90.7812,-13.354 101.374,-58.7592 118.618,-15.0824 9.70399,24.5437 19.329,49.3798 22.59,60.552 2.53567,8.68914 4.06819,5.46032 -19.215,11.5787 -53.2228,14.0149 -44.9051,20.379 -103.31,20.379 -58.4053,0 5.34626,-2.66436 -109.478,-2.66436 -114.822,0 -132.165,-6.7033 -170.884,48.052 -38.7224,54.7553 -0.0175479,74.7804 -170.905,74.7804 -170.884,0 -138.833,-50.7368 -192.249,21.3616 -53.4129,72.0985 -96.1713,147.78 -96.1713,147.78 0,0 -27.208,-80.2524 -2.63219,-113.079z"/>
      <path id="_256185296" class="fil28" d="M61.7423 1553.09c58.7445,-112.143 -18.7002,-181.559 162.877,-178.895 181.577,2.66436 157.548,-45.4052 288.391,-56.0802 130.84,-10.6721 181.592,-5.32871 272.37,-18.6827 90.7812,-13.351 101.371,-58.7592 118.618,-15.0795 9.70399,24.5437 19.329,49.3769 22.59,60.552 2.53567,8.68621 4.06819,5.4574 -19.215,11.5758 -53.2228,14.0179 -44.9051,20.379 -103.31,20.379 -58.4053,0 5.34626,-2.66436 -109.478,-2.66436 -114.822,0 -132.165,-6.70038 -170.887,48.0549 -38.7195,54.7553 -0.0146233,74.7775 -170.902,74.7775 -170.884,0 -138.833,-50.7339 -192.249,21.3616 -53.4129,72.0985 -96.1713,147.78 -96.1713,147.78 0,0 -27.208,-80.2524 -2.63219,-113.079z"/>
     </g>
     <g>
      <g>
       <path id="_256185152" class="fil29" d="M471.661 1021.29c-7.569,3.9863 -9.29454,5.56561 -13.7371,6.52197 -4.44547,0.959285 -2.86031,1.94197 11.3242,10.5989 14.1846,8.65989 17.4251,17.7643 43.6884,23.6107 26.2604,5.84638 64.7167,11.2102 76.7341,14.1114 12.0174,2.90125 11.9794,0.824752 23.5025,2.18471 11.5202,1.35996 23.3738,2.7638 22.1776,-5.4808 -1.19326,-8.24752 -5.57146,-11.5436 -5.57146,-11.5436 0,0 -112.538,-8.53998 -138.105,-28.9716 -25.5702,-20.4316 -20.0134,-11.0318 -20.0134,-11.0318z"/>
       <g>
        <path id="_256184984" class="fil30" d="M497.966 1002.77c-18.5891,5.36673 -13.1229,14.3542 -5.20003,20.6539 7.92288,6.29677 30.7703,20.2766 55.6971,24.4413 24.9268,4.1647 30.159,1.52082 48.9265,0.947587 18.7704,-0.573232 48.169,17.5011 35.5667,0.359732 -12.6052,-17.1414 3.77572,-13.1083 -30.004,-25.5468 -33.7768,-12.4385 -35.5433,-13.9974 -44.1096,-14.6086 -8.56338,-0.608327 -24.8712,-2.72577 -37.7338,-4.12083 -12.8655,-1.39213 -23.1428,-2.12622 -23.1428,-2.12622z"/>
        <path id="_256184816" class="fil31" d="M490.332 1016.99c1.24005,1.48865 2.78427,2.9188 4.4367,4.23197 7.92288,6.29677 29.8899,22.6719 54.8167,26.8366 24.9268,4.16178 36.1311,6.87293 54.9015,6.29677 14.3542,-0.438698 31.9489,5.50127 33.7885,0.649272l-0.476718 -0.663896c-4.88709,-6.64773 -5.41645,-10.1105 -6.20318,-12.5848 -0.476718,-0.877395 -0.862772,-1.67875 -1.17863,-2.40699 -1.91857,-2.48888 -6.69453,-4.69114 -22.6222,-10.5551 -33.7768,-12.4385 -35.5433,-13.9974 -44.1096,-14.6086 -8.56338,-0.608327 -24.8712,-2.72577 -37.7338,-4.12083 -12.8655,-1.39506 -23.1428,-2.12622 -23.1428,-2.12622 -8.51951,2.45963 -11.9823,5.67967 -12.4766,9.05179z"/>
        <path id="_256184648" class="fil32" d="M530.333 1042.48c17.8111,2.31632 20.3439,3.26683 30.1912,3.96583 7.569,0.54106 51.7078,8.47271 68.9311,6.15347 2.71993,-0.368506 1.53252,-7.25898 -3.74648,-13.778 -4.7818,-5.90779 -13.6464,-11.529 -12.6725,-11.3886 4.38698,0.6288 9.47587,3.95998 13.0556,7.1186 6.13299,5.41645 8.74471,13.1112 9.5987,13.4475 10.8563,15.6849 -12.8246,5.79373 -31.2031,6.35527 -18.7704,0.576156 -29.9747,-2.135 -54.9015,-6.29677 -6.7033,-1.12014 -13.1931,-3.12353 -19.253,-5.57731z"/>
        <path id="_256184528" class="fil33" d="M484.041 1008.93c-14.3483,5.434 -8.46101,15.5328 -0.810128,21.6132 7.65089,6.08327 28.4481,23.3621 53.3749,27.5268 24.9268,4.1647 39.088,3.44524 54.808,5.53636 15.72,2.09405 48.4059,7.46371 47.4466,-6.48395 -13.5762,3.86639 -25.7457,-2.18179 -38.1433,-2.69068 -12.3947,-0.508889 -31.6389,2.19056 -56.5657,-1.97414 -24.9239,-4.1647 -48.1515,-21.5371 -54.8167,-26.8366 -6.6682,-5.29654 -9.04887,-11.8916 -5.29362,-16.691z"/>
       </g>
      </g>
      <path id="_256184144" class="fil34" d="M485.425 1012.54c0,0 1.77234,-3.7962 7.15662,-6.78519 5.38428,-2.98899 12.2894,-3.51543 17.7848,-1.70215 5.49249,1.81036 14.8543,2.24321 18.9517,2.86031 4.09744,0.617101 29.6092,1.82498 32.7327,2.42746 3.12645,0.599553 9.03717,2.41869 9.03717,2.41869 0,0 -64.7313,-6.9051 -72.5635,-3.49788 -7.82929,3.40429 -13.0995,4.27876 -13.0995,4.27876z"/>
     </g>
     <g>
      <path id="_256184000" class="fil29" d="M848.362 1243.94c-25.5088,-22.0314 -61.2773,-38.2544 -91.2813,-33.2474 -30.0011,5.00993 -81.1912,4.82275 -35.2274,33.5106 45.9609,28.685 37.9181,30.1151 71.5428,32.4373 33.6276,2.32217 54.9659,-32.7005 54.9659,-32.7005z"/>
      <path id="_256183832" class="fil34" d="M802.36 1233.24c-16.3371,-14.1114 -39.2459,-24.5027 -58.4638,-21.2944 -19.215,3.20834 -52.0003,3.08843 -22.5608,21.4611 29.4366,18.3727 24.2834,19.2881 45.8205,20.7767 21.5371,1.48865 35.204,-20.9434 35.204,-20.9434z"/>
      <path id="_256183592" class="fil31" d="M834.198 1235.28c-20.0777,-17.3432 -48.2304,-30.1122 -71.847,-26.1698 -23.6136,3.94243 -63.9036,3.7962 -27.7286,26.3745 36.1779,22.5783 29.8461,23.7043 56.3142,25.5322 26.4681,1.82791 43.2614,-25.7369 43.2614,-25.7369z"/>
     </g>
     <g>
      <path id="_256183448" class="fil29" d="M141.582 1168.64c-0.236897,2.34557 -0.137459,2.98314 -0.596629,4.15008 -0.45917,1.16694 0.00877395,0.953436 4.16178,-0.982683 4.15008,-1.93612 6.73547,-1.28977 12.0847,-6.42838 5.34919,-5.13569 12.4473,-13.1434 14.9479,-15.4597 2.50058,-2.31632 2.01801,-2.62634 4.08866,-5.06257 2.07065,-2.43623 4.1998,-4.94266 2.12622,-5.92827 -2.0765,-0.982683 -3.50081,-0.482567 -3.50081,-0.482567 0,0 -19.1331,24.532 -27.7228,27.2841 -8.59262,2.7521 -5.58901,2.91003 -5.58901,2.91003z"/>
      <g>
       <path id="_256183280" class="fil30" d="M141.345 1159.78c-1.60563,5.08597 1.2927,5.20295 3.94535,4.34603 2.65558,-0.859847 9.35303,-3.97168 14.1114,-9.05764 4.75841,-5.08597 4.95143,-6.6916 7.68306,-11.0874 2.73162,-4.39575 11.3681,-8.3879 5.51004,-8.11006 -5.85808,0.277842 -2.43331,-2.86616 -10.4439,2.98899 -8.01062,5.85808 -8.63649,6.02478 -10.0842,7.89656 -1.44478,1.8747 -4.41915,5.29362 -6.7033,8.03402 -2.28415,2.7404 -4.01847,4.98945 -4.01847,4.98945z"/>
       <path id="_256183112" class="fil31" d="M143.445 1163.7c0.529362,-0.058493 1.09382,-0.193027 1.64658,-0.371431 2.65558,-0.859847 9.76541,-3.40429 14.5267,-8.49026 4.75841,-5.08597 7.08935,-7.24436 9.82098,-11.643 2.09113,-3.36042 6.13884,-6.49272 5.30532,-7.65674l-0.225198 0.00877395c-2.27245,0.108212 -3.14692,-0.298314 -3.83422,-0.497191 -0.274917,-0.0233972 -0.517663,-0.058493 -0.734087,-0.0965135 -0.862772,0.0614177 -2.09697,0.821827 -5.8727,3.5827 -8.01062,5.85515 -8.63942,6.02478 -10.0842,7.89656 -1.4477,1.87178 -4.42207,5.29362 -6.7033,8.03402 -2.28415,2.7404 -4.02139,4.98945 -4.02139,4.98945 -0.734087,2.32802 -0.523512,3.61487 0.175479,4.24367z"/>
       <path id="_256182944" class="fil32" d="M155.401 1158.4c3.24929,-3.73478 3.85177,-4.17055 5.51589,-6.32602 1.27807,-1.65535 9.8356,-10.5755 11.9297,-14.8835 0.330486,-0.681444 -1.43015,-1.4594 -3.73478,-1.24298 -2.08528,0.195952 -4.72916,1.37459 -4.54783,1.17278 0.813053,-0.912491 2.35727,-1.57054 3.62657,-1.91272 2.18179,-0.582006 4.34603,-0.0058493 4.55368,-0.149157 5.2556,-0.0994381 -0.6288,3.82544 -3.30486,8.13053 -2.73162,4.39867 -5.06257,6.55707 -9.82098,11.643 -1.281,1.36874 -2.73162,2.55322 -4.21735,3.56807z"/>
       <path id="_256182824" class="fil33" d="M140.635 1163.91c-0.941738,4.12376 2.27245,4.31386 4.83737,3.48326 2.56492,-0.827676 9.70399,-2.9656 14.4624,-8.05156 4.76133,-5.08597 6.75594,-8.44639 9.6338,-11.7366 2.88078,-3.29023 9.09859,-9.97306 5.75279,-11.8829 -1.18448,3.70846 -4.43085,5.58023 -6.43716,8.34695 -2.00924,2.76672 -4.32556,7.59824 -9.08689,12.6842 -4.75841,5.08597 -12.2894,7.76787 -14.5238,8.49026 -2.23443,0.719464 -4.10913,0.260294 -4.6385,-1.33364z"/>
      </g>
     </g>
     <g>
      <path id="_256182512" class="fil29" d="M707.561 1069.43c-9.0284,-7.59824 -22.4672,-14.6554 -34.7215,-16.0066 -12.2543,-1.35119 -32.6976,-5.79958 -15.8458,5.19418 16.8518,10.9908 13.5616,10.6516 26.8775,14.1114 13.313,3.46279 23.6897,-3.29901 23.6897,-3.29901z"/>
      <path id="_256182344" class="fil34" d="M689.744 1062.85c-5.78203,-4.86662 -14.3893,-9.3852 -22.239,-10.2509 -7.84684,-0.865697 -20.9434,-3.71431 -10.1485,3.32533 10.7949,7.03963 8.68621,6.82321 17.2145,9.0401 8.52828,2.21689 15.1731,-2.11452 15.1731,-2.11452z"/>
      <path id="_256182104" class="fil31" d="M702.358 1066.09c-7.1069,-5.98384 -17.6824,-11.5377 -27.3279,-12.6023 -9.6455,-1.06165 -25.7369,-4.56246 -12.4736,4.08866 13.2662,8.65112 10.675,8.38497 21.154,11.1078 10.4819,2.72577 18.6476,-2.59417 18.6476,-2.59417z"/>
     </g>
     <g>
      <path id="_256181960" class="fil35" d="M273.309 1165.36c-11.1839,20.4521 -2.62926,31.5131 6.41668,36.6663 9.04595,5.15323 33.0486,13.2633 53.7083,4.19395 20.6597,-9.07227 23.2422,-16.6559 36.95,-29.4805 13.7049,-12.8246 44.636,-2.25198 26.6933,-21.9641 -17.9398,-19.7092 -3.71723,-23.5727 -35.1017,-22.2624 -31.3844,1.31024 -33.4785,-0.0877395 -40.1672,4.35481 -6.68868,4.44254 -19.9022,11.3593 -30.1882,17.2613 -10.286,5.89902 -18.3112,11.2307 -18.3112,11.2307z"/>
      <path id="_256181792" class="fil36" d="M268.673 1180.25c-7.72108,17.2701 1.38336,29.4308 9.82683,34.2418 8.44054,4.80813 31.7442,19.0512 51.7078,10.286 19.9607,-8.76225 29.8168,-18.5598 42.1471,-24.9209 12.3333,-6.35819 38.465,-17.9954 31.0569,-39.1845 -7.91703,14.3542 -19.5981,12.3654 -28.7727,19.1623 -9.17463,6.79689 -21.736,22.7947 -41.6997,31.5599 -19.9607,8.76518 -45.0601,-4.13546 -52.4156,-8.32648 -7.35257,-4.1881 -12.2455,-13.0264 -11.8507,-22.8181z"/>
      <path id="_256181624" class="fil37" d="M274.707 1193.18c1.66705,1.62026 3.53005,2.95097 5.41645,4.02724 9.04595,5.15323 33.5867,17.6854 54.2464,8.61602 20.6597,-9.07227 30.3637,-11.7951 44.0686,-24.6197 10.4849,-9.80928 26.5617,-11.3652 25.5147,-20.3702l-0.687293 -0.772108c-6.95774,-7.64504 -9.07812,-12.9036 -10.8972,-16.4014 -0.79258,-1.11722 -1.47987,-2.16424 -2.0765,-3.144 -2.67313,-2.80182 -7.32917,-3.3341 -22.1279,-2.717 -31.3844,1.31024 -33.4785,-0.0877395 -40.1672,4.35481 -6.68868,4.44254 -19.9022,11.3593 -30.1882,17.2613 -10.286,5.89902 -18.3112,11.2307 -18.3112,11.2307 -5.12691,9.37351 -6.10375,16.7729 -4.79058,22.5344z"/>
      <path id="_256181384" class="fil38" d="M317.234 1209.01c14.4332,-7.5456 16.7963,-7.61579 24.4881,-12.7252 5.91072,-3.92488 42.7701,-19.0863 54.457,-33.7505 1.84253,-2.31632 -2.47718,-12.6988 -9.66305,-19.8876 -6.50735,-6.5132 -15.9189,-9.97891 -15.1234,-10.3708 3.5827,-1.76356 9.03717,0.394828 13.2808,3.22881 7.27361,4.86662 13.0556,15.6469 13.8599,15.6469 15.913,18.4604 -6.67405,17.4894 -20.0953,30.0479 -13.7049,12.8246 -23.4089,15.5474 -44.0686,24.6197 -5.55684,2.43916 -11.3944,3.31363 -17.1355,3.19079z"/>
     </g>
     <g>
      <path id="_256181240" class="fil39" d="M439.97 1916.39c7.56607,-3.98922 9.29454,-5.56854 13.7371,-6.5249 4.44254,-0.956361 2.86031,-1.94197 -11.3242,-10.5989 -14.1846,-8.65697 -17.428,-17.7643 -43.6884,-23.6107 -26.2634,-5.84345 -64.7167,-11.2102 -76.7341,-14.1114 -12.0203,-2.89833 -11.9823,-0.821827 -23.5025,-2.18471 -11.5202,-1.35996 -23.3738,-2.7638 -22.1806,5.48372 1.19326,8.24459 5.57438,11.5407 5.57438,11.5407 0,0 112.538,8.53998 138.105,28.9716 25.5673,20.4316 20.0134,11.0347 20.0134,11.0347z"/>
      <g>
       <path id="_256181072" class="fil40" d="M413.666 1934.91c18.5862,-5.36673 13.1229,-14.3542 5.20003,-20.651 -7.92288,-6.29677 -30.7703,-20.2795 -55.6971,-24.4442 -24.9268,-4.1647 -30.159,-1.52082 -48.9294,-0.947587 -18.7675,0.576156 -48.169,-17.5011 -35.5638,-0.359732 12.6023,17.1443 -3.77572,13.1083 30.0011,25.5468 33.7797,12.4385 35.5462,13.9974 44.1096,14.6086 8.5663,0.611252 24.8712,2.72577 37.7368,4.12083 12.8655,1.39506 23.1428,2.12622 23.1428,2.12622z"/>
       <path id="_256180904" class="fil41" d="M381.298 1895.2c-17.8111,-2.3134 -20.3439,-3.26391 -30.1941,-3.96583 -7.56607,-0.538136 -51.7049,-8.46979 -68.9282,-6.15054 -2.71993,0.365581 -1.53252,7.25606 3.74648,13.778 4.7818,5.90487 13.6464,11.526 12.6725,11.3886 -4.38698,-0.6288 -9.47587,-3.9629 -13.0556,-7.12152 -6.13592,-5.41645 -8.74471,-13.1112 -9.60163,-13.4475 -10.8534,-15.682 12.8275,-5.79373 31.206,-6.35527 18.7675,-0.573232 29.9718,2.135 54.8986,6.2997 6.70622,1.12014 13.1931,3.12353 19.2559,5.57438z"/>
       <path id="_256180784" class="fil42" d="M427.59 1928.75c14.3483,-5.434 8.46101,-15.5299 0.810128,-21.6132 -7.65381,-6.08035 -28.4481,-23.3621 -53.3749,-27.5268 -24.9268,-4.1647 -39.0909,-3.44524 -54.808,-5.53636 -15.72,-2.09405 -48.4059,-7.46078 -47.4495,6.48688 13.5762,-3.86931 25.7486,2.17886 38.1462,2.68775 12.3947,0.508889 31.6359,-2.19056 56.5627,1.97414 24.9268,4.1647 48.1544,21.5401 54.8197,26.8366 6.66528,5.29947 9.04887,11.8916 5.29362,16.691z"/>
      </g>
     </g>
     <g>
      <path id="_256180472" class="fil36" d="M838.237 1726.89c8.88509,-19.8701 -1.59393,-33.8645 -11.3067,-39.398 -9.71277,-5.53344 -36.5289,-21.9232 -59.502,-11.839 -22.9702,10.0842 -34.312,21.3587 -48.4995,28.6762 -14.1904,7.31748 -44.2617,20.7095 -35.7363,45.0923 9.11029,-16.5184 22.5491,-14.2284 33.107,-22.0519 10.558,-7.82052 25.0145,-26.2312 47.9847,-36.3154 22.9702,-10.0842 51.8541,4.76133 60.3151,9.58116 8.46101,4.81982 14.091,14.9888 13.6376,26.2546z"/>
      <path id="_256180232" class="fil43" d="M831.294 1712.01c-1.91857,-1.863 -4.06234,-3.39552 -6.23243,-4.62972 -10.4088,-5.93119 -38.6493,-20.3526 -62.4208,-9.91749 -23.7745,10.4381 -34.9408,13.5733 -50.7105,28.3311 -12.0642,11.2892 -30.5655,13.0761 -29.3606,23.4411l0.789656 0.886169c8.00769,8.79735 10.4469,14.8485 12.5409,18.8757 0.912491,1.28392 1.70215,2.48888 2.38944,3.61487 3.07381,3.22589 8.43469,3.83714 25.462,3.12645 36.1136,-1.5062 38.5235,0.102363 46.2212,-5.00993 7.69768,-5.11229 22.9,-13.0703 34.7361,-19.8613 11.839,-6.79104 21.075,-12.924 21.075,-12.924 5.8961,-10.7861 7.02209,-19.2998 5.51004,-25.9329z"/>
      <path id="_105808896" class="fil38" d="M782.356 1693.79c-16.6091,8.68621 -19.3261,8.76518 -28.1761,14.6437 -6.80274,4.51859 -49.216,21.9641 -62.6636,38.8394 -2.1233,2.66436 2.84861,14.6116 11.1166,22.8854 7.49003,7.49296 18.32,11.4822 17.4046,11.9326 -4.12376,2.02971 -10.4001,-0.456246 -15.2842,-3.71723 -8.37035,-5.59778 -15.021,-18.0012 -15.9481,-18.0012 -18.3112,-21.2447 7.68013,-20.1274 23.1252,-34.5781 15.7697,-14.7578 26.936,-17.893 50.7105,-28.3311 6.39329,-2.80474 13.1112,-3.81374 19.7151,-3.67336z"/>
     </g>
    </g>
    <g>
     <path id="_252359288" class="fil44" d="M2139.57 1923.17l-131.103 172.721c0,0 -368.044,611.027 -729.039,322.934 -360.993,-288.093 -50.0788,-587.638 125.947,-705.142 176.023,-117.501 331.965,-319.237 383.009,-418.02 51.041,-98.783 -62.0728,131.244 -72.3676,231.381 -10.2977,100.137 378.21,-363.464 436.487,-485.384 58.2766,-121.92 -182.457,325.71 -97.8734,310.121 84.5838,-15.5884 399.888,-491.578 510.667,-576.931 110.783,-85.3501 -213.213,278.427 -41.6792,161.271 171.531,-117.153 756.522,-550.835 756.522,-550.835 0,0 -895.905,733.233 -758.157,704.49 137.751,-28.7435 602.7,-263.47 602.7,-263.47 0,0 -938.81,587.548 -749.287,527.698 189.526,-59.8501 454.345,-80.3811 454.345,-80.3811 0,0 -763.24,289.464 -636.869,288.698 126.371,-0.769183 348.045,4.62095 348.045,4.62095 0,0 -373.203,78.6088 -431.48,200.526 -58.2795,121.92 77.6261,-105.361 307.58,-109.642 229.954,-4.28169 -86.2304,-30.5918 -277.447,265.345z"/>
     <path id="_252359312" class="fil45" d="M1887.85 2037.54l-92.3985 121.73c0,0 -259.393,430.649 -513.82,227.602 -254.427,-203.044 -35.2976,-414.166 88.7632,-496.977 124.061,-82.8144 233.969,-224.999 269.942,-294.621 35.9761,-69.6213 -43.7469,92.5009 -51.003,163.076 -7.25898,70.5777 266.561,-256.167 307.632,-342.093 41.0738,-85.9292 -128.594,229.559 -68.9779,218.571 59.6132,-10.9879 281.837,-346.463 359.913,-406.617 78.0794,-60.1542 -150.271,196.232 -29.3752,113.664 120.893,-82.5687 533.19,-388.227 533.19,-388.227 0,0 -631.426,516.777 -534.342,496.521 97.0867,-20.2591 424.779,-185.692 424.779,-185.692 0,0 -661.667,414.098 -528.093,371.916 133.575,-42.1793 320.217,-56.6505 320.217,-56.6505 0,0 -537.925,204.012 -448.861,203.471 89.0673,-0.54106 245.299,3.25806 245.299,3.25806 0,0 -263.028,55.4017 -304.102,141.331 -41.0738,85.9262 54.7085,-74.2598 216.781,-77.278 162.07,-3.01532 -103.144,65.2841 -195.545,187.017z"/>
     <path id="_252360416" class="fil46" d="M1587.07 1814.22c0.0994381,7.59239 78.3192,50.4795 -105.864,131.726 -571.743,252.204 -106.001,532.368 89.4037,404.541 111.619,-73.0168 250.017,-291.576 258.133,-394.284 -61.5376,134.016 -194.671,382.641 -347.636,391.552 -302.59,17.6298 -290.313,-262.818 -77.5793,-328.821 74.8506,-23.2188 263.438,-151.857 183.542,-204.714z"/>
    </g>
   </g>
  </g>
  <path class="fil1" d="M2474.82 83.686l-1871.9 0c-285.595,0 -519.24,233.645 -519.24,519.216l0 1871.9c0,285.595 233.645,519.24 519.24,519.24l1871.9 0c285.572,0 519.216,-233.645 519.216,-519.24l0 -1871.9c0,-285.572 -233.645,-519.216 -519.216,-519.216z"/>
  <g id="_257872736">
   <path id="_257873072" class="fil47" d="M568.745 3058.38l1940.24 0c154.278,0 294.504,-62.1839 396.135,-162.359 97.8705,-96.4667 159.987,-228.213 164.453,-373.633l-53.2082 -56.747c-4.43377,123.075 -86.283,291.319 -169.302,373.153 -86.7949,85.546 -206.469,138.646 -338.078,138.646l-1940.24 0c-131.609,0 -251.283,-53.1 -338.078,-138.646 -83.0191,-81.8347 -164.868,-250.078 -169.302,-373.153l-53.2082 56.747c4.46594,145.419 66.5826,277.166 164.453,373.633 101.632,100.175 241.857,162.359 396.135,162.359z"/>
   <path id="_257872952" class="fil48" d="M568.745 15.8955l1940.24 0c154.278,0 294.504,62.1839 396.135,162.359 97.8705,96.4667 159.987,228.213 164.453,373.633l-53.2082 56.747c-4.43377,-123.075 -86.283,-291.319 -169.302,-373.153 -86.7949,-85.546 -206.469,-138.646 -338.078,-138.646l-1940.24 0c-131.609,0 -251.283,53.1 -338.078,138.646 -83.0191,81.8347 -164.868,250.078 -169.302,373.153l-53.2082 -56.747c4.46594,-145.419 66.5826,-277.166 164.453,-373.633 101.632,-100.175 241.857,-162.359 396.135,-162.359z"/>
   <path id="_257872760" class="fil49" d="M2528.65 0l-1979.57 0c-301.997,0 -549.077,247.08 -549.077,549.077l0 1979.57c0,301.997 247.08,549.077 549.077,549.077l1979.57 0c301.997,0 549.08,-247.08 549.08,-549.077l0 -1979.57c0,-301.997 -247.083,-549.077 -549.08,-549.077zm-53.8253 83.686l-1871.9 0c-285.595,0 -519.24,233.645 -519.24,519.216l0 1871.9c0,285.595 233.645,519.24 519.24,519.24l1871.9 0c285.572,0 519.216,-233.645 519.216,-519.24l0 -1871.9c0,-285.572 -233.645,-519.216 -519.216,-519.216z"/>
  </g>
 </g>
</svg>
