<?xml version="1.0" encoding="UTF-8"?>
<!DOCTYPE svg PUBLIC "-//W3C//DTD SVG 1.1//EN" "http://www.w3.org/Graphics/SVG/1.1/DTD/svg11.dtd">
<!-- Creator: CorelDRAW -->
<svg xmlns="http://www.w3.org/2000/svg" xml:space="preserve" width="1243px" height="1243px" style="shape-rendering:geometricPrecision; text-rendering:geometricPrecision; image-rendering:optimizeQuality; fill-rule:evenodd; clip-rule:evenodd"
viewBox="0 0 758.132 758.132"
 xmlns:xlink="http://www.w3.org/1999/xlink">
   <metadata
     id="metadata3960">
    <rdf:RDF>
      <cc:Work
         rdf:about="">
        <dc:format>image/svg+xml</dc:format>
        <dc:type
           rdf:resource="http://purl.org/dc/dcmitype/StillImage" />
        <dc:title></dc:title>
        <cc:license
           rdf:resource="http://www.gnu.org/licenses/gpl-3.0.html" />
        <dc:creator>
          <cc:Agent>
            <dc:title>Abhash Bikram Thapa</dc:title>
          </cc:Agent>
        </dc:creator>
        <dc:description>http://pixelpinch.com</dc:description>
      </cc:Work>
    </rdf:RDF>
  </metadata>
 <defs>
  <style type="text/css">
   <![CDATA[
    .str0 {stroke:#1A1A1A;stroke-width:1.27083}
    .str1 {stroke:#999999;stroke-width:1.27083}
    .fil28 {fill:none}
    .fil19 {fill:black}
    .fil27 {fill:#224827}
    .fil3 {fill:#333333}
    .fil21 {fill:#61A53E}
    .fil24 {fill:#7BBA47}
    .fil25 {fill:#95CC68}
    .fil8 {fill:#B3B3B3}
    .fil26 {fill:#CBED96}
    .fil18 {fill:#CCCCCC}
    .fil23 {fill:#DDF6A2}
    .fil17 {fill:#FDFFF3}
    .fil11 {fill:white}
    .fil30 {fill:#999999;fill-rule:nonzero}
    .fil29 {fill:#B3B3B3;fill-rule:nonzero}
    .fil4 {fill:url(#id1)}
    .fil6 {fill:url(#id2)}
    .fil12 {fill:url(#id3)}
    .fil1 {fill:url(#id4)}
    .fil2 {fill:url(#id5)}
    .fil10 {fill:url(#id6)}
    .fil14 {fill:url(#id7)}
    .fil5 {fill:url(#id8)}
    .fil7 {fill:url(#id9)}
    .fil22 {fill:url(#id10)}
    .fil9 {fill:url(#id11)}
    .fil13 {fill:url(#id12)}
    .fil20 {fill:url(#id13)}
    .fil31 {fill:url(#id14)}
    .fil15 {fill:url(#id15)}
    .fil0 {fill:url(#id16)}
    .fil16 {fill:url(#id17)}
   ]]>
  </style>
   <clipPath id="id0">
    <path d="M609.62 20.6142l-461.102 0c-70.3502,0 -127.904,57.5533 -127.904,127.898l0 461.102c0,70.3502 57.5533,127.904 127.904,127.904l461.102 0c70.3445,0 127.898,-57.5533 127.898,-127.904l0 -461.102c0,-70.3445 -57.5533,-127.898 -127.898,-127.898z"/>
   </clipPath>
  <linearGradient id="id1" gradientUnits="userSpaceOnUse" x1="151.564" y1="146.918" x2="258.298" y2="146.918">
   <stop offset="0" style="stop-color:#1A1A1A"/>
   <stop offset="0.501961" style="stop-color:#4D4D4D"/>
   <stop offset="1" style="stop-color:#1A1A1A"/>
  </linearGradient>
  <linearGradient id="id2" gradientUnits="userSpaceOnUse" xlink:href="#id1" x1="501.038" y1="146.923" x2="607.7" y2="146.923">
  </linearGradient>
  <linearGradient id="id3" gradientUnits="userSpaceOnUse" x1="172.455" y1="373.735" x2="563.307" y2="373.735">
   <stop offset="0" style="stop-color:#95D11E"/>
   <stop offset="0.501961" style="stop-color:#D4EC00"/>
   <stop offset="1" style="stop-color:#95D11E"/>
  </linearGradient>
  <linearGradient id="id4" gradientUnits="userSpaceOnUse" x1="379.331" y1="643.036" x2="379.331" y2="135.122">
   <stop offset="0" style="stop-color:#1A1A1A"/>
   <stop offset="0.101961" style="stop-color:#2B2B2B"/>
   <stop offset="0.129412" style="stop-color:#666666"/>
   <stop offset="0.25098" style="stop-color:#4D4D4D"/>
   <stop offset="0.878431" style="stop-color:#4D4D4D"/>
   <stop offset="0.901961" style="stop-color:#333333"/>
   <stop offset="1" style="stop-color:#666666"/>
  </linearGradient>
  <linearGradient id="id5" gradientUnits="userSpaceOnUse" x1="376.898" y1="577.556" x2="371.006" y2="131.484">
   <stop offset="0" style="stop-color:gray"/>
   <stop offset="0.901961" style="stop-color:#333333"/>
   <stop offset="1" style="stop-color:#666666"/>
  </linearGradient>
  <linearGradient id="id6" gradientUnits="userSpaceOnUse" x1="379.331" y1="158.766" x2="379.331" y2="170.144">
   <stop offset="0" style="stop-color:#990000"/>
   <stop offset="1" style="stop-color:#CC3300"/>
  </linearGradient>
  <linearGradient id="id7" gradientUnits="userSpaceOnUse" x1="213.45" y1="354.539" x2="313.248" y2="386.506">
   <stop offset="0" style="stop-color:#DDF6A2"/>
   <stop offset="1" style="stop-color:#D4EC00"/>
  </linearGradient>
  <linearGradient id="id8" gradientUnits="userSpaceOnUse" x1="188.846" y1="142.602" x2="220.088" y2="120.908">
   <stop offset="0" style="stop-color:#4D4D4D"/>
   <stop offset="1" style="stop-color:#B3B3B3"/>
  </linearGradient>
  <linearGradient id="id9" gradientUnits="userSpaceOnUse" x1="538.309" y1="142.602" x2="569.55" y2="120.908">
   <stop offset="0" style="stop-color:#666666"/>
   <stop offset="1" style="stop-color:#B3B3B3"/>
  </linearGradient>
  <linearGradient id="id10" gradientUnits="userSpaceOnUse" x1="562.213" y1="381.524" x2="704.651" y2="282.832">
   <stop offset="0" style="stop-color:#DDF6A2"/>
   <stop offset="1" style="stop-color:#FEFEFE"/>
  </linearGradient>
  <linearGradient id="id11" gradientUnits="userSpaceOnUse" x1="379.331" y1="157.728" x2="379.331" y2="166.233">
   <stop offset="0" style="stop-color:#600000"/>
   <stop offset="1" style="stop-color:black"/>
  </linearGradient>
  <linearGradient id="id12" gradientUnits="userSpaceOnUse" x1="497.738" y1="365.575" x2="464.629" y2="395.879">
   <stop offset="0" style="stop-color:white"/>
   <stop offset="1" style="stop-color:#D4EC00"/>
  </linearGradient>
  <linearGradient id="id13" gradientUnits="userSpaceOnUse" x1="573.735" y1="535.101" x2="716.044" y2="492.017">
   <stop offset="0" style="stop-color:#88CA68"/>
   <stop offset="1" style="stop-color:#DDF6A2"/>
  </linearGradient>
  <radialGradient id="id14" gradientUnits="userSpaceOnUse" cx="379.066" cy="379.065" r="379.066" fx="379.066" fy="379.065">
   <stop offset="0" style="stop-color:black"/>
   <stop offset="0.701961" style="stop-color:#313131"/>
   <stop offset="1" style="stop-color:#626262"/>
  </radialGradient>
  <radialGradient id="id15" gradientUnits="userSpaceOnUse" cx="366.182" cy="241.919" r="58.7723" fx="366.182" fy="241.919">
   <stop offset="0" style="stop-color:#DDF6A2"/>
   <stop offset="1" style="stop-color:#B7F145"/>
  </radialGradient>
  <radialGradient id="id16" gradientUnits="userSpaceOnUse" cx="379.066" cy="379.065" r="329.776" fx="379.066" fy="379.065">
   <stop offset="0" style="stop-color:#FFFF66"/>
   <stop offset="0.321569" style="stop-color:#CCCC33"/>
   <stop offset="0.619608" style="stop-color:#949426"/>
   <stop offset="1" style="stop-color:#333300"/>
  </radialGradient>
  <radialGradient id="id17" gradientUnits="userSpaceOnUse" cx="356.12" cy="287.203" r="119.247" fx="356.12" fy="287.203">
   <stop offset="0" style="stop-color:white"/>
   <stop offset="1" style="stop-color:#B7F145"/>
  </radialGradient>
 </defs>
 <g id="Layer_x0020_1">
  <metadata id="CorelCorpID_0Corel-Layer"/>
  <path class="fil0" d="M609.62 20.6142l-461.102 0c-70.3502,0 -127.904,57.5533 -127.904,127.898l0 461.102c0,70.3502 57.5533,127.904 127.904,127.904l461.102 0c70.3445,0 127.898,-57.5533 127.898,-127.904l0 -461.102c0,-70.3445 -57.5533,-127.898 -127.898,-127.898z"/>
  <g style="clip-path:url(#id0)">
   <g id="_320216120">
    <g>
     <path id="_3245995201" class="fil1" d="M150.929 135.122l456.805 0c22.1949,0 39.5168,18.1843 40.3539,40.3539l16.1418 427.205c0.837134,22.1624 -18.1763,40.3546 -40.3539,40.3546l-489.089 0c-22.1776,0 -41.1925,-18.1749 -40.3539,-40.3546l16.1411 -427.205c0.838575,-22.179 18.1598,-40.3539 40.3546,-40.3539z"/>
     <path id="_256757072" class="fil2" d="M150.929 135.122l456.805 0c22.1949,0 39.516,18.1835 40.3546,40.3546l4.29445 113.66c-25.0211,-2.83127 -50.6668,-4.32039 -76.8024,-4.32039 -240.927,0 -440.959,124.969 -480.06,289.102l15.054 -398.441c0.837854,-22.1797 18.1598,-40.3546 40.3546,-40.3546z"/>
     <g>
      <polygon id="_257313912" class="fil3" points="110.574,175.476 114.139,582.832 94.4333,602.681 "/>
      <polygon id="_324593304" class="fil3" points="648.089,175.476 644.524,582.832 664.23,602.681 "/>
     </g>
     <path id="_256330024" class="fil4 str0" d="M205.497 124.12c19.1431,-0.786704 33.0913,-4.5711 42.1146,4.52067 7.28134,7.33753 10.6861,16.1282 9.27475,23.5204 -3.15978,16.5539 -23.4693,22.6631 -52.4196,22.6631 -28.9496,0 -51.2964,-4.48249 -52.4196,-22.6631 -0.482685,-7.8267 3.1497,-17.6331 9.75168,-24.3122 8.73443,-8.83601 23.9981,-2.91772 43.6981,-3.72892z"/>
     <ellipse id="_257309256" class="fil5 str1" cx="204.467" cy="131.756" rx="43.8807" ry="16.6592"/>
     <path id="_256600400" class="fil6 str0" d="M554.273 124.635c19.8038,-0.814801 33.8355,-5.61211 42.7428,3.94577 6.65097,7.13653 10.6846,16.5042 9.33383,23.5802 -3.16051,16.5532 -23.4693,22.6631 -52.4196,22.6631 -28.9503,0 -51.2964,-4.48249 -52.4196,-22.6631 -0.472599,-7.65308 2.98544,-16.9156 9.29565,-23.5024 8.67968,-9.06151 23.4369,-3.20013 43.4669,-4.02357z"/>
     <ellipse id="_452417840" class="fil7 str1" cx="553.93" cy="131.756" rx="43.8807" ry="16.6592"/>
     <rect id="_452421128" class="fil8" x="275.773" y="146.024" width="207.117" height="30.3774" rx="22.4405" ry="22.4405"/>
     <rect id="_452425592" class="fil9" x="275.773" y="146.792" width="207.117" height="30.3774" rx="22.4405" ry="22.4405"/>
     <rect id="_452423504" class="fil10" x="277.477" y="152.603" width="203.708" height="23.7032" rx="17.5099" ry="17.5099"/>
     <path id="_452421824" class="fil11" d="M369.953 277.148c70.1003,-3.28586 110.221,-34.4673 143.262,3.47677 26.6637,30.6181 50.0919,82.7034 44.925,113.551 -11.57,69.0837 -85.9446,124.992 -191.958,124.992 -106.014,0 -187.848,-49.1157 -191.959,-124.992 -1.76864,-32.6619 11.5326,-73.5907 35.7108,-101.465 31.984,-36.8771 87.8789,-12.1809 160.019,-15.5626z"/>
     <path id="_452424872" class="fil12" d="M369.953 269.96c70.1003,-3.28586 110.221,-34.4673 143.262,3.47677 26.6637,30.6188 50.0919,82.7041 44.925,113.552 -11.57,69.083 -85.9446,124.991 -191.958,124.991 -106.014,0 -187.848,-49.1157 -191.959,-124.991 -1.76864,-32.6626 11.5326,-73.5914 35.7108,-101.466 31.984,-36.8771 87.8789,-12.1809 160.019,-15.5626z"/>
     <path id="_452424296" class="fil13" d="M538.324 435.439c-2.49915,3.65976 -5.20795,7.23019 -8.11127,10.7026l-41.3611 -92.7065 -64.8087 -38.1227 60.9962 15.2492 53.2848 104.877z"/>
     <path id="_452419760" class="fil14" d="M228.579 475.705c-21.1913,-14.2313 -37.1458,-32.2542 -46.1584,-53.3489l95.7539 -157.015c19.602,1.04534 41.7537,4.00052 66.1041,4.76417l-80.1826 92.9017 -35.517 112.698z"/>
     <ellipse id="_452425328" class="fil15" cx="366.182" cy="309.214" rx="160.689" ry="88.5455"/>
     <ellipse id="_452425280" class="fil11" cx="366.182" cy="314.978" rx="160.689" ry="88.5455"/>
     <ellipse id="_452424920" class="fil15" cx="366.182" cy="309.214" rx="160.689" ry="88.5455"/>
     <path id="_452419736" class="fil16" d="M366.181 220.669c71.7104,0 132.442,25.887 153.118,61.6252 -22.8209,-6.85629 -48.9896,-10.7545 -76.8125,-10.7545 -88.7449,0 -160.689,39.6428 -160.689,88.5446 0,9.38714 2.66053,18.4314 7.57239,26.9216 -49.9709,-15.0137 -83.8777,-44.2211 -83.8777,-77.7922 0,-48.9017 71.9438,-88.5446 160.689,-88.5446z"/>
     <polygon id="_452421704" class="fil17" points="515.888,242.927 517.703,273.241 538.579,251.186 520.485,275.574 550.653,272.099 521.115,279.15 546.461,295.879 519.299,282.294 527.962,311.402 515.888,283.536 503.814,311.402 512.477,282.294 485.315,295.879 510.66,279.15 481.122,272.099 511.291,275.574 493.197,251.186 514.072,273.241 "/>
     <polygon id="_452422376" class="fil18" points="114.307,496.76 115.617,514.994 130.691,504.65 117.252,517.043 134.738,522.379 116.669,519.599 123.399,536.596 114.307,520.736 105.214,536.596 111.945,519.599 93.8764,522.379 111.362,517.043 97.9231,504.65 112.997,514.994 "/>
    </g>
    <g>
     <path id="_452418848" class="fil19" d="M619.23 686.301c-32.0099,-38.3295 -55.9324,-77.7159 -124.098,-66.1761 -44.2874,7.49746 -131.783,48.7512 -143.868,0.384707 -12.0859,-48.3657 49.254,-73.0245 124.588,-65.0241 75.3341,7.9996 49.9694,-56.5029 27.9316,-92.7821 -22.0378,-36.2792 -95.9974,-80.4657 -114.561,-106.142 -18.5632,-25.6774 -12.9864,-83.5614 41.1896,-70.9748 54.1753,12.5873 61.5755,58.6304 84.0895,98.3258 22.5147,39.6954 55.065,71.147 72.1369,55.9151 17.0719,-15.2319 2.19946,-68.0514 -19.3088,-121.634 -21.5083,-53.5831 -9.89864,-102.862 24.9887,-105.068 34.888,-2.20666 63.2411,25.9079 54.1241,88.3357 -9.11698,62.4277 5.60059,98.1579 9.22144,110.659 3.62158,12.5015 17.6605,33.2188 34.7483,15.1232 17.0885,-18.0964 18.7224,-48.5487 29.0432,-71.4345 10.3215,-22.885 38.9678,-46.4206 69.4447,-29.1628 30.4776,17.2571 -13.2191,41.5966 -30.6188,62.4724 -17.3997,20.8765 -40.9936,54.0377 -42.1377,99.6067 -1.14331,45.5691 11.2077,101.982 34.2584,135.297 23.0514,33.3153 130.187,185.271 98.0477,176.667 -32.1382,-8.60332 -167.788,95.9448 -192.52,32.6064 -10.6356,-27.2371 -4.06392,-107.915 -36.7006,-146.994z"/>
     <g>
      <path id="_452420792" class="fil20" d="M626.882 653.647c-32.0099,-38.3295 -55.9324,-77.7151 -124.098,-66.1754 -44.2881,7.49746 -131.784,48.7505 -143.869,0.384707 -12.0859,-48.3665 49.2547,-73.0245 124.588,-65.0249 75.3341,8.00032 49.9701,-56.5022 27.9316,-92.7814 -22.0378,-36.2792 -95.9974,-80.4665 -114.561,-106.142 -18.5632,-25.6767 -12.9864,-83.5614 41.1903,-70.9748 54.1753,12.5865 61.5755,58.6296 84.0895,98.3258 22.514,39.6954 55.065,71.147 72.1362,55.9151 17.0719,-15.2327 2.19946,-68.0514 -19.3081,-121.634 -21.5083,-53.5831 -9.89936,-102.862 24.9887,-105.068 34.8873,-2.20666 63.2404,25.9079 54.1234,88.3357 -9.11698,62.427 5.60059,98.1579 9.22216,110.659 3.62158,12.5008 17.6598,33.2188 34.7483,15.1232 17.0878,-18.0964 18.7217,-48.5487 29.0432,-71.4345 10.3215,-22.885 38.9671,-46.4206 69.4447,-29.1635 30.4776,17.2578 20.7151,50.6135 3.3154,71.49 -17.3997,20.8758 -74.9278,45.0208 -76.0719,90.5899 -1.14404,45.5691 11.2069,101.981 34.2577,135.297 23.0522,33.3161 130.187,185.271 98.0484,176.668 -32.1382,-8.60404 -167.788,95.9448 -192.521,32.6064 -10.6349,-27.2371 -4.06392,-107.915 -36.6999,-146.995z"/>
      <path id="_452418680" class="fil21" d="M626.882 653.647c-32.0099,-38.3295 -55.9324,-77.7151 -124.098,-66.1754 -44.2881,7.49746 -131.784,48.7505 -143.869,0.384707 -0.55833,-2.23476 -0.958165,-4.41981 -1.20887,-6.55299 3.35934,3.11152 7.84327,6.19494 13.8221,9.42532 26.5383,14.3365 140.296,-35.6884 177.401,-23.1213 73.4308,24.8698 148.799,146.742 149.808,239.462 0.0597953,5.46875 0.260794,10.0867 0.562652,13.995 -16.5633,0.687286 -29.5699,-4.677 -35.7187,-20.4226 -10.6349,-27.2371 -4.06392,-107.915 -36.6999,-146.995zm-142.862 -130.767c74.6915,7.64587 49.4024,-56.6348 27.4158,-92.8297 -22.0378,-36.2792 -95.9974,-80.4665 -114.561,-106.142 -6.06454,-8.38863 -9.54924,-20.213 -9.60903,-31.8954 23.805,43.4719 82.3547,78.9334 108.315,103.507 27.3769,25.9144 95.4895,108.959 42.0462,121.608 -30.2276,7.15382 -41.0289,13.6578 -53.6076,5.75187zm105.254 -112.687c1.78737,-0.641178 3.46669,-1.63609 5.01704,-3.0193 17.0719,-15.2327 2.19946,-68.0514 -19.3081,-121.634 -21.5083,-53.5831 -9.89936,-102.862 24.9887,-105.068 2.10148,-0.133279 4.17991,-0.153451 6.22736,-0.0648383 -14.8609,0.484126 -28.1232,7.91747 -31.0294,31.7751 -5.48676,45.0467 11.0506,74.7967 25.6796,113.431 15.2889,40.3791 3.44435,81.9966 -11.5751,84.5808zm122.397 -39.1133c5.7951,-15.6015 8.84394,-33.3067 15.4373,-47.9248 10.3215,-22.885 38.9671,-46.4206 69.4447,-29.1635 6.08327,3.44507 10.5593,7.53132 13.6953,12.0325 -9.68972,-10.1465 -21.2266,-15.7615 -33.2152,-14.3278 -21.7042,2.59641 -39.1537,19.293 -52.2755,55.4843 -3.13745,8.65375 -7.84687,16.8263 -13.0865,23.8994z"/>
      <path id="_452421800" class="fil22" d="M387.628 298.332c-0.227654,-2.08995 -0.351567,-4.19576 -0.362374,-6.29796 0.0252149,0.207482 0.371019,3.06757 0.362374,6.29796zm-0.362374 -6.31957c-0.123193,-24.0802 14.3213,-47.5538 50.7993,-39.0795 54.1753,12.5865 61.5755,58.6296 84.0895,98.3258 15.1102,26.6413 34.7418,49.5689 51.1804,57.1629 -33.5941,-14.9164 -60.1339,-63.7756 -65.4233,-73.2593 -5.41039,-9.70125 -16.4113,-63.3895 -65.1517,-77.2807 -48.5502,-13.8379 -55.4418,33.7584 -55.4944,34.1309zm189.61 117.82c0.228375,0.0763651 0.455309,0.146246 0.682243,0.214687 -0.223332,-0.0662791 -0.450986,-0.137601 -0.682243,-0.214687zm12.9288 -227.167c3.12809,-1.21103 6.51841,-1.96316 10.1666,-2.19369 34.8873,-2.20666 63.2404,25.9079 54.1234,88.3357 -1.32054,9.0399 -2.13822,17.5171 -2.56471,25.4483l-0.000720425 -0.0324191c0.25431,-45.0799 -0.0374621,-64.5854 -3.90254,-74.935 -13.8682,-37.143 -56.8804,-36.6387 -57.822,-36.6228zm218.948 121.369c14.7399,18.1814 5.56096,44.1145 -8.88428,61.4472 -2.42927,2.91412 -5.64021,5.89236 -9.36985,8.98298l0.000720425 -0.00216128c20.8102,-24.122 25.6868,-46.4732 18.2534,-70.428z"/>
      <path id="_452424488" class="fil23" d="M357.401 575.861c0.144085,-40.3842 57.2774,-60.3378 126.103,-53.0298 31.2009,3.31324 45.1181,-5.81599 49.1633,-20.2195 -0.000720425,0.00936553 0.00504298,0.0180106 0.00432255,0.028817 -1.22184,13.5526 -11.8409,26.5729 -52.542,24.5449 -40.7019,-2.028 -76.7087,6.57676 -90.1252,12.2912 -16.4985,7.02919 -26.5513,22.1228 -32.6028,36.3844z"/>
      <path id="_452424560" class="fil23" d="M752.682 404.199l-0.00504298 0.00216128c-140.208,69.2487 15.3393,239.786 78.1316,368.234 10.8395,-3.93136 19.6611,-5.90749 25.2948,-4.39964 32.1382,8.60332 -74.9963,-143.352 -98.0484,-176.668 -23.0507,-33.3153 -35.4017,-89.7275 -34.2577,-135.297 0.536717,-21.3829 13.4892,-38.0485 28.8847,-51.8721z"/>
      <path id="_452421176" class="fil24" d="M470.881 289.236c14.8206,32.7325 -7.51259,42.9388 -28.0296,40.748 -26.9648,-2.87882 37.8022,8.17899 28.0296,-40.748z"/>
      <path id="_452419712" class="fil25" d="M646.745 256.187c-11.5888,34.012 -34.8592,26.1738 -48.3225,10.5377 -17.6944,-20.5501 21.9715,31.8305 48.3225,-10.5377z"/>
      <path id="_452419256" class="fil26" d="M792.037 370.871c-30.1375,19.566 -43.5807,-0.98194 -44.4942,-21.5955 -1.20167,-27.0916 -2.41198,38.6018 44.4942,21.5955z"/>
      <path id="_452422736" class="fil21" d="M419.046 551.238c35.2987,6.71652 30.7931,30.8544 17.1937,46.373 -17.8723,20.3952 28.4445,-26.2083 -17.1937,-46.373z"/>
      <path id="_452423912" class="fil27" d="M626.882 653.647c-32.0099,-38.3295 -55.9324,-77.7151 -124.098,-66.1754 -39.0096,6.60414 -111.53,39.3835 -136.524,14.0562 0.180827,0.11815 0.364535,0.244224 0.541039,0.353008 20.5703,12.7004 143.562,-31.4566 180.838,-19.4119 73.0533,23.6047 122.721,92.5912 126.154,213.708 0.302579,10.6493 3.19509,17.0323 6.46942,22.1048 -7.39228,-3.02362 -13.1614,-8.62781 -16.6807,-17.6396 -10.6349,-27.2371 -4.06392,-107.915 -36.6999,-146.995z"/>
     </g>
    </g>
   </g>
  </g>
  <path class="fil28" d="M609.62 20.6142l-461.102 0c-70.3502,0 -127.904,57.5533 -127.904,127.898l0 461.102c0,70.3502 57.5533,127.904 127.904,127.904l461.102 0c70.3445,0 127.898,-57.5533 127.898,-127.904l0 -461.102c0,-70.3445 -57.5533,-127.898 -127.898,-127.898z"/>
  <path class="fil29" d="M140.098 753.367l477.936 0c38.0031,0 72.5447,-15.3177 97.5794,-39.9937 24.1083,-23.7625 39.4094,-56.2155 40.5095,-92.0365l-13.1067 -13.9784c-1.09216,30.3169 -21.254,71.7601 -41.704,91.9183 -21.3801,21.0724 -50.8591,34.1525 -83.2783,34.1525l-477.936 0c-32.4191,0 -61.8982,-13.08 -83.2783,-34.1525 -20.45,-20.1582 -40.6118,-61.6014 -41.704,-91.9183l-13.1067 13.9784c1.10009,35.821 16.4012,68.274 40.5095,92.0365 25.0348,24.676 59.5763,39.9937 97.5794,39.9937z"/>
  <path class="fil30" d="M140.098 3.91551l477.936 0c38.0031,0 72.5447,15.3177 97.5794,39.9937 24.1083,23.7625 39.4094,56.2155 40.5095,92.0365l-13.1067 13.9784c-1.09216,-30.3169 -21.254,-71.7601 -41.704,-91.9183 -21.3801,-21.0724 -50.8591,-34.1525 -83.2783,-34.1525l-477.936 0c-32.4191,0 -61.8982,13.08 -83.2783,34.1525 -20.45,20.1582 -40.6118,61.6014 -41.704,91.9183l-13.1067 -13.9784c1.10009,-35.821 16.4012,-68.274 40.5095,-92.0365 25.0348,-24.676 59.5763,-39.9937 97.5794,-39.9937z"/>
  <path class="fil31" d="M622.878 0l-487.625 0c-74.3904,0 -135.253,60.863 -135.253,135.253l0 487.625c0,74.3904 60.863,135.253 135.253,135.253l487.625 0c74.3904,0 135.254,-60.863 135.254,-135.253l0 -487.625c0,-74.3904 -60.8637,-135.253 -135.254,-135.253zm-13.2587 20.6142l-461.102 0c-70.3502,0 -127.904,57.5533 -127.904,127.898l0 461.102c0,70.3502 57.5533,127.904 127.904,127.904l461.102 0c70.3445,0 127.898,-57.5533 127.898,-127.904l0 -461.102c0,-70.3445 -57.5533,-127.898 -127.898,-127.898z"/>
 </g>
</svg>
