<?xml version="1.0" encoding="UTF-8"?>
<!DOCTYPE svg PUBLIC "-//W3C//DTD SVG 1.1//EN" "http://www.w3.org/Graphics/SVG/1.1/DTD/svg11.dtd">
<!-- Creator: CorelDRAW -->
<svg xmlns="http://www.w3.org/2000/svg" xml:space="preserve" width="4.14307in" height="4.14307in" style="shape-rendering:geometricPrecision; text-rendering:geometricPrecision; image-rendering:optimizeQuality; fill-rule:evenodd; clip-rule:evenodd"
viewBox="0 0 0.699118 0.699118"
 xmlns:xlink="http://www.w3.org/1999/xlink">
 <defs>
  <style type="text/css">
   <![CDATA[
    .str1 {stroke:#1A1A1A;stroke-width:0.00117191}
    .str2 {stroke:#999999;stroke-width:0.00117191}
    .str0 {stroke:#666666;stroke-width:0.00234381}
    .fil2 {fill:black}
    .fil22 {fill:#224827}
    .fil7 {fill:#4D4D4D}
    .fil16 {fill:#61A53E}
    .fil19 {fill:#7BBA47}
    .fil4 {fill:#8EADBA}
    .fil20 {fill:#95CC68}
    .fil12 {fill:#B3B3B3}
    .fil21 {fill:#CBED96}
    .fil18 {fill:#DDF6A2}
    .fil3 {fill:white}
    .fil24 {fill:#999999;fill-rule:nonzero}
    .fil23 {fill:#B3B3B3;fill-rule:nonzero}
    .fil8 {fill:url(#id0)}
    .fil10 {fill:url(#id1)}
    .fil1 {fill:url(#id2)}
    .fil5 {fill:url(#id3)}
    .fil14 {fill:url(#id4)}
    .fil9 {fill:url(#id5)}
    .fil11 {fill:url(#id6)}
    .fil17 {fill:url(#id7)}
    .fil13 {fill:url(#id8)}
    .fil15 {fill:url(#id9)}
    .fil6 {fill:url(#id10)}
    .fil25 {fill:url(#id11)}
    .fil0 {fill:url(#id12)}
   ]]>
  </style>
  <linearGradient id="id0" gradientUnits="userSpaceOnUse" x1="0.103432" y1="0.0920073" x2="0.21269" y2="0.0920073">
   <stop offset="0" style="stop-color:#1A1A1A"/>
   <stop offset="0.501961" style="stop-color:#4D4D4D"/>
   <stop offset="1" style="stop-color:#1A1A1A"/>
  </linearGradient>
  <linearGradient id="id1" gradientUnits="userSpaceOnUse" xlink:href="#id0" x1="0.461172" y1="0.0920126" x2="0.570357" y2="0.0920126">
  </linearGradient>
  <linearGradient id="id2" gradientUnits="userSpaceOnUse" x1="0.336586" y1="0.59986" x2="0.336586" y2="0.0799328">
   <stop offset="0" style="stop-color:#1A1A1A"/>
   <stop offset="0.188235" style="stop-color:#333333"/>
   <stop offset="0.901961" style="stop-color:#333333"/>
   <stop offset="1" style="stop-color:#666666"/>
  </linearGradient>
  <linearGradient id="id3" gradientUnits="userSpaceOnUse" x1="0.336586" y1="0.157499" x2="0.336586" y2="0.230688">
   <stop offset="0" style="stop-color:#8EADBA"/>
   <stop offset="1" style="stop-color:#AEBDC4"/>
  </linearGradient>
  <linearGradient id="id4" gradientUnits="userSpaceOnUse" x1="0.336586" y1="0.104136" x2="0.336586" y2="0.115782">
   <stop offset="0" style="stop-color:#990000"/>
   <stop offset="1" style="stop-color:#CC3300"/>
  </linearGradient>
  <linearGradient id="id5" gradientUnits="userSpaceOnUse" x1="0.141596" y1="0.0875901" x2="0.173576" y2="0.065383">
   <stop offset="0" style="stop-color:#4D4D4D"/>
   <stop offset="1" style="stop-color:#B3B3B3"/>
  </linearGradient>
  <linearGradient id="id6" gradientUnits="userSpaceOnUse" x1="0.499325" y1="0.0875901" x2="0.531305" y2="0.065383">
   <stop offset="0" style="stop-color:#666666"/>
   <stop offset="1" style="stop-color:#B3B3B3"/>
  </linearGradient>
  <linearGradient id="id7" gradientUnits="userSpaceOnUse" x1="0.418033" y1="0.347529" x2="0.504321" y2="0.24261">
   <stop offset="0" style="stop-color:#DDF6A2"/>
   <stop offset="1" style="stop-color:#FEFEFE"/>
  </linearGradient>
  <linearGradient id="id8" gradientUnits="userSpaceOnUse" x1="0.336586" y1="0.103073" x2="0.336586" y2="0.11178">
   <stop offset="0" style="stop-color:#600000"/>
   <stop offset="1" style="stop-color:black"/>
  </linearGradient>
  <linearGradient id="id9" gradientUnits="userSpaceOnUse" x1="0.422056" y1="0.462133" x2="0.518235" y2="0.400406">
   <stop offset="0" style="stop-color:#88CA68"/>
   <stop offset="1" style="stop-color:#DDF6A2"/>
  </linearGradient>
  <linearGradient id="id10" gradientUnits="userSpaceOnUse" x1="0.160798" y1="0.237" x2="0.160798" y2="0.234814">
   <stop offset="0" style="stop-color:black"/>
   <stop offset="1" style="stop-color:#1A1A1A"/>
  </linearGradient>
  <radialGradient id="id11" gradientUnits="userSpaceOnUse" cx="0.349559" cy="0.349558" r="0.349559" fx="0.349559" fy="0.349558">
   <stop offset="0" style="stop-color:black"/>
   <stop offset="0.701961" style="stop-color:#313131"/>
   <stop offset="1" style="stop-color:#626262"/>
  </radialGradient>
  <radialGradient id="id12" gradientUnits="userSpaceOnUse" cx="0.349562" cy="0.349556" r="0.0402667" fx="0.349562" fy="0.349556">
   <stop offset="0" style="stop-color:#FFFF66"/>
   <stop offset="0.321569" style="stop-color:#CCCC33"/>
   <stop offset="0.619608" style="stop-color:#949426"/>
   <stop offset="1" style="stop-color:#333300"/>
  </radialGradient>
 </defs>
 <g id="Layer_x0020_1">
  <metadata id="CorelCorpID_0Corel-Layer"/>
  <g id="_354753352">
   <rect id="_348841352" class="fil0" x="0.0190147" y="0.0190095" width="0.661099" height="0.661099" rx="0.117945" ry="0.117945"/>
   <path id="_347001984" class="fil1" d="M0.102782 0.0799328l0.46761 0c0.02272,0 0.0404514,0.0186137 0.0413091,0.0413084l0.016523 0.43731c0.000857671,0.0226861 -0.0186063,0.0413091 -0.0413084,0.0413091l-0.500657 0c-0.022702,0 -0.0421667,-0.018605 -0.0413084,-0.0413091l0.016523 -0.43731c0.000858335,-0.022704 0.0185891,-0.0413084 0.0413091,-0.0413084z"/>
   <rect id="_346816224" class="fil2 str0" x="0.0651216" y="0.138595" width="0.54293" height="0.399637"/>
   <path id="_346816056" class="fil3" d="M0.414361 0.159924c-0.0492121,0.0123455 -0.100968,0.0137201 -0.155549,0 0,0.0524873 0,0.104974 0,0.157461 0.0518496,-0.0167196 0.103699,-0.0176005 0.155549,0 0,-0.0524873 0,-0.104974 0,-0.157461zm-0.175255 0.193853c-0.0492128,0.0123449 -0.100968,0.0137201 -0.155549,0 0,0.0524873 0,0.104974 0,0.157461 0.0518496,-0.0167189 0.103699,-0.0176005 0.155549,0 0,-0.0524867 0,-0.104973 0,-0.157461zm0.350511 0c-0.0492128,0.0123449 -0.100968,0.0137201 -0.15555,0 0,0.0524873 0,0.104974 0,0.157461 0.0518502,-0.0167189 0.1037,-0.0176005 0.15555,0 0,-0.0524867 0,-0.104973 0,-0.157461zm-0.175256 0c-0.0492121,0.0123449 -0.100968,0.0137201 -0.155549,0 0,0.0524873 0,0.104974 0,0.157461 0.0518496,-0.0167189 0.103699,-0.0176005 0.155549,0 0,-0.0524867 0,-0.104973 0,-0.157461zm-0.175255 -0.193853c-0.0492128,0.0123455 -0.100968,0.0137201 -0.155549,0 0,0.0524873 0,0.104974 0,0.157461 0.0518496,-0.0167196 0.103699,-0.0176005 0.155549,0 0,-0.0524873 0,-0.104974 0,-0.157461zm0.350511 0c-0.0492128,0.0123455 -0.100968,0.0137201 -0.15555,0 0,0.0524873 0,0.104974 0,0.157461 0.0518502,-0.0167196 0.1037,-0.0176005 0.15555,0 0,-0.0524873 0,-0.104974 0,-0.157461z"/>
   <g>
    <path id="_346815888" class="fil4" d="M0.414361 0.158342c-0.0492121,0.0123449 -0.100967,0.0137201 -0.155549,0 0,0.0524873 0,0.104974 0,0.157461 0.0518502,-0.0167189 0.1037,-0.0176005 0.155549,0 0,-0.0524867 0,-0.104973 0,-0.157461z"/>
    <path id="_346815648" class="fil5" d="M0.414361 0.158342c-0.0491988,-0.000842391 -0.100953,0.00113537 -0.155549,0 0,0.0524873 0,0.0198606 0,0.0723473 0.0518502,-0.0167189 0.1037,-0.0176005 0.155549,0 0,-0.0524867 0,-0.01986 0,-0.0723473z"/>
   </g>
   <g>
    <path id="_346815504" class="fil4" d="M0.589617 0.158342c-0.0492121,0.0123449 -0.100968,0.0137201 -0.155549,0 0,0.0524873 0,0.104974 0,0.157461 0.0518502,-0.0167189 0.1037,-0.0176005 0.155549,0 0,-0.0524867 0,-0.104973 0,-0.157461z"/>
    <path id="_346815264" class="fil5" d="M0.589617 0.158342c-0.0491995,-0.000842391 -0.100953,0.00113537 -0.155549,0 0,0.0524873 0,0.0198606 0,0.0723473 0.0518502,-0.0167189 0.1037,-0.0176005 0.155549,0 0,-0.0524867 0,-0.01986 0,-0.0723473z"/>
   </g>
   <g>
    <path id="_346815120" class="fil4" d="M0.239106 0.158342c-0.0492121,0.0123449 -0.100968,0.0137201 -0.155549,0 0,0.0524873 0,0.104974 0,0.157461 0.0518502,-0.0167189 0.1037,-0.0176005 0.155549,0 0,-0.0524867 0,-0.104973 0,-0.157461z"/>
    <path id="_346814880" class="fil5" d="M0.239106 0.158342c-0.0491995,-0.000842391 -0.100953,0.00113537 -0.155549,0 0,0.0524873 0,0.0198606 0,0.0723473 0.0518502,-0.0167189 0.1037,-0.0176005 0.155549,0 0,-0.0524867 0,-0.01986 0,-0.0723473z"/>
   </g>
   <g>
    <path id="_346814736" class="fil4" d="M0.414361 0.352195c-0.0492121,0.0123449 -0.100967,0.0137194 -0.155549,0 0,0.0524867 0,0.104973 0,0.157461 0.0518502,-0.0167189 0.1037,-0.0176005 0.155549,0 0,-0.0524873 0,-0.104974 0,-0.157461z"/>
    <path id="_346814496" class="fil5" d="M0.414361 0.352195c-0.0491988,-0.000843055 -0.100953,0.0011347 -0.155549,0 0,0.0524867 0,0.01986 0,0.0723466 0.0518502,-0.0167189 0.1037,-0.0176005 0.155549,0 0,-0.0524867 0,-0.01986 0,-0.0723466z"/>
   </g>
   <g>
    <path id="_346814352" class="fil4" d="M0.589617 0.352195c-0.0492121,0.0123449 -0.100968,0.0137194 -0.155549,0 0,0.0524867 0,0.104973 0,0.157461 0.0518502,-0.0167189 0.1037,-0.0176005 0.155549,0 0,-0.0524873 0,-0.104974 0,-0.157461z"/>
    <path id="_346814112" class="fil5" d="M0.589617 0.352195c-0.0491995,-0.000843055 -0.100953,0.0011347 -0.155549,0 0,0.0524867 0,0.01986 0,0.0723466 0.0518502,-0.0167189 0.1037,-0.0176005 0.155549,0 0,-0.0524867 0,-0.01986 0,-0.0723466z"/>
   </g>
   <g>
    <path id="_346813968" class="fil4" d="M0.239106 0.352195c-0.0492121,0.0123449 -0.100968,0.0137194 -0.155549,0 0,0.0524867 0,0.104973 0,0.157461 0.0518502,-0.0167189 0.1037,-0.0176005 0.155549,0 0,-0.0524873 0,-0.104974 0,-0.157461z"/>
    <path id="_346813728" class="fil5" d="M0.239106 0.352195c-0.0491995,-0.000843055 -0.100953,0.0011347 -0.155549,0 0,0.0524867 0,0.01986 0,0.0723466 0.0518502,-0.0167189 0.1037,-0.0176005 0.155549,0 0,-0.0524867 0,-0.01986 0,-0.0723466z"/>
   </g>
   <path id="_346813584" class="fil3" d="M0.553143 0.439436c0,0 0.00953669,0.0119762 0.00332638,0.0172989 -0.00621031,0.00532274 -0.0565531,0.0297175 -0.0565531,0.0297175 0,0 -0.0217341,-0.00554331 -0.00576586,-0.01508 0.0159682,-0.00953669 0.0235079,-0.0148594 0.0235079,-0.0148594l-0.045242 -0.00288326c0,0 -0.016412,-0.00953603 0.00155191,-0.0155238 0.0179646,-0.00598842 0.0756252,-0.00243948 0.0791748,0.00133002zm-0.0421607 -0.250222c0,0 0.027955,0.0068813 0.0361258,0.0120419 0.00817212,0.00516197 -0.00903179,0.0193544 -0.00903179,0.0193544l-0.0352655 -0.0150528c0,0 -0.000430496,-0.0176331 0.00817146,-0.0163436zm-0.035696 0.0984867c0,0 -0.00946228,-0.00645014 0.00516064,-0.0266635 0.0146229,-0.0202141 0.0189239,-0.0331157 0.0189239,-0.0331157l0.0202127 -0.00516131c0,0 0.0318255,0.0421475 0.0318255,0.0464478 0,0.00430098 -0.00515998,0.0219341 -0.0189232,0.00473081 -0.0137626,-0.0172032 -0.0193537,-0.0240845 -0.0193537,-0.0240845l-0.0262344 0.0331157c0,0 -0.00429965,0.00903179 -0.0116114,0.00473081zm-0.136166 -0.0934815l-0.00430164 0.0404261 0.0356967 -0.00301082c0,0 0.0118267,-0.0111803 -0.00301082,-0.0141918 -0.0148368,-0.00301148 -0.0186436,0.00052882 -0.0186436,0.00052882 0,0 0.0130531,-0.0336445 0.00445112,-0.031494 -0.00860063,0.00214982 -0.0141918,0.00774163 -0.0141918,0.00774163zm-0.0423627 0.051823c0,0 -0.00924704,0.0116114 -0.00322607,0.0167734 0.00602163,0.00516064 0.0548351,0.0288147 0.0548351,0.0288147 0,0 0.0210744,-0.00537523 0.00559114,-0.0146223 -0.0154833,-0.00924704 -0.0227944,-0.014407 -0.0227944,-0.014407l0.0438675 -0.00279623c0,0 0.0159138,-0.00924637 -0.00150474,-0.0150528 -0.0174185,-0.00580572 -0.0733279,-0.00236507 -0.0767685,0.00129016zm-0.0941259 -0.000458399c0,0 0.00953736,0.0119755 0.00332705,0.0172982 -0.00621031,0.00532274 -0.0565531,0.0297182 -0.0565531,0.0297182 0,0 -0.0217341,-0.00554331 -0.00576586,-0.0150807 0.0159676,-0.00953669 0.0235086,-0.0148588 0.0235086,-0.0148588l-0.0452426 -0.00288326c0,0 -0.0164127,-0.00953603 0.00155191,-0.0155244 0.0179646,-0.00598775 0.0756259,-0.00243948 0.0791741,0.00133069zm-0.0311047 -0.0520894l-0.00443584 0.0416937 0.0368154 -0.00310515c0,0 0.0121967,-0.0115311 -0.00310582,-0.0146369 -0.0153026,-0.00310582 -0.0192275,0.000545428 -0.0192275,0.000545428 0,0 0.0134616,-0.0346981 0.00459063,-0.0324806 -0.00887102,0.00221692 -0.0146369,0.00798345 -0.0146369,0.00798345zm-0.0489457 0.00808509c0,0 0.02883,0.00709655 0.0372585,0.0124193 0.00842723,0.00532341 -0.00931546,0.0199603 -0.00931546,0.0199603l-0.036371 -0.0155244c0,0 -0.000443119,-0.0181858 0.0084279,-0.0168551zm-0.00107956 0.195291c0,0 -0.00924704,0.0116114 -0.0032254,0.0167728 0.00259095,0.00222025 0.0131042,0.0078652 0.0242407,0.0135753 -0.00284074,0.00502578 -0.00667734,0.0111697 -0.0117623,0.0181991 -0.0146229,0.0202141 -0.00516064,0.0266649 -0.00516064,0.0266649 0.00731113,0.00430098 0.0116121,-0.00473081 0.0116121,-0.00473081l0.0242506 -0.0306111c0.00254378,0.00125894 0.00480787,0.00237238 0.00665144,0.00327589 0.00312309,0.00387646 0.00791436,0.0098403 0.014686,0.0183041 0.0137619,0.0172032 0.0189226,-0.000430496 0.0189226,-0.00473081 0,-0.00336624 -0.0194966,-0.0299182 -0.0279703,-0.0412984l0.0260298 -0.00165821c0,0 0.0159124,-0.00924637 -0.00150541,-0.0150528 -0.0174185,-0.00580639 -0.0733286,-0.00236507 -0.0767692,0.00129016zm0.172517 0.0540492c0.0060223,0.00516131 0.0548351,0.0288147 0.0548351,0.0288147 0,0 0.0210744,-0.00537456 0.00559114,-0.0146216 -0.0154826,-0.00924704 -0.0227937,-0.0144077 -0.0227937,-0.0144077l0.0438681 -0.0027949c0,0 0.0159131,-0.00924637 -0.00150541,-0.0150528 -0.00116726,-0.000388643 -0.00251256,-0.000735431 -0.00399804,-0.00104435 -0.00213122,-0.00667535 -0.0316993,-0.0458339 -0.0316993,-0.0458339l-0.0202134 0.00516131c0,0 -0.00430098,0.0129009 -0.0189232,0.033115 -0.0146229,0.0202141 -0.00516131,0.0266642 -0.00516131,0.0266642zm0.0512835 -0.0211488c-0.00927095,-0.000117589 -0.0190442,0.0002385 -0.0273531,0.000869629l0.0139161 -0.0175666c0,0 0.00396681,0.00488095 0.0134371,0.016697zm0.176736 -0.0424232l-0.00443584 0.0416937 0.0368148 -0.00310515c0,0 0.0121967,-0.0115317 -0.00310582,-0.0146369 -0.0153019,-0.00310582 -0.0192268,0.000544764 -0.0192268,0.000544764 0,0 0.0134616,-0.0346981 0.00459063,-0.0324806 -0.00887102,0.00221759 -0.0146369,0.00798411 -0.0146369,0.00798411zm-0.0489457 0.00808509c0,0 0.0288306,0.00709588 0.0372585,0.0124186 0.00842723,0.00532341 -0.00931546,0.0199603 -0.00931546,0.0199603l-0.036371 -0.0155244c0,0 -0.000443119,-0.0181852 0.0084279,-0.0168545z"/>
   <path id="_346813416" class="fil6" d="M0.202632 0.243544c0,0 0.00953669,0.0119755 0.00332638,0.0172982 -0.00621031,0.00532274 -0.0565531,0.0297182 -0.0565531,0.0297182 0,0 -0.0217341,-0.00554397 -0.00576586,-0.0150807 0.0159676,-0.00953669 0.0235079,-0.0148588 0.0235079,-0.0148588l-0.0452426 -0.00288326c0,0 -0.016412,-0.00953603 0.00155258,-0.0155244 0.0179646,-0.00598775 0.0756259,-0.00243948 0.0791748,0.00133069zm-0.0311054 -0.0520894l-0.00443584 0.0416937 0.0368148 -0.00310449c0,0 0.0121967,-0.0115317 -0.00310515,-0.0146375 -0.0153019,-0.00310515 -0.0192275,0.000545428 -0.0192275,0.000545428 0,0 0.0134616,-0.0346981 0.00459063,-0.0324806 -0.00887102,0.00221759 -0.0146369,0.00798345 -0.0146369,0.00798345zm-0.0489457 0.00808509c0,0 0.0288306,0.00709655 0.0372585,0.0124193 0.00842723,0.00532274 -0.0093148,0.0199603 -0.0093148,0.0199603l-0.0363716 -0.0155244c0,0 -0.000443119,-0.0181858 0.0084279,-0.0168551z"/>
   <path id="_346813248" class="fil6" d="M0.553143 0.437396c0,0 0.00953669,0.0119755 0.00332638,0.0172989 -0.00621031,0.00532274 -0.0565531,0.0297175 -0.0565531,0.0297175 0,0 -0.0217341,-0.00554331 -0.00576653,-0.01508 0.0159682,-0.00953669 0.0235086,-0.0148588 0.0235086,-0.0148588l-0.0452426 -0.00288393c0,0 -0.016412,-0.00953603 0.00155258,-0.0155238 0.0179646,-0.00598842 0.0756259,-0.00243948 0.0791748,0.00133002zm-0.0311054 -0.0520887l-0.00443584 0.041693 0.0368148 -0.00310449c0,0 0.0121967,-0.0115317 -0.00310515,-0.0146369 -0.0153026,-0.00310582 -0.0192275,0.000544764 -0.0192275,0.000544764 0,0 0.0134616,-0.0346981 0.00459063,-0.0324806 -0.00887102,0.00221759 -0.0146369,0.00798411 -0.0146369,0.00798411zm-0.0489457 0.00808443c0,0 0.0288306,0.00709655 0.0372585,0.01242 0.00842723,0.00532274 -0.0093148,0.0199596 -0.0093148,0.0199596l-0.0363716 -0.0155238c0,0 -0.000443119,-0.0181858 0.0084279,-0.0168558z"/>
   <path id="_346813080" class="fil2" d="M0.121502 0.39483c0,0 -0.00924704,0.0116114 -0.0032254,0.0167728 0.00259095,0.00222025 0.0131036,0.00786453 0.0242407,0.0135746 -0.00284141,0.00502578 -0.00667734,0.0111703 -0.0117623,0.0182004 -0.0146229,0.0202134 -0.00516064,0.0266642 -0.00516064,0.0266642 0.00731113,0.00430098 0.0116114,-0.00473081 0.0116114,-0.00473081l0.0242513 -0.0306111c0.00254312,0.00125894 0.00480787,0.00237238 0.00665144,0.00327656 0.00312309,0.00387646 0.00791436,0.00983963 0.0146854,0.0183034 0.0137626,0.0172032 0.0189232,-0.000430496 0.0189232,-0.00473081 0,-0.00336624 -0.0194966,-0.0299188 -0.0279696,-0.0412978l0.0260284 -0.00165887c0,0 0.0159138,-0.00924637 -0.00150474,-0.0150528 -0.0174185,-0.00580572 -0.0733286,-0.00236507 -0.0767692,0.00129016z"/>
   <path id="_346812912" class="fil2" d="M0.294019 0.44888c0.00602163,0.00516131 0.0548351,0.0288154 0.0548351,0.0288154 0,0 0.0210737,-0.00537523 0.00559047,-0.0146223 -0.0154826,-0.00924704 -0.0227944,-0.0144077 -0.0227944,-0.0144077l0.0438681 -0.00279557c0,0 0.0159138,-0.00924637 -0.00150474,-0.0150528 -0.00116726,-0.000388643 -0.00251256,-0.000734767 -0.00399737,-0.00104369 -0.00213189,-0.00667469 -0.0316999,-0.0458339 -0.0316999,-0.0458339l-0.0202127 0.00516131c0,0 -0.00430098,0.0129016 -0.0189239,0.033115 -0.0146229,0.0202141 -0.00516064,0.0266642 -0.00516064,0.0266642zm0.0512835 -0.0211488c-0.00927162,-0.000116925 -0.0190448,0.0002385 -0.0273538,0.000869629l0.0139161 -0.0175666c0,0 0.00396615,0.00488095 0.0134377,0.016697z"/>
   <path id="_346812744" class="fil2" d="M0.510983 0.187175c0,0 0.027955,0.00688063 0.0361265,0.0120419 0.00817146,0.00516131 -0.00903179,0.0193531 -0.00903179,0.0193531l-0.0352662 -0.0150521c0,0 -0.000429832,-0.0176331 0.00817146,-0.0163429zm-0.035696 0.098486c0,0 -0.00946228,-0.00645014 0.00516064,-0.0266642 0.0146229,-0.0202134 0.0189239,-0.033115 0.0189239,-0.033115l0.0202127 -0.00516131c0,0 0.0318255,0.0421475 0.0318255,0.0464478 0,0.00430031 -0.00516064,0.0219341 -0.0189232,0.00473081 -0.0137626,-0.0172032 -0.0193531,-0.0240839 -0.0193531,-0.0240839l-0.0262344 0.033115c0,0 -0.00430031,0.00903179 -0.0116121,0.00473081z"/>
   <path id="_346812576" class="fil2" d="M0.33912 0.192179l-0.00430098 0.0404268 0.0356967 -0.00301015c0,0 0.011826,-0.0111816 -0.00301148,-0.0141924 -0.0148368,-0.00301082 -0.0186436,0.00052882 -0.0186436,0.00052882 0,0 0.0130524,-0.0336445 0.00445112,-0.031494 -0.00860129,0.00214982 -0.0141918,0.00774096 -0.0141918,0.00774096zm-0.0423634 0.0518237c0,0 -0.00924704,0.0116121 -0.0032254,0.0167734 0.00602163,0.00516064 0.0548351,0.0288147 0.0548351,0.0288147 0,0 0.0210737,-0.00537523 0.00559047,-0.0146223 -0.0154826,-0.00924704 -0.0227944,-0.014407 -0.0227944,-0.014407l0.0438681 -0.00279623c0,0 0.0159138,-0.00924637 -0.00150474,-0.0150521 -0.0174185,-0.00580639 -0.0733279,-0.00236574 -0.0767692,0.0012895z"/>
   <polygon id="_346812408" class="fil7" points="0.0614726,0.121241 0.0651219,0.538232 0.0449497,0.558551 "/>
   <polygon id="_346812240" class="fil7" points="0.611701,0.121241 0.608052,0.538232 0.628224,0.558551 "/>
   <path id="_346812072" class="fil8 str1" d="M0.158641 0.0686702c0.0195962,-0.000805852 0.0338737,-0.00467899 0.0431101,0.00462784 0.00745397,0.00751044 0.0109398,0.0165097 0.00949484,0.0240766 -0.0032347,0.0169448 -0.0240248,0.023199 -0.0536593,0.023199 -0.0296352,0 -0.0525099,-0.00458864 -0.0536599,-0.023199 -0.000494274,-0.00801202 0.00322407,-0.0180503 0.00998247,-0.0248871 0.00894077,-0.00904508 0.0245655,-0.0029869 0.0447318,-0.00381733z"/>
   <ellipse id="_346811976" class="fil9 str2" cx="0.157586" cy="0.0764864" rx="0.0449186" ry="0.0170533"/>
   <path id="_346811808" class="fil10 str1" d="M0.515666 0.069197c0.0202719,-0.000833755 0.0346357,-0.0057446 0.0437532,0.00403923 0.00680889,0.00730582 0.0109378,0.016895 0.00955463,0.0241384 -0.0032347,0.0169442 -0.0240241,0.023199 -0.0536593,0.023199 -0.0296345,0 -0.0525099,-0.00458864 -0.0536593,-0.023199 -0.000483644,-0.00783464 0.00305599,-0.0173155 0.00951543,-0.0240586 0.00888497,-0.0092756 0.0239909,-0.00327523 0.0444953,-0.00411895z"/>
   <ellipse id="_346811712" class="fil11 str2" cx="0.515315" cy="0.0764864" rx="0.0449186" ry="0.0170533"/>
   <rect id="_346811592" class="fil12" x="0.230579" y="0.0910919" width="0.212016" height="0.0310959" rx="0.0229711" ry="0.0229711"/>
   <rect id="_346811472" class="fil13" x="0.230579" y="0.0918788" width="0.212016" height="0.0310959" rx="0.0229711" ry="0.0229711"/>
   <rect id="_346811352" class="fil14" x="0.232323" y="0.0978272" width="0.208526" height="0.0242639" rx="0.0179241" ry="0.0179241"/>
   <g>
    <path id="_354766144" class="fil2" d="M0.572041 0.639665c-0.0380484,-0.0259414 -0.069189,-0.0548564 -0.126753,-0.0274528 -0.0374,0.0178038 -0.104629,0.0764337 -0.12753,0.0365716 -0.0229013,-0.0398628 0.0253043,-0.0771844 0.0941478,-0.0890589 0.0688442,-0.0118745 0.0300995,-0.0627076 0.00141306,-0.0893413 -0.0286858,-0.0266336 -0.105424,-0.0472071 -0.128358,-0.0653099 -0.0229332,-0.0181034 -0.0325629,-0.0708572 0.0186668,-0.0733352 0.0512291,-0.00247735 0.069389,0.0365045 0.0993576,0.0660493 0.0299693,0.0295441 0.0667655,0.049248 0.078074,0.0314362 0.0113085,-0.0178118 -0.0151863,-0.0609225 -0.0477599,-0.10304 -0.0325742,-0.0421176 -0.0346855,-0.0887567 -0.00429168,-0.0994998 0.0303932,-0.0107431 0.0626253,0.00705735 0.0702586,0.0647332 0.00763334,0.0576759 0.0296876,0.0856661 0.0360488,0.0958446 0.00636045,0.0101778 0.0240314,0.0250213 0.0346337,0.00466504 0.0106016,-0.0203562 0.00438203,-0.0477824 0.00777484,-0.0706838 0.00339348,-0.0229007 0.0228781,-0.0509932 0.0542611,-0.0433592 0.0313824,0.007634 -0.00125163,0.0402302 -0.0114301,0.0631308 -0.0101778,0.0229013 -0.0227572,0.0582605 -0.0122964,0.0989736 0.0104608,0.0407125 0.0356236,0.0876459 0.0644622,0.111395 0.00347586,0.00286267 0.00848038,0.00695504 0.0145206,0.0119244l-0.00295501 0.0396721 -0.0386072 0.0669787 -0.0406912 0.0105027c-0.00874811,-0.016515 -0.0193544,-0.0315285 -0.0329476,-0.0407962z"/>
    <g>
     <path id="_354745792" class="fil15" d="M0.570606 0.60877c-0.0380484,-0.0259414 -0.069189,-0.0548564 -0.126753,-0.0274528 -0.0374,0.0178038 -0.104629,0.0764337 -0.12753,0.0365716 -0.0229013,-0.0398628 0.0253043,-0.0771844 0.0941478,-0.0890589 0.0688442,-0.0118745 0.0300995,-0.0627076 0.00141306,-0.0893413 -0.0286858,-0.0266336 -0.105424,-0.0472071 -0.128358,-0.0653099 -0.0229332,-0.0181034 -0.0325629,-0.0708572 0.0186668,-0.0733352 0.0512291,-0.00247735 0.069389,0.0365045 0.0993576,0.0660493 0.0299693,0.0295441 0.0667655,0.049248 0.078074,0.0314362 0.0113085,-0.0178118 -0.0151863,-0.0609225 -0.0477599,-0.10304 -0.0325742,-0.0421176 -0.0346855,-0.0887567 -0.00429168,-0.0994998 0.0303932,-0.0107431 0.0626253,0.00705735 0.0702586,0.0647332 0.00763334,0.0576759 0.0296876,0.0856661 0.0360488,0.0958446 0.00636045,0.0101778 0.0240314,0.0250213 0.0346337,0.00466504 0.0106016,-0.0203562 0.00438203,-0.0477824 0.00777484,-0.0706838 0.00339348,-0.0229007 0.0228781,-0.0509932 0.0542611,-0.0433592 0.0313824,0.007634 0.031122,0.0396827 0.0209442,0.0625841 -0.0101784,0.0229007 -0.0551314,0.0588073 -0.0446706,0.0995204 0.0104608,0.0407125 0.0356236,0.0876459 0.0644622,0.111395 0.00413091,0.00340212 0.0104123,0.00853419 0.018041,0.0148236l-0.0050404 0.067667 -0.0386072 0.0669787 -0.0291854 0.00753302c-0.0109145,-0.0261819 -0.0248147,-0.0543522 -0.0458884,-0.0687206z"/>
     <path id="_354753256" class="fil16" d="M0.570606 0.60877c-0.0380484,-0.0259414 -0.069189,-0.0548564 -0.126753,-0.0274528 -0.0374,0.0178038 -0.104629,0.0764337 -0.12753,0.0365716 -0.0010583,-0.00184223 -0.00196314,-0.00367981 -0.00272249,-0.00550876 0.00376352,0.00191398 0.00851758,0.00352037 0.0146349,0.00488029 0.0271525,0.00603492 0.11547,-0.06699 0.151551,-0.0651863 0.0549115,0.00274574 0.12528,0.0560954 0.165886,0.117886l-0.0291788 0.00753103c-0.0109145,-0.0261819 -0.0248147,-0.0543522 -0.0458884,-0.0687206zm-0.159665 -0.0800272c0.0681845,-0.0120273 0.0295627,-0.0626824 0.000943372,-0.0892543 -0.0286858,-0.0266336 -0.105424,-0.0472071 -0.128358,-0.0653099 -0.00749183,-0.00591401 -0.0135613,-0.0155258 -0.0165562,-0.0258743 0.0320653,0.0325689 0.0929354,0.0492825 0.122153,0.0645446 0.0308124,0.0160945 0.112148,0.0726111 0.0679241,0.0972909 -0.0250133,0.0139586 -0.0329576,0.0224483 -0.046107,0.018603zm0.0649937 -0.126472c0.00142369,-0.00101911 0.00266336,-0.00232455 0.00369044,-0.00394223 0.0113085,-0.0178118 -0.0151863,-0.0609225 -0.0477599,-0.10304 -0.0325742,-0.0421176 -0.0346855,-0.0887567 -0.00429168,-0.0994998 0.00183094,-0.000647073 0.00366918,-0.00118852 0.0055081,-0.00162566 -0.0130617,0.00417209 -0.0229545,0.0141061 -0.0195245,0.0360023 0.00647671,0.0413429 0.0286393,0.06357 0.051346,0.0941585 0.0237311,0.0319703 0.0237045,0.0718723 0.0110315,0.0779471zm0.0987292 -0.0655212c0.00121243,-0.0152992 -0.000541442,-0.0317737 0.00162566,-0.0464019 0.00339348,-0.0229007 0.0228781,-0.0509932 0.0542611,-0.0433592 0.00626412,0.00152401 0.0112633,0.00402195 0.015179,0.00722477 -0.0111511,-0.00656042 -0.0227997,-0.0086365 -0.0330738,-0.00434549 -0.0185997,0.00776887 -0.029875,0.0269751 -0.0324008,0.0623848 -0.000603891,0.00846709 -0.00272382,0.016903 -0.00559114,0.0244971z"/>
     <path id="_354761920" class="fil17" d="M0.268884 0.35382c-0.000728788,-0.00179706 -0.00136855,-0.00363397 -0.001908,-0.00549614 7.50711e-005,0.000178045 0.00110215,0.00262815 0.001908,0.00549614zm-0.00191332 -0.0055154c-0.00617311,-0.0213302 0.000729452,-0.0457914 0.035223,-0.0474602 0.0512291,-0.00247735 0.069389,0.0365045 0.0993576,0.0660493 0.0201137,0.0198287 0.0433028,0.0352236 0.0597978,0.0378206 -0.0335575,-0.004772 -0.0694056,-0.041432 -0.0764862,-0.0485132 -0.0072427,-0.00724337 -0.0305221,-0.0521 -0.0772582,-0.0521492 -0.0465541,-4.91616e-005 -0.0406812,0.0439093 -0.0406341,0.0442528zm0.197875 0.0567697c0.000221892,9.96519e-006 0.000441126,1.46156e-005 0.000659696,1.86017e-005 -0.000215248,-2.65739e-006 -0.000435147,-8.6365e-006 -0.000659696,-1.86017e-005zm-0.0457383 -0.204777c0.00247004,-0.00186216 0.0052882,-0.00338352 0.00846643,-0.00450693 0.0303932,-0.0107431 0.0626253,0.00705735 0.0702586,0.0647332 0.00110547,0.00835216 0.00251455,0.0160785 0.00413356,0.0232216l-8.6365e-006 -2.85669e-005c-0.0111271,-0.0400548 -0.0162977,-0.0572846 -0.0223327,-0.0654926 -0.0216564,-0.0294571 -0.0596862,-0.0181778 -0.0605173,-0.0179267zm0.224795 0.0525292c0.0176543,0.0124173 0.0160426,0.0377342 0.00759281,0.0567478 -0.00142104,0.00319683 -0.00351971,0.00664745 -0.0060502,0.0103286l6.64346e-007 -1.99304e-006c0.0123861,-0.0266396 0.0110833,-0.0476954 -0.00154328,-0.0670744z"/>
     <path id="_354766912" class="fil18" d="M0.311959 0.60763c-0.0100423,-0.0358614 0.0356163,-0.0679507 0.0985119,-0.0787994 0.0285131,-0.00491816 0.03856,-0.0165216 0.0385208,-0.0303181 1.99304e-006,8.6365e-006 9.30085e-006,1.528e-005 1.12939e-005,2.45808e-005 0.0023292,0.0123303 -0.00381202,0.0265553 -0.0404295,0.0350057 -0.0366174,0.00845115 -0.0663921,0.0251515 -0.0768549,0.0336 -0.0128657,0.0103904 -0.0179832,0.0263114 -0.0197597,0.0404873z"/>
     <path id="_354767008" class="fil18" d="M0.619385 0.355803l-3.98608e-006 3.32173e-006c-0.0746293,0.0675109 -0.0090577,0.142507 0.0673009,0.215016l0.00264543 -0.0355106c-0.00762869,-0.00628937 -0.0139101,-0.0114214 -0.018041,-0.0148236 -0.0288386,-0.0237491 -0.0540014,-0.0706825 -0.0644622,-0.111395 -0.00490885,-0.0191046 0.002385,-0.0371502 0.0125608,-0.0532905z"/>
     <path id="_354763744" class="fil19" d="M0.340446 0.324785c0.0213906,0.0253056 0.00414951,0.0399837 -0.0146037,0.0432071 -0.0246453,0.00423654 0.035595,-0.00226409 0.0146037,-0.0432071z"/>
     <path id="_354764368" class="fil20" d="M0.488134 0.251179c-0.00171601,0.0330904 -0.0243323,0.0319969 -0.0402142,0.0215168 -0.0208718,-0.0137739 0.0275073,0.022704 0.0402142,-0.0215168z"/>
     <path id="_354763000" class="fil21" d="M0.645904 0.316327c-0.0218078,0.0249469 -0.0389081,0.010104 -0.0449098,-0.00795223 -0.00788778,-0.0237305 0.00758152,0.0348516 0.0449098,0.00795223z"/>
     <path id="_354742576" class="fil16" d="M0.360444 0.570262c0.0330054,-0.00293043 0.0350868,0.0196168 0.0269306,0.0368081 -0.0107186,0.0225938 0.0186329,-0.0304124 -0.0269306,-0.0368081z"/>
     <path id="_354766624" class="fil22" d="M0.570606 0.60877c-0.0380484,-0.0259414 -0.069189,-0.0548564 -0.126753,-0.0274528 -0.0329423,0.0156819 -0.0890204,0.0630232 -0.117571,0.0468497 0.000190003,5.97912e-005 0.000384657,0.000124897 0.00056868,0.00017738 0.0214464,0.00608608 0.119433,-0.0640589 0.155534,-0.0627615 0.0588046,0.00211395 0.111168,0.0361125 0.146438,0.108726l-0.0123283 0.00318222c-0.0109145,-0.0261819 -0.0248147,-0.0543522 -0.0458884,-0.0687206z"/>
    </g>
   </g>
   <path id="_348841208" class="fil23" d="M0.129193 0.694724l0.440733 0c0.0350449,0 0.0668977,-0.0141253 0.0899837,-0.0368805 0.0222317,-0.0219128 0.0363417,-0.0518396 0.0373562,-0.0848722l-0.0120865 -0.0128903c-0.00100715,0.027957 -0.0195995,0.0661742 -0.0384577,0.0847633 -0.0197158,0.0194321 -0.0469002,0.031494 -0.0767958,0.031494l-0.440733 0c-0.0298956,0 -0.05708,-0.0120619 -0.0767958,-0.031494 -0.0188581,-0.0185891 -0.0374505,-0.0568063 -0.0384577,-0.0847633l-0.0120865 0.0128903c0.00101446,0.0330326 0.0151245,0.0629594 0.0373562,0.0848722 0.023086,0.0227552 0.0549388,0.0368805 0.0899837,0.0368805z"/>
   <path id="_348841088" class="fil24" d="M0.129193 0.00361072l0.440733 0c0.0350449,0 0.0668977,0.0141253 0.0899837,0.0368805 0.0222317,0.0219128 0.0363417,0.0518396 0.0373562,0.0848722l-0.0120865 0.0128903c-0.00100715,-0.027957 -0.0195995,-0.0661742 -0.0384577,-0.0847633 -0.0197158,-0.0194321 -0.0469002,-0.031494 -0.0767958,-0.031494l-0.440733 0c-0.0298956,0 -0.05708,0.0120619 -0.0767958,0.031494 -0.0188581,0.0185891 -0.0374505,0.0568063 -0.0384577,0.0847633l-0.0120865 -0.0128903c0.00101446,-0.0330326 0.0151245,-0.0629594 0.0373562,-0.0848722 0.023086,-0.0227552 0.0549388,-0.0368805 0.0899837,-0.0368805z"/>
   <path id="_348840920" class="fil25" d="M0.574392 0l-0.449667 0c-0.0685997,0 -0.124725,0.0561253 -0.124725,0.124725l0 0.449667c0,0.0685997 0.0561253,0.124725 0.124725,0.124725l0.449667 0c0.0685997,0 0.124726,-0.0561253 0.124726,-0.124725l0 -0.449667c0,-0.0685997 -0.056126,-0.124725 -0.124726,-0.124725zm-0.0122266 0.0190096l-0.425209 0c-0.0648741,0 -0.117947,0.0530733 -0.117947,0.117942l0 0.425209c0,0.0648741 0.0530733,0.117947 0.117947,0.117947l0.425209 0c0.0648688,0 0.117942,-0.0530733 0.117942,-0.117947l0 -0.425209c0,-0.0648688 -0.0530733,-0.117942 -0.117942,-0.117942z"/>
  </g>
 </g>
</svg>
