<?xml version="1.0" encoding="UTF-8" standalone="no"?>
<!-- Created with Inkscape (http://www.inkscape.org/) -->

<svg
   xmlns:dc="http://purl.org/dc/elements/1.1/"
   xmlns:cc="http://creativecommons.org/ns#"
   xmlns:rdf="http://www.w3.org/1999/02/22-rdf-syntax-ns#"
   xmlns:svg="http://www.w3.org/2000/svg"
   xmlns="http://www.w3.org/2000/svg"
   xmlns:xlink="http://www.w3.org/1999/xlink"
   version="1.1"
   width="1243"
   height="1243"
   viewBox="0 0 361.314 361.314"
   id="svg3235"
   xml:space="preserve"
   style="fill-rule:evenodd"><metadata
   id="metadata3425"><rdf:RDF><cc:Work
       rdf:about=""><dc:format>image/svg+xml</dc:format><dc:type
         rdf:resource="http://purl.org/dc/dcmitype/StillImage" /><dc:title></dc:title>
        <cc:license
           rdf:resource="http://www.gnu.org/licenses/gpl-3.0.html" />
        <dc:creator>
          <cc:Agent>
            <dc:title>Abhash Bikram Thapa</dc:title>
          </cc:Agent>
        </dc:creator>
        <dc:description>http://pixelpinch.com</dc:description>
</cc:Work></rdf:RDF></metadata>
 <defs
   id="defs3237">
  <style
   type="text/css"
   id="style3239" />
   <clipPath
   id="id0">
    <path
   d="m 290.535,9.82443 -219.754,0 c -33.5278,0 -60.9569,27.429 -60.9569,60.9541 l 0,219.754 c 0,33.5278 27.429,60.9569 60.9569,60.9569 l 219.754,0 c 33.5251,0 60.9541,-27.429 60.9541,-60.9569 l 0,-219.754 c 0,-33.5251 -27.429,-60.9541 -60.9541,-60.9541 z"
   id="path3242" />
   </clipPath>
  <linearGradient
   x1="101.499"
   y1="186.427"
   x2="99.588501"
   y2="167.22"
   id="id1"
   gradientUnits="userSpaceOnUse">
   <stop
   id="stop3245"
   style="stop-color:#000000;stop-opacity:1"
   offset="0" />
   <stop
   id="stop3247"
   style="stop-color:#1a1a1a;stop-opacity:1"
   offset="1" />
  </linearGradient>
  <linearGradient
   x1="98.241302"
   y1="186.06599"
   x2="108.116"
   y2="159.685"
   id="id2"
   gradientUnits="userSpaceOnUse">
   <stop
   id="stop3250"
   style="stop-color:#88ca68;stop-opacity:1"
   offset="0" />
   <stop
   id="stop3252"
   style="stop-color:#61a53e;stop-opacity:1"
   offset="1" />
  </linearGradient>
  <linearGradient
   x1="224.27699"
   y1="181.532"
   x2="225.481"
   y2="162.16901"
   id="id3"
   gradientUnits="userSpaceOnUse">
   <stop
   id="stop3255"
   style="stop-color:#000000;stop-opacity:1"
   offset="0" />
   <stop
   id="stop3257"
   style="stop-color:#191919;stop-opacity:1"
   offset="1" />
  </linearGradient>
  <linearGradient
   x1="221.38499"
   y1="180.146"
   x2="234.843"
   y2="156.60699"
   id="id4"
   gradientUnits="userSpaceOnUse">
   <stop
   id="stop3260"
   style="stop-color:#67b8c9;stop-opacity:1"
   offset="0" />
   <stop
   id="stop3262"
   style="stop-color:#3e94a4;stop-opacity:1"
   offset="1" />
  </linearGradient>
  <linearGradient
   x1="153.022"
   y1="178.591"
   x2="137.778"
   y2="155.494"
   id="id5"
   xlink:href="#id2"
   gradientUnits="userSpaceOnUse">
  </linearGradient>
  <linearGradient
   x1="269.51001"
   y1="182.287"
   x2="270.25"
   y2="166.248"
   id="id6"
   xlink:href="#id3"
   gradientUnits="userSpaceOnUse">
  </linearGradient>
  <linearGradient
   x1="276.18799"
   y1="181.561"
   x2="265.258"
   y2="157.23"
   id="id7"
   xlink:href="#id4"
   gradientUnits="userSpaceOnUse">
  </linearGradient>
  <linearGradient
   x1="246.492"
   y1="222.463"
   x2="246.86"
   y2="215.778"
   id="id8"
   xlink:href="#id4"
   gradientUnits="userSpaceOnUse">
  </linearGradient>
  <linearGradient
   x1="247.492"
   y1="204.83701"
   x2="247.08"
   y2="212.341"
   id="id9"
   xlink:href="#id4"
   gradientUnits="userSpaceOnUse">
  </linearGradient>
  <linearGradient
   x1="146.23801"
   y1="179.67599"
   x2="144.46001"
   y2="164.29601"
   id="id10"
   xlink:href="#id1"
   gradientUnits="userSpaceOnUse">
  </linearGradient>
  <linearGradient
   x1="129.994"
   y1="223.259"
   x2="129.295"
   y2="216.70599"
   id="id11"
   xlink:href="#id2"
   gradientUnits="userSpaceOnUse">
  </linearGradient>
  <linearGradient
   x1="307.84399"
   y1="133.86099"
   x2="271.091"
   y2="132.375"
   id="id12"
   gradientUnits="userSpaceOnUse">
   <stop
   id="stop3272"
   style="stop-color:#93ccd9;stop-opacity:1"
   offset="0" />
   <stop
   id="stop3274"
   style="stop-color:#67b8c9;stop-opacity:1"
   offset="1" />
  </linearGradient>
  <linearGradient
   x1="219.84399"
   y1="309.79199"
   x2="260.302"
   y2="295.76999"
   id="id13"
   gradientUnits="userSpaceOnUse">
   <stop
   id="stop3277"
   style="stop-color:#67b8c9;stop-opacity:1"
   offset="0" />
   <stop
   id="stop3279"
   style="stop-color:#7dc1d1;stop-opacity:1"
   offset="1" />
  </linearGradient>
  <linearGradient
   x1="100.127"
   y1="309.79199"
   x2="140.58501"
   y2="295.76999"
   id="id14"
   gradientUnits="userSpaceOnUse">
   <stop
   id="stop3282"
   style="stop-color:#88ca68;stop-opacity:1"
   offset="0" />
   <stop
   id="stop3284"
   style="stop-color:#98d27e;stop-opacity:1"
   offset="1" />
  </linearGradient>
  <linearGradient
   x1="128.14"
   y1="205.584"
   x2="128.97301"
   y2="213.395"
   id="id15"
   xlink:href="#id2"
   gradientUnits="userSpaceOnUse">
  </linearGradient>
  <linearGradient
   x1="231.69701"
   y1="274.939"
   x2="234.714"
   y2="294.19"
   id="id16"
   gradientUnits="userSpaceOnUse">
   <stop
   id="stop3288"
   style="stop-color:#2d5967;stop-opacity:1"
   offset="0" />
   <stop
   id="stop3290"
   style="stop-color:#67b8c9;stop-opacity:1"
   offset="1" />
  </linearGradient>
  <linearGradient
   x1="111.979"
   y1="274.939"
   x2="114.997"
   y2="294.19"
   id="id17"
   gradientUnits="userSpaceOnUse">
   <stop
   id="stop3293"
   style="stop-color:#3c682d;stop-opacity:1"
   offset="0" />
   <stop
   id="stop3295"
   style="stop-color:#88ca68;stop-opacity:1"
   offset="1" />
  </linearGradient>
  <linearGradient
   x1="165.50101"
   y1="127.807"
   x2="127.317"
   y2="132.44099"
   id="id18"
   gradientUnits="userSpaceOnUse">
   <stop
   id="stop3298"
   style="stop-color:#aada94;stop-opacity:1"
   offset="0" />
   <stop
   id="stop3300"
   style="stop-color:#88ca68;stop-opacity:1"
   offset="1" />
  </linearGradient>
  <linearGradient
   x1="207.33"
   y1="335.50699"
   x2="195.996"
   y2="330.44101"
   id="id19"
   gradientUnits="userSpaceOnUse">
   <stop
   id="stop3303"
   style="stop-color:#5baebf;stop-opacity:1"
   offset="0" />
   <stop
   id="stop3305"
   style="stop-color:#3a8c9c;stop-opacity:1"
   offset="1" />
  </linearGradient>
  <linearGradient
   x1="264.862"
   y1="161.342"
   x2="295.66901"
   y2="162.351"
   id="id20"
   xlink:href="#id13"
   gradientUnits="userSpaceOnUse">
  </linearGradient>
  <linearGradient
   x1="125.808"
   y1="162.03999"
   x2="158.067"
   y2="157.87399"
   id="id21"
   xlink:href="#id14"
   gradientUnits="userSpaceOnUse">
  </linearGradient>
  <radialGradient
   cx="180.657"
   cy="180.657"
   r="180.657"
   fx="180.657"
   fy="180.657"
   id="id22"
   gradientUnits="userSpaceOnUse">
   <stop
   id="stop3310"
   style="stop-color:#000000;stop-opacity:1"
   offset="0" />
   <stop
   id="stop3312"
   style="stop-color:#313131;stop-opacity:1"
   offset="0.70196098" />
   <stop
   id="stop3314"
   style="stop-color:#626262;stop-opacity:1"
   offset="1" />
  </radialGradient>
  <radialGradient
   cx="180.657"
   cy="180.657"
   r="157.166"
   fx="180.657"
   fy="180.657"
   id="id23"
   gradientUnits="userSpaceOnUse">
   <stop
   id="stop3317"
   style="stop-color:#ffff66;stop-opacity:1"
   offset="0" />
   <stop
   id="stop3319"
   style="stop-color:#cccc33;stop-opacity:1"
   offset="0.321569" />
   <stop
   id="stop3321"
   style="stop-color:#949426;stop-opacity:1"
   offset="0.61960799" />
   <stop
   id="stop3323"
   style="stop-color:#333300;stop-opacity:1"
   offset="1" />
  </radialGradient>
 </defs>
 <g
   id="Layer_x0020_1">
  <metadata
   id="CorelCorpID_0Corel-Layer" />
  <path
   d="m 290.535,9.82443 -219.754,0 c -33.5278,0 -60.9569,27.429 -60.9569,60.9541 l 0,219.754 c 0,33.5278 27.429,60.9569 60.9569,60.9569 l 219.754,0 c 33.5251,0 60.9541,-27.429 60.9541,-60.9569 l 0,-219.754 c 0,-33.5251 -27.429,-60.9541 -60.9541,-60.9541 z"
   id="path3327"
   style="fill:url(#id23)" />
  <g
   clip-path="url(#id0)"
   id="g3329">
   <g
   id="_313974544">
    <g
   id="g3332">
     <g
   id="g3334">
      <path
   d="m 176.03,351.489 c 0,0 33.3943,-52.1443 51.7409,-56.7918 2.21903,-0.5648 4.00236,-0.63484 6.71065,-2.05766 2.45079,-3.86948 4.63171,-3.41627 2.82915,-20.992 -1.80255,-17.5758 17.2372,-8.40299 17.2372,-8.40299 0,0 0.32137,19.8229 6.44181,27.5557 2.70555,0.67192 7.9563,1.82212 10.0672,2.75705 22.831,10.1122 33.0595,57.9317 33.0595,57.9317 l -15.1057,0 c 0.15141,0 -9.87628,-34.8837 -18.2793,-35.7163 -0.22695,17.9414 1.83002,23.3594 2.46109,35.7163 l -50.4179,0 c 0,0 -0.68154,-16.4805 -0.22729,-24.2019 0.45424,-7.72145 -22.2569,10.1358 -25.6632,24.2019 -11.5824,0 -20.854,0 -20.854,0 z"
   id="_2176541761"
   style="fill:url(#id13)" />
      <path
   d="m 293.081,351.489 -4.07034,0 c 0,0 -9.11921,-32.688 -18.2793,-35.7163 -0.22695,17.9414 1.83002,23.3594 2.46109,35.7163 l -5.7074,0 c -0.83604,-11.7338 -0.85767,-31.3953 0.09,-38.2955 0.94762,-6.90018 14.2151,-2.38315 25.506,38.2955 z"
   id="_217517864"
   style="fill:#5baebf" />
      <path
   d="m 203.038,315.056 c 8.64677,-9.99473 17.7725,-18.5955 24.7328,-20.3586 2.21903,-0.5648 4.00236,-0.63484 6.71065,-2.05766 2.45079,-3.86948 4.63171,-3.41627 2.82915,-20.992 -1.80255,-17.5758 17.2372,-8.40299 17.2372,-8.40299 0,0 -1.11449,17.6132 5.00595,25.346 0.34952,0.73819 1.68479,2.7337 3.81867,2.881 -2.93868,2.83602 -3.32906,2.56546 -12.1853,4.64922 -8.85621,2.08375 -32.6873,6.0916 -41.0615,13.263 -2.00101,1.71363 -4.47789,3.67652 -7.08764,5.67204 z"
   id="_303995816"
   style="fill:url(#id16)" />
      <path
   d="m 176.03,351.489 c 0,0 33.3943,-52.1443 51.7409,-56.7918 2.21903,-0.5648 4.00236,-0.63484 6.71065,-2.05766 2.45079,-3.86948 4.63171,-3.41627 2.82915,-20.992 -0.9387,-9.15285 3.77506,-11.0505 8.5084,-10.7683 -4.10158,0.26712 -8.95303,-0.0687 -7.63802,12.7556 1.31501,12.8242 -0.43536,15.1919 -2.88615,19.0614 -2.70829,1.42282 -3.63979,1.43621 -5.85882,2.00101 -18.3466,4.6475 -51.7409,56.7918 -51.7409,56.7918 l -1.66522,0 z"
   id="_303693904"
   style="fill:#74e9f0" />
      <path
   d="m 225.606,351.489 -2.83121,0 c 0,0 -0.68154,-16.4805 -0.22729,-24.2019 0.45424,-7.72145 -22.2569,10.1358 -25.6632,24.2019 l -10.4304,0 c -4.94071,0 -10.1379,0.83295 -8.33226,-3.18451 0.96411,-2.14452 4.4281,-6.61692 4.59497,-6.89331 0.29596,-0.48926 0.99569,7.18309 7.52575,9.6325 9.54324,-15.1353 29.416,-37.4186 32.926,-30.1717 3.84236,7.93295 1.692,15.2997 2.43774,30.617 z"
   id="_303996152"
   style="fill:url(#id19)" />
      <g
   id="g3341">
       <path
   d="m 259.297,41.1751 3.4e-4,0 c 29.2889,1.18454 52.2833,26.1175 51.0988,55.4064 -1.76307,43.5909 -9.06667,81.8057 -5.28886,130.773 -1.18728,29.3514 -26.1477,52.2823 -55.4806,51.0961 -29.2893,-1.18488 -52.2099,-26.1147 -51.0253,-55.4036 6.39615,-47.8638 5.72045,-89.2055 5.28921,-130.772 1.18454,-29.2893 26.1171,-52.2837 55.4064,-51.0991 z"
   id="_304001912"
   style="fill:url(#id20)" />
       <path
   d="m 259.294,41.1751 -3.4e-4,0 c -4.11635,-0.166522 -8.14686,0.144548 -12.0369,0.883423 42.7353,-7.83785 50.2064,28.7859 49.1884,53.9589 -1.63226,17.843897 -3.30674,35.643197 -4.48201,53.982197 -0.99227,15.4772 -3.51584,12.9245 3.64253,27.9011 2.40512,5.03204 0.92805,26.9429 0.8405,30.3186 -0.45321,17.5737 -4.38415,21.2784 -4.78758,25.6972 -0.21184,2.32375 0.19811,4.75462 0.26747,5.6789 -1.01836,25.1777 -24.1899,38.3803 -54.0989,37.0097 32.7787,8.99354 65.889,-14.9399 67.2768,-49.2509 -2.50984,-48.2243 1.50213,-89.3761 5.28886,-130.772997 1.18454,-29.2889 -21.8099,-54.2219 -51.0988,-55.4064 z"
   id="_304000712"
   style="fill:url(#id12)" />
       <path
   d="m 259.297,41.1751 3.4e-4,0 c 4.116,0.166522 8.10806,0.802051 11.926,1.85268 -23.7917,4.51943 -42.3518,25.0425 -43.3701,50.2154 0.1861,17.9177 0.41785,35.7939 0.10816,54.1679 -0.2606,15.5068 -7.55459,12.7611 -15.8989,27.1108 -2.80409,4.82157 -3.10074,26.7801 -3.28649,30.1517 -0.9672,17.5534 6.48164,22.3991 6.52696,26.8364 0.0237,2.33336 -0.58128,4.72338 -0.72515,5.63873 -1.01801,25.1777 17.1813,39.3719 47.1033,40.4212 -33.3981,6.31684 -64.4672,-20.2123 -63.0798,-54.5233 6.39615,-47.8638 5.72045,-89.2055 5.28921,-130.772 1.18454,-29.2893 26.1171,-52.2837 55.4064,-51.0991 z"
   id="_304000352"
   style="fill:#5baebf" />
       <g
   id="g3346">
        <path
   d="m 294.1,157.912 c -8.15784,-4.8281 -41.3094,-9.62083 -43.5689,24.4375 -1.60582,24.1999 41.1027,14.1825 43.5689,-24.4375 z"
   id="_300335592"
   style="fill:url(#id7)" />
        <path
   d="m 293.769,159.947 c -7.87459,-3.0822 -36.344,2.37422 -41.2987,22.9501 -4.93453,20.4907 35.9086,9.42169 41.2987,-22.9501 z"
   id="_303996752"
   style="fill:url(#id6)" />
        <path
   d="m 274.015,163.684 c -2.6592,0.84874 -11.4316,5.51272 -11.9621,8.20969 -0.52806,2.68632 11.8924,-4.31617 11.9621,-8.20969 z"
   id="_303999032"
   style="fill:#c1ffff" />
        <g
   id="g3351">
         <path
   d="m 206.061,155.807 c 8.66702,-4.4257 42.2584,-7.62257 40.7679,26.4546 -1.05887,24.2126 -42.5537,12.1815 -40.7679,-26.4546 z"
   id="_302820048"
   style="fill:url(#id4)" />
         <path
   d="m 206.167,157.852 c 8.19287,-2.69799 35.9872,4.10364 38.667,24.8622 2.66915,20.6727 -36.8497,7.68197 -38.667,-24.8622 z"
   id="_303998480"
   style="fill:url(#id3)" />
         <path
   d="m 225.458,162.523 c 2.55928,0.97372 10.7958,6.04456 11.0282,8.76007 0.23176,2.70417 -11.3863,-4.87308 -11.0282,-8.76007 z"
   id="_304001144"
   style="fill:#c1ffff" />
        </g>
       </g>
       <path
   d="m 268.388,42.3346 c -12.5489,0.32343 -26.3272,1.76067 -42.4513,17.6808 -17.4655,17.2437 -17.996,42.2254 -19.0343,74.2518 -1.03827,32.0264 -1.77646,23.6567 -3.32563,28.331 0.86832,-24.1456 0.55313,-47.2005 0.31347,-70.324 1.18454,-29.2893 26.1171,-52.2837 55.4064,-51.0991 l 3.5e-4,0 c 3.10863,0.125664 6.14551,0.521882 9.09105,1.15947 z"
   id="_303994712"
   style="fill:#4193a3" />
       <g
   id="g3357">
        <path
   d="m 273.897,212.935 c 8.52419,0.20395 9.15423,-5.8959 9.15423,-5.8959 -0.47313,0.0821 3.4482,-5.67341 -35.8588,-6.79992 -39.307,-1.12651 -35.5196,5.09316 -35.5196,5.09316 0,0 -0.0422,6.11358 8.48196,6.31752 25.3309,0.60566 28.4113,0.67948 53.7422,1.28514 z"
   id="_303997880"
   style="fill:url(#id9)" />
        <path
   d="m 211.707,204.712 c 0,0 -0.0422,6.11358 8.48196,6.31752 8.52454,0.20395 35.4955,0.84874 35.4955,0.84874 m 27.4009,-5.45951 c 0,0 -0.62969,6.09984 -9.15388,5.89591 -8.52454,-0.20361 -35.4955,-0.84875 -35.4955,-0.84875"
   id="_304002224"
   style="fill:none" />
        <path
   d="m 220.223,210.409 18.2865,0.94934 17.2489,0.41236 18.2068,-0.0762 c 5.88285,0.0192 7.46223,-1.39775 9.65757,-5.21367 -0.002,0.0185 -0.69424,6.67082 -9.72589,6.45486 -6.11186,0.39793 -12.2244,0.79553 -18.3363,1.19312 -5.61916,0.89544 -11.3647,0.77973 -17.2489,-0.41236 l -18.157,-2.0659 c -9.03165,-0.21596 -8.95062,-6.37108 -8.95097,-6.38997 1.23878,3.56768 2.51671,4.93625 9.01929,5.14844 z"
   id="_303998672"
   style="fill:#222f47;fill-rule:nonzero" />
        <path
   d="m 258.714,217.357 c 3.79086,0.0906 3.58554,6.20079 3.58554,6.20079 -0.20292,-0.0985 -10.1019,3.9512 -16.3342,3.98828 -6.23203,0.0374 -15.4113,-4.74776 -15.4113,-4.74776 0,0 0.4666,-6.10362 4.2578,-6.01298 11.2661,0.26952 12.6361,0.30249 23.9022,0.57167 z"
   id="_304002176"
   style="fill:url(#id8)" />
       </g>
       <g
   id="g3363">
        <g
   id="g3365">
         <path
   d="m 254.132,196.157 c -0.96514,-0.37768 -4.4542,0.29116 -5.06157,2.81267 -0.60463,2.51122 4.40098,1.15466 5.06157,-2.81267 z"
   id="_303994640"
   style="fill:#3e94a4" />
         <path
   d="m 251.998,197.247 c 0.22146,-1.44136 -2.61903,0.3248 -2.81679,1.82727 -0.28978,2.19946 2.59499,-0.38592 2.81679,-1.82727 z"
   id="_304000400"
   style="fill:#367c8b" />
        </g>
        <g
   id="g3369">
         <path
   d="m 241.643,195.859 c 1.00394,-0.33064 4.41025,0.503 4.73883,3.04717 0.32721,2.53353 -4.516,0.94145 -4.73883,-3.04717 z"
   id="_304001264"
   style="fill:#3e94a4" />
         <path
   d="m 243.652,197.047 c -0.0625,-1.44822 2.57611,0.44909 2.60838,1.95706 0.0474,2.20736 -2.54589,-0.50884 -2.60838,-1.95706 z"
   id="_303999344"
   style="fill:#367c8b" />
        </g>
       </g>
       <path
   d="m 304.991,225.789 c 0.0374,0.52085 0.0752,1.0417 0.11571,1.5653 -1.18728,29.3514 -26.1477,52.2823 -55.4806,51.0961 -29.2893,-1.18488 -52.2099,-26.1147 -51.0253,-55.4036 0.0786,-0.58746 0.15553,-1.17355 0.23175,-1.75929 1.01424,27.4623 22.9748,54.068 50.8729,55.1963 27.8723,1.1272 51.9534,-23.4545 55.2855,-50.6947 z"
   id="_303996416"
   style="fill:#3e94a4" />
       <path
   d="m 261.024,41.2764 c -30.5445,-1.10797 -54.7455,22.3369 -55.9066,51.0473 0.43124,41.5672 1.79294,82.9364 -4.60286,130.801 -1.16119,28.7111 18.681,54.9611 50.8437,55.3645 -30.0065,-0.24686 -53.9698,-25.4679 -52.7575,-55.4421 6.39615,-47.8638 5.72045,-89.2055 5.28921,-130.772 1.21338,-30.0062 27.2453,-53.1736 57.1341,-50.9979 z"
   id="_303998912"
   style="fill:#74e9f0" />
      </g>
      <path
   d="m 223.976,351.489 -1.2017,0 c 0,0 -0.49819,-19.8731 -0.22729,-24.2019 0.0371,-0.59605 0.44909,1.77131 0.62729,6.38585 0.0549,1.42968 -0.59948,8.26497 0.8017,17.8161 z"
   id="_303996800"
   style="fill:#74e9f0" />
     </g>
     <g
   id="g3376">
      <path
   d="m 56.3128,351.489 c 0,0 33.3943,-52.1443 51.7409,-56.7918 2.21903,-0.5648 4.00236,-0.63484 6.71065,-2.05766 2.45079,-3.86948 4.63171,-3.41627 2.82915,-20.992 -1.80255,-17.5758 17.2372,-8.40299 17.2372,-8.40299 0,0 0.32137,19.8229 6.44181,27.5557 2.70555,0.67192 7.9563,1.82212 10.0672,2.75705 22.831,10.1122 33.0595,57.9317 33.0595,57.9317 l -15.1057,0 c 0.15141,0 -9.87628,-34.8837 -18.2793,-35.7163 -0.22695,17.9414 1.83002,23.3594 2.46109,35.7163 l -50.4179,0 c 0,0 -0.68154,-16.4805 -0.22729,-24.2019 0.45424,-7.72145 -22.256903,10.1358 -25.663203,24.2019 -11.5824,0 -20.854,0 -20.854,0 z"
   id="_303963624"
   style="fill:url(#id14)" />
      <path
   d="m 173.364,351.489 -4.07034,0 c 0,0 -9.11921,-32.688 -18.2793,-35.7163 -0.22695,17.9414 1.83002,23.3594 2.46109,35.7163 l -5.7074,0 c -0.83604,-11.7338 -0.85767,-31.3953 0.09,-38.2955 0.94762,-6.90018 14.2151,-2.38315 25.506,38.2955 z"
   id="_303994952"
   style="fill:#7dc05c" />
      <path
   d="m 105.889,351.489 -2.83121,0 c 0,0 -0.68154,-16.4805 -0.22729,-24.2019 0.45424,-7.72145 -22.256903,10.1358 -25.663203,24.2019 l -6.49228,0 c 8.64265,-15.5748 28.9332,-38.5506 32.776303,-30.617 3.84305,7.93364 1.692,15.2997 2.43774,30.617 z"
   id="_304469952"
   style="fill:#7dc05c" />
      <path
   d="m 83.3209,315.056 c 8.64677,-9.99473 17.7725,-18.5955 24.7328,-20.3586 2.21903,-0.5648 4.00236,-0.63484 6.71065,-2.05766 2.45079,-3.86948 4.63171,-3.41627 2.82915,-20.992 -1.80255,-17.5758 17.2372,-8.40299 17.2372,-8.40299 0,0 -1.11449,17.6132 5.00595,25.346 0.34952,0.73819 1.68479,2.7337 3.81867,2.881 -2.93868,2.83602 -3.32906,2.56546 -12.1853,4.64922 -8.85621,2.08375 -32.6873,6.0916 -41.0615,13.263 -2.00101,1.71363 -4.47789,3.67652 -7.08764,5.67204 z"
   id="_304472856"
   style="fill:url(#id17)" />
      <path
   d="m 56.3128,351.489 c 0,0 33.3943,-52.1443 51.7409,-56.7918 2.21903,-0.5648 4.00236,-0.63484 6.71065,-2.05766 2.45079,-3.86948 4.63171,-3.41627 2.82915,-20.992 -0.9387,-9.15285 3.77506,-11.0505 8.5084,-10.7683 -4.10158,0.26712 -8.95303,-0.0687 -7.63802,12.7556 1.31501,12.8242 -0.43536,15.1919 -2.88615,19.0614 -2.70829,1.42282 -3.63979,1.43621 -5.85882,2.00101 -18.3466,4.6475 -51.7409,56.7918 -51.7409,56.7918 l -1.66522,0 z m 47.9462,0 -1.2017,0 c 0,0 -0.49819,-19.8731 -0.22729,-24.2019 0.0371,-0.59605 0.44909,1.77131 0.62729,6.38585 0.0549,1.42968 -0.59948,8.26497 0.8017,17.8161 z"
   id="_304469592"
   style="fill:#74e9f0" />
      <path
   d="m 101.871,44.2158 3.4e-4,0 c 29.0994,-3.53163 55.7978,17.3873 59.3294,46.4867 5.25625,43.3087 4.18124,82.2002 15.7691,129.926 3.53919,29.1615 -17.4171,55.8009 -46.5601,59.3384 -29.0994,3.53163 -55.723997,-17.3962 -59.255997,-46.4956 -1.36925,-48.27 -8.67149,-88.9672 -15.7691,-129.926 -3.53198,-29.0994 17.3873,-55.7975 46.486297,-59.3294 z"
   id="_304150616"
   style="fill:url(#id21)" />
      <path
   d="m 101.869,44.2165 -3.4e-4,0 c -4.089573,0.496132 -8.018103,1.45028 -11.738903,2.80374 40.923103,-14.5952 54.175803,20.3544 57.211003,45.3643 1.2532,17.8748 2.45731,35.7115 4.24064,54.0018 1.50488,15.4357 -1.39604,13.321 8.07338,26.9549 3.18177,4.58089 5.24045,26.4447 5.69607,29.7909 2.37319,17.4185 -0.91227,21.7058 -0.6012,26.1322 0.16412,2.32787 0.95896,4.66123 1.17527,5.56217 3.03619,25.015 -17.7158,41.7653 -47.457,45.2132 33.7974,3.61575 62.6365,-25.3216 58.4992,-59.4108 -10.2172,-47.196 -12.8623,-88.4587 -15.7691,-129.926 -3.53163,-29.0994 -30.2297,-50.0183 -59.3291,-46.4863 z"
   id="_304151888"
   style="fill:url(#id18)" />
      <path
   d="m 101.872,44.2158 3.4e-4,0 c 4.08922,-0.496132 8.13175,-0.509522 12.0689,-0.08549 -22.757797,8.27939 -37.783597,31.5155 -34.748097,56.525303 3.05953,17.6554 6.15718,35.2628 8.80093,53.4483 2.23139,15.3475 -5.40835,13.8082 -11.3417,29.3112 -1.99345,5.20921 1.2381,26.9305 1.59552,30.2881 1.86264,17.4813 9.99302,21.0686 10.7497,25.4411 0.398279,2.29937 0.184376,4.75531 0.189526,5.68199 3.03619,25.0146 23.277701,36.1036 52.980301,32.3368 -31.9512,11.5957 -66.875801,-9.60298 -71.013101,-43.6918 -1.36925,-48.27 -8.67149,-88.9672 -15.7691,-129.926 -3.53163,-29.099403 17.3873,-55.797503 46.486701,-59.329403 z"
   id="_304152752"
   style="fill:#7dc05c" />
      <g
   id="g3386">
       <path
   d="m 166.63,151.955 c -8.82668,-3.4561 -42.3178,-2.86555 -39.0814,31.1141 2.29937,24.1436 42.8458,7.40111 39.0814,-31.1141 z"
   id="_304147496"
   style="fill:url(#id5)" />
       <path
   d="m 166.63,154.017 c -8.26703,-1.77818 -35.4914,8.17638 -37.0797,29.281 -1.58213,21.0171 36.9554,3.5361 37.0797,-29.281 z"
   id="_304153904"
   style="fill:url(#id10)" />
       <path
   d="m 147.732,160.876 c -2.4889,1.26488 -10.3988,7.27614 -10.4895,10.0236 -0.0903,2.73611 11.0454,-6.1692 10.4895,-10.0236 z"
   id="_304147928"
   style="fill:#c1ffff" />
       <g
   id="g3391">
        <path
   d="m 79.3944,164.008 c 7.84437,-5.75959 40.4867,-14.3064 44.4857,19.5678 2.84083,24.0694 -40.0473,18.854 -44.4857,-19.5678 z"
   id="_304148096"
   style="fill:url(#id2)" />
        <path
   d="m 79.8274,166.01 c 7.65382,-3.97798 36.1795,-1.7253 42.1568,18.3339 5.95255,19.9761 -35.1395,13.4965 -42.1568,-18.3339 z"
   id="_304147592"
   style="fill:url(#id1)" />
        <path
   d="m 99.6184,167.524 c 2.6822,0.55038 11.626,4.23343 12.2914,6.87614 0.66265,2.63207 -12.0211,-2.98228 -12.2914,-6.87614 z"
   id="_304148288"
   style="fill:#c1ffff" />
       </g>
      </g>
      <path
   d="m 111.031,43.9009 c -12.3343,2.33336 -25.7034,5.96388 -39.0632,24.2651 -14.4716,19.8236 -10.9853,44.5667 -6.86996,76.3445 4.11566,31.7778 2.04358,23.6351 1.26488,28.4972 -3.01868,-23.9719 -7.02962,-46.6772 -10.9781,-69.4625 -3.53163,-29.0994 17.3873,-55.7975 46.4867,-59.3294 l 3.4e-4,0 c 3.08872,-0.374931 6.14963,-0.471411 9.15938,-0.314846 z"
   id="_304152536"
   style="fill:#3c682d" />
      <g
   id="g3397">
       <path
   d="m 155.521,209.508 c 8.44591,-1.16702 8.08883,-7.2885 8.08883,-7.2885 -0.45356,0.15656 2.49302,-6.15375 -36.4851,-0.95656 -38.9781,5.19686 -34.2417,10.72811 -34.2417,10.72811 0,0 0.939731,6.04147 9.38633,4.87444 25.0991,-3.46777 28.1511,-3.88973 53.2516,-7.3575 z"
   id="_304151288"
   style="fill:url(#id15)" />
       <path
   d="m 92.8175,211.373 c 0,0 0.939045,6.04147 9.3853,4.87445 8.4466,-1.16668 35.1718,-4.859 35.1718,-4.859 m 26.1693,-9.78701 c 0,0 0.35708,6.12182 -8.08918,7.28884 -8.4466,1.16737 -35.1718,4.85934 -35.1718,4.85934"
   id="_304149176"
   style="fill:none" />
       <path
   d="m 102.137,215.629 18.2017,-1.99826 17.0913,-2.36117 17.9586,-2.99773 c 5.80972,-0.92497 7.1412,-2.57714 8.69552,-6.69623 6.9e-4,0.0185 0.38557,6.69589 -8.56368,7.93227 -5.96903,1.37372 -11.9381,2.74709 -17.9071,4.12081 -5.40217,1.78573 -11.0921,2.59362 -17.0913,2.36152 l -18.2532,0.87484 c -8.94925,1.23672 -9.8574,-4.85179 -9.86049,-4.87033 1.79534,3.32254 3.27618,4.46827 9.72864,3.63429 z"
   id="_304153232"
   style="fill:#224827;fill-rule:nonzero" />
       <path
   d="m 141.245,216.31 c 3.75584,-0.51914 4.53385,5.54466 4.53385,5.54466 -0.21596,-0.0642 -9.33689,5.52131 -15.4827,6.55855 -6.14482,1.03724 -15.973,-2.21251 -15.973,-2.21251 0,0 -0.51914,-6.0995 3.23773,-6.61829 11.1631,-1.54264 12.5207,-1.73011 23.6842,-3.27241 z"
   id="_304151816"
   style="fill:url(#id11)" />
      </g>
      <g
   id="g3403">
       <g
   id="g3405">
        <path
   d="m 133.319,196.12 c -1.01321,-0.21768 -4.34948,1.00222 -4.54415,3.58863 -0.19399,2.57576 4.52905,0.4333 4.54415,-3.58863 z"
   id="_304148936"
   style="fill:#61a53e" />
        <path
   d="m 131.387,197.538 c -0.0127,-1.45818 -2.53285,0.74094 -2.48684,2.25577 0.0669,2.21731 2.4992,-0.79759 2.48684,-2.25577 z"
   id="_304154744"
   style="fill:#528c36" />
       </g>
       <g
   id="g3409">
        <path
   d="m 120.943,197.83 c 0.93801,-0.48755 4.43394,-0.2115 5.16663,2.24684 0.72961,2.44838 -4.30656,1.65423 -5.16663,-2.24684 z"
   id="_304150040"
   style="fill:#61a53e" />
        <path
   d="m 123.118,198.681 c -0.29425,-1.41938 2.6149,0.0299 2.88889,1.51277 0.40068,2.1713 -2.59465,-0.0934 -2.88889,-1.51277 z"
   id="_213940192"
   style="fill:#528c36" />
       </g>
      </g>
      <path
   d="m 176.605,219.102 c 0.12086,0.50815 0.24171,1.01595 0.36532,1.52651 3.53953,29.1615 -17.4171,55.8012 -46.5601,59.3384 -29.0994,3.53163 -55.724302,-17.3962 -59.256002,-46.4956 -0.01682,-0.59261 -0.03502,-1.18351 -0.05391,-1.77371 5.40904,26.9435 31.355197,49.6794 59.072997,46.3153 27.6917,-3.36065 47.515,-31.4891 46.4317,-58.9109 z"
   id="_304149704"
   style="fill:#61a53e" />
      <path
   d="m 103.593,44.0383 c -30.3265,3.80905 -50.4506,30.8347 -46.9886,59.359 7.0976,40.9588 15.0814,81.5733 16.4506,129.843 3.46228,28.5253 27.2605,51.2502 59.0709,46.4863 -29.657,4.57265 -57.3576,-16.4753 -60.972,-46.2556 C 69.78465,185.201 62.48241,144.5038 55.3848,103.545 51.76665,73.7332 73.7424,46.688 103.593,44.0381 z"
   id="_304151432"
   style="fill:#74e9f0" />
     </g>
    </g>
   </g>
  </g>
  <path
   d="m 290.535,9.82443 -219.754,0 c -33.5278,0 -60.9569,27.429 -60.9569,60.9541 l 0,219.754 c 0,33.5278 27.429,60.9569 60.9569,60.9569 l 219.754,0 c 33.5251,0 60.9541,-27.429 60.9541,-60.9569 l 0,-219.754 c 0,-33.5251 -27.429,-60.9541 -60.9541,-60.9541 z"
   id="path3415"
   style="fill:none" />
  <path
   d="m 66.7687,359.043 227.777,0 c 18.1117,0 34.5737,-7.30017 46.5049,-19.0604 11.4897,-11.3248 18.7819,-26.7914 19.3062,-43.8632 l -6.24645,-6.6619 c -0.52051,14.4486 -10.1293,34.1998 -19.8755,43.8069 -10.1894,10.0428 -24.2387,16.2765 -39.6891,16.2765 l -227.777,0 c -15.4505,0 -29.4997,-6.23375 -39.6891,-16.2765 -9.74615,-9.6071 -19.355,-29.3583 -19.8755,-43.8069 l -6.24645,6.6619 c 0.524286,17.0717 7.81656,32.5383 19.3062,43.8632 11.9312,11.7602 28.3931,19.0604 46.5049,19.0604 z"
   id="path3417"
   style="fill:#b3b3b3;fill-rule:nonzero" />
  <path
   d="m 66.7687,1.86607 227.777,0 c 18.1117,0 34.5737,7.30017 46.5049,19.0604 11.4897,11.3248 18.7819,26.7914 19.3062,43.8632 l -6.24645,6.6619 c -0.52051,-14.4486 -10.1293,-34.1998 -19.8755,-43.8069 -10.1894,-10.0428 -24.2387,-16.2765 -39.6891,-16.2765 l -227.777,0 c -15.4505,0 -29.4997,6.23375 -39.6891,16.2765 -9.74615,9.6071 -19.355,29.3583 -19.8755,43.8069 L 0.9577,64.78967 C 1.481986,47.71797 8.77426,32.25137 20.2639,20.92647 32.1951,9.16627 48.657,1.86607 66.7688,1.86607 z"
   id="path3419"
   style="fill:#999999;fill-rule:nonzero" />
  <path
   d="M 296.854,0 64.459,0 C 29.0057,0 -7e-4,29.0064 -7e-4,64.4597 l 0,232.395 c 0,35.4533 29.0064,64.4597 64.4597,64.4597 l 232.395,0 c 35.4533,0 64.46,-29.0064 64.46,-64.4597 l 0,-232.395 C 361.314,29.0064 332.3073,0 296.854,0 z m -6.3189,9.82443 -219.754,0 c -33.5278,0 -60.9569,27.429 -60.9569,60.9541 l 0,219.754 c 0,33.5278 27.429,60.9569 60.9569,60.9569 l 219.754,0 c 33.5251,0 60.9541,-27.429 60.9541,-60.9569 l 0,-219.754 c 0,-33.5251 -27.429,-60.9541 -60.9541,-60.9541 z"
   id="path3421"
   style="fill:url(#id22)" />
 </g>
</svg>