<?xml version="1.0" encoding="UTF-8"?>
<!DOCTYPE svg PUBLIC "-//W3C//DTD SVG 1.1//EN" "http://www.w3.org/Graphics/SVG/1.1/DTD/svg11.dtd">
<!-- Creator: CorelDRAW -->
<svg xmlns="http://www.w3.org/2000/svg" xml:space="preserve" width="1243px" height="1243px" style="shape-rendering:geometricPrecision; text-rendering:geometricPrecision; image-rendering:optimizeQuality; fill-rule:evenodd; clip-rule:evenodd"
viewBox="0 0 361.314 361.314"
 xmlns:xlink="http://www.w3.org/1999/xlink">
  <metadata
     id="metadata3960">
    <rdf:RDF>
      <cc:Work
         rdf:about="">
        <dc:format>image/svg+xml</dc:format>
        <dc:type
           rdf:resource="http://purl.org/dc/dcmitype/StillImage" />
        <dc:title></dc:title>
        <cc:license
           rdf:resource="http://www.gnu.org/licenses/gpl-3.0.html" />
        <dc:creator>
          <cc:Agent>
            <dc:title>Abhash Bikram Thapa</dc:title>
          </cc:Agent>
        </dc:creator>
        <dc:description>http://pixelpinch.com</dc:description>
      </cc:Work>
    </rdf:RDF>
  </metadata>
 <defs>
  <style type="text/css">
   <![CDATA[
    .fil15 {fill:none}
    .fil32 {fill:#366A2A}
    .fil37 {fill:#4B8E33}
    .fil19 {fill:#4E8A36}
    .fil36 {fill:#58A73B}
    .fil18 {fill:#5DA33E}
    .fil13 {fill:#5EA240}
    .fil24 {fill:#72E1F0}
    .fil22 {fill:#74C358}
    .fil2 {fill:#78BF5A}
    .fil4 {fill:#A6F073}
    .fil29 {fill:#C0FAFF}
    .fil10 {fill:#DDFFC0}
    .fil20 {fill:#FFFFCC}
    .fil34 {fill:#204928;fill-rule:nonzero}
    .fil16 {fill:#224628;fill-rule:nonzero}
    .fil39 {fill:#999999;fill-rule:nonzero}
    .fil38 {fill:#B3B3B3;fill-rule:nonzero}
    .fil31 {fill:url(#id1)}
    .fil30 {fill:url(#id2)}
    .fil12 {fill:url(#id3)}
    .fil11 {fill:url(#id4)}
    .fil27 {fill:url(#id5)}
    .fil9 {fill:url(#id6)}
    .fil8 {fill:url(#id7)}
    .fil17 {fill:url(#id8)}
    .fil14 {fill:url(#id9)}
    .fil28 {fill:url(#id10)}
    .fil35 {fill:url(#id11)}
    .fil7 {fill:url(#id12)}
    .fil21 {fill:url(#id13)}
    .fil1 {fill:url(#id14)}
    .fil33 {fill:url(#id15)}
    .fil23 {fill:url(#id16)}
    .fil3 {fill:url(#id17)}
    .fil26 {fill:url(#id18)}
    .fil5 {fill:url(#id19)}
    .fil6 {fill:url(#id20)}
    .fil25 {fill:url(#id21)}
    .fil40 {fill:url(#id22)}
    .fil0 {fill:url(#id23)}
   ]]>
  </style>
   <clipPath id="id0">
    <path d="M290.535 9.82443l-219.754 0c-33.5278,0 -60.9569,27.429 -60.9569,60.9541l0 219.754c0,33.5278 27.429,60.9569 60.9569,60.9569l219.754 0c33.5251,0 60.9541,-27.429 60.9541,-60.9569l0 -219.754c0,-33.5251 -27.429,-60.9541 -60.9541,-60.9541z"/>
   </clipPath>
  <linearGradient id="id1" gradientUnits="userSpaceOnUse" x1="101.499" y1="186.427" x2="99.5885" y2="167.22">
   <stop offset="0" style="stop-color:black"/>
   <stop offset="1" style="stop-color:#191919"/>
  </linearGradient>
  <linearGradient id="id2" gradientUnits="userSpaceOnUse" x1="98.2413" y1="186.066" x2="108.116" y2="159.685">
   <stop offset="0" style="stop-color:#80CC65"/>
   <stop offset="1" style="stop-color:#58A73B"/>
  </linearGradient>
  <linearGradient id="id3" gradientUnits="userSpaceOnUse" x1="224.277" y1="181.532" x2="225.481" y2="162.169">
   <stop offset="0" style="stop-color:black"/>
   <stop offset="1" style="stop-color:#181818"/>
  </linearGradient>
  <linearGradient id="id4" gradientUnits="userSpaceOnUse" x1="221.385" y1="180.146" x2="234.843" y2="156.607">
   <stop offset="0" style="stop-color:#83C866"/>
   <stop offset="1" style="stop-color:#5DA33E"/>
  </linearGradient>
  <linearGradient id="id5" gradientUnits="userSpaceOnUse" xlink:href="#id2" x1="153.022" y1="178.59" x2="137.778" y2="155.495">
  </linearGradient>
  <linearGradient id="id6" gradientUnits="userSpaceOnUse" xlink:href="#id3" x1="269.51" y1="182.287" x2="270.25" y2="166.248">
  </linearGradient>
  <linearGradient id="id7" gradientUnits="userSpaceOnUse" xlink:href="#id4" x1="276.188" y1="181.561" x2="265.258" y2="157.23">
  </linearGradient>
  <linearGradient id="id8" gradientUnits="userSpaceOnUse" xlink:href="#id4" x1="246.492" y1="222.463" x2="246.86" y2="215.778">
  </linearGradient>
  <linearGradient id="id9" gradientUnits="userSpaceOnUse" xlink:href="#id4" x1="247.492" y1="204.837" x2="247.08" y2="212.341">
  </linearGradient>
  <linearGradient id="id10" gradientUnits="userSpaceOnUse" xlink:href="#id1" x1="146.238" y1="179.676" x2="144.46" y2="164.296">
  </linearGradient>
  <linearGradient id="id11" gradientUnits="userSpaceOnUse" xlink:href="#id2" x1="129.994" y1="223.259" x2="129.295" y2="216.706">
  </linearGradient>
  <linearGradient id="id12" gradientUnits="userSpaceOnUse" x1="307.844" y1="133.861" x2="271.091" y2="132.375">
   <stop offset="0" style="stop-color:#A6D892"/>
   <stop offset="1" style="stop-color:#83C866"/>
  </linearGradient>
  <linearGradient id="id13" gradientUnits="userSpaceOnUse" x1="100.127" y1="309.792" x2="140.585" y2="295.77">
   <stop offset="0" style="stop-color:#80CC65"/>
   <stop offset="1" style="stop-color:#90D47B"/>
  </linearGradient>
  <linearGradient id="id14" gradientUnits="userSpaceOnUse" x1="219.844" y1="309.792" x2="260.302" y2="295.77">
   <stop offset="0" style="stop-color:#83C866"/>
   <stop offset="1" style="stop-color:#93D07C"/>
  </linearGradient>
  <linearGradient id="id15" gradientUnits="userSpaceOnUse" xlink:href="#id2" x1="128.14" y1="205.584" x2="128.973" y2="213.395">
  </linearGradient>
  <linearGradient id="id16" gradientUnits="userSpaceOnUse" x1="111.979" y1="274.939" x2="114.997" y2="294.19">
   <stop offset="0" style="stop-color:#366A2A"/>
   <stop offset="1" style="stop-color:#80CC65"/>
  </linearGradient>
  <linearGradient id="id17" gradientUnits="userSpaceOnUse" x1="231.697" y1="274.939" x2="234.714" y2="294.19">
   <stop offset="0" style="stop-color:#39662D"/>
   <stop offset="1" style="stop-color:#83C866"/>
  </linearGradient>
  <linearGradient id="id18" gradientUnits="userSpaceOnUse" x1="165.501" y1="127.807" x2="127.317" y2="132.441">
   <stop offset="0" style="stop-color:#A4DB91"/>
   <stop offset="1" style="stop-color:#80CC65"/>
  </linearGradient>
  <linearGradient id="id19" gradientUnits="userSpaceOnUse" x1="207.33" y1="335.507" x2="195.996" y2="330.441">
   <stop offset="0" style="stop-color:#78BF5A"/>
   <stop offset="1" style="stop-color:#579B3A"/>
  </linearGradient>
  <linearGradient id="id20" gradientUnits="userSpaceOnUse" xlink:href="#id14" x1="264.862" y1="161.342" x2="295.669" y2="162.351">
  </linearGradient>
  <linearGradient id="id21" gradientUnits="userSpaceOnUse" xlink:href="#id13" x1="125.808" y1="162.04" x2="158.067" y2="157.874">
  </linearGradient>
  <radialGradient id="id22" gradientUnits="userSpaceOnUse" cx="180.657" cy="180.657" r="180.657" fx="180.657" fy="180.657">
   <stop offset="0" style="stop-color:black"/>
   <stop offset="0.701961" style="stop-color:#313131"/>
   <stop offset="1" style="stop-color:#626262"/>
  </radialGradient>
  <radialGradient id="id23" gradientUnits="userSpaceOnUse" cx="180.657" cy="180.657" r="157.166" fx="180.657" fy="180.657">
   <stop offset="0" style="stop-color:#FFFF66"/>
   <stop offset="0.321569" style="stop-color:#CCCC33"/>
   <stop offset="0.619608" style="stop-color:#949426"/>
   <stop offset="1" style="stop-color:#333300"/>
  </radialGradient>
 </defs>
 <g id="Layer_x0020_1">
  <metadata id="CorelCorpID_0Corel-Layer"/>
  <path class="fil0" d="M290.535 9.82443l-219.754 0c-33.5278,0 -60.9569,27.429 -60.9569,60.9541l0 219.754c0,33.5278 27.429,60.9569 60.9569,60.9569l219.754 0c33.5251,0 60.9541,-27.429 60.9541,-60.9569l0 -219.754c0,-33.5251 -27.429,-60.9541 -60.9541,-60.9541z"/>
  <g style="clip-path:url(#id0)">
   <g id="_323608224">
    <g>
     <path id="_3237279761" class="fil1" d="M176.03 351.489c0,0 33.3943,-52.1443 51.7409,-56.7918 2.21903,-0.5648 4.00236,-0.634842 6.71065,-2.05766 2.45079,-3.86948 4.63171,-3.41627 2.82915,-20.992 -1.80255,-17.5758 17.2372,-8.40299 17.2372,-8.40299 0,0 0.32137,19.8229 6.44181,27.5557 2.70555,0.671923 7.9563,1.82212 10.0672,2.75705 22.831,10.1122 33.0595,57.9317 33.0595,57.9317l-15.1057 0c0.151415,0 -9.87628,-34.8837 -18.2793,-35.7163 -0.22695,17.9414 1.83002,23.3594 2.46109,35.7163l-50.4179 0c0,0 -0.681537,-16.4805 -0.227293,-24.2019 0.454244,-7.72145 -22.2569,10.1358 -25.6632,24.2019 -11.5824,0 -20.854,0 -20.854,0z"/>
     <path id="_323727808" class="fil2" d="M293.081 351.489l-4.07034 0c0,0 -9.11921,-32.688 -18.2793,-35.7163 -0.22695,17.9414 1.83002,23.3594 2.46109,35.7163l-5.7074 0c-0.836042,-11.7338 -0.857672,-31.3953 0.089956,-38.2955 0.947628,-6.90018 14.2151,-2.38315 25.506,38.2955z"/>
     <path id="_323727640" class="fil3" d="M203.038 315.056c8.64677,-9.99473 17.7725,-18.5955 24.7328,-20.3586 2.21903,-0.5648 4.00236,-0.634842 6.71065,-2.05766 2.45079,-3.86948 4.63171,-3.41627 2.82915,-20.992 -1.80255,-17.5758 17.2372,-8.40299 17.2372,-8.40299 0,0 -1.11449,17.6132 5.00595,25.346 0.349524,0.738189 1.68479,2.7337 3.81867,2.881 -2.93868,2.83602 -3.32906,2.56546 -12.1853,4.64922 -8.85621,2.08375 -32.6873,6.0916 -41.0615,13.263 -2.00101,1.71363 -4.47789,3.67652 -7.08764,5.67204z"/>
     <path id="_323727472" class="fil4" d="M176.03 351.489c0,0 33.3943,-52.1443 51.7409,-56.7918 2.21903,-0.5648 4.00236,-0.634842 6.71065,-2.05766 2.45079,-3.86948 4.63171,-3.41627 2.82915,-20.992 -0.938701,-9.15285 3.77506,-11.0505 8.5084,-10.7683 -4.10158,0.267121 -8.95303,-0.0686687 -7.63802,12.7556 1.31501,12.8242 -0.43536,15.1919 -2.88615,19.0614 -2.70829,1.42282 -3.63979,1.43621 -5.85882,2.00101 -18.3466,4.6475 -51.7409,56.7918 -51.7409,56.7918l-1.66522 0z"/>
     <path id="_323727304" class="fil5" d="M225.606 351.489l-2.83121 0c0,0 -0.681537,-16.4805 -0.227293,-24.2019 0.454244,-7.72145 -22.2569,10.1358 -25.6632,24.2019l-10.4304 0c-4.94071,0 -10.1379,0.832952 -8.33226,-3.18451 0.964109,-2.14452 4.4281,-6.61692 4.59497,-6.89331 0.295962,-0.489265 0.995696,7.18309 7.52575,9.6325 9.54324,-15.1353 29.416,-37.4186 32.926,-30.1717 3.84236,7.93295 1.692,15.2997 2.43774,30.617z"/>
     <g>
      <path id="_323727136" class="fil6" d="M259.297 41.1751l0.000343344 0c29.2889,1.18454 52.2833,26.1175 51.0988,55.4064 -1.76307,43.5909 -9.06667,81.8057 -5.28886,130.773 -1.18728,29.3514 -26.1477,52.2823 -55.4806,51.0961 -29.2893,-1.18488 -52.2099,-26.1147 -51.0253,-55.4036 6.39615,-47.8638 5.72045,-89.2055 5.28921,-130.772 1.18454,-29.2893 26.1171,-52.2837 55.4064,-51.0991z"/>
      <path id="_323726968" class="fil7" d="M259.294 41.1751l-0.000343344 0c-4.11635,-0.166522 -8.14686,0.144548 -12.0369,0.883423 42.7353,-7.83785 50.2064,28.7859 49.1884,53.9589 -1.63226,17.8439 -3.30674,35.6432 -4.48201,53.9822 -0.992263,15.4772 -3.51584,12.9245 3.64253,27.9011 2.40512,5.03204 0.928058,26.9429 0.840505,30.3186 -0.453214,17.5737 -4.38415,21.2784 -4.78758,25.6972 -0.211843,2.32375 0.198109,4.75462 0.267465,5.6789 -1.01836,25.1777 -24.1899,38.3803 -54.0989,37.0097 32.7787,8.99354 65.889,-14.9399 67.2768,-49.2509 -2.50984,-48.2243 1.50213,-89.3761 5.28886,-130.773 1.18454,-29.2889 -21.8099,-54.2219 -51.0988,-55.4064z"/>
      <path id="_323726800" class="fil2" d="M259.297 41.1751l0.000343344 0c4.116,0.166522 8.10806,0.802051 11.926,1.85268 -23.7917,4.51943 -42.3518,25.0425 -43.3701,50.2154 0.186092,17.9177 0.417849,35.7939 0.108153,54.1679 -0.260598,15.5068 -7.55459,12.7611 -15.8989,27.1108 -2.80409,4.82157 -3.10074,26.7801 -3.28649,30.1517 -0.967199,17.5534 6.48164,22.3991 6.52696,26.8364 0.0236907,2.33336 -0.581281,4.72338 -0.725142,5.63873 -1.01801,25.1777 17.1813,39.3719 47.1033,40.4212 -33.3981,6.31684 -64.4672,-20.2123 -63.0798,-54.5233 6.39615,-47.8638 5.72045,-89.2055 5.28921,-130.772 1.18454,-29.2893 26.1171,-52.2837 55.4064,-51.0991z"/>
      <g>
       <path id="_323726632" class="fil8" d="M294.1 157.912c-8.15784,-4.8281 -41.3094,-9.62083 -43.5689,24.4375 -1.60582,24.1999 41.1027,14.1825 43.5689,-24.4375z"/>
       <path id="_323726464" class="fil9" d="M293.769 159.947c-7.87459,-3.0822 -36.344,2.37422 -41.2987,22.9501 -4.93453,20.4907 35.9086,9.42169 41.2987,-22.9501z"/>
       <path id="_323726296" class="fil10" d="M274.015 163.684c-2.6592,0.848745 -11.4316,5.51272 -11.9621,8.20969 -0.528062,2.68632 11.8924,-4.31617 11.9621,-8.20969z"/>
       <g>
        <path id="_323726128" class="fil11" d="M206.061 155.807c8.66702,-4.4257 42.2584,-7.62257 40.7679,26.4546 -1.05887,24.2126 -42.5537,12.1815 -40.7679,-26.4546z"/>
        <path id="_323725960" class="fil12" d="M206.167 157.852c8.19287,-2.69799 35.9872,4.10364 38.667,24.8622 2.66915,20.6727 -36.8497,7.68197 -38.667,-24.8622z"/>
        <path id="_323725816" class="fil10" d="M225.458 162.523c2.55928,0.973722 10.7958,6.04456 11.0282,8.76007 0.231757,2.70417 -11.3863,-4.87308 -11.0282,-8.76007z"/>
       </g>
      </g>
      <path id="_323725528" class="fil13" d="M268.388 42.3346c-12.5489,0.32343 -26.3272,1.76067 -42.4513,17.6808 -17.4655,17.2437 -17.996,42.2254 -19.0343,74.2518 -1.03827,32.0264 -1.77646,23.6567 -3.32563,28.331 0.868316,-24.1456 0.553127,-47.2005 0.313473,-70.324 1.18454,-29.2893 26.1171,-52.2837 55.4064,-51.0991l0.000343344 0c3.10863,0.125664 6.14551,0.521882 9.09105,1.15947z"/>
      <g>
       <path id="_323725360" class="fil14" d="M273.897 212.935c8.52419,0.203946 9.15423,-5.8959 9.15423,-5.8959 -0.473127,0.0820591 3.4482,-5.67341 -35.8588,-6.79992 -39.307,-1.12651 -35.5196,5.09316 -35.5196,5.09316 0,0 -0.0422313,6.11358 8.48196,6.31752 25.3309,0.605658 28.4113,0.679477 53.7422,1.28514z"/>
       <path id="_323725192" class="fil15" d="M211.707 204.712c0,0 -0.0422313,6.11358 8.48196,6.31752 8.52454,0.203946 35.4955,0.848745 35.4955,0.848745m27.4009 -5.45951c0,0 -0.629692,6.09984 -9.15388,5.8959 -8.52454,-0.203603 -35.4955,-0.848745 -35.4955,-0.848745"/>
       <path id="_323725096" class="fil16" d="M220.223 210.409l18.2865 0.949345 17.2489 0.412356 18.2068 -0.0762223c5.88285,0.0192272 7.46223,-1.39775 9.65757,-5.21367 -0.00240341,0.0185406 -0.694241,6.67082 -9.72589,6.45486 -6.11186,0.397935 -12.2244,0.795527 -18.3363,1.19312 -5.61916,0.89544 -11.3647,0.779733 -17.2489,-0.412356l-18.157 -2.0659c-9.03165,-0.215963 -8.95062,-6.37108 -8.95097,-6.38997 1.23878,3.56768 2.51671,4.93625 9.01929,5.14844z"/>
       <path id="_323724856" class="fil17" d="M258.714 217.357c3.79086,0.0906427 3.58554,6.20079 3.58554,6.20079 -0.202916,-0.0985396 -10.1019,3.9512 -16.3342,3.98828 -6.23203,0.0374245 -15.4113,-4.74776 -15.4113,-4.74776 0,0 0.466604,-6.10362 4.2578,-6.01298 11.2661,0.269525 12.6361,0.302486 23.9022,0.571667z"/>
      </g>
      <g>
       <g>
        <path id="_323724712" class="fil18" d="M254.132 196.157c-0.965139,-0.377678 -4.4542,0.291155 -5.06157,2.81267 -0.604628,2.51122 4.40098,1.15466 5.06157,-2.81267z"/>
        <path id="_323724472" class="fil19" d="M251.998 197.247c0.221457,-1.44136 -2.61903,0.324803 -2.81679,1.82727 -0.289782,2.19946 2.59499,-0.385918 2.81679,-1.82727z"/>
       </g>
       <g>
        <path id="_323724328" class="fil18" d="M241.643 195.859c1.00394,-0.33064 4.41025,0.502998 4.73883,3.04717 0.327206,2.53353 -4.516,0.941448 -4.73883,-3.04717z"/>
        <path id="_323724184" class="fil19" d="M243.652 197.047c-0.0624885,-1.44822 2.57611,0.449093 2.60838,1.95706 0.0473814,2.20736 -2.54589,-0.508835 -2.60838,-1.95706z"/>
       </g>
      </g>
      <path id="_323723896" class="fil18" d="M304.991 225.789c0.0374245,0.520852 0.0751923,1.0417 0.115707,1.5653 -1.18728,29.3514 -26.1477,52.2823 -55.4806,51.0961 -29.2893,-1.18488 -52.2099,-26.1147 -51.0253,-55.4036 0.0786257,-0.587461 0.155535,-1.17355 0.231757,-1.75929 1.01424,27.4623 22.9748,54.068 50.8729,55.1963 27.8723,1.1272 51.9534,-23.4545 55.2855,-50.6947z"/>
      <path id="_323723656" class="fil20" d="M261.024 41.2764c-30.5445,-1.10797 -54.7455,22.3369 -55.9066,51.0473 0.43124,41.5672 1.79294,82.9364 -4.60286,130.801 -1.16119,28.7111 18.681,54.9611 50.8437,55.3645 -30.0065,-0.246864 -53.9698,-25.4679 -52.7575,-55.4421 6.39615,-47.8638 5.72045,-89.2055 5.28921,-130.772 1.21338,-30.0062 27.2453,-53.1736 57.1341,-50.9979z"/>
     </g>
     <path id="_323723440" class="fil4" d="M223.976 351.489l-1.2017 0c0,0 -0.498192,-19.8731 -0.227293,-24.2019 0.0370811,-0.596045 0.449093,1.77131 0.627289,6.38585 0.054935,1.42968 -0.599478,8.26497 0.801707,17.8161z"/>
    </g>
    <g>
     <path id="_323723296" class="fil21" d="M56.3128 351.489c0,0 33.3943,-52.1443 51.7409,-56.7918 2.21903,-0.5648 4.00236,-0.634842 6.71065,-2.05766 2.45079,-3.86948 4.63171,-3.41627 2.82915,-20.992 -1.80255,-17.5758 17.2372,-8.40299 17.2372,-8.40299 0,0 0.32137,19.8229 6.44181,27.5557 2.70555,0.671923 7.9563,1.82212 10.0672,2.75705 22.831,10.1122 33.0595,57.9317 33.0595,57.9317l-15.1057 0c0.151415,0 -9.87628,-34.8837 -18.2793,-35.7163 -0.22695,17.9414 1.83002,23.3594 2.46109,35.7163l-50.4179 0c0,0 -0.681537,-16.4805 -0.227293,-24.2019 0.454244,-7.72145 -22.2569,10.1358 -25.6632,24.2019 -11.5824,0 -20.854,0 -20.854,0z"/>
     <path id="_323723056" class="fil22" d="M173.364 351.489l-4.07034 0c0,0 -9.11921,-32.688 -18.2793,-35.7163 -0.22695,17.9414 1.83002,23.3594 2.46109,35.7163l-5.7074 0c-0.836042,-11.7338 -0.857672,-31.3953 0.089956,-38.2955 0.947628,-6.90018 14.2151,-2.38315 25.506,38.2955z"/>
     <path id="_323612256" class="fil22" d="M105.889 351.489l-2.83121 0c0,0 -0.681537,-16.4805 -0.227293,-24.2019 0.454244,-7.72145 -22.2569,10.1358 -25.6632,24.2019l-6.49228 0c8.64265,-15.5748 28.9332,-38.5506 32.7763,-30.617 3.84305,7.93364 1.692,15.2997 2.43774,30.617z"/>
     <path id="_323612136" class="fil23" d="M83.3209 315.056c8.64677,-9.99473 17.7725,-18.5955 24.7328,-20.3586 2.21903,-0.5648 4.00236,-0.634842 6.71065,-2.05766 2.45079,-3.86948 4.63171,-3.41627 2.82915,-20.992 -1.80255,-17.5758 17.2372,-8.40299 17.2372,-8.40299 0,0 -1.11449,17.6132 5.00595,25.346 0.349524,0.738189 1.68479,2.7337 3.81867,2.881 -2.93868,2.83602 -3.32906,2.56546 -12.1853,4.64922 -8.85621,2.08375 -32.6873,6.0916 -41.0615,13.263 -2.00101,1.71363 -4.47789,3.67652 -7.08764,5.67204z"/>
     <path id="_323611968" class="fil24" d="M56.3128 351.489c0,0 33.3943,-52.1443 51.7409,-56.7918 2.21903,-0.5648 4.00236,-0.634842 6.71065,-2.05766 2.45079,-3.86948 4.63171,-3.41627 2.82915,-20.992 -0.938701,-9.15285 3.77506,-11.0505 8.5084,-10.7683 -4.10158,0.267121 -8.95303,-0.0686687 -7.63802,12.7556 1.31501,12.8242 -0.43536,15.1919 -2.88615,19.0614 -2.70829,1.42282 -3.63979,1.43621 -5.85882,2.00101 -18.3466,4.6475 -51.7409,56.7918 -51.7409,56.7918l-1.66522 0zm47.9462 0l-1.2017 0c0,0 -0.498192,-19.8731 -0.227293,-24.2019 0.0370811,-0.596045 0.449093,1.77131 0.627289,6.38585 0.054935,1.42968 -0.599478,8.26497 0.801707,17.8161z"/>
     <path id="_323611800" class="fil25" d="M101.872 44.2158l0.000343344 0c29.0994,-3.53163 55.7975,17.3873 59.3291,46.4867 5.25659,43.3087 4.18124,82.2002 15.7691,129.926 3.53953,29.1615 -17.4171,55.8012 -46.5601,59.3384 -29.0994,3.53163 -55.7243,-17.3962 -59.256,-46.4956 -1.36925,-48.27 -8.67149,-88.9672 -15.7691,-129.926 -3.53163,-29.0994 17.3873,-55.7975 46.4867,-59.3294z"/>
     <path id="_323611632" class="fil26" d="M101.869 44.2161l-0.000343344 0c-4.08957,0.496475 -8.01776,1.45063 -11.7389,2.80409 40.9231,-14.5952 54.1758,20.3544 57.2113,45.3643 1.25286,17.8748 2.45697,35.7119 4.24029,54.0018 1.50453,15.436 -1.39569,13.321 8.07338,26.9549 3.18177,4.58089 5.24045,26.4447 5.69607,29.7906 2.37319,17.4189 -0.912264,21.7062 -0.601195,26.1322 0.164118,2.32787 0.958615,4.66158 1.17527,5.56251 3.03619,25.0146 -17.7158,41.7653 -47.4573,45.2132 33.7974,3.61575 62.6372,-25.3219 58.4996,-59.4108 -10.2172,-47.196 -12.8623,-88.4584 -15.7691,-129.926 -3.53163,-29.0994 -30.2297,-50.0183 -59.3291,-46.4867z"/>
     <path id="_323611464" class="fil22" d="M101.872 44.2158l0.000343344 0c4.08922,-0.496132 8.13175,-0.509522 12.0689,-0.0854926 -22.7578,8.27939 -37.7836,31.5155 -34.7481,56.5253 3.05953,17.6554 6.15718,35.2628 8.80093,53.4483 2.23139,15.3475 -5.40835,13.8082 -11.3417,29.3112 -1.99345,5.20921 1.2381,26.9305 1.59552,30.2881 1.86264,17.4813 9.99302,21.0686 10.7497,25.4411 0.398279,2.29937 0.184376,4.75531 0.189526,5.68199 3.03619,25.0146 23.2777,36.1036 52.9803,32.3368 -31.9512,11.5957 -66.8758,-9.60298 -71.0131,-43.6918 -1.36925,-48.27 -8.67149,-88.9672 -15.7691,-129.926 -3.53163,-29.0994 17.3873,-55.7975 46.4867,-59.3294z"/>
     <g>
      <path id="_323611296" class="fil27" d="M166.63 151.956c-8.82668,-3.4561 -42.3178,-2.86623 -39.0818,31.1138 2.29937,24.1436 42.8462,7.40146 39.0818,-31.1138z"/>
      <path id="_323611128" class="fil28" d="M166.63 154.017c-8.26737,-1.77852 -35.4914,8.17638 -37.0797,29.281 -1.58178,21.0171 36.9554,3.5361 37.0797,-29.281z"/>
      <path id="_323610960" class="fil29" d="M147.732 160.876c-2.4889,1.26488 -10.3988,7.27614 -10.4895,10.0236 -0.0902994,2.73611 11.0454,-6.1692 10.4895,-10.0236z"/>
      <g>
       <path id="_323610792" class="fil30" d="M79.3944 164.008c7.84437,-5.75959 40.4871,-14.3064 44.4857,19.5682 2.84117,24.0687 -40.0469,18.8537 -44.4857,-19.5682z"/>
       <path id="_323610624" class="fil31" d="M79.8277 166.009c7.65347,-3.97764 36.1791,-1.7253 42.1564,18.3339 5.9522,19.9764 -35.1395,13.4968 -42.1564,-18.3339z"/>
       <path id="_323610480" class="fil29" d="M99.6184 167.524c2.6822,0.55038 11.626,4.23343 12.2914,6.87614 0.662653,2.63207 -12.0211,-2.98228 -12.2914,-6.87614z"/>
      </g>
     </g>
     <path id="_323610192" class="fil32" d="M111.031 43.9009c-12.3343,2.33336 -25.7034,5.96388 -39.0632,24.2651 -14.4716,19.8236 -10.9853,44.5667 -6.86996,76.3445 4.11566,31.7778 2.04358,23.6351 1.26488,28.4972 -3.01868,-23.9719 -7.02962,-46.6772 -10.9781,-69.4625 -3.53163,-29.0994 17.3873,-55.7975 46.4867,-59.3294l0.000343344 0c3.08872,-0.374931 6.14963,-0.471411 9.15938,-0.314846z"/>
     <g>
      <path id="_323610024" class="fil33" d="M155.521 209.508c8.4466,-1.16668 8.08918,-7.2885 8.08918,-7.2885 -0.453557,0.156908 2.49302,-6.15375 -36.4851,-0.956555 -38.9784,5.19719 -34.2417,10.7281 -34.2417,10.7281 0,0 0.939388,6.04113 9.38598,4.87411 25.0998,-3.46777 28.1518,-3.8894 53.2516,-7.35717z"/>
      <path id="_323609856" class="fil15" d="M92.8171 211.373c0,0 0.939388,6.04147 9.38598,4.87445 8.44625,-1.16702 35.1714,-4.85934 35.1714,-4.85934m26.1693 -9.78667c0,0 0.357421,6.12182 -8.08918,7.28884 -8.44625,1.16702 -35.1714,4.85934 -35.1714,4.85934"/>
      <path id="_323609760" class="fil34" d="M102.137 215.629l18.2017 -1.99826 17.0913 -2.36117 17.9586 -2.99773c5.80972,-0.924968 7.1412,-2.57714 8.69552,-6.69623 0.000686687,0.0185406 0.385575,6.69589 -8.56368,7.93227 -5.96903,1.37372 -11.9381,2.74709 -17.9071,4.12081 -5.40217,1.78573 -11.0921,2.59362 -17.0913,2.36152l-18.2532 0.87484c-8.94925,1.23672 -9.8574,-4.85179 -9.86049,-4.87033 1.79534,3.32254 3.27618,4.46827 9.72864,3.63429z"/>
      <path id="_323609520" class="fil35" d="M141.244 216.31c3.75687,-0.518792 4.53454,5.54466 4.53454,5.54466 -0.215963,-0.0642053 -9.33689,5.52131 -15.4821,6.55855 -6.14551,1.03724 -15.9737,-2.21251 -15.9737,-2.21251 0,0 -0.519136,-6.0995 3.23739,-6.61863 11.1635,-1.5423 12.5207,-1.72977 23.6838,-3.27206z"/>
     </g>
     <g>
      <g>
       <path id="_323609376" class="fil36" d="M133.319 196.12c-1.01321,-0.21768 -4.34948,1.00222 -4.54415,3.58863 -0.193989,2.57576 4.52905,0.4333 4.54415,-3.58863z"/>
       <path id="_323609136" class="fil37" d="M131.387 197.538c-0.0127037,-1.45818 -2.53285,0.740936 -2.48684,2.25577 0.066952,2.21731 2.4992,-0.797587 2.48684,-2.25577z"/>
      </g>
      <g>
       <path id="_323608992" class="fil36" d="M120.943 197.83c0.938015,-0.487548 4.43394,-0.2115 5.16663,2.24684 0.729605,2.44838 -4.30656,1.65423 -5.16663,-2.24684z"/>
       <path id="_323608848" class="fil37" d="M123.118 198.681c-0.294245,-1.41938 2.6149,0.0298709 2.88889,1.51277 0.400682,2.1713 -2.59465,-0.0933895 -2.88889,-1.51277z"/>
      </g>
     </g>
     <path id="_323608560" class="fil36" d="M176.605 219.102c0.120857,0.508149 0.241714,1.01595 0.365318,1.52651 3.53953,29.1615 -17.4171,55.8012 -46.5601,59.3384 -29.0994,3.53163 -55.7243,-17.3962 -59.256,-46.4956 -0.0168238,-0.592611 -0.035021,-1.18351 -0.0539049,-1.77371 5.40904,26.9435 31.3552,49.6794 59.073,46.3153 27.6917,-3.36065 47.515,-31.4891 46.4317,-58.9109z"/>
     <path id="_323608416" class="fil20" d="M103.593 44.0383c-30.3265,3.80905 -50.4506,30.8347 -46.9886,59.359 7.0976,40.9588 15.0814,81.5733 16.4506,129.843 3.46228,28.5253 27.2605,51.2502 59.0709,46.4863 -29.657,4.57265 -57.3576,-16.4753 -60.972,-46.2556 -1.36925,-48.27 -8.67149,-88.9672 -15.7691,-129.926 -3.61815,-29.8118 18.3576,-56.857 48.2082,-59.5069z"/>
    </g>
   </g>
  </g>
  <path class="fil15" d="M290.535 9.82443l-219.754 0c-33.5278,0 -60.9569,27.429 -60.9569,60.9541l0 219.754c0,33.5278 27.429,60.9569 60.9569,60.9569l219.754 0c33.5251,0 60.9541,-27.429 60.9541,-60.9569l0 -219.754c0,-33.5251 -27.429,-60.9541 -60.9541,-60.9541z"/>
  <path class="fil38" d="M66.7687 359.043l227.777 0c18.1117,0 34.5737,-7.30017 46.5049,-19.0604 11.4897,-11.3248 18.7819,-26.7914 19.3062,-43.8632l-6.24645 -6.6619c-0.520509,14.4486 -10.1293,34.1998 -19.8755,43.8069 -10.1894,10.0428 -24.2387,16.2765 -39.6891,16.2765l-227.777 0c-15.4505,0 -29.4997,-6.23375 -39.6891,-16.2765 -9.74615,-9.6071 -19.355,-29.3583 -19.8755,-43.8069l-6.24645 6.6619c0.524286,17.0717 7.81656,32.5383 19.3062,43.8632 11.9312,11.7602 28.3931,19.0604 46.5049,19.0604z"/>
  <path class="fil39" d="M66.7687 1.86607l227.777 0c18.1117,0 34.5737,7.30017 46.5049,19.0604 11.4897,11.3248 18.7819,26.7914 19.3062,43.8632l-6.24645 6.6619c-0.520509,-14.4486 -10.1293,-34.1998 -19.8755,-43.8069 -10.1894,-10.0428 -24.2387,-16.2765 -39.6891,-16.2765l-227.777 0c-15.4505,0 -29.4997,6.23375 -39.6891,16.2765 -9.74615,9.6071 -19.355,29.3583 -19.8755,43.8069l-6.24645 -6.6619c0.524286,-17.0717 7.81656,-32.5383 19.3062,-43.8632 11.9312,-11.7602 28.3931,-19.0604 46.5049,-19.0604z"/>
  <path class="fil40" d="M296.854 0l-232.395 0c-35.4533,0 -64.4597,29.0064 -64.4597,64.4597l0 232.395c0,35.4533 29.0064,64.4597 64.4597,64.4597l232.395 0c35.4533,0 64.46,-29.0064 64.46,-64.4597l0 -232.395c0,-35.4533 -29.0067,-64.4597 -64.46,-64.4597zm-6.3189 9.82443l-219.754 0c-33.5278,0 -60.9569,27.429 -60.9569,60.9541l0 219.754c0,33.5278 27.429,60.9569 60.9569,60.9569l219.754 0c33.5251,0 60.9541,-27.429 60.9541,-60.9569l0 -219.754c0,-33.5251 -27.429,-60.9541 -60.9541,-60.9541z"/>
 </g>
</svg>
