<?xml version="1.0" encoding="UTF-8"?>
<!DOCTYPE svg PUBLIC "-//W3C//DTD SVG 1.1//EN" "http://www.w3.org/Graphics/SVG/1.1/DTD/svg11.dtd">
<!-- Creator: CorelDRAW -->
<svg xmlns="http://www.w3.org/2000/svg" xml:space="preserve" width="4.14307in" height="4.14307in" style="shape-rendering:geometricPrecision; text-rendering:geometricPrecision; image-rendering:optimizeQuality; fill-rule:evenodd; clip-rule:evenodd"
viewBox="0 0 4.11353 4.11352"
 xmlns:xlink="http://www.w3.org/1999/xlink">
 <defs>
  <style type="text/css">
   <![CDATA[
    .str0 {stroke:black;stroke-width:0.00689536}
    .str3 {stroke:#660066;stroke-width:0.00689536}
    .str1 {stroke:#6699FF;stroke-width:0.00689536}
    .str2 {stroke:#95D11E;stroke-width:0.00689536}
    .fil51 {fill:none}
    .fil33 {fill:none;fill-rule:nonzero}
    .fil47 {fill:black}
    .fil50 {fill:#1E0028}
    .fil65 {fill:#224827}
    .fil40 {fill:#2B5619}
    .fil77 {fill:#3C682D}
    .fil81 {fill:#528C36}
    .fil60 {fill:#61A53E}
    .fil30 {fill:#72155B}
    .fil44 {fill:#74E9F0}
    .fil62 {fill:#7BBA47}
    .fil24 {fill:#7C2772}
    .fil42 {fill:#7DC05C}
    .fil29 {fill:#912783}
    .fil63 {fill:#95CC68}
    .fil41 {fill:#AADA94}
    .fil3 {fill:#B648B8}
    .fil19 {fill:#C1FFFF}
    .fil64 {fill:#CBED96}
    .fil4 {fill:#CCCCFF}
    .fil26 {fill:#D273D9}
    .fil53 {fill:#DDF6A2}
    .fil32 {fill:#EAB3EB}
    .fil20 {fill:#EEC8F0}
    .fil79 {fill:#224827;fill-rule:nonzero}
    .fil31 {fill:#2E0823;fill-rule:nonzero}
    .fil69 {fill:#999999;fill-rule:nonzero}
    .fil68 {fill:#B3B3B3;fill-rule:nonzero}
    .fil34 {fill:url(#id2)}
    .fil23 {fill:url(#id3)}
    .fil5 {fill:url(#id4)}
    .fil46 {fill:url(#id5)}
    .fil45 {fill:url(#id6)}
    .fil6 {fill:url(#id7)}
    .fil49 {fill:url(#id8)}
    .fil8 {fill:url(#id9)}
    .fil35 {fill:url(#id10)}
    .fil48 {fill:url(#id11)}
    .fil37 {fill:url(#id12)}
    .fil14 {fill:url(#id13)}
    .fil39 {fill:url(#id14)}
    .fil36 {fill:url(#id15)}
    .fil61 {fill:url(#id16)}
    .fil73 {fill:url(#id17)}
    .fil1 {fill:url(#id18)}
    .fil11 {fill:url(#id19)}
    .fil75 {fill:url(#id20)}
    .fil74 {fill:url(#id21)}
    .fil13 {fill:url(#id22)}
    .fil67 {fill:url(#id23)}
    .fil76 {fill:url(#id24)}
    .fil52 {fill:url(#id25)}
    .fil43 {fill:url(#id26)}
    .fil28 {fill:url(#id27)}
    .fil80 {fill:url(#id28)}
    .fil38 {fill:url(#id29)}
    .fil12 {fill:url(#id30)}
    .fil57 {fill:url(#id31)}
    .fil58 {fill:url(#id32)}
    .fil2 {fill:url(#id33)}
    .fil59 {fill:url(#id34)}
    .fil66 {fill:url(#id35)}
    .fil25 {fill:url(#id36)}
    .fil72 {fill:url(#id37)}
    .fil56 {fill:url(#id38)}
    .fil54 {fill:url(#id39)}
    .fil27 {fill:url(#id40)}
    .fil55 {fill:url(#id41)}
    .fil78 {fill:url(#id42)}
    .fil71 {fill:url(#id43)}
    .fil22 {fill:url(#id44)}
    .fil21 {fill:url(#id45)}
    .fil7 {fill:url(#id46)}
    .fil70 {fill:url(#id47)}
    .fil10 {fill:url(#id48)}
    .fil0 {fill:url(#id49)}
    .fil16 {fill:url(#id50)}
    .fil18 {fill:url(#id51)}
    .fil15 {fill:url(#id52)}
    .fil9 {fill:url(#id53)}
    .fil17 {fill:url(#id54)}
   ]]>
  </style>
     <clipPath id="id0" style="clip-rule:nonzero">
      <path d="M3.40728 2.40447c0.116713,0.439708 -0.383122,0.607468 -0.523864,0.126982 0.0440967,0.107683 0.505839,0.0348012 0.523864,-0.126982z"/>
     </clipPath>
     <clipPath id="id1" style="clip-rule:nonzero">
      <path d="M0.841437 1.73058l0.211571 0.0707595 0.200767 0.0616947 0.213205 0.0597637c0.0687777,0.0197753 0.0908202,0.0102062 0.126098,-0.022406 -0.330829,0.525583 -1.00355,-0.0311855 -0.844205,-0.253674 0.00551941,0.0414503 0.0170273,0.0600139 0.0925635,0.0838623z"/>
     </clipPath>
  <linearGradient id="id2" gradientUnits="userSpaceOnUse" x1="3.71408" y1="2.07137" x2="3.5716" y2="1.18121">
   <stop offset="0" style="stop-color:black"/>
   <stop offset="0.239216" style="stop-color:#33009C"/>
   <stop offset="0.501961" style="stop-color:#3300B4"/>
   <stop offset="0.760784" style="stop-color:#003399"/>
   <stop offset="1" style="stop-color:black"/>
  </linearGradient>
  <linearGradient id="id3" gradientUnits="userSpaceOnUse" x1="3.07059" y1="4.08898" x2="2.80419" y2="3.20491">
   <stop offset="0" style="stop-color:#D273D9"/>
   <stop offset="1" style="stop-color:#CBA0E6"/>
  </linearGradient>
  <linearGradient id="id4" gradientUnits="userSpaceOnUse" x1="3.67134" y1="0.620582" x2="1.91078" y2="1.01302">
   <stop offset="0" style="stop-color:black"/>
   <stop offset="0.478431" style="stop-color:#000066"/>
   <stop offset="1" style="stop-color:black"/>
  </linearGradient>
  <linearGradient id="id5" gradientUnits="userSpaceOnUse" x1="3.25709" y1="3.34547" x2="1.50637" y2="3.29666">
   <stop offset="0" style="stop-color:#FF0066"/>
   <stop offset="0.321569" style="stop-color:#990099"/>
   <stop offset="1" style="stop-color:#280028"/>
  </linearGradient>
  <linearGradient id="id6" gradientUnits="userSpaceOnUse" xlink:href="#id5" x1="3.24927" y1="3.70554" x2="1.49854" y2="3.65674">
  </linearGradient>
  <linearGradient id="id7" gradientUnits="userSpaceOnUse" x1="2.56952" y1="2.36243" x2="2.24728" y2="1.52671">
   <stop offset="0" style="stop-color:#330099"/>
   <stop offset="0.501961" style="stop-color:#3300B4"/>
   <stop offset="1" style="stop-color:#330066"/>
  </linearGradient>
  <linearGradient id="id8" gradientUnits="userSpaceOnUse" x1="1.96729" y1="3.36929" x2="0.244496" y2="3.36929">
   <stop offset="0" style="stop-color:#660066"/>
   <stop offset="1" style="stop-color:#990099"/>
  </linearGradient>
  <linearGradient id="id9" gradientUnits="userSpaceOnUse" x1="2.62073" y1="2.02087" x2="2.48381" y2="1.67357">
   <stop offset="0" style="stop-color:#330066"/>
   <stop offset="1" style="stop-color:#663399"/>
  </linearGradient>
  <linearGradient id="id10" gradientUnits="userSpaceOnUse" x1="3.76467" y1="1.19916" x2="3.81256" y2="1.89346">
   <stop offset="0" style="stop-color:#6699FF"/>
   <stop offset="1" style="stop-color:#330099"/>
  </linearGradient>
  <linearGradient id="id11" gradientUnits="userSpaceOnUse" x1="2.02217" y1="3.12448" x2="0.324273" y2="3.64991">
   <stop offset="0" style="stop-color:#990099"/>
   <stop offset="1" style="stop-color:#CC33FF"/>
  </linearGradient>
  <linearGradient id="id12" gradientUnits="userSpaceOnUse" x1="2.74972" y1="0.486361" x2="2.83646" y2="0.861799">
   <stop offset="0" style="stop-color:#000066"/>
   <stop offset="1" style="stop-color:black"/>
  </linearGradient>
  <linearGradient id="id13" gradientUnits="userSpaceOnUse" x1="2.81467" y1="1.37811" x2="3.03658" y2="2.07423">
   <stop offset="0" style="stop-color:#9C2E8D"/>
   <stop offset="1" style="stop-color:#D789DF"/>
  </linearGradient>
  <linearGradient id="id14" gradientUnits="userSpaceOnUse" x1="0.58489" y1="2.91816" x2="1.96216" y2="3.23195">
   <stop offset="0" style="stop-color:#88CA68"/>
   <stop offset="0.478431" style="stop-color:#95D07B"/>
   <stop offset="0.760784" style="stop-color:#2B5619"/>
   <stop offset="1" style="stop-color:#98D27E"/>
  </linearGradient>
  <linearGradient id="id15" gradientUnits="userSpaceOnUse" x1="3.74626" y1="1.63282" x2="3.89653" y2="1.5959">
   <stop offset="0" style="stop-color:#000066"/>
   <stop offset="1" style="stop-color:#6699FF"/>
  </linearGradient>
  <linearGradient id="id16" gradientUnits="userSpaceOnUse" x1="0.579292" y1="3.0887" x2="0.571693" y2="3.26219">
   <stop offset="0" style="stop-color:#DDF6A2"/>
   <stop offset="1" style="stop-color:#FEFEFE"/>
  </linearGradient>
  <linearGradient id="id17" gradientUnits="userSpaceOnUse" x1="1.57946" y1="1.63384" x2="1.47727" y2="1.44766">
   <stop offset="0" style="stop-color:#88CA68"/>
   <stop offset="1" style="stop-color:#61A53E"/>
  </linearGradient>
  <linearGradient id="id18" gradientUnits="userSpaceOnUse" x1="3.19318" y1="0.741153" x2="2.99673" y2="0.752028">
   <stop offset="0" style="stop-color:#C568C9"/>
   <stop offset="1" style="stop-color:#912783"/>
  </linearGradient>
  <linearGradient id="id19" gradientUnits="userSpaceOnUse" x1="2.88319" y1="2.39403" x2="3.13965" y2="4.23127">
   <stop offset="0" style="stop-color:#BE5AC1"/>
   <stop offset="1" style="stop-color:#9C2E8D"/>
  </linearGradient>
  <linearGradient id="id20" gradientUnits="userSpaceOnUse" xlink:href="#id17" x1="1.00237" y1="1.45216" x2="1.16046" y2="1.34823">
  </linearGradient>
  <linearGradient id="id21" gradientUnits="userSpaceOnUse" x1="1.50851" y1="1.61413" x2="1.52488" y2="1.52179">
   <stop offset="0" style="stop-color:black"/>
   <stop offset="1" style="stop-color:#1A1A1A"/>
  </linearGradient>
  <linearGradient id="id22" gradientUnits="userSpaceOnUse" x1="2.91467" y1="1.44493" x2="2.82427" y2="1.12202">
   <stop offset="0" style="stop-color:#D273D9"/>
   <stop offset="0.45098" style="stop-color:#C45EC9"/>
   <stop offset="1" style="stop-color:#B648B8"/>
  </linearGradient>
  <linearGradient id="id23" gradientUnits="userSpaceOnUse" xlink:href="#id16" x1="0.592465" y1="3.49061" x2="0.681964" y2="3.62317">
  </linearGradient>
  <linearGradient id="id24" gradientUnits="userSpaceOnUse" xlink:href="#id21" x1="1.03347" y1="1.46908" x2="1.05741" y2="1.35351">
  </linearGradient>
  <linearGradient id="id25" gradientUnits="userSpaceOnUse" x1="1.84827" y1="3.21997" x2="1.78644" y2="3.21581">
   <stop offset="0" style="stop-color:#98D27E"/>
   <stop offset="1" style="stop-color:#88CA68"/>
  </linearGradient>
  <linearGradient id="id26" gradientUnits="userSpaceOnUse" x1="0.64755" y1="2.54636" x2="0.594279" y2="2.74385">
   <stop offset="0" style="stop-color:#3C682D"/>
   <stop offset="1" style="stop-color:#88CA68"/>
  </linearGradient>
  <linearGradient id="id27" gradientUnits="userSpaceOnUse" x1="3.14439" y1="2.45277" x2="3.16556" y2="2.5444">
   <stop offset="0" style="stop-color:#CD78D1"/>
   <stop offset="1" style="stop-color:#B648B8"/>
  </linearGradient>
  <linearGradient id="id28" gradientUnits="userSpaceOnUse" xlink:href="#id17" x1="1.0565" y1="2.20033" x2="1.07808" y2="2.13018">
  </linearGradient>
  <linearGradient id="id29" gradientUnits="userSpaceOnUse" xlink:href="#id26" x1="0.570861" y1="3.76032" x2="0.597738" y2="3.91624">
  </linearGradient>
  <linearGradient id="id30" gradientUnits="userSpaceOnUse" x1="2.62956" y1="2.27289" x2="2.19389" y2="1.37588">
   <stop offset="0" style="stop-color:#CBA0E6"/>
   <stop offset="0.760784" style="stop-color:#CBB6F2"/>
   <stop offset="1" style="stop-color:#CCCCFF"/>
  </linearGradient>
  <linearGradient id="id31" gradientUnits="userSpaceOnUse" xlink:href="#id25" x1="2.57023" y1="3.66201" x2="2.52301" y2="3.66661">
  </linearGradient>
  <linearGradient id="id32" gradientUnits="userSpaceOnUse" xlink:href="#id25" x1="2.43432" y1="3.68084" x2="2.3901" y2="3.68822">
  </linearGradient>
  <linearGradient id="id33" gradientUnits="userSpaceOnUse" xlink:href="#id18" x1="2.55121" y1="0.741697" x2="2.63161" y2="0.944039">
  </linearGradient>
  <linearGradient id="id34" gradientUnits="userSpaceOnUse" x1="0.436624" y1="2.98506" x2="0.379241" y2="3.13954">
   <stop offset="0" style="stop-color:#88CA68"/>
   <stop offset="1" style="stop-color:#DDF6A2"/>
  </linearGradient>
  <linearGradient id="id35" gradientUnits="userSpaceOnUse" xlink:href="#id34" x1="0.403898" y1="3.46873" x2="0.442472" y2="3.60188">
  </linearGradient>
  <linearGradient id="id36" gradientUnits="userSpaceOnUse" x1="3.86998" y1="3.3634" x2="3.9672" y2="3.3337">
   <stop offset="0" style="stop-color:#B648B8"/>
   <stop offset="1" style="stop-color:#9C2E8D"/>
  </linearGradient>
  <linearGradient id="id37" gradientUnits="userSpaceOnUse" x1="1.90756" y1="1.31171" x2="1.49748" y2="1.1857">
   <stop offset="0" style="stop-color:#AADA94"/>
   <stop offset="1" style="stop-color:#88CA68"/>
  </linearGradient>
  <linearGradient id="id38" gradientUnits="userSpaceOnUse" xlink:href="#id25" x1="2.68968" y1="3.65149" x2="2.64426" y2="3.63769">
  </linearGradient>
  <linearGradient id="id39" gradientUnits="userSpaceOnUse" xlink:href="#id25" x1="1.71545" y1="3.24621" x2="1.66037" y2="3.26376">
  </linearGradient>
  <linearGradient id="id40" gradientUnits="userSpaceOnUse" x1="3.25078" y1="2.89808" x2="3.23751" y2="2.83599">
   <stop offset="0" style="stop-color:#BC54BE"/>
   <stop offset="1" style="stop-color:#B648B8"/>
  </linearGradient>
  <linearGradient id="id41" gradientUnits="userSpaceOnUse" xlink:href="#id25" x1="1.5566" y1="3.29919" x2="1.5141" y2="3.31594">
  </linearGradient>
  <linearGradient id="id42" gradientUnits="userSpaceOnUse" xlink:href="#id17" x1="1.17457" y1="1.76276" x2="1.15072" y2="1.84039">
  </linearGradient>
  <linearGradient id="id43" gradientUnits="userSpaceOnUse" x1="1.36106" y1="1.48028" x2="1.68656" y2="1.57758">
   <stop offset="0" style="stop-color:#88CA68"/>
   <stop offset="1" style="stop-color:#98D27E"/>
  </linearGradient>
  <linearGradient id="id44" gradientUnits="userSpaceOnUse" x1="2.95359" y1="3.24216" x2="3.02603" y2="3.23595">
   <stop offset="0" style="stop-color:#B24AAE"/>
   <stop offset="1" style="stop-color:#9C2E8D"/>
  </linearGradient>
  <linearGradient id="id45" gradientUnits="userSpaceOnUse" x1="3.27672" y1="3.96996" x2="3.17887" y2="4.00825">
   <stop offset="0" style="stop-color:#7C2772"/>
   <stop offset="1" style="stop-color:#660066"/>
  </linearGradient>
  <linearGradient id="id46" gradientUnits="userSpaceOnUse" x1="2.52559" y1="2.06857" x2="2.57616" y2="2.03703">
   <stop offset="0" style="stop-color:#330066"/>
   <stop offset="1" style="stop-color:black"/>
  </linearGradient>
  <radialGradient id="id47" gradientUnits="userSpaceOnUse" cx="2.05676" cy="2.05676" r="2.05676" fx="2.05676" fy="2.05676">
   <stop offset="0" style="stop-color:black"/>
   <stop offset="0.701961" style="stop-color:#313131"/>
   <stop offset="1" style="stop-color:#626262"/>
  </radialGradient>
  <radialGradient id="id48" gradientUnits="userSpaceOnUse" cx="3.46819" cy="1.35389" r="1.54789" fx="3.46819" fy="1.35389">
   <stop offset="0" style="stop-color:#E0A0E6"/>
   <stop offset="1" style="stop-color:#B648B8"/>
  </radialGradient>
  <radialGradient id="id49" gradientUnits="userSpaceOnUse" cx="2.05678" cy="2.05675" r="0.236924" fx="2.05678" fy="2.05675">
   <stop offset="0" style="stop-color:#FFFF66"/>
   <stop offset="0.321569" style="stop-color:#CCCC33"/>
   <stop offset="0.619608" style="stop-color:#949426"/>
   <stop offset="1" style="stop-color:#333300"/>
  </radialGradient>
  <radialGradient id="id50" gradientUnits="userSpaceOnUse" cx="2.95042" cy="1.67764" r="0.265143" fx="2.95042" fy="1.67764">
   <stop offset="0" style="stop-color:#FEFEFE"/>
   <stop offset="0.419608" style="stop-color:white"/>
   <stop offset="1" style="stop-color:#B7F145"/>
  </radialGradient>
  <radialGradient id="id51" gradientUnits="userSpaceOnUse" cx="2.93064" cy="1.60927" r="0.105956" fx="2.93064" fy="1.60927">
   <stop offset="0" style="stop-color:#333333"/>
   <stop offset="1" style="stop-color:black"/>
  </radialGradient>
  <radialGradient id="id52" gradientUnits="userSpaceOnUse" cx="2.98859" cy="1.78001" r="0.31044" fx="2.98859" fy="1.78001">
   <stop offset="0" style="stop-color:#FEFEFE"/>
   <stop offset="0.741176" style="stop-color:#F2F2F2"/>
   <stop offset="1" style="stop-color:#B3B3B3"/>
  </radialGradient>
  <radialGradient id="id53" gradientUnits="userSpaceOnUse" xlink:href="#id48" cx="3.07853" cy="1.78523" r="1.02235" fx="3.07853" fy="1.78523">
  </radialGradient>
  <radialGradient id="id54" gradientUnits="userSpaceOnUse" cx="2.96681" cy="1.58353" r="0.0622889" fx="2.96681" fy="1.58353">
   <stop offset="0" style="stop-color:#1A1A1A"/>
   <stop offset="1" style="stop-color:black"/>
  </radialGradient>
 </defs>
 <g id="Layer_x0020_1">
  <metadata id="CorelCorpID_0Corel-Layer"/>
  <g id="_354767392">
   <rect id="_348839552" class="fil0" x="0.11188" y="0.11185" width="3.88982" height="3.88982" rx="0.693973" ry="0.693973"/>
   <g>
    <path id="_346477248" class="fil1" d="M3.10321 1.1109c-0.314505,-0.564212 0.189681,-0.89504 0.230009,-0.644501 0.00821658,0.051078 -0.0483731,0.0892957 -0.0889478,0.0881934 -0.0531771,-0.00145412 -0.0622107,-0.0772679 -0.0624882,-0.0872904 -0.000277534,-0.0100225 -0.269924,0.0819703 -0.0785735,0.643598z"/>
    <g>
     <path id="_346477080" class="fil2" d="M2.68373 1.21506c0.0351452,-0.64499 -0.563062,-0.721136 -0.489402,-0.478297 0.0150181,0.0495066 0.0826388,0.0590288 0.118617,0.0402386 0.0471496,-0.0246302 0.0220112,-0.0967266 0.0178638,-0.105854 -0.00414738,-0.00912736 0.278527,-0.0447338 0.352922,0.543912z"/>
     <path id="_346476912" class="fil3" d="M2.28165 0.610255c-0.0151237,0.0145686 -0.0290551,0.028246 -0.0358254,0.0355439 -0.0743909,0.0801605 0.0260921,0.140206 0.090269,0.105823 -0.00422556,0.010257 -0.011461,0.019275 -0.0231487,0.0253807 -0.0359778,0.0187902 -0.103598,0.00926808 -0.118617,-0.0402386 -0.0229454,-0.0756535 0.0193258,-0.120325 0.0873217,-0.126509z"/>
     <path id="_346476672" class="fil4" d="M2.35566 0.61697c-0.0973168,-0.0240673 -0.175984,0.0115274 -0.166782,0.0935681 0.00720807,-0.0271554 0.0213897,-0.0687777 0.0515354,-0.0800667 0.0301457,-0.011289 0.0678552,-0.0120004 0.115247,-0.0135015z"/>
    </g>
    <path id="_346476528" class="fil5 str0" d="M3.63899 1.17586c0,0 -0.0380769,-0.658698 -0.815611,-0.423232 -0.777534,0.235466 -0.607288,0.640639 -0.575098,0.776666 0.0321901,0.136027 0.00513243,0.120481 0.00513243,0.120481l-0.060006 -0.210555c0,0 -0.200954,-0.55012 0.593349,-0.739308 0.794303,-0.189188 0.835214,0.315775 0.898773,0.469991 0.0635593,0.154219 -0.0465398,0.00595721 -0.0465398,0.00595721z"/>
    <path id="_346476360" class="fil3" d="M3.19925 0.391018c0.0199825,0.00646147 0.038503,0.0126415 0.0477906,0.016226 0.102015,0.0394099 0.0380496,0.137446 -0.0347035,0.134698 0.00829476,0.00736443 0.0187512,0.0122897 0.031936,0.0126532 0.0405747,0.00110232 0.0971644,-0.0371153 0.0889478,-0.0881934 -0.0125672,-0.0780497 -0.0701536,-0.0996544 -0.133971,-0.0753838z"/>
    <g>
     <path id="_346476192" class="fil6 str1" d="M2.24828 1.52929c0.0209753,-0.00808758 0.0921922,-0.0398203 0.156615,-0.0603852 0.0274524,-0.00876383 -0.0263814,0.135038 0.00210692,0.175445 0.0454883,0.0645209 0.091387,0.151502 0.129659,0.250766 0.0723192,0.187558 0.221339,0.332467 0.188481,0.40434 -0.00732143,0.016011 -0.143708,0.055413 -0.156615,0.0603891 -0.0708338,0.0273117 -0.199946,-0.136473 -0.288382,-0.365821 -0.0884318,-0.229353 -0.102699,-0.437417 -0.0318656,-0.464733z"/>
     <path id="_346476096" class="fil7 str1" d="M2.4049 1.4689c0.0708338,-0.0273156 0.199946,0.136473 0.288382,0.365821 0.0884318,0.229349 0.102699,0.437417 0.0318656,0.464729 -0.0708338,0.0273156 -0.199946,-0.136473 -0.288382,-0.365821 -0.0884318,-0.229349 -0.102699,-0.437417 -0.0318656,-0.464729z"/>
     <path id="_346475928" class="fil8 str1" d="M2.48383 1.67362c0.0359153,-0.0138454 0.101378,0.0691959 0.146214,0.185483 0.0448394,0.116287 0.0520748,0.221781 0.0161595,0.235627 -0.0359153,0.0138494 -0.101378,-0.069192 -0.146218,-0.185479 -0.0448355,-0.116287 -0.0520709,-0.221781 -0.0161556,-0.235631z"/>
    </g>
    <path id="_346475784" class="fil9" d="M2.99812 4.09377c-0.0424901,-0.337447 -0.16638,-1.3051 -0.216438,-1.52178 -0.145971,-0.631832 -1.11079,-1.46916 0.103368,-1.74607 1.21415,-0.276917 0.670437,1.43796 0.883837,1.92578 0.0314356,0.0718697 0.0596034,0.137852 0.0851288,0.19977 -0.0473215,-0.0157452 -0.0965038,0.00176293 -0.0879823,0.0603227 0.0774047,0.357632 0.132255,0.664151 0.143329,0.871462l-0.911243 0.210523z"/>
    <path id="_354670624" class="fil10" d="M2.83717 0.837501c0.0156318,-0.00394802 0.0314669,-0.00784523 0.0478844,-0.0115861 1.21415,-0.276917 0.670445,1.43796 0.883837,1.92578 0.157401,0.359806 0.221128,0.509764 0.282569,0.764595l-0.0444641 0.128483c-0.0711895,-0.329789 -0.128999,-0.467438 -0.308118,-0.876907 -0.212067,-0.484778 0.323288,-2.18108 -0.861709,-1.93036z"/>
    <path id="_346475448" class="fil11" d="M2.99812 4.09377c-0.0424901,-0.337447 -0.16638,-1.3051 -0.216438,-1.52178 -0.149552,-0.647335 -1.11498,-1.51639 0.178474,-1.76079 -1.05091,0.300925 -0.311468,1.12989 -0.152038,1.60093 0.072112,0.213064 0.304565,1.28308 0.38084,1.63756l-0.190838 0.0440889z"/>
    <path id="_346475280" class="fil3" d="M2.54037 1.71947c0,0 0.536032,-0.00115704 0.815689,-0.231757 -0.157905,-0.537197 -1.00217,-0.238816 -0.815689,0.231757z"/>
    <path id="_346475112" class="fil12" d="M2.9926 4.04998c0,0 -0.150025,-1.21442 -0.210914,-1.47799 -0.145971,-0.631832 -1.11079,-1.46916 0.103368,-1.74607 0.00263462,-0.000601976 0.00510898,-0.00101632 0.00772796,-0.00160266 -1.18801,0.280861 -0.231925,1.11318 -0.0866454,1.74202 0.0608934,0.263572 0.210914,1.478 0.210914,1.478l-0.0244504 0.00564841z"/>
    <path id="_346474944" class="fil13" d="M2.54214 1.72713c0,0 0.536032,-0.00115704 0.815689,-0.231757 -0.157905,-0.537197 -1.00217,-0.238816 -0.815689,0.231757z"/>
    <path id="_346474776" class="fil14" d="M2.51972 1.64172c0,0 0.397695,-0.353868 0.832126,-0.164824 0.337349,1.00903 -0.698628,1.13685 -0.832126,0.164824z"/>
    <path id="_346474608" class="fil15" d="M2.54018 1.67204c0,0 0.43284,-0.310244 0.806253,-0.147754 0.29815,0.886339 -0.68379,0.999565 -0.806253,0.147754z"/>
    <path id="_346474440" class="fil16 str2" d="M2.74468 1.56389c0.103333,-0.0452303 0.237214,-0.0873021 0.376759,-0.0865712 0.0780262,0.0472746 0.136594,0.131282 0.15214,0.232984 0.0263931,0.172681 -0.0811964,0.330954 -0.240317,0.353516 -0.159117,0.0225624 -0.309505,-0.0991345 -0.335899,-0.271812 -0.0128604,-0.0841359 0.00609794,-0.164851 0.0473176,-0.228118z"/>
    <path id="_346474344" class="fil17 str0" d="M2.92107 1.52903c0.0680428,-0.00964725 0.131411,0.0362436 0.141539,0.102504 0.010132,0.0662642 -0.0368182,0.127799 -0.104861,0.137446 -0.0680428,0.00964725 -0.131414,-0.0362436 -0.141542,-0.102508 -0.010128,-0.0662603 0.0368222,-0.127795 0.104865,-0.137442z"/>
    <path id="_346474176" class="fil18" d="M2.92107 1.52903c0.0654903,-0.00929154 0.126638,0.032878 0.140167,0.0951317 -0.0311855,-0.01777 -0.0723465,-0.0253025 -0.115853,-0.0183251 -0.0560541,0.00899055 -0.102144,0.0398438 -0.124969,0.0786907 -0.00184893,-0.0058204 -0.00326396,-0.011848 -0.00420992,-0.0180554 -0.010132,-0.0662603 0.0368261,-0.127795 0.104865,-0.137442z"/>
    <path id="_346474008" class="fil19" d="M2.9731 1.54511c0.0505308,0.00886155 0.0741134,0.0889595 0.0308102,0.0445032 -0.0433032,-0.0444524 -0.0598653,-0.0497216 -0.0308102,-0.0445032z"/>
    <path id="_346473840" class="fil20" d="M3.35154 1.47499c-0.4234,-0.187711 -0.815306,0.146335 -0.831817,0.166736 0.000426074,0.00240399 0.000254081,0.00314669 0.00123522,0.00860356 -0.00727843,-0.00276752 0.387708,-0.358093 0.83471,-0.161728 -0.00234927,-0.0070439 -0.00188411,-0.00720026 -0.00412783,-0.0136109z"/>
    <path id="_346473672" class="fil21" d="M2.98111 4.0977c-0.0426269,-0.243456 -0.136172,-0.793592 -0.123886,-0.864425 0.0158429,-0.091344 0.0961715,-0.130562 0.144537,-0.0618354 0.0521999,0.176911 0.195517,0.623389 0.318856,0.847824l-0.339507 0.0784367z"/>
    <path id="_346473504" class="fil22" d="M2.95639 4.10341c-0.0331751,-0.245372 -0.106124,-0.799717 -0.0986068,-0.875241 0.00969416,-0.0974224 0.113457,-0.165743 0.143982,-0.0567304 0.0722332,0.366205 0.144787,0.674733 0.217974,0.871133l-0.263349 0.0608386z"/>
    <path id="_346473336" class="fil23" d="M2.95653 4.10338c-0.0334097,-0.249249 -0.107656,-0.816901 -0.0987475,-0.87521 0.0114493,-0.0749577 0.020346,-0.0820524 0.0586184,-0.102664 -0.0459612,0.0284258 -0.0443938,0.0684962 -0.0492408,0.106855 -0.00378385,0.0299659 0.0803247,0.611416 0.117334,0.864558l-0.0279645 0.00646147z"/>
    <path id="_346473168" class="fil24" d="M4.04115 3.47456c-0.0550925,-0.237433 -0.083487,-0.412346 -0.121881,-0.470198 -0.0496395,-0.0747896 -0.136691,-0.0750007 -0.153238,0.00742306 0.0222731,0.182766 0.118753,0.619324 0.125016,0.875691l0.150103 -0.412916z"/>
    <path id="_356768136" class="fil25" d="M4.08399 3.52559c-0.0673079,-0.234032 -0.143481,-0.488136 -0.167205,-0.525548 -0.0453827,-0.0715648 -0.163593,-0.0765056 -0.150752,0.0117424 0.0647241,0.299041 0.113668,0.562327 0.134448,0.761777l0.165367 -0.195548 0.0181414 -0.0524227z"/>
    <path id="_346472832" class="fil26" d="M3.80929 2.94693c-0.0284883,0.00453827 -0.0490024,0.0253494 -0.0432602,0.064857 0.0774125,0.357628 0.129909,0.627212 0.140987,0.834522l0.009143 -0.00211473c-0.011074,-0.20731 -0.063571,-0.47689 -0.140976,-0.834522 -0.00510507,-0.0351296 0.0105463,-0.0554756 0.0341054,-0.0627423z"/>
    <path id="_346472664" class="fil27" d="M3.42988 2.7397c0.0380222,-0.0485294 0.0288714,0.115599 0.0288714,0.115599 -0.0029747,-0.000398711 0.0091899,0.13736 -0.178885,0.182977 -0.188074,0.0456212 -0.238875,-0.0864617 -0.238875,-0.0864617 0,0 -0.0698605,-0.161138 -0.0141073,-0.121142 0.142836,0.102473 0.264365,0.0859496 0.402995,-0.0909726z"/>
    <path id="_346472496" class="fil28" d="M3.35804 2.49279c0.0569532,-0.0332064 0.0488734,-0.0824277 0.0488734,-0.0824277 -0.00318187,0.00182156 -0.0425136,-0.0678747 -0.278535,-0.0155146 -0.236025,0.0523563 -0.243355,0.136086 -0.243355,0.136086 0,0 0.0143341,0.0478023 0.0800745,0.0526377 0.186515,0.0137204 0.228438,0.00514416 0.392942,-0.0907811z"/>
    <g>
     <g>
      <path id="_346472328" class="fil29" d="M3.27843 2.39784c-0.0078765,0.0196658 -0.0431273,0.0102453 -0.0568515,-0.0323894 -0.0158234,-0.0491509 0.0642707,0.0101515 0.0568515,0.0323894z"/>
      <path id="_346472088" class="fil30" d="M3.26125 2.39472c0.00723934,0.0241768 -0.0302161,5.47251e-005 -0.0373929,-0.0252165 -0.0105111,-0.0369941 0.0301535,0.00103978 0.0373929,0.0252165z"/>
     </g>
     <g>
      <path id="_346471944" class="fil29" d="M2.97792 2.4589c0.0157061,0.0142207 0.0432523,-0.00970588 0.0368847,-0.054041 -0.00734098,-0.0511093 -0.0533061,0.0373108 -0.0368847,0.054041z"/>
      <path id="_346471800" class="fil30" d="M2.99199 2.44857c0.00410047,0.0249038 0.0271788,-0.0132044 0.0225467,-0.039062 -0.00678591,-0.037858 -0.0266472,0.0141582 -0.0225467,0.039062z"/>
     </g>
    </g>
    <path id="_346471560" class="fil31" d="M3.40728 2.40447c0.116713,0.439708 -0.383122,0.607468 -0.523864,0.126982 0.0440967,0.107683 0.505839,0.0348012 0.523864,-0.126982z"/>
    <g style="clip-path:url(#id0)">
     <g>
      <ellipse id="_346805928" class="fil32" transform="matrix(0.782246 -0.18072 0.18072 0.782246 3.23964 2.79841)" rx="0.374253" ry="0.0711739"/>
     </g>
    </g>
    <path class="fil33" d="M3.40728 2.40447c0.116713,0.439708 -0.383122,0.607468 -0.523864,0.126982 0.0440967,0.107683 0.505839,0.0348012 0.523864,-0.126982z"/>
    <path id="_346471392" class="fil4" d="M3.04373 0.552465c0.0737303,-0.157241 0.220843,-0.216707 0.273059,-0.13274 -0.0114727,-0.0140174 -0.026741,-0.0225545 -0.0470127,-0.0219565 -0.109415,0.00324832 -0.174714,0.0701106 -0.226046,0.154696z"/>
    <g>
     <path id="_346471224" class="fil34 str1" d="M3.57232 1.18562c0.0223122,-0.00275971 0.0990993,-0.0162729 0.166587,-0.0206001 0.0287541,-0.00184502 -0.0583447,0.124609 -0.0405044,0.170719 0.0284766,0.0736287 0.0519106,0.169143 0.0649665,0.274724 0.0246732,0.1995 0.1341,0.376223 0.0847887,0.437984 -0.0109841,0.0137555 -0.152855,0.0189036 -0.166583,0.0206001 -0.0753447,0.0093189 -0.16088,-0.18089 -0.191049,-0.424842 -0.0301691,-0.243953 0.00645365,-0.449265 0.0817944,-0.458584z"/>
     <path id="_346471128" class="fil35 str1" d="M3.7389 1.16502c0.0753447,-0.0093189 0.16088,0.18089 0.191049,0.424842 0.0301691,0.243949 -0.00645365,0.449265 -0.0817983,0.458584 -0.0753408,0.00931499 -0.16088,-0.180894 -0.191049,-0.424842 -0.0301691,-0.243953 0.00645365,-0.449269 0.0817983,-0.458584z"/>
     <path id="_346470960" class="fil36" d="M3.76583 1.38277c0.038202,-0.0047259 0.0815677,0.0917153 0.0968673,0.215402 0.0152957,0.12369 -0.00327178,0.227789 -0.0414738,0.232511 -0.038202,0.0047259 -0.0815677,-0.0917153 -0.0968673,-0.215402 -0.0152957,-0.12369 0.00327178,-0.227789 0.0414738,-0.232511z"/>
    </g>
    <path id="_346470816" class="fil37 str0" d="M2.43383 0.78002c0,0 -0.0836004,0.108238 0.0310057,0.151573 0.114606,0.0433383 0.0529309,-0.170969 0.655442,-0.163483 0.126321,-0.0794139 -0.00489008,-0.162971 -0.113351,-0.157409 -0.108457,0.00556241 -0.256184,-0.0244543 -0.573097,0.169319z"/>
   </g>
   <g>
    <polygon id="_353054024" class="fil38" points="0.0681483,3.59279 1.10045,3.59279 1.10045,4.08378 0.667466,4.08201 0.332709,3.91484 0.0907185,3.62485 "/>
    <path id="_353055416" class="fil39" d="M0.0436745 2.9248c0.175945,-0.0864617 0.392277,-0.156912 0.560823,-0.141535 0.028203,0.00483144 0.0489164,0.0130988 0.0870676,0.0106206 0.0476499,-0.0317171 0.0702435,-0.0154559 0.139006,-0.225268 0.0687621,-0.209808 0.239496,-0.00831039 0.239496,-0.00831039 0,0 -0.0975474,0.189419 -0.0669835,0.30881 0.00239227,0.102426 1.50029,0.689853 1.50029,0.689853l-0.101589 0.228161c0.000297079,0.00416692 -1.20055,-0.69907 -1.29459,-0.498921 -0.094045,0.200153 -0.0528449,0.08602 0.0487483,0.362683l-0.97273 0.0540527c0,0 0.151557,-0.490341 0.195994,-0.576181 0.0363335,-0.0701849 -0.191045,-0.0238601 -0.335527,0.0736756l0 -0.27764z"/>
    <path id="_353055656" class="fil40" d="M2.39974 3.77317l-0.0167654 0.0376548c0,0 -1.30137,-0.772245 -1.39516,-0.568574 -0.093791,0.203667 -0.0978484,0.275975 -0.153457,0.420253l-0.0651541 -0.0290121c0.0500969,-0.138204 0.108645,-0.298256 0.187453,-0.469396 0.078808,-0.171141 1.14511,0.508142 1.44309,0.609074z"/>
    <path id="_353056208" class="fil41" d="M1.95505 3.35345l0.259276 0.0844721c0,0 -1.13272,-0.399348 -1.22651,-0.195677 -0.093791,0.203667 -0.0978484,0.275975 -0.153457,0.420253l-0.0154364 -0.00687191c0.0471261,-0.131508 0.0952763,-0.305045 0.163034,-0.437949 0.0677575,-0.1329 0.607007,0.0151041 0.973094,0.135773z"/>
    <path id="_353056856" class="fil42" d="M0.291094 3.42061l-0.0323191 -0.0143888c0,0 0.0759897,-0.191612 0.120426,-0.277452 0.0363335,-0.0701849 -0.191045,-0.0238601 -0.335527,0.0736756l0 -0.0598536c0.173842,-0.0968673 0.372549,-0.166915 0.375222,-0.0839014 0.0035454,0.110107 -0.0584542,0.183266 -0.127803,0.36192z"/>
    <path id="_353055536" class="fil43" d="M0.171762 2.86776c0.149517,-0.0701458 0.344311,-0.0997443 0.432735,-0.0844916 0.028203,0.00483144 0.0489164,0.0130988 0.0870676,0.0106206 0.0476499,-0.0317171 0.0702435,-0.0154559 0.139006,-0.225268 0.0687621,-0.209808 0.239496,-0.00831039 0.239496,-0.00831039 0,0 -0.0975474,0.189419 -0.0669835,0.30881 0.000238445,0.0102023 0.0136344,0.0217728 0.0372482,0.0343009 -0.0479665,0.0174378 -0.108172,0.0279684 -0.175746,0.0151276 -0.155822,-0.0296141 -0.383814,-0.0900462 -0.536185,-0.0573089 -0.15237,0.0327373 -0.116701,-0.00299424 -0.156639,0.0065201z"/>
    <path id="_353057048" class="fil44" d="M0.0436745 2.92079c0.162772,-0.0851327 0.366267,-0.155282 0.560823,-0.137524 0.028203,0.00483144 0.0489164,0.0130988 0.0870676,0.0106206 0.0476499,-0.0317171 0.0702435,-0.0154559 0.139006,-0.225268 0.0358097,-0.109263 0.0992674,-0.106964 0.15187,-0.0796836 -0.0481815,-0.0177974 -0.101863,-0.0462935 -0.152038,0.106796 -0.0501751,0.153089 -0.0821931,0.171219 -0.129839,0.202936 -0.0381512,0.00247826 -0.0488539,-0.00210301 -0.0770568,-0.00693445 -0.216352,-0.0130363 -0.421192,0.0524853 -0.579832,0.133021l0 -0.00396366zm0.228817 0.491533l-0.0137164 -0.00610575c0,0 0.0953311,-0.229407 0.120426,-0.277452 0.00345159,-0.00661392 -0.00387766,0.0225037 -0.0252986,0.0760913 -0.00664128,0.0166012 -0.0488578,0.0913088 -0.0814114,0.207467z"/>
    <g>
     <path id="_353055152" class="fil45" d="M1.36853 3.45447c0.691514,0.0395271 1.31599,0.0912345 1.31599,0.0912345 0,0 0.067519,-0.0021421 0.401584,0.014678 0.287522,-0.062238 0.349826,0.15366 0.189568,0.261078 -0.128827,0.0863562 -0.180667,-0.0121333 -0.257732,-0.0362514 -0.104974,-0.0328468 -0.173158,-0.0225741 -0.22182,-0.0256543 -0.112698,-0.00712599 -0.851389,-0.0477554 -1.48424,-0.0781591 0.0248843,-0.0348091 0.0736639,-0.0501282 0.0816693,-0.0910352 0.0080055,-0.0409031 0.00386984,-0.0847066 -0.0250172,-0.13589z"/>
     <path id="_353056736" class="fil46" d="M1.37636 3.09439c0.691518,0.039531 1.31599,0.0912384 1.31599,0.0912384 0,0 0.067519,-0.0021421 0.401584,0.0146741 0.287526,-0.0622341 0.349826,0.153664 0.189568,0.261082 -0.128827,0.0863523 -0.180663,-0.0121333 -0.257732,-0.0362514 -0.104974,-0.0328468 -0.173158,-0.0225741 -0.22182,-0.0256543 -0.112698,-0.00712599 -0.851385,-0.0477554 -1.48424,-0.0781591 0.0248843,-0.0348091 0.0736639,-0.0501282 0.0816693,-0.0910352 0.0080055,-0.040907 0.00386984,-0.0847066 -0.0250172,-0.135894z"/>
     <path id="_353057192" class="fil47 str0" d="M3.14824 3.22217c-0.011074,-0.0062113 -0.0250875,-0.00226718 -0.0312988,0.00880683 -0.0062113,0.0110779 -0.00227109,0.0250875 0.00880683,0.0312988 0.011074,0.0062113 0.0250875,0.00227109 0.0312988,-0.00880683 0.0062113,-0.011074 0.00226718,-0.0250875 -0.00880683,-0.0312988z"/>
     <path id="_353057288" class="fil47 str0" d="M3.2538 3.27634c-0.011074,-0.0062113 -0.0250875,-0.00227109 -0.0312988,0.00880683 -0.0062113,0.011074 -0.00226718,0.0250875 0.00880683,0.0312988 0.0110779,0.0062113 0.0250875,0.00226718 0.0312988,-0.00880683 0.0062113,-0.0110779 0.00227109,-0.0250875 -0.00880683,-0.0312988z"/>
     <path id="_353057384" class="fil47 str0" d="M3.3128 3.31521c-0.011074,-0.0062113 -0.0250875,-0.00226718 -0.0312988,0.00880683 -0.0062113,0.0110779 -0.00226718,0.0250875 0.00880683,0.0312988 0.0110779,0.0062113 0.0250875,0.00227109 0.0312988,-0.00880683 0.0062113,-0.011074 0.00227109,-0.0250875 -0.00880683,-0.0312988z"/>
     <path id="_353057480" class="fil47 str0" d="M3.31159 3.3717c-0.0110779,-0.0062113 -0.0250875,-0.00226718 -0.0312988,0.00880683 -0.0062113,0.0110779 -0.00227109,0.0250875 0.00880683,0.0312988 0.011074,0.0062113 0.0250875,0.00227109 0.0312988,-0.00880683 0.0062113,-0.011074 0.00226718,-0.0250836 -0.00880683,-0.0312988z"/>
     <polygon id="_353057576" class="fil47 str0" points="2.77892,3.18653 2.819,3.18778 2.80492,3.39973 2.77356,3.40168 "/>
     <path id="_353057744" class="fil48" d="M0.0436745 3.48906c0.0156631,0.0718267 0.043096,0.12869 0.0785617,0.173561l0.0120122 0.0143888c0.216485,0.245848 0.693003,0.093787 0.712571,0.100694 1.45595,0.514048 0.349509,-0.221003 0.735908,-0.591703 0.386398,-0.3707 -0.177767,-0.214694 -0.6018,-0.188172 -0.0285899,0.00179029 -0.818531,-0.515186 -0.937253,0.170254l0 0.320978z"/>
     <path id="_353057936" class="fil49 str3" d="M0.112046 3.22144c-0.110506,0.843517 0.709812,0.518563 0.734837,0.527401 1.36337,0.481358 0.351605,-0.212091 0.713431,-0.559216 0.361827,-0.347121 -0.166462,-0.20104 -0.563527,-0.176203 -0.0274251,0.00171211 -0.791325,-0.505038 -0.88474,0.208018z"/>
     <polygon id="_353058128" class="fil47 str0" points="0.235939,3.00245 0.292236,3.0042 0.272453,3.30193 0.228403,3.30467 "/>
     <path id="_353058296" class="fil50 str0" d="M1.03553 3.05632l0.0562965 0.0017512 -0.0197831 0.297736 -0.0440498 0.00273625 0.00753642 -0.302223zm0.102547 0.00784132l0.0562965 0.0017512 -0.0197831 0.297736 -0.0440498 0.00273625 0.00753642 -0.302223z"/>
     <path id="_353058464" class="fil50 str0" d="M0.577893 3.02588l0.0562965 0.0017512 -0.0197831 0.297736 -0.0440498 0.00273625 0.00753642 -0.302223zm0.102547 0.00784132l0.0562965 0.0017512 -0.0197831 0.297736 -0.0440498 0.00273625 0.00753642 -0.302223z"/>
     <path id="_353058632" class="fil51 str0" d="M0.267168 3.06263c-0.0297313,-0.0171524 2.86982,0.179588 2.86982,0.179588"/>
     <line id="_353058728" class="fil51 str0" x1="0.250731" y1="3.11887" x2="3.24255" y2= "3.29639" />
     <path id="_353058824" class="fil50 str0" d="M1.01365 3.39207l0.0562965 0.00175511 -0.0197831 0.297732 -0.0440498 0.00273625 0.00753642 -0.302223zm0.102547 0.00784132l0.0562965 0.0017512 -0.0197831 0.297736 -0.0440498 0.00273625 0.00753642 -0.302223z"/>
     <line id="_353058992" class="fil51 str0" x1="0.251966" y1="3.18848" x2="3.30337" y2= "3.34057" />
     <line id="_353059088" class="fil51 str0" x1="0.25831" y1="3.24899" x2="3.30104" y2= "3.38961" />
     <path id="_353059184" class="fil47 str0" d="M3.14041 3.58224c-0.0110779,-0.0062113 -0.0250875,-0.00227109 -0.0312988,0.00880683 -0.0062113,0.011074 -0.00227109,0.0250875 0.00880683,0.0312988 0.011074,0.0062113 0.0250875,0.00226718 0.0312988,-0.00880683 0.0062113,-0.0110779 0.00226718,-0.0250875 -0.00880683,-0.0312988z"/>
     <path id="_353059280" class="fil47 str0" d="M3.24597 3.63641c-0.011074,-0.0062113 -0.0250875,-0.00227109 -0.0312988,0.00880683 -0.0062113,0.011074 -0.00226718,0.0250875 0.00880683,0.0312988 0.0110779,0.0062113 0.0250875,0.00227109 0.0312988,-0.00880683 0.0062113,-0.011074 0.00227109,-0.0250875 -0.00880683,-0.0312988z"/>
     <path id="_353059376" class="fil47 str0" d="M3.30498 3.67528c-0.011074,-0.0062113 -0.0250875,-0.00227109 -0.0312988,0.00880683 -0.0062113,0.011074 -0.00226718,0.0250875 0.00880683,0.0312988 0.0110779,0.0062113 0.0250875,0.00226718 0.0312988,-0.00880683 0.0062113,-0.0110779 0.00227109,-0.0250875 -0.00880683,-0.0312988z"/>
     <path id="_353059472" class="fil47 str0" d="M3.30376 3.73177c-0.011074,-0.0062113 -0.0250836,-0.00227109 -0.0312988,0.00880683 -0.0062113,0.011074 -0.00226718,0.0250875 0.00880683,0.0312988 0.0110779,0.0062113 0.0250875,0.00226718 0.0312988,-0.00880683 0.0062152,-0.0110779 0.00227109,-0.0250875 -0.00880683,-0.0312988z"/>
     <polygon id="_353059568" class="fil47 str0" points="2.7711,3.5466 2.81118,3.54785 2.7971,3.7598 2.76574,3.76175 "/>
     <polygon id="_353059736" class="fil47 str0" points="0.228118,3.36252 0.284414,3.36427 0.264631,3.662 0.220581,3.66474 "/>
     <path id="_353059904" class="fil50 str0" d="M0.570071 3.38595l0.0562965 0.00175511 -0.0197831 0.297732 -0.0440498 0.00273625 0.00753642 -0.302223zm0.102547 0.00784132l0.0562965 0.0017512 -0.0197831 0.297736 -0.0440498 0.00273625 0.00753642 -0.302223z"/>
     <path id="_353060072" class="fil51 str0" d="M0.259342 3.4227c-0.0297313,-0.0171563 2.86983,0.179588 2.86983,0.179588"/>
     <line id="_353060168" class="fil51 str0" x1="0.242909" y1="3.47894" x2="3.23473" y2= "3.65646" />
     <line id="_353060264" class="fil51 str0" x1="0.244144" y1="3.54855" x2="3.29555" y2= "3.70063" />
     <line id="_353060360" class="fil51 str0" x1="0.250488" y1="3.60906" x2="3.29321" y2= "3.74968" />
    </g>
    <g>
     <g>
      <path id="_353060576" class="fil52" d="M1.8525 3.24589c0.0147601,-0.0735153 0.0607175,-0.0805553 0.0364704,-0.141046 -0.0242432,-0.0604907 -0.138259,-0.0721863 -0.154161,0.038546 -0.0159055,0.110728 0.0345667,0.0945727 0.0154247,0.148668 -0.0191381,0.0540957 -0.00793514,0.111061 0.059752,0.0891628 0.105815,-0.0342305 0.0277495,-0.0618159 0.0425136,-0.135331z"/>
      <path id="_353060768" class="fil42" d="M1.82054 3.0596c-0.0373616,-0.00171211 -0.0768535,0.021933 -0.0857346,0.0837841 -0.0159055,0.110728 0.0345667,0.0945727 0.0154247,0.148668 -0.0190443,0.053826 -0.00804068,0.110486 0.0587591,0.0894716 -0.0398281,-0.00292388 -0.0446127,-0.0493347 -0.0288753,-0.0938144 0.0191381,-0.0540957 -0.0313301,-0.0379401 -0.0154286,-0.148668 0.00650447,-0.0452655 0.029403,-0.0700637 0.0558548,-0.0794413z"/>
      <path id="_353060960" class="fil53" d="M1.8525 3.24589c0.0147601,-0.0735153 0.0607175,-0.0805553 0.0364704,-0.141046 -0.0130676,-0.0326044 -0.0522155,-0.0510194 -0.0880253,-0.043741 0.0321744,-0.00152839 0.0644114,0.0162416 0.0760327,0.0452303 0.0242432,0.0604907 -0.0217141,0.0675346 -0.0364743,0.14105 -0.014764,0.0735153 0.0633013,0.101097 -0.0425136,0.135331 -0.00433501,0.0013994 -0.00843939,0.00247435 -0.012321,0.00325223 0.00712599,-0.000289261 0.0152058,-0.00179811 0.0243175,-0.00474545 0.105815,-0.0342305 0.0277495,-0.0618159 0.0425136,-0.135331z"/>
     </g>
     <g>
      <path id="_353061200" class="fil54" d="M1.68697 3.28282c-0.0099326,-0.0743206 0.0720143,-0.125926 0.0294304,-0.175253 -0.0425839,-0.0493268 -0.155404,0.0146311 -0.134456,0.124519 0.0209519,0.109888 0.0456798,0.0814231 0.0451599,0.138798 -0.000515979,0.0573792 0.048291,0.0808407 0.0854845,0.0649078 0.10223,-0.0437957 -0.0156866,-0.0786477 -0.0256192,-0.152972z"/>
      <path id="_353061392" class="fil42" d="M1.67647 3.09071c-0.049061,0.000848239 -0.110455,0.0578288 -0.0945258,0.141374 0.0209519,0.109888 0.0456798,0.0814231 0.0451599,0.138798 -0.000515979,0.0573792 0.048291,0.0808407 0.0854845,0.0649078 0.00136031,-0.00058634 0.0026698,-0.00116877 0.00394802,-0.00174729 -0.0307907,-0.000750515 -0.0605728,-0.0248804 -0.0601663,-0.0697627 0.000519888,-0.0573792 -0.0242119,-0.0289144 -0.0451599,-0.138802 -0.0128408,-0.067347 0.0245716,-0.117432 0.0652596,-0.134768z"/>
      <path id="_353061584" class="fil53" d="M1.68697 3.28282c-0.0099326,-0.0743206 0.0720143,-0.125926 0.0294304,-0.175253 -0.0186417,-0.0215929 -0.0507419,-0.0214757 -0.0791872,-0.00530442 0.0254393,-0.0105346 0.0520279,-0.00826739 0.0683282,0.0106128 0.0425839,0.0493229 -0.0393669,0.100933 -0.0294304,0.175253 0.00941271,0.0704351 0.115783,0.105424 0.0398633,0.146167 0.0961402,-0.043096 -0.019185,-0.0780028 -0.0290043,-0.151475z"/>
     </g>
     <g>
      <path id="_353061824" class="fil55" d="M1.57505 3.29751c-0.0149595,-0.059107 0.0108551,-0.0709237 -0.0281482,-0.106792 -0.0389994,-0.0358684 -0.126743,-0.00445228 -0.0995644,0.0823534 0.0271749,0.0868057 0.0607644,0.0782295 0.0656974,0.124625 0.00493698,0.0463951 0.0468837,0.0625859 0.0875914,0.0214991 0.0498975,-0.0503627 -0.0106167,-0.0625781 -0.0255762,-0.121685z"/>
      <path id="_353062016" class="fil42" d="M1.49919 3.17665c-0.0360912,0.00438973 -0.0702201,0.0377486 -0.051852,0.0964178 0.0271749,0.0868096 0.0607644,0.0782295 0.0656974,0.124629 0.00458909,0.043139 0.0411767,0.0601546 0.0790113,0.0293092 -0.0226875,0.00123913 -0.0402503,-0.015968 -0.0433383,-0.044984 -0.00493698,-0.046399 -0.0385225,-0.0378189 -0.0657014,-0.124629 -0.0117933,-0.0376743 -0.00193492,-0.0649078 0.016183,-0.0807429z"/>
      <path id="_353062208" class="fil53" d="M1.57505 3.29751c-0.0149556,-0.059107 0.0108551,-0.0709237 -0.0281482,-0.106792 -0.0212998,-0.0195916 -0.0571369,-0.0191108 -0.0808524,-0.000500343 0.0229298,-0.011848 0.0522429,-0.0099326 0.0706735,0.00702044 0.0390033,0.0358684 0.0131927,0.0476851 0.0281482,0.106792 0.0149595,0.059107 0.0754737,0.0713185 0.0255762,0.121685 -0.00389721,0.0039363 -0.00780223,0.00733316 -0.0116838,0.0102414 0.0071768,-0.00383857 0.0145412,-0.00936971 0.0218627,-0.0167576 0.0498975,-0.0503666 -0.0106167,-0.062582 -0.0255762,-0.121689z"/>
     </g>
    </g>
    <g>
     <g>
      <path id="_353062496" class="fil56" d="M2.69791 3.69147c0.0306695,-0.0645834 0.0726593,-0.0618745 0.0659867,-0.122279 -0.00666864,-0.0604048 -0.103813,-0.0939121 -0.144459,0.00462818 -0.0406412,0.0985403 0.00750515,0.0937753 -0.02232,0.139647 -0.0298252,0.0458674 -0.0337419,0.100432 0.0308845,0.09383 0.10103,-0.0103196 0.0392379,-0.0512422 0.0699074,-0.115826z"/>
      <path id="_353062688" class="fil42" d="M2.71481 3.51397c-0.0323464,-0.00902964 -0.072671,0.00480408 -0.0953741,0.0598458 -0.0406412,0.0985403 0.00750515,0.0937753 -0.02232,0.139647 -0.0296766,0.0456407 -0.0336911,0.0998811 0.0299424,0.0939121 -0.0342149,-0.0106323 -0.0272179,-0.0542208 -0.00269716,-0.0919381 0.0298252,-0.0458674 -0.0183212,-0.0411024 0.0223239,-0.139643 0.016613,-0.0402816 0.0426699,-0.0584894 0.0681249,-0.0618237z"/>
      <path id="_353062880" class="fil53" d="M2.69791 3.69147c0.0306695,-0.0645834 0.0726593,-0.0618745 0.0659867,-0.122279 -0.00359622,-0.0325575 -0.03348,-0.0572893 -0.0666317,-0.0577506 0.0285782,0.00501907 0.0525595,0.0277769 0.055757,0.0567225 0.00666864,0.0604048 -0.0353211,0.0576998 -0.0659906,0.122283 -0.0306695,0.0645834 0.0311268,0.105502 -0.0699035,0.115826 -0.00413956,0.000422165 -0.00799768,0.000590249 -0.01159,0.000527706 0.00632075,0.00115704 0.0137673,0.00138376 0.0224646,0.000496435 0.10103,-0.0103196 0.0392379,-0.0512422 0.0699074,-0.115826z"/>
     </g>
     <g>
      <path id="_353063120" class="fil57" d="M2.54387 3.69235c0.00921336,-0.0702553 0.0935056,-0.101296 0.0680624,-0.15511 -0.0254432,-0.0538104 -0.13978,-0.0175824 -0.147906,0.0875406 -0.00813058,0.105123 0.0204164,0.0839131 0.0061253,0.136516 -0.0142911,0.0526025 0.0228438,0.0838974 0.0592985,0.0766855 0.10019,-0.0198222 0.00521061,-0.075376 0.0144201,-0.145631z"/>
      <path id="_353063312" class="fil42" d="M2.58099 3.51379c-0.0432211,-0.009014 -0.110787,0.0310721 -0.116963,0.110994 -0.00813058,0.105123 0.0204164,0.0839131 0.0061253,0.136516 -0.0142911,0.0526025 0.0228438,0.0838974 0.0592985,0.0766855 0.00133295,-0.000265807 0.00261899,-0.000539433 0.00388157,-0.000816967 -0.0268153,-0.00683672 -0.0471066,-0.0349459 -0.0359309,-0.0760952 0.0142911,-0.0526025 -0.014252,-0.0313926 -0.0061253,-0.136516 0.00497998,-0.064427 0.0498584,-0.102961 0.0897139,-0.110767z"/>
      <path id="_353063504" class="fil53" d="M2.54387 3.69235c0.00921336,-0.0702553 0.0935056,-0.101296 0.0680624,-0.15511 -0.0111366,-0.0235552 -0.0393082,-0.0298525 -0.0681483,-0.0206783 0.0248452,-0.00460081 0.0476108,0.00279098 0.057348,0.0233871 0.0254432,0.0538104 -0.058849,0.0848551 -0.0680624,0.15511 -0.00872865,0.066577 0.0760952,0.119953 -0.000289261,0.142223 0.0946822,-0.0203929 0.00198574,-0.0754815 0.0110896,-0.144932z"/>
     </g>
     <g>
      <path id="_353063744" class="fil58" d="M2.44221 3.68351c0.0011375,-0.0572815 0.0266159,-0.0629846 0.00107105,-0.10372 -0.0255449,-0.040735 -0.110052,-0.0293952 -0.107156,0.0557688 0.00289652,0.0851639 0.0344143,0.0839913 0.0275541,0.127595 -0.00686018,0.0436042 0.026014,0.0668506 0.0716117,0.0372365 0.0558938,-0.0363023 0.00578131,-0.0596034 0.00691881,-0.116881z"/>
      <path id="_353063936" class="fil42" d="M2.40484 3.55734c-0.0327021,-0.00317015 -0.0706696,0.0206587 -0.0687112,0.0782178 0.00289261,0.0851639 0.0344103,0.0839913 0.0275502,0.127595 -0.00637938,0.0405435 0.0215969,0.0634772 0.0622068,0.0426973 -0.0201896,-0.00339295 -0.0314435,-0.0227031 -0.0271515,-0.0499757 0.00686018,-0.0436042 -0.0246576,-0.0424276 -0.0275541,-0.127595 -0.00125477,-0.0369629 0.0139549,-0.0600099 0.0336598,-0.0709393z"/>
      <path id="_353064128" class="fil53" d="M2.44221 3.68351c0.0011375,-0.0572776 0.0266159,-0.0629807 0.00107105,-0.103716 -0.0139549,-0.0222496 -0.0454883,-0.0289613 -0.0707673,-0.0166012 0.0229572,-0.00630511 0.0481972,0.00130558 0.0602718,0.0205571 0.0255449,0.040735 6.64519e-005,0.0464381 -0.00107105,0.103716 -0.0011375,0.0572815 0.048975,0.0805827 -0.00691881,0.116885 -0.00436628,0.00283789 -0.00861138,0.00517934 -0.0127158,0.00707517 0.0072198,-0.00209519 0.0150103,-0.00570313 0.0232112,-0.011031 0.0558938,-0.0363023 0.00578131,-0.0596034 0.00691881,-0.116885z"/>
     </g>
    </g>
    <g>
     <path id="_353064344" class="fil59" d="M0.254722 2.96813c0.0542208,-0.00250172 0.104036,0.00269326 0.138869,-0.0638915 0.0226288,-0.0432602 0.0444524,-0.146112 0.09426,-0.124769 0.0498076,0.0213428 0.030818,0.0906443 -0.0256387,0.150584 -0.0564567,0.0599396 0.0160462,0.0803989 0.0619371,0.0851796 0.045887,0.00478063 0.132759,-0.0301809 0.167189,-0.0293639 0.034426,0.000816967 0.0808563,0.0437019 0.0343439,0.0823143 -0.0465163,0.0386124 -0.0912306,0.0147445 -0.140389,0.00813058 -0.0491587,-0.00661392 -0.097782,0.00087951 -0.0958236,0.02567 0.00195838,0.0247905 0.0574496,0.0466453 0.117968,0.0632622 0.0605181,0.0166169 0.0955343,0.059064 0.0745043,0.0907107 -0.0210301,0.0316467 -0.0640049,0.0376978 -0.112038,-0.0112382 -0.0480369,-0.0489359 -0.088639,-0.0596933 -0.101839,-0.0647788 -0.0132005,-0.00508552 -0.0403597,-0.00655528 -0.0359348,0.020131 0.00442491,0.0266902 0.0297079,0.0481268 0.0427286,0.0721042 0.0130207,0.0239813 0.0145569,0.0642472 -0.0204203,0.079281 -0.0349732,0.0150298 -0.0574261,-0.0153504 -0.0640518,-0.0441358 -0.00662955,-0.0287854 0.0103,-0.0944516 -0.0283867,-0.125402 -0.0386867,-0.0309509 -0.0956321,-0.0573558 -0.139623,-0.0593102 -0.0284922,-0.00126649 -0.123233,-0.00472981 -0.178701,-0.0130324l0 -0.147324c0.0119301,-0.0382059 0.0291098,-0.0677145 0.0596933,-0.0590054 0.0305679,0.0087052 0.0960738,0.0674369 0.151354,0.0648844z"/>
     <path id="_353064536" class="fil60" d="M0.254722 2.96813c0.0542208,-0.00250172 0.104036,0.00269326 0.138869,-0.0638915 0.0226288,-0.0432602 0.0444563,-0.146112 0.09426,-0.124769 0.00230236,0.000985051 0.00445618,0.00207564 0.00646538,0.00326396 -0.0049018,0.000859965 -0.0105189,0.0027128 -0.0172423,0.00576568 -0.0298603,0.0135405 -0.0613585,0.144889 -0.0966327,0.168737 -0.0698057,0.0472043 -0.224838,0.0322995 -0.305749,-0.0277886 -0.00477281,-0.0035454 -0.00890064,-0.00640674 -0.0124812,-0.00871692 0.0102922,-0.0147875 0.0234888,-0.0225155 0.0411572,-0.0174847 0.0305679,0.0087052 0.0960699,0.0674369 0.151354,0.0648844zm0.207107 -0.0376626c-0.0557258,0.0596151 0.0165348,0.0799924 0.0623201,0.0847652 0.045887,0.00477672 0.132759,-0.0301809 0.167189,-0.0293639 0.011246,0.000265807 0.0237702,0.00502689 0.0339217,0.0126571 -0.0532788,-0.00798204 -0.122467,0.0193766 -0.160802,0.0256856 -0.0404301,0.00665691 -0.157088,0.0110036 -0.132896,-0.0435651 0.0136813,-0.0308649 0.0151549,-0.0444915 0.0302669,-0.050179zm0.0283241 0.165188c-0.000617612,0.00196619 -0.000863874,0.00407702 -0.000684063,0.00632856 0.00195838,0.0247905 0.0574496,0.0466453 0.117968,0.0632622 0.0605181,0.0166169 0.0955343,0.059064 0.0745043,0.0907107 -0.00126649,0.00190756 -0.00261508,0.0037174 -0.00403793,0.00543342 0.00935017,-0.0131809 0.0116369,-0.0295476 -0.00709862,-0.0477476 -0.0353798,-0.0343673 -0.0720026,-0.039617 -0.115059,-0.0523563 -0.0449996,-0.0133177 -0.07323,-0.0509334 -0.0655919,-0.065631zm-0.0466219 0.131649c0.00969025,0.0152722 0.023008,0.0295554 0.0313262,0.0448706 0.0130207,0.0239813 0.0145569,0.0642472 -0.0204203,0.079281 -0.00698136,0.00299815 -0.0134585,0.00418647 -0.0194157,0.00394021 0.015151,-0.00171602 0.0275971,-0.0080094 0.0342383,-0.0193258 0.0120239,-0.0204906 0.00904527,-0.0465749 -0.01365,-0.0817241 -0.0054256,-0.00840812 -0.00940489,-0.017856 -0.0120786,-0.027042z"/>
     <path id="_353064728" class="fil61" d="M0.719549 2.99468c0.00196228,0.00117659 0.00386594,0.00245481 0.00569141,0.00382685 -0.000195447,-0.000113359 -0.00290043,-0.00169648 -0.00569141,-0.00382685zm0.00571095 0.00384248c0.0209206,0.0157256 0.0317405,0.0436589 0.000422165,0.0696611 -0.0465163,0.0386085 -0.0912306,0.0147406 -0.140389,0.00812667 -0.0329953,-0.00444055 -0.0657444,-0.00252126 -0.0831235,0.00671164 0.0349967,-0.0192671 0.094733,-0.0101124 0.106421,-0.00845502 0.0119535,0.00169648 0.0656505,0.0274759 0.10972,-0.00557414 0.0439012,-0.032921 0.00723544,-0.070181 0.00695008,-0.0704703zm-0.22664 0.0866337c-0.0002189,0.000148539 -0.000426074,0.000300988 -0.000637156,0.000453436 0.000207173,-0.000152448 0.000418256,-0.000300988 0.000637156,-0.000453436zm0.188106 0.160556c-0.0010085,0.0035024 -0.00258381,0.00693054 -0.00478453,0.0102414 -0.0210301,0.0316467 -0.0640049,0.0376978 -0.112038,-0.0112382 -0.0069579,-0.0070869 -0.0137555,-0.0133686 -0.0203382,-0.0189505l2.73625e-005 1.95447e-005c0.038847,0.0298603 0.0559212,0.0424315 0.0674213,0.0458909 0.0412627,0.0124187 0.0691099,-0.0251384 0.0697119,-0.0259631zm-0.248999 0.109696c-0.0254276,0.000801331 -0.0418373,-0.0241924 -0.0473411,-0.0480916 -0.000926417,-0.00401838 -0.00139158,-0.00875601 -0.00161439,-0.0140174l0 3.90893e-006c0.00719635,0.0338709 0.0233324,0.0527862 0.0489555,0.0621051z"/>
     <path id="_353064920" class="fil53" d="M0.499229 2.78604c0.034856,0.0266785 0.0145608,0.0892449 -0.0370176,0.144009 -0.0233832,0.0248256 -0.0246302,0.0428732 -0.0148266,0.055843 -7.81787e-006,-7.81787e-006 -1.95447e-005,-7.81787e-006 -2.73625e-005,-1.56357e-005 -0.0109255,-0.00996778 -0.0152136,-0.0277182 0.013306,-0.0616126 0.0285157,-0.0338944 0.0447417,-0.0707126 0.0486193,-0.0860825 0.00476108,-0.0188997 -0.00168866,-0.0375258 -0.0100538,-0.0521413z"/>
     <path id="_353065112" class="fil53" d="M0.387899 3.24102l3.90893e-006 -3.90893e-006c0.0304897,-0.157753 -0.191108,-0.146284 -0.344229,-0.169992l0 0.0385499c0.0554678,0.00830257 0.150209,0.0117659 0.178701,0.0130324 0.0439911,0.00195447 0.100936,0.0283593 0.139623,0.0593102 0.0181531,0.0145217 0.0240595,0.0366893 0.0259006,0.0591031z"/>
     <path id="_353065304" class="fil62" d="M0.672684 3.07271c-0.038073,-0.00869738 -0.0322252,-0.0347348 -0.0168358,-0.0510507 0.0202209,-0.0214444 -0.031936,0.0273391 0.0168358,0.0510507z"/>
     <path id="_353065496" class="fil63" d="M0.585656 3.24665c-0.0218158,-0.0323933 0.000265807,-0.0473763 0.0226523,-0.0487483 0.0294186,-0.00180202 -0.0419937,-0.00191538 -0.0226523,0.0487483z"/>
     <path id="_353065688" class="fil64" d="M0.39087 3.29699c0.00288088,-0.0389486 0.0295046,-0.0370723 0.047947,-0.0243097 0.0242354,0.0167732 -0.0318265,-0.0274681 -0.047947,0.0243097z"/>
     <path id="_353065880" class="fil60" d="M0.480005 2.85559c-0.0290199,0.0261351 -0.0469502,0.00636374 -0.0514377,-0.0156084 -0.00590249,-0.0288792 0.00397929,0.041849 0.0514377,0.0156084z"/>
     <path id="_353066072" class="fil65" d="M0.254722 2.96813c0.0542208,-0.00250172 0.104036,0.00269326 0.138869,-0.0638915 0.0199317,-0.0381043 0.0392457,-0.12242 0.0776001,-0.1274 -0.000222809,7.81787e-005 -0.000453436,0.000152448 -0.000664519,0.000234536 -0.0245168,0.0094518 -0.0671633,0.144932 -0.102097,0.169276 -0.068465,0.0477046 -0.160825,0.0453319 -0.26791,-0.0313301 -0.00941271,-0.006739 -0.0168397,-0.00843548 -0.0233832,-0.00893582 0.00747779,-0.00440928 0.0161204,-0.00571877 0.0262329,-0.00283789 0.0305679,0.0087052 0.0960699,0.0674369 0.151354,0.0648844z"/>
    </g>
    <g>
     <path id="_353066312" class="fil66" d="M0.246239 3.57573c0.0420758,-0.0342853 0.0851952,-0.0597676 0.0735466,-0.134006 -0.0075677,-0.0482284 -0.0512578,-0.143864 0.00146585,-0.156365 0.0527237,-0.0125008 0.078722,0.0544866 0.0690396,0.136258 -0.00968243,0.081771 0.0607526,0.0550495 0.100471,0.0315725 0.0397187,-0.0234731 0.0887093,-0.103278 0.116861,-0.123116 0.0281482,-0.0198378 0.0909843,-0.0130207 0.0765956,0.0456954 -0.0143888,0.0587161 -0.0645248,0.0661548 -0.107965,0.0901048 -0.0434361,0.0239461 -0.0780458,0.0589115 -0.0617142,0.0776666 0.0163315,0.0187551 0.0739336,0.0032835 0.13245,-0.0193922 0.0585167,-0.0226757 0.111921,-0.00941271 0.113863,0.0285352 0.00193883,0.037944 -0.0289847,0.0683907 -0.0967148,0.0576646 -0.0677301,-0.0107261 -0.106753,0.00480408 -0.120391,0.00857229 -0.0136344,0.00377212 -0.0363335,0.018759 -0.0168905,0.0375688 0.019443,0.0188098 0.0525204,0.0209832 0.0772562,0.0325028 0.0247396,0.0115157 0.0499405,0.0429592 0.0307868,0.0758568 -0.0191538,0.0328976 -0.0552801,0.0218509 -0.0777409,0.00266589 -0.0224607,-0.019185 -0.047947,-0.0820251 -0.0974575,-0.0838662 -0.0495106,-0.0018372 -0.110986,0.0108473 -0.147496,0.0354618 -0.0153269,0.0103352 -0.0535798,0.0365055 -0.0920827,0.0608152l-0.129405 -0.155075 -0.00713771 -0.0101398c0.000785696,-0.000351804 0.00157921,-0.000699699 0.00241963,-0.00101632 0.0297431,-0.011203 0.117338,-0.00300206 0.160239,-0.0379636z"/>
     <path id="_353066504" class="fil60" d="M0.246239 3.57573c0.0420758,-0.0342853 0.0851952,-0.0597715 0.0735466,-0.134006 -0.0075677,-0.0482284 -0.0512578,-0.143864 0.00146585,-0.156365 0.00243917,-0.000578522 0.00481581,-0.000981142 0.00713771,-0.00122741 -0.00342423,0.00361185 -0.00683282,0.0084433 -0.0104251,0.0148969 -0.0159289,0.0286564 0.0369511,0.152949 0.0228086,0.193109 -0.0250641,0.0711621 -0.134655,0.142985 -0.229658,0.157159l-0.0203968 -0.0244465 -0.00714944 -0.0101554c0.000785696,-0.000351804 0.00159484,-0.000684063 0.00243136,-0.00100069 0.0297392,-0.011203 0.117338,-0.00300206 0.160239,-0.0379636zm0.143993 -0.153551c-0.00928763,0.0810752 0.0609051,0.0544319 0.10053,0.0310096 0.0397187,-0.0234731 0.0887132,-0.103278 0.116861,-0.123116 0.00919381,-0.00648101 0.0220933,-0.0101163 0.0347895,-0.0100264 -0.04756,0.0253025 -0.0868643,0.0884709 -0.113914,0.116365 -0.0285235,0.0294147 -0.119672,0.102352 -0.132716,0.0441045 -0.00738007,-0.0329484 -0.0143067,-0.0447729 -0.00555069,-0.0583369zm0.121091 0.115869c0.000676246,0.00195056 0.00173557,0.00378776 0.00321705,0.00549205 0.0163315,0.0187551 0.0739336,0.0032796 0.13245,-0.0193922 0.0585167,-0.0226757 0.111921,-0.00941271 0.113863,0.0285352 0.000117268,0.00228673 0.000113359,0.00454609 -1.17268e-005,0.00677027 -0.000332259,-0.0161595 -0.00823612,-0.0306695 -0.0341289,-0.0341406 -0.0488851,-0.00655528 -0.0814348,0.011031 -0.123616,0.0264244 -0.044085,0.0160853 -0.0891589,0.00266589 -0.0917739,-0.0136891zm0.040907 0.133537c0.0168788,0.00650056 0.0360834,0.0100499 0.0518833,0.0174065 0.0247396,0.0115157 0.0499405,0.0429592 0.0307868,0.0758568 -0.00382294,0.00656701 -0.00832212,0.011375 -0.0132552,0.014725 0.0111522,-0.0103978 0.0174065,-0.0228634 0.0160071,-0.0359114 -0.0025369,-0.0236217 -0.0204554,-0.0428067 -0.0596191,-0.0575395 -0.0093619,-0.00352586 -0.0181844,-0.0087521 -0.0258029,-0.0145373z"/>
     <path id="_353066696" class="fil67" d="M0.635542 3.32036c0.002275,-0.000222809 0.00456563,-0.00032835 0.00684845,-0.000312715 -0.000226718,2.34536e-005 -0.00333823,0.000363531 -0.00684845,0.000312715zm0.00687191 -0.000312715c0.0261742,0.00018372 0.0514963,0.0161869 0.041806,0.0557218 -0.0143888,0.0587161 -0.0645248,0.0661548 -0.107965,0.0901048 -0.0291528,0.0160735 -0.0543264,0.0371075 -0.062797,0.0548736 0.0166521,-0.036314 0.0701028,-0.0645209 0.0804771,-0.0701419 0.0106167,-0.00575395 0.0691099,-0.0170078 0.0848473,-0.0697979 0.0156748,-0.0525869 -0.0359661,-0.0606979 -0.0363687,-0.0607605zm-0.130535 0.204531c-8.59965e-005,0.000246263 -0.000164175,0.000492526 -0.000242354,0.000738788 7.42697e-005,-0.000242354 0.000156357,-0.000488617 0.000242354,-0.000738788zm0.246724 0.0170273c0.00127431,0.00341641 0.00204828,0.00711035 0.00225155,0.0110779 0.00194274,0.037944 -0.0289847,0.0683907 -0.0967148,0.0576646 -0.00980751,-0.00155185 -0.0190091,-0.00255253 -0.0276244,-0.00311933l3.51804e-005 0c0.0489907,0.000867783 0.0701927,0.00080524 0.0814934,-0.00326005 0.0405474,-0.0145881 0.040563,-0.061339 0.0405591,-0.0623631zm-0.134776 0.236369c-0.0199551,0.0157804 -0.0480173,0.00546469 -0.0666669,-0.0104603 -0.00313496,-0.00267762 -0.00632856,-0.00620739 -0.00963943,-0.0103039l0 3.90893e-006c0.0259475,0.0229337 0.0501751,0.0285235 0.0763063,0.0207603z"/>
     <path id="_353066888" class="fil53" d="M0.334308 3.28387c0.0438895,0.000687972 0.0648297,0.0630433 0.0559837,0.137747 -0.00401057,0.033867 0.0057305,0.0491118 0.0213311,0.053697 -7.81787e-006,0 -1.95447e-005,7.81787e-006 -3.12715e-005,3.90893e-006 -0.0147132,-0.00150494 -0.0287268,-0.0132161 -0.0259866,-0.0574261 0.00273625,-0.0442061 -0.00614484,-0.0834518 -0.0121802,-0.0981103 -0.00742306,-0.0180241 -0.023696,-0.029145 -0.0391167,-0.0359114z"/>
     <path id="_353067080" class="fil53" d="M0.515698 3.71572l0 -3.90893e-006c-0.0598458,-0.124937 -0.195388,-0.0372326 -0.319508,0.0355244l0.0239383 0.0286838c0.0384991,-0.0243097 0.0767519,-0.05048 0.0920788,-0.0608152 0.0365094,-0.0246146 0.0979852,-0.037299 0.147496,-0.0354618 0.0232308,0.000863874 0.0411728,0.0151628 0.0559955,0.0320728z"/>
     <path id="_353067272" class="fil62" d="M0.644337 3.41095c-0.0357707,0.0156787 -0.046571,-0.00872474 -0.0439208,-0.0309978 0.00348286,-0.0292662 -0.00938535,0.0409813 0.0439208,0.0309978z"/>
     <path id="_353067464" class="fil63" d="M0.67795 3.60252c-0.0368143,-0.0130402 -0.027988,-0.0382294 -0.0108199,-0.0526572 0.0225663,-0.0189622 -0.0348794,0.0234614 0.0108199,0.0526572z"/>
     <path id="_353067656" class="fil64" d="M0.551406 3.75893c-0.0208698,-0.0330109 0.00163784,-0.0473528 0.0240517,-0.048076 0.0294616,-0.000949871 -0.0419194,-0.00312324 -0.0240517,0.048076z"/>
     <path id="_353067848" class="fil60" d="M0.360263 3.35119c-0.00776314,0.0382763 -0.0339374,0.0330657 -0.0506246,0.0180827 -0.021933,-0.0196932 0.0281091,0.0312558 0.0506246,-0.0180827z"/>
     <path id="_353068040" class="fil65" d="M0.246239 3.57573c0.0420758,-0.0342853 0.0851952,-0.0597715 0.0735466,-0.134006 -0.00666473,-0.0424823 -0.0413409,-0.121728 -0.0134858,-0.148559 -0.000132904,0.000191538 -0.000273625,0.000390893 -0.000394802,0.000582431 -0.0140722,0.0221871 0.0323112,0.156439 0.0187316,0.196795 -0.026612,0.0790855 -0.102238,0.132161 -0.233918,0.134307l-0.00714944 -0.0101554c0.000785696,-0.000351804 0.00159484,-0.000684063 0.00243136,-0.00100069 0.0297392,-0.011203 0.117338,-0.00300206 0.160239,-0.0379636z"/>
    </g>
   </g>
   <g>
    <path id="_348839408" class="fil68" d="M0.760155 4.08767l2.59322 0c0.2062,0 0.393618,-0.0831117 0.529453,-0.217001 0.130809,-0.128932 0.21383,-0.305018 0.219799,-0.499378l-0.0711152 -0.075845c-0.00592594,0.164496 -0.115321,0.389361 -0.22628,0.498737 -0.116005,0.114336 -0.275955,0.185307 -0.451857,0.185307l-2.59322 0c-0.175902,0 -0.335852,-0.0709706 -0.451857,-0.185307 -0.110959,-0.109376 -0.220354,-0.334241 -0.22628,-0.498737l-0.0711152 0.075845c0.00596894,0.19436 0.0889908,0.370446 0.219799,0.499378 0.135835,0.133889 0.323253,0.217001 0.529453,0.217001z"/>
    <path id="_348839288" class="fil69" d="M0.760155 0.0212451l2.59322 0c0.2062,0 0.393618,0.0831117 0.529453,0.217001 0.130809,0.128932 0.21383,0.305018 0.219799,0.499378l-0.0711152 0.075845c-0.00592594,-0.164496 -0.115321,-0.389361 -0.22628,-0.498737 -0.116005,-0.114336 -0.275955,-0.185307 -0.451857,-0.185307l-2.59322 0c-0.175902,0 -0.335852,0.0709706 -0.451857,0.185307 -0.110959,0.109376 -0.220354,0.334241 -0.22628,0.498737l-0.0711152 -0.075845c0.00596894,-0.19436 0.0889908,-0.370446 0.219799,-0.499378 0.135835,-0.133889 0.323253,-0.217001 0.529453,-0.217001z"/>
    <path id="_348839024" class="fil70" d="M3.37966 0l-2.64579 0c-0.403633,0 -0.733867,0.330235 -0.733867,0.733867l0 2.64579c0,0.403633 0.330235,0.733867 0.733867,0.733867l2.64579 0c0.403633,0 0.733871,-0.330235 0.733871,-0.733867l0 -2.64579c0,-0.403633 -0.330238,-0.733867 -0.733871,-0.733867zm-0.07194 0.11185l-2.50188 0c-0.381711,0 -0.693988,0.312277 -0.693988,0.693957l0 2.50188c0,0.381711 0.312277,0.693988 0.693988,0.693988l2.50188 0c0.38168,0 0.693957,-0.312277 0.693957,-0.693988l0 -2.50188c0,-0.38168 -0.312277,-0.693957 -0.693957,-0.693957z"/>
   </g>
   <g>
    <path id="_346469472" class="fil71" d="M1.63925 0.184416l3.90893e-006 0c0.30872,0.0948659 0.483691,0.425069 0.388826,0.733789 -0.141187,0.459468 -0.32631,0.8461 -0.42356,1.3784 -0.0950692,0.309376 -0.42539,0.483594 -0.734571,0.388587 -0.30872,-0.0948659 -0.482914,-0.424831 -0.388052,-0.73355 0.202549,-0.491982 0.31144,-0.934333 0.423564,-1.3784 0.0948659,-0.30872 0.425069,-0.483691 0.733789,-0.388826z"/>
    <path id="_346469304" class="fil72" d="M1.63922 0.184404l-3.90893e-006 0c-0.0433853,-0.0133334 -0.0872044,-0.021335 -0.130723,-0.0243878 0.477312,0.0365016 0.45407,0.447667 0.372537,0.713001 -0.0674956,0.18553 -0.135316,0.370457 -0.199336,0.562542 -0.0540332,0.162111 -0.0737498,0.127826 -0.0395389,0.307488 0.0114962,0.0603657 -0.0657717,0.28966 -0.0761812,0.325376 -0.0541778,0.18596 -0.106456,0.214389 -0.123163,0.260335 -0.00878337,0.024165 -0.0112421,0.0512148 -0.0131027,0.061253 -0.0815482,0.265385 -0.365493,0.34098 -0.680295,0.242397 0.323972,0.187856 0.743937,0.0258459 0.855067,-0.335813 0.108676,-0.520826 0.266976,-0.947995 0.423564,-1.3784 0.0948659,-0.30872 -0.0801058,-0.638923 -0.388826,-0.733789z"/>
    <path id="_346469136" class="fil42" d="M1.63925 0.184416l3.90893e-006 0c0.0433853,0.0133295 0.084132,0.0313145 0.121857,0.0532279 -0.266163,-0.0186573 -0.521538,0.147875 -0.60307,0.413209 -0.0483301,0.191417 -0.096062,0.38252 -0.150951,0.577412 -0.0463248,0.164476 -0.116322,0.114743 -0.24552,0.244195 -0.0434087,0.0434947 -0.108231,0.276608 -0.11968,0.312007 -0.0595956,0.184298 0.00616048,0.25684 -0.00581649,0.304244 -0.0063012,0.0249273 -0.0194587,0.0486897 -0.0235591,0.0580398 -0.0815482,0.265385 0.0724912,0.467716 0.388333,0.562918 -0.373561,-0.026483 -0.630081,-0.39637 -0.51895,-0.758024 0.202549,-0.491982 0.31144,-0.934333 0.423564,-1.3784 0.0948659,-0.30872 0.425069,-0.483691 0.733789,-0.388826z"/>
    <g>
     <path id="_346468968" class="fil73" d="M1.78052 1.54405c-0.0828968,-0.0553075 -0.428329,-0.189185 -0.471711,0.0124539 -0.0308219,0.14327 0.423529,0.216492 0.471711,-0.0124539z"/>
     <path id="_346468800" class="fil74" d="M1.77587 1.55548c-0.0809306,-0.0437136 -0.383095,-0.10001 -0.447006,0.0104916 -0.0636492,0.110044 0.37172,0.170942 0.447006,-0.0104916z"/>
     <path id="_346468632" class="fil19" d="M1.56623 1.51612c-0.0284219,-0.00317796 -0.123249,-0.00224373 -0.130375,0.012618 -0.00709862,0.0147992 0.127396,0.0110271 0.130375,-0.012618z"/>
     <g>
      <path id="_346468464" class="fil75" d="M0.857042 1.25363c0.0935838,0.000191538 0.448245,0.0864812 0.412936,0.290657 -0.0250914,0.145076 -0.45398,-0.0594666 -0.412936,-0.290657z"/>
      <path id="_346468296" class="fil76" d="M0.856979 1.2665c0.0876031,0.00928763 0.375609,0.138591 0.391785,0.274278 0.0161087,0.135124 -0.391472,-0.0690709 -0.391785,-0.274278z"/>
      <path id="_346468176" class="fil19" d="M1.0569 1.35594c0.0263188,0.014037 0.109904,0.07108 0.110779,0.0884553 0.000871692,0.0173048 -0.116783,-0.06576 -0.110779,-0.0884553z"/>
     </g>
    </g>
    <path id="_346467864" class="fil77" d="M1.73285 0.222297c-0.134604,-0.0317953 -0.285434,-0.0551707 -0.501923,0.0691647 -0.234501,0.134674 -0.310303,0.399341 -0.411294,0.737635 -0.100991,0.338295 -0.0853594,0.247049 -0.114985,0.292498 0.0770529,-0.254808 0.138435,-0.501321 0.20081,-0.748354 0.0948659,-0.30872 0.425069,-0.483691 0.733789,-0.388826l3.90893e-006 0c0.0327686,0.0100694 0.0640088,0.0228164 0.0935994,0.0378815z"/>
    <path id="_346467696" class="fil78" d="M1.46306 1.93556c0.0992166,0.0304858 0.12192,-0.0312167 0.12192,-0.0312167 -0.00573831,-0.000715335 0.0546078,-0.0478766 -0.40244,-0.190412 -0.457044,-0.142535 -0.428368,-0.0648844 -0.428368,-0.0648844 0,0 -0.0158664,0.0638055 0.0833541,0.0942952 0.294839,0.0906013 0.330692,0.101617 0.625535,0.192218z"/>
    <path id="_346467528" class="fil51" d="M0.756132 1.64267c0,0 -0.0158625,0.0638055 0.0833541,0.0942952 0.0992166,0.0304897 0.413151,0.126954 0.413151,0.126954m0.334308 0.0340468c0,0 -0.0227031,0.0617064 -0.121924,0.0312167 -0.0992166,-0.0304897 -0.413151,-0.126954 -0.413151,-0.126954"/>
    <path id="_346467408" class="fil79" d="M0.841437 1.73058l0.211571 0.0707595 0.200767 0.0616947 0.213205 0.0597637c0.0687777,0.0197753 0.0908202,0.0102062 0.126098,-0.022406 -0.330829,0.525583 -1.00355,-0.0311855 -0.844205,-0.253674 0.00551941,0.0414503 0.0170273,0.0600139 0.0925635,0.0838623z"/>
    <g style="clip-path:url(#id1)">
     <g>
      <ellipse id="_346273872" class="fil53" transform="matrix(0.884084 0.393647 -0.393647 0.884084 1.1332 2.16247)" rx="0.404106" ry="0.166212"/>
     </g>
    </g>
    <path class="fil33" d="M0.841437 1.73058l0.211571 0.0707595 0.200767 0.0616947 0.213205 0.0597637c0.0687777,0.0197753 0.0908202,0.0102062 0.126098,-0.022406 -0.330829,0.525583 -1.00355,-0.0311855 -0.844205,-0.253674 0.00551941,0.0414503 0.0170273,0.0600139 0.0925635,0.0838623z"/>
    <path id="_346467240" class="fil80" d="M1.21257 2.18686c0.044124,0.0135601 0.0263618,0.0767832 0.0263618,0.0767832 -0.00212646,-0.0017043 -0.128123,0.00772405 -0.20113,-0.012618 -0.0730072,-0.0203421 -0.168373,-0.100925 -0.168373,-0.100925 0,0 0.0208033,-0.0622889 0.0649313,-0.0487327 0.131133,0.0402972 0.147078,0.0451951 0.278211,0.0854923z"/>
    <g>
     <g>
      <path id="_346467072" class="fil60" d="M1.2846 1.66231c-0.010343,-0.00716117 -0.0528449,-0.0117737 -0.0662877,0.0125829 -0.0133881,0.0242549 0.0485841,0.0267176 0.0662877,-0.0125829z"/>
      <path id="_346466832" class="fil81" d="M1.25688 1.66661c0.0062152,-0.0143419 -0.0314552,-0.00531615 -0.0375492,0.00974106 -0.00892019,0.0220386 0.0313301,0.00459691 0.0375492,-0.00974106z"/>
     </g>
     <g>
      <path id="_346466688" class="fil60" d="M1.13922 1.61764c0.0125789,-0.000117268 0.0503353,0.0199317 0.0477828,0.0476343 -0.00254081,0.0275893 -0.055202,-0.00517543 -0.0477828,-0.0476343z"/>
      <path id="_346466568" class="fil81" d="M1.15975 1.63676c0.00290434,-0.0153543 0.0290082,0.0132669 0.0255957,0.0291489 -0.00499562,0.0232464 -0.0285039,-0.0137907 -0.0255957,-0.0291489z"/>
     </g>
    </g>
    <path id="_346466256" class="fil60" d="M1.60768 2.2796c-0.00106323,0.00566014 -0.00212255,0.0113125 -0.00316233,0.0170039 -0.0950692,0.309376 -0.42539,0.483594 -0.734571,0.388587 -0.30872,-0.0948659 -0.482914,-0.424831 -0.388052,-0.73355 0.00248608,-0.0060393 0.00495262,-0.0120669 0.00741134,-0.0180945 -0.0663111,0.295433 0.0929466,0.640557 0.387008,0.730916 0.293788,0.0902768 0.619371,-0.103997 0.731365,-0.384862z"/>
    <path id="_346466016" class="fil44" d="M1.65737 0.190342c-0.322311,-0.0975709 -0.645983,0.0842571 -0.738972,0.386875 -0.112124,0.44407 -0.213783,0.888645 -0.416333,1.38063 -0.0929935,0.30263 0.0446987,0.638016 0.38623,0.732628 -0.319,-0.0868917 -0.503482,-0.422888 -0.4064,-0.738828 0.202549,-0.491982 0.31144,-0.934333 0.423564,-1.3784 0.0971878,-0.31628 0.439587,-0.490008 0.751911,-0.3829z"/>
   </g>
  </g>
 </g>
</svg>
