<?xml version="1.0" encoding="UTF-8"?>
<!DOCTYPE svg PUBLIC "-//W3C//DTD SVG 1.1//EN" "http://www.w3.org/Graphics/SVG/1.1/DTD/svg11.dtd">
<!-- Creator: CorelDRAW -->
<svg xmlns="http://www.w3.org/2000/svg" xml:space="preserve" width="1243px" height="1243px" style="shape-rendering:geometricPrecision; text-rendering:geometricPrecision; image-rendering:optimizeQuality; fill-rule:evenodd; clip-rule:evenodd"
viewBox="0 0 431.179 431.179"
 xmlns:xlink="http://www.w3.org/1999/xlink">
 <defs>
  <style type="text/css">
   <![CDATA[
    .str0 {stroke:black;stroke-width:0.722771}
    .str3 {stroke:#660066;stroke-width:0.722771}
    .str1 {stroke:#6699FF;stroke-width:0.722771}
    .str2 {stroke:#95D11E;stroke-width:0.722771}
    .fil53 {fill:none}
    .fil33 {fill:none;fill-rule:nonzero}
    .fil61 {fill:black}
    .fil64 {fill:#1E0028}
    .fil76 {fill:#224827}
    .fil40 {fill:#2B5619}
    .fil51 {fill:#3C682D}
    .fil58 {fill:#528C36}
    .fil57 {fill:#61A53E}
    .fil30 {fill:#72155B}
    .fil44 {fill:#74E9F0}
    .fil73 {fill:#7BBA47}
    .fil24 {fill:#7C2772}
    .fil42 {fill:#7DC05C}
    .fil29 {fill:#912783}
    .fil74 {fill:#95CC68}
    .fil41 {fill:#AADA94}
    .fil3 {fill:#B648B8}
    .fil19 {fill:#C1FFFF}
    .fil75 {fill:#CBED96}
    .fil4 {fill:#CCCCFF}
    .fil26 {fill:#D273D9}
    .fil55 {fill:#DDF6A2}
    .fil32 {fill:#EAB3EB}
    .fil20 {fill:#EEC8F0}
    .fil54 {fill:#224827;fill-rule:nonzero}
    .fil31 {fill:#2E0823;fill-rule:nonzero}
    .fil80 {fill:#999999;fill-rule:nonzero}
    .fil79 {fill:#B3B3B3;fill-rule:nonzero}
    .fil34 {fill:url(#id5)}
    .fil23 {fill:url(#id6)}
    .fil5 {fill:url(#id7)}
    .fil59 {fill:url(#id8)}
    .fil60 {fill:url(#id9)}
    .fil6 {fill:url(#id10)}
    .fil63 {fill:url(#id11)}
    .fil8 {fill:url(#id12)}
    .fil35 {fill:url(#id13)}
    .fil62 {fill:url(#id14)}
    .fil37 {fill:url(#id15)}
    .fil14 {fill:url(#id16)}
    .fil36 {fill:url(#id17)}
    .fil72 {fill:url(#id18)}
    .fil39 {fill:url(#id19)}
    .fil47 {fill:url(#id20)}
    .fil1 {fill:url(#id21)}
    .fil11 {fill:url(#id22)}
    .fil49 {fill:url(#id23)}
    .fil48 {fill:url(#id24)}
    .fil78 {fill:url(#id25)}
    .fil13 {fill:url(#id26)}
    .fil50 {fill:url(#id27)}
    .fil65 {fill:url(#id28)}
    .fil43 {fill:url(#id29)}
    .fil28 {fill:url(#id30)}
    .fil56 {fill:url(#id31)}
    .fil38 {fill:url(#id32)}
    .fil12 {fill:url(#id33)}
    .fil69 {fill:url(#id34)}
    .fil70 {fill:url(#id35)}
    .fil2 {fill:url(#id36)}
    .fil71 {fill:url(#id37)}
    .fil77 {fill:url(#id38)}
    .fil25 {fill:url(#id39)}
    .fil46 {fill:url(#id40)}
    .fil68 {fill:url(#id41)}
    .fil66 {fill:url(#id42)}
    .fil27 {fill:url(#id43)}
    .fil67 {fill:url(#id44)}
    .fil52 {fill:url(#id45)}
    .fil45 {fill:url(#id46)}
    .fil22 {fill:url(#id47)}
    .fil21 {fill:url(#id48)}
    .fil7 {fill:url(#id49)}
    .fil81 {fill:url(#id50)}
    .fil10 {fill:url(#id51)}
    .fil0 {fill:url(#id52)}
    .fil16 {fill:url(#id53)}
    .fil18 {fill:url(#id54)}
    .fil15 {fill:url(#id55)}
    .fil9 {fill:url(#id56)}
    .fil17 {fill:url(#id57)}
   ]]>
  </style>
   <clipPath id="id0">
    <path d="M346.714 11.7241l-262.247 0c-40.0109,0 -72.7438,32.7328 -72.7438,72.7405l0 262.247c0,40.0109 32.7328,72.7438 72.7438,72.7438l262.247 0c40.0077,0 72.7405,-32.7328 72.7405,-72.7438l0 -262.247c0,-40.0077 -32.7328,-72.7405 -72.7405,-72.7405z"/>
   </clipPath>
     <clipPath id="id1" style="clip-rule:nonzero">
      <path d="M357.151 252.037c12.2338,46.0902 -40.1588,63.6747 -54.9113,13.3102 4.62221,11.2874 53.022,3.64786 54.9113,-13.3102z"/>
     </clipPath>
     <clipPath id="id2" style="clip-rule:nonzero">
      <path d="M346.714 11.7241l-262.247 0c-40.0109,0 -72.7438,32.7328 -72.7438,72.7405l0 262.247c0,40.0109 32.7328,72.7438 72.7438,72.7438l262.247 0c40.0077,0 72.7405,-32.7328 72.7405,-72.7438l0 -262.247c0,-40.0077 -32.7328,-72.7405 -72.7405,-72.7405z"/>
     </clipPath>
     <clipPath id="id3" style="clip-rule:nonzero">
      <path d="M88.1993 181.399l22.1768 7.417 21.0443 6.46683 22.3481 6.26442c7.20927,2.07284 9.51976,1.06982 13.2176,-2.34859 -34.6774,55.0916 -105.192,-3.26886 -88.4894,-26.5901 0.578544,4.34482 1.7848,6.29065 9.7025,8.79043z"/>
     </clipPath>
     <clipPath id="id4" style="clip-rule:nonzero">
      <path d="M346.714 11.7241l-262.247 0c-40.0109,0 -72.7438,32.7328 -72.7438,72.7405l0 262.247c0,40.0109 32.7328,72.7438 72.7438,72.7438l262.247 0c40.0077,0 72.7405,-32.7328 72.7405,-72.7438l0 -262.247c0,-40.0077 -32.7328,-72.7405 -72.7405,-72.7405z"/>
     </clipPath>
  <linearGradient id="id5" gradientUnits="userSpaceOnUse" x1="389.309" y1="217.12" x2="374.375" y2="123.814">
   <stop offset="0" style="stop-color:black"/>
   <stop offset="0.239216" style="stop-color:#33009C"/>
   <stop offset="0.501961" style="stop-color:#3300B4"/>
   <stop offset="0.760784" style="stop-color:#003399"/>
   <stop offset="1" style="stop-color:black"/>
  </linearGradient>
  <linearGradient id="id6" gradientUnits="userSpaceOnUse" x1="321.859" y1="428.606" x2="293.935" y2="335.938">
   <stop offset="0" style="stop-color:#D273D9"/>
   <stop offset="1" style="stop-color:#CBA0E6"/>
  </linearGradient>
  <linearGradient id="id7" gradientUnits="userSpaceOnUse" x1="384.83" y1="65.0489" x2="200.288" y2="106.184">
   <stop offset="0" style="stop-color:black"/>
   <stop offset="0.478431" style="stop-color:#000066"/>
   <stop offset="1" style="stop-color:black"/>
  </linearGradient>
  <linearGradient id="id8" gradientUnits="userSpaceOnUse" x1="359.479" y1="386.8" x2="159" y2="381.21">
   <stop offset="0" style="stop-color:#FF0066"/>
   <stop offset="0.321569" style="stop-color:#990099"/>
   <stop offset="1" style="stop-color:#280028"/>
  </linearGradient>
  <linearGradient id="id9" gradientUnits="userSpaceOnUse" xlink:href="#id8" x1="360.3" y1="349.058" x2="159.819" y2="343.468">
  </linearGradient>
  <linearGradient id="id10" gradientUnits="userSpaceOnUse" x1="269.337" y1="247.629" x2="235.56" y2="160.029">
   <stop offset="0" style="stop-color:#330099"/>
   <stop offset="0.501961" style="stop-color:#3300B4"/>
   <stop offset="1" style="stop-color:#330066"/>
  </linearGradient>
  <linearGradient id="id11" gradientUnits="userSpaceOnUse" x1="245.397" y1="360.515" x2="39.6831" y2="360.515">
   <stop offset="0" style="stop-color:#660066"/>
   <stop offset="1" style="stop-color:#990099"/>
  </linearGradient>
  <linearGradient id="id12" gradientUnits="userSpaceOnUse" x1="274.705" y1="211.827" x2="260.353" y2="175.423">
   <stop offset="0" style="stop-color:#330066"/>
   <stop offset="1" style="stop-color:#663399"/>
  </linearGradient>
  <linearGradient id="id13" gradientUnits="userSpaceOnUse" x1="394.613" y1="125.695" x2="399.632" y2="198.472">
   <stop offset="0" style="stop-color:#6699FF"/>
   <stop offset="1" style="stop-color:#330099"/>
  </linearGradient>
  <linearGradient id="id14" gradientUnits="userSpaceOnUse" x1="152.253" y1="314.025" x2="-1.89543" y2="361.728">
   <stop offset="0" style="stop-color:#990099"/>
   <stop offset="1" style="stop-color:#CC33FF"/>
  </linearGradient>
  <linearGradient id="id15" gradientUnits="userSpaceOnUse" x1="288.226" y1="50.9799" x2="297.318" y2="90.334">
   <stop offset="0" style="stop-color:#000066"/>
   <stop offset="1" style="stop-color:black"/>
  </linearGradient>
  <linearGradient id="id16" gradientUnits="userSpaceOnUse" x1="295.033" y1="144.453" x2="318.294" y2="217.42">
   <stop offset="0" style="stop-color:#9C2E8D"/>
   <stop offset="1" style="stop-color:#D789DF"/>
  </linearGradient>
  <linearGradient id="id17" gradientUnits="userSpaceOnUse" x1="392.682" y1="171.152" x2="408.433" y2="167.282">
   <stop offset="0" style="stop-color:#000066"/>
   <stop offset="1" style="stop-color:#6699FF"/>
  </linearGradient>
  <linearGradient id="id18" gradientUnits="userSpaceOnUse" x1="55.8336" y1="324.245" x2="54.9912" y2="343.492">
   <stop offset="0" style="stop-color:#DDF6A2"/>
   <stop offset="1" style="stop-color:#FEFEFE"/>
  </linearGradient>
  <linearGradient id="id19" gradientUnits="userSpaceOnUse" x1="61.5216" y1="328.169" x2="219.951" y2="364.265">
   <stop offset="0" style="stop-color:#88CA68"/>
   <stop offset="0.478431" style="stop-color:#95D07B"/>
   <stop offset="0.760784" style="stop-color:#2B5619"/>
   <stop offset="1" style="stop-color:#98D27E"/>
  </linearGradient>
  <linearGradient id="id20" gradientUnits="userSpaceOnUse" x1="165.559" y1="171.259" x2="154.847" y2="151.743">
   <stop offset="0" style="stop-color:#88CA68"/>
   <stop offset="1" style="stop-color:#61A53E"/>
  </linearGradient>
  <linearGradient id="id21" gradientUnits="userSpaceOnUse" x1="334.708" y1="77.6876" x2="314.117" y2="78.8275">
   <stop offset="0" style="stop-color:#C568C9"/>
   <stop offset="1" style="stop-color:#912783"/>
  </linearGradient>
  <linearGradient id="id22" gradientUnits="userSpaceOnUse" x1="302.216" y1="250.942" x2="329.098" y2="443.521">
   <stop offset="0" style="stop-color:#BE5AC1"/>
   <stop offset="1" style="stop-color:#9C2E8D"/>
  </linearGradient>
  <linearGradient id="id23" gradientUnits="userSpaceOnUse" xlink:href="#id20" x1="105.068" y1="152.216" x2="121.64" y2="141.321">
  </linearGradient>
  <linearGradient id="id24" gradientUnits="userSpaceOnUse" x1="158.122" y1="169.193" x2="159.838" y2="159.513">
   <stop offset="0" style="stop-color:black"/>
   <stop offset="1" style="stop-color:#1A1A1A"/>
  </linearGradient>
  <linearGradient id="id25" gradientUnits="userSpaceOnUse" xlink:href="#id18" x1="56.9014" y1="367.815" x2="67.947" y2="384.175">
  </linearGradient>
  <linearGradient id="id26" gradientUnits="userSpaceOnUse" x1="305.516" y1="151.458" x2="296.04" y2="117.61">
   <stop offset="0" style="stop-color:#D273D9"/>
   <stop offset="0.45098" style="stop-color:#C45EC9"/>
   <stop offset="1" style="stop-color:#B648B8"/>
  </linearGradient>
  <linearGradient id="id27" gradientUnits="userSpaceOnUse" xlink:href="#id24" x1="108.328" y1="153.989" x2="110.838" y2="141.874">
  </linearGradient>
  <linearGradient id="id28" gradientUnits="userSpaceOnUse" x1="192.427" y1="331.145" x2="186.311" y2="330.734">
   <stop offset="0" style="stop-color:#98D27E"/>
   <stop offset="1" style="stop-color:#88CA68"/>
  </linearGradient>
  <linearGradient id="id29" gradientUnits="userSpaceOnUse" x1="92.1815" y1="278.409" x2="85.5742" y2="302.906">
   <stop offset="0" style="stop-color:#3C682D"/>
   <stop offset="1" style="stop-color:#88CA68"/>
  </linearGradient>
  <linearGradient id="id30" gradientUnits="userSpaceOnUse" x1="329.594" y1="257.098" x2="331.813" y2="266.704">
   <stop offset="0" style="stop-color:#CD78D1"/>
   <stop offset="1" style="stop-color:#B648B8"/>
  </linearGradient>
  <linearGradient id="id31" gradientUnits="userSpaceOnUse" xlink:href="#id20" x1="110.742" y1="230.638" x2="113.004" y2="223.285">
  </linearGradient>
  <linearGradient id="id32" gradientUnits="userSpaceOnUse" xlink:href="#id29" x1="54.4581" y1="394.662" x2="57.4238" y2="411.867">
  </linearGradient>
  <linearGradient id="id33" gradientUnits="userSpaceOnUse" x1="275.63" y1="238.244" x2="229.963" y2="144.219">
   <stop offset="0" style="stop-color:#CBA0E6"/>
   <stop offset="0.760784" style="stop-color:#CBB6F2"/>
   <stop offset="1" style="stop-color:#CCCCFF"/>
  </linearGradient>
  <linearGradient id="id34" gradientUnits="userSpaceOnUse" xlink:href="#id28" x1="267.707" y1="377.791" x2="262.721" y2="378.276">
  </linearGradient>
  <linearGradient id="id35" gradientUnits="userSpaceOnUse" xlink:href="#id28" x1="252.946" y1="380.635" x2="248.466" y2="381.383">
  </linearGradient>
  <linearGradient id="id36" gradientUnits="userSpaceOnUse" xlink:href="#id21" x1="267.418" y1="77.7446" x2="275.845" y2="98.954">
  </linearGradient>
  <linearGradient id="id37" gradientUnits="userSpaceOnUse" x1="41.1844" y1="314.286" x2="35.1507" y2="330.528">
   <stop offset="0" style="stop-color:#88CA68"/>
   <stop offset="1" style="stop-color:#DDF6A2"/>
  </linearGradient>
  <linearGradient id="id38" gradientUnits="userSpaceOnUse" xlink:href="#id37" x1="39.4017" y1="368.96" x2="44.089" y2="385.143">
  </linearGradient>
  <linearGradient id="id39" gradientUnits="userSpaceOnUse" x1="412.38" y1="388.496" x2="428.665" y2="383.52">
   <stop offset="0" style="stop-color:#B648B8"/>
   <stop offset="1" style="stop-color:#9C2E8D"/>
  </linearGradient>
  <linearGradient id="id40" gradientUnits="userSpaceOnUse" x1="199.95" y1="137.493" x2="156.965" y2="124.284">
   <stop offset="0" style="stop-color:#AADA94"/>
   <stop offset="1" style="stop-color:#88CA68"/>
  </linearGradient>
  <linearGradient id="id41" gradientUnits="userSpaceOnUse" xlink:href="#id28" x1="283.36" y1="378.214" x2="278.277" y2="376.67">
  </linearGradient>
  <linearGradient id="id42" gradientUnits="userSpaceOnUse" xlink:href="#id28" x1="175.534" y1="334.308" x2="169.949" y2="336.087">
  </linearGradient>
  <linearGradient id="id43" gradientUnits="userSpaceOnUse" x1="340.747" y1="303.777" x2="339.356" y2="297.269">
   <stop offset="0" style="stop-color:#BC54BE"/>
   <stop offset="1" style="stop-color:#B648B8"/>
  </linearGradient>
  <linearGradient id="id44" gradientUnits="userSpaceOnUse" xlink:href="#id28" x1="160.321" y1="340.72" x2="155.616" y2="342.574">
  </linearGradient>
  <linearGradient id="id45" gradientUnits="userSpaceOnUse" xlink:href="#id20" x1="123.118" y1="184.772" x2="120.618" y2="192.909">
  </linearGradient>
  <linearGradient id="id46" gradientUnits="userSpaceOnUse" x1="142.666" y1="155.163" x2="176.785" y2="165.362">
   <stop offset="0" style="stop-color:#88CA68"/>
   <stop offset="1" style="stop-color:#98D27E"/>
  </linearGradient>
  <linearGradient id="id47" gradientUnits="userSpaceOnUse" x1="309.595" y1="339.843" x2="317.189" y2="339.192">
   <stop offset="0" style="stop-color:#B24AAE"/>
   <stop offset="1" style="stop-color:#9C2E8D"/>
  </linearGradient>
  <linearGradient id="id48" gradientUnits="userSpaceOnUse" x1="343.466" y1="416.131" x2="333.208" y2="420.144">
   <stop offset="0" style="stop-color:#7C2772"/>
   <stop offset="1" style="stop-color:#660066"/>
  </linearGradient>
  <linearGradient id="id49" gradientUnits="userSpaceOnUse" x1="264.733" y1="216.827" x2="270.033" y2="213.521">
   <stop offset="0" style="stop-color:#330066"/>
   <stop offset="1" style="stop-color:black"/>
  </linearGradient>
  <radialGradient id="id50" gradientUnits="userSpaceOnUse" cx="215.59" cy="215.589" r="215.59" fx="215.59" fy="215.589">
   <stop offset="0" style="stop-color:black"/>
   <stop offset="0.701961" style="stop-color:#313131"/>
   <stop offset="1" style="stop-color:#626262"/>
  </radialGradient>
  <radialGradient id="id51" gradientUnits="userSpaceOnUse" cx="384.716" cy="179.495" r="160.122" fx="384.716" fy="179.495">
   <stop offset="0" style="stop-color:#E0A0E6"/>
   <stop offset="1" style="stop-color:#B648B8"/>
  </radialGradient>
  <radialGradient id="id52" gradientUnits="userSpaceOnUse" cx="215.59" cy="215.589" r="187.557" fx="215.59" fy="215.589">
   <stop offset="0" style="stop-color:#FFFF66"/>
   <stop offset="0.321569" style="stop-color:#CCCC33"/>
   <stop offset="0.619608" style="stop-color:#949426"/>
   <stop offset="1" style="stop-color:#333300"/>
  </radialGradient>
  <radialGradient id="id53" gradientUnits="userSpaceOnUse" cx="309.263" cy="175.85" r="27.7923" fx="309.263" fy="175.85">
   <stop offset="0" style="stop-color:#FEFEFE"/>
   <stop offset="0.419608" style="stop-color:white"/>
   <stop offset="1" style="stop-color:#B7F145"/>
  </radialGradient>
  <radialGradient id="id54" gradientUnits="userSpaceOnUse" cx="307.189" cy="168.684" r="11.1062" fx="307.189" fy="168.684">
   <stop offset="0" style="stop-color:#333333"/>
   <stop offset="1" style="stop-color:black"/>
  </radialGradient>
  <radialGradient id="id55" gradientUnits="userSpaceOnUse" cx="313.264" cy="186.581" r="32.5402" fx="313.264" fy="186.581">
   <stop offset="0" style="stop-color:#FEFEFE"/>
   <stop offset="0.741176" style="stop-color:#F2F2F2"/>
   <stop offset="1" style="stop-color:#B3B3B3"/>
  </radialGradient>
  <radialGradient id="id56" gradientUnits="userSpaceOnUse" xlink:href="#id51" cx="322.691" cy="187.128" r="107.163" fx="322.691" fy="187.128">
  </radialGradient>
  <radialGradient id="id57" gradientUnits="userSpaceOnUse" cx="310.981" cy="165.985" r="6.52911" fx="310.981" fy="165.985">
   <stop offset="0" style="stop-color:#1A1A1A"/>
   <stop offset="1" style="stop-color:black"/>
  </radialGradient>
 </defs>
 <g id="Layer_x0020_1">
  <metadata id="CorelCorpID_0Corel-Layer"/>
  <path class="fil0" d="M346.714 11.7241l-262.247 0c-40.0109,0 -72.7438,32.7328 -72.7438,72.7405l0 262.247c0,40.0109 32.7328,72.7438 72.7438,72.7438l262.247 0c40.0077,0 72.7405,-32.7328 72.7405,-72.7438l0 -262.247c0,-40.0077 -32.7328,-72.7405 -72.7405,-72.7405z"/>
  <g style="clip-path:url(#id0)">
   <g id="_256231280">
    <g>
     <path id="_2563321841" class="fil1" d="M325.278 116.445c-32.9664,-59.1406 19.8823,-93.818 24.1096,-67.5565 0.861261,5.35399 -5.07046,9.35996 -9.3235,9.24442 -5.57402,-0.152421 -6.52092,-8.09921 -6.55001,-9.14977 -0.0290911,-1.05056 -28.2934,8.59212 -8.23606,67.4619z"/>
     <g>
      <path id="_256332016" class="fil2" d="M281.309 127.363c3.68392,-67.6077 -59.0201,-75.5894 -51.2991,-50.135 1.5742,5.18928 8.66219,6.18739 12.4334,4.2178 4.94221,-2.58173 2.30721,-10.1389 1.87248,-11.0956 -0.434728,-0.956729 29.1952,-4.689 36.9932,57.0128z"/>
      <path id="_256331848" class="fil3" d="M239.163 63.9668c-1.58526,1.52708 -3.04555,2.96074 -3.75521,3.72571 -7.79765,8.40241 2.73497,14.6963 9.46199,11.0923 -0.442922,1.07514 -1.20134,2.0204 -2.42644,2.6604 -3.77119,1.96959 -10.8592,0.971479 -12.4334,-4.2178 -2.40514,-7.92999 2.02572,-12.6124 9.15305,-13.2606z"/>
      <path id="_256331608" class="fil4" d="M246.92 64.6708c-10.2007,-2.52273 -18.4466,1.20831 -17.4821,9.8078 0.755549,-2.84642 2.24206,-7.20927 5.40193,-8.39258 3.15987,-1.18331 7.11257,-1.25788 12.0802,-1.41522z"/>
     </g>
     <path id="_256331464" class="fil5 str0" d="M381.439 123.253c0,0 -3.99122,-69.0447 -85.4922,-44.3631 -81.501,24.6816 -63.6559,67.1517 -60.2817,81.41 3.37416,14.2583 0.537981,12.6288 0.537981,12.6288l-6.28983 -22.0703c0,0 -21.064,-57.6635 62.1947,-77.4942 83.2588,-19.8307 87.547,33.0995 94.2093,49.2644 6.66227,16.1652 -4.87829,0.624435 -4.87829,0.624435z"/>
     <path id="_256331296" class="fil3" d="M335.345 40.9865c2.09456,0.67729 4.03588,1.32508 5.00941,1.70081 10.6932,4.13094 3.98835,14.4071 -3.63762,14.119 0.869455,0.771939 1.96549,1.2882 3.34753,1.32631 4.25304,0.115545 10.1848,-3.89042 9.3235,-9.24442 -1.31729,-8.18116 -7.35349,-10.4458 -14.0428,-7.90172z"/>
     <g>
      <path id="_256331128" class="fil6 str1" d="M235.665 160.3c2.19863,-0.84774 9.66357,-4.17396 16.4164,-6.32957 2.87756,-0.918623 -2.76529,14.1547 0.220847,18.3901 4.76807,6.76307 9.57917,15.8805 13.5909,26.2853 7.58049,19.6599 23.2008,34.8491 19.7566,42.3829 -0.767432,1.67827 -15.0635,5.80839 -16.4164,6.32998 -7.42479,2.86281 -20.9583,-14.305 -30.2281,-38.3454 -9.26941,-24.0407 -10.7649,-45.85 -3.34015,-48.7133z"/>
      <path id="_256331032" class="fil7 str1" d="M252.081 153.97c7.42479,-2.86322 20.9583,14.305 30.2281,38.3454 9.26941,24.0403 10.7649,45.85 3.34015,48.7129 -7.42479,2.86322 -20.9583,-14.305 -30.2281,-38.3454 -9.26941,-24.0403 -10.7649,-45.85 -3.34015,-48.7129z"/>
      <path id="_256330864" class="fil8 str1" d="M260.355 175.429c3.76464,-1.45128 10.6264,7.25311 15.3261,19.4423 4.70006,12.1892 5.45848,23.2471 1.69384,24.6984 -3.76464,1.45169 -10.6264,-7.2527 -15.3265,-19.4419 -4.69965,-12.1892 -5.45807,-23.2471 -1.69343,-24.6988z"/>
     </g>
     <path id="_256330720" class="fil9" d="M314.263 429.108c-4.45381,-35.3711 -17.4399,-136.8 -22.687,-159.513 -15.3007,-66.2286 -116.433,-153.997 10.835,-183.023 127.267,-29.0264 70.2751,150.727 92.6437,201.86 3.29508,7.53337 6.24762,14.4497 8.92319,20.9399 -4.96024,-1.65041 -10.1155,0.18479 -9.22229,6.32301 8.11355,37.487 13.8629,69.6163 15.0237,91.3465l-95.5164 22.067z"/>
     <path id="_256330552" class="fil10" d="M297.391 87.7867c1.63853,-0.413831 3.29836,-0.822336 5.01924,-1.21445 127.267,-29.0264 70.2759,150.727 92.6437,201.86 22.258,50.8804 26.6458,61.7203 36.6835,113.539l-7.33874 1.69548c-10.0377,-51.8186 -14.4259,-62.6582 -36.6835,-113.539 -22.2289,-50.8144 33.887,-228.62 -90.3242,-202.34z"/>
     <path id="_256330384" class="fil11" d="M314.263 429.108c-4.45381,-35.3711 -17.4399,-136.8 -22.687,-159.513 -15.676,-67.8536 -116.872,-158.948 18.7076,-184.566 -110.156,31.543 -32.648,118.435 -15.9366,167.809 7.55877,22.3334 31.9244,134.492 39.9196,171.649l-20.0036 4.62139z"/>
     <path id="_256330216" class="fil3" d="M266.282 180.234c0,0 56.1868,-0.121281 85.5004,-24.2927 -16.5516,-56.3089 -105.047,-25.0327 -85.5004,24.2927z"/>
     <path id="_256330048" class="fil12" d="M313.684 424.518c0,0 -15.7256,-127.296 -22.108,-154.923 -15.3007,-66.2286 -116.433,-153.997 10.835,-183.023 0.276161,-0.063099 0.535522,-0.106531 0.810044,-0.167991 -124.527,29.4398 -24.3103,116.683 -9.08216,182.599 6.38284,27.6275 22.108,154.923 22.108,154.923l-2.56289 0.592066z"/>
     <path id="_256329880" class="fil13" d="M266.467 181.037c0,0 56.1868,-0.121281 85.5004,-24.2927 -16.5516,-56.3089 -105.047,-25.0327 -85.5004,24.2927z"/>
     <path id="_256329712" class="fil14" d="M264.117 172.085c0,0 41.6863,-37.0924 87.2233,-17.2768 35.3609,105.767 -73.2301,119.164 -87.2233,17.2768z"/>
     <path id="_256329544" class="fil15" d="M266.261 175.263c0,0 45.3702,-32.5198 84.5113,-15.4875 31.252,92.9059 -71.6748,104.774 -84.5113,15.4875z"/>
     <path id="_256329376" class="fil16 str2" d="M287.697 163.927c10.8313,-4.74103 24.8647,-9.151 39.4918,-9.07438 8.1787,4.95532 14.3177,13.7609 15.9473,24.4214 2.76652,18.1004 -8.51099,34.6905 -25.19,37.0555 -16.6786,2.36498 -32.4423,-10.3913 -35.2088,-28.4913 -1.34802,-8.81911 0.639185,-17.2797 4.95983,-23.9113z"/>
     <path id="_256329280" class="fil17 str0" d="M306.186 160.273c7.13224,-1.01122 13.7744,3.79905 14.8361,10.7445 1.06203,6.94581 -3.85928,13.3958 -10.9915,14.4071 -7.13224,1.01122 -13.7748,-3.79905 -14.8365,-10.7449 -1.06162,-6.9454 3.85969,-13.3954 10.9919,-14.4067z"/>
     <path id="_256329112" class="fil18" d="M306.186 160.273c6.86468,-0.973938 13.2742,3.44627 14.6922,9.97169 -3.26886,-1.86265 -7.58336,-2.65221 -12.1437,-1.92083 -5.87558,0.942388 -10.7068,4.17642 -13.0992,8.24835 -0.193804,-0.610094 -0.342128,-1.2419 -0.441283,-1.89256 -1.06203,-6.9454 3.8601,-13.3954 10.9919,-14.4067z"/>
     <path id="_256328944" class="fil19" d="M311.64 161.958c5.29663,0.928867 7.76856,9.32472 3.22952,4.66482 -4.53903,-4.65949 -6.27508,-5.21182 -3.22952,-4.66482z"/>
     <path id="_256328776" class="fil20" d="M351.308 154.608c-44.3807,-19.6758 -85.4603,15.3388 -87.191,17.4772 0.044661,0.251986 0.0266327,0.329836 0.129476,0.901824 -0.762925,-0.290092 40.6395,-37.5353 87.4942,-16.9523 -0.24625,-0.738341 -0.197492,-0.75473 -0.432679,-1.42669z"/>
     <path id="_256328608" class="fil21" d="M312.48 429.52c-4.46815,-25.519 -14.2735,-83.1842 -12.9857,-90.609 1.66065,-9.57466 10.0807,-13.6855 15.1503,-6.48158 5.47159,18.5437 20.4941,65.3435 33.4224,88.8688l-35.587 8.22172z"/>
     <path id="_256328440" class="fil22" d="M309.888 430.119c-3.47741,-25.7198 -11.1239,-83.8262 -10.3359,-91.7427 1.01614,-10.2118 11.8925,-17.3731 15.0921,-5.94647 7.57147,38.3855 15.1765,70.7254 22.848,91.3121l-27.6042 6.3771z"/>
     <path id="_256328272" class="fil23" d="M309.903 430.115c-3.502,-26.1263 -11.2845,-85.6274 -10.3507,-91.7394 1.20011,-7.85706 2.13267,-8.60072 6.14437,-10.7613 -4.81765,2.97959 -4.65335,7.17977 -5.16142,11.2005 -0.396622,3.14102 8.41962,64.0885 12.299,90.6229l-2.93124 0.67729z"/>
     <path id="_256328104" class="fil24" d="M433.819 401.488c-5.77479,-24.8876 -18.9772,-80.5066 -23.0016,-86.5706 -5.20321,-7.83944 -14.328,-7.86156 -16.0624,0.778085 2.33466,19.1575 12.4477,64.9174 13.1041,91.7898l25.9599 -5.99728z"/>
     <path id="_256327936" class="fil25" d="M436.916 400.772c-6.91549,-24.8065 -22.6739,-80.4967 -26.359,-86.308 -4.75701,-7.50141 -17.1478,-8.01931 -15.8018,1.23084 8.11355,37.487 13.8629,69.6163 15.0237,91.3465l27.1371 -6.26934z"/>
     <path id="_256327768" class="fil26" d="M399.289 308.897c-2.98614,0.475701 -5.13642,2.65712 -4.53453,6.79831 8.11437,37.4866 13.8638,69.6158 15.0249,91.3461l0.958777 -0.221666c-1.16078,-21.7302 -6.91057,-53.8591 -15.0241,-91.3461 -0.535113,-3.68228 1.10546,-5.81494 3.57493,-6.57664z"/>
     <path id="_256327600" class="fil27" d="M359.52 287.175c3.98548,-5.08685 3.02629,12.1171 3.02629,12.1171 -0.311808,-0.0417929 0.963284,14.3981 -18.7507,19.1796 -19.7139,4.782 -25.0388,-9.0629 -25.0388,-9.0629 0,0 -7.32276,-16.8905 -1.47873,-12.6981 14.9721,10.7412 27.7107,9.00923 42.2419,-9.53574z"/>
     <path id="_256327432" class="fil28" d="M351.989 261.294c5.96982,-3.48069 5.1229,-8.64006 5.1229,-8.64006 -0.333523,0.190936 -4.45627,-7.11462 -29.196,-1.62623 -24.7401,5.48798 -25.5084,14.2645 -25.5084,14.2645 0,0 1.50249,5.01064 8.3934,5.51748 19.5505,1.43817 23.9449,0.53921 41.1881,-9.51566z"/>
     <g>
      <g>
       <path id="_256327264" class="fil29" d="M343.645 251.341c-0.825614,2.06137 -4.52059,1.07391 -5.95917,-3.39506 -1.6586,-5.15199 6.73685,1.06408 5.95917,3.39506z"/>
       <path id="_256327024" class="fil30" d="M341.844 251.014c0.758827,2.5342 -3.16724,0.00573628 -3.91951,-2.64319 -1.10177,-3.87772 3.16069,0.108989 3.91951,2.64319z"/>
      </g>
      <g>
       <path id="_256326880" class="fil29" d="M312.145 257.741c1.64631,1.49061 4.53371,-1.01737 3.86625,-5.66457 -0.76948,-5.35727 -5.58754,3.91091 -3.86625,5.66457z"/>
       <path id="_256326736" class="fil30" d="M313.62 256.659c0.429811,2.61041 2.84888,-1.38408 2.36335,-4.09447 -0.711298,-3.96827 -2.79316,1.48406 -2.36335,4.09447z"/>
      </g>
     </g>
     <path id="_256326496" class="fil31" d="M357.151 252.037c12.2338,46.0902 -40.1588,63.6747 -54.9113,13.3102 4.62221,11.2874 53.022,3.64786 54.9113,-13.3102z"/>
    </g>
    <g style="clip-path:url(#id1)">
     <g>
      <ellipse id="_256750064" class="fil32" transform="matrix(0.782246 -0.18072 0.18072 0.782246 339.579 293.329)" rx="39.2292" ry="7.46044"/>
     </g>
    </g>
    <g style="clip-path:url(#id2)">
     <path class="fil33" d="M357.151 252.037c12.2338,46.0902 -40.1588,63.6747 -54.9113,13.3102 4.62221,11.2874 53.022,3.64786 54.9113,-13.3102z"/>
     <path id="_256326328" class="fil4" d="M319.044 57.9093c7.7284,-16.482 23.1487,-22.7152 28.622,-13.9137 -1.20257,-1.46931 -2.80299,-2.36416 -4.92787,-2.30148 -11.4689,0.340489 -18.3135,7.34899 -23.6941,16.2152z"/>
     <g>
      <path id="_256326160" class="fil34 str1" d="M374.45 124.276c2.33876,-0.289272 10.3876,-1.70572 17.4616,-2.1593 3.014,-0.193394 -6.11569,13.0615 -4.24566,17.8947 2.98491,7.71775 5.44127,17.7296 6.80978,28.7965 2.58624,20.9116 14.0563,39.4357 8.88754,45.9095 -1.15135,1.44185 -16.0222,1.98147 -17.4612,2.1593 -7.89762,0.976806 -16.8634,-18.9608 -20.0257,-44.5319 -3.16233,-25.5711 0.676471,-47.092 8.57368,-48.0688z"/>
      <path id="_256326064" class="fil35 str1" d="M391.911 122.117c7.89762,-0.976806 16.8634,18.9608 20.0257,44.5319 3.16233,25.5707 -0.676471,47.092 -8.57409,48.0688 -7.89721,0.976396 -16.8634,-18.9613 -20.0257,-44.5319 -3.16233,-25.5711 0.676471,-47.0924 8.57409,-48.0688z"/>
      <path id="_256325896" class="fil36" d="M394.734 144.942c4.00433,-0.495368 8.54992,9.61359 10.1536,22.5784 1.60329,12.9652 -0.342947,23.8768 -4.34728,24.3718 -4.00433,0.495368 -8.54992,-9.61359 -10.1536,-22.5784 -1.60329,-12.9652 0.342947,-23.8768 4.34728,-24.3718z"/>
     </g>
     <path id="_256325752" class="fil37 str0" d="M255.113 81.7616c0,0 -8.76298,11.3455 3.25001,15.8878 12.013,4.54272 5.54821,-17.9209 68.7034,-17.1363 13.241,-8.32415 -0.512577,-17.0826 -11.8815,-16.4996 -11.3685,0.583051 -26.8531,-2.5633 -60.0719,17.748z"/>
    </g>
    <rect id="_256325584" class="fil38" x="-3.46717" y="376.595" width="118.816" height="53.3375"/>
    <path id="_256325416" class="fil39" d="M-28.8117 332.133c-1.01778,-9.37881 56.0545,-43.6867 92.175,-40.3912 2.95623,0.506431 5.12741,1.37302 9.12641,1.11325 4.99466,-3.32458 7.36292,-1.62009 14.5705,-23.6126 7.20763,-21.9921 25.104,-0.871094 25.104,-0.871094 0,0 -10.2249,19.8549 -7.0212,32.3694 0.250757,10.7363 157.26,72.3103 157.26,72.3103l-10.6486 23.9158c0.0311398,0.436776 -125.841,-73.2764 -135.699,-52.2968 -9.85779,20.98 -5.53919,9.0166 5.10979,38.0163l-101.961 5.6658c0,0 15.8862,-51.3974 20.5441,-60.3952 4.65786,-8.99776 -32.0342,0.270424 -43.6051,15.2876 -13.8597,-6.17141 -24.9544,-11.1116 -24.9544,-11.1116z"/>
    <path id="_256325248" class="fil40" d="M251.541 395.503l-1.75735 3.94697c0,0 -136.41,-80.9466 -146.241,-59.5978 -9.83116,21.3484 -10.2565,28.9276 -16.0853,44.0509l-6.82945 -3.04105c5.25115,-14.4866 11.3881,-31.2631 19.6488,-49.2021 8.26065,-17.939 120.03,53.2634 151.264,63.8431z"/>
    <path id="_256325080" class="fil41" d="M204.928 351.509l27.1772 8.85435c0,0 -118.731,-41.8596 -128.563,-20.5109 -9.83116,21.3484 -10.2565,28.9276 -16.0853,44.0509l-1.61804 -0.720312c4.93975,-13.7847 9.98685,-31.9748 17.0892,-45.9058 7.10233,-13.9305 63.6264,1.58321 102,14.2317z"/>
    <path id="_256324912" class="fil42" d="M30.5125 358.548l-3.38768 -1.50823c0,0 7.96523,-20.0847 12.6231,-29.0825 4.65786,-8.99776 -32.0342,0.270424 -43.6051,15.2876l-7.76897 -3.45938c18.6408,-14.0326 55.1633,-30.7153 55.5349,-19.1739 0.371629,11.5414 -6.12716,19.21 -13.3963,37.9364z"/>
    <path id="_256324744" class="fil43" d="M18.0041 300.598c15.6723,-7.35268 36.0906,-10.4552 45.3592,-8.8564 2.95623,0.506431 5.12741,1.37302 9.12641,1.11325 4.99466,-3.32458 7.36292,-1.62009 14.5705,-23.6126 7.20763,-21.9921 25.104,-0.871094 25.104,-0.871094 0,0 -10.2249,19.8549 -7.0212,32.3694 0.0249938,1.06941 1.42915,2.28222 3.90435,3.59542 -5.02785,1.82782 -11.3386,2.93165 -18.4216,1.58567 -16.3332,-3.10414 -40.2314,-9.43863 -56.2028,-6.00711 -15.9714,3.43152 -12.2326,-0.313856 -16.4189,0.683436z"/>
    <path id="_256324576" class="fil44" d="M-28.8117 332.133c-6.82822,-0.0237646 45.1715,-44.6819 92.175,-40.3912 2.95623,0.506431 5.12741,1.37302 9.12641,1.11325 4.99466,-3.32458 7.36292,-1.62009 14.5705,-23.6126 3.75357,-11.4529 10.4052,-11.212 15.919,-8.35243 -5.05038,-1.86552 -10.6773,-4.85248 -15.9366,11.1943 -5.25934,16.0468 -8.61548,17.9472 -13.6097,21.2717 -3.999,0.259771 -5.12085,-0.220437 -8.07709,-0.726868 -54.3201,-3.27336 -101.743,40.6919 -92.175,40.3908l-1.99254 -0.887074zm57.3742 25.5465l-1.43776 -0.640004c0,0 9.99259,-24.0465 12.6231,-29.0825 0.361795,-0.69327 -0.406456,2.35884 -2.6518,7.97588 -0.696138,1.74014 -5.12126,9.57097 -8.53353,21.7466z"/>
    <g>
     <path id="_256324408" class="fil45" d="M171.826 19.3304l0.000409734 0c32.36,9.94383 50.7005,44.5557 40.7566,76.9157 -14.7992,48.1614 -34.2038,88.6881 -44.3975,144.484 -9.96514,32.4288 -44.5893,50.6902 -76.9976,40.7317 -32.36,-9.94383 -50.6189,-44.5307 -40.6755,-76.8907 21.2312,-51.5695 32.6451,-97.9367 44.3979,-144.484 9.94383,-32.36 44.5557,-50.7005 76.9157,-40.7566z"/>
     <path id="_256324240" class="fil46" d="M171.823 19.3292l-0.000409734 0c-4.54764,-1.3976 -9.14075,-2.23633 -13.7023,-2.55633 50.0318,3.8261 47.5955,46.9244 39.0493,74.7367 -7.07488,19.4472 -14.1838,38.8313 -20.8944,58.9656 -5.66375,16.9925 -7.73045,13.3987 -4.14446,32.2309 1.20503,6.32752 -6.89418,30.3621 -7.9853,34.1058 -5.67891,19.4923 -11.1587,22.4723 -12.9099,27.2883 -0.920672,2.53298 -1.17839,5.36833 -1.37343,6.42053 -8.54787,27.8177 -38.3109,35.7415 -71.3085,25.408 33.9587,19.691 77.9793,2.70916 89.6281,-35.1998 11.3914,-54.5929 27.9844,-99.3687 44.3979,-144.484 9.94383,-32.36 -8.39668,-66.9718 -40.7566,-76.9157z"/>
     <path id="_256324072" class="fil42" d="M171.826 19.3304l0.000409734 0c4.54764,1.39719 8.8187,3.28238 12.773,5.57935 -27.8992,-1.95566 -54.6675,15.5002 -63.2138,43.3126 -5.06595,20.0643 -10.0692,40.0957 -15.8227,60.5243 -4.85576,17.2404 -12.1929,12.0273 -25.7354,25.5965 -4.5501,4.55911 -11.3447,28.994 -12.5448,32.7046 -6.2468,19.3181 0.645741,26.922 -0.609684,31.8908 -0.660491,2.61287 -2.03966,5.10365 -2.46947,6.08373 -8.54787,27.8177 7.59852,49.0259 40.705,59.005 -39.1566,-2.77595 -66.045,-41.5474 -54.3963,-79.456 21.2312,-51.5695 32.6451,-97.9367 44.3979,-144.484 9.94383,-32.36 44.5557,-50.7005 76.9157,-40.7566z"/>
     <g>
      <path id="_256323904" class="fil47" d="M186.633 161.847c-8.68923,-5.79733 -44.8974,-19.8303 -49.4446,1.30541 -3.23075,15.0176 44.3943,22.6927 49.4446,-1.30541z"/>
      <path id="_256323736" class="fil48" d="M186.146 163.045c-8.48313,-4.58205 -40.156,-10.483 -46.8551,1.09973 -6.6717,11.5348 38.9636,17.9181 46.8551,-1.09973z"/>
      <path id="_256323568" class="fil19" d="M164.172 158.919c-2.97918,-0.333114 -12.9189,-0.235187 -13.6659,1.32262 -0.744077,1.55125 13.3536,1.15586 13.6659,-1.32262z"/>
      <g>
       <path id="_256323400" class="fil49" d="M89.835 131.406c9.80944,0.020077 46.985,9.06495 43.2839,30.4666 -2.63008,15.2069 -47.5861,-6.23328 -43.2839,-30.4666z"/>
       <path id="_256323232" class="fil50" d="M89.8284 132.755c9.18255,0.973528 39.3713,14.5271 41.0668,28.7498 1.68851,14.1637 -41.034,-7.24 -41.0668,-28.7498z"/>
       <path id="_256323112" class="fil19" d="M110.784 142.13c2.75874,1.47135 11.5201,7.4506 11.6119,9.27187 0.0913707,1.81389 -12.2412,-6.89295 -11.6119,-9.27187z"/>
      </g>
     </g>
     <path id="_256322800" class="fil51" d="M181.638 23.3012c-14.1092,-3.33278 -29.9192,-5.78298 -52.6115,7.24983 -24.5803,14.1166 -32.5259,41.8588 -43.1118,77.3188 -10.5859,35.46 -8.94736,25.8956 -12.0527,30.6596 8.07668,-26.7089 14.5107,-52.5484 21.0489,-78.4423 9.94383,-32.36 44.5557,-50.7005 76.9157,-40.7566l0.000409734 0c3.4348,1.05547 6.70939,2.39162 9.81108,3.97073z"/>
     <path id="_256322632" class="fil52" d="M153.358 202.885c10.3999,3.19551 12.7796,-3.27214 12.7796,-3.27214 -0.601489,-0.0749813 5.72398,-5.01842 -42.1837,-19.959 -47.9073,-14.9405 -44.9015,-6.80117 -44.9015,-6.80117 0,0 -1.66311,6.68809 8.73717,9.88401 30.905,9.49681 34.6631,10.6514 65.5685,20.1483z"/>
     <path id="_256322464" class="fil53" d="M79.2577 172.184c0,0 -1.6627,6.68809 8.73717,9.88401 10.3999,3.19592 43.3064,13.3073 43.3064,13.3073m35.0421 3.56878c0,0 -2.37973,6.46806 -12.78,3.27214 -10.3999,-3.19592 -43.3064,-13.3073 -43.3064,-13.3073"/>
     <path id="_256322344" class="fil54" d="M88.1993 181.399l22.1768 7.417 21.0443 6.46683 22.3481 6.26442c7.20927,2.07284 9.51976,1.06982 13.2176,-2.34859 -34.6774,55.0916 -105.192,-3.26886 -88.4894,-26.5901 0.578544,4.34482 1.7848,6.29065 9.7025,8.79043z"/>
    </g>
    <g style="clip-path:url(#id3)">
     <g>
      <ellipse id="_256230944" class="fil55" transform="matrix(0.884084 0.393647 -0.393647 0.884084 118.782 226.67)" rx="42.3583" ry="17.4223"/>
     </g>
    </g>
    <g style="clip-path:url(#id4)">
     <path class="fil33" d="M88.1993 181.399l22.1768 7.417 21.0443 6.46683 22.3481 6.26442c7.20927,2.07284 9.51976,1.06982 13.2176,-2.34859 -34.6774,55.0916 -105.192,-3.26886 -88.4894,-26.5901 0.578544,4.34482 1.7848,6.29065 9.7025,8.79043z"/>
     <path id="_256322176" class="fil56" d="M127.101 229.226c4.62508,1.42137 2.76325,8.0484 2.76325,8.0484 -0.222895,-0.178644 -13.4298,0.809634 -21.0824,-1.32262 -7.6526,-2.13226 -17.6489,-10.5789 -17.6489,-10.5789 0,0 2.1806,-6.52911 6.80609,-5.10815 13.7453,4.22395 15.4166,4.73734 29.162,8.96129z"/>
     <g>
      <g>
       <path id="_256322008" class="fil57" d="M134.651 174.243c-1.08416,-0.750633 -5.53919,-1.23412 -6.94827,1.31893 -1.40334,2.5424 5.09258,2.80053 6.94827,-1.31893z"/>
       <path id="_256321768" class="fil58" d="M131.746 174.694c0.651477,-1.50331 -3.29713,-0.557238 -3.9359,1.02106 -0.935013,2.31008 3.28402,0.481847 3.9359,-1.02106z"/>
      </g>
      <g>
       <path id="_256321624" class="fil57" d="M119.413 169.561c1.31852,-0.012292 5.27614,2.08923 5.00859,4.99302 -0.266327,2.8919 -5.78626,-0.542488 -5.00859,-4.99302z"/>
       <path id="_256321504" class="fil58" d="M121.564 171.565c0.304432,-1.60943 3.04064,1.39064 2.68294,3.05539 -0.52364,2.43669 -2.98778,-1.44554 -2.68294,-3.05539z"/>
      </g>
     </g>
     <path id="_256321192" class="fil57" d="M168.517 238.948c-0.111448,0.593295 -0.222486,1.18577 -0.331475,1.78234 -9.96514,32.4288 -44.5893,50.6902 -76.9976,40.7317 -32.36,-9.94383 -50.6189,-44.5307 -40.6755,-76.8907 0.260591,-0.633039 0.519133,-1.26485 0.776856,-1.89666 -6.95073,30.9673 9.74265,67.1431 40.5661,76.6145 30.7948,9.46281 64.9223,-10.901 76.6616,-40.3412z"/>
     <path id="_256320952" class="fil44" d="M173.726 19.9516c-33.7846,-10.2274 -67.7118,8.83181 -77.459,40.5522 -11.7528,46.5474 -22.4088,93.1477 -43.6399,144.717 -9.74757,31.7216 4.68531,66.8768 40.4846,76.794 -33.4376,-9.10798 -52.775,-44.3271 -42.5988,-77.4438 21.2312,-51.5695 32.6451,-97.9367 44.3979,-144.484 10.1872,-33.1524 46.0774,-51.3626 78.8152,-40.1355z"/>
    </g>
    <g>
     <path id="_256320808" class="fil59" d="M143.449 362.097c72.4844,4.14323 137.942,9.56319 137.942,9.56319 0,0 7.07733,-0.224534 42.094,1.53855 30.138,-6.52378 36.6687,16.1066 19.8705,27.3661 -13.5036,9.05184 -18.9375,-1.27181 -27.0154,-3.79987 -11.0034,-3.44299 -18.1504,-2.36621 -23.2512,-2.68908 -11.813,-0.746945 -89.2425,-5.00572 -155.578,-8.19263 2.60837,-3.64868 7.72144,-5.25443 8.56057,-9.54229 0.839135,-4.28746 0.405637,-8.87893 -2.6223,-14.244z"/>
     <path id="_256320640" class="fil60" d="M144.269 324.354c72.4848,4.14364 137.942,9.5636 137.942,9.5636 0,0 7.07733,-0.224534 42.094,1.53814 30.1384,-6.52337 36.6687,16.1071 19.8705,27.3665 -13.5036,9.05143 -18.9371,-1.27181 -27.0154,-3.79987 -11.0034,-3.44299 -18.1504,-2.36621 -23.2512,-2.68908 -11.813,-0.746945 -89.2421,-5.00572 -155.578,-8.19263 2.60837,-3.64868 7.72144,-5.25443 8.56057,-9.54229 0.839135,-4.28787 0.405637,-8.87893 -2.6223,-14.2444z"/>
     <circle id="_256320544" class="fil61 str0" transform="matrix(0.894971 0.501926 -0.501926 0.894971 328.819 339.849)" r="2.34859"/>
     <circle id="_256320448" class="fil61 str0" transform="matrix(0.894971 0.501926 -0.501926 0.894971 339.884 345.527)" r="2.34859"/>
     <circle id="_256320352" class="fil61 str0" transform="matrix(0.894971 0.501926 -0.501926 0.894971 346.069 349.602)" r="2.34859"/>
     <circle id="_256320256" class="fil61 str0" transform="matrix(0.894971 0.501926 -0.501926 0.894971 345.941 355.523)" r="2.34859"/>
     <polygon id="_256320088" class="fil61 str0" points="291.286,334.012 295.487,334.143 294.011,356.36 290.724,356.564 "/>
     <path id="_256319920" class="fil62" d="M3.7843 337.517c-10.0254,87.6069 82.1775,57.4721 84.9792,58.4612 152.613,53.8825 36.6355,-23.1655 77.1377,-62.0222 40.5022,-38.8567 -18.6335,-22.5042 -63.0806,-19.7242 -3.06973,0.192165 -89.8837,-56.6928 -99.0364,23.2852z"/>
     <path id="_256319752" class="fil63 str3" d="M11.7446 337.671c-11.5832,88.4173 74.4024,54.3557 77.0255,55.2821 142.908,50.4559 36.8552,-22.2313 74.7818,-58.6169 37.9266,-36.3852 -17.4485,-21.073 -59.0689,-18.4696 -2.87469,0.179463 -82.9465,-52.938 -92.7384,21.8044z"/>
     <polygon id="_256319584" class="fil61 str0" points="24.7311,314.716 30.6321,314.9 28.5585,346.108 23.9412,346.395 "/>
     <path id="_256319416" class="fil64 str0" d="M108.544 320.364l5.90099 0.183561 -2.07366 31.2086 -4.61729 0.286814 0.789967 -31.679zm10.749 0.821926l5.90099 0.183561 -2.07366 31.2086 -4.61729 0.286814 0.789967 -31.679z"/>
     <path id="_256319272" class="fil64 str0" d="M60.5747 317.172l5.90099 0.183561 -2.07366 31.2086 -4.61729 0.286814 0.789967 -31.679zm10.749 0.821926l5.90099 0.183561 -2.07366 31.2086 -4.61729 0.286814 0.789967 -31.679z"/>
     <path id="_256319128" class="fil53 str0" d="M28.0045 321.024c-3.11644,-1.79791 300.814,18.8244 300.814,18.8244"/>
     <line id="_256319152" class="fil53 str0" x1="26.2816" y1="326.919" x2="339.884" y2= "345.527" />
     <path id="_256319008" class="fil64 str0" d="M106.251 355.556l5.90099 0.183971 -2.07366 31.2082 -4.61729 0.286814 0.789967 -31.679zm10.749 0.821926l5.90099 0.183561 -2.07366 31.2086 -4.61729 0.286814 0.789967 -31.679z"/>
     <line id="_256318936" class="fil53 str0" x1="26.411" y1="334.216" x2="346.259" y2= "350.158" />
     <line id="_256318888" class="fil53 str0" x1="27.076" y1="340.559" x2="346.014" y2= "355.298" />
     <circle id="_256318792" class="fil61 str0" transform="matrix(0.894971 0.501926 -0.501926 0.894971 327.999 377.591)" r="2.34859"/>
     <circle id="_256318696" class="fil61 str0" transform="matrix(0.894971 0.501926 -0.501926 0.894971 339.064 383.27)" r="2.34859"/>
     <circle id="_256318600" class="fil61 str0" transform="matrix(0.894971 0.501926 -0.501926 0.894971 345.249 387.345)" r="2.34859"/>
     <circle id="_256318504" class="fil61 str0" transform="matrix(0.894971 0.501926 -0.501926 0.894971 345.121 393.266)" r="2.34859"/>
     <polygon id="_256318336" class="fil61 str0" points="290.467,371.754 294.668,371.885 293.191,394.102 289.904,394.306 "/>
     <polygon id="_256318168" class="fil61 str0" points="23.9113,352.458 29.8122,352.642 27.7386,383.851 23.1213,384.137 "/>
     <path id="_256318024" class="fil64 str0" d="M59.7548 354.914l5.90099 0.183971 -2.07366 31.2082 -4.61729 0.286814 0.789967 -31.679zm10.749 0.821926l5.90099 0.183561 -2.07366 31.2086 -4.61729 0.286814 0.789967 -31.679z"/>
     <path id="_256317976" class="fil53 str0" d="M27.1842 358.767c-3.11644,-1.79832 300.815,18.8244 300.815,18.8244"/>
     <line id="_256317928" class="fil53 str0" x1="25.4617" y1="364.662" x2="339.064" y2= "383.27" />
     <line id="_256317880" class="fil53 str0" x1="25.5912" y1="371.959" x2="345.439" y2= "387.9" />
     <line id="_256317736" class="fil53 str0" x1="26.2562" y1="378.301" x2="345.194" y2= "393.041" />
    </g>
    <g>
     <g>
      <path id="_256317592" class="fil65" d="M194.179 340.234c1.54716,-7.70587 6.3644,-8.4438 3.82282,-14.7844 -2.54117,-6.34063 -14.4923,-7.56656 -16.1591,4.04039 -1.66721,11.6065 3.62328,9.9131 1.61681,15.5834 -2.00606,5.67031 -0.83176,11.6414 6.26319,9.34603 11.0915,-3.58804 2.9087,-6.47953 4.45627,-14.1854z"/>
      <path id="_256317424" class="fil42" d="M190.829 320.707c-3.91624,-0.179463 -8.05578,2.29902 -8.98669,8.78224 -1.66721,11.6065 3.62328,9.9131 1.61681,15.5834 -1.99622,5.64204 -0.842823,11.5811 6.15912,9.3784 -4.17478,-0.306481 -4.67629,-5.17125 -3.0267,-9.83361 2.00606,-5.67031 -3.28402,-3.97688 -1.61722,-15.5834 0.681797,-4.74472 3.08202,-7.34407 5.85469,-8.32702z"/>
      <path id="_256317184" class="fil55" d="M194.179 340.234c1.54716,-7.70587 6.3644,-8.4438 3.82282,-14.7844 -1.36974,-3.41759 -5.47323,-5.34785 -9.2268,-4.58492 3.37252,-0.160206 6.7516,1.70244 7.96973,4.74103 2.54117,6.34063 -2.27607,7.07897 -3.82323,14.7848 -1.54757,7.70587 6.63523,10.5969 -4.45627,14.1854 -0.454395,0.146685 -0.884616,0.259362 -1.29148,0.340899 0.746945,-0.0303203 1.59387,-0.188478 2.54895,-0.497417 11.0915,-3.58804 2.9087,-6.47953 4.45627,-14.1854z"/>
     </g>
     <g>
      <path id="_256317040" class="fil66" d="M176.828 344.105c-1.04113,-7.79027 7.54853,-13.1996 3.08489,-18.37 -4.46364,-5.17043 -16.2894,1.53363 -14.0936,13.0521 2.19617,11.5184 4.78815,8.53476 4.73366,14.5488 -0.0540849,6.01448 5.06185,8.47371 8.96047,6.80363 10.7158,-4.59066 -1.64426,-8.24385 -2.6854,-16.0345z"/>
      <path id="_256316872" class="fil42" d="M175.728 323.968c-5.14257,0.0889123 -11.5779,6.0616 -9.90819,14.8188 2.19617,11.5184 4.78815,8.53476 4.73366,14.5488 -0.0540849,6.01448 5.06185,8.47371 8.96047,6.80363 0.142587,-0.0614601 0.279848,-0.12251 0.413831,-0.183151 -3.22747,-0.0786689 -6.34924,-2.60796 -6.30662,-7.31252 0.0544946,-6.01448 -2.53789,-3.0308 -4.73366,-14.5492 -1.34598,-7.05931 2.57559,-12.3092 6.84051,-14.1264z"/>
      <path id="_256316632" class="fil55" d="M176.828 344.105c-1.04113,-7.79027 7.54853,-13.1996 3.08489,-18.37 -1.95402,-2.26337 -5.31876,-2.25108 -8.30039,-0.556009 2.66655,-1.10423 5.45356,-0.866587 7.16215,1.11243 4.46364,5.17002 -4.12643,10.5797 -3.08489,18.37 0.986639,7.383 12.1363,11.0505 4.17847,15.3212 10.0774,-4.51732 -2.01097,-8.17624 -3.04023,-15.8776z"/>
     </g>
     <g>
      <path id="_256316488" class="fil67" d="M165.097 345.645c-1.56805,-6.19559 1.13783,-7.43421 -2.95049,-11.1939 -4.08792,-3.75972 -13.2852,-0.466687 -10.4363,8.63227 2.84847,9.09896 6.36931,8.20001 6.8864,13.0631 0.517494,4.86313 4.91435,6.56025 9.18132,2.25354 5.23025,-5.27901 -1.11284,-6.55943 -2.68089,-12.755z"/>
      <path id="_256316320" class="fil42" d="M157.145 332.976c-3.78307,0.460131 -7.36046,3.9568 -5.43512,10.1065 2.84847,9.09937 6.36931,8.20001 6.8864,13.0635 0.481028,4.52182 4.31614,6.3054 8.28195,3.07219 -2.3781,0.129886 -4.21903,-1.67376 -4.54272,-4.71522 -0.517494,-4.86354 -4.03793,-3.96418 -6.88681,-13.0635 -1.23617,-3.94902 -0.202818,-6.80363 1.6963,-8.46346z"/>
      <path id="_256316176" class="fil55" d="M165.097 345.645c-1.56764,-6.19559 1.13783,-7.43421 -2.95049,-11.1939 -2.23264,-2.05359 -5.98908,-2.00319 -8.47494,-0.0524459 2.4035,-1.2419 5.47609,-1.04113 7.40799,0.735882 4.08833,3.75972 1.38285,4.99834 2.95049,11.1939 1.56805,6.19559 7.91114,7.4756 2.68089,12.755 -0.408505,0.412602 -0.817829,0.768661 -1.22469,1.0735 0.752272,-0.402359 1.52421,-0.982132 2.29164,-1.75653 5.23025,-5.27942 -1.11284,-6.55984 -2.68089,-12.7554z"/>
     </g>
    </g>
    <g>
     <g>
      <path id="_256234736" class="fil68" d="M282.794 386.94c3.21477,-6.76962 7.61613,-6.48568 6.91672,-12.8173 -0.699006,-6.33162 -10.8817,-9.84386 -15.1421,0.485125 -4.26,10.329 0.786689,9.82952 -2.33958,14.6377 -3.12627,4.80782 -3.53682,10.5273 3.23731,9.83525 10.59,-1.0817 4.11291,-5.3712 7.32768,-12.1408z"/>
      <path id="_256234592" class="fil42" d="M284.566 368.334c-3.39055,-0.946485 -7.61736,0.503563 -9.9971,6.27303 -4.26,10.329 0.786689,9.82952 -2.33958,14.6377 -3.1107,4.78405 -3.5315,10.4695 3.13856,9.84386 -3.5864,-1.11448 -2.85298,-5.68342 -0.282716,-9.63694 3.12627,-4.80782 -1.92042,-4.30835 2.33999,-14.6373 1.74137,-4.22231 4.47266,-6.13085 7.14084,-6.48035z"/>
      <path id="_256234352" class="fil55" d="M282.794 386.94c3.21477,-6.76962 7.61613,-6.48568 6.91672,-12.8173 -0.376955,-3.41267 -3.50937,-6.00506 -6.98432,-6.05341 2.99556,0.526098 5.50928,2.91157 5.84444,5.94565 0.699006,6.33162 -3.70236,6.04808 -6.91713,12.8177 -3.21477,6.76962 3.26271,11.0587 -7.32727,12.1408 -0.433908,0.0442513 -0.838316,0.0618698 -1.21486,0.0553141 0.66254,0.121281 1.44308,0.145046 2.35474,0.0520362 10.59,-1.0817 4.11291,-5.3712 7.32768,-12.1408z"/>
     </g>
     <g>
      <path id="_256234208" class="fil69" d="M266.648 387.032c0.965743,-7.36415 9.80125,-10.6178 7.13429,-16.2587 -2.66696,-5.6404 -14.6517,-1.84298 -15.5035,9.17599 -0.852247,11.019 2.14004,8.79576 0.642053,14.3095 -1.49799,5.51379 2.39449,8.79412 6.21566,8.03816 10.5019,-2.07776 0.546175,-7.9009 1.51151,-15.265z"/>
      <path id="_256234040" class="fil42" d="M270.539 368.315c-4.53043,-0.944846 -11.6127,3.25698 -12.2601,11.6344 -0.852247,11.019 2.14004,8.79576 0.642053,14.3095 -1.49799,5.51379 2.39449,8.79412 6.21566,8.03816 0.139719,-0.0278619 0.274522,-0.0565433 0.406866,-0.0856344 -2.81077,-0.716625 -4.9377,-3.66302 -3.76627,-7.97629 1.49799,-5.51379 -1.49389,-3.29057 -0.642053,-14.3095 0.522001,-6.75323 5.22616,-10.7924 9.4038,-11.6106z"/>
      <path id="_256233800" class="fil55" d="M266.648 387.032c0.965743,-7.36415 9.80125,-10.6178 7.13429,-16.2587 -1.16733,-2.46906 -4.12028,-3.12914 -7.1433,-2.16749 2.60427,-0.482257 4.99056,0.29255 6.01121,2.45144 2.66696,5.6404 -6.16854,8.8945 -7.13429,16.2587 -0.914936,6.97859 7.97629,12.5735 -0.0303203,14.9078 9.92458,-2.13758 0.208145,-7.91196 1.16242,-15.1917z"/>
     </g>
     <g>
      <path id="_256233656" class="fil70" d="M255.992 386.105c0.119233,-6.00424 2.78988,-6.60204 0.112267,-10.8719 -2.67761,-4.26984 -11.5356,-3.0812 -11.232,5.84567 0.303613,8.92687 3.6073,8.80395 2.88821,13.3745 -0.719083,4.57058 2.72678,7.00727 7.50633,3.90313 5.85879,-3.8052 0.605996,-6.24762 0.725229,-12.2515z"/>
      <path id="_256233488" class="fil42" d="M252.075 372.88c-3.42783,-0.332294 -7.40758,2.16544 -7.2023,8.19878 0.303203,8.92687 3.60689,8.80395 2.8878,13.3745 -0.668686,4.24976 2.26378,6.65367 6.52051,4.47552 -2.11628,-0.355649 -3.2959,-2.37973 -2.84601,-5.23845 0.719083,-4.57058 -2.5846,-4.44725 -2.88821,-13.3745 -0.131525,-3.87444 1.46275,-6.29024 3.52822,-7.43585z"/>
      <path id="_256233344" class="fil55" d="M255.992 386.105c0.119233,-6.00383 2.78988,-6.60163 0.112267,-10.8715 -1.46275,-2.33221 -4.76807,-3.03572 -7.41782,-1.74014 2.40637,-0.660901 5.05202,0.136851 6.31769,2.15479 2.67761,4.26984 0.00696548,4.86764 -0.112267,10.8715 -0.119233,6.00424 5.13356,8.44667 -0.725229,12.2519 -0.457673,0.297467 -0.902644,0.542897 -1.33286,0.741618 0.756779,-0.219617 1.57338,-0.597802 2.433,-1.15627 5.85879,-3.8052 0.605996,-6.24762 0.725229,-12.2519z"/>
     </g>
    </g>
    <g>
     <path id="_319838344" class="fil71" d="M26.6999 311.119c5.68301,-0.26223 10.9051,0.282307 14.5558,-6.6971 2.37236,-4.53453 4.66031,-15.3159 9.88073,-13.0783 5.22124,2.23715 3.23034,9.50132 -2.68744,15.7846 -5.9182,6.28204 1.68237,8.427 6.49223,8.92851 4.80987,0.499875 13.9158,-3.16315 17.5243,-3.07833 3.60894,0.0856344 8.47535,4.58083 3.59992,8.62818 -4.87501,4.04776 -9.56278,1.54552 -14.7148,0.851837 -5.15322,-0.69286 -10.2499,0.0921901 -10.0446,2.69072 0.205686,2.59853 6.02186,4.88976 12.3654,6.63154 6.3435,1.74178 10.0139,6.19108 7.80912,9.50788 -2.20396,3.31762 -6.70857,3.95188 -11.7434,-1.17717 -5.03481,-5.12987 -9.29113,-6.25746 -10.6744,-6.79052 -1.38449,-0.532654 -4.23091,-0.687124 -3.76709,2.11054 0.463819,2.79684 3.11439,5.04382 4.47921,7.55754 1.36441,2.51372 1.52503,6.73439 -2.14045,8.31022 -3.66671,1.57543 -6.01981,-1.60943 -6.71431,-4.62631 -0.694499,-3.01728 1.07924,-9.90081 -2.97549,-13.1447 -4.05514,-3.24427 -10.0237,-6.01162 -14.6349,-6.21648 -4.61115,-0.205277 -25.78,-0.958368 -22.7849,-3.28156 2.99516,-2.32237 2.85912,-21.8339 10.3105,-19.7123 3.20412,0.912477 10.07,7.06832 15.8645,6.80117z"/>
     <path id="_319838104" class="fil57" d="M26.6999 311.119c5.68342,-0.26223 10.9051,0.282307 14.5562,-6.6971 2.37195,-4.53453 4.6599,-15.3154 9.88032,-13.0783 0.241333,0.103253 0.467097,0.217569 0.6777,0.342128 -0.513806,0.0901415 -1.10259,0.284355 -1.80734,0.604358 -3.12996,1.41932 -6.43159,15.1872 -10.129,17.687 -7.31703,4.94795 -23.5675,3.38563 -32.0486,-2.9128 -0.500285,-0.371629 -0.932964,-0.671554 -1.30828,-0.913707 1.07883,-1.55002 2.46209,-2.36007 4.31409,-1.83274 3.20412,0.912477 10.07,7.06873 15.8649,6.80117zm21.7089 -3.94779c-5.84117,6.24885 1.73317,8.3848 6.53239,8.88508 4.80987,0.500695 13.9158,-3.16356 17.5247,-3.07792 1.1788,0.0278619 2.49159,0.526918 3.55567,1.32672 -5.58467,-0.836677 -12.837,2.03105 -16.8552,2.69236 -4.23788,0.697777 -16.466,1.1534 -13.9301,-4.56648 1.43407,-3.23526 1.58854,-4.66359 3.17257,-5.25975zm2.96893 17.3149c-0.064738,0.206096 -0.0905512,0.427352 -0.0717034,0.663359 0.205277,2.59853 6.02186,4.88936 12.3654,6.63113 6.3435,1.74178 10.0139,6.19108 7.80953,9.50829 -0.132754,0.19995 -0.274112,0.389657 -0.423255,0.56953 0.980084,-1.38162 1.21978,-3.09718 -0.744077,-5.0049 -3.7085,-3.60238 -7.5473,-4.15265 -12.0605,-5.48798 -4.71686,-1.39596 -7.67596,-5.33883 -6.87534,-6.87943zm-4.8869 13.7994c1.01573,1.60083 2.41169,3.098 3.28361,4.70334 1.36482,2.51372 1.52585,6.73439 -2.14045,8.31022 -0.731785,0.314266 -1.41071,0.438825 -2.03515,0.413012 1.58813,-0.179873 2.89272,-0.839545 3.58886,-2.02572 1.26034,-2.14783 0.948124,-4.88198 -1.43079,-8.56631 -0.568711,-0.881338 -0.98582,-1.87166 -1.26608,-2.83454z"/>
     <path id="_319837384" class="fil72" d="M75.423 313.902c0.205686,0.12292 0.404817,0.257313 0.596573,0.40113 -0.0204867,-0.0118823 -0.304023,-0.177825 -0.596573,-0.40113zm0.598621 0.402359c2.19249,1.64836 3.32704,4.57673 0.0438415,7.30187 -4.87501,4.04776 -9.56278,1.54552 -14.7148,0.851837 -3.45856,-0.464638 -6.89172,-0.264278 -8.71381,0.703923 3.66917,-2.01999 9.93031,-1.05998 11.155,-0.886254 1.25297,0.177825 6.88189,2.88002 11.5016,-0.584281 4.60131,-3.45078 0.758418,-7.35636 0.728097,-7.38709zm-23.7568 9.08175c-0.0225354,0.0151602 -0.0442513,0.03073 -0.0659672,0.0467097 0.0213062,-0.0155699 0.0430221,-0.0311398 0.0659672,-0.0467097zm19.718 16.829c-0.106121,0.367122 -0.271244,0.726458 -0.502334,1.07309 -2.20396,3.31762 -6.70857,3.95188 -11.7434,-1.17717 -0.729326,-0.742848 -1.44226,-1.40211 -2.13185,-1.98721l0.00286814 0.0024584c4.07194,3.12996 5.86124,4.44766 7.06668,4.81028 4.32556,1.30213 7.2441,-2.63541 7.30801,-2.72145zm-26.1009 11.4988c-2.66491,0.0835857 -4.38497,-2.53625 -4.96188,-5.04137 -0.0966972,-0.421616 -0.146275,-0.918214 -0.16881,-1.4689l0 0c0.75432,3.55034 2.4457,5.53305 5.13069,6.51026z"/>
     <path id="_319837264" class="fil55" d="M52.3292 292.033c3.6536,2.79643 1.52626,9.35464 -3.88018,15.095 -2.45103,2.60222 -2.58173,4.49396 -1.55412,5.85346 -0.000819468,-0.000819468 -0.00204867,-0.000819468 -0.00286814,-0.00163894 -1.14521,-1.04482 -1.59468,-2.90542 1.39473,-6.45823 2.98901,-3.5528 4.68981,-7.41209 5.09627,-9.02316 0.499056,-1.98106 -0.177005,-3.93345 -1.05384,-5.46544z"/>
     <path id="_316214848" class="fil55" d="M40.6595 339.723l0.000409734 -0.000409734c3.38071,-17.4924 -22.8107,-15.1343 -38.7912,-18.2905 -0.390067,1.2542 -0.819058,2.19085 -1.34393,2.59812 -2.99556,2.32278 18.1733,3.07587 22.7845,3.28074 4.61115,0.204867 10.5801,2.97262 14.6353,6.21689 1.9028,1.52216 2.52191,3.84576 2.7149,6.19518z"/>
     <path id="_316214080" class="fil73" d="M70.5107 322.082c-3.99081,-0.911658 -3.37785,-3.6409 -1.76472,-5.35113 2.11955,-2.2478 -3.34753,2.86568 1.76472,5.35113z"/>
     <path id="_316213872" class="fil74" d="M61.3884 340.314c-2.28673,-3.39547 0.0278619,-4.96598 2.37441,-5.10979 3.08366,-0.188887 -4.40177,-0.20077 -2.37441,5.10979z"/>
     <path id="_316213728" class="fil75" d="M40.9709 345.59c0.301974,-4.08259 3.09267,-3.88592 5.0258,-2.54814 2.54035,1.75817 -3.33605,-2.8792 -5.0258,2.54814z"/>
     <path id="_315650928" class="fil57" d="M50.3141 299.322c-3.04186,2.73948 -4.92131,0.667047 -5.39169,-1.63607 -0.618698,-3.02711 0.417109,4.38661 5.39169,1.63607z"/>
     <path id="_315650304" class="fil76" d="M26.6999 311.119c5.68342,-0.26223 10.9051,0.282307 14.5562,-6.6971 2.08923,-3.99409 4.11373,-12.832 8.13404,-13.354 -0.0233548,0.00819468 -0.0475291,0.0159796 -0.0696548,0.024584 -2.56985,0.990737 -7.04005,15.1917 -10.7018,17.7435 -7.17649,5.00039 -16.8577,4.75168 -28.0823,-3.28402 -0.986639,-0.706381 -1.76513,-0.884206 -2.45103,-0.936652 0.783821,-0.46218 1.68974,-0.599441 2.74972,-0.297467 3.20412,0.912477 10.07,7.06873 15.8649,6.80117z"/>
    </g>
    <g>
     <path id="_256756016" class="fil77" d="M25.8108 374.807c4.41038,-3.59378 8.93015,-6.26483 7.70914,-14.0461 -0.793245,-5.05571 -5.37284,-15.0807 0.15406,-16.3906 5.52649,-1.31033 8.25122,5.71128 7.23672,14.2829 -1.01573,8.57081 6.36808,5.76987 10.5314,3.30942 4.16249,-2.46127 9.29891,-10.8256 12.2486,-12.9054 2.9509,-2.0794 9.53697,-1.36441 8.02915,4.78979 -1.50782,6.15461 -6.76389,6.93434 -11.3164,9.44437 -4.55337,2.51044 -8.18116,6.17551 -6.4697,8.141 1.71269,1.9659 7.74971,0.344586 13.8834,-2.03228 6.13413,-2.37646 11.7319,-0.98623 11.9351,2.99106 0.204047,3.9777 -3.03818,7.1687 -10.1368,6.0448 -7.09946,-1.12472 -11.1907,0.502744 -12.6194,0.897727 -1.42956,0.396622 -3.80848,1.96672 -1.77087,3.93877 2.03802,1.97123 5.50519,2.19863 8.09839,3.40612 2.59239,1.20749 5.23435,4.50339 3.22706,7.9513 -2.00852,3.44914 -5.79487,2.29041 -8.14879,0.279439 -2.35474,-2.01056 -5.02662,-8.59745 -10.2159,-8.79043 -5.18969,-0.192575 -11.6332,1.13701 -15.4601,3.71752 -3.82732,2.57968 -21.2853,14.5759 -20.2613,10.9268 1.02433,-3.6495 -10.6998,-19.246 -3.44996,-21.9773 3.11808,-1.17389 12.2994,-0.314676 16.7962,-3.97893z"/>
     <path id="_256755392" class="fil57" d="M25.8108 374.807c4.41038,-3.59378 8.93015,-6.26524 7.70914,-14.0465 -0.793245,-5.0553 -5.37284,-15.0798 0.15365,-16.3902 0.255674,-0.0606406 0.504792,-0.102843 0.748174,-0.128656 -0.358927,0.378594 -0.716215,0.885025 -1.09276,1.5615 -1.66967,3.00376 3.87321,16.0321 2.3908,20.2417 -2.9341,8.33112 -16.9216,16.7499 -27.4858,16.7376 -0.623205,-0.000819468 -1.1493,0.0159796 -1.59509,0.0450707 -0.0557238,-1.88805 0.573218,-3.36228 2.37564,-4.04121 3.11726,-1.1743 12.2994,-0.314676 16.7962,-3.97934zm15.0934 -16.0952c-0.973528,8.49829 6.38406,5.70555 10.5375,3.25042 4.16331,-2.46045 9.29891,-10.8256 12.2494,-12.905 0.963694,-0.679339 2.31582,-1.06039 3.64663,-1.05097 -4.98523,2.65221 -9.10511,9.27351 -11.9405,12.1974 -2.98983,3.08325 -12.544,10.7285 -13.9113,4.62303 -0.773578,-3.45365 -1.49963,-4.69309 -0.581822,-6.11487zm12.6927 12.1453c0.070884,0.204457 0.181922,0.397032 0.337211,0.575676 1.71187,1.9659 7.74971,0.343767 13.8834,-2.03269 6.13372,-2.37687 11.7315,-0.986639 11.9351,2.99106 0.012292,0.239694 0.0118823,0.476521 -0.0012292,0.709659 -0.0348274,-1.69384 -0.863309,-3.21477 -3.57739,-3.57862 -5.12413,-0.687124 -8.53599,1.15627 -12.9574,2.7698 -4.62098,1.68606 -9.34562,0.279439 -9.61973,-1.43489zm4.28787 13.9973c1.76923,0.681388 3.78225,1.05343 5.4384,1.82455 2.59321,1.20708 5.23476,4.50298 3.22706,7.9513 -0.40072,0.688353 -0.872324,1.19233 -1.38941,1.54347 1.16897,-1.08989 1.82455,-2.39653 1.67786,-3.76423 -0.265917,-2.47602 -2.14414,-4.487 -6.24926,-6.03128 -0.981313,-0.36958 -1.90608,-0.917394 -2.70465,-1.5238z"/>
     <path id="_256757840" class="fil78" d="M66.6174 348.039c0.238055,-0.0237646 0.47816,-0.0340079 0.717854,-0.0331884 -0.0237646,0.00286814 -0.349913,0.038515 -0.717854,0.0331884zm0.720312 -0.0331884c2.74276,0.0196672 5.39783,1.69712 4.3821,5.84117 -1.50782,6.15461 -6.76389,6.93434 -11.3164,9.44437 -3.0558,1.68483 -5.69489,3.89001 -6.58279,5.75266 1.74588,-3.80725 7.34817,-6.76307 8.4356,-7.35268 1.11284,-0.603128 7.2441,-1.78275 8.89409,-7.31621 1.64262,-5.51215 -3.76996,-6.36235 -3.81257,-6.36931zm-13.6827 21.4393c-0.00901415,0.0258132 -0.0172088,0.0512167 -0.0249938,0.07703 0.00778494,-0.0254035 0.0155699,-0.050807 0.0249938,-0.07703zm25.8616 1.7848c0.133573,0.358107 0.214701,0.745306 0.235597,1.16119 0.204047,3.9777 -3.03818,7.1687 -10.1368,6.0448 -1.02843,-0.163074 -1.99377,-0.267966 -2.896,-0.327787l0.00368761 0.000409734c5.13479,0.0909609 7.35718,0.0844052 8.54172,-0.341718 4.25058,-1.52872 4.25222,-6.42995 4.25181,-6.5369zm-14.1272 24.7766c-2.09169,1.65369 -5.03317,0.572808 -6.9876,-1.09727 -0.329016,-0.280668 -0.664179,-0.650248 -1.0104,-1.07924l0 0c2.7194,2.4035 5.25894,2.98983 7.99801,2.17651z"/>
     <path id="_256750400" class="fil55" d="M35.0421 344.215c4.60049,0.0721132 6.79544,6.60819 5.86821,14.4386 -0.420387,3.54993 0.60067,5.1479 2.23592,5.62852 -0.000819468,0 -0.00204867,0.000819468 -0.00327787,0.000409734 -1.54224,-0.157748 -3.01113,-1.38531 -2.72391,-6.0194 0.286814,-4.63368 -0.644102,-8.74741 -1.27673,-10.2839 -0.778085,-1.88928 -2.48381,-3.05498 -4.10021,-3.76423z"/>
     <path id="_256762640" class="fil55" d="M54.0554 389.481l0 -0.000409734c-7.69644,-16.0677 -27.3379,1.41809 -42.0571,8.39504 0.433089,1.24026 0.64615,2.24821 0.466687,2.8878 -1.02433,3.6495 16.4336,-8.34669 20.2605,-10.9272 3.82691,-2.58009 10.2708,-3.90968 15.4605,-3.71711 2.43505,0.0905512 4.31573,1.58936 5.86944,3.36187z"/>
     <path id="_256756160" class="fil73" d="M67.5393 357.536c-3.74948,1.64344 -4.88157,-0.914526 -4.60377,-3.24919 0.365073,-3.06768 -0.983771,4.29565 4.60377,3.24919z"/>
     <path id="_258320480" class="fil74" d="M71.0626 377.616c-3.85887,-1.36687 -2.93369,-4.0072 -1.13414,-5.51953 2.36539,-1.98762 -3.65606,2.45922 1.13414,5.51953z"/>
     <path id="_315646008" class="fil75" d="M57.7983 394.01c-2.18757,-3.4602 0.171679,-4.96352 2.52109,-5.03932 3.08816,-0.0995653 -4.39399,-0.327377 -2.52109,5.03932z"/>
     <path id="_315646200" class="fil57" d="M37.7627 351.271c-0.813732,4.01211 -3.55731,3.46594 -5.30646,1.89543 -2.29902,-2.06424 2.9464,3.27623 5.30646,-1.89543z"/>
     <path id="_255461608" class="fil76" d="M25.8108 374.807c4.41038,-3.59378 8.93015,-6.26524 7.70914,-14.0465 -0.698596,-4.45299 -4.33335,-12.7595 -1.41358,-15.5719 -0.013931,0.020077 -0.0286814,0.0409734 -0.0413831,0.0610504 -1.47504,2.32565 3.38686,16.398 1.96345,20.6281 -2.78947,8.28974 -10.7166,13.8531 -24.5193,14.078 -1.21363,0.0196672 -1.9446,0.340489 -2.52724,0.706381 0.35483,-0.837906 1.00098,-1.48733 2.03269,-1.87576 3.11726,-1.1743 12.2994,-0.314676 16.7962,-3.97934z"/>
    </g>
   </g>
  </g>
  <path class="fil53" d="M346.714 11.7241l-262.247 0c-40.0109,0 -72.7438,32.7328 -72.7438,72.7405l0 262.247c0,40.0109 32.7328,72.7438 72.7438,72.7438l262.247 0c40.0077,0 72.7405,-32.7328 72.7405,-72.7438l0 -262.247c0,-40.0077 -32.7328,-72.7405 -72.7405,-72.7405z"/>
  <g id="_257875472">
   <path id="_257875808" class="fil79" d="M79.6793 428.469l271.821 0c21.6139,0 41.259,-8.71176 55.4972,-22.746 13.7113,-13.5147 22.4137,-31.9719 23.0393,-52.3447l-7.45429 -7.95007c-0.621157,17.2424 -12.088,40.8128 -23.7187,52.2775 -12.1597,11.9847 -28.9256,19.4238 -47.3636,19.4238l-271.821 0c-18.438,0 -35.2039,-7.43913 -47.3636,-19.4238 -11.6307,-11.4648 -23.0975,-35.0351 -23.7187,-52.2775l-7.45429 7.95007c0.625664,20.3728 9.328,38.8301 23.0393,52.3447 14.2383,14.0342 33.8834,22.746 55.4972,22.746z"/>
   <path id="_257875688" class="fil80" d="M79.6793 2.2269l271.821 0c21.6139,0 41.259,8.71176 55.4972,22.746 13.7113,13.5147 22.4137,31.9719 23.0393,52.3447l-7.45429 7.95007c-0.621157,-17.2424 -12.088,-40.8128 -23.7187,-52.2775 -12.1597,-11.9847 -28.9256,-19.4238 -47.3636,-19.4238l-271.821 0c-18.438,0 -35.2039,7.43913 -47.3636,19.4238 -11.6307,11.4648 -23.0975,35.0351 -23.7187,52.2775l-7.45429 -7.95007c0.625664,-20.3728 9.328,-38.8301 23.0393,-52.3447 14.2383,-14.0342 33.8834,-22.746 55.4972,-22.746z"/>
   <path id="_257875448" class="fil81" d="M354.255 0l-277.331 0c-42.3087,0 -76.9239,34.6151 -76.9239,76.9239l0 277.331c0,42.3087 34.6151,76.9239 76.9239,76.9239l277.331 0c42.3087,0 76.9243,-34.6151 76.9243,-76.9239l0 -277.331c0,-42.3087 -34.6156,-76.9239 -76.9243,-76.9239zm-7.54074 11.7241l-262.247 0c-40.0109,0 -72.7438,32.7328 -72.7438,72.7405l0 262.247c0,40.0109 32.7328,72.7438 72.7438,72.7438l262.247 0c40.0077,0 72.7405,-32.7328 72.7405,-72.7438l0 -262.247c0,-40.0077 -32.7328,-72.7405 -72.7405,-72.7405z"/>
  </g>
 </g>
</svg>
