<?xml version="1.0" encoding="UTF-8"?>
<!DOCTYPE svg PUBLIC "-//W3C//DTD SVG 1.1//EN" "http://www.w3.org/Graphics/SVG/1.1/DTD/svg11.dtd">
<!-- Creator: CorelDRAW -->
<svg xmlns="http://www.w3.org/2000/svg" xml:space="preserve" width="1243px" height="1243px" style="shape-rendering:geometricPrecision; text-rendering:geometricPrecision; image-rendering:optimizeQuality; fill-rule:evenodd; clip-rule:evenodd"
viewBox="0 0 159.323 159.323"
 xmlns:xlink="http://www.w3.org/1999/xlink">
 <defs>
  <style type="text/css">
   <![CDATA[
    .str1 {stroke:#1A1A1A;stroke-width:0.267068}
    .str2 {stroke:#999999;stroke-width:0.267068}
    .str0 {stroke:#666666;stroke-width:0.534136}
    .fil23 {fill:none}
    .fil2 {fill:black}
    .fil22 {fill:#224827}
    .fil7 {fill:#4D4D4D}
    .fil16 {fill:#61A53E}
    .fil19 {fill:#7BBA47}
    .fil4 {fill:#8EADBA}
    .fil20 {fill:#95CC68}
    .fil12 {fill:#B3B3B3}
    .fil21 {fill:#CBED96}
    .fil18 {fill:#DDF6A2}
    .fil3 {fill:white}
    .fil25 {fill:#999999;fill-rule:nonzero}
    .fil24 {fill:#B3B3B3;fill-rule:nonzero}
    .fil8 {fill:url(#id1)}
    .fil10 {fill:url(#id2)}
    .fil1 {fill:url(#id3)}
    .fil5 {fill:url(#id4)}
    .fil14 {fill:url(#id5)}
    .fil9 {fill:url(#id6)}
    .fil11 {fill:url(#id7)}
    .fil17 {fill:url(#id8)}
    .fil13 {fill:url(#id9)}
    .fil15 {fill:url(#id10)}
    .fil6 {fill:url(#id11)}
    .fil26 {fill:url(#id12)}
    .fil0 {fill:url(#id13)}
   ]]>
  </style>
   <clipPath id="id0">
    <path d="M128.113 4.33213l-96.9016 0c-14.7843,0 -26.8792,12.095 -26.8792,26.878l0 96.9016c0,14.7843 12.095,26.8792 26.8792,26.8792l96.9016 0c14.7831,0 26.878,-12.095 26.878,-26.8792l0 -96.9016c0,-14.7831 -12.095,-26.878 -26.878,-26.878z"/>
   </clipPath>
  <linearGradient id="id1" gradientUnits="userSpaceOnUse" x1="23.5713" y1="20.9677" x2="48.4704" y2="20.9677">
   <stop offset="0" style="stop-color:#1A1A1A"/>
   <stop offset="0.501961" style="stop-color:#4D4D4D"/>
   <stop offset="1" style="stop-color:#1A1A1A"/>
  </linearGradient>
  <linearGradient id="id2" gradientUnits="userSpaceOnUse" xlink:href="#id1" x1="105.097" y1="20.9689" x2="129.98" y2="20.9689">
  </linearGradient>
  <linearGradient id="id3" gradientUnits="userSpaceOnUse" x1="76.7053" y1="136.703" x2="76.7053" y2="18.216">
   <stop offset="0" style="stop-color:#1A1A1A"/>
   <stop offset="0.188235" style="stop-color:#333333"/>
   <stop offset="0.901961" style="stop-color:#333333"/>
   <stop offset="1" style="stop-color:#666666"/>
  </linearGradient>
  <linearGradient id="id4" gradientUnits="userSpaceOnUse" x1="76.7053" y1="35.8928" x2="76.7053" y2="52.572">
   <stop offset="0" style="stop-color:#8EADBA"/>
   <stop offset="1" style="stop-color:#AEBDC4"/>
  </linearGradient>
  <linearGradient id="id5" gradientUnits="userSpaceOnUse" x1="76.7053" y1="23.7317" x2="76.7053" y2="26.3858">
   <stop offset="0" style="stop-color:#990000"/>
   <stop offset="1" style="stop-color:#CC3300"/>
  </linearGradient>
  <linearGradient id="id6" gradientUnits="userSpaceOnUse" x1="32.2686" y1="19.9611" x2="39.5566" y2="14.9002">
   <stop offset="0" style="stop-color:#4D4D4D"/>
   <stop offset="1" style="stop-color:#B3B3B3"/>
  </linearGradient>
  <linearGradient id="id7" gradientUnits="userSpaceOnUse" x1="113.792" y1="19.9611" x2="121.08" y2="14.9002">
   <stop offset="0" style="stop-color:#666666"/>
   <stop offset="1" style="stop-color:#B3B3B3"/>
  </linearGradient>
  <linearGradient id="id8" gradientUnits="userSpaceOnUse" x1="95.2662" y1="79.199" x2="114.931" y2="55.2888">
   <stop offset="0" style="stop-color:#DDF6A2"/>
   <stop offset="1" style="stop-color:#FEFEFE"/>
  </linearGradient>
  <linearGradient id="id9" gradientUnits="userSpaceOnUse" x1="76.7053" y1="23.4896" x2="76.7053" y2="25.4737">
   <stop offset="0" style="stop-color:#600000"/>
   <stop offset="1" style="stop-color:black"/>
  </linearGradient>
  <linearGradient id="id10" gradientUnits="userSpaceOnUse" x1="109.555" y1="118.94" x2="137.57" y2="100.961">
   <stop offset="0" style="stop-color:#88CA68"/>
   <stop offset="1" style="stop-color:#DDF6A2"/>
  </linearGradient>
  <linearGradient id="id11" gradientUnits="userSpaceOnUse" x1="36.6446" y1="54.0104" x2="36.6446" y2="53.5122">
   <stop offset="0" style="stop-color:black"/>
   <stop offset="1" style="stop-color:#1A1A1A"/>
  </linearGradient>
  <radialGradient id="id12" gradientUnits="userSpaceOnUse" cx="79.6616" cy="79.6615" r="79.6616" fx="79.6616" fy="79.6615">
   <stop offset="0" style="stop-color:black"/>
   <stop offset="0.701961" style="stop-color:#313131"/>
   <stop offset="1" style="stop-color:#626262"/>
  </radialGradient>
  <radialGradient id="id13" gradientUnits="userSpaceOnUse" cx="79.6616" cy="79.6615" r="69.3032" fx="79.6616" fy="79.6615">
   <stop offset="0" style="stop-color:#FFFF66"/>
   <stop offset="0.321569" style="stop-color:#CCCC33"/>
   <stop offset="0.619608" style="stop-color:#949426"/>
   <stop offset="1" style="stop-color:#333300"/>
  </radialGradient>
 </defs>
 <g id="Layer_x0020_1">
  <metadata id="CorelCorpID_0Corel-Layer"/>
  <path class="fil0" d="M128.113 4.33213l-96.9016 0c-14.7843,0 -26.8792,12.095 -26.8792,26.878l0 96.9016c0,14.7843 12.095,26.8792 26.8792,26.8792l96.9016 0c14.7831,0 26.878,-12.095 26.878,-26.8792l0 -96.9016c0,-14.7831 -12.095,-26.878 -26.878,-26.878z"/>
  <g style="clip-path:url(#id0)">
   <g id="_256750304">
    <path id="_2567564961" class="fil1" d="M23.4231 18.216l106.565 0c5.1777,0 9.21854,4.2419 9.41399,9.41384l3.76545 99.6593c0.195456,5.16998 -4.24023,9.41399 -9.41384,9.41399l-114.096 0c-5.17361,0 -9.60945,-4.23993 -9.41384,-9.41399l3.76545 -99.6593c0.195608,-5.17406 4.2363,-9.41384 9.41399,-9.41384z"/>
    <rect id="_256756376" class="fil2 str0" x="14.8407" y="31.5847" width="123.729" height="91.0739"/>
    <path id="_256756208" class="fil3" d="M94.4294 36.4454c-11.215,2.81345 -23.0098,3.12669 -35.4484,0 0,11.9614 0,23.9227 0,35.8842 11.8161,-3.81026 23.6322,-4.01102 35.4484,0 0,-11.9614 0,-23.9227 0,-35.8842zm-39.9392 44.1775c-11.2152,2.8133 -23.0098,3.12669 -35.4484,0 0,11.9614 0,23.9227 0,35.884 11.8161,-3.81011 23.6322,-4.01102 35.4484,0 0,-11.9613 0,-23.9226 0,-35.884zm79.8786 0c-11.2152,2.8133 -23.0098,3.12669 -35.4486,0 0,11.9614 0,23.9227 0,35.884 11.8162,-3.81011 23.6323,-4.01102 35.4486,0 0,-11.9613 0,-23.9226 0,-35.884zm-39.9394 0c-11.215,2.8133 -23.0098,3.12669 -35.4484,0 0,11.9614 0,23.9227 0,35.884 11.8161,-3.81011 23.6322,-4.01102 35.4484,0 0,-11.9613 0,-23.9226 0,-35.884zm-39.9392 -44.1775c-11.2152,2.81345 -23.0098,3.12669 -35.4484,0 0,11.9614 0,23.9227 0,35.8842 11.8161,-3.81026 23.6322,-4.01102 35.4484,0 0,-11.9614 0,-23.9227 0,-35.8842zm79.8786 0c-11.2152,2.81345 -23.0098,3.12669 -35.4486,0 0,11.9614 0,23.9227 0,35.8842 11.8162,-3.81026 23.6323,-4.01102 35.4486,0 0,-11.9614 0,-23.9227 0,-35.8842z"/>
    <g>
     <path id="_256756040" class="fil4" d="M94.4294 36.0848c-11.215,2.8133 -23.0096,3.12669 -35.4484,0 0,11.9614 0,23.9227 0,35.884 11.8162,-3.81011 23.6323,-4.01102 35.4484,0 0,-11.9613 0,-23.9226 0,-35.884z"/>
     <path id="_256755800" class="fil5" d="M94.4294 36.0848c-11.212,-0.191974 -23.0065,0.258741 -35.4484,0 0,11.9614 0,4.52608 0,16.4874 11.8162,-3.81011 23.6323,-4.01102 35.4484,0 0,-11.9613 0,-4.52592 0,-16.4874z"/>
    </g>
    <g>
     <path id="_256755656" class="fil4" d="M134.369 36.0848c-11.215,2.8133 -23.0098,3.12669 -35.4484,0 0,11.9614 0,23.9227 0,35.884 11.8162,-3.81011 23.6323,-4.01102 35.4484,0 0,-11.9613 0,-23.9226 0,-35.884z"/>
     <path id="_256755416" class="fil5" d="M134.369 36.0848c-11.2122,-0.191974 -23.0065,0.258741 -35.4484,0 0,11.9614 0,4.52608 0,16.4874 11.8162,-3.81011 23.6323,-4.01102 35.4484,0 0,-11.9613 0,-4.52592 0,-16.4874z"/>
    </g>
    <g>
     <path id="_256755272" class="fil4" d="M54.4902 36.0848c-11.215,2.8133 -23.0098,3.12669 -35.4484,0 0,11.9614 0,23.9227 0,35.884 11.8162,-3.81011 23.6323,-4.01102 35.4484,0 0,-11.9613 0,-23.9226 0,-35.884z"/>
     <path id="_256755032" class="fil5" d="M54.4902 36.0848c-11.2122,-0.191974 -23.0065,0.258741 -35.4484,0 0,11.9614 0,4.52608 0,16.4874 11.8162,-3.81011 23.6323,-4.01102 35.4484,0 0,-11.9613 0,-4.52592 0,-16.4874z"/>
    </g>
    <g>
     <path id="_256754888" class="fil4" d="M94.4294 80.2622c-11.215,2.8133 -23.0096,3.12654 -35.4484,0 0,11.9613 0,23.9226 0,35.884 11.8162,-3.81011 23.6323,-4.01102 35.4484,0 0,-11.9614 0,-23.9227 0,-35.884z"/>
     <path id="_256754648" class="fil5" d="M94.4294 80.2622c-11.212,-0.192125 -23.0065,0.25859 -35.4484,0 0,11.9613 0,4.52592 0,16.4872 11.8162,-3.81011 23.6323,-4.01102 35.4484,0 0,-11.9613 0,-4.52592 0,-16.4872z"/>
    </g>
    <g>
     <path id="_256754504" class="fil4" d="M134.369 80.2622c-11.215,2.8133 -23.0098,3.12654 -35.4484,0 0,11.9613 0,23.9226 0,35.884 11.8162,-3.81011 23.6323,-4.01102 35.4484,0 0,-11.9614 0,-23.9227 0,-35.884z"/>
     <path id="_256754264" class="fil5" d="M134.369 80.2622c-11.2122,-0.192125 -23.0065,0.25859 -35.4484,0 0,11.9613 0,4.52592 0,16.4872 11.8162,-3.81011 23.6323,-4.01102 35.4484,0 0,-11.9613 0,-4.52592 0,-16.4872z"/>
    </g>
    <g>
     <path id="_256754120" class="fil4" d="M54.4902 80.2622c-11.215,2.8133 -23.0098,3.12654 -35.4484,0 0,11.9613 0,23.9226 0,35.884 11.8162,-3.81011 23.6323,-4.01102 35.4484,0 0,-11.9614 0,-23.9227 0,-35.884z"/>
     <path id="_256753880" class="fil5" d="M54.4902 80.2622c-11.2122,-0.192125 -23.0065,0.25859 -35.4484,0 0,11.9613 0,4.52592 0,16.4872 11.8162,-3.81011 23.6323,-4.01102 35.4484,0 0,-11.9613 0,-4.52592 0,-16.4872z"/>
    </g>
    <path id="_256753736" class="fil3" d="M126.057 100.144c0,0 2.17333,2.72927 0.758055,3.94228 -1.41528,1.21301 -12.888,6.77238 -12.888,6.77238 0,0 -4.95302,-1.26327 -1.31399,-3.43661 3.63903,-2.17333 5.35726,-3.38634 5.35726,-3.38634l-10.3103 -0.657072c0,0 -3.74016,-2.17318 0.353668,-3.53774 4.09398,-1.36471 17.2344,-0.555937 18.0433,0.303101zm-9.60809 -57.0236c0,0 6.37072,1.56819 8.23278,2.74426 1.86236,1.17637 -2.05827,4.41071 -2.05827,4.41071l-8.03672 -3.4304c0,0 -0.0981066,-4.01843 1.86221,-3.72457zm-8.13482 22.4443c0,0 -2.15638,-1.46993 1.17607,-6.0764 3.33244,-4.60662 4.3126,-7.54679 4.3126,-7.54679l4.60632 -1.17622c0,0 7.25277,9.60506 7.25277,10.5851 0,0.980158 -1.17592,4.99859 -4.31245,1.07811 -3.13638,-3.92048 -4.41056,-5.48867 -4.41056,-5.48867l-5.9786 7.54679c0,0 -0.979855,2.05827 -2.64615,1.07811zm-31.0312 -21.3037l-0.980309 9.21278 8.13497 -0.686141c0,0 2.69521,-2.54789 -0.686141,-3.23419 -3.3812,-0.686292 -4.24871,0.120514 -4.24871,0.120514 0,0 2.97469,-7.6673 1.01437,-7.17722 -1.96001,0.489927 -3.23419,1.76425 -3.23419,1.76425zm-9.65411 11.81c0,0 -2.10732,2.64615 -0.735194,3.82252 1.37228,1.17607 12.4965,6.56663 12.4965,6.56663 0,0 4.80268,-1.22497 1.27417,-3.33229 -3.52851,-2.10732 -5.19465,-3.28324 -5.19465,-3.28324l9.99703 -0.637239c0,0 3.62661,-2.10717 -0.342919,-3.4304 -3.96953,-1.32308 -16.7108,-0.538981 -17.4949,0.294017zm-21.4505 -0.104465c0,0 2.17349,2.72912 0.758207,3.94213 -1.41528,1.21301 -12.888,6.77253 -12.888,6.77253 0,0 -4.95302,-1.26327 -1.31399,-3.43676 3.63888,-2.17333 5.35741,-3.38619 5.35741,-3.38619l-10.3104 -0.657072c0,0 -3.74031,-2.17318 0.353668,-3.53789 4.09398,-1.36456 17.2345,-0.555937 18.0431,0.303252zm-7.0885 -11.8707l-1.01089 9.50165 8.38993 -0.707639c0,0 2.77954,-2.62783 -0.707791,-3.33562 -3.48733,-0.707791 -4.38179,0.124299 -4.38179,0.124299 0,0 3.0678,-7.90742 1.04617,-7.40205 -2.02163,0.505219 -3.33562,1.81936 -3.33562,1.81936zm-11.1543 1.84253c0,0 6.57011,1.61724 8.49091,2.83025 1.9205,1.21316 -2.12292,4.54879 -2.12292,4.54879l-8.28864 -3.53789c0,0 -0.100983,-4.1444 1.92065,-3.84115zm-0.246023 44.5051c0,0 -2.10732,2.64615 -0.735042,3.82237 0.590456,0.505976 2.98635,1.79241 5.52425,3.09369 -0.647382,1.14533 -1.52171,2.54547 -2.68052,4.14743 -3.33244,4.60662 -1.17607,6.0767 -1.17607,6.0767 1.66615,0.980158 2.6463,-1.07811 2.6463,-1.07811l5.52652 -6.97602c0.579707,0.286901 1.09568,0.540646 1.51581,0.746549 0.711727,0.883414 1.80362,2.24252 3.34683,4.17135 3.13623,3.92048 4.3123,-0.0981066 4.3123,-1.07811 0,-0.767139 -4.44311,-6.81811 -6.3742,-9.41157l5.93197 -0.377892c0,0 3.62631,-2.10717 -0.34307,-3.4304 -3.96953,-1.32323 -16.711,-0.538981 -17.4951,0.294017zm39.3152 12.3174c1.37243,1.17622 12.4965,6.56663 12.4965,6.56663 0,0 4.80268,-1.22482 1.27417,-3.33214 -3.52836,-2.10732 -5.1945,-3.28339 -5.1945,-3.28339l9.99718 -0.636936c0,0 3.62646,-2.10717 -0.34307,-3.4304 -0.266008,-0.0885685 -0.572591,-0.167599 -0.91112,-0.237999 -0.485688,-1.52126 -7.22401,-10.4452 -7.22401,-10.4452l-4.60647 1.17622c0,0 -0.980158,2.94002 -4.31245,7.54664 -3.33244,4.60662 -1.17622,6.07655 -1.17622,6.07655zm11.6871 -4.81964c-2.11277,-0.0267976 -4.34001,0.0543523 -6.23355,0.198181l3.17136 -4.00329c0,0 0.904004,1.11233 3.0622,3.80511zm40.2767 -9.66789l-1.01089 9.50165 8.38978 -0.707639c0,0 2.77954,-2.62799 -0.707791,-3.33562 -3.48717,-0.707791 -4.38164,0.124147 -4.38164,0.124147 0,0 3.0678,-7.90742 1.04617,-7.40205 -2.02163,0.50537 -3.33562,1.81951 -3.33562,1.81951zm-11.1543 1.84253c0,0 6.57027,1.61709 8.49091,2.8301 1.9205,1.21316 -2.12292,4.54879 -2.12292,4.54879l-8.28864 -3.53789c0,0 -0.100983,-4.14425 1.92065,-3.84099z"/>
    <path id="_256753568" class="fil6" d="M46.1782 55.5017c0,0 2.17333,2.72912 0.758055,3.94213 -1.41528,1.21301 -12.888,6.77253 -12.888,6.77253 0,0 -4.95302,-1.26343 -1.31399,-3.43676 3.63888,-2.17333 5.35726,-3.38619 5.35726,-3.38619l-10.3104 -0.657072c0,0 -3.74016,-2.17318 0.35382,-3.53789 4.09398,-1.36456 17.2345,-0.555937 18.0433,0.303252zm-7.08866 -11.8707l-1.01089 9.50165 8.38978 -0.707488c0,0 2.77954,-2.62799 -0.707639,-3.33578 -3.48717,-0.707639 -4.38179,0.124299 -4.38179,0.124299 0,0 3.0678,-7.90742 1.04617,-7.40205 -2.02163,0.50537 -3.33562,1.81936 -3.33562,1.81936zm-11.1543 1.84253c0,0 6.57027,1.61724 8.49091,2.83025 1.9205,1.21301 -2.12277,4.54879 -2.12277,4.54879l-8.2888 -3.53789c0,0 -0.100983,-4.1444 1.92065,-3.84115z"/>
    <path id="_256753400" class="fil6" d="M126.057 99.679c0,0 2.17333,2.72912 0.758055,3.94228 -1.41528,1.21301 -12.888,6.77238 -12.888,6.77238 0,0 -4.95302,-1.26327 -1.31414,-3.43661 3.63903,-2.17333 5.35741,-3.38619 5.35741,-3.38619l-10.3104 -0.657223c0,0 -3.74016,-2.17318 0.35382,-3.53774 4.09398,-1.36471 17.2345,-0.555937 18.0433,0.303101zm-7.08866 -11.8706l-1.01089 9.5015 8.38978 -0.707488c0,0 2.77954,-2.62799 -0.707639,-3.33562 -3.48733,-0.707791 -4.38179,0.124147 -4.38179,0.124147 0,0 3.0678,-7.90742 1.04617,-7.40205 -2.02163,0.50537 -3.33562,1.81951 -3.33562,1.81951zm-11.1543 1.84238c0,0 6.57027,1.61724 8.49091,2.83041 1.9205,1.21301 -2.12277,4.54863 -2.12277,4.54863l-8.2888 -3.53774c0,0 -0.100983,-4.1444 1.92065,-3.8413z"/>
    <path id="_256753232" class="fil2" d="M27.6892 89.9786c0,0 -2.10732,2.64615 -0.735042,3.82237 0.590456,0.505976 2.9862,1.79226 5.52425,3.09354 -0.647534,1.14533 -1.52171,2.54562 -2.68052,4.14773 -3.33244,4.60647 -1.17607,6.07655 -1.17607,6.07655 1.66615,0.980158 2.64615,-1.07811 2.64615,-1.07811l5.52667 -6.97602c0.579556,0.286901 1.09568,0.540646 1.51581,0.7467 0.711727,0.883414 1.80362,2.24237 3.34668,4.1712 3.13638,3.92048 4.31245,-0.0981066 4.31245,-1.07811 0,-0.767139 -4.44311,-6.81826 -6.37405,-9.41142l5.93166 -0.378043c0,0 3.62661,-2.10717 -0.342919,-3.4304 -3.96953,-1.32308 -16.711,-0.538981 -17.4951,0.294017z"/>
    <path id="_256753064" class="fil2" d="M67.0045 102.296c1.37228,1.17622 12.4965,6.56678 12.4965,6.56678 0,0 4.80253,-1.22497 1.27402,-3.33229 -3.52836,-2.10732 -5.19465,-3.28339 -5.19465,-3.28339l9.99718 -0.637087c0,0 3.62661,-2.10717 -0.342919,-3.4304 -0.266008,-0.0885685 -0.572591,-0.167447 -0.910968,-0.237848 -0.48584,-1.52111 -7.22416,-10.4452 -7.22416,-10.4452l-4.60632 1.17622c0,0 -0.980158,2.94017 -4.3126,7.54664 -3.33244,4.60662 -1.17607,6.07655 -1.17607,6.07655zm11.6871 -4.81964c-2.11293,-0.0266462 -4.34016,0.0543523 -6.23371,0.198181l3.17136 -4.00329c0,0 0.903852,1.11233 3.06235,3.80511z"/>
    <path id="_256752896" class="fil2" d="M116.449 42.6556c0,0 6.37072,1.56804 8.23293,2.74426 1.86221,1.17622 -2.05827,4.41041 -2.05827,4.41041l-8.03687 -3.43025c0,0 -0.0979552,-4.01843 1.86221,-3.72442zm-8.13482 22.4442c0,0 -2.15638,-1.46993 1.17607,-6.07655 3.33244,-4.60647 4.3126,-7.54664 4.3126,-7.54664l4.60632 -1.17622c0,0 7.25277,9.60506 7.25277,10.5851 0,0.980006 -1.17607,4.99859 -4.31245,1.07811 -3.13638,-3.92048 -4.41041,-5.48852 -4.41041,-5.48852l-5.9786 7.54664c0,0 -0.980006,2.05827 -2.6463,1.07811z"/>
    <path id="_256752728" class="fil2" d="M77.2827 43.796l-0.980158 9.21294 8.13497 -0.685989c0,0 2.69505,-2.5482 -0.686292,-3.23434 -3.3812,-0.686141 -4.24871,0.120514 -4.24871,0.120514 0,0 2.97454,-7.6673 1.01437,-7.17722 -1.96016,0.489927 -3.23419,1.7641 -3.23419,1.7641zm-9.65426 11.8102c0,0 -2.10732,2.6463 -0.735042,3.82252 1.37228,1.17607 12.4965,6.56663 12.4965,6.56663 0,0 4.80253,-1.22497 1.27402,-3.33229 -3.52836,-2.10732 -5.19465,-3.28324 -5.19465,-3.28324l9.99718 -0.637239c0,0 3.62661,-2.10717 -0.342919,-3.43025 -3.96953,-1.32323 -16.7108,-0.539132 -17.4951,0.293866z"/>
    <polygon id="_256752560" class="fil7" points="14.0091,27.6299 14.8407,122.659 10.2437,127.289 "/>
    <polygon id="_256752392" class="fil7" points="139.402,27.6299 138.57,122.659 143.167,127.289 "/>
    <path id="_256752224" class="fil8 str1" d="M36.1529 15.6494c4.46582,-0.183647 7.71954,-1.0663 9.82444,1.05465 1.6987,1.71157 2.49309,3.76242 2.1638,5.48685 -0.737162,3.86158 -5.47504,5.28686 -12.2285,5.28686 -6.75361,0 -11.9666,-1.04571 -12.2287,-5.28686 -0.112641,-1.82587 0.73474,-4.11351 2.27492,-5.67156 2.03753,-2.0613 5.59828,-0.68069 10.194,-0.869939z"/>
    <ellipse id="_256752128" class="fil9 str2" cx="35.9126" cy="17.4306" rx="10.2366" ry="3.8863"/>
    <path id="_256751960" class="fil10 str1" d="M117.516 15.7694c4.61979,-0.190006 7.89319,-1.30915 9.97099,0.920506 1.55169,1.66494 2.49263,3.85023 2.17742,5.50093 -0.737162,3.86143 -5.47489,5.28686 -12.2285,5.28686 -6.75346,0 -11.9666,-1.04571 -12.2285,-5.28686 -0.110219,-1.78545 0.696436,-3.94607 2.16849,-5.48277 2.02481,-2.11383 5.46732,-0.746397 10.1401,-0.938674z"/>
    <ellipse id="_256751864" class="fil11 str2" cx="117.436" cy="17.4306" rx="10.2366" ry="3.8863"/>
    <rect id="_256751744" class="fil12" x="52.547" y="20.7591" width="48.3167" height="7.08651" rx="5.23493" ry="5.23493"/>
    <rect id="_256751624" class="fil13" x="52.547" y="20.9384" width="48.3167" height="7.08651" rx="5.23493" ry="5.23493"/>
    <rect id="_256751432" class="fil14" x="52.9446" y="22.294" width="47.5215" height="5.52955" rx="4.08475" ry="4.08475"/>
    <g>
     <path id="_256751264" class="fil2" d="M130.363 145.774c-8.67093,-5.91183 -15.7676,-12.5013 -28.8859,-6.25626 -8.52316,4.05734 -23.8441,17.4186 -29.063,8.33437 -5.21903,-9.0844 5.76664,-17.5897 21.4555,-20.2958 15.689,-2.70611 6.85944,-14.2906 0.322026,-20.3601 -6.53726,-6.06959 -24.0252,-10.7581 -29.2517,-14.8836 -5.2263,-4.12562 -7.42083,-16.1478 4.25401,-16.7125 11.6747,-0.564567 15.8132,8.31908 22.6428,15.0521 6.82976,6.73287 15.2153,11.2232 17.7924,7.16405 2.57711,-4.05916 -3.46083,-13.8837 -10.8841,-23.482 -7.4234,-9.59825 -7.90455,-20.2269 -0.978038,-22.6752 6.92636,-2.44827 14.2718,1.60831 16.0114,14.7522 1.73958,13.1439 6.76557,19.5226 8.21522,21.8422 1.44949,2.31943 5.47656,5.70214 7.89274,1.06312 2.41603,-4.63902 0.998628,-10.8892 1.77182,-16.1083 0.773346,-5.21888 5.21373,-11.6209 12.3657,-9.88121 7.15179,1.73973 -0.285236,9.16812 -2.60482,14.387 -2.31943,5.21903 -5.18618,13.2771 -2.80225,22.5553 2.38393,9.27804 8.11832,19.9738 14.6904,25.386 6.57223,5.41237 36.9518,29.9838 29.9608,30.0889 -6.991,0.105071 -28.4146,29.0261 -37.0495,17.6406 -3.71321,-4.89594 -7.01477,-21.5831 -15.8556,-27.6108z"/>
     <g>
      <path id="_256751096" class="fil15" d="M130.036 138.734c-8.67093,-5.91183 -15.7676,-12.5013 -28.8859,-6.25626 -8.52316,4.05734 -23.8441,17.4186 -29.063,8.33437 -5.21903,-9.0844 5.76664,-17.5897 21.4555,-20.2958 15.689,-2.70611 6.85944,-14.2906 0.322026,-20.3601 -6.53726,-6.06959 -24.0252,-10.7581 -29.2517,-14.8836 -5.2263,-4.12562 -7.42083,-16.1478 4.25401,-16.7125 11.6747,-0.564567 15.8132,8.31908 22.6428,15.0521 6.82976,6.73287 15.2153,11.2232 17.7924,7.16405 2.57711,-4.05916 -3.46083,-13.8837 -10.8841,-23.482 -7.4234,-9.59825 -7.90455,-20.2269 -0.978038,-22.6752 6.92636,-2.44827 14.2718,1.60831 16.0114,14.7522 1.73958,13.1439 6.76557,19.5226 8.21522,21.8422 1.44949,2.31943 5.47656,5.70214 7.89274,1.06312 2.41603,-4.63902 0.998628,-10.8892 1.77182,-16.1083 0.773346,-5.21888 5.21373,-11.6209 12.3657,-9.88121 7.15179,1.73973 7.09244,9.04337 4.77301,14.2624 -2.31959,5.21888 -12.564,13.4017 -10.1801,22.6799 2.38393,9.27804 8.11832,19.9738 14.6904,25.386 6.57223,5.41237 36.9518,29.9838 29.9608,30.0889 -6.991,0.105071 -28.4146,29.0261 -37.0495,17.6406 -3.71321,-4.89594 -7.01477,-21.5831 -15.8556,-27.6108z"/>
      <path id="_257311536" class="fil16" d="M130.036 138.734c-8.67093,-5.91183 -15.7676,-12.5013 -28.8859,-6.25626 -8.52316,4.05734 -23.8441,17.4186 -29.063,8.33437 -0.241179,-0.41983 -0.447384,-0.838599 -0.620433,-1.2554 0.857676,0.436181 1.94109,0.802264 3.33517,1.11218 6.18783,1.37531 26.3147,-15.2665 34.5373,-14.8554 16.2724,0.813619 38.5034,21.1265 44.0285,39.8133 0.325962,1.10219 0.631637,2.02421 0.917024,2.79695 -3.30913,1.08962 -6.24642,0.751545 -8.39311,-2.07886 -3.71321,-4.89594 -7.01477,-21.5831 -15.8556,-27.6108zm-36.3863 -18.2375c15.5387,-2.74093 6.73711,-14.2848 0.214987,-20.3403 -6.53726,-6.06959 -24.0252,-10.7581 -29.2517,-14.8836 -1.70733,-1.34775 -3.09051,-3.5382 -3.77302,-5.89654 7.30743,7.42219 21.1792,11.2311 27.8377,14.7092 7.02189,3.66779 25.5577,16.5475 15.4793,22.1718 -5.70033,3.18105 -7.51076,5.11577 -10.5074,4.23948zm14.8115 -28.8218c0.324448,-0.232246 0.606959,-0.529745 0.841022,-0.898402 2.57711,-4.05916 -3.46083,-13.8837 -10.8841,-23.482 -7.4234,-9.59825 -7.90455,-20.2269 -0.978038,-22.6752 0.417256,-0.147463 0.836177,-0.270853 1.25525,-0.370474 -2.97666,0.950786 -5.23114,3.21466 -4.44947,8.20462 1.47599,9.42172 6.52666,14.4871 11.7013,21.4579 5.40813,7.28578 5.40207,16.3791 2.51398,17.7635zm22.4996 -14.9317c0.276303,-3.48657 -0.12339,-7.24096 0.370474,-10.5746 0.773346,-5.21888 5.21373,-11.6209 12.3657,-9.88121 1.42754,0.347309 2.56682,0.91657 3.45917,1.64646 -2.54123,-1.49507 -5.19586,-1.96819 -7.53725,-0.990301 -4.23872,1.77046 -6.80826,6.14741 -7.38388,14.217 -0.137622,1.92958 -0.620736,3.85205 -1.27417,5.58269z"/>
      <path id="_257118688" class="fil17" d="M61.2764 80.6326c-0.166085,-0.409534 -0.311882,-0.828153 -0.434818,-1.25252 0.0171081,0.040575 0.251171,0.598935 0.434818,1.25252zm-0.436029 -1.25692c-1.4068,-4.86097 0.166236,-10.4355 8.02703,-10.8158 11.6747,-0.564567 15.8132,8.31908 22.6428,15.0521 4.58376,4.51881 9.86834,8.02718 13.6274,8.619 -7.64747,-1.0875 -15.817,-9.442 -17.4306,-11.0558 -1.65055,-1.6507 -6.95573,-11.8732 -17.6065,-11.8844 -10.6093,-0.0112035 -9.27092,10.0066 -9.26017,10.0848zm45.0941 12.9374c0.0505673,0.00227099 0.100529,0.00333078 0.150339,0.00423917 -0.0490533,-0.000605596 -0.0991664,-0.00196819 -0.150339,-0.00423917zm-10.4234 -46.6671c0.562902,-0.424372 1.20514,-0.771075 1.92943,-1.02709 6.92636,-2.44827 14.2718,1.60831 16.0114,14.7522 0.251928,1.90339 0.573045,3.66416 0.942005,5.292l-0.00196819 -0.00651016c-2.53578,-9.12815 -3.71412,-13.0547 -5.08943,-14.9252 -4.93531,-6.71303 -13.602,-4.14258 -13.7914,-4.08535zm51.2289 11.971c4.02328,2.8298 3.65598,8.59932 1.73034,12.9324 -0.323843,0.728532 -0.802112,1.5149 -1.37879,2.3538l0.000151399 -0.000454197c2.82268,-6.07095 2.52579,-10.8694 -0.3517,-15.2857z"/>
      <path id="_257119936" class="fil18" d="M71.0929 138.474c-2.28855,-8.17252 8.11666,-15.4854 22.4501,-17.9577 6.4979,-1.12081 8.7875,-3.76514 8.77857,-6.90925 0.000454197,0.00196819 0.00211959,0.00348218 0.00257378,0.00560177 0.530805,2.80997 -0.868728,6.05172 -9.21354,7.97752 -8.34481,1.92595 -15.1302,5.73182 -17.5146,7.65716 -2.93199,2.36788 -4.09822,5.99616 -4.50306,9.22671z"/>
      <path id="_257120536" class="fil18" d="M141.153 81.0846l-0.000908394 0.000756995c-24.3709,22.0461 16.8624,47.5958 36.9284,69.9598 1.96577,-1.41694 3.63585,-2.32276 4.86127,-2.34124 6.991,-0.105071 -23.3886,-24.6765 -29.9608,-30.0889 -6.57208,-5.41221 -12.3065,-16.108 -14.6904,-25.386 -1.11869,-4.35378 0.543523,-8.46624 2.8625,-12.1445z"/>
      <path id="_256750928" class="fil19" d="M77.5849 74.0158c4.87475,5.76694 0.945639,9.11195 -3.32805,9.84654 -5.61645,0.965472 8.11181,-0.515968 3.32805,-9.84654z"/>
      <path id="_256750760" class="fil20" d="M111.242 57.2417c-0.391064,7.54104 -5.54514,7.29183 -9.16449,4.90351 -4.7565,-3.13896 6.26868,5.17406 9.16449,-4.90351z"/>
      <path id="_256750592" class="fil21" d="M147.196 72.0882c-4.96983,5.68519 -8.86684,2.30263 -10.2346,-1.81225 -1.79756,-5.40797 1.72777,7.9424 10.2346,1.81225z"/>
      <path id="_256750424" class="fil16" d="M82.1422 129.958c7.52166,-0.667821 7.99599,4.47051 6.13726,8.38827 -2.44267,5.14893 4.24629,-6.93075 -6.13726,-8.38827z"/>
      <path id="_257316024" class="fil22" d="M130.036 138.734c-8.67093,-5.91183 -15.7676,-12.5013 -28.8859,-6.25626 -7.50727,3.57378 -20.287,14.3625 -26.7935,10.6767 0.0433001,0.0136259 0.0876601,0.028463 0.129598,0.0404236 4.88746,1.38697 27.2178,-14.5985 35.4449,-14.3028 16.1235,0.579556 30.1236,11.6757 37.7685,35.9642 0.672363,2.13548 1.62345,3.25992 2.57651,4.09746 -1.66796,-0.187129 -3.15591,-0.988939 -4.38452,-2.60891 -3.71321,-4.89594 -7.01477,-21.5831 -15.8556,-27.6108z"/>
     </g>
    </g>
   </g>
  </g>
  <path class="fil23" d="M128.113 4.33213l-96.9016 0c-14.7843,0 -26.8792,12.095 -26.8792,26.878l0 96.9016c0,14.7843 12.095,26.8792 26.8792,26.8792l96.9016 0c14.7831,0 26.878,-12.095 26.878,-26.8792l0 -96.9016c0,-14.7831 -12.095,-26.878 -26.878,-26.878z"/>
  <path class="fil24" d="M29.442 158.322l100.439 0c7.98645,0 15.2454,-3.21905 20.5065,-8.40477 5.06642,-4.99375 8.28198,-11.8138 8.51317,-19.3417l-2.7544 -2.9376c-0.229521,6.37118 -4.46658,15.0806 -8.76419,19.3169 -4.49307,4.42842 -10.6882,7.17722 -17.5011,7.17722l-100.439 0c-6.81296,0 -13.0081,-2.7488 -17.5011,-7.17722 -4.29761,-4.2363 -8.53467,-12.9457 -8.76419,-19.3169l-2.7544 2.9376c0.231186,7.52786 3.44675,14.3479 8.51317,19.3417 5.26112,5.18572 12.5201,8.40477 20.5065,8.40477z"/>
  <path class="fil25" d="M29.442 0.822854l100.439 0c7.98645,0 15.2454,3.21905 20.5065,8.40477 5.06642,4.99375 8.28198,11.8138 8.51317,19.3417l-2.7544 2.9376c-0.229521,-6.37118 -4.46658,-15.0806 -8.76419,-19.3169 -4.49307,-4.42842 -10.6882,-7.17722 -17.5011,-7.17722l-100.439 0c-6.81296,0 -13.0081,2.7488 -17.5011,7.17722 -4.29761,4.2363 -8.53467,12.9457 -8.76419,19.3169l-2.7544 -2.9376c0.231186,-7.52786 3.44675,-14.3479 8.51317,-19.3417 5.26112,-5.18572 12.5201,-8.40477 20.5065,-8.40477z"/>
  <path class="fil26" d="M130.899 0l-102.476 0c-15.6333,0 -28.4238,12.7905 -28.4238,28.4238l0 102.476c0,15.6333 12.7905,28.4238 28.4238,28.4238l102.476 0c15.6333,0 28.424,-12.7905 28.424,-28.4238l0 -102.476c0,-15.6333 -12.7906,-28.4238 -28.424,-28.4238zm-2.78635 4.33213l-96.9016 0c-14.7843,0 -26.8792,12.095 -26.8792,26.878l0 96.9016c0,14.7843 12.095,26.8792 26.8792,26.8792l96.9016 0c14.7831,0 26.878,-12.095 26.878,-26.8792l0 -96.9016c0,-14.7831 -12.095,-26.878 -26.878,-26.878z"/>
 </g>
</svg>
