<?xml version="1.0" encoding="UTF-8" standalone="no"?>
<!-- Created with Inkscape (http://www.inkscape.org/) -->

<svg
   xmlns:dc="http://purl.org/dc/elements/1.1/"
   xmlns:cc="http://creativecommons.org/ns#"
   xmlns:rdf="http://www.w3.org/1999/02/22-rdf-syntax-ns#"
   xmlns:svg="http://www.w3.org/2000/svg"
   xmlns="http://www.w3.org/2000/svg"
   xmlns:xlink="http://www.w3.org/1999/xlink"
   xmlns:sodipodi="http://sodipodi.sourceforge.net/DTD/sodipodi-0.dtd"
   xmlns:inkscape="http://www.inkscape.org/namespaces/inkscape"
   width="128"
   height="128"
   id="svg2755"
   sodipodi:version="0.32"
   inkscape:version="0.48.3.1 r9886"
   version="1.0"
   sodipodi:docname="chakra-logo.svg"
   inkscape:output_extension="org.inkscape.output.svg.inkscape">
  <defs
     id="defs2757">
    <radialGradient
       inkscape:collect="always"
       xlink:href="#linearGradient7251"
       id="radialGradient8142"
       gradientUnits="userSpaceOnUse"
       gradientTransform="matrix(1,0,0,1.0092053,0,-2.6182989)"
       cx="-349.68817"
       cy="284.43408"
       fx="-349.68817"
       fy="284.43408"
       r="174.46933" />
    <radialGradient
       inkscape:collect="always"
       xlink:href="#linearGradient7251"
       id="radialGradient8140"
       gradientUnits="userSpaceOnUse"
       gradientTransform="matrix(1,0,0,1.0092053,0,-2.6182989)"
       cx="-349.68817"
       cy="284.43408"
       fx="-349.68817"
       fy="284.43408"
       r="174.46933" />
    <radialGradient
       inkscape:collect="always"
       xlink:href="#linearGradient7251"
       id="radialGradient8138"
       gradientUnits="userSpaceOnUse"
       gradientTransform="matrix(1,0,0,1.0092053,0,-2.6182989)"
       cx="-349.68817"
       cy="284.43408"
       fx="-349.68817"
       fy="284.43408"
       r="174.46933" />
    <radialGradient
       inkscape:collect="always"
       xlink:href="#linearGradient7251"
       id="radialGradient8136"
       gradientUnits="userSpaceOnUse"
       gradientTransform="matrix(1,0,0,1.0092053,0,-2.6182989)"
       cx="-349.68817"
       cy="284.43408"
       fx="-349.68817"
       fy="284.43408"
       r="174.46933" />
    <radialGradient
       inkscape:collect="always"
       xlink:href="#linearGradient7251"
       id="radialGradient8134"
       gradientUnits="userSpaceOnUse"
       gradientTransform="matrix(1,0,0,1.0092053,0,-2.6182989)"
       cx="-349.68817"
       cy="284.43408"
       fx="-349.68817"
       fy="284.43408"
       r="174.46933" />
    <linearGradient
       id="linearGradient7251">
      <stop
         style="stop-color:#ffffff;stop-opacity:1;"
         offset="0"
         id="stop7253" />
      <stop
         id="stop7259"
         offset="0.5"
         style="stop-color:#ffffff;stop-opacity:1;" />
      <stop
         style="stop-color:#ffffff;stop-opacity:0.68115944;"
         offset="1"
         id="stop7255" />
    </linearGradient>
    <radialGradient
       inkscape:collect="always"
       xlink:href="#linearGradient7251"
       id="radialGradient8144"
       gradientUnits="userSpaceOnUse"
       gradientTransform="matrix(1,0,0,1.0092053,0,-2.6182989)"
       cx="-349.68817"
       cy="284.43408"
       fx="-349.68817"
       fy="284.43408"
       r="174.46933" />
    <linearGradient
       inkscape:collect="always"
       xlink:href="#linearGradient5302"
       id="linearGradient8132"
       gradientUnits="userSpaceOnUse"
       x1="-496.24405"
       y1="318.50903"
       x2="-541.07269"
       y2="554.16187" />
    <linearGradient
       inkscape:collect="always"
       xlink:href="#linearGradient5302"
       id="linearGradient8130"
       gradientUnits="userSpaceOnUse"
       x1="-496.24405"
       y1="318.50903"
       x2="-541.07269"
       y2="554.16187" />
    <linearGradient
       inkscape:collect="always"
       xlink:href="#linearGradient5302"
       id="linearGradient8124"
       gradientUnits="userSpaceOnUse"
       gradientTransform="matrix(0.2548163,0.4053887,-0.3485176,0.2190687,-1065.4826,330.76914)"
       x1="-565.5"
       y1="308.36218"
       x2="-555.90619"
       y2="408.81128" />
    <linearGradient
       inkscape:collect="always"
       xlink:href="#linearGradient5302"
       id="linearGradient8120"
       gradientUnits="userSpaceOnUse"
       gradientTransform="matrix(0.4473599,-0.1707058,0.1467579,0.3846007,-1235.1634,-89.239873)"
       x1="-565.5"
       y1="308.36218"
       x2="-565.5"
       y2="451.05267" />
    <radialGradient
       inkscape:collect="always"
       xlink:href="#linearGradient5302"
       id="radialGradient8116"
       gradientUnits="userSpaceOnUse"
       cx="-565.5"
       cy="476.86218"
       fx="-565.5"
       fy="476.86218"
       r="168.5" />
    <filter
       height="1.5147198"
       y="-0.25735995"
       width="1.5147198"
       x="-0.25735995"
       id="filter5518"
       inkscape:collect="always">
      <feGaussianBlur
         id="feGaussianBlur5520"
         stdDeviation="36.137626"
         inkscape:collect="always" />
    </filter>
    <linearGradient
       inkscape:collect="always"
       xlink:href="#linearGradient5302"
       id="linearGradient8114"
       gradientUnits="userSpaceOnUse"
       x1="-565.5"
       y1="308.36218"
       x2="-565.5"
       y2="549.75562" />
    <filter
       id="filter5598"
       inkscape:collect="always">
      <feGaussianBlur
         id="feGaussianBlur5600"
         stdDeviation="2.7815881"
         inkscape:collect="always" />
    </filter>
    <linearGradient
       id="linearGradient5302">
      <stop
         style="stop-color:#ffffff;stop-opacity:1;"
         offset="0"
         id="stop5304" />
      <stop
         style="stop-color:#ffffff;stop-opacity:0;"
         offset="1"
         id="stop5306" />
    </linearGradient>
    <linearGradient
       inkscape:collect="always"
       xlink:href="#linearGradient5302"
       id="linearGradient8112"
       gradientUnits="userSpaceOnUse"
       x1="-565.5"
       y1="308.36218"
       x2="-565.5"
       y2="451.05267" />
    <filter
       id="filter5917"
       inkscape:collect="always">
      <feGaussianBlur
         id="feGaussianBlur5919"
         stdDeviation="8.3209877"
         inkscape:collect="always" />
    </filter>
    <linearGradient
       id="linearGradient5903">
      <stop
         id="stop5905"
         offset="0"
         style="stop-color:#429dff;stop-opacity:1;" />
      <stop
         id="stop5907"
         offset="1"
         style="stop-color:#d3eaff;stop-opacity:0;" />
    </linearGradient>
    <linearGradient
       inkscape:collect="always"
       xlink:href="#linearGradient5903"
       id="linearGradient8110"
       gradientUnits="userSpaceOnUse"
       x1="-734"
       y1="476.86218"
       x2="-508.27383"
       y2="476.86218" />
    <filter
       height="1.8987654"
       y="-0.44938272"
       width="1.8987654"
       x="-0.44938272"
       id="filter5410"
       inkscape:collect="always">
      <feGaussianBlur
         id="feGaussianBlur5412"
         stdDeviation="63.100823"
         inkscape:collect="always" />
    </filter>
    <linearGradient
       id="linearGradient5320">
      <stop
         style="stop-color:#0060f4;stop-opacity:1;"
         offset="0"
         id="stop5322" />
      <stop
         style="stop-color:#c0d9ff;stop-opacity:1;"
         offset="1"
         id="stop5324" />
    </linearGradient>
    <radialGradient
       inkscape:collect="always"
       xlink:href="#linearGradient5320"
       id="radialGradient8108"
       gradientUnits="userSpaceOnUse"
       cx="-565.5"
       cy="534.96564"
       fx="-565.5"
       fy="534.96564"
       r="168.5" />
    <filter
       id="filter5578"
       inkscape:collect="always">
      <feGaussianBlur
         id="feGaussianBlur5580"
         stdDeviation="4.8539095"
         inkscape:collect="always" />
    </filter>
    <linearGradient
       inkscape:collect="always"
       xlink:href="#linearGradient5290"
       id="linearGradient8106"
       gradientUnits="userSpaceOnUse"
       x1="-556.37891"
       y1="322.28384"
       x2="-556.37891"
       y2="640.08734" />
    <radialGradient
       inkscape:collect="always"
       xlink:href="#linearGradient5290"
       id="radialGradient8104"
       gradientUnits="userSpaceOnUse"
       cx="-565.5"
       cy="534.96564"
       fx="-565.5"
       fy="534.96564"
       r="168.5" />
    <linearGradient
       id="linearGradient5290">
      <stop
         id="stop5292"
         offset="0"
         style="stop-color:#0060f4;stop-opacity:1;" />
      <stop
         id="stop5294"
         offset="1"
         style="stop-color:#083884;stop-opacity:1;" />
    </linearGradient>
    <radialGradient
       inkscape:collect="always"
       xlink:href="#linearGradient5290"
       id="radialGradient8102"
       gradientUnits="userSpaceOnUse"
       cx="-565.5"
       cy="534.96564"
       fx="-565.5"
       fy="534.96564"
       r="168.5" />
    <filter
       inkscape:collect="always"
       id="filter7213">
      <feGaussianBlur
         inkscape:collect="always"
         stdDeviation="7.627572"
         id="feGaussianBlur7215" />
    </filter>
    <linearGradient
       inkscape:collect="always"
       id="linearGradient7197">
      <stop
         style="stop-color:#000000;stop-opacity:1;"
         offset="0"
         id="stop7199" />
      <stop
         style="stop-color:#000000;stop-opacity:0;"
         offset="1"
         id="stop7201" />
    </linearGradient>
    <linearGradient
       inkscape:collect="always"
       xlink:href="#linearGradient7197"
       id="linearGradient8100"
       gradientUnits="userSpaceOnUse"
       x1="-601.24463"
       y1="308.36218"
       x2="-601.24463"
       y2="530.68481" />
    <inkscape:perspective
       sodipodi:type="inkscape:persp3d"
       inkscape:vp_x="0 : 526.18109 : 1"
       inkscape:vp_y="0 : 1000 : 0"
       inkscape:vp_z="744.09448 : 526.18109 : 1"
       inkscape:persp3d-origin="372.04724 : 350.78739 : 1"
       id="perspective2763" />
  </defs>
  <sodipodi:namedview
     id="base"
     pagecolor="#ffffff"
     bordercolor="#666666"
     borderopacity="1.0"
     inkscape:pageopacity="0.0"
     inkscape:pageshadow="2"
     inkscape:zoom="4.140625"
     inkscape:cx="64"
     inkscape:cy="64"
     inkscape:document-units="px"
     inkscape:current-layer="g7529"
     showgrid="false"
     inkscape:window-width="1280"
     inkscape:window-height="739"
     inkscape:window-x="0"
     inkscape:window-y="-3"
     inkscape:window-maximized="1" />
  <metadata
     id="metadata2760">
    <rdf:RDF>
      <cc:Work
         rdf:about="">
        <dc:format>image/svg+xml</dc:format>
        <dc:type
           rdf:resource="http://purl.org/dc/dcmitype/StillImage" />
      </cc:Work>
    </rdf:RDF>
  </metadata>
  <g
     inkscape:label="Ebene 1"
     inkscape:groupmode="layer"
     id="layer1">
    <g
       id="g7529"
       transform="matrix(0.3209574,0,0,0.3116675,248.31935,-87.878788)">
      <path
         sodipodi:type="arc"
         style="fill:url(#linearGradient8100);fill-opacity:1;stroke:none;filter:url(#filter7213)"
         id="path7193"
         sodipodi:cx="-565.5"
         sodipodi:cy="476.86218"
         sodipodi:rx="168.5"
         sodipodi:ry="168.5"
         d="m -397,476.86218 c 0,93.05998 -75.44002,168.5 -168.5,168.5 -93.05998,0 -168.5,-75.44002 -168.5,-168.5 0,-93.05998 75.44002,-168.5 168.5,-168.5 93.05998,0 168.5,75.44002 168.5,168.5 z"
         transform="matrix(1.1834031,0,0,-1.1834031,94.182176,1057.5741)" />
      <path
         transform="matrix(1.1834031,0,0,-1.1834031,94.182176,1045.6869)"
         d="m -397,476.86218 c 0,93.05998 -75.44002,168.5 -168.5,168.5 -93.05998,0 -168.5,-75.44002 -168.5,-168.5 0,-93.05998 75.44002,-168.5 168.5,-168.5 93.05998,0 168.5,75.44002 168.5,168.5 z"
         sodipodi:ry="168.5"
         sodipodi:rx="168.5"
         sodipodi:cy="476.86218"
         sodipodi:cx="-565.5"
         id="path7027"
         style="fill:url(#radialGradient8102);fill-opacity:1;stroke:none"
         sodipodi:type="arc" />
      <path
         sodipodi:type="arc"
         style="fill:url(#radialGradient8104);fill-opacity:1;stroke:none"
         id="path7029"
         sodipodi:cx="-565.5"
         sodipodi:cy="476.86218"
         sodipodi:rx="168.5"
         sodipodi:ry="168.5"
         d="m -397,476.86218 c 0,93.05998 -75.44002,168.5 -168.5,168.5 -93.05998,0 -168.5,-75.44002 -168.5,-168.5 0,-93.05998 75.44002,-168.5 168.5,-168.5 93.05998,0 168.5,75.44002 168.5,168.5 z"
         transform="matrix(1.0120793,0,0,1.0120793,-2.7014221,-1.2555798)" />
      <path
         sodipodi:type="arc"
         style="fill:url(#linearGradient8106);fill-opacity:1;stroke:none;filter:url(#filter5578)"
         id="path7031"
         sodipodi:cx="-565.5"
         sodipodi:cy="476.86218"
         sodipodi:rx="168.5"
         sodipodi:ry="168.5"
         d="m -397,476.86218 c 0,93.05998 -75.44002,168.5 -168.5,168.5 -93.05998,0 -168.5,-75.44002 -168.5,-168.5 0,-93.05998 75.44002,-168.5 168.5,-168.5 93.05998,0 168.5,75.44002 168.5,168.5 z"
         transform="matrix(1.1136046,0,0,-1.1136046,54.711081,1012.4027)" />
      <path
         transform="matrix(0.8407555,0,0,0.8407555,-99.585019,80.442252)"
         d="m -397,476.86218 c 0,93.05998 -75.44002,168.5 -168.5,168.5 -93.05998,0 -168.5,-75.44002 -168.5,-168.5 0,-93.05998 75.44002,-168.5 168.5,-168.5 93.05998,0 168.5,75.44002 168.5,168.5 z"
         sodipodi:ry="168.5"
         sodipodi:rx="168.5"
         sodipodi:cy="476.86218"
         sodipodi:cx="-565.5"
         id="path7033"
         style="fill:url(#radialGradient8108);fill-opacity:1;stroke:none;filter:url(#filter5410)"
         sodipodi:type="arc" />
      <path
         sodipodi:type="arc"
         style="fill:url(#linearGradient8110);fill-opacity:1;stroke:none;filter:url(#filter5917)"
         id="path7035"
         sodipodi:cx="-565.5"
         sodipodi:cy="476.86218"
         sodipodi:rx="168.5"
         sodipodi:ry="168.5"
         d="m -397,476.86218 c 0,93.05998 -75.44002,168.5 -168.5,168.5 -93.05998,0 -168.5,-75.44002 -168.5,-168.5 0,-93.05998 75.44002,-168.5 168.5,-168.5 93.05998,0 168.5,75.44002 168.5,168.5 z"
         transform="matrix(0,-1.1077123,-1.1077123,0,-46.806229,-145.0445)" />
      <path
         transform="matrix(0.9853306,0,0,0.847101,-17.827756,38.925667)"
         d="m -397,476.86218 c 0,93.05998 -75.44002,168.5 -168.5,168.5 -93.05998,0 -168.5,-75.44002 -168.5,-168.5 0,-93.05998 75.44002,-168.5 168.5,-168.5 93.05998,0 168.5,75.44002 168.5,168.5 z"
         sodipodi:ry="168.5"
         sodipodi:rx="168.5"
         sodipodi:cy="476.86218"
         sodipodi:cx="-565.5"
         id="path7037"
         style="opacity:0.58995816;fill:url(#linearGradient8112);fill-opacity:1;stroke:none;filter:url(#filter5598)"
         sodipodi:type="arc" />
      <path
         sodipodi:type="arc"
         style="fill:url(#linearGradient8114);fill-opacity:1;stroke:none;filter:url(#filter5518)"
         id="path7039"
         sodipodi:cx="-565.5"
         sodipodi:cy="476.86218"
         sodipodi:rx="168.5"
         sodipodi:ry="168.5"
         d="m -397,476.86218 c 0,93.05998 -75.44002,168.5 -168.5,168.5 -93.05998,0 -168.5,-75.44002 -168.5,-168.5 0,-93.05998 75.44002,-168.5 168.5,-168.5 93.05998,0 168.5,75.44002 168.5,168.5 z"
         transform="matrix(0.7176994,0,0,0.6281871,-169.17329,129.9525)" />
      <path
         sodipodi:type="arc"
         style="opacity:0.29707115;fill:url(#radialGradient8116);fill-opacity:1;stroke:none"
         id="path7041"
         sodipodi:cx="-565.5"
         sodipodi:cy="476.86218"
         sodipodi:rx="168.5"
         sodipodi:ry="168.5"
         d="m -397,476.86218 c 0,93.05998 -75.44002,168.5 -168.5,168.5 -93.05998,0 -168.5,-75.44002 -168.5,-168.5 0,-93.05998 75.44002,-168.5 168.5,-168.5 93.05998,0 168.5,75.44002 168.5,168.5 z"
         transform="matrix(-1.0174614,0,0,-0.9105541,-1150.4067,949.78956)" />
      <path
         transform="matrix(-0.4137975,-0.3622363,0.311419,-0.3557468,-881.65422,371.53755)"
         d="m -397,476.86218 c 0,93.05998 -75.44002,168.5 -168.5,168.5 -93.05998,0 -168.5,-75.44002 -168.5,-168.5 0,-93.05998 75.44002,-168.5 168.5,-168.5 93.05998,0 168.5,75.44002 168.5,168.5 z"
         sodipodi:ry="168.5"
         sodipodi:rx="168.5"
         sodipodi:cy="476.86218"
         sodipodi:cx="-565.5"
         id="path7053"
         style="opacity:0.23012552;fill:url(#linearGradient8130);fill-opacity:1;stroke:none"
         sodipodi:type="arc" />
      <g
         style="fill:url(#radialGradient8144);fill-opacity:1"
         transform="matrix(-0.8016682,-0.1866796,-0.1866796,0.8016682,-798.75196,184.2597)"
         id="g7239">
        <path
           sodipodi:nodetypes="cscz"
           style="fill:url(#radialGradient8134);fill-opacity:1;fill-rule:evenodd;stroke:none"
           d="m -506.25366,308.19843 c -39.482,-45.46999 -3.8907,-35.25183 13.7488,-89.11367 16.84641,-51.44043 116.31385,190.3941 163.79538,86.60268 -25.60133,91.54221 -137.68701,48.41296 -177.54418,2.51099 z"
           id="path7241"
           inkscape:connector-curvature="0" />
        <path
           id="path7243"
           d="m -371.78643,452.23948 c -55.44514,23.49861 -34.72877,-7.19314 -80.50352,-40.61353 -43.71695,-31.91789 217.01851,-51.78607 132.97961,-129.017 79.15057,52.63641 3.49583,145.90856 -52.47609,169.63053 z"
           style="fill:url(#radialGradient8136);fill-opacity:1;fill-rule:evenodd;stroke:none"
           sodipodi:nodetypes="cscz"
           inkscape:connector-curvature="0" />
        <path
           sodipodi:nodetypes="cscz"
           style="fill:url(#radialGradient8138);fill-opacity:1;fill-rule:evenodd;stroke:none"
           d="m -193.23008,368.86226 c 5.21501,59.99293 -17.57287,30.80622 -63.50272,64.01313 -43.86499,31.71409 17.81093,-222.39965 -81.6095,-166.33957 74.51907,-59.01112 139.84756,41.76349 145.11222,102.32644 z"
           id="path7245"
           inkscape:connector-curvature="0" />
        <path
           id="path7247"
           d="m -217.36156,173.28976 c 58.66819,13.57906 23.86814,26.23244 41.25667,80.17582 16.60688,51.51828 -206.01075,-85.66447 -183.41704,26.21348 -33.09526,-89.10727 82.9347,-120.0973 142.16037,-106.3893 z"
           style="fill:url(#radialGradient8140);fill-opacity:1;fill-rule:evenodd;stroke:none"
           sodipodi:nodetypes="cscz"
           inkscape:connector-curvature="0" />
        <path
           sodipodi:nodetypes="cscz"
           style="fill:url(#radialGradient8142);fill-opacity:1;fill-rule:evenodd;stroke:none"
           d="m -410.80165,135.79109 c 31.04392,-51.600607 32.32419,-14.59368 89.00075,-14.46175 54.1286,0.12596 -145.13258,169.45609 -31.74848,182.5404 -94.97305,3.93979 -88.59108,-115.9877 -57.25227,-168.07865 z"
           id="path7249"
           inkscape:connector-curvature="0" />
      </g>
    </g>
  </g>
</svg>
