<?xml version="1.0" encoding="UTF-8" standalone="no"?>
<!-- Generator: Adobe Illustrator 13.0.2, SVG Export Plug-In . SVG Version: 6.00 Build 14948)  -->

<svg
   xmlns:dc="http://purl.org/dc/elements/1.1/"
   xmlns:cc="http://creativecommons.org/ns#"
   xmlns:rdf="http://www.w3.org/1999/02/22-rdf-syntax-ns#"
   xmlns:svg="http://www.w3.org/2000/svg"
   xmlns="http://www.w3.org/2000/svg"
   xmlns:sodipodi="http://sodipodi.sourceforge.net/DTD/sodipodi-0.dtd"
   xmlns:inkscape="http://www.inkscape.org/namespaces/inkscape"
   version="1.1"
   id="kubuntu__x5F__black"
   x="0px"
   y="0px"
   width="170"
   height="170"
   viewBox="0 0 169.99999 170"
   enable-background="new 0 0 779.617 170.079"
   xml:space="preserve"
   inkscape:version="0.48.3.1 r9886"
   sodipodi:docname="kubuntu-logo.svg"
   inkscape:export-filename="/home/jr/src/logo/kubuntu_logotype_black.png"
   inkscape:export-xdpi="41.27"
   inkscape:export-ydpi="41.27"><metadata
   id="metadata27"><rdf:RDF><cc:Work
       rdf:about=""><dc:format>image/svg+xml</dc:format><dc:type
         rdf:resource="http://purl.org/dc/dcmitype/StillImage" /><dc:title /></cc:Work></rdf:RDF></metadata><defs
   id="defs25"><inkscape:perspective
     sodipodi:type="inkscape:persp3d"
     inkscape:vp_x="0 : 85.039497 : 1"
     inkscape:vp_y="0 : 1000 : 0"
     inkscape:vp_z="779.617 : 85.039497 : 1"
     inkscape:persp3d-origin="389.8085 : 56.692998 : 1"
     id="perspective29" /><inkscape:perspective
     id="perspective3135"
     inkscape:persp3d-origin="0.5 : 0.33333333 : 1"
     inkscape:vp_z="1 : 0.5 : 1"
     inkscape:vp_y="0 : 1000 : 0"
     inkscape:vp_x="0 : 0.5 : 1"
     sodipodi:type="inkscape:persp3d" /><inkscape:perspective
     id="perspective3415"
     inkscape:persp3d-origin="0.5 : 0.33333333 : 1"
     inkscape:vp_z="1 : 0.5 : 1"
     inkscape:vp_y="0 : 1000 : 0"
     inkscape:vp_x="0 : 0.5 : 1"
     sodipodi:type="inkscape:persp3d" /><inkscape:perspective
     id="perspective2861"
     inkscape:persp3d-origin="0.5 : 0.33333333 : 1"
     inkscape:vp_z="1 : 0.5 : 1"
     inkscape:vp_y="0 : 1000 : 0"
     inkscape:vp_x="0 : 0.5 : 1"
     sodipodi:type="inkscape:persp3d" /></defs><sodipodi:namedview
   pagecolor="#ffffff"
   bordercolor="#666666"
   borderopacity="1"
   objecttolerance="10"
   gridtolerance="10"
   guidetolerance="10"
   inkscape:pageopacity="0"
   inkscape:pageshadow="2"
   inkscape:window-width="1280"
   inkscape:window-height="739"
   id="namedview23"
   showgrid="false"
   inkscape:zoom="1.3253237"
   inkscape:cx="436.11987"
   inkscape:cy="145.40161"
   inkscape:window-x="0"
   inkscape:window-y="-3"
   inkscape:window-maximized="1"
   inkscape:current-layer="g3657" />


<g
   id="g3657"
   transform="translate(0,-0.07798767)"><g
     transform="translate(-1.5885229e-5,0)"
     id="g7">
	
	
	
	
	
	
	
</g><g
     transform="matrix(1.8538959,0,0,1.8538959,-1449.692,-17.355087)"
     id="g3647"><path
       inkscape:connector-curvature="0"
       style="fill:#0079c1"
       d="m 872.23977,55.171341 c 0,24.64394 -19.97925,44.625008 -44.62479,44.625008 -24.64456,0 -44.62309,-19.981068 -44.62309,-44.625008 0,-24.644245 19.97853,-44.622169 44.62309,-44.622169 24.64554,0 44.62479,19.977924 44.62479,44.622169 z"
       id="path2819-8-3-8" /><g
       id="g4835-5-6-3"
       transform="matrix(0.415288,0,0,0.415288,609.13611,80.906538)"
       style="fill:#ffffff;fill-opacity:1"><path
         inkscape:connector-curvature="0"
         id="path79-9-8-1"
         style="fill:#ffffff;fill-opacity:1"
         d="m 490.89173,-23.585335 3.65182,-79.224895 -24.28352,-22.12009 c -0.57715,-0.37695 -1.33691,-0.29883 -1.82178,0.18945 l -11.21875,11.2168 c -0.47168,0.47314 -0.56055,1.20801 -0.21289,1.78076 l 13.13428,21.631353 c -2.32959,3.9165 -4.19531,8.13965 -5.52979,12.594237 l -24.11377,5.01563 c -0.6709,0.13916 -1.1543,0.7334 -1.1543,1.42188 l 0,15.862785 c 0,0.6709 0.45801,1.25195 1.10449,1.4082 l 23.4043,5.7207 c 1.24805,5.15918 3.18262,10.05078 5.73877,14.5459 l -13.54639,20.6582 c -0.37793,0.57715 -0.29883,1.33789 0.18945,1.82422 l 11.21533,11.21680039 c 0.47168,0.4707 1.20801,0.56152 1.7832,0.21582 L 490.89173,-23.585335 z"
         sodipodi:nodetypes="ccccccccccccccccccc" /></g><g
       id="g4835-5-6-3-7"
       transform="matrix(-0.21579109,0.35482154,-0.35482154,-0.21579109,919.22927,-144.75119)"
       style="fill:#ffffff;fill-opacity:1"><path
         inkscape:connector-curvature="0"
         id="path79-9-8-1-7"
         style="fill:#ffffff;fill-opacity:1"
         d="m 492.48953,-21.721918 0.2923,-79.602262 -22.5218,-23.60614 c -0.57715,-0.37695 -1.33691,-0.29883 -1.82178,0.18945 l -11.21875,11.2168 c -0.47168,0.47314 -0.56055,1.20801 -0.21289,1.78076 l 13.13428,21.631353 c -2.32959,3.9165 -4.19531,8.13965 -5.52979,12.594237 l -24.11377,5.01563 c -0.6709,0.13916 -1.1543,0.7334 -1.1543,1.42188 l 0,15.862785 c 0,0.6709 0.45801,1.25195 1.10449,1.4082 l 23.4043,5.7207 c 1.24805,5.15918 3.18262,10.05078 5.73877,14.5459 l -13.54639,20.6582 c -0.37793,0.57715 -0.29883,1.33789 0.18945,1.82422 l 11.21533,11.21680039 c 0.47168,0.4707 1.20801,0.56152 1.7832,0.21582 L 492.48953,-21.721918 z"
         sodipodi:nodetypes="ccccccccccccccccccc" /></g><g
       id="g4835-5-6-3-1"
       transform="matrix(-0.20731956,-0.35983709,0.35983709,-0.20731956,958.85963,231.66525)"
       style="fill:#ffffff;fill-opacity:1"><path
         inkscape:connector-curvature="0"
         id="path79-9-8-1-5"
         style="fill:#ffffff;fill-opacity:1"
         d="m 491.63809,-24.019439 1.65581,-78.077921 -23.03387,-22.83296 c -0.57715,-0.37695 -1.33691,-0.29883 -1.82178,0.18945 l -11.21875,11.2168 c -0.47168,0.47314 -0.56055,1.20801 -0.21289,1.78076 l 13.13428,21.631353 c -2.32959,3.9165 -4.19531,8.13965 -5.52979,12.594237 l -24.11377,5.01563 c -0.6709,0.13916 -1.1543,0.7334 -1.1543,1.42188 l 0,15.862785 c 0,0.6709 0.45801,1.25195 1.10449,1.4082 l 23.4043,5.7207 c 1.24805,5.15918 3.18262,10.05078 5.73877,14.5459 l -13.54639,20.6582 c -0.37793,0.57715 -0.29883,1.33789 0.18945,1.82422 l 11.21533,11.21680039 c 0.47168,0.4707 1.20801,0.56152 1.7832,0.21582 L 491.63809,-24.019439 z"
         sodipodi:nodetypes="ccccccccccccccccccc" /></g><path
       inkscape:connector-curvature="0"
       style="fill:#0079c1;fill-opacity:1"
       d="m 849.15577,55.172072 c 0,11.895612 -9.64397,21.540458 -21.54035,21.540458 -11.89591,0 -21.53953,-9.644846 -21.53953,-21.540458 0,-11.895759 9.64362,-21.539088 21.53953,-21.539088 11.89638,0 21.54035,9.643329 21.54035,21.539088 z"
       id="path2819-8-3-8-5" /></g></g></svg>