<?xml version="1.0" encoding="UTF-8" standalone="no"?>
<!-- Generator: Adobe Illustrator 13.0.0, SVG Export Plug-In . SVG Version: 6.00 Build 14948)  -->

<svg
   xmlns:dc="http://purl.org/dc/elements/1.1/"
   xmlns:cc="http://creativecommons.org/ns#"
   xmlns:rdf="http://www.w3.org/1999/02/22-rdf-syntax-ns#"
   xmlns:svg="http://www.w3.org/2000/svg"
   xmlns="http://www.w3.org/2000/svg"
   xmlns:sodipodi="http://sodipodi.sourceforge.net/DTD/sodipodi-0.dtd"
   xmlns:inkscape="http://www.inkscape.org/namespaces/inkscape"
   version="1.0"
   id="Layer_1"
   x="0px"
   y="0px"
   width="192.756px"
   height="192.756px"
   viewBox="0 0 192.756 192.756"
   enable-background="new 0 0 192.756 192.756"
   xml:space="preserve"
   inkscape:version="0.48.3.1 r9886"
   sodipodi:docname="mandrake_logo.svg"><metadata
   id="metadata4598"><rdf:RDF><cc:Work
       rdf:about=""><dc:format>image/svg+xml</dc:format><dc:type
         rdf:resource="http://purl.org/dc/dcmitype/StillImage" /></cc:Work></rdf:RDF></metadata><defs
   id="defs4596" /><sodipodi:namedview
   pagecolor="#ffffff"
   bordercolor="#666666"
   borderopacity="1"
   objecttolerance="10"
   gridtolerance="10"
   guidetolerance="10"
   inkscape:pageopacity="0"
   inkscape:pageshadow="2"
   inkscape:window-width="640"
   inkscape:window-height="480"
   id="namedview4594"
   showgrid="false"
   inkscape:zoom="1.2243458"
   inkscape:cx="96.377998"
   inkscape:cy="96.377998"
   inkscape:window-x="0"
   inkscape:window-y="0"
   inkscape:window-maximized="0"
   inkscape:current-layer="Layer_1" />
<g
   id="g4572">
	
	<polygon
   clip-rule="evenodd"
   points="155.85,21.006 156.324,42.036 176.498,48.741 156.407,55.686    156.189,76.719 143.297,59.981 122.989,66.276 135.111,48.987 122.778,31.844 143.162,37.896 155.85,21.006 155.85,21.006  "
   id="polygon4576"
   fill-rule="evenodd" />
	<path
   clip-rule="evenodd"
   d="M142.718,53.838l-39.297,114.059c0,0-1.126,2.947,1.39,3.689   c2.517,0.744,3.083-2.41,3.083-2.41l39.618-115.338H142.718L142.718,53.838L142.718,53.838z"
   id="path4578"
   fill-rule="evenodd" />
	<path
   clip-rule="evenodd"
   d="M43.775,114.893c0,0-10.434,3.928-15.394,7.316   c-4.959,3.391-12.202,9.045-10.447,14.514c1.754,5.471,7.496,7.623,20.792,7.104c13.296-0.521,40.758-5.65,49.311-7.725   c11.224-2.723,74.527-18.084,70.994-37.816c-1.83-10.221-32.557-4.999-36.324-4.881c-5.678-19.693-14.465-63.142-17.994-67.937   c-3.73-5.07-28.234-2.006-38.632,0.403c-10.866,2.518-41.539,10.914-39.04,21.064L43.775,114.893L43.775,114.893L43.775,114.893z"
   id="path4580"
   fill-rule="evenodd" />
	<path
   clip-rule="evenodd"
   d="M42.363,113.951c0,0-10.434,3.928-15.393,7.318   c-4.959,3.387-12.202,9.043-10.447,14.514c1.755,5.471,7.496,7.623,20.792,7.102s40.758-5.65,49.311-7.725   c11.224-2.723,74.527-18.084,70.995-37.816c-1.83-10.22-32.557-4.998-36.325-4.88c-5.678-19.693-14.463-63.142-17.993-67.938   c-3.73-5.069-28.234-2.006-38.633,0.404c-10.865,2.518-41.539,10.914-39.04,21.063L42.363,113.951L42.363,113.951L42.363,113.951z"
   id="path4582"
   fill-rule="evenodd"
   fill="#4E5FAB" />
	<path
   clip-rule="evenodd"
   d="M30.519,52.993l14.223,56.705c0,0,1.553,3.805,4.837,2.967   c3.284-0.836,2.175-5.291,2.175-5.291L37.148,50.882c0,0-0.716-3.659-4.335-2.901C29.195,48.738,30.465,52.781,30.519,52.993   L30.519,52.993L30.519,52.993z"
   id="path4584"
   fill-rule="evenodd"
   fill="#B8C2D4" />
	<path
   clip-rule="evenodd"
   d="M117.65,126.258c1.835-0.613,3.686-1.254,5.534-1.922   l11.467-33.129c-1.758,0.117-3.439,0.264-4.976,0.414L117.65,126.258L117.65,126.258L117.65,126.258z"
   id="path4586"
   fill-rule="evenodd"
   fill="#375291" />
	<path
   clip-rule="evenodd"
   d="M141.738,54.114l-39.297,114.058c0,0-1.126,2.949,1.39,3.691   c2.517,0.742,3.083-2.412,3.083-2.412l39.618-115.337H141.738L141.738,54.114L141.738,54.114z"
   id="path4588"
   fill-rule="evenodd"
   fill="#6A89BD" />
	<polygon
   clip-rule="evenodd"
   points="143.821,62.012 142.456,60.24 139.294,61.22    141.576,54.598 146.367,54.598 143.821,62.012 143.821,62.012  "
   id="polygon4590"
   fill-rule="evenodd"
   fill="#375291" />
	<polygon
   clip-rule="evenodd"
   points="155.172,20.78 155.646,41.81 175.82,48.514    155.729,55.459 155.512,76.494 142.619,59.755 122.312,66.051 134.434,48.761 122.101,31.618 142.484,37.67 155.172,20.78    155.172,20.78  "
   id="polygon4592"
   fill-rule="evenodd"
   fill="#FFC709" />
</g>
</svg>