<?xml version="1.0" encoding="UTF-8" standalone="no"?>
<svg
   xmlns:svg="http://www.w3.org/2000/svg"
   xmlns="http://www.w3.org/2000/svg"
   xmlns:xlink="http://www.w3.org/1999/xlink"
   xmlns:inkscape="http://www.inkscape.org/namespaces/inkscape"
   version="1.0"
   width="128"
   height="128"
   id="svg2">
  <defs
     id="defs4">
    <linearGradient
       id="linearGradient3434">
      <stop
         id="stop3436"
         style="stop-color:#000000;stop-opacity:1"
         offset="0" />
      <stop
         id="stop3438"
         style="stop-color:#ffffff;stop-opacity:1"
         offset="1" />
    </linearGradient>
    <linearGradient
       id="linearGradient3196">
      <stop
         id="stop3198"
         style="stop-color:#ffffff;stop-opacity:0.1254902"
         offset="0" />
      <stop
         id="stop3200"
         style="stop-color:#ffffff;stop-opacity:0.87450981"
         offset="1" />
    </linearGradient>
    <linearGradient
       id="linearGradient2398">
      <stop
         id="stop2400"
         style="stop-color:#74b61e;stop-opacity:1"
         offset="0" />
      <stop
         id="stop3446"
         style="stop-color:#74b61e;stop-opacity:1"
         offset="0.5" />
      <stop
         id="stop2402"
         style="stop-color:#507f13;stop-opacity:1"
         offset="1" />
    </linearGradient>
    <filter
       id="filter3314">
      <feGaussianBlur
         id="feGaussianBlur3316"
         stdDeviation="0.30809652"
         inkscape:collect="always" />
    </filter>
    <filter
       id="filter3442">
      <feGaussianBlur
         id="feGaussianBlur3444"
         stdDeviation="0.62285713"
         inkscape:collect="always" />
    </filter>
    <linearGradient
       x1="346.91006"
       y1="637.86218"
       x2="346.91006"
       y2="513.23267"
       id="linearGradient3554"
       xlink:href="#linearGradient3434"
       gradientUnits="userSpaceOnUse" />
    <linearGradient
       x1="62.881996"
       y1="51.986023"
       x2="62.881996"
       y2="3.6720147"
       id="linearGradient3561"
       xlink:href="#linearGradient3196"
       gradientUnits="userSpaceOnUse"
       gradientTransform="translate(0.7576085,-1.2626951)" />
    <radialGradient
       cx="319.82144"
       cy="641.1474"
       r="61.785713"
       fx="319.82144"
       fy="641.1474"
       id="radialGradient3565"
       xlink:href="#linearGradient2398"
       gradientUnits="userSpaceOnUse"
       gradientTransform="matrix(2.0716762,0,0,1.949057,-598.56646,-1121.6328)" />
  </defs>
  <path
     d="M 128,63.999998 C 128,99.346226 99.346215,128 63.999987,128 C 28.653769,128 -1.1231e-05,99.346226 -1.1231e-05,63.999998 C -1.1231e-05,28.65377 28.653769,-6.85e-07 63.999987,-6.85e-07 C 99.346215,-6.85e-07 128,28.65377 128,63.999998 z"
     id="bg"
     style="fill:url(#radialGradient3565)" />
  <path
     d="M 412.50001,575.57648 C 412.50001,609.69979 384.8376,637.3622 350.71429,637.3622 C 316.59099,637.3622 288.92858,609.69979 288.92858,575.57648 C 288.92858,541.45317 316.59099,513.79077 350.71429,513.79077 C 384.8376,513.79077 412.50001,541.45317 412.50001,575.57648 z"
     transform="matrix(1.0277457,0,0,1.0277457,-296.44511,-527.54626)"
     id="shaglow"
     style="fill:none;stroke:url(#linearGradient3554);filter:url(#filter3442)" />
  <path
     d="M 102.53048,27.994894 C 102.53048,40.547461 85.118441,50.723326 63.639604,50.723326 C 42.160768,50.723326 24.748731,40.547461 24.748731,27.994894 C 24.748731,15.442327 42.160768,5.2664616 63.639604,5.2664616 C 85.118441,5.2664616 102.53048,15.442327 102.53048,27.994894 L 102.53048,27.994894 z"
     id="glow"
     style="fill:url(#linearGradient3561);filter:url(#filter3314)" />
  <path
     d="M 73.606738,33.255215 C 71.435718,33.256535 69.423798,33.306435 68.476338,33.411285 C 62.732048,34.047045 57.688608,35.575645 52.077898,38.376795 C 43.034918,42.891515 37.356978,48.001415 34.150478,54.514685 C 32.714738,57.431015 32.217938,59.474345 32.201208,62.529195 C 32.190618,64.461995 32.332468,65.487025 32.831628,67.059115 C 34.629668,72.721925 39.755438,76.762825 45.693868,77.204295 C 51.440278,77.631455 55.710318,75.357155 57.617698,70.855835 C 58.309218,69.223935 58.516968,67.806825 58.324218,66.021015 C 57.852908,61.653995 55.027568,58.332415 50.853268,57.233385 C 49.575068,56.896845 47.607828,56.886295 46.353288,57.229745 C 42.913608,58.171425 40.411438,61.272145 41.331578,65.099045 C 42.112238,68.345885 45.905998,70.380605 49.114148,69.091775 C 50.395238,68.577125 51.141018,67.954355 50.769938,66.587255 C 50.391718,65.194005 49.456558,64.865375 47.664868,65.367655 C 46.959618,65.565375 46.460688,65.438725 45.933008,64.961125 C 45.047728,64.159865 45.061918,62.935175 45.969238,62.060945 C 47.073688,60.996795 49.092848,60.907175 50.936588,61.843155 C 52.761278,62.769485 54.094218,65.391295 53.806148,67.487435 C 53.496898,69.737575 52.205908,71.290605 50.041678,72.013735 C 49.319128,72.255145 49.020158,72.282965 47.317038,72.278715 C 45.490208,72.274135 45.355408,72.257365 44.327928,71.912105 C 40.473558,70.616935 37.927658,67.106405 37.904058,63.051875 C 37.889158,60.491415 38.798188,58.424315 40.817108,56.431195 C 42.714928,54.557625 45.166418,53.642425 48.288048,53.643565 C 52.168558,53.644965 55.390568,55.001475 58.211908,57.825025 C 60.335158,59.949965 61.938258,62.830025 62.556088,65.621735 L 62.751738,66.507395 L 68.324168,69.240605 C 68.368858,69.199725 68.355608,68.824575 68.295178,68.569085 C 68.066818,67.603595 68.031058,64.914995 68.229958,63.777835 C 68.519228,62.124085 68.910258,61.263385 69.744438,60.438445 C 71.030548,59.166605 72.618068,58.618515 75.027008,58.616305 C 78.231228,58.613385 80.950458,59.787415 83.382028,62.227915 C 83.927648,62.775535 85.116908,64.072635 86.026948,65.109945 C 86.936998,66.147235 87.820288,67.095225 87.990698,67.215205 C 88.468818,67.551805 94.964408,70.526425 95.045008,70.445685 C 95.084198,70.406435 94.853908,69.992375 94.530498,69.523735 C 93.264708,67.689365 92.191458,65.326575 91.780528,63.472925 C 91.499408,62.204785 91.576498,60.333135 91.947198,59.480205 C 92.294258,58.681635 93.034208,58.007005 93.816748,57.774215 C 94.654968,57.524835 96.484608,57.539895 98.939918,57.817775 C 101.88469,58.151035 103.51261,58.215005 105.45437,58.068205 C 109.87645,57.733905 112.77128,57.006655 116.01227,55.422145 C 117.70607,54.594025 118.06618,54.274375 118.43254,53.284205 C 118.78186,52.340125 118.94758,51.436655 118.76949,51.436655 C 118.70646,51.436655 118.11169,51.692455 117.44704,52.006535 C 114.95306,53.185075 112.81188,53.708805 110.91085,53.607255 C 108.93462,53.501685 105.69779,52.416235 101.85656,50.569145 L 100.10656,49.727035 L 98.679048,46.307835 L 100.01236,47.139015 C 102.20567,48.595445 105.75266,50.339175 107.91449,51.022865 C 111.21715,52.067335 113.84557,51.931105 116.505,50.576405 C 117.44236,50.098925 119.20067,48.892075 119.20067,48.725225 C 119.20067,48.410725 118.26036,45.353985 117.73689,43.966625 C 116.42785,40.497205 115.53553,39.340545 113.37823,38.311465 C 110.98317,37.168965 108.34368,36.350435 103.49061,35.244315 C 101.17035,34.751655 98.838228,34.274795 96.483398,33.981165 L 96.425438,36.855935 C 90.939128,35.149765 86.138898,34.021885 80.824078,33.473005 C 79.450678,33.331155 76.398068,33.253515 73.606738,33.255215 z M 109.95797,39.142675 C 111.73032,39.138145 113.42157,40.049425 114.41083,41.698025 C 116.09765,44.509155 114.71489,48.161195 111.5594,49.226135 C 109.47695,49.928945 106.99701,49.089035 105.73697,47.255175 C 104.70278,45.750035 104.52938,43.806825 105.28045,42.177155 C 105.70722,41.251145 106.72293,40.155655 107.54856,39.734335 C 108.32758,39.336755 109.15234,39.144725 109.95797,39.142675 z M 109.89998,40.645405 C 109.06942,40.662975 108.22313,40.971545 107.50871,41.618175 C 106.41792,42.605395 106.06762,44.390715 106.69711,45.752465 C 107.21392,46.870505 108.19276,47.641995 109.33479,47.828675 C 110.95426,48.093425 112.48841,47.337965 113.16084,45.941215 C 113.62081,44.985725 113.70274,44.330035 113.47243,43.429425 C 113.01528,41.641735 111.48558,40.611805 109.89998,40.645405 z M 110.7478,42.492945 C 111.3635,42.492945 112.10434,42.877825 112.19708,43.247925 C 112.32307,43.750865 112.15258,44.098275 111.66447,44.347745 C 110.91076,44.732975 109.94196,44.623975 109.37462,44.090045 C 108.67519,43.431755 109.4825,42.492945 110.7478,42.492945 z"
     id="chameleon"
     style="fill:#d3e5bb" />
  <path
     d="M 66.723088,74.455675 C 65.912028,74.455675 65.472328,74.558475 65.251658,74.617565 C 63.202048,75.166445 61.504878,76.828685 60.995688,78.783595 C 60.756118,79.703355 60.756118,82.342875 60.995688,83.262635 C 61.437038,84.957095 62.633278,86.190295 64.445798,86.817075 C 64.644028,86.885615 65.335798,87.018535 66.248198,87.018535 C 66.248198,87.018535 72.504448,87.018535 72.504448,87.018535 C 73.248598,87.126595 73.518438,87.411975 73.760018,87.738055 C 73.955018,88.001275 74.009308,88.263055 74.037028,89.119545 C 74.079588,90.434105 73.897898,90.856975 73.141228,91.238535 C 72.628808,91.496935 72.367538,91.497565 72.148288,91.497565 L 61.071228,91.497565 L 61.071228,94.242545 C 61.071228,94.556415 61.186238,95.079385 61.970638,95.613235 C 61.970638,95.613235 62.366308,95.904645 62.999558,95.904645 C 62.999558,95.904645 73.684468,95.904645 73.684468,95.904645 C 74.144608,95.904645 74.420508,95.835945 74.864488,95.717565 C 76.915938,95.170585 78.609838,93.511935 79.120458,91.551525 C 79.365778,90.609675 79.366098,87.321335 79.120458,86.370965 C 78.776578,85.040505 77.725038,83.951205 76.389878,83.442515 C 75.461598,83.088835 74.802248,82.982015 74.414788,82.982015 C 74.414788,82.982015 67.647668,82.989215 67.647668,82.989215 C 67.310048,82.989215 66.891768,82.857585 66.712298,82.748175 C 66.172298,82.418945 65.970058,81.850325 66.021558,80.830645 C 66.070308,79.865155 66.274618,79.505605 66.985708,79.132575 C 67.421808,78.903795 67.640318,78.861805 68.388778,78.859155 L 77.789338,78.826775 L 77.789338,76.114175 C 77.789338,75.609475 77.631518,75.050005 77.048228,74.689515 C 76.695548,74.471545 76.417308,74.455575 75.936568,74.455675 C 75.936568,74.455675 66.723088,74.455675 66.723088,74.455675 z M 91.650948,74.462865 C 89.487658,74.471835 87.525688,74.526615 87.132348,74.631955 C 85.627388,75.034975 84.047408,76.250835 83.362048,77.535225 C 82.716768,78.744495 82.700088,78.969435 82.700088,85.183755 C 82.700088,91.372405 82.715608,91.563405 83.347648,92.810695 C 83.994218,94.086635 85.719758,95.425735 87.146738,95.760735 C 87.392508,95.818435 89.924088,95.869735 92.773398,95.875855 C 97.750688,95.886555 97.967638,95.879795 98.328108,95.660005 C 99.047018,95.221685 99.162278,94.872075 99.162768,93.102095 L 99.162768,91.522755 L 94.126098,91.490365 C 89.302668,91.458435 89.072388,91.448405 88.686508,91.224145 C 88.013178,90.832845 87.880848,90.412655 87.880648,88.669845 L 87.880648,87.148055 L 94.010978,87.115665 C 99.947888,87.083205 100.1564,87.075065 100.65937,86.842255 C 101.30516,86.543335 101.89497,85.962695 102.17036,85.356445 C 102.35561,84.948655 102.3804,84.556005 102.38263,82.057425 C 102.38485,79.558045 102.35877,79.133135 102.15957,78.488605 C 101.59758,76.670145 99.978088,75.149835 98.072678,74.653545 C 97.544858,74.516065 94.432308,74.451335 91.650948,74.462865 z M 21.947198,74.473665 C 21.136138,74.473665 20.696448,74.572865 20.475778,74.631955 C 18.426158,75.180825 16.728988,76.843085 16.219808,78.797995 C 15.980238,79.717735 15.980238,82.360875 16.219808,83.280615 C 16.661148,84.975085 17.853788,86.204685 19.666308,86.831465 C 19.864548,86.900015 20.559918,87.032925 21.472318,87.032925 C 21.472318,87.032925 27.724968,87.032925 27.724958,87.032925 C 28.469118,87.140985 28.742548,87.426375 28.984128,87.752455 C 29.179138,88.015675 29.229818,88.277455 29.257548,89.133935 C 29.300098,90.448495 29.122008,90.874955 28.365338,91.256525 C 27.852918,91.514925 27.591648,91.515555 27.372388,91.515555 L 16.291758,91.515555 L 16.291758,94.260535 C 16.291758,94.574415 16.406768,95.097365 17.191148,95.631215 C 17.191148,95.631215 17.586828,95.919035 18.220078,95.919035 C 18.220078,95.919035 28.847418,95.919035 28.847418,95.919035 C 29.307568,95.919035 29.587058,95.850335 30.031028,95.731955 C 32.082488,95.184975 33.776388,93.529925 34.287008,91.569525 C 34.532328,90.627675 34.529048,87.335725 34.283408,86.385365 C 33.939538,85.054895 32.945558,83.965595 31.610388,83.456905 C 30.682108,83.103235 30.026348,82.996415 29.638888,82.996415 C 29.638888,82.996415 22.868178,83.003605 22.868178,83.003605 C 22.530568,83.003605 22.115868,82.871985 21.936408,82.762565 C 21.396418,82.433335 21.190578,81.868305 21.242068,80.848635 C 21.290828,79.883145 21.498738,79.519995 22.209828,79.146955 C 22.645908,78.918195 22.860828,78.876245 23.609288,78.873545 L 32.837168,78.841165 L 32.837168,76.128565 C 32.837168,75.623865 32.679348,75.064395 32.096068,74.703905 C 31.743368,74.485935 31.465128,74.473565 30.984398,74.473665 C 30.984398,74.473665 21.947198,74.473665 21.947198,74.473665 z M 92.543148,78.909515 C 95.809488,78.909515 96.018968,78.921755 96.396198,79.143365 C 97.091128,79.551625 97.245748,79.973565 97.299198,81.578955 L 97.345958,82.996415 L 87.880648,82.996415 L 87.880648,81.604125 C 87.880648,79.991405 88.013128,79.576105 88.668528,79.168555 C 89.080068,78.912625 89.154578,78.909515 92.543148,78.909515 z M 40.140318,79.830505 C 38.867798,79.830505 38.615358,79.927835 38.096878,80.621985 C 37.866998,80.929755 37.858408,81.095715 37.827058,85.899685 C 37.796668,90.556105 37.806768,90.915465 38.024928,91.778175 C 38.641068,94.214695 40.414388,95.638525 43.270248,95.990985 C 45.788678,96.301805 47.419408,96.015325 49.889848,94.832545 C 51.550898,94.037305 51.909328,93.917925 52.242688,94.044675 C 52.394208,94.102285 52.809548,94.546705 53.167278,95.030425 L 53.818448,95.908245 L 55.124378,95.868665 C 56.332598,95.833085 56.455278,95.810935 56.739708,95.544885 C 57.391448,94.935255 57.372888,95.177925 57.372888,88.015075 C 57.372888,84.375275 57.324428,81.279435 57.268558,81.132845 C 57.139768,80.794955 56.614748,80.265095 56.164088,80.021175 C 55.905128,79.881025 55.503428,79.832405 54.588338,79.830505 C 53.212338,79.827645 52.925778,79.948135 52.480138,80.704725 C 52.263108,81.073175 52.246578,81.361295 52.192328,85.701815 C 52.128038,90.844845 52.156748,90.653725 51.285728,91.195365 C 50.882138,91.446345 50.752818,91.458235 47.875198,91.493965 C 44.626378,91.534315 44.191768,91.480385 43.633608,90.957925 C 42.975968,90.342355 42.982438,90.387475 42.982438,85.770175 C 42.982438,81.353645 42.958778,81.105115 42.485968,80.596805 C 41.935408,80.004895 41.401228,79.830505 40.140318,79.830505 z"
     id="SuSE"
     style="fill:#d3e5bb" />
</svg>